<svg width="23" height="23" viewBox="0 0 23 23" fill="none" xmlns="http://www.w3.org/2000/svg">
<path d="M11.6578 0.278652C10.2098 0.225443 8.76619 0.469127 7.41405 0.99499C6.06191 1.52085 4.82932 2.31799 3.7907 3.33826C2.75209 4.35854 1.92899 5.58079 1.37111 6.93122C0.813229 8.28165 0.532135 9.73225 0.5448 11.1954C0.525815 12.7031 0.823379 14.1978 1.41789 15.5809C2.0124 16.964 2.89036 18.2043 3.99394 19.2199L4.0462 20.9445C4.06101 21.4213 4.25897 21.8735 4.59817 22.2055C4.93737 22.5374 5.39118 22.723 5.86351 22.723C6.11616 22.7227 6.36603 22.6697 6.59754 22.5676L8.53817 21.7037C9.55583 21.9774 10.6047 22.1147 11.6578 22.1122C13.1058 22.1655 14.5495 21.9218 15.9017 21.396C17.254 20.8701 18.4866 20.073 19.5253 19.0527C20.564 18.0325 21.3872 16.8102 21.9452 15.4598C22.5032 14.1093 22.7844 12.6587 22.7718 11.1954C22.7844 9.7322 22.5032 8.28157 21.9452 6.93112C21.3872 5.58068 20.564 4.35843 19.5253 3.33816C18.4866 2.3179 17.254 1.52078 15.9018 0.994934C14.5496 0.46909 13.1059 0.225426 11.6578 0.278652ZM11.6578 20.0717C10.7586 20.0744 9.86322 19.954 8.99599 19.7141C8.59439 19.6047 8.16778 19.6377 7.78741 19.8077L6.05593 20.5789L6.01055 19.0555C6.0005 18.8087 5.94154 18.5665 5.83715 18.3432C5.73276 18.1199 5.58506 17.9199 5.4028 17.7553C4.49411 16.9293 3.77082 15.9167 3.28144 14.7853C2.79206 13.6539 2.5479 12.4299 2.56535 11.1954C2.55888 10.0019 2.79194 8.81947 3.25048 7.71943C3.70901 6.61939 4.3835 5.62458 5.23324 4.79504C6.08298 3.9655 7.09035 3.31844 8.19454 2.8929C9.29874 2.46737 10.4769 2.27219 11.6578 2.31914C12.8372 2.27865 14.0126 2.47828 15.114 2.90613C16.2154 3.33398 17.2203 3.9813 18.0688 4.80954C18.9173 5.63777 19.5921 6.62999 20.0529 7.72709C20.5138 8.82418 20.7513 10.0037 20.7513 11.1954C20.7513 12.3872 20.5138 13.5667 20.0529 14.6638C19.5921 15.7609 18.9173 16.7531 18.0688 17.5814C17.2203 18.4096 16.2154 19.0569 15.114 19.4848C14.0126 19.9126 12.8372 20.1122 11.6578 20.0717ZM15.4306 8.01715L13.0943 10.8278L9.71324 8.72952C9.5069 8.60126 9.26172 8.55233 9.02257 8.59167C8.78342 8.63101 8.56629 8.75601 8.41093 8.94377L5.32782 12.6541C5.24209 12.7566 5.17723 12.8752 5.13697 13.0031C5.09671 13.1309 5.08183 13.2656 5.09319 13.3993C5.10455 13.533 5.14193 13.6631 5.20318 13.7822C5.26443 13.9012 5.34835 14.0069 5.45013 14.0932C5.55191 14.1795 5.66954 14.2446 5.79629 14.2849C5.92304 14.3251 6.05641 14.3397 6.18876 14.3278C6.32112 14.316 6.44984 14.2778 6.56757 14.2156C6.68529 14.1534 6.7897 14.0683 6.87481 13.9652L9.39847 10.9294L12.7795 13.0267C12.9858 13.155 13.2309 13.2041 13.47 13.165C13.7091 13.1258 13.9263 13.001 14.0818 12.8135L16.9775 9.32832C17.0638 9.22588 17.1291 9.10722 17.1697 8.97918C17.2104 8.85114 17.2256 8.71624 17.2144 8.58225C17.2032 8.44826 17.166 8.31782 17.1047 8.19845C17.0434 8.07907 16.9593 7.97311 16.8574 7.88667C16.7554 7.80022 16.6375 7.735 16.5104 7.69475C16.3834 7.65451 16.2497 7.64003 16.1171 7.65216C15.9845 7.66429 15.8555 7.70278 15.7377 7.76542C15.6199 7.82806 15.5155 7.91361 15.4306 8.01715Z" fill="#679AB4"/>
</svg>
