<svg width="20" height="21" viewBox="0 0 20 21" fill="none" xmlns="http://www.w3.org/2000/svg">
<path d="M18.7992 15.3066L16.3543 12.8376C16.2604 12.742 16.1487 12.6661 16.0256 12.6143C15.9024 12.5625 15.7704 12.5358 15.637 12.5358C15.5037 12.5358 15.3716 12.5625 15.2485 12.6143C15.1254 12.6661 15.0137 12.742 14.9197 12.8376L11.303 16.4901C11.2093 16.5854 11.1352 16.6985 11.085 16.8228C11.0347 16.9471 11.0092 17.0802 11.01 17.2144V19.6834C11.01 19.954 11.1164 20.2135 11.3059 20.4049C11.4953 20.5962 11.7523 20.7037 12.0202 20.7037H14.4651C14.5981 20.7045 14.7299 20.6787 14.853 20.6279C14.9761 20.5772 15.088 20.5024 15.1824 20.4078L18.7992 16.7553C18.8939 16.6605 18.969 16.5477 19.0203 16.4233C19.0716 16.299 19.098 16.1656 19.098 16.031C19.098 15.8963 19.0716 15.7629 19.0203 15.6386C18.969 15.5143 18.8939 15.4014 18.7992 15.3066ZM14.0408 18.6632H13.0305V17.6429L15.637 15.0107L16.6473 16.031L14.0408 18.6632ZM7.97915 18.6632H3.93805C3.67011 18.6632 3.41314 18.5557 3.22368 18.3644C3.03422 18.173 2.92778 17.9135 2.92778 17.6429V3.35956C2.92778 3.08897 3.03422 2.82947 3.22368 2.63813C3.41314 2.4468 3.67011 2.33931 3.93805 2.33931H8.98942V5.40004C8.98942 6.21179 9.30874 6.9903 9.87713 7.5643C10.4455 8.1383 11.2164 8.46077 12.0202 8.46077H15.0511V9.48101C15.0511 9.75159 15.1575 10.0111 15.347 10.2024C15.5364 10.3938 15.7934 10.5013 16.0613 10.5013C16.3293 10.5013 16.5863 10.3938 16.7757 10.2024C16.9652 10.0111 17.0716 9.75159 17.0716 9.48101V7.44052C17.0716 7.44052 17.0716 7.44052 17.0716 7.37931C17.0611 7.28558 17.0408 7.19325 17.011 7.10384V7.01202C16.9624 6.90712 16.8976 6.81069 16.8191 6.72636L10.7574 0.604901C10.6739 0.525542 10.5784 0.460109 10.4745 0.411055C10.4444 0.406729 10.4138 0.406729 10.3836 0.411055L10.0603 0.298828H3.93805C3.13423 0.298828 2.36332 0.621297 1.79493 1.19529C1.22654 1.76929 0.907227 2.5478 0.907227 3.35956V17.6429C0.907227 18.4547 1.22654 19.2332 1.79493 19.8072C2.36332 20.3812 3.13423 20.7037 3.93805 20.7037H7.97915C8.24709 20.7037 8.50406 20.5962 8.69352 20.4049C8.88298 20.2135 8.98942 19.954 8.98942 19.6834C8.98942 19.4128 8.88298 19.1533 8.69352 18.962C8.50406 18.7707 8.24709 18.6632 7.97915 18.6632ZM11.01 3.77785L13.6266 6.42028H12.0202C11.7523 6.42028 11.4953 6.31279 11.3059 6.12146C11.1164 5.93013 11.01 5.67062 11.01 5.40004V3.77785ZM5.9586 12.5417H12.0202C12.2882 12.5417 12.5452 12.4342 12.7346 12.2429C12.9241 12.0516 13.0305 11.7921 13.0305 11.5215C13.0305 11.2509 12.9241 10.9914 12.7346 10.8001C12.5452 10.6087 12.2882 10.5013 12.0202 10.5013H5.9586C5.69066 10.5013 5.43369 10.6087 5.24423 10.8001C5.05476 10.9914 4.94832 11.2509 4.94832 11.5215C4.94832 11.7921 5.05476 12.0516 5.24423 12.2429C5.43369 12.4342 5.69066 12.5417 5.9586 12.5417ZM5.9586 8.46077H6.96887C7.23681 8.46077 7.49378 8.35328 7.68325 8.16194C7.87271 7.97061 7.97915 7.71111 7.97915 7.44052C7.97915 7.16994 7.87271 6.91044 7.68325 6.7191C7.49378 6.52777 7.23681 6.42028 6.96887 6.42028H5.9586C5.69066 6.42028 5.43369 6.52777 5.24423 6.7191C5.05476 6.91044 4.94832 7.16994 4.94832 7.44052C4.94832 7.71111 5.05476 7.97061 5.24423 8.16194C5.43369 8.35328 5.69066 8.46077 5.9586 8.46077ZM7.97915 14.5822H5.9586C5.69066 14.5822 5.43369 14.6897 5.24423 14.881C5.05476 15.0724 4.94832 15.3319 4.94832 15.6025C4.94832 15.873 5.05476 16.1326 5.24423 16.3239C5.43369 16.5152 5.69066 16.6227 5.9586 16.6227H7.97915C8.24709 16.6227 8.50406 16.5152 8.69352 16.3239C8.88298 16.1326 8.98942 15.873 8.98942 15.6025C8.98942 15.3319 8.88298 15.0724 8.69352 14.881C8.50406 14.6897 8.24709 14.5822 7.97915 14.5822Z" fill="#679AB4"/>
</svg>
