<svg width="28" height="28" viewBox="0 0 28 28" fill="none" xmlns="http://www.w3.org/2000/svg">
<rect width="28" height="28" rx="14" />
<path d="M17.1253 12.2315C17.0082 12.1151 16.8498 12.0498 16.6847 12.0498C16.5196 12.0498 16.3612 12.1151 16.2441 12.2315L14.0003 14.444L11.7878 12.2315C11.6707 12.1151 11.5123 12.0498 11.3472 12.0498C11.1821 12.0498 11.0237 12.1151 10.9066 12.2315C10.848 12.2897 10.8015 12.3588 10.7697 12.4349C10.738 12.5111 10.7217 12.5928 10.7217 12.6753C10.7217 12.7578 10.738 12.8395 10.7697 12.9157C10.8015 12.9918 10.848 13.0609 10.9066 13.1191L13.5566 15.769C13.6147 15.8276 13.6838 15.8741 13.7599 15.9059C13.8361 15.9376 13.9178 15.9539 14.0003 15.9539C14.0828 15.9539 14.1645 15.9376 14.2407 15.9059C14.3168 15.8741 14.386 15.8276 14.4441 15.769L17.1253 13.1191C17.1839 13.0609 17.2304 12.9918 17.2621 12.9157C17.2938 12.8395 17.3102 12.7578 17.3102 12.6753C17.3102 12.5928 17.2938 12.5111 17.2621 12.4349C17.2304 12.3588 17.1839 12.2897 17.1253 12.2315Z" fill="#818B9B"/>
</svg>
