<svg width="18" height="21" viewBox="0 0 18 21" fill="none" xmlns="http://www.w3.org/2000/svg">
<path d="M15.3949 2.82856C13.7872 1.20505 11.6068 0.292969 9.33321 0.292969C7.05965 0.292969 4.87921 1.20505 3.27156 2.82856C1.66391 4.45207 0.760742 6.65402 0.760742 8.95001C0.760742 11.246 1.66391 13.448 3.27156 15.0715L8.59571 20.4583C8.68962 20.554 8.80136 20.6299 8.92447 20.6817C9.04758 20.7335 9.17963 20.7601 9.313 20.7601C9.44637 20.7601 9.57842 20.7335 9.70153 20.6817C9.82464 20.6299 9.93638 20.554 10.0303 20.4583L15.3949 15.0205C16.9958 13.4037 17.8952 11.2109 17.8952 8.92451C17.8952 6.63809 16.9958 4.44531 15.3949 2.82856ZM13.9502 13.5615L9.33321 18.2444L4.71625 13.5615C3.80412 12.6395 3.18314 11.4652 2.9318 10.1868C2.68046 8.90852 2.81005 7.58365 3.30419 6.3797C3.79834 5.17574 4.63484 4.14676 5.70797 3.42283C6.7811 2.69889 8.04267 2.3125 9.33321 2.3125C10.6237 2.3125 11.8853 2.69889 12.9584 3.42283C14.0316 4.14676 14.8681 5.17574 15.3622 6.3797C15.8564 7.58365 15.986 8.90852 15.7346 10.1868C15.4833 11.4652 14.8623 12.6395 13.9502 13.5615ZM6.30238 5.81787C5.4868 6.64403 5.02883 7.76303 5.02883 8.92961C5.02883 10.0962 5.4868 11.2152 6.30238 12.0413C6.90831 12.6543 7.67998 13.0729 8.52059 13.2446C9.3612 13.4164 10.2333 13.3336 11.0275 13.0067C11.8217 12.6797 12.5026 12.1233 12.9848 11.407C13.467 10.6908 13.729 9.84667 13.738 8.98062C13.7426 8.40235 13.6323 7.82903 13.4136 7.29455C13.195 6.76008 12.8724 6.2753 12.4651 5.86888C12.0647 5.45525 11.5872 5.12567 11.0602 4.89911C10.5332 4.67254 9.96699 4.55346 9.39423 4.54872C8.82146 4.54397 8.25342 4.65367 7.7228 4.87148C7.19218 5.08929 6.70944 5.41092 6.30238 5.81787ZM11.0406 10.5926C10.6577 10.9851 10.1517 11.2312 9.60914 11.2887C9.06654 11.3462 8.52101 11.2115 8.06582 10.9078C7.61064 10.604 7.27406 10.1501 7.11364 9.62346C6.95322 9.09685 6.97891 8.53032 7.18633 8.02073C7.39375 7.51114 7.77001 7.09013 8.25078 6.82968C8.73156 6.56923 9.28699 6.48552 9.82211 6.59286C10.3572 6.7002 10.8388 6.99192 11.1845 7.41815C11.5303 7.84438 11.7186 8.37865 11.7175 8.92961C11.7028 9.55937 11.4411 10.1575 10.9901 10.5926H11.0406Z" fill="#679AB4"/>
</svg>
