<svg width="432" height="65" viewBox="0 0 432 65" fill="none" xmlns="http://www.w3.org/2000/svg">
<g filter="url(#filter0_d_5177_73902)">
<g clip-path="url(#clip0_5177_73902)">
<rect x="10" y="6" width="412" height="45" rx="22.5" fill="white"/>
<path d="M37.824 33.564H38.992L40.672 28.764C40.96 27.932 41.168 27.356 41.36 26.652H41.408C41.6 27.356 41.824 27.98 42.096 28.764L43.744 33.564H44.912L48.416 22.956H46.928L44.992 29.228C44.768 29.932 44.576 30.588 44.384 31.372H44.352C44.16 30.62 43.872 29.836 43.664 29.196L41.568 22.956H40.08L40.704 24.764L39.184 29.228C38.928 29.932 38.72 30.588 38.496 31.372H38.448C38.256 30.62 38.016 29.852 37.808 29.212L35.808 22.956H34.208L37.824 33.564ZM49.697 33.5H51.105V28.012C51.761 27.436 52.497 26.988 53.265 26.988C54.305 26.988 54.577 27.82 54.577 28.892V33.5H55.985V28.428C55.985 26.444 54.865 25.74 53.681 25.74C52.705 25.74 51.857 26.204 51.105 26.844V22.172H49.697V33.5ZM62.4728 33.5H63.6888C63.5928 33.116 63.5448 32.428 63.5448 31.132V28.38C63.5448 26.556 62.4568 25.74 60.7448 25.74C59.8488 25.74 58.8888 25.964 58.0088 26.492L58.5048 27.468C59.0488 27.148 59.7048 26.876 60.5688 26.876C61.4808 26.876 62.1368 27.34 62.1368 28.412V28.812L60.7288 28.86C59.9608 28.892 59.3528 28.988 58.8248 29.244C58.0568 29.612 57.5448 30.284 57.5448 31.292C57.5448 32.748 58.5848 33.66 59.9768 33.66C60.9208 33.66 61.6568 33.228 62.2328 32.684L62.4728 33.5ZM62.1368 29.82V31.644C61.8168 31.98 61.1768 32.508 60.3128 32.508C59.4968 32.508 58.9848 31.996 58.9848 31.212C58.9848 30.748 59.1928 30.364 59.5768 30.14C59.8968 29.98 60.2968 29.884 60.9048 29.868L62.1368 29.82ZM67.972 33.66C68.724 33.66 69.476 33.42 69.972 33.068L69.508 32.092C69.204 32.284 68.772 32.492 68.292 32.492C67.796 32.492 67.524 32.204 67.524 31.532V27.068H69.412L69.796 25.932H67.524V23.756L66.116 24.204V25.932H64.82V27.068H66.116V31.804C66.116 32.988 66.804 33.66 67.972 33.66ZM73.2916 37.004C73.7076 37.196 74.1716 37.292 74.7476 37.292C76.0276 37.292 77.2116 36.876 78.2516 33.98L81.0996 25.932H79.6596L77.6916 31.82H77.6596L75.1636 25.932H73.6596L77.0196 33.516C76.4276 35.452 75.6596 36.124 74.7156 36.124C74.2996 36.124 73.9476 36.028 73.6276 35.868L73.2916 37.004ZM85.3014 33.66C87.4774 33.66 88.9014 31.932 88.9014 29.708C88.9014 27.468 87.4614 25.74 85.3174 25.74C83.1414 25.74 81.7174 27.468 81.7174 29.708C81.7174 31.932 83.1414 33.66 85.3014 33.66ZM85.3014 32.492C83.9734 32.492 83.1734 31.324 83.1734 29.708C83.1734 28.076 83.9734 26.908 85.3174 26.908C86.6454 26.908 87.4454 28.076 87.4454 29.708C87.4454 31.324 86.6454 32.492 85.3014 32.492ZM92.8276 33.66C93.8196 33.66 94.6516 33.228 95.2916 32.652L95.5316 33.5H96.7796C96.6676 33.116 96.6196 32.428 96.6196 31.164V25.932H95.2116V31.484C94.8276 31.964 94.0756 32.428 93.2756 32.428C92.6516 32.428 92.2516 32.172 92.0596 31.644C91.9476 31.34 91.9156 31.004 91.9156 30.524V25.932H90.5076V30.78C90.5076 31.404 90.5716 31.804 90.7156 32.22C91.1156 33.34 92.0916 33.66 92.8276 33.66ZM98.87 25.756H99.894L100.054 22.172H98.678L98.87 25.756ZM101.961 33.5H103.369V27.996C104.073 27.308 104.569 27.02 105.113 27.02C105.353 27.02 105.593 27.084 105.833 27.212L106.329 25.964C106.105 25.82 105.753 25.74 105.433 25.74C104.745 25.74 104.105 26.012 103.305 26.86L103.145 25.932H101.961V33.5ZM110.366 33.66C111.23 33.66 112.158 33.42 112.862 32.972L112.414 31.996C111.886 32.284 111.262 32.508 110.542 32.508C109.038 32.508 108.174 31.452 108.142 30.028H113.038V29.676C113.038 27.26 111.886 25.74 109.902 25.74C107.966 25.74 106.702 27.356 106.702 29.66C106.702 31.82 107.854 33.66 110.366 33.66ZM108.142 28.972C108.158 27.82 108.814 26.86 109.902 26.86C111.038 26.86 111.55 27.916 111.582 28.972H108.142ZM118.291 32.012C118.291 33.02 118.803 33.596 119.859 33.596C120.227 33.596 120.675 33.516 121.027 33.372L120.739 32.268C120.611 32.316 120.387 32.364 120.275 32.364C119.875 32.364 119.699 32.188 119.699 31.612V22.172H118.291V32.012ZM125.489 33.66C127.665 33.66 129.089 31.932 129.089 29.708C129.089 27.468 127.649 25.74 125.505 25.74C123.329 25.74 121.905 27.468 121.905 29.708C121.905 31.932 123.329 33.66 125.489 33.66ZM125.489 32.492C124.161 32.492 123.361 31.324 123.361 29.708C123.361 28.076 124.161 26.908 125.505 26.908C126.833 26.908 127.633 28.076 127.633 29.708C127.633 31.324 126.833 32.492 125.489 32.492ZM133.895 33.66C136.071 33.66 137.495 31.932 137.495 29.708C137.495 27.468 136.055 25.74 133.911 25.74C131.735 25.74 130.311 27.468 130.311 29.708C130.311 31.932 131.735 33.66 133.895 33.66ZM133.895 32.492C132.567 32.492 131.767 31.324 131.767 29.708C131.767 28.076 132.567 26.908 133.911 26.908C135.239 26.908 136.039 28.076 136.039 29.708C136.039 31.324 135.239 32.492 133.895 32.492ZM139.181 33.5H140.589V29.74H140.621L143.661 33.5H145.341L141.773 29.164L145.021 25.932H143.357L140.621 28.668H140.589V22.172H139.181V33.5ZM146.558 33.5H147.966V25.932H146.558V33.5ZM147.246 24.38C147.774 24.38 148.174 23.98 148.174 23.468C148.174 22.956 147.79 22.572 147.246 22.572C146.718 22.572 146.35 22.972 146.35 23.468C146.35 23.98 146.718 24.38 147.246 24.38ZM150.07 33.5H151.478V28.012C152.15 27.436 152.886 26.988 153.654 26.988C154.694 26.988 154.95 27.82 154.95 28.892V33.5H156.358V28.428C156.358 26.444 155.254 25.74 154.054 25.74C153.094 25.74 152.246 26.188 151.43 26.86L151.27 25.932H150.07V33.5ZM160.992 37.292C163.376 37.292 164.752 36.3 164.752 34.892C164.752 32.06 159.776 33.372 159.776 31.916C159.776 31.676 159.856 31.436 160.112 31.148C160.384 31.244 160.72 31.292 161.072 31.292C162.848 31.292 164.064 30.188 164.064 28.54C164.064 27.836 163.808 27.148 163.28 26.636C163.472 26.508 163.728 26.46 163.952 26.46C164.096 26.46 164.272 26.476 164.416 26.508L164.736 25.452C164.656 25.436 164.448 25.404 164.272 25.404C163.504 25.404 162.992 25.66 162.624 26.028C162.56 26.092 162.528 26.092 162.448 26.044C162.144 25.9 161.664 25.756 160.992 25.756C159.232 25.756 158.112 26.988 158.112 28.476C158.112 29.484 158.576 30.316 159.328 30.78C158.672 31.324 158.48 31.852 158.48 32.252C158.48 32.652 158.672 33.004 159.008 33.196C158.096 33.612 157.616 34.316 157.616 35.1C157.616 36.46 158.928 37.292 160.992 37.292ZM161.152 36.236C159.808 36.236 158.912 35.724 158.912 34.86C158.912 34.204 159.456 33.804 159.808 33.58C161.088 33.996 163.36 33.74 163.36 35.036C163.36 35.708 162.592 36.236 161.152 36.236ZM161.088 30.172C160.08 30.172 159.488 29.452 159.488 28.508C159.488 27.484 160.144 26.876 161.072 26.876C162.032 26.876 162.672 27.58 162.672 28.524C162.672 29.596 161.984 30.172 161.088 30.172ZM169.771 33.5H171.179V27.068H172.747L173.115 25.932H171.179V24.652C171.179 23.852 171.515 23.404 172.235 23.404C172.523 23.404 172.811 23.468 173.099 23.58L173.387 22.444C172.987 22.252 172.491 22.172 172.091 22.172C170.875 22.172 169.771 22.86 169.771 24.7V25.932H168.731V27.068H169.771V33.5ZM177.473 33.66C179.649 33.66 181.073 31.932 181.073 29.708C181.073 27.468 179.633 25.74 177.489 25.74C175.313 25.74 173.889 27.468 173.889 29.708C173.889 31.932 175.313 33.66 177.473 33.66ZM177.473 32.492C176.145 32.492 175.345 31.324 175.345 29.708C175.345 28.076 176.145 26.908 177.489 26.908C178.817 26.908 179.617 28.076 179.617 29.708C179.617 31.324 178.817 32.492 177.473 32.492ZM182.68 33.5H184.088V27.996C184.792 27.308 185.288 27.02 185.832 27.02C186.072 27.02 186.312 27.084 186.552 27.212L187.048 25.964C186.824 25.82 186.472 25.74 186.152 25.74C185.464 25.74 184.824 26.012 184.024 26.86L183.864 25.932H182.68V33.5ZM189.463 30.604L190.615 30.044C190.391 29.788 190.295 29.548 190.295 29.244C190.295 27.884 193.495 27.388 193.495 25.116C193.495 23.836 192.551 22.86 190.839 22.86C189.783 22.86 188.743 23.292 187.895 24.06L188.551 24.988C189.223 24.396 189.879 24.076 190.663 24.076C191.431 24.076 191.975 24.476 191.975 25.244C191.975 26.86 188.887 27.276 188.887 29.212C188.887 29.724 189.079 30.188 189.463 30.604ZM190.119 33.628C190.599 33.628 190.967 33.228 190.967 32.732C190.967 32.252 190.599 31.852 190.119 31.852C189.639 31.852 189.255 32.252 189.255 32.732C189.255 33.228 189.639 33.628 190.119 33.628Z" fill="#676F7C"/>
<path fill-rule="evenodd" clip-rule="evenodd" d="M383.6 27.7C383.6 24.6072 386.107 22.1 389.2 22.1C392.293 22.1 394.8 24.6072 394.8 27.7C394.8 29.2088 394.203 30.5783 393.233 31.5852C393.206 31.6063 393.179 31.6293 393.154 31.6543C393.129 31.6794 393.106 31.7056 393.085 31.733C392.078 32.7033 390.709 33.3 389.2 33.3C386.107 33.3 383.6 30.7928 383.6 27.7ZM393.694 33.3255C392.462 34.3108 390.9 34.9 389.2 34.9C385.224 34.9 382 31.6764 382 27.7C382 23.7235 385.224 20.5 389.2 20.5C393.176 20.5 396.4 23.7235 396.4 27.7C396.4 29.4 395.811 30.9624 394.826 32.1941L397.766 35.1343C398.078 35.4467 398.078 35.9533 397.766 36.2657C397.453 36.5781 396.947 36.5781 396.634 36.2657L393.694 33.3255Z" fill="#F47B20"/>
</g>
</g>
<defs>
<filter id="filter0_d_5177_73902" x="0" y="0" width="432" height="65" filterUnits="userSpaceOnUse" color-interpolation-filters="sRGB">
<feFlood flood-opacity="0" result="BackgroundImageFix"/>
<feColorMatrix in="SourceAlpha" type="matrix" values="0 0 0 0 0 0 0 0 0 0 0 0 0 0 0 0 0 0 127 0" result="hardAlpha"/>
<feOffset dy="4"/>
<feGaussianBlur stdDeviation="5"/>
<feColorMatrix type="matrix" values="0 0 0 0 0.0352941 0 0 0 0 0.117647 0 0 0 0 0.258824 0 0 0 0.06 0"/>
<feBlend mode="normal" in2="BackgroundImageFix" result="effect1_dropShadow_5177_73902"/>
<feBlend mode="normal" in="SourceGraphic" in2="effect1_dropShadow_5177_73902" result="shape"/>
</filter>
<clipPath id="clip0_5177_73902">
<rect x="10" y="6" width="412" height="45" rx="22.5" fill="white"/>
</clipPath>
</defs>
</svg>
