<svg width="16" height="16" viewBox="0 0 16 16" fill="none" xmlns="http://www.w3.org/2000/svg">
<path fill-rule="evenodd" clip-rule="evenodd" d="M1.6 7.19999C1.6 4.1072 4.1072 1.6 7.19999 1.6C10.2928 1.6 12.8 4.1072 12.8 7.19999C12.8 8.70881 12.2033 10.0783 11.233 11.0852C11.2056 11.1063 11.1794 11.1293 11.1543 11.1543C11.1293 11.1794 11.1063 11.2056 11.0852 11.233C10.0783 12.2033 8.70881 12.8 7.19999 12.8C4.1072 12.8 1.6 10.2928 1.6 7.19999ZM11.6941 12.8255C10.4624 13.8108 8.9 14.4 7.19999 14.4C3.22355 14.4 0 11.1764 0 7.19999C0 3.22355 3.22355 0 7.19999 0C11.1764 0 14.4 3.22355 14.4 7.19999C14.4 8.9 13.8108 10.4624 12.8255 11.6941L15.7657 14.6343C16.0781 14.9467 16.0781 15.4533 15.7657 15.7657C15.4533 16.0781 14.9467 16.0781 14.6343 15.7657L11.6941 12.8255Z" fill="#F47B20"/>
</svg>
