<svg width="10" height="11" viewBox="0 0 10 11" fill="none" xmlns="http://www.w3.org/2000/svg">
<path d="M9.43976 5.21514C9.40406 5.12308 9.35054 5.03897 9.28226 4.96764L5.53226 1.21764C5.46233 1.14771 5.37931 1.09224 5.28794 1.05439C5.19658 1.01655 5.09865 0.99707 4.99976 0.99707C4.80003 0.99707 4.60848 1.07641 4.46726 1.21764C4.39733 1.28757 4.34186 1.37059 4.30401 1.46195C4.26617 1.55332 4.24669 1.65124 4.24669 1.75014C4.24669 1.94987 4.32603 2.14141 4.46726 2.28264L6.94226 4.75014H1.24976C1.05084 4.75014 0.860078 4.82916 0.719426 4.96981C0.578774 5.11046 0.499756 5.30123 0.499756 5.50014C0.499756 5.69905 0.578774 5.88982 0.719426 6.03047C0.860078 6.17112 1.05084 6.25014 1.24976 6.25014H6.94226L4.46726 8.71764C4.39696 8.78736 4.34116 8.87031 4.30309 8.96171C4.26501 9.0531 4.24541 9.15113 4.24541 9.25014C4.24541 9.34915 4.26501 9.44718 4.30309 9.53857C4.34116 9.62996 4.39696 9.71292 4.46726 9.78264C4.53698 9.85293 4.61993 9.90873 4.71132 9.94681C4.80272 9.98488 4.90075 10.0045 4.99976 10.0045C5.09876 10.0045 5.19679 9.98488 5.28819 9.94681C5.37958 9.90873 5.46253 9.85293 5.53226 9.78264L9.28226 6.03264C9.35054 5.96131 9.40406 5.8772 9.43976 5.78514C9.51477 5.60254 9.51477 5.39773 9.43976 5.21514Z" fill="#1A1C1F"/>
</svg>
