<svg width="45" height="45" viewBox="0 0 45 45" fill="none" xmlns="http://www.w3.org/2000/svg">
<rect width="45" height="45" rx="22.5" fill="#F2F3F5"/>
<path d="M29.5 20H29.18L27.93 16.88C27.7068 16.3253 27.3228 15.8499 26.8275 15.5149C26.3321 15.1799 25.748 15.0006 25.15 15H19.15C18.4553 14.998 17.7814 15.2372 17.2434 15.6767C16.7054 16.1162 16.3366 16.7289 16.2 17.41L15.68 20H15.5C14.7044 20 13.9413 20.3161 13.3787 20.8787C12.8161 21.4413 12.5 22.2044 12.5 23V26C12.5 26.2652 12.6054 26.5196 12.7929 26.7071C12.9804 26.8947 13.2348 27 13.5 27H14.5C14.5 27.7957 14.8161 28.5587 15.3787 29.1213C15.9413 29.6839 16.7044 30 17.5 30C18.2956 30 19.0587 29.6839 19.6213 29.1213C20.1839 28.5587 20.5 27.7957 20.5 27H24.5C24.5 27.7957 24.8161 28.5587 25.3787 29.1213C25.9413 29.6839 26.7044 30 27.5 30C28.2956 30 29.0587 29.6839 29.6213 29.1213C30.1839 28.5587 30.5 27.7957 30.5 27H31.5C31.7652 27 32.0196 26.8947 32.2071 26.7071C32.3946 26.5196 32.5 26.2652 32.5 26V23C32.5 22.2044 32.1839 21.4413 31.6213 20.8787C31.0587 20.3161 30.2956 20 29.5 20ZM23.5 17H25.15C25.3486 17.0018 25.5421 17.0627 25.706 17.1749C25.8698 17.2871 25.9965 17.4455 26.07 17.63L27.02 20H23.5V17ZM18.16 17.8C18.2068 17.5707 18.3324 17.3651 18.5151 17.2189C18.6979 17.0728 18.9261 16.9953 19.16 17H21.5V20H17.72L18.16 17.8ZM17.5 28C17.3022 28 17.1089 27.9414 16.9444 27.8315C16.78 27.7216 16.6518 27.5654 16.5761 27.3827C16.5004 27.2 16.4806 26.9989 16.5192 26.8049C16.5578 26.6109 16.653 26.4328 16.7929 26.2929C16.9327 26.1531 17.1109 26.0578 17.3049 26.0192C17.4989 25.9806 17.7 26.0004 17.8827 26.0761C18.0654 26.1518 18.2216 26.28 18.3315 26.4444C18.4414 26.6089 18.5 26.8022 18.5 27C18.5 27.2652 18.3946 27.5196 18.2071 27.7071C18.0196 27.8947 17.7652 28 17.5 28ZM27.5 28C27.3022 28 27.1089 27.9414 26.9444 27.8315C26.78 27.7216 26.6518 27.5654 26.5761 27.3827C26.5004 27.2 26.4806 26.9989 26.5192 26.8049C26.5578 26.6109 26.653 26.4328 26.7929 26.2929C26.9327 26.1531 27.1109 26.0578 27.3049 26.0192C27.4989 25.9806 27.7 26.0004 27.8827 26.0761C28.0654 26.1518 28.2216 26.28 28.3315 26.4444C28.4414 26.6089 28.5 26.8022 28.5 27C28.5 27.2652 28.3946 27.5196 28.2071 27.7071C28.0196 27.8947 27.7652 28 27.5 28ZM30.5 25H29.72C29.4388 24.6907 29.0961 24.4435 28.7138 24.2743C28.3315 24.1052 27.918 24.0178 27.5 24.0178C27.082 24.0178 26.6685 24.1052 26.2862 24.2743C25.9039 24.4435 25.5612 24.6907 25.28 25H19.72C19.4388 24.6907 19.0961 24.4435 18.7138 24.2743C18.3315 24.1052 17.918 24.0178 17.5 24.0178C17.082 24.0178 16.6685 24.1052 16.2862 24.2743C15.9039 24.4435 15.5612 24.6907 15.28 25H14.5V23C14.5 22.7348 14.6054 22.4804 14.7929 22.2929C14.9804 22.1054 15.2348 22 15.5 22H29.5C29.7652 22 30.0196 22.1054 30.2071 22.2929C30.3946 22.4804 30.5 22.7348 30.5 23V25Z" fill="#DB1753"/>
</svg>
