<svg width="4" height="19" viewBox="0 0 4 19" fill="none" xmlns="http://www.w3.org/2000/svg">
<path d="M2 4.5C2.39556 4.5 2.78224 4.3827 3.11114 4.16294C3.44004 3.94318 3.69639 3.63082 3.84776 3.26537C3.99914 2.89992 4.03874 2.49778 3.96157 2.10982C3.8844 1.72186 3.69392 1.36549 3.41421 1.08579C3.13451 0.806082 2.77814 0.615601 2.39018 0.53843C2.00222 0.46126 1.60009 0.500867 1.23463 0.652242C0.869182 0.803617 0.556825 1.05996 0.337062 1.38886C0.117299 1.71776 1.07779e-06 2.10444 1.07779e-06 2.5C1.07779e-06 3.03043 0.210715 3.53914 0.585788 3.91421C0.960861 4.28929 1.46957 4.5 2 4.5ZM2 14.5C1.60444 14.5 1.21776 14.6173 0.888861 14.8371C0.559963 15.0568 0.303617 15.3692 0.152242 15.7346C0.000866562 16.1001 -0.0387401 16.5022 0.0384303 16.8902C0.115601 17.2781 0.306083 17.6345 0.585788 17.9142C0.865493 18.1939 1.22186 18.3844 1.60982 18.4616C1.99778 18.5387 2.39992 18.4991 2.76537 18.3478C3.13082 18.1964 3.44318 17.94 3.66294 17.6111C3.8827 17.2822 4 16.8956 4 16.5C4 15.9696 3.78929 15.4609 3.41421 15.0858C3.03914 14.7107 2.53043 14.5 2 14.5ZM2 7.5C1.60444 7.5 1.21776 7.6173 0.888861 7.83706C0.559963 8.05682 0.303617 8.36918 0.152242 8.73463C0.000866562 9.10009 -0.0387401 9.50222 0.0384303 9.89018C0.115601 10.2781 0.306083 10.6345 0.585788 10.9142C0.865493 11.1939 1.22186 11.3844 1.60982 11.4616C1.99778 11.5387 2.39992 11.4991 2.76537 11.3478C3.13082 11.1964 3.44318 10.94 3.66294 10.6111C3.8827 10.2822 4 9.89556 4 9.5C4 8.96957 3.78929 8.46086 3.41421 8.08579C3.03914 7.71071 2.53043 7.5 2 7.5Z" fill="#818B9B"/>
</svg>
