<svg width="14" height="12" viewBox="0 0 14 12" fill="none" xmlns="http://www.w3.org/2000/svg">
<path d="M13 4.93997H11.3334C11.2452 4.94034 11.1579 4.9582 11.0767 4.99253C10.9954 5.02687 10.9218 5.07698 10.86 5.13997L10.0334 5.99997L8.16672 3.8733C8.10436 3.8067 8.02899 3.7536 7.94528 3.7173C7.86156 3.681 7.77129 3.66227 7.68005 3.66227C7.58881 3.66227 7.49853 3.681 7.41482 3.7173C7.33111 3.7536 7.25574 3.8067 7.19338 3.8733L6.06005 5.00664H5.00005C4.82324 5.00664 4.65367 5.07688 4.52864 5.2019C4.40362 5.32692 4.33338 5.49649 4.33338 5.6733C4.33338 5.85012 4.40362 6.01968 4.52864 6.14471C4.65367 6.26973 4.82324 6.33997 5.00005 6.33997H6.33338C6.42112 6.34048 6.50809 6.32366 6.58932 6.29048C6.67054 6.25731 6.74442 6.20842 6.80672 6.14664L7.66672 5.2533L9.53338 7.37997C9.5936 7.44861 9.66728 7.50415 9.74985 7.54314C9.83242 7.58213 9.92212 7.60374 10.0134 7.60664C10.1011 7.60714 10.1881 7.59033 10.2693 7.55715C10.3505 7.52397 10.4244 7.47509 10.4867 7.4133L11.62 6.2733H13C13.1769 6.2733 13.3464 6.20307 13.4715 6.07804C13.5965 5.95302 13.6667 5.78345 13.6667 5.60664C13.6667 5.42983 13.5965 5.26026 13.4715 5.13523C13.3464 5.01021 13.1769 4.93997 13 4.93997ZM8.07338 8.4733L6.80672 9.73997C6.74474 9.80246 6.67101 9.85205 6.58977 9.8859C6.50853 9.91974 6.42139 9.93717 6.33338 9.93717C6.24537 9.93717 6.15824 9.91974 6.077 9.8859C5.99576 9.85205 5.92202 9.80246 5.86005 9.73997L2.38671 6.26664C2.15813 6.03819 1.97679 5.76693 1.85308 5.46838C1.72936 5.16982 1.66568 4.84981 1.66568 4.52664C1.66568 4.20346 1.72936 3.88345 1.85308 3.5849C1.97679 3.28634 2.15813 3.01509 2.38671 2.78664C2.84782 2.32702 3.47233 2.06893 4.12338 2.06893C4.77444 2.06893 5.39894 2.32702 5.86005 2.78664C5.92202 2.84912 5.99576 2.89872 6.077 2.93256C6.15824 2.96641 6.24537 2.98384 6.33338 2.98384C6.42139 2.98384 6.50853 2.96641 6.58977 2.93256C6.67101 2.89872 6.74474 2.84912 6.80672 2.78664C7.27516 2.34112 7.89691 2.09267 8.54338 2.09267C9.18986 2.09267 9.8116 2.34112 10.28 2.78664C10.4286 2.93713 10.5584 3.10501 10.6667 3.28664C10.7638 3.42011 10.9069 3.51284 11.0684 3.54687C11.2299 3.5809 11.3983 3.55382 11.541 3.47087C11.6836 3.38791 11.7905 3.25499 11.8408 3.09781C11.8911 2.94062 11.8814 2.77036 11.8134 2.61997C11.6486 2.34634 11.4516 2.09342 11.2267 1.86664C10.594 1.22654 9.75408 0.832706 8.85737 0.755741C7.96067 0.678776 7.06587 0.923711 6.33338 1.44664C5.76729 1.03883 5.09953 0.795354 4.40381 0.743071C3.70808 0.690787 3.01144 0.831732 2.39075 1.15035C1.77007 1.46897 1.24948 1.95287 0.886429 2.54866C0.523381 3.14445 0.331991 3.82895 0.333382 4.52664C0.333182 5.0227 0.431493 5.51386 0.62261 5.97163C0.813728 6.42939 1.09385 6.84465 1.44671 7.1933L4.92005 10.6666C5.29505 11.0412 5.80338 11.2515 6.33338 11.2515C6.86338 11.2515 7.37171 11.0412 7.74672 10.6666L9.00005 9.4133C9.12422 9.2884 9.19391 9.11943 9.19391 8.9433C9.19391 8.76718 9.12422 8.59821 9.00005 8.4733C8.87574 8.35314 8.70961 8.28598 8.53672 8.28598C8.36382 8.28598 8.19769 8.35314 8.07338 8.4733Z" fill="#009DDE"/>
</svg>
