<svg width="12" height="13" viewBox="0 0 12 13" fill="none" xmlns="http://www.w3.org/2000/svg">
<path d="M4.5 5.5H5C5.13261 5.5 5.25979 5.44732 5.35355 5.35355C5.44732 5.25979 5.5 5.13261 5.5 5C5.5 4.86739 5.44732 4.74021 5.35355 4.64645C5.25979 4.55268 5.13261 4.5 5 4.5H4.5C4.36739 4.5 4.24021 4.55268 4.14645 4.64645C4.05268 4.74021 4 4.86739 4 5C4 5.13261 4.05268 5.25979 4.14645 5.35355C4.24021 5.44732 4.36739 5.5 4.5 5.5ZM4.5 6.5C4.36739 6.5 4.24021 6.55268 4.14645 6.64645C4.05268 6.74021 4 6.86739 4 7C4 7.13261 4.05268 7.25979 4.14645 7.35355C4.24021 7.44732 4.36739 7.5 4.5 7.5H7.5C7.63261 7.5 7.75979 7.44732 7.85355 7.35355C7.94732 7.25979 8 7.13261 8 7C8 6.86739 7.94732 6.74021 7.85355 6.64645C7.75979 6.55268 7.63261 6.5 7.5 6.5H4.5ZM10 4.97C9.99479 4.92407 9.98474 4.87882 9.97 4.835V4.79C9.94596 4.73859 9.91389 4.69133 9.875 4.65L6.875 1.65C6.83367 1.61111 6.78641 1.57904 6.735 1.555C6.72008 1.55288 6.70493 1.55288 6.69 1.555C6.63921 1.52587 6.58311 1.50717 6.525 1.5H3.5C3.10218 1.5 2.72064 1.65804 2.43934 1.93934C2.15804 2.22064 2 2.60218 2 3V10C2 10.3978 2.15804 10.7794 2.43934 11.0607C2.72064 11.342 3.10218 11.5 3.5 11.5H8.5C8.89782 11.5 9.27936 11.342 9.56066 11.0607C9.84196 10.7794 10 10.3978 10 10V5C10 5 10 5 10 4.97ZM7 3.205L8.295 4.5H7.5C7.36739 4.5 7.24021 4.44732 7.14645 4.35355C7.05268 4.25979 7 4.13261 7 4V3.205ZM9 10C9 10.1326 8.94732 10.2598 8.85355 10.3536C8.75979 10.4473 8.63261 10.5 8.5 10.5H3.5C3.36739 10.5 3.24021 10.4473 3.14645 10.3536C3.05268 10.2598 3 10.1326 3 10V3C3 2.86739 3.05268 2.74021 3.14645 2.64645C3.24021 2.55268 3.36739 2.5 3.5 2.5H6V4C6 4.39782 6.15804 4.77936 6.43934 5.06066C6.72064 5.34196 7.10218 5.5 7.5 5.5H9V10ZM7.5 8.5H4.5C4.36739 8.5 4.24021 8.55268 4.14645 8.64645C4.05268 8.74021 4 8.86739 4 9C4 9.13261 4.05268 9.25979 4.14645 9.35355C4.24021 9.44732 4.36739 9.5 4.5 9.5H7.5C7.63261 9.5 7.75979 9.44732 7.85355 9.35355C7.94732 9.25979 8 9.13261 8 9C8 8.86739 7.94732 8.74021 7.85355 8.64645C7.75979 8.55268 7.63261 8.5 7.5 8.5Z" fill="#455560"/>
</svg>
