<svg width="45" height="45" viewBox="0 0 45 45" fill="none" xmlns="http://www.w3.org/2000/svg">
<rect width="45" height="45" rx="22.5" fill="#F2F3F5"/>
<path d="M31.5 20.91H29C28.8677 20.9105 28.7368 20.9373 28.6149 20.9888C28.4931 21.0403 28.3826 21.1155 28.29 21.21L27.05 22.5L24.25 19.31C24.1565 19.21 24.0434 19.1304 23.9179 19.0759C23.7923 19.0215 23.6569 18.9934 23.52 18.9934C23.3831 18.9934 23.2477 19.0215 23.1222 19.0759C22.9966 19.1304 22.8836 19.21 22.79 19.31L21.09 21.01H19.5C19.2348 21.01 18.9804 21.1153 18.7929 21.3028C18.6054 21.4904 18.5 21.7447 18.5 22.01C18.5 22.2752 18.6054 22.5295 18.7929 22.7171C18.9804 22.9046 19.2348 23.01 19.5 23.01H21.5C21.6316 23.0107 21.7621 22.9855 21.8839 22.9357C22.0058 22.886 22.1166 22.8126 22.21 22.72L23.5 21.38L26.3 24.57C26.3903 24.6729 26.5009 24.7562 26.6247 24.8147C26.7486 24.8732 26.8831 24.9056 27.02 24.91C27.1516 24.9107 27.2821 24.8855 27.4039 24.8357C27.5258 24.786 27.6366 24.7126 27.73 24.62L29.43 22.91H31.5C31.7652 22.91 32.0196 22.8046 32.2071 22.6171C32.3947 22.4295 32.5 22.1752 32.5 21.91C32.5 21.6447 32.3947 21.3904 32.2071 21.2028C32.0196 21.0153 31.7652 20.91 31.5 20.91ZM24.11 26.21L22.21 28.11C22.117 28.2037 22.0064 28.2781 21.8846 28.3288C21.7627 28.3796 21.632 28.4058 21.5 28.4058C21.368 28.4058 21.2373 28.3796 21.1154 28.3288C20.9936 28.2781 20.883 28.2037 20.79 28.11L15.58 22.9C15.2371 22.5573 14.9651 22.1504 14.7796 21.7026C14.594 21.2547 14.4985 20.7747 14.4985 20.29C14.4985 19.8052 14.594 19.3252 14.7796 18.8773C14.9651 18.4295 15.2371 18.0226 15.58 17.68C16.2717 16.9905 17.2084 16.6034 18.185 16.6034C19.1616 16.6034 20.0983 16.9905 20.79 17.68C20.883 17.7737 20.9936 17.8481 21.1154 17.8988C21.2373 17.9496 21.368 17.9758 21.5 17.9758C21.632 17.9758 21.7627 17.9496 21.8846 17.8988C22.0064 17.8481 22.117 17.7737 22.21 17.68C22.9127 17.0117 23.8453 16.639 24.815 16.639C25.7847 16.639 26.7173 17.0117 27.42 17.68C27.6428 17.9057 27.8376 18.1575 28 18.43C28.1456 18.6302 28.3603 18.7693 28.6026 18.8203C28.8448 18.8713 29.0974 18.8307 29.3114 18.7063C29.5254 18.5819 29.6856 18.3825 29.7611 18.1467C29.8366 17.9109 29.822 17.6555 29.72 17.43C29.4728 17.0195 29.1774 16.6401 28.84 16.3C27.891 15.3398 26.6311 14.7491 25.286 14.6336C23.9409 14.5182 22.5988 14.8856 21.5 15.67C20.6509 15.0582 19.6492 14.693 18.6057 14.6146C17.5621 14.5362 16.5171 14.7476 15.5861 15.2255C14.655 15.7035 13.8742 16.4293 13.3296 17.323C12.785 18.2167 12.4979 19.2434 12.5 20.29C12.4997 21.034 12.6472 21.7708 12.9339 22.4574C13.2205 23.1441 13.6407 23.767 14.17 24.29L19.38 29.5C19.9425 30.0618 20.705 30.3773 21.5 30.3773C22.295 30.3773 23.0575 30.0618 23.62 29.5L25.5 27.62C25.6863 27.4326 25.7908 27.1791 25.7908 26.915C25.7908 26.6508 25.6863 26.3973 25.5 26.21C25.3135 26.0297 25.0644 25.929 24.805 25.929C24.5457 25.929 24.2965 26.0297 24.11 26.21Z" fill="#009DDE"/>
</svg>
