<svg width="11" height="12" viewBox="0 0 11 12" fill="none" xmlns="http://www.w3.org/2000/svg">
<path d="M10.4333 5.68333C10.3937 5.58103 10.3342 5.48758 10.2583 5.40833L6.09167 1.24166C6.01397 1.16396 5.92173 1.10233 5.82021 1.06028C5.71869 1.01823 5.60988 0.996582 5.5 0.996582C5.27808 0.996582 5.06525 1.08474 4.90833 1.24166C4.83063 1.31936 4.769 1.4116 4.72695 1.51312C4.6849 1.61464 4.66326 1.72344 4.66326 1.83333C4.66326 2.05524 4.75141 2.26807 4.90833 2.42499L7.65833 5.16666H1.33333C1.11232 5.16666 0.900358 5.25446 0.744078 5.41074C0.587798 5.56702 0.5 5.77898 0.5 5.99999C0.5 6.22101 0.587798 6.43297 0.744078 6.58925C0.900358 6.74553 1.11232 6.83333 1.33333 6.83333H7.65833L4.90833 9.57499C4.83023 9.65246 4.76823 9.74463 4.72592 9.84618C4.68362 9.94773 4.66183 10.0566 4.66183 10.1667C4.66183 10.2767 4.68362 10.3856 4.72592 10.4871C4.76823 10.5887 4.83023 10.6809 4.90833 10.7583C4.9858 10.8364 5.07797 10.8984 5.17952 10.9407C5.28107 10.983 5.38999 11.0048 5.5 11.0048C5.61001 11.0048 5.71893 10.983 5.82048 10.9407C5.92203 10.8984 6.0142 10.8364 6.09167 10.7583L10.2583 6.59166C10.3342 6.51241 10.3937 6.41895 10.4333 6.31666C10.5167 6.11377 10.5167 5.88621 10.4333 5.68333Z" fill="white"/>
</svg>
