<svg width="20" height="20" viewBox="0 0 20 20" fill="#679AB4" xmlns="http://www.w3.org/2000/svg">
<path d="M12.4997 13.3332H7.49967C7.27866 13.3332 7.0667 13.421 6.91042 13.5772C6.75414 13.7335 6.66634 13.9455 6.66634 14.1665C6.66634 14.3875 6.75414 14.5995 6.91042 14.7558C7.0667 14.912 7.27866 14.9998 7.49967 14.9998H12.4997C12.7207 14.9998 12.9326 14.912 13.0889 14.7558C13.2452 14.5995 13.333 14.3875 13.333 14.1665C13.333 13.9455 13.2452 13.7335 13.0889 13.5772C12.9326 13.421 12.7207 13.3332 12.4997 13.3332ZM7.49967 8.33317H8.33301C8.55402 8.33317 8.76598 8.24537 8.92226 8.08909C9.07854 7.93281 9.16634 7.72085 9.16634 7.49984C9.16634 7.27882 9.07854 7.06686 8.92226 6.91058C8.76598 6.7543 8.55402 6.6665 8.33301 6.6665H7.49967C7.27866 6.6665 7.0667 6.7543 6.91042 6.91058C6.75414 7.06686 6.66634 7.27882 6.66634 7.49984C6.66634 7.72085 6.75414 7.93281 6.91042 8.08909C7.0667 8.24537 7.27866 8.33317 7.49967 8.33317V8.33317ZM12.4997 9.99984H7.49967C7.27866 9.99984 7.0667 10.0876 6.91042 10.2439C6.75414 10.4002 6.66634 10.6122 6.66634 10.8332C6.66634 11.0542 6.75414 11.2661 6.91042 11.4224C7.0667 11.5787 7.27866 11.6665 7.49967 11.6665H12.4997C12.7207 11.6665 12.9326 11.5787 13.0889 11.4224C13.2452 11.2661 13.333 11.0542 13.333 10.8332C13.333 10.6122 13.2452 10.4002 13.0889 10.2439C12.9326 10.0876 12.7207 9.99984 12.4997 9.99984ZM16.4247 12.7415C16.3454 12.6656 16.252 12.6062 16.1497 12.5665C16.0502 12.5214 15.9422 12.498 15.833 12.498C15.7238 12.498 15.6158 12.5214 15.5163 12.5665C15.414 12.6062 15.3206 12.6656 15.2413 12.7415C15.1677 12.8225 15.1085 12.9155 15.0663 13.0165C15.0025 13.1683 14.9851 13.3355 15.0162 13.4972C15.0474 13.6588 15.1257 13.8077 15.2413 13.9248C15.3192 14.0021 15.4116 14.0632 15.5131 14.1046C15.6146 14.1461 15.7233 14.1671 15.833 14.1665C15.9419 14.1652 16.0495 14.1425 16.1497 14.0998C16.2507 14.0576 16.3437 13.9984 16.4247 13.9248C16.5403 13.8077 16.6186 13.6588 16.6498 13.4972C16.6809 13.3355 16.6635 13.1683 16.5997 13.0165C16.5575 12.9155 16.4983 12.8225 16.4247 12.7415V12.7415ZM16.6663 7.44984C16.6577 7.37328 16.6409 7.29786 16.6163 7.22484V7.14984C16.5763 7.06415 16.5228 6.98539 16.458 6.9165V6.9165L11.458 1.9165C11.3891 1.85168 11.3104 1.79824 11.2247 1.75817C11.1998 1.75464 11.1745 1.75464 11.1497 1.75817C11.065 1.70962 10.9715 1.67846 10.8747 1.6665H5.83301C5.16997 1.6665 4.53408 1.9299 4.06524 2.39874C3.5964 2.86758 3.33301 3.50346 3.33301 4.1665V15.8332C3.33301 16.4962 3.5964 17.1321 4.06524 17.6009C4.53408 18.0698 5.16997 18.3332 5.83301 18.3332H12.4997C12.7207 18.3332 12.9326 18.2454 13.0889 18.0891C13.2452 17.9328 13.333 17.7209 13.333 17.4998C13.333 17.2788 13.2452 17.0669 13.0889 16.9106C12.9326 16.7543 12.7207 16.6665 12.4997 16.6665H5.83301C5.61199 16.6665 5.40003 16.5787 5.24375 16.4224C5.08747 16.2661 4.99967 16.0542 4.99967 15.8332V4.1665C4.99967 3.94549 5.08747 3.73353 5.24375 3.57725C5.40003 3.42097 5.61199 3.33317 5.83301 3.33317H9.99967V5.83317C9.99967 6.49621 10.2631 7.1321 10.7319 7.60094C11.2007 8.06978 11.8366 8.33317 12.4997 8.33317H14.9997V9.99984C14.9997 10.2209 15.0875 10.4328 15.2438 10.5891C15.4 10.7454 15.612 10.8332 15.833 10.8332C16.054 10.8332 16.266 10.7454 16.4223 10.5891C16.5785 10.4328 16.6663 10.2209 16.6663 9.99984V7.49984C16.6663 7.49984 16.6663 7.49984 16.6663 7.44984ZM12.4997 6.6665C12.2787 6.6665 12.0667 6.57871 11.9104 6.42243C11.7541 6.26615 11.6663 6.05418 11.6663 5.83317V4.50817L13.8247 6.6665H12.4997ZM15.833 14.9998C15.612 14.9998 15.4 15.0876 15.2438 15.2439C15.0875 15.4002 14.9997 15.6122 14.9997 15.8332V17.4998C14.9997 17.7209 15.0875 17.9328 15.2438 18.0891C15.4 18.2454 15.612 18.3332 15.833 18.3332C16.054 18.3332 16.266 18.2454 16.4223 18.0891C16.5785 17.9328 16.6663 17.7209 16.6663 17.4998V15.8332C16.6663 15.6122 16.5785 15.4002 16.4223 15.2439C16.266 15.0876 16.054 14.9998 15.833 14.9998Z" fill="#679AB4"/>
</svg>
