<svg width="20" height="20" viewBox="0 0 20 20" fill="#679AB4" xmlns="http://www.w3.org/2000/svg">
<path d="M18.3333 4.23328C18.334 3.72513 18.1839 3.2282 17.9019 2.80547C17.6199 2.38274 17.2188 2.05322 16.7494 1.85866C16.2799 1.6641 15.7633 1.61327 15.265 1.7126C14.7666 1.81193 14.309 2.05694 13.95 2.41661L11.6083 4.75828L6.20001 2.95828C6.05602 2.91302 5.90243 2.90772 5.75566 2.94294C5.60889 2.97817 5.47444 3.0526 5.36668 3.15828L3.38334 5.12494C3.28937 5.22001 3.21964 5.33628 3.18005 5.46396C3.14045 5.59164 3.13215 5.72696 3.15585 5.85852C3.17955 5.99007 3.23454 6.114 3.3162 6.21984C3.39785 6.32567 3.50377 6.41031 3.62501 6.46661L7.94168 8.42494L5.77501 10.5916L4.35001 9.87494C4.19615 9.79167 4.01999 9.75894 3.84649 9.78137C3.673 9.80381 3.51096 9.88028 3.38334 9.99994L1.90834 11.5083C1.75313 11.6644 1.66602 11.8756 1.66602 12.0958C1.66602 12.3159 1.75313 12.5271 1.90834 12.6833L7.31668 18.0916C7.47281 18.2468 7.68402 18.3339 7.90418 18.3339C8.12433 18.3339 8.33554 18.2468 8.49168 18.0916L10 16.6166C10.1251 16.4928 10.2078 16.3326 10.2362 16.159C10.2646 15.9853 10.2374 15.8072 10.1583 15.6499L9.44168 14.2249L11.6083 12.0583L13.5667 16.3749C13.623 16.4962 13.7076 16.6021 13.8134 16.6838C13.9193 16.7654 14.0432 16.8204 14.1748 16.8441C14.3063 16.8678 14.4416 16.8595 14.5693 16.8199C14.697 16.7803 14.8133 16.7106 14.9083 16.6166L16.875 14.6499C16.9807 14.5422 17.0551 14.4077 17.0903 14.261C17.1256 14.1142 17.1203 13.9606 17.075 13.8166L15.275 8.40828L17.5833 6.04994C17.8227 5.81208 18.0123 5.52894 18.141 5.21704C18.2698 4.90513 18.3352 4.57071 18.3333 4.23328V4.23328ZM16.4 4.87494L13.7 7.57494C13.5943 7.68271 13.5199 7.81716 13.4847 7.96393C13.4495 8.1107 13.4548 8.26428 13.5 8.40828L15.3 13.8083L14.55 14.5583L12.5917 10.2499C12.5361 10.1276 12.4517 10.0205 12.3458 9.93777C12.2399 9.85506 12.1155 9.7992 11.9833 9.77494C11.8501 9.75062 11.7129 9.75915 11.5836 9.79981C11.4544 9.84047 11.337 9.91202 11.2417 10.0083L7.80834 13.4749C7.68508 13.5981 7.60351 13.7568 7.57511 13.9287C7.54671 14.1006 7.57291 14.277 7.65001 14.4333L8.33334 15.8333L7.86668 16.2999L3.67501 12.0999L4.16668 11.6666L5.59168 12.3833C5.74792 12.4604 5.9244 12.4866 6.0963 12.4582C6.2682 12.4298 6.42687 12.3482 6.55001 12.2249L10 8.75828C10.0958 8.66327 10.167 8.54644 10.2077 8.41783C10.2483 8.28921 10.2571 8.15265 10.2334 8.01987C10.2096 7.8871 10.1539 7.76207 10.0712 7.65555C9.98847 7.54902 9.88111 7.46416 9.75834 7.40828L5.41668 5.44994L6.16668 4.69994L11.5667 6.49994C11.7107 6.5452 11.8643 6.5505 12.011 6.51528C12.1578 6.48005 12.2922 6.40562 12.4 6.29994L15.1 3.59994C15.1831 3.51503 15.2822 3.44756 15.3917 3.4015C15.5012 3.35543 15.6187 3.33171 15.7375 3.33171C15.8563 3.33171 15.9739 3.35543 16.0833 3.4015C16.1928 3.44756 16.292 3.51503 16.375 3.59994C16.4619 3.68048 16.5307 3.77863 16.5767 3.88784C16.6226 3.99706 16.6448 4.11482 16.6417 4.23328C16.6462 4.35094 16.6271 4.46832 16.5856 4.57851C16.5441 4.68871 16.481 4.78949 16.4 4.87494V4.87494Z" fill="#679AB4"/>
</svg>
