<svg width="20" height="20" viewBox="0 0 20 20" fill="#679AB4" xmlns="http://www.w3.org/2000/svg">
<path d="M8.33366 14.1665H9.16699V14.9998C9.16699 15.2209 9.25479 15.4328 9.41107 15.5891C9.56735 15.7454 9.77931 15.8332 10.0003 15.8332C10.2213 15.8332 10.4333 15.7454 10.5896 15.5891C10.7459 15.4328 10.8337 15.2209 10.8337 14.9998V14.1665H11.667C11.888 14.1665 12.1 14.0787 12.2562 13.9224C12.4125 13.7661 12.5003 13.5542 12.5003 13.3332C12.5003 13.1122 12.4125 12.9002 12.2562 12.7439C12.1 12.5876 11.888 12.4998 11.667 12.4998H10.8337V11.6665C10.8337 11.4455 10.7459 11.2335 10.5896 11.0772C10.4333 10.921 10.2213 10.8332 10.0003 10.8332C9.77931 10.8332 9.56735 10.921 9.41107 11.0772C9.25479 11.2335 9.16699 11.4455 9.16699 11.6665V12.4998H8.33366C8.11265 12.4998 7.90068 12.5876 7.7444 12.7439C7.58812 12.9002 7.50033 13.1122 7.50033 13.3332C7.50033 13.5542 7.58812 13.7661 7.7444 13.9224C7.90068 14.0787 8.11265 14.1665 8.33366 14.1665V14.1665ZM15.8337 4.99984H14.167V4.1665C14.167 3.50346 13.9036 2.86758 13.4348 2.39874C12.9659 1.9299 12.33 1.6665 11.667 1.6665H8.33366C7.67062 1.6665 7.03473 1.9299 6.56589 2.39874C6.09705 2.86758 5.83366 3.50346 5.83366 4.1665V4.99984H4.16699C3.50395 4.99984 2.86807 5.26323 2.39923 5.73207C1.93038 6.20091 1.66699 6.8368 1.66699 7.49984V15.8332C1.66699 16.4962 1.93038 17.1321 2.39923 17.6009C2.86807 18.0698 3.50395 18.3332 4.16699 18.3332H15.8337C16.4967 18.3332 17.1326 18.0698 17.6014 17.6009C18.0703 17.1321 18.3337 16.4962 18.3337 15.8332V7.49984C18.3337 6.8368 18.0703 6.20091 17.6014 5.73207C17.1326 5.26323 16.4967 4.99984 15.8337 4.99984ZM7.50033 4.1665C7.50033 3.94549 7.58812 3.73353 7.7444 3.57725C7.90068 3.42097 8.11265 3.33317 8.33366 3.33317H11.667C11.888 3.33317 12.1 3.42097 12.2562 3.57725C12.4125 3.73353 12.5003 3.94549 12.5003 4.1665V4.99984H7.50033V4.1665ZM16.667 15.8332C16.667 16.0542 16.5792 16.2661 16.4229 16.4224C16.2666 16.5787 16.0547 16.6665 15.8337 16.6665H4.16699C3.94598 16.6665 3.73402 16.5787 3.57774 16.4224C3.42146 16.2661 3.33366 16.0542 3.33366 15.8332V9.99984H16.667V15.8332ZM16.667 8.33317H3.33366V7.49984C3.33366 7.27882 3.42146 7.06686 3.57774 6.91058C3.73402 6.7543 3.94598 6.6665 4.16699 6.6665H15.8337C16.0547 6.6665 16.2666 6.7543 16.4229 6.91058C16.5792 7.06686 16.667 7.27882 16.667 7.49984V8.33317Z" fill="#679AB4"/>
</svg>
