<svg width="20" height="21" viewBox="0 0 20 21" fill="none" xmlns="http://www.w3.org/2000/svg">
<path d="M19.3733 9.89833C19.298 9.70398 19.185 9.52642 19.0408 9.37583L11.1242 1.45917C10.9765 1.31154 10.8013 1.19444 10.6084 1.11454C10.4155 1.03464 10.2088 0.993523 10 0.993523C9.57836 0.993523 9.17398 1.16102 8.87583 1.45917C8.72821 1.6068 8.6111 1.78206 8.5312 1.97494C8.45131 2.16782 8.41019 2.37456 8.41019 2.58333C8.41019 3.00498 8.57769 3.40935 8.87583 3.7075L14.1008 8.91667H2.08333C1.66341 8.91667 1.26068 9.08348 0.963748 9.38042C0.666815 9.67735 0.5 10.0801 0.5 10.5C0.5 10.9199 0.666815 11.3227 0.963748 11.6196C1.26068 11.9165 1.66341 12.0833 2.08333 12.0833H14.1008L8.87583 17.2925C8.72743 17.4397 8.60964 17.6148 8.52926 17.8078C8.44887 18.0007 8.40749 18.2076 8.40749 18.4167C8.40749 18.6257 8.44887 18.8326 8.52926 19.0256C8.60964 19.2185 8.72743 19.3936 8.87583 19.5408C9.02302 19.6892 9.19814 19.807 9.39109 19.8874C9.58403 19.9678 9.79098 20.0092 10 20.0092C10.209 20.0092 10.416 19.9678 10.6089 19.8874C10.8019 19.807 10.977 19.6892 11.1242 19.5408L19.0408 11.6242C19.185 11.4736 19.298 11.296 19.3733 11.1017C19.5317 10.7162 19.5317 10.2838 19.3733 9.89833Z" fill="#EE7500"/>
</svg>
