<svg width="20" height="20" viewBox="0 0 20 20" fill="#679AB4" xmlns="http://www.w3.org/2000/svg">
<path d="M15.8337 7.91668H15.567L14.5253 5.31668C14.3393 4.85439 14.0193 4.45825 13.6066 4.1791C13.1938 3.89995 12.707 3.75052 12.2087 3.75001H7.20866C6.62973 3.74835 6.06818 3.94767 5.61984 4.31394C5.1715 4.68021 4.86418 5.19072 4.75033 5.75834L4.31699 7.91668H4.16699C3.50395 7.91668 2.86807 8.18007 2.39923 8.64891C1.93038 9.11775 1.66699 9.75364 1.66699 10.4167V12.9167C1.66699 13.1377 1.75479 13.3497 1.91107 13.5059C2.06735 13.6622 2.27931 13.75 2.50033 13.75H3.33366C3.33366 14.4131 3.59705 15.0489 4.06589 15.5178C4.53473 15.9866 5.17062 16.25 5.83366 16.25C6.4967 16.25 7.13259 15.9866 7.60143 15.5178C8.07027 15.0489 8.33366 14.4131 8.33366 13.75H11.667C11.667 14.4131 11.9304 15.0489 12.3992 15.5178C12.8681 15.9866 13.504 16.25 14.167 16.25C14.83 16.25 15.4659 15.9866 15.9348 15.5178C16.4036 15.0489 16.667 14.4131 16.667 13.75H17.5003C17.7213 13.75 17.9333 13.6622 18.0896 13.5059C18.2459 13.3497 18.3337 13.1377 18.3337 12.9167V10.4167C18.3337 9.75364 18.0703 9.11775 17.6014 8.64891C17.1326 8.18007 16.4967 7.91668 15.8337 7.91668V7.91668ZM10.8337 5.41668H12.2087C12.3741 5.41817 12.5354 5.4689 12.672 5.5624C12.8085 5.6559 12.9141 5.78794 12.9753 5.94168L13.767 7.91668H10.8337V5.41668ZM6.38366 6.08334C6.42262 5.89228 6.52735 5.72093 6.67961 5.59912C6.83188 5.4773 7.02204 5.41275 7.21699 5.41668H9.16699V7.91668H6.01699L6.38366 6.08334ZM5.83366 14.5833C5.66884 14.5833 5.50772 14.5345 5.37068 14.4429C5.23364 14.3513 5.12683 14.2212 5.06376 14.0689C5.00069 13.9166 4.98418 13.7491 5.01634 13.5874C5.04849 13.4258 5.12786 13.2773 5.2444 13.1608C5.36095 13.0442 5.50943 12.9648 5.67108 12.9327C5.83273 12.9005 6.00029 12.917 6.15256 12.9801C6.30483 13.0432 6.43498 13.15 6.52655 13.287C6.61812 13.4241 6.66699 13.5852 6.66699 13.75C6.66699 13.971 6.57919 14.183 6.42291 14.3393C6.26663 14.4955 6.05467 14.5833 5.83366 14.5833ZM14.167 14.5833C14.0022 14.5833 13.8411 14.5345 13.704 14.4429C13.567 14.3513 13.4602 14.2212 13.3971 14.0689C13.334 13.9166 13.3175 13.7491 13.3497 13.5874C13.3818 13.4258 13.4612 13.2773 13.5777 13.1608C13.6943 13.0442 13.8428 12.9648 14.0044 12.9327C14.1661 12.9005 14.3336 12.917 14.4859 12.9801C14.6382 13.0432 14.7683 13.15 14.8599 13.287C14.9515 13.4241 15.0003 13.5852 15.0003 13.75C15.0003 13.971 14.9125 14.183 14.7562 14.3393C14.6 14.4955 14.388 14.5833 14.167 14.5833ZM16.667 12.0833H16.017C15.7827 11.8255 15.4971 11.6196 15.1785 11.4786C14.8599 11.3377 14.5154 11.2649 14.167 11.2649C13.8186 11.2649 13.4741 11.3377 13.1555 11.4786C12.8369 11.6196 12.5513 11.8255 12.317 12.0833H7.68366C7.44934 11.8255 7.16373 11.6196 6.84515 11.4786C6.52656 11.3377 6.18203 11.2649 5.83366 11.2649C5.48529 11.2649 5.14076 11.3377 4.82217 11.4786C4.50359 11.6196 4.21798 11.8255 3.98366 12.0833H3.33366V10.4167C3.33366 10.1957 3.42146 9.9837 3.57774 9.82742C3.73402 9.67114 3.94598 9.58334 4.16699 9.58334H15.8337C16.0547 9.58334 16.2666 9.67114 16.4229 9.82742C16.5792 9.9837 16.667 10.1957 16.667 10.4167V12.0833Z" fill="#679AB4"/>
</svg>
