<svg width="6" height="8" viewBox="0 0 6 8" fill="none" xmlns="http://www.w3.org/2000/svg">
<path d="M4.78927 3.46752L1.60927 0.287523C1.53954 0.217226 1.45659 0.16143 1.3652 0.123354C1.2738 0.0852773 1.17578 0.0656738 1.07677 0.0656738C0.977757 0.0656738 0.879728 0.0852773 0.788334 0.123354C0.696939 0.16143 0.613988 0.217226 0.544266 0.287523C0.404578 0.428044 0.326172 0.618133 0.326172 0.816272C0.326172 1.01441 0.404578 1.2045 0.544266 1.34502L3.19927 4.00002L0.544266 6.65502C0.404578 6.79554 0.326172 6.98563 0.326172 7.18377C0.326172 7.38191 0.404578 7.572 0.544266 7.71252C0.614346 7.78203 0.697458 7.83703 0.788837 7.87435C0.880215 7.91167 0.978061 7.93059 1.07677 7.93002C1.17547 7.93059 1.27332 7.91167 1.3647 7.87435C1.45607 7.83703 1.53919 7.78203 1.60927 7.71252L4.78927 4.53252C4.85956 4.4628 4.91536 4.37985 4.95343 4.28846C4.99151 4.19706 5.01112 4.09903 5.01112 4.00002C5.01112 3.90101 4.99151 3.80298 4.95343 3.71159C4.91536 3.6202 4.85956 3.53724 4.78927 3.46752Z" fill="white"/>
</svg>
