<svg width="19" height="4" viewBox="0 0 19 4" fill="none" xmlns="http://www.w3.org/2000/svg">
<path d="M9.3335 0C8.93793 0 8.55126 0.117298 8.22236 0.337061C7.89346 0.556824 7.63711 0.869181 7.48574 1.23463C7.33436 1.60009 7.29476 2.00222 7.37193 2.39018C7.4491 2.77814 7.63958 3.13451 7.91928 3.41421C8.19899 3.69392 8.55535 3.8844 8.94332 3.96157C9.33128 4.03874 9.73341 3.99913 10.0989 3.84776C10.4643 3.69638 10.7767 3.44004 10.9964 3.11114C11.2162 2.78224 11.3335 2.39556 11.3335 2C11.3335 1.46957 11.1228 0.96086 10.7477 0.585787C10.3726 0.210714 9.86393 0 9.3335 0ZM2.3335 0C1.93793 0 1.55125 0.117298 1.22236 0.337061C0.893458 0.556824 0.637113 0.869181 0.485738 1.23463C0.334363 1.60009 0.294756 2.00222 0.371926 2.39018C0.449097 2.77814 0.639578 3.13451 0.919283 3.41421C1.19899 3.69392 1.55535 3.8844 1.94332 3.96157C2.33128 4.03874 2.73341 3.99913 3.09886 3.84776C3.46432 3.69638 3.77667 3.44004 3.99644 3.11114C4.2162 2.78224 4.3335 2.39556 4.3335 2C4.3335 1.46957 4.12278 0.96086 3.74771 0.585787C3.37264 0.210714 2.86393 0 2.3335 0ZM16.3335 0C15.9379 0 15.5513 0.117298 15.2224 0.337061C14.8935 0.556824 14.6371 0.869181 14.4857 1.23463C14.3344 1.60009 14.2948 2.00222 14.3719 2.39018C14.4491 2.77814 14.6396 3.13451 14.9193 3.41421C15.199 3.69392 15.5554 3.8844 15.9433 3.96157C16.3313 4.03874 16.7334 3.99913 17.0989 3.84776C17.4643 3.69638 17.7767 3.44004 17.9964 3.11114C18.2162 2.78224 18.3335 2.39556 18.3335 2C18.3335 1.46957 18.1228 0.96086 17.7477 0.585787C17.3726 0.210714 16.8639 0 16.3335 0Z" fill="#676F7C"/>
</svg>
