<svg width="14" height="14" viewBox="0 0 14 14" fill="none" xmlns="http://www.w3.org/2000/svg">
<path d="M7.33366 6.33398C7.15685 6.33398 6.98728 6.40422 6.86226 6.52925C6.73723 6.65427 6.667 6.82384 6.667 7.00065V9.66732C6.667 9.84413 6.73723 10.0137 6.86226 10.1387C6.98728 10.2637 7.15685 10.334 7.33366 10.334C7.51047 10.334 7.68004 10.2637 7.80507 10.1387C7.93009 10.0137 8.00033 9.84413 8.00033 9.66732V7.00065C8.00033 6.82384 7.93009 6.65427 7.80507 6.52925C7.68004 6.40422 7.51047 6.33398 7.33366 6.33398ZM7.587 3.72065C7.42469 3.65397 7.24264 3.65397 7.08033 3.72065C6.99849 3.75238 6.92373 3.79996 6.86033 3.86065C6.80144 3.92545 6.75409 3.99986 6.72033 4.08065C6.68301 4.15977 6.66474 4.24653 6.667 4.33398C6.66649 4.42172 6.68331 4.5087 6.71648 4.58992C6.74966 4.67115 6.79854 4.74502 6.86033 4.80732C6.92513 4.86621 6.99954 4.91356 7.08033 4.94732C7.18133 4.98881 7.29097 5.00486 7.39963 4.99406C7.50828 4.98326 7.61262 4.94593 7.70347 4.88536C7.79432 4.8248 7.86891 4.74284 7.92067 4.6467C7.97243 4.55056 7.99978 4.44317 8.00033 4.33398C7.99787 4.15747 7.92882 3.98841 7.807 3.86065C7.74359 3.79996 7.66883 3.75238 7.587 3.72065ZM7.33366 0.333984C6.01512 0.333984 4.72619 0.724978 3.62986 1.45752C2.53353 2.19006 1.67905 3.23125 1.17447 4.44943C0.669881 5.6676 0.537859 7.00805 0.795093 8.30125C1.05233 9.59446 1.68727 10.7823 2.61962 11.7147C3.55197 12.647 4.73985 13.282 6.03306 13.5392C7.32627 13.7965 8.66671 13.6644 9.88489 13.1598C11.1031 12.6553 12.1442 11.8008 12.8768 10.7045C13.6093 9.60812 14.0003 8.31919 14.0003 7.00065C14.0003 6.12517 13.8279 5.25827 13.4929 4.44943C13.1578 3.64059 12.6668 2.90566 12.0477 2.28661C11.4286 1.66755 10.6937 1.17649 9.88489 0.841454C9.07605 0.506423 8.20914 0.333984 7.33366 0.333984ZM7.33366 12.334C6.27883 12.334 5.24768 12.0212 4.37062 11.4352C3.49356 10.8491 2.80997 10.0162 2.4063 9.04163C2.00264 8.06709 1.89702 6.99474 2.10281 5.96017C2.3086 4.9256 2.81655 3.9753 3.56243 3.22941C4.30831 2.48354 5.25862 1.97558 6.29318 1.7698C7.32775 1.56401 8.4001 1.66963 9.37464 2.07329C10.3492 2.47696 11.1821 3.16055 11.7682 4.03761C12.3542 4.91467 12.667 5.94582 12.667 7.00065C12.667 8.41514 12.1051 9.77169 11.1049 10.7719C10.1047 11.7721 8.74815 12.334 7.33366 12.334Z" fill="#FF6D01"/>
</svg>
