<svg width="19" height="18" viewBox="0 0 19 18" fill="none" xmlns="http://www.w3.org/2000/svg">
<path opacity="0.25" d="M14.9165 1.5H4.4165C3.58808 1.5 2.9165 2.17157 2.9165 3V14.3658C2.9165 15.4047 3.94709 16.129 4.92458 15.7771L6.09591 15.3554C6.46191 15.2237 6.8648 15.2392 7.21953 15.3989L9.05096 16.223C9.44242 16.3992 9.89059 16.3992 10.2821 16.223L12.1135 15.3989C12.4682 15.2392 12.8711 15.2237 13.2371 15.3554L14.4084 15.7771C15.3859 16.129 16.4165 15.4047 16.4165 14.3658V3C16.4165 2.17157 15.7449 1.5 14.9165 1.5Z" fill="url(#paint0_linear_82_134392)"/>
<path d="M13.8567 9.83425H12.5063V10.9146H14.9165V8.45774H13.8567V9.83425Z" fill="#6B47F5"/>
<path d="M10.7098 8.99997C10.7098 9.45881 10.3416 9.83422 9.89144 9.83422C9.44132 9.83422 9.07304 9.46298 9.07304 8.99997V5.25H8.00911V8.99997C8.00911 10.0553 8.85208 10.9146 9.88736 10.9146C10.9226 10.9146 11.7656 10.0553 11.7656 8.99997V8.91654H10.7098V8.99997Z" fill="#6B47F5"/>
<path d="M6.217 9.4588C6.217 9.66736 6.05331 9.83421 5.84871 9.83421C5.64411 9.83421 5.48043 9.66736 5.48043 9.4588V8.91653H4.4165V9.4588C4.4165 10.2639 5.05896 10.9146 5.84463 10.9146C6.63029 10.9146 7.27273 10.2597 7.27273 9.4588V5.25416H6.20881V9.4588H6.217Z" fill="#6B47F5"/>
<path d="M11.3237 11.6655H10.2598V12.75H11.3237V11.6655Z" fill="#6B47F5"/>
<path d="M9.52745 11.6655H8.46352V12.75H9.52745V11.6655Z" fill="#6B47F5"/>
<defs>
<linearGradient id="paint0_linear_82_134392" x1="6.23958" y1="15.1331" x2="34.7493" y2="-13.5634" gradientUnits="userSpaceOnUse">
<stop stop-color="#6B47F5"/>
<stop offset="1" stop-color="white" stop-opacity="0"/>
</linearGradient>
</defs>
</svg>
