<svg width="20" height="18" viewBox="0 0 20 18" fill="none" xmlns="http://www.w3.org/2000/svg">
<path d="M6.73545 0C3.96376 0 3.26619 1.37212 2.93135 2.86356L2.57791 4.40613H1.62921C1.24787 4.40613 0.931641 4.69589 0.931641 5.04532C0.931641 5.39474 1.24787 5.6845 1.62921 5.6845H2.28958L1.89894 7.389C2.4012 7.1248 3.09877 6.96288 4.06607 6.96288H15.9341C16.9014 6.96288 17.599 7.1248 18.1013 7.389L17.7106 5.6845H18.371C18.7523 5.6845 19.0686 5.39474 19.0686 5.04532C19.0686 4.69589 18.7523 4.40613 18.371 4.40613H17.4223L17.0688 2.86356C16.734 1.37212 16.0364 0 13.2647 0H6.73545Z" fill="url(#paint0_linear_82_145981)"/>
<path d="M7.20955 12.2268H4.41925C4.03791 12.2268 3.72168 11.8978 3.72168 11.5011C3.72168 11.1044 4.03791 10.7754 4.41925 10.7754H7.20955C7.59089 10.7754 7.90712 11.1044 7.90712 11.5011C7.90712 11.8978 7.59089 12.2268 7.20955 12.2268Z" fill="url(#paint1_linear_82_145981)"/>
<path d="M15.5806 12.2268H12.7903C12.409 12.2268 12.0928 11.8978 12.0928 11.5011C12.0928 11.1044 12.409 10.7754 12.7903 10.7754H15.5806C15.962 10.7754 16.2782 11.1044 16.2782 11.5011C16.2782 11.8978 15.962 12.2268 15.5806 12.2268Z" fill="url(#paint2_linear_82_145981)"/>
<path d="M14 15H17V16.5C17 17.3284 16.3284 18 15.5 18C14.6716 18 14 17.3284 14 16.5V15Z" fill="url(#paint3_linear_82_145981)"/>
<path d="M3 15H6V16.5C6 17.3284 5.32843 18 4.5 18C3.67157 18 3 17.3284 3 16.5V15Z" fill="url(#paint4_linear_82_145981)"/>
<defs>
<linearGradient id="paint0_linear_82_145981" x1="5.39611" y1="16.5193" x2="39.7351" y2="-21.8035" gradientUnits="userSpaceOnUse">
<stop stop-color="#6B47F5"/>
<stop offset="1" stop-color="white" stop-opacity="0"/>
</linearGradient>
<linearGradient id="paint1_linear_82_145981" x1="5.39611" y1="16.5193" x2="39.7351" y2="-21.8035" gradientUnits="userSpaceOnUse">
<stop stop-color="#6B47F5"/>
<stop offset="1" stop-color="white" stop-opacity="0"/>
</linearGradient>
<linearGradient id="paint2_linear_82_145981" x1="5.39611" y1="16.5193" x2="39.7351" y2="-21.8035" gradientUnits="userSpaceOnUse">
<stop stop-color="#6B47F5"/>
<stop offset="1" stop-color="white" stop-opacity="0"/>
</linearGradient>
<linearGradient id="paint3_linear_82_145981" x1="5.39611" y1="16.5193" x2="39.7351" y2="-21.8035" gradientUnits="userSpaceOnUse">
<stop stop-color="#6B47F5"/>
<stop offset="1" stop-color="white" stop-opacity="0"/>
</linearGradient>
<linearGradient id="paint4_linear_82_145981" x1="5.39611" y1="16.5193" x2="39.7351" y2="-21.8035" gradientUnits="userSpaceOnUse">
<stop stop-color="#6B47F5"/>
<stop offset="1" stop-color="white" stop-opacity="0"/>
</linearGradient>
</defs>
</svg>
