<svg width="420" height="338" viewBox="0 0 420 338" fill="none" xmlns="http://www.w3.org/2000/svg">
<path d="M97.4311 268.304L39.2191 315.795H42.5051L109.729 268.304H97.4311Z" fill="#C7C7C7"/>
<path d="M102.894 268.304L74.1362 315.795H77.4122L112.672 268.304H102.894Z" fill="#C7C7C7"/>
<path d="M116.996 268.304L145.755 315.795H142.479L107.229 268.304H116.996Z" fill="#C7C7C7"/>
<path d="M122.026 268.304L180.228 315.795H176.952L109.729 268.304H122.026Z" fill="#C7C7C7"/>
<path d="M219.167 250.882V236.99L139.243 233.675L97.0178 119.608H0.279999L34.5117 250.882L116.281 274.118H121.411L219.167 250.882Z" fill="#455A64"/>
<path opacity="0.1" d="M0.279999 119.608H11.3478L47.0109 239.275L119.355 260.011L219.167 236.99V250.882L121.411 274.118H116.281L34.5117 250.882L0.279999 119.608Z" fill="black"/>
<path d="M175.652 337.399C173.212 336.45 118.347 290.968 117.339 287.898C116.946 286.735 123.024 278.259 130.665 268.232C132.308 266.07 134.032 263.846 135.785 261.592C147.156 246.965 159.564 231.716 159.564 231.716L196.356 262.021L171.559 291.06L166.116 297.435C166.116 297.435 179.432 324.363 180.178 327.851C180.924 331.34 178.091 338.337 175.652 337.399Z" fill="#AD6359"/>
<path d="M175.652 337.399C173.212 336.45 118.347 290.968 117.339 287.898C116.865 286.47 125.947 274.261 135.785 261.592L171.559 291.08L166.116 297.455C166.116 297.455 179.432 324.383 180.178 327.872C180.924 331.36 178.091 338.337 175.652 337.399Z" fill="#EBEBEB"/>
<path d="M175.652 337.399C173.212 336.45 118.347 290.968 117.339 287.898C116.946 286.735 123.024 278.259 130.665 268.232L166.116 297.455C166.116 297.455 179.432 324.383 180.178 327.872C180.924 331.36 178.091 338.337 175.652 337.399Z" fill="#FFC727"/>
<path d="M176.67 334.522C167.598 326.668 130.574 295.854 121.069 288.785C120.998 288.724 120.958 288.785 121.069 288.836C129.778 296.823 167.074 327.301 176.539 334.675C176.74 334.828 176.851 334.685 176.67 334.522Z" fill="#263238"/>
<path d="M178.263 322.945C177.262 322.071 176.094 321.417 174.83 321.023C173.567 320.63 172.237 320.506 170.924 320.66C168.569 320.923 166.404 322.091 164.876 323.924C164.876 323.975 164.937 324.067 164.987 324.016C166.79 322.429 169.054 321.479 171.438 321.307C173.822 321.136 176.196 321.754 178.202 323.068C178.21 323.075 178.22 323.081 178.23 323.084C178.241 323.087 178.252 323.088 178.263 323.086C178.274 323.084 178.284 323.079 178.293 323.073C178.301 323.066 178.309 323.057 178.313 323.047C178.318 323.038 178.321 323.027 178.321 323.015C178.321 323.004 178.318 322.993 178.313 322.983C178.308 322.973 178.301 322.965 178.292 322.958C178.284 322.952 178.273 322.947 178.263 322.945Z" fill="#263238"/>
<path d="M168.939 301.342C165.3 298.231 159.967 296.007 155.21 297.16C155.028 297.211 155.099 297.466 155.21 297.506C159.81 298.462 164.295 299.919 168.586 301.852C168.653 301.899 168.735 301.918 168.816 301.903C168.896 301.889 168.967 301.843 169.014 301.775C169.061 301.707 169.079 301.624 169.065 301.543C169.051 301.461 169.005 301.389 168.939 301.342Z" fill="#263238"/>
<path d="M170.874 304.861C167.235 301.801 161.903 299.526 157.145 300.679C156.964 300.679 157.024 300.985 157.145 301.025C161.745 301.983 166.23 303.44 170.521 305.371C170.588 305.418 170.671 305.436 170.751 305.422C170.831 305.408 170.903 305.362 170.95 305.294C170.996 305.226 171.015 305.143 171 305.061C170.986 304.98 170.941 304.908 170.874 304.861Z" fill="#263238"/>
<path d="M172.809 308.298C169.17 305.187 163.838 302.963 159.08 304.116C158.899 304.116 158.959 304.422 159.08 304.463C163.681 305.42 168.165 306.877 172.456 308.808C172.523 308.855 172.606 308.874 172.686 308.86C172.767 308.845 172.838 308.799 172.885 308.732C172.932 308.664 172.95 308.58 172.936 308.499C172.922 308.418 172.876 308.345 172.809 308.298Z" fill="#263238"/>
<path d="M174.745 311.766C171.106 308.706 165.773 306.442 161.016 307.594C160.834 307.594 160.895 307.9 161.016 307.931C165.615 308.896 170.099 310.356 174.392 312.286C174.46 312.334 174.544 312.352 174.625 312.336C174.707 312.321 174.779 312.274 174.825 312.205C174.872 312.136 174.89 312.051 174.875 311.968C174.86 311.886 174.813 311.813 174.745 311.766Z" fill="#263238"/>
<path d="M130.574 281.88C126.431 278.473 121.19 284.94 125.332 288.398C129.475 291.856 134.717 285.297 130.574 281.88Z" fill="white"/>
<path d="M180.964 294.661C180.369 291.55 176.781 291.131 174.321 291.805C170.102 293.028 166.277 295.357 163.233 298.557C163.217 298.567 163.203 298.581 163.193 298.598C163.183 298.615 163.178 298.634 163.178 298.654C163.178 298.674 163.183 298.693 163.193 298.71C163.203 298.727 163.217 298.741 163.233 298.751C163.191 298.833 163.168 298.924 163.166 299.017C163.165 299.11 163.185 299.202 163.226 299.285C163.266 299.368 163.325 299.441 163.398 299.497C163.471 299.553 163.556 299.591 163.647 299.608C167.759 299.944 172.104 300.821 176.186 299.873C178.636 299.363 181.528 297.639 180.964 294.661ZM170.037 298.832C168.021 298.71 166.005 298.496 163.989 298.455C166.106 297.077 168.289 295.807 170.531 294.65C171.628 294.109 172.76 293.642 173.918 293.253C175.712 292.692 181.841 292.57 178.958 296.925C177.315 299.373 172.446 299.006 170.037 298.873V298.832Z" fill="#263238"/>
<path d="M152.962 292.396C155.764 295.548 159.816 297.364 163.364 299.536C163.447 299.575 163.537 299.594 163.628 299.592C163.719 299.59 163.809 299.566 163.889 299.522C163.969 299.478 164.038 299.416 164.091 299.341C164.143 299.265 164.177 299.179 164.191 299.087C164.272 299.087 164.342 299.036 164.322 298.934C163.661 294.554 161.871 290.427 159.131 286.97C157.498 284.93 154.333 283.237 152.075 285.43C149.817 287.623 151.359 290.581 152.962 292.396ZM152.448 288.428C152.548 283.165 157.488 286.837 158.637 288.347C159.376 289.341 160.049 290.384 160.653 291.468C161.903 293.692 162.81 296.048 163.838 298.384C162.155 297.231 160.391 296.242 158.667 295.16C156.621 293.865 152.438 291.325 152.488 288.428H152.448Z" fill="#263238"/>
<path d="M234.61 205.074C231.828 224.576 183.595 280.37 178.021 286.766C177.194 287.704 176.751 288.224 176.751 288.224L137.771 257.145L138.235 256.553L173.434 211.082L70.0941 209.195L109.708 178.799C109.708 178.799 112.864 180.696 119.496 179.819C142.337 176.759 193.846 169.874 205.972 170.516C221.556 171.353 237.11 187.183 234.61 205.074Z" fill="#263238"/>
<path d="M186.024 194.17C184.721 195.622 183.509 197.155 182.395 198.76C181.156 200.372 179.885 201.963 178.646 203.575V203.626C178.867 203.146 179.079 202.677 179.311 202.208C180.107 200.596 180.742 198.934 181.67 197.393C181.676 197.384 181.68 197.374 181.682 197.363C181.684 197.352 181.683 197.34 181.681 197.329C181.679 197.319 181.674 197.308 181.668 197.299C181.662 197.29 181.654 197.282 181.644 197.276C181.635 197.27 181.625 197.266 181.614 197.264C181.603 197.262 181.592 197.262 181.581 197.265C181.57 197.267 181.56 197.271 181.551 197.278C181.542 197.284 181.534 197.292 181.528 197.302C180.571 198.832 179.512 200.28 178.646 201.881C178.263 202.636 177.89 203.401 177.547 204.176C177.365 204.605 177.174 205.033 177.003 205.472C176.909 205.672 176.831 205.881 176.771 206.094C176.206 206.839 175.662 207.593 175.128 208.358C173.938 210.052 172.89 211.847 171.68 213.53C171.62 213.611 171.761 213.703 171.832 213.622C173.041 212.041 174.402 210.562 175.632 209.001C176.861 207.44 178.081 205.757 179.26 204.105C180.44 202.453 181.539 200.861 182.688 199.24C183.946 197.653 185.105 195.987 186.155 194.252C186.166 194.234 186.169 194.213 186.165 194.193C186.16 194.173 186.147 194.156 186.13 194.145C186.113 194.134 186.092 194.13 186.072 194.135C186.052 194.14 186.035 194.153 186.024 194.17Z" fill="#37474F"/>
<path d="M182.073 279.065C179.855 277.106 177.476 275.301 175.138 273.485C172.799 271.67 170.44 269.844 168.082 268.049C163.354 264.448 158.637 260.817 153.859 257.288C151.238 255.34 148.597 253.432 145.865 251.627C145.744 251.555 145.613 251.749 145.724 251.841C150.22 255.727 154.998 259.267 159.715 262.857C164.433 266.447 169.201 269.997 173.989 273.567C176.609 275.495 179.22 277.484 181.952 279.248C182.063 279.361 182.194 279.146 182.073 279.065Z" fill="#37474F"/>
<path d="M98.187 127.299C108.912 147.954 121.633 169.874 133.689 173.046C145.15 176.106 172.436 147.158 177.033 137.55C178.636 134.245 157.034 119.751 153.97 122.179C148.214 126.779 135.594 141.324 133.81 140.957C132.026 140.59 116.674 126.799 102.894 115.202C94.4978 108.174 90.7682 112.988 98.187 127.299Z" fill="#AD6359"/>
<path d="M157.901 88.6206L149.645 117.864C149.536 118.023 149.473 118.21 149.464 118.403C149.456 118.596 149.502 118.788 149.597 118.956C149.692 119.124 149.832 119.261 150.002 119.351C150.171 119.441 150.362 119.481 150.553 119.465L165.582 119.945C166.043 119.923 166.488 119.77 166.866 119.503C167.245 119.236 167.54 118.866 167.719 118.435L175.974 89.1918C176.317 88.335 175.904 87.621 175.067 87.6006L160.018 87.1314C159.562 87.1536 159.122 87.3051 158.748 87.5684C158.374 87.8318 158.08 88.1964 157.901 88.6206Z" fill="#A6A6A6"/>
<path d="M159.685 88.6716L151.43 117.915C151.097 118.772 151.5 119.486 152.337 119.516L167.376 119.996C167.835 119.973 168.278 119.818 168.655 119.551C169.031 119.284 169.325 118.915 169.503 118.486L177.759 89.2428C178.101 88.386 177.688 87.672 176.851 87.6516L161.822 87.1722C161.362 87.1927 160.918 87.3444 160.54 87.6097C160.162 87.8751 159.865 88.2432 159.685 88.6716Z" fill="#DBDBDB"/>
<path d="M163.768 90.1506C163.77 90.3283 163.736 90.5046 163.669 90.6685C163.601 90.8325 163.501 90.9806 163.374 91.1036C163.247 91.2267 163.097 91.322 162.932 91.3837C162.768 91.4454 162.592 91.4722 162.417 91.4624C162.241 91.4526 162.07 91.4064 161.913 91.3267C161.756 91.2469 161.617 91.1354 161.505 90.9989C161.392 90.8625 161.309 90.7041 161.259 90.5336C161.21 90.3631 161.195 90.1841 161.217 90.0078C161.215 89.8301 161.248 89.6538 161.316 89.4899C161.384 89.3259 161.484 89.1778 161.611 89.0548C161.738 88.9318 161.888 88.8364 162.053 88.7747C162.217 88.713 162.393 88.6862 162.568 88.696C162.743 88.7058 162.915 88.752 163.072 88.8317C163.229 88.9115 163.368 89.023 163.48 89.1595C163.593 89.2959 163.676 89.4543 163.726 89.6248C163.775 89.7953 163.789 89.9743 163.768 90.1506Z" fill="#455A64"/>
<path d="M184.018 120.995C185.288 112.499 184.321 110.122 189.159 103.523C192.334 99.1878 190.963 95.2812 185.974 97.7088C177.809 101.697 173.878 112.315 173.585 116.395L184.018 120.995Z" fill="#AD6359"/>
<path d="M173.182 143.272C173.182 143.272 181.024 134.011 183.262 125.086C184.804 118.915 186.689 105.114 173.364 91.7316C170.199 88.5594 163.475 86.3052 166.771 93.384C169.12 98.4126 172.114 100.891 172.95 104.063C172.95 104.063 164.05 102.227 161.036 105.553C158.396 108.465 155.964 111.563 153.758 114.824C154.257 115.367 154.789 115.878 155.351 116.354C155.351 116.354 152.821 119.741 153.335 126.167L173.182 143.272Z" fill="#AD6359"/>
<path d="M183.807 118.966C182.315 115.987 179.049 109.735 174.624 105.553C169.705 100.922 158.99 93.3126 155.643 97.0356C153.194 99.759 157.034 103.013 157.034 103.013C157.034 103.013 151.994 100.82 150.26 103.768C148.728 106.46 151.843 108.796 151.843 108.796C151.843 108.796 148.537 108.011 147.549 110.887C146.359 114.345 153.496 115.436 155.28 119.996C155.683 121.016 183.807 118.966 183.807 118.966Z" fill="#AD6359"/>
<path d="M170.642 111.632C167.125 107.425 162.423 104.404 157.165 102.972C157.024 102.972 156.933 103.033 157.044 103.084C161.894 105.378 166.447 108.266 170.602 111.683C170.602 111.683 170.662 111.662 170.642 111.632Z" fill="#263238"/>
<path d="M165.874 116.518C164.05 114.478 157.961 109.857 151.903 108.694C151.772 108.694 151.682 108.755 151.803 108.806C156.753 110.853 161.459 113.457 165.834 116.569C165.834 116.569 165.894 116.548 165.874 116.518Z" fill="#263238"/>
<path d="M146.561 125.942L169.09 150.086C169.09 150.086 145.331 177.044 134.173 174.229C123.014 171.414 101.917 140.845 95.153 121.444C90.4658 108.001 97.8242 110.173 105.586 116.752C113.347 123.331 133.608 139.672 134.495 139.437C135.382 139.202 146.561 125.942 146.561 125.942Z" fill="#FFC727"/>
<path opacity="0.1" d="M138.94 173.984C137.388 174.48 135.736 174.564 134.142 174.229C122.984 171.414 101.886 140.855 95.1227 121.444C92.0382 112.601 94.1954 110.52 98.2475 112.03C110.404 130.277 126.582 154.737 138.94 173.984Z" fill="black"/>
<path d="M161.762 154.105C158.506 150.769 145.634 136.652 143.093 133.419C142.912 133.195 143.013 133.021 143.224 133.235C153.224 142.976 158.859 150.575 161.893 153.972C161.963 154.054 161.842 154.186 161.762 154.105Z" fill="#263238"/>
<path d="M123.216 192.661C123.216 192.661 49.3394 206.329 48.9563 205.921C48.5733 205.513 57.0909 124.657 82.1598 110.989C86.1918 108.827 95.7376 107.552 99.8301 111.775C111.503 123.79 124.183 191.569 123.216 192.661Z" fill="#FFC727"/>
<path d="M122.44 185.959L49.6922 198.587C49.9643 196.363 50.3272 193.711 50.7808 190.723L121.099 178.483C121.643 181.339 122.087 183.858 122.44 185.959Z" fill="#EBEBEB"/>
<path d="M120.323 174.576L51.436 186.541C51.6477 185.215 51.8795 183.858 52.1315 182.461L119.526 170.761C119.809 172.046 120.071 173.332 120.323 174.576Z" fill="#EBEBEB"/>
<path d="M96.5642 124.045C92.4414 124.045 87.1898 116.354 85.7181 110.785C85.6173 110.408 86.968 107.001 88.4195 102.778C89.2864 100.218 90.1936 97.3416 90.8286 94.6182L106.493 102.778C104.755 105.904 103.401 109.234 102.461 112.693C102.372 113.064 102.322 113.443 102.31 113.825C102.31 113.876 102.31 113.937 102.31 114.008C102.098 116.252 100.546 124.055 96.5642 124.045Z" fill="#AD6359"/>
<path d="M106.503 102.901C104.763 106.026 103.409 109.356 102.471 112.815C102.382 113.186 102.332 113.566 102.32 113.947C102.324 114.005 102.324 114.063 102.32 114.121C101.733 114.074 101.152 113.968 100.586 113.804C90.9597 111.214 91.121 98.4126 91.3528 94.9752L106.503 102.901Z" fill="#263238"/>
<path d="M90.1634 76.2072C87.6534 82.1028 88.9134 100.096 92.7741 104.512C98.3786 110.908 108.509 112.58 114.113 105.532C119.557 98.7186 117.5 75.2994 113.105 71.1888C106.594 65.1606 93.8627 67.4862 90.1634 76.2072Z" fill="#AD6359"/>
<path d="M106.382 89.151C106.382 89.1 106.301 89.2122 106.301 89.2632C106.453 90.4668 106.422 91.8642 105.384 92.3232C105.384 92.3232 105.384 92.4048 105.384 92.3946C106.695 92.1192 106.715 90.2628 106.382 89.151Z" fill="#263238"/>
<path d="M105.213 87.9984C103.288 87.9984 103.489 91.9152 105.273 91.8846C107.057 91.854 106.826 87.9678 105.213 87.9984Z" fill="#263238"/>
<path d="M113.378 88.7634C113.378 88.7634 113.478 88.8144 113.478 88.8654C113.478 90.069 113.73 91.446 114.829 91.7928V91.8642C113.499 91.7418 113.216 89.9058 113.378 88.7634Z" fill="#263238"/>
<path d="M114.376 87.4476C116.281 87.2028 116.633 91.0788 114.869 91.3032C113.105 91.5276 112.783 87.6618 114.376 87.4476Z" fill="#263238"/>
<path d="M103.57 86.295C104.067 86.1165 104.555 85.9122 105.031 85.683C105.577 85.5478 106.061 85.2274 106.402 84.7752C106.493 84.6102 106.525 84.4183 106.492 84.2323C106.459 84.0463 106.363 83.8776 106.221 83.7552C105.923 83.5604 105.58 83.4484 105.226 83.4305C104.872 83.4126 104.52 83.4894 104.205 83.6532C103.505 83.8915 102.919 84.3864 102.562 85.0404C102.482 85.1927 102.447 85.3656 102.464 85.5375C102.48 85.7093 102.547 85.8724 102.654 86.0063C102.762 86.1403 102.906 86.2391 103.069 86.2904C103.232 86.3418 103.406 86.3434 103.57 86.295Z" fill="#263238"/>
<path d="M115.756 85.4076C115.222 85.3464 114.748 85.2036 114.214 85.0914C113.653 85.0528 113.119 84.8309 112.692 84.459C112.578 84.3143 112.515 84.1344 112.515 83.949C112.515 83.7636 112.578 83.5837 112.692 83.439C112.952 83.1785 113.277 82.9944 113.632 82.9064C113.987 82.8183 114.359 82.8297 114.708 82.9392C115.431 83.0404 116.093 83.4026 116.573 83.9592C116.696 84.0962 116.773 84.269 116.792 84.4529C116.812 84.6368 116.774 84.8223 116.684 84.9829C116.593 85.1436 116.455 85.2712 116.288 85.3474C116.122 85.4237 115.936 85.4448 115.756 85.4076Z" fill="#263238"/>
<path d="M106.997 96.3216C107.324 96.7821 107.741 97.1687 108.224 97.4567C108.706 97.7447 109.243 97.9278 109.799 97.9944C110.284 98.0663 110.776 98.0663 111.261 97.9944C111.441 97.9762 111.62 97.942 111.795 97.8924C111.858 97.8789 111.915 97.8446 111.957 97.7947C111.999 97.7449 112.024 97.6824 112.027 97.617L111.815 95.0466C112.158 95.1996 113.902 95.883 113.831 95.3934C113.509 91.2171 112.766 87.0851 111.614 83.0616C111.61 83.0469 111.604 83.0329 111.596 83.0206C111.587 83.0083 111.576 82.9978 111.563 82.9897C111.551 82.9817 111.537 82.9762 111.522 82.9737C111.507 82.9711 111.492 82.9715 111.478 82.9749C111.463 82.9782 111.449 82.9845 111.437 82.9932C111.425 83.0019 111.414 83.013 111.406 83.0258C111.399 83.0386 111.393 83.0528 111.391 83.0677C111.388 83.0826 111.389 83.0979 111.392 83.1126C111.674 86.9682 112.622 90.7524 112.964 94.6284C112.342 94.3744 111.687 94.2096 111.019 94.1388C110.948 94.1388 111.362 97.2906 111.352 97.3212C110.604 97.4358 109.842 97.3974 109.109 97.2082C108.377 97.0189 107.689 96.6828 107.088 96.2196C107.017 96.138 106.926 96.2298 106.997 96.3216Z" fill="#263238"/>
<path d="M110.878 97.8006C110.354 98.4998 109.659 99.0484 108.862 99.3918C108.419 99.5708 107.932 99.6029 107.471 99.4836C106.463 99.2286 106.463 98.3004 106.624 97.5048C106.725 97.081 106.874 96.6703 107.068 96.2808C108.146 97.1833 109.481 97.7155 110.878 97.8006Z" fill="#263238"/>
<path d="M108.862 99.402C108.419 99.581 107.932 99.6131 107.471 99.4938C106.463 99.2388 106.463 98.3106 106.624 97.515C107.152 97.5288 107.661 97.7226 108.067 98.065C108.473 98.4075 108.753 98.8785 108.862 99.402Z" fill="#FF9CBD"/>
<path d="M88.5203 92.4558C93.1571 92.823 95.5763 87.2436 94.5683 82.7352C94.5683 82.7352 106.876 84.4794 107.541 74.4732C108.521 75.8567 109.794 77.0001 111.268 77.8192C112.743 78.6383 114.38 79.1122 116.059 79.206L116.875 82.725C118.145 82.368 119.516 78.7368 116.442 75.8604C116.442 75.8604 116.271 70.8726 112.652 67.8432C111.675 66.9766 110.471 66.4136 109.186 66.2218C107.9 66.03 106.587 66.2176 105.404 66.762C103.269 65.1768 100.609 64.4929 97.9854 64.8546C96.6163 65.0655 95.3169 65.6052 94.1963 66.4286C93.0756 67.2521 92.1663 68.3352 91.5443 69.5874C91.5443 69.5874 85.4258 70.7196 84.3573 75.1056C84.0257 76.3424 83.9566 77.6363 84.1547 78.9021C84.3527 80.1679 84.8134 81.3769 85.5064 82.4496C85.5064 82.4496 83.9541 84.1632 84.7101 87.9168C85.1939 90.324 87.1293 92.3436 88.5203 92.4558Z" fill="#263238"/>
<path d="M107.279 73.5756C107.36 74.3895 107.36 75.2096 107.279 76.0236C107.216 76.828 107.061 77.6222 106.816 78.39C106.331 79.9037 105.302 81.1779 103.933 81.96C102.522 82.6912 100.961 83.0756 99.3765 83.082C98.5801 83.082 97.7737 83.082 96.9673 83.0004C96.1609 82.9188 95.3646 82.8066 94.5582 82.7352C95.3445 82.929 96.1408 83.1024 96.9371 83.286C97.7334 83.4696 98.56 83.439 99.3765 83.5206C101.049 83.6005 102.713 83.2495 104.215 82.5006C105.691 81.6372 106.777 80.2245 107.239 78.5634C107.667 76.9307 107.681 75.2151 107.279 73.5756Z" fill="#263238"/>
<path d="M113.589 79.4406C112.245 78.9763 110.988 78.2867 109.87 77.4006C109.324 76.9539 108.839 76.436 108.428 75.8604C108.024 75.268 107.685 74.6316 107.42 73.9632C107.484 74.7167 107.707 75.4474 108.076 76.1052C108.435 76.7788 108.925 77.372 109.517 77.8494C110.097 78.3252 110.747 78.7071 111.442 78.9816C112.128 79.2533 112.853 79.4084 113.589 79.4406Z" fill="#263238"/>
<path d="M104.044 95.2302C103.075 95.1818 102.14 94.8594 101.343 94.2997C100.547 93.74 99.9219 92.9655 99.539 92.0641C99.1561 91.1627 99.0309 90.1708 99.1775 89.2009C99.3241 88.2311 99.7367 87.3224 100.368 86.5781C101 85.8338 101.825 85.2838 102.751 84.9906C103.676 84.6974 104.664 84.6728 105.602 84.9195C106.541 85.1663 107.392 85.6746 108.059 86.3866C108.726 87.0986 109.182 87.9857 109.376 88.947C109.644 90.307 109.371 91.7192 108.616 92.8767C107.861 94.0341 106.685 94.8433 105.344 95.1282C104.916 95.2183 104.479 95.2525 104.044 95.2302ZM104.517 85.4484C104.142 85.4282 103.766 85.4591 103.398 85.5402C102.284 85.7765 101.301 86.4336 100.649 87.3776C99.9965 88.3215 99.7242 89.4816 99.8873 90.6215C100.05 91.7615 100.637 92.7958 101.527 93.5138C102.417 94.2318 103.544 94.5797 104.678 94.4866C105.813 94.3935 106.87 93.8665 107.634 93.0127C108.398 92.159 108.812 91.0426 108.791 89.891C108.771 88.7393 108.318 87.6388 107.523 86.8135C106.729 85.9882 105.654 85.5 104.517 85.4484Z" fill="#FFC727"/>
<path d="M115.908 94.3428C113.892 94.2408 112.228 92.0988 112.047 89.3754C111.927 88.0714 112.224 86.7629 112.894 85.6422C113.149 85.1433 113.527 84.7193 113.991 84.4109C114.455 84.1024 114.989 83.92 115.543 83.881C116.097 83.8421 116.651 83.948 117.153 84.1886C117.655 84.4291 118.087 84.7962 118.408 85.2546C119.207 86.2805 119.675 87.5305 119.748 88.8348C119.94 91.7214 118.367 94.1898 116.25 94.3428H115.908ZM115.847 84.5712H115.585C115.146 84.6236 114.726 84.7814 114.359 85.0316C113.993 85.2818 113.691 85.6171 113.478 86.0094C112.894 87.0085 112.633 88.1677 112.732 89.3244C112.904 91.8234 114.456 93.7614 116.2 93.639C117.944 93.5166 119.224 91.3848 119.053 88.8858C118.997 87.7266 118.585 86.6139 117.873 85.7034C117.636 85.3758 117.333 85.1028 116.983 84.9024C116.634 84.7019 116.247 84.5786 115.847 84.5406V84.5712Z" fill="#FFC727"/>
<path d="M109.245 89.559L108.761 89.0592C109.497 88.335 111.251 87.315 112.612 88.59L112.138 89.1C110.928 87.9576 109.315 89.4978 109.245 89.559Z" fill="#FFC727"/>
<path d="M87.3208 92.6292L86.6858 92.3436C86.8168 92.0478 87.9861 89.406 89.5182 89.0388C91.0504 88.6716 99.2354 88.8246 99.5982 88.8348V89.5386C96.2811 89.4196 92.96 89.4809 89.6493 89.7222C88.6614 89.967 87.6333 91.8948 87.3208 92.6292Z" fill="#FFC727"/>
<path d="M92.895 92.1396C92.895 92.1396 89.4577 86.0196 86.7664 87.2538C84.075 88.488 86.3128 97.005 89.2158 98.4126C89.5749 98.6253 89.9734 98.7607 90.3866 98.8104C90.7997 98.8601 91.2185 98.823 91.6168 98.7014C92.0152 98.5798 92.3844 98.3763 92.7015 98.1037C93.0185 97.8312 93.2766 97.4953 93.4595 97.1172L92.895 92.1396Z" fill="#AD6359"/>
<path d="M87.4418 89.6916C87.4418 89.6916 87.3813 89.7528 87.4418 89.7732C89.4578 90.7932 90.4053 92.9046 91 95.0262C90.8976 94.801 90.7478 94.6012 90.5612 94.4406C90.3745 94.2801 90.1555 94.1627 89.9194 94.0966C89.6832 94.0306 89.4357 94.0175 89.1941 94.0582C88.9525 94.099 88.7225 94.1926 88.5203 94.3326C88.5099 94.339 88.5013 94.3479 88.4953 94.3586C88.4893 94.3694 88.4861 94.3815 88.4861 94.3938C88.4861 94.4061 88.4893 94.4182 88.4953 94.429C88.5013 94.4397 88.5099 94.4487 88.5203 94.455C88.9016 94.3686 89.3 94.4036 89.6609 94.5551C90.0218 94.7067 90.3275 94.9674 90.5363 95.3016C90.8788 95.869 91.1625 96.4705 91.3831 97.0968C91.4637 97.2906 91.8064 97.2192 91.756 96.9948V96.9438C92.0786 94.2306 90.3246 90.2322 87.4418 89.6916Z" fill="#263238"/>
<path d="M102.501 115.987H102.451C102.28 119.394 101.665 127.207 96.2517 126.187C94.1112 125.585 92.1824 124.382 90.6875 122.719C87.7711 119.604 85.3347 116.062 83.4602 112.213C83.4098 112.121 83.2888 112.213 83.3191 112.295C83.9715 114.287 84.8546 116.194 85.9499 117.976C87.1684 120.039 88.6607 121.923 90.3851 123.576C92.0282 125.106 94.0139 126.636 96.3323 127.024C97.3261 127.195 98.3477 127.018 99.2291 126.523C100.11 126.028 100.799 125.244 101.181 124.3C102.259 121.672 102.711 118.825 102.501 115.987Z" fill="#263238"/>
<path d="M73.8741 117.405C62.3426 127.605 32.7779 167.895 40.0355 176.514C47.2931 185.133 92.9253 179.156 106.039 174.392C109.95 172.975 98.1165 148.036 93.8023 147.046C90.1936 146.21 70.709 152.952 70.2755 151.81C69.8421 150.667 73.6423 141.773 79.7507 125.84C86.7967 107.48 78.9746 112.886 73.8741 117.405Z" fill="#AD6359"/>
<path d="M113.055 141.334C122.238 140.977 124.647 142.354 132.207 137.846C137.187 134.918 141.178 136.877 137.993 142.018C132.782 150.412 121.028 153.391 116.664 153.238L113.055 141.334Z" fill="#AD6359"/>
<path d="M88.1373 147.709C88.1373 147.709 98.8725 143.027 108.61 141.661C115.353 140.722 130.241 140.324 142.882 156.43C145.906 160.255 147.458 167.844 140.332 163.397C135.292 160.245 133.003 156.695 129.727 155.4C129.727 155.4 130.614 165.294 126.703 168.181C123.291 170.701 119.707 172.974 115.978 174.984C115.462 174.375 114.984 173.735 114.547 173.066C114.547 173.066 110.656 175.412 103.892 174.086L88.1373 147.709Z" fill="#AD6359"/>
<path d="M115.192 141.814C118.216 143.792 124.425 148.097 128.296 153.411C132.63 159.317 139.384 171.883 135.07 175.076C131.884 177.422 128.881 172.852 128.881 172.852C128.881 172.852 130.594 178.636 127.258 180.115C124.234 181.461 122.107 177.789 122.107 177.789C122.107 177.789 122.56 181.481 119.385 182.216C115.565 183.093 115.263 175.208 110.636 172.709C109.618 172.148 115.192 141.814 115.192 141.814Z" fill="#AD6359"/>
<path d="M121.391 156.961C125.437 161.295 128.081 166.775 128.971 172.669C128.971 172.822 128.881 172.913 128.84 172.781C126.978 167.235 124.46 161.936 121.341 157.001C121.341 157.001 121.371 156.961 121.391 156.961Z" fill="#263238"/>
<path d="M115.666 161.612C117.621 163.835 121.794 171.006 122.308 177.738C122.308 177.891 122.208 177.983 122.167 177.84C120.591 172.209 118.393 166.776 115.615 161.642C115.615 161.642 115.605 161.581 115.666 161.612Z" fill="#263238"/>
<path d="M129.717 155.349C132.58 156.532 134.354 158.185 136.672 160.194C137.805 161.2 138.993 162.14 140.231 163.009C141.37 163.795 143.043 164.968 144.424 164.029C144.753 163.738 144.999 163.363 145.137 162.944C145.275 162.524 145.301 162.075 145.21 161.642C144.967 160.395 144.531 159.194 143.92 158.083C143.92 158.083 143.97 158.001 143.991 158.083C144.593 159.095 145.09 160.168 145.472 161.285C145.701 162.054 145.701 162.873 145.472 163.642C144.878 165.243 142.932 165.263 141.622 164.662C140.842 164.283 140.102 163.825 139.414 163.295C138.739 162.805 138.084 162.275 137.398 161.744C136.088 160.643 134.848 159.47 133.558 158.348C132.279 157.289 130.932 156.318 129.526 155.441C129.514 155.415 129.512 155.386 129.522 155.359C129.531 155.332 129.551 155.31 129.576 155.298C129.602 155.286 129.631 155.284 129.657 155.294C129.684 155.303 129.705 155.323 129.717 155.349Z" fill="#263238"/>
<path d="M88.1373 147.709L99.3866 179.543C99.3866 179.543 42.3136 186.541 38.4731 176.239C34.6326 165.937 60.125 129.635 71.0013 119.425C83.6114 107.582 84.6194 112.152 80.9805 123.403C77.1803 135.194 70.4066 152.105 70.4066 152.105L88.1373 147.709Z" fill="#FFC727"/>
<path d="M52.6456 158.47C55.4207 156.929 58.3008 155.589 61.264 154.462C64.2101 153.369 67.2324 152.5 70.3058 151.861C72.0496 151.463 73.8035 151.157 75.5675 150.841C75.5675 150.841 75.628 150.912 75.5675 150.922C72.4969 151.596 69.4678 152.451 66.4955 153.482C63.5186 154.468 60.5718 155.512 57.6554 156.614C55.9922 157.246 54.3693 157.94 52.7363 158.654C52.7123 158.666 52.6844 158.668 52.6589 158.659C52.6334 158.651 52.6123 158.632 52.6002 158.608C52.5882 158.584 52.5862 158.555 52.5947 158.53C52.6033 158.504 52.6215 158.482 52.6456 158.47Z" fill="#263238"/>
<path d="M87.9962 147.607C87.7039 147.658 71.9387 151.208 71.4146 151.391C71.4952 151.167 75.0535 143.231 75.5776 142.069L75.7288 141.722C76.0614 141.212 76.3941 140.702 76.7368 140.182C77.0795 139.661 77.5331 138.845 77.9262 138.142L76.6562 140.09C76.4647 140.396 76.2731 140.702 76.0917 141.018C76.4445 140.192 76.7872 139.366 77.0997 138.539C77.644 137.213 78.1077 135.877 78.652 134.541H78.5814C77.5734 136.856 76.4142 139.131 75.3659 141.446C74.3176 143.762 70.3259 152.248 70.3259 152.248C70.3259 152.248 87.7341 147.954 88.0768 147.842C88.1076 147.831 88.1328 147.808 88.147 147.779C88.1611 147.749 88.1631 147.715 88.1524 147.684C88.1417 147.653 88.1193 147.627 88.0899 147.613C88.0606 147.598 88.0269 147.596 87.9962 147.607Z" fill="#263238"/>
<path d="M87.0587 167.528C85.8189 163.978 84.6194 160.388 83.2485 156.91C82.4723 154.921 81.7062 152.932 80.92 150.943C80.92 150.871 80.7587 150.943 80.7789 150.943C81.8776 154.553 82.9864 158.174 84.2565 161.734C85.5266 165.294 86.7362 168.874 88.0365 172.363C88.7824 174.362 89.5821 176.341 90.4355 178.299C90.4355 178.299 90.5161 178.299 90.5061 178.299C89.5283 174.668 88.2985 171.108 87.0587 167.528Z" fill="#263238"/>
<path d="M100.062 180.084C99.5983 179.064 99.0539 177.677 98.5197 176.708C98.3887 176.443 98.1971 176.483 98.2979 176.708C98.6407 177.595 98.8926 178.585 99.2354 179.503C98.429 179.574 97.6327 179.635 96.8363 179.727L94.0643 180.023C92.2499 180.213 90.4355 180.387 88.6211 180.543C84.952 180.849 81.2762 181.077 77.5936 181.226C70.2042 181.572 62.802 181.524 55.4176 181.084C53.4016 180.951 51.2949 180.778 49.2386 180.543C47.1822 180.308 44.9042 180.023 43.1906 179.635C43.1402 179.635 43.12 179.707 43.1906 179.727C44.8932 180.275 46.6357 180.688 48.4019 180.961C50.2566 181.237 52.1114 181.471 53.9762 181.634C57.6957 181.971 61.4253 182.104 65.1549 182.134C72.5469 182.195 79.9389 181.944 87.3309 181.379C89.3973 181.226 91.4536 181.043 93.52 180.839L96.6347 180.502C97.6629 180.421 100.143 180.257 100.062 180.084Z" fill="#263238"/>
<path d="M173.596 179.38H101.735V182.634H173.596V179.38Z" fill="#C7C7C7"/>
<path d="M173.596 179.38V182.634H124.748L127.207 179.38H173.596Z" fill="#A6A6A6"/>
<path d="M134.626 182.634H197.515L206.618 137.734H143.728L134.626 182.634Z" fill="#A6A6A6"/>
<path d="M137.57 182.634H200.459L209.561 137.734H146.672L137.57 182.634Z" fill="#C7C7C7"/>
<path d="M179.23 158.511C179.3 159.513 179.034 160.509 178.474 161.339C177.914 162.168 177.094 162.782 176.146 163.081C174.352 163.468 172.85 162.061 172.779 159.929C172.727 158.928 173.007 157.939 173.575 157.118C174.144 156.297 174.967 155.692 175.914 155.4C177.658 154.982 179.17 156.4 179.23 158.511Z" fill="white"/>
<path d="M320.048 275.842C319.11 278.31 273.982 333.676 270.938 334.696C269.789 335.083 261.433 328.902 251.554 321.14C249.417 319.467 247.22 317.723 245.002 315.938C230.588 304.381 215.559 291.784 215.559 291.784L245.698 254.656L274.305 279.83L280.595 285.358C280.595 285.358 307.186 271.976 310.643 271.201C314.101 270.425 320.985 273.373 320.048 275.842Z" fill="#AD6359"/>
<path d="M320.048 275.842C319.11 278.31 273.982 333.676 270.938 334.696C269.537 335.155 257.491 325.944 245.002 315.938L274.234 279.83L280.524 285.358C280.524 285.358 307.186 271.976 310.643 271.201C314.101 270.425 320.985 273.373 320.048 275.842Z" fill="#EBEBEB"/>
<path d="M320.048 275.842C319.11 278.31 273.982 333.676 270.938 334.696C269.789 335.083 261.433 328.902 251.554 321.14L280.544 285.358C280.544 285.358 307.186 271.976 310.643 271.201C314.101 270.425 320.985 273.373 320.048 275.842Z" fill="#FFC727"/>
<path d="M317.205 274.811C309.413 283.9 278.851 321.323 271.845 330.911C271.795 330.993 271.845 331.034 271.906 330.911C279.819 322.068 310.099 284.389 317.377 274.883C317.518 274.73 317.377 274.618 317.205 274.811Z" fill="#263238"/>
<path d="M305.775 273.149C304.907 274.159 304.256 275.341 303.862 276.619C303.468 277.897 303.34 279.244 303.486 280.574C303.745 282.953 304.891 285.143 306.692 286.694C306.752 286.694 306.833 286.633 306.783 286.582C305.229 284.747 304.302 282.453 304.14 280.042C303.979 277.63 304.591 275.231 305.885 273.2C305.946 273.169 305.835 273.077 305.775 273.149Z" fill="#263238"/>
<path d="M284.395 282.523C281.31 286.195 279.103 291.58 280.222 296.395C280.222 296.578 280.524 296.517 280.554 296.395C281.522 291.743 282.979 287.208 284.899 282.869C284.944 282.802 284.961 282.719 284.946 282.638C284.931 282.558 284.885 282.487 284.818 282.441C284.751 282.395 284.669 282.378 284.59 282.393C284.51 282.408 284.44 282.455 284.395 282.523Z" fill="#263238"/>
<path d="M287.832 280.574C284.758 284.246 282.54 289.632 283.659 294.446C283.659 294.63 283.972 294.569 284.002 294.446C284.963 289.794 286.416 285.259 288.336 280.921C288.382 280.854 288.399 280.77 288.384 280.69C288.368 280.61 288.322 280.539 288.256 280.493C288.189 280.447 288.107 280.43 288.027 280.445C287.948 280.46 287.878 280.507 287.832 280.574Z" fill="#263238"/>
<path d="M291.28 278.626C288.195 282.298 285.987 287.684 287.106 292.498C287.106 292.692 287.409 292.621 287.439 292.498C288.405 287.846 289.862 283.311 291.784 278.973C291.829 278.905 291.846 278.822 291.831 278.742C291.816 278.662 291.77 278.591 291.703 278.545C291.636 278.499 291.554 278.481 291.474 278.497C291.395 278.512 291.325 278.559 291.28 278.626Z" fill="#263238"/>
<path d="M294.717 276.678C291.642 280.35 289.425 285.746 290.544 290.56C290.594 290.744 290.856 290.683 290.886 290.56C291.851 285.908 293.304 281.374 295.221 277.035C295.268 276.967 295.286 276.884 295.272 276.802C295.258 276.721 295.212 276.649 295.145 276.602C295.078 276.554 294.996 276.536 294.915 276.55C294.835 276.564 294.764 276.61 294.717 276.678Z" fill="#263238"/>
<path d="M265.041 321.283C261.654 325.454 268.065 330.789 271.462 326.597C274.859 322.405 268.438 317.101 265.041 321.283Z" fill="white"/>
<path d="M277.863 270.323C274.839 270.925 274.365 274.546 275.02 277.045C276.227 281.309 278.517 285.177 281.663 288.265C281.734 288.337 281.814 288.265 281.865 288.265C281.945 288.309 282.035 288.332 282.126 288.333C282.217 288.335 282.307 288.314 282.389 288.273C282.471 288.232 282.542 288.172 282.596 288.098C282.65 288.024 282.687 287.938 282.701 287.847C283.054 283.696 283.931 279.289 283.004 275.158C282.47 272.7 280.776 269.762 277.863 270.323ZM281.986 281.401C281.865 283.441 281.643 285.481 281.593 287.521C280.24 285.376 278.995 283.163 277.863 280.891C277.325 279.783 276.867 278.638 276.492 277.463C275.938 275.648 275.837 269.436 280.141 272.363C282.47 274.036 282.097 278.953 281.986 281.401Z" fill="#263238"/>
<path d="M275.504 298.618C278.629 295.793 280.433 291.703 282.56 288.112C282.782 287.745 282.46 287.357 282.117 287.276C282.118 287.257 282.116 287.237 282.109 287.219C282.103 287.201 282.092 287.185 282.079 287.171C282.065 287.158 282.049 287.147 282.031 287.141C282.014 287.134 281.995 287.131 281.976 287.133C277.644 287.794 273.56 289.595 270.132 292.355C268.116 293.998 266.432 297.2 268.589 299.495C270.747 301.79 273.67 300.271 275.504 298.618ZM271.583 299.118C266.382 299.006 270.031 294.018 271.523 292.855C272.506 292.127 273.537 291.466 274.607 290.876C276.831 289.687 279.116 288.618 281.452 287.674C280.313 289.367 279.325 291.152 278.256 292.886C276.946 294.956 274.446 299.179 271.583 299.118Z" fill="#263238"/>
<path d="M272.783 274.159L239.287 314.326L138.265 241.539L128.306 234.399C128.306 234.399 125.443 236.306 121.139 238.642C115.162 241.896 106.402 245.996 98.6911 247.047C85.7483 248.761 66.2738 248.332 55.5587 233.461C46.4867 220.935 49.6216 204.788 49.6216 204.788L63.8848 198.781C63.8848 198.781 97.7939 170.894 119.547 170.312C128.78 170.047 142.146 177.299 154.504 184.847C166.862 192.395 272.783 274.159 272.783 274.159Z" fill="#263238"/>
<path d="M128.306 234.358C128.306 234.358 125.443 236.266 121.139 238.601C113.69 229.35 97.8847 212.52 97.4008 211.918L128.306 234.358Z" fill="#37474F"/>
<path d="M76.2933 189.488C74.2773 190.876 72.2613 192.344 70.3158 193.772C68.3704 195.2 66.2838 196.486 64.4593 198.016C62.6349 199.546 60.7499 201.239 58.9557 202.922C58.0888 203.728 57.232 204.544 56.3953 205.39C55.5152 206.201 54.6964 207.077 53.9459 208.012C53.8854 208.103 54.0064 208.205 54.0971 208.154C55.047 207.487 55.9528 206.758 56.8086 205.972L59.6411 203.595C61.4656 202.065 63.3203 200.535 65.1448 199.046C66.9693 197.557 68.6224 195.853 70.4166 194.303C72.2109 192.752 74.3377 191.12 76.3537 189.601C76.3537 189.529 76.3538 189.458 76.2933 189.488Z" fill="#37474F"/>
<path d="M262.441 270.293C260.425 272.455 258.53 274.781 256.635 277.066C254.74 279.35 252.844 281.656 250.97 283.971C247.21 288.602 243.43 293.212 239.73 297.894C237.714 300.464 235.698 303.055 233.813 305.738C233.733 305.85 233.924 305.993 234.015 305.891C238.047 301.505 241.746 296.833 245.486 292.202C249.226 287.572 252.986 282.92 256.665 278.239C258.681 275.668 260.757 273.139 262.612 270.425C262.693 270.323 262.521 270.181 262.441 270.293Z" fill="#37474F"/>
<path d="M186.508 276.178C181.377 271.986 169.705 263.785 164.382 259.858C159.06 255.931 153.798 252.014 148.426 248.21C146.884 247.118 145.321 246.047 143.769 244.976C142.216 243.905 140.594 242.936 139.082 241.794C138.991 241.733 138.91 241.886 138.991 241.947C140.392 242.967 141.702 244.15 143.073 245.221C144.444 246.292 145.684 247.261 147.004 248.281C149.585 250.26 152.186 252.198 154.786 254.146C160.048 258.104 165.36 262 170.723 265.835C173.747 267.998 183.161 274.424 186.276 276.484C186.458 276.617 186.679 276.301 186.508 276.178Z" fill="#37474F"/>
<path d="M219.681 233.083C214.944 229.003 204.138 221.17 199.168 217.396C194.199 213.622 189.088 209.735 184.048 205.941L169.09 194.701C164.231 191.059 159.403 187.357 154.272 184.123C151.46 182.348 148.577 180.706 145.613 179.227C142.739 177.688 139.737 176.405 136.642 175.392C136.552 175.392 136.501 175.494 136.582 175.545C139.112 177.014 141.773 178.258 144.343 179.686C146.914 181.114 149.383 182.563 151.823 184.113C156.913 187.326 161.721 190.967 166.55 194.568C176.579 202.055 186.589 209.572 196.689 217.008C202.334 221.088 213.593 229.666 219.47 233.481C219.641 233.512 219.853 233.226 219.681 233.083Z" fill="#37474F"/>
<path d="M302.938 30.386C302.938 30.386 296.316 84.0482 285.429 96.1148C272.325 110.599 262.881 108.477 257.609 115.954C252.327 108.467 242.852 110.599 229.768 96.1046C218.881 84.038 212.279 30.3758 212.279 30.3758C240.957 16.2896 257.639 0.5 257.639 0.5C258.123 1.01 274.704 16.5242 302.938 30.386Z" fill="#FFC727"/>
<path opacity="0.1" d="M257.609 0.550999V115.954C252.327 108.467 242.852 110.599 229.768 96.1046C218.881 84.038 212.279 30.3758 212.279 30.3758C240.957 16.2896 257.639 0.5 257.639 0.5L257.609 0.550999Z" fill="black"/>
<path d="M219.305 34.7108C219.305 34.7108 224.889 80.0396 234.082 90.2396C245.17 102.48 253.153 100.695 257.609 106.998C262.064 100.695 270.078 102.49 281.125 90.2396C290.318 80.0396 295.903 34.7108 295.903 34.7108C271.711 22.8074 257.599 9.4658 257.599 9.4658C257.599 9.4658 243.527 22.8074 219.305 34.7108Z" fill="#FFC727"/>
<path opacity="0.2" d="M295.892 34.7108C295.892 34.7108 290.298 80.0294 281.105 90.2396C270.068 102.48 262.054 100.695 257.599 106.988V9.4862C258.022 9.8942 272.043 22.991 295.892 34.7108Z" fill="white"/>
<path d="M257.599 76.2044C267.408 76.2044 275.36 68.1579 275.36 58.232C275.36 48.3061 267.408 40.2596 257.599 40.2596C247.789 40.2596 239.838 48.3061 239.838 58.232C239.838 68.1579 247.789 76.2044 257.599 76.2044Z" fill="#455A64"/>
<path d="M255.583 69.911L247.67 61.5878L250.603 58.7318L254.968 63.3218L264.362 48.7256L267.779 50.9798L255.583 69.911Z" fill="white"/>
<path d="M295.892 108.069L293.383 108.549L292.818 111.221L292.254 108.549L289.744 108.069L292.244 107.457L292.818 104.928L293.393 107.457L295.892 108.069Z" fill="#FFC727"/>
<path d="M221.492 87.6998L218.982 88.169L218.418 90.8516L217.853 88.169L215.343 87.6998L217.843 87.0776L218.418 84.548L218.992 87.0776L221.492 87.6998Z" fill="#FFC727"/>
<path d="M232.953 17.075L230.443 17.5442L229.879 20.2166L229.324 17.5442L226.804 17.0648L229.314 16.4528L229.879 13.9232L230.453 16.4528L232.953 17.075Z" fill="#FFC727"/>
<path d="M291.397 96.023L289.996 96.2882L289.683 97.7876L289.371 96.2882L287.96 96.023L289.361 95.6762L289.683 94.2584L289.996 95.6762L291.397 96.023Z" fill="#FFC727"/>
<path d="M301.104 66.2084L299.703 66.4736L299.39 67.973L299.078 66.4736L297.667 66.2084L299.068 65.8616L299.39 64.454L299.713 65.8616L301.104 66.2084Z" fill="#FFC727"/>
<path d="M289.189 13.9232L287.788 14.1884L287.476 15.6776L287.153 14.1884L285.752 13.9232L287.153 13.5764L287.476 12.1586L287.788 13.5764L289.189 13.9232Z" fill="#FFC727"/>
<path d="M253.335 122.4L251.934 122.665L251.611 124.155L251.299 122.665L249.897 122.4L251.299 122.053L251.611 120.636L251.934 122.053L253.335 122.4Z" fill="#FFC727"/>
<path d="M213.69 91.1882L212.289 91.4534L211.966 92.9528L211.654 91.4534L210.253 91.1882L211.654 90.8414L211.966 89.4236L212.289 90.8414L213.69 91.1882Z" fill="#FFC727"/>
<path d="M215.877 49.6742L214.466 49.9394L214.154 51.4388L213.841 49.9394L212.44 49.6742L213.831 49.3274L214.154 47.9096L214.476 49.3274L215.877 49.6742Z" fill="#FFC727"/>
<path d="M274.765 102.745C274.668 102.76 274.579 102.81 274.515 102.886C274.451 102.962 274.416 103.058 274.416 103.158C274.416 103.258 274.451 103.354 274.515 103.43C274.579 103.505 274.668 103.555 274.765 103.571C274.862 103.555 274.951 103.505 275.015 103.43C275.079 103.354 275.114 103.258 275.114 103.158C275.114 103.058 275.079 102.962 275.015 102.886C274.951 102.81 274.862 102.76 274.765 102.745Z" fill="#FFC727"/>
<path d="M210.051 28.091C209.954 28.1065 209.865 28.1567 209.801 28.2324C209.737 28.3081 209.702 28.4045 209.702 28.5041C209.702 28.6037 209.737 28.7001 209.801 28.7758C209.865 28.8516 209.954 28.9017 210.051 28.9172C210.148 28.9017 210.237 28.8516 210.301 28.7758C210.365 28.7001 210.4 28.6037 210.4 28.5041C210.4 28.4045 210.365 28.3081 210.301 28.2324C210.237 28.1567 210.148 28.1065 210.051 28.091Z" fill="#FFC727"/>
<path d="M287.476 105.06C287.378 105.076 287.29 105.126 287.226 105.202C287.162 105.277 287.127 105.374 287.127 105.473C287.127 105.573 287.162 105.669 287.226 105.745C287.29 105.821 287.378 105.871 287.476 105.886C287.573 105.871 287.662 105.821 287.725 105.745C287.789 105.669 287.825 105.573 287.825 105.473C287.825 105.374 287.789 105.277 287.725 105.202C287.662 105.126 287.573 105.076 287.476 105.06Z" fill="#FFC727"/>
<path d="M246.259 40.7492C246.152 40.7492 246.049 40.7922 245.973 40.8687C245.898 40.9452 245.855 41.049 245.855 41.1572C245.855 41.2654 245.898 41.3692 245.973 41.4457C246.049 41.5222 246.152 41.5652 246.259 41.5652C246.366 41.5652 246.468 41.5222 246.544 41.4457C246.619 41.3692 246.662 41.2654 246.662 41.1572C246.662 41.049 246.619 40.9452 246.544 40.8687C246.468 40.7922 246.366 40.7492 246.259 40.7492Z" fill="#FFC727"/>
<path d="M208.58 57.3344C208.482 57.3499 208.394 57.4 208.33 57.4758C208.266 57.5515 208.231 57.6479 208.231 57.7475C208.231 57.8471 208.266 57.9435 208.33 58.0192C208.394 58.095 208.482 58.1451 208.58 58.1606C208.677 58.1451 208.765 58.095 208.829 58.0192C208.893 57.9435 208.928 57.8471 208.928 57.7475C208.928 57.6479 208.893 57.5515 208.829 57.4758C208.765 57.4 208.677 57.3499 208.58 57.3344Z" fill="#FFC727"/>
<path d="M199.093 52.8464C199.027 52.8591 198.966 52.8952 198.923 52.9483C198.88 53.0013 198.856 53.0681 198.856 53.1371C198.856 53.2061 198.88 53.2729 198.923 53.3259C198.966 53.379 199.027 53.415 199.093 53.4278C199.16 53.415 199.22 53.379 199.264 53.3259C199.307 53.2729 199.331 53.2061 199.331 53.1371C199.331 53.0681 199.307 53.0013 199.264 52.9483C199.22 52.8952 199.16 52.8591 199.093 52.8464Z" fill="#FFC727"/>
<path d="M276.74 8.5478C276.673 8.56055 276.613 8.59658 276.569 8.64966C276.526 8.70274 276.502 8.76954 276.502 8.8385C276.502 8.90746 276.526 8.97425 276.569 9.02734C276.613 9.08042 276.673 9.11645 276.74 9.1292C276.806 9.11645 276.866 9.08042 276.91 9.02734C276.953 8.97425 276.977 8.90746 276.977 8.8385C276.977 8.76954 276.953 8.70274 276.91 8.64966C276.866 8.59658 276.806 8.56055 276.74 8.5478Z" fill="#FFC727"/>
<path d="M236.561 108.273C236.494 108.286 236.434 108.322 236.39 108.375C236.347 108.428 236.323 108.495 236.323 108.564C236.323 108.633 236.347 108.7 236.39 108.753C236.434 108.806 236.494 108.842 236.561 108.855C236.627 108.842 236.688 108.806 236.731 108.753C236.774 108.7 236.798 108.633 236.798 108.564C236.798 108.495 236.774 108.428 236.731 108.375C236.688 108.322 236.627 108.286 236.561 108.273Z" fill="#FFC727"/>
<path d="M227.56 102.918C227.368 102.94 227.191 103.033 227.063 103.179C226.934 103.325 226.863 103.513 226.863 103.709C226.863 103.904 226.934 104.093 227.063 104.239C227.191 104.384 227.368 104.477 227.56 104.499C227.752 104.477 227.929 104.384 228.058 104.239C228.186 104.093 228.258 103.904 228.258 103.709C228.258 103.513 228.186 103.325 228.058 103.179C227.929 103.033 227.752 102.94 227.56 102.918Z" fill="#FFC727"/>
<path d="M368.114 199.212C368.942 204.945 368.658 210.786 367.278 216.409C366.625 219.012 365.755 221.554 364.677 224.008C363.326 227.16 361.915 230.23 362.248 233.667C362.58 233.892 361.451 233.861 361.411 233.524C352.339 228.282 340.666 227.323 333.671 218.755C330.355 214.675 328.681 209.575 327.885 204.475C327.028 198.875 326.786 192.673 328.218 187.135C329.417 182.473 332.119 177.955 336.443 175.68C340.918 173.324 346.775 173.528 351.492 175.007C361.633 178.169 366.683 189.277 368.114 199.212Z" fill="#008000"/>
<path d="M372.791 267.317C371.541 263.135 370.302 258.943 369.031 254.771C366.542 246.611 363.941 238.451 361.068 230.393C359.355 225.565 357.544 220.788 355.635 216.062C355.845 213.084 356.205 210.119 356.714 207.178C357.48 203.608 358.579 200.16 359.607 196.672C359.667 196.458 359.324 196.345 359.244 196.549C357.228 201.354 354.536 207.504 354.466 213.206C352.248 207.851 349.88 202.578 347.319 197.376C347.031 192.98 347.166 188.566 347.722 184.197C347.722 183.993 347.45 183.932 347.42 184.136C346.639 187.962 346.341 191.872 346.533 195.774C344.577 191.864 342.508 188.009 340.324 184.207C340.122 183.871 339.658 184.207 339.83 184.554C343.25 191.211 346.439 197.991 349.396 204.893C345.206 201.223 340.366 198.392 335.132 196.549C334.911 196.458 334.739 196.794 334.971 196.896C340.679 199.379 345.902 202.875 350.394 207.219C352.531 212.271 354.567 217.371 356.502 222.519C350.807 216.878 343.025 213.165 335.495 211.176C335.243 211.105 335.173 211.503 335.415 211.584C344.134 214.236 350.908 219.234 357.53 225.242C358.296 227.282 359.052 229.393 359.798 231.464C362.6 239.352 365.288 247.284 367.862 255.261C369.079 259.089 370.281 262.917 371.471 266.746C372.741 270.877 373.739 275.232 375.392 279.21C375.543 279.598 376.219 279.506 376.138 279.057C375.221 275.089 374.104 271.17 372.791 267.317Z" fill="#263238"/>
<path d="M357.702 191.154C356.091 193.667 354.978 196.473 354.426 199.416C354.426 199.487 354.536 199.538 354.557 199.416C355.575 196.644 356.763 193.939 358.115 191.317C358.206 191.082 357.863 190.919 357.702 191.154Z" fill="#263238"/>
<path d="M341.483 210.319C338.951 208.907 336.189 207.967 333.328 207.545C333.247 207.545 333.207 207.647 333.278 207.678C334.598 208.228 335.969 208.616 337.31 209.126C338.65 209.636 339.941 210.279 341.291 210.748C341.319 210.761 341.349 210.768 341.38 210.769C341.41 210.77 341.441 210.764 341.469 210.754C341.498 210.743 341.524 210.726 341.546 210.705C341.568 210.684 341.586 210.659 341.599 210.63C341.611 210.602 341.618 210.572 341.619 210.541C341.62 210.51 341.615 210.48 341.604 210.451C341.594 210.422 341.577 210.395 341.557 210.373C341.536 210.35 341.511 210.332 341.483 210.319Z" fill="#263238"/>
<path d="M336.917 187.237C336.096 186.602 335.215 186.051 334.286 185.595C334.255 185.582 334.222 185.581 334.191 185.591C334.16 185.601 334.133 185.621 334.115 185.649C334.097 185.677 334.089 185.71 334.093 185.743C334.097 185.776 334.111 185.806 334.135 185.829C334.943 186.475 335.81 187.042 336.725 187.522C336.896 187.655 337.038 187.369 336.917 187.237Z" fill="#263238"/>
<path d="M398.767 230.454C392.226 232.423 385.663 234.238 379.091 236.187C378.527 236.36 367.459 214.889 371.451 203.832C375.15 193.632 383.617 185.941 393.717 182.463C398.384 180.862 404.14 179.505 409.079 180.607C413.464 181.627 416.569 185.227 418 189.409C419.946 195.091 419.29 201.864 418.232 207.667C417.395 213.115 415.175 218.249 411.791 222.57C408.313 226.752 403.878 228.924 398.767 230.454Z" fill="#008000"/>
<path d="M408.263 210.054C404.123 212.096 399.828 213.801 395.421 215.154C392.483 215.953 389.617 217 386.853 218.286C389.615 212.053 392.659 205.944 395.875 199.926C400.108 198.681 404.553 196.753 407.749 193.724C407.767 193.708 407.783 193.688 407.794 193.666C407.805 193.644 407.811 193.62 407.813 193.596C407.815 193.571 407.812 193.546 407.804 193.523C407.797 193.499 407.785 193.478 407.769 193.459C407.753 193.44 407.734 193.425 407.712 193.413C407.69 193.402 407.666 193.396 407.642 193.394C407.618 193.392 407.593 193.395 407.57 193.402C407.547 193.41 407.525 193.422 407.507 193.438C404.019 195.937 400.169 197.437 396.308 199.12C397.185 197.498 398.062 195.866 398.959 194.244C399.201 193.795 398.586 193.347 398.294 193.785C394.85 198.841 391.742 204.123 388.99 209.595C388.281 204.803 388.054 199.95 388.315 195.111C388.308 195.091 388.295 195.073 388.278 195.06C388.261 195.048 388.24 195.041 388.219 195.041C388.198 195.041 388.177 195.048 388.16 195.06C388.142 195.073 388.13 195.091 388.123 195.111C387.305 200.391 387.359 205.772 388.284 211.033C385.986 215.674 383.889 220.428 382.015 225.232C381.269 222.345 380.301 219.499 379.646 216.582C378.656 212.411 378.339 208.106 378.708 203.832C378.702 203.812 378.689 203.794 378.672 203.781C378.654 203.769 378.634 203.762 378.613 203.762C378.591 203.762 378.571 203.769 378.553 203.781C378.536 203.794 378.523 203.812 378.517 203.832C377.35 211.761 378.3 219.86 381.269 227.292C380.17 230.189 379.132 233.096 378.174 236.003C373.24 250.863 370.318 266.331 369.485 281.985C369.485 282.058 369.514 282.128 369.565 282.179C369.616 282.231 369.685 282.26 369.757 282.26C369.829 282.26 369.899 282.231 369.95 282.179C370.001 282.128 370.029 282.058 370.029 281.985C371.749 266.541 375.021 251.315 379.797 236.544C381.692 230.77 383.879 225.16 386.278 219.652C390.139 218.5 394 216.929 397.8 215.572C401.6 214.216 405.299 212.767 408.414 210.299C408.535 210.187 408.404 209.983 408.263 210.054Z" fill="#263238"/>
<path d="M414.371 203.822C410.339 205.26 406.569 207.28 402.568 208.738C402.386 208.81 402.487 209.106 402.679 209.075C406.912 208.188 411.115 206.862 414.523 204.057C414.654 203.944 414.512 203.771 414.371 203.822Z" fill="#263238"/>
<path d="M381.672 195.081C381.722 194.866 381.41 194.744 381.339 194.958C380.24 198.691 379.484 202.659 380.553 206.474C380.553 206.627 380.825 206.637 380.835 206.474C381.027 202.608 380.815 198.865 381.672 195.081Z" fill="#263238"/>
<path d="M398.213 186.451C396.934 188.303 396.322 190.542 396.479 192.796C396.479 192.939 396.711 193.03 396.751 192.857C397.235 190.725 398.052 188.777 398.697 186.737C398.734 186.672 398.745 186.595 398.726 186.522C398.707 186.449 398.66 186.387 398.596 186.349C398.532 186.312 398.456 186.301 398.384 186.32C398.312 186.339 398.251 186.386 398.213 186.451Z" fill="#263238"/>
<path d="M320.91 239.92C322.835 246.091 327.391 254.608 334.618 254.679C339.296 254.679 344.013 254.159 348.73 254.098C353.77 254.016 358.81 254.026 363.85 254.332C364.264 254.332 363.246 239.104 351.17 231.668C347.783 229.628 343.64 228.934 339.8 228.088C335.402 227.036 330.89 226.56 326.373 226.67C323.601 226.782 321.333 227.384 320.325 230.26C319.317 233.137 319.962 236.992 320.91 239.92Z" fill="#008000"/>
<path d="M326.081 232.209C329.014 232.974 331.977 233.851 334.921 234.799C334.154 233.954 333.343 233.15 332.491 232.392C331.221 231.372 329.83 230.475 328.459 229.546C328.349 229.465 328.46 229.251 328.56 229.302C331.419 230.506 333.887 232.495 335.687 235.044C339.356 236.238 342.995 237.564 346.503 239.022C348.917 240.026 351.233 241.259 353.418 242.704C352.717 241.162 351.881 239.688 350.918 238.298C349.315 236.197 347.138 235.024 345.041 233.535C345.009 233.505 344.987 233.464 344.981 233.42C344.974 233.376 344.983 233.331 345.005 233.292C345.028 233.254 345.063 233.225 345.104 233.209C345.146 233.194 345.191 233.194 345.233 233.208C347.427 234.173 349.399 235.59 351.022 237.369C352.644 239.148 353.883 241.25 354.657 243.541C357.175 245.368 359.475 247.483 361.512 249.844C369.505 259.024 375.795 271.264 375.815 283.729C375.815 284.025 375.352 284.106 375.291 283.8C373.238 271.571 367.974 260.125 360.05 250.66C359.476 249.987 358.891 249.345 358.286 248.722C356.098 248.421 353.893 248.258 351.684 248.233C349.113 248.233 346.563 248.61 344.003 248.824C339.779 249.171 335.122 249.222 331.312 247.07C331.151 246.978 331.262 246.682 331.453 246.754C339.931 249.875 348.821 245.907 357.329 247.774C353.694 244.278 349.44 241.51 344.789 239.614L344.013 239.298C338.57 239.961 332.824 241.389 327.522 239.604C327.493 239.592 327.469 239.57 327.455 239.541C327.44 239.513 327.437 239.481 327.444 239.45C327.451 239.419 327.469 239.392 327.495 239.373C327.52 239.355 327.551 239.346 327.583 239.349C332.713 240.644 337.663 239.012 342.703 238.757C337.199 236.584 331.615 234.861 326.071 232.708C325.587 232.504 325.577 232.117 326.081 232.209Z" fill="#263238"/>
<path d="M323.672 237.635C326.3 237.978 328.945 238.179 331.594 238.237C331.655 238.237 331.675 238.339 331.594 238.349C328.929 238.844 326.184 238.669 323.601 237.839C323.588 237.834 323.576 237.827 323.565 237.818C323.555 237.808 323.546 237.797 323.54 237.784C323.534 237.771 323.53 237.757 323.53 237.743C323.529 237.729 323.531 237.715 323.535 237.701C323.54 237.688 323.547 237.676 323.557 237.665C323.566 237.654 323.577 237.646 323.59 237.64C323.603 237.634 323.616 237.63 323.63 237.629C323.644 237.628 323.658 237.63 323.672 237.635Z" fill="#263238"/>
<path d="M341.574 232.341C343.039 233.009 344.368 233.946 345.495 235.105C345.626 235.228 345.444 235.473 345.293 235.36C344.628 234.871 343.942 234.412 343.277 233.963C342.615 233.595 341.975 233.186 341.362 232.739C341.16 232.586 341.352 232.27 341.574 232.341Z" fill="#263238"/>
<path d="M384.232 252.19C384.141 252.394 384.434 252.588 384.545 252.374C384.567 252.406 384.595 252.434 384.628 252.455C384.661 252.476 384.698 252.49 384.736 252.496C389.611 253.67 394.553 254.536 399.534 255.087C403.566 255.454 408.132 255.679 411.63 253.333C416.367 250.15 419.482 241.654 416.922 236.248C413.898 229.832 404.755 233.32 400.179 235.595C393.109 239.07 387.466 244.942 384.232 252.19Z" fill="#008000"/>
<path d="M380.684 255.159C383.352 252.553 386.312 250.273 389.504 248.365C391.802 244.697 394.846 241.568 398.435 239.185C398.616 239.063 398.757 239.338 398.606 239.461C395.751 241.758 393.215 244.434 391.066 247.417C394.635 245.446 398.341 243.741 402.154 242.317C403.517 239.769 405.584 237.678 408.102 236.299C408.102 236.299 408.212 236.299 408.162 236.38C406.083 237.973 404.272 239.895 402.799 242.072C405.037 241.225 407.315 240.44 409.583 239.675C409.785 239.614 409.855 239.92 409.664 240.001C405.632 241.593 401.499 243.276 397.497 245.224C402.382 245.992 407.355 245.975 412.234 245.173C412.365 245.173 412.426 245.346 412.295 245.387C407.202 246.907 401.796 246.988 396.661 245.622C394.111 246.879 391.634 248.283 389.242 249.824C391.255 249.661 393.28 249.83 395.239 250.324C398.693 251.137 402.228 251.541 405.773 251.527C405.805 251.527 405.836 251.54 405.859 251.563C405.881 251.586 405.894 251.617 405.894 251.65C405.894 251.682 405.881 251.713 405.859 251.736C405.836 251.759 405.805 251.772 405.773 251.772C399.665 252.792 393.889 250.028 387.831 250.752C385.585 252.301 383.477 254.045 381.531 255.964C377.749 259.797 374.634 264.25 372.318 269.133C369.767 274.386 368.386 279.945 366.33 285.371C366.317 285.421 366.284 285.464 366.24 285.489C366.195 285.515 366.143 285.522 366.093 285.509C366.044 285.495 366.002 285.462 365.976 285.417C365.951 285.372 365.944 285.319 365.957 285.269C367.731 274.579 372.993 262.778 380.684 255.159Z" fill="#263238"/>
<path d="M399.11 240.491C399.513 239.762 400.042 239.113 400.673 238.573C401.186 238.01 401.798 237.546 402.477 237.207C402.49 237.202 402.504 237.203 402.516 237.208C402.529 237.213 402.54 237.222 402.547 237.234C402.554 237.245 402.557 237.259 402.555 237.273C402.553 237.286 402.547 237.299 402.537 237.309C402.033 237.89 401.338 238.329 400.804 238.859C400.269 239.389 399.796 240.063 399.251 240.603C399.181 240.685 399.07 240.583 399.11 240.491Z" fill="#263238"/>
<path d="M409.19 243.816C410.087 243.582 411.055 243.602 411.972 243.408C412.89 243.214 413.767 242.878 414.674 242.592C414.699 242.588 414.725 242.592 414.747 242.605C414.769 242.617 414.787 242.637 414.796 242.661C414.806 242.685 414.807 242.711 414.799 242.736C414.791 242.761 414.776 242.782 414.754 242.796C413.09 243.833 411.136 244.292 409.19 244.102C409.153 244.102 409.117 244.087 409.09 244.06C409.064 244.033 409.049 243.997 409.049 243.959C409.049 243.921 409.064 243.885 409.09 243.858C409.117 243.831 409.153 243.816 409.19 243.816Z" fill="#263238"/>
<path d="M355.514 272.091L356.321 281.301L359.042 312.411H383.113L386.52 281.301L387.518 272.091H355.514Z" fill="#37474F"/>
<path d="M355.514 272.091L356.321 281.301H386.52L387.518 272.091H355.514Z" fill="#263238"/>
<path d="M353.135 277.048H389.907V269.571H353.135V277.048Z" fill="#37474F"/>
</svg>
