<svg width="83" height="26" viewBox="0 0 83 26" fill="none" xmlns="http://www.w3.org/2000/svg">
<path d="M8.31188 19.4298H3.76551L2.65965 22.4583H0.657541L5.10991 11.1106H6.9964L11.5428 22.4583H9.44658L8.31188 19.4298ZM4.34375 17.8904H7.73364L6.51939 14.6379C6.35316 14.1897 6.18693 13.691 6.02061 13.1489C5.87605 13.631 5.71705 14.1128 5.54361 14.5945L4.34375 17.8904Z" fill="#1A1C1F"/>
<path d="M12.4462 16.0833C12.4462 15.4617 12.4462 14.7678 12.3812 14.0161H14.2026C14.2706 14.3719 14.3165 14.7316 14.34 15.0931C14.6561 14.7126 15.0513 14.4055 15.4982 14.1933C15.9451 13.9811 16.4329 13.8689 16.9275 13.8644C17.4773 13.8604 18.0174 14.0079 18.4888 14.2908C19.0022 14.6128 19.4075 15.081 19.6525 15.6352C19.9682 16.3719 20.1187 17.1688 20.0934 17.9698C20.116 18.8403 19.943 19.7048 19.5874 20.4996C19.2779 21.164 18.7738 21.7185 18.1419 22.0897C17.5065 22.4602 16.781 22.6478 16.0457 22.6318C15.4671 22.6333 14.8926 22.5355 14.3471 22.3427V25.8338L12.4101 26L12.4462 16.0833ZM17.5058 20.4201C17.9496 19.7384 18.1671 18.9341 18.1274 18.1216C18.1852 17.4003 18.0132 16.6792 17.6359 16.0616C17.487 15.858 17.2907 15.6936 17.064 15.5828C16.8374 15.472 16.5871 15.4181 16.3349 15.4256C15.9681 15.4205 15.6064 15.5128 15.2868 15.693C14.9497 15.8853 14.6448 16.1293 14.3833 16.4161V20.948C14.5979 21.0486 14.8235 21.1238 15.0555 21.1721C15.2935 21.2213 15.5356 21.2479 15.7786 21.2516C16.1085 21.2696 16.4377 21.2065 16.7375 21.0679C17.0374 20.9293 17.2987 20.7194 17.4988 20.4566" fill="#1A1C1F"/>
<path d="M21.3366 16.0833C21.3366 15.4617 21.3366 14.7678 21.2716 14.0161H23.0934C23.1614 14.3719 23.2072 14.7316 23.2307 15.0931C23.5468 14.7126 23.9421 14.4055 24.389 14.1933C24.8359 13.9811 25.3236 13.8689 25.8183 13.8644C26.3703 13.8592 26.913 14.0068 27.3864 14.2908C27.8998 14.6128 28.3051 15.081 28.5501 15.6352C28.8658 16.3719 29.0163 17.1688 28.9909 17.9698C29.0135 18.8403 28.8406 19.7048 28.485 20.4996C28.1755 21.164 27.6714 21.7185 27.0394 22.0897C26.4038 22.4595 25.6785 22.647 24.9433 22.6318C24.3647 22.6333 23.7902 22.5355 23.2447 22.3427V25.8338L21.3076 26L21.3366 16.0833ZM26.3961 20.4201C26.8399 19.7384 27.0575 18.9341 27.0178 18.1216C27.0756 17.4003 26.9035 16.6791 26.5262 16.0616C26.3773 15.858 26.181 15.6936 25.9543 15.5828C25.7276 15.472 25.4774 15.4181 25.2252 15.4256C24.8583 15.4205 24.4967 15.5128 24.1771 15.693C23.8399 15.8853 23.5351 16.1293 23.2736 16.4161V20.948C23.4882 21.0486 23.7138 21.1238 23.9458 21.1721C24.1838 21.2213 24.4259 21.2479 24.6689 21.2516C25.0116 21.2725 25.354 21.2058 25.6639 21.0579C25.9737 20.9099 26.2408 20.6856 26.4401 20.4059" fill="#1A1C1F"/>
<path d="M32.6411 21.9307C31.8131 21.4798 31.1405 20.7896 30.7112 19.9503C30.2493 18.9989 30.0237 17.9501 30.0535 16.8929C30.0196 15.7617 30.2865 14.6418 30.8269 13.6475C31.3166 12.7761 32.0535 12.0693 32.9446 11.6163C33.8789 11.1638 34.9061 10.9361 35.9442 10.9513C36.5722 10.9487 37.1983 11.0215 37.809 11.1682C38.3805 11.302 38.9356 11.4984 39.4642 11.7536L38.9727 13.2426C38.0587 12.7842 37.0533 12.537 36.0309 12.5195C35.3072 12.5046 34.5922 12.679 33.9565 13.0254C33.3489 13.365 32.8596 13.8822 32.5543 14.5079C32.2029 15.245 32.0319 16.0551 32.0556 16.8713C32.0418 17.6121 32.1719 18.3485 32.4387 19.0397C32.6833 19.6517 33.1128 20.1721 33.6674 20.5283C34.2832 20.9143 35.0011 21.1058 35.7273 21.0776C36.105 21.075 36.482 21.0436 36.8549 20.9836C37.216 20.9212 37.5713 20.8293 37.9174 20.709V18.4105H35.2937V16.9074H39.7967V21.6848C39.1421 21.9968 38.4565 22.2392 37.7512 22.4079C37.0538 22.5656 36.3412 22.6456 35.6262 22.6463C34.595 22.6635 33.5768 22.4144 32.67 21.9232" fill="#1A1C1F"/>
<path d="M46.7355 22.4583C46.6657 22.0909 46.6223 21.7189 46.6055 21.3452C46.2798 21.719 45.8846 22.0258 45.4418 22.2487C44.9396 22.5 44.3842 22.6265 43.8227 22.6173C43.364 22.6227 42.9099 22.5264 42.4928 22.3355C42.0968 22.1486 41.7667 21.8463 41.546 21.4682C41.2981 21.0435 41.1753 20.5574 41.1917 20.0659C41.1814 19.6961 41.2555 19.3289 41.4083 18.992C41.5611 18.6551 41.7886 18.3574 42.0736 18.1216C42.9514 17.5592 43.9914 17.3048 45.0298 17.3985C45.5425 17.3981 46.0546 17.4343 46.5621 17.5069V17.3263C46.6184 16.7563 46.4469 16.1872 46.085 15.7433C45.707 15.4182 45.2164 15.2547 44.719 15.2879C44.2722 15.2914 43.8277 15.3521 43.3963 15.4686C42.9687 15.5688 42.5522 15.7116 42.1532 15.8951L41.8497 14.4495C42.2909 14.2654 42.7482 14.1227 43.2158 14.0231C43.8015 13.8905 44.4004 13.8251 45.001 13.8281C45.6365 13.809 46.2691 13.9222 46.8586 14.1605C47.3821 14.3856 47.8078 14.7907 48.0584 15.3025C48.3753 15.9799 48.5241 16.7238 48.4921 17.471V20.8249C48.4921 21.179 48.4921 21.7066 48.5571 22.415L46.7355 22.4583ZM45.579 20.8972C45.9514 20.7236 46.2855 20.4778 46.5621 20.1741V18.6131C46.1351 18.5617 45.7056 18.5328 45.2755 18.5264C44.6935 18.4685 44.1087 18.6057 43.6131 18.9163C43.4629 19.0452 43.3439 19.2065 43.2651 19.3881C43.1863 19.5696 43.1497 19.7667 43.1581 19.9644C43.1441 20.1335 43.1665 20.3035 43.2239 20.4631C43.2812 20.6227 43.3722 20.7682 43.4905 20.8896C43.7417 21.1027 44.0651 21.2114 44.394 21.1932C44.8056 21.1852 45.2104 21.0865 45.5794 20.9041" fill="#1A1C1F"/>
<path d="M50.1832 20.4418V10.4528L52.113 10.301V20.0948C52.0877 20.3631 52.1511 20.6323 52.2937 20.861C52.3682 20.9399 52.4595 21.001 52.5609 21.0398C52.6623 21.0786 52.771 21.0941 52.8792 21.0851C53.0507 21.0763 53.2205 21.0472 53.3851 20.9983L53.6164 22.3861C53.3987 22.4661 53.1735 22.5242 52.9443 22.5596C52.7053 22.6003 52.4635 22.622 52.2212 22.6246C50.884 22.6246 50.2118 21.9015 50.2118 20.4562" fill="#1A1C1F"/>
<path d="M54.997 20.4418V10.4528L56.9269 10.301V20.0948C56.9014 20.3631 56.9649 20.6324 57.1075 20.861C57.1821 20.9399 57.2734 21.001 57.3747 21.0398C57.476 21.0786 57.5848 21.0941 57.6929 21.0851C57.8784 21.0845 58.063 21.0602 58.2423 21.0128L58.4663 22.4006C58.2492 22.4824 58.0238 22.5406 57.7942 22.574C57.5552 22.6148 57.3134 22.6366 57.0711 22.639C55.7266 22.639 55.0544 21.9163 55.0545 20.4707" fill="#1A1C1F"/>
<path d="M66.4532 18.4902H60.9238C61.0105 20.2635 61.8538 21.1477 63.4536 21.1429C63.8627 21.144 64.2705 21.0954 64.6679 20.9983C65.0761 20.9067 65.4753 20.7785 65.8605 20.6152L66.287 21.9379C65.2907 22.4066 64.2004 22.6415 63.0995 22.6246C62.3123 22.6513 61.5312 22.4772 60.8299 22.1186C60.2243 21.7957 59.7361 21.2898 59.4349 20.6731C59.1067 19.9498 58.9485 19.161 58.9723 18.3671C58.9519 17.538 59.1199 16.715 59.4638 15.9602C59.761 15.3219 60.2383 14.7843 60.8369 14.4134C61.4524 14.0537 62.1553 13.8711 62.8681 13.8858C63.5478 13.8486 64.2221 14.0261 64.7954 14.3932C65.3688 14.7603 65.8121 15.2984 66.0628 15.9313C66.3291 16.585 66.4617 17.2855 66.4528 17.9913L66.4532 18.4902ZM64.5595 17.2615C64.5677 16.7128 64.3893 16.1777 64.0536 15.7436C63.8999 15.5764 63.7117 15.4445 63.502 15.3572C63.2924 15.2698 63.0662 15.2291 62.8392 15.2377C62.611 15.2322 62.3841 15.2751 62.1736 15.3636C61.9631 15.452 61.7736 15.584 61.6178 15.7509C61.2494 16.174 61.0242 16.7027 60.9744 17.2615H64.5595Z" fill="#1A1C1F"/>
<path d="M68.0071 16.1409C68.0071 15.6783 68.0071 14.97 67.9492 14.0159H69.7562C69.7851 14.252 69.814 14.5339 69.8429 14.8616C69.8429 15.1866 69.8936 15.4543 69.9079 15.6566C70.1004 15.3254 70.3205 15.011 70.566 14.717C70.769 14.4712 71.0138 14.2632 71.2891 14.1027C71.5935 13.94 71.9344 13.8579 72.2794 13.8641C72.5404 13.8584 72.8008 13.89 73.0528 13.9581L72.807 15.6278C72.6018 15.5738 72.3904 15.547 72.1782 15.5482C71.7568 15.5389 71.3428 15.6601 70.9928 15.8952C70.5664 16.2134 70.1973 16.6021 69.9014 17.0444V22.4581H67.9716L68.0071 16.1409Z" fill="#1A1C1F"/>
<path d="M74.2449 25.9278C74.0004 25.8887 73.7589 25.8332 73.5218 25.7615L73.8688 24.3159C73.9988 24.3521 74.1652 24.3809 74.3675 24.4171C74.5535 24.4512 74.7422 24.4682 74.9313 24.4678C75.7844 24.4678 76.4275 23.9184 76.854 22.8197L76.984 22.5017L73.8618 13.9797H75.9362L77.5043 18.743C77.7099 19.3552 77.8741 19.9807 77.9957 20.615C78.1476 20.0006 78.3138 19.3935 78.5162 18.7864L80.1063 13.9797H82.094L78.986 22.5449C78.7485 23.234 78.4281 23.8917 78.0319 24.5036C77.7313 24.9653 77.3185 25.3433 76.8321 25.6023C76.3138 25.8583 75.7403 25.9824 75.1625 25.9637C74.8573 25.9665 74.5525 25.9423 74.2517 25.8914" fill="#1A1C1F"/>
<path d="M0.650391 0.0807229H4.13429L4.04004 0.92651H1.66924V2.55309H3.90273V3.34769H1.66924V5.15463H4.17004L4.08391 6.00042H0.650391V0.0807229Z" fill="#1A1C1F"/>
<path d="M6.54084 2.97882L4.70546 0.0807229H5.86161L7.11201 2.21266L8.42741 0.0807229H9.55513L7.72625 2.94307L9.70706 6.00042H8.52897L7.11932 3.67268L5.68124 6.00042H4.55352L6.54084 2.97882Z" fill="#1A1C1F"/>
<path d="M10.4586 0.0517985H12.0559C12.6636 0.0128606 13.2674 0.172705 13.7762 0.507191C13.9742 0.665255 14.1314 0.868543 14.2345 1.09997C14.3377 1.3314 14.3837 1.5842 14.3689 1.83713C14.3785 2.19767 14.2858 2.55355 14.1014 2.86353C13.933 3.1548 13.6811 3.38892 13.3783 3.53569C13.0357 3.6998 12.6595 3.78149 12.2797 3.77424C12.0177 3.76926 11.7566 3.74266 11.4991 3.6947V5.9715H10.4586V0.0517985ZM13.0245 2.69722C13.1363 2.58945 13.2233 2.45862 13.2794 2.31384C13.3355 2.16906 13.3594 2.01379 13.3495 1.85883C13.3622 1.71034 13.3385 1.561 13.2806 1.42369C13.2227 1.28638 13.1322 1.16524 13.017 1.07072C12.7215 0.89236 12.3783 0.80909 12.0339 0.832182H11.4774V2.94275C11.6731 2.97955 11.8714 3.00128 12.0705 3.00775C12.4142 3.03011 12.754 2.92454 13.0246 2.71136" fill="#1A1C1F"/>
<path d="M15.3806 0.0807229H16.4002V5.1262H18.8498L18.771 6.00042H15.3806V0.0807229Z" fill="#1A1C1F"/>
<path d="M20.4041 5.71126C19.9777 5.47072 19.6329 5.1083 19.4139 4.67048C19.1743 4.18299 19.0553 3.64507 19.0669 3.10199C19.0584 2.54522 19.1849 1.99467 19.4356 1.49744C19.6692 1.03741 20.0373 0.659301 20.4908 0.413269C20.9834 0.138827 21.5388 -0.00313185 22.1027 0.00126272C22.6394 -0.0141937 23.1707 0.113005 23.6422 0.369883C24.0687 0.610419 24.4135 0.972874 24.6325 1.41075C24.8705 1.88645 24.9943 2.41114 24.994 2.94308C25.0091 3.51756 24.8799 4.08667 24.6181 4.59825C24.3842 5.06842 24.0105 5.45468 23.5484 5.70403C23.0554 5.96753 22.5027 6.09946 21.9438 6.08711C21.404 6.10199 20.8699 5.97222 20.397 5.71126H20.4041ZM23.0497 4.98816C23.3385 4.79314 23.5625 4.51627 23.6929 4.19307C23.8413 3.82603 23.9126 3.43243 23.9026 3.03667C23.9116 2.64997 23.8479 2.26502 23.7146 1.90189C23.6007 1.58175 23.3913 1.30426 23.1147 1.1068C22.884 0.961293 22.6251 0.866489 22.355 0.828669C22.0849 0.790849 21.8098 0.810879 21.548 0.88743C21.2863 0.963981 21.0438 1.09531 20.8366 1.27269C20.6294 1.45008 20.4624 1.66948 20.3464 1.91635C20.1985 2.26857 20.1247 2.64746 20.1296 3.02944C20.126 3.4217 20.1946 3.81127 20.332 4.17869C20.4569 4.50281 20.6759 4.78219 20.9608 4.98093C21.2687 5.18503 21.6324 5.28859 22.0016 5.27732C22.3718 5.28627 22.7364 5.18567 23.0497 4.98816Z" fill="#1A1C1F"/>
<path d="M26.1287 0.0517985H27.9791C28.5203 0.0159941 29.0584 0.158141 29.5114 0.456574C29.6842 0.593744 29.8217 0.770326 29.9123 0.971535C30.0028 1.17274 30.0439 1.39272 30.032 1.61305C30.0371 1.88189 29.9813 2.1484 29.8686 2.39253C29.7559 2.63667 29.5894 2.85207 29.3814 3.02254C29.2108 3.16601 29.0179 3.28075 28.8104 3.36223L30.6319 5.9715H29.4388L27.8848 3.66577H27.1617V6.00765H26.1287V0.0517985ZM27.7261 2.8563C27.9538 2.86058 28.1793 2.81103 28.3842 2.71168C28.5685 2.61803 28.7235 2.47553 28.8323 2.29976C28.9422 2.11409 28.9974 1.90107 28.9913 1.68536C29.0041 1.56185 28.9849 1.43712 28.9355 1.32317C28.8862 1.20923 28.8083 1.10992 28.7094 1.03481C28.4593 0.89304 28.1714 0.832427 27.8854 0.86135H27.1623V2.88515L27.7261 2.8563Z" fill="#1A1C1F"/>
<path d="M31.4416 0.0807229H34.9247L34.8312 0.92651H32.4604V2.55309H34.6939V3.34769H32.4604V5.15463H34.9539L34.867 6.00042H31.4416V0.0807229Z" fill="#1A1C1F"/>
<path d="M39.7388 0.0807229H38.7197V6.00042H39.7388V0.0807229Z" fill="#1A1C1F"/>
<path d="M42.449 0.933823H40.6136L40.7006 0.0807229H45.3114L45.2179 0.933823H43.4687V6.00042H42.449V0.933823Z" fill="#1A1C1F"/>
<path d="M49.7495 5.71126C49.321 5.47114 48.9738 5.10881 48.7521 4.67048C48.5181 4.1813 48.4017 3.64416 48.4123 3.10199C48.4003 2.53643 48.5243 1.97624 48.7737 1.46851C49.0096 1.01004 49.3771 0.632504 49.829 0.384345C50.3286 0.117533 50.8891 -0.0144987 51.4553 0.00126264C51.9943 -0.0134032 52.5277 0.113708 53.0021 0.369883C53.4264 0.610859 53.7688 0.973353 53.9852 1.41066C54.219 1.89476 54.3355 2.42717 54.325 2.96469C54.3388 3.5382 54.2122 4.1064 53.9564 4.61986C53.7205 5.07832 53.353 5.45585 52.901 5.70403C52.4054 5.96749 51.8504 6.09939 51.2892 6.08711C50.7516 6.10214 50.2197 5.97232 49.7495 5.71126ZM52.3951 4.98816C52.6858 4.79517 52.9103 4.51766 53.0383 4.19307C53.1892 3.82655 53.263 3.43293 53.2552 3.03667C53.2607 2.65024 53.197 2.26593 53.0673 1.90189C52.9509 1.58306 52.742 1.30622 52.4673 1.1068C52.1515 0.896374 51.7767 0.792514 51.3976 0.810407C51.0335 0.794066 50.6734 0.891865 50.3676 1.09014C50.0618 1.28842 49.8255 1.57727 49.6918 1.91635C49.5439 2.26857 49.4701 2.64746 49.475 3.02944C49.47 3.42246 49.5412 3.81272 49.6846 4.17869C49.8068 4.50232 50.0234 4.7818 50.3062 4.98093C50.6164 5.18606 50.9827 5.28964 51.3543 5.27732C51.7224 5.28748 52.085 5.18673 52.3951 4.98816Z" fill="#1A1C1F"/>
<path d="M55.4668 0.0517986H56.6377L59.565 4.64156C59.565 4.20786 59.5289 3.80316 59.5289 3.43446V0.0517986H60.483V5.9715H59.341L56.3703 1.30951C56.3703 1.84436 56.4136 2.30691 56.4136 2.75507V6.00765H55.4668V0.0517986Z" fill="#1A1C1F"/>
</svg>
