<svg width="140" height="48" viewBox="0 0 140 48" fill="none" xmlns="http://www.w3.org/2000/svg">
<rect width="140" height="48" rx="6" fill="white"/>
<path fill-rule="evenodd" clip-rule="evenodd" d="M33.3602 12.6801C33.4697 14.1106 33.0173 15.5274 32.0991 16.6298C31.2082 17.7378 29.8583 18.3761 28.4366 18.3614C28.3462 16.9721 28.8117 15.6038 29.7307 14.5579C30.6614 13.4979 31.9573 12.8274 33.3602 12.6801ZM37.8563 21.0854C36.2208 22.0908 35.2145 23.8639 35.1898 25.7835C35.1921 27.9553 36.4927 29.9153 38.4929 30.7613C38.1082 32.011 37.5284 33.1919 36.7748 34.2605C35.7628 35.7744 34.7017 37.2534 33.0176 37.2807C32.2166 37.2992 31.6759 37.0689 31.1125 36.8289C30.5249 36.5785 29.9125 36.3177 28.9543 36.3177C27.938 36.3177 27.2982 36.5869 26.6812 36.8466C26.1479 37.071 25.6317 37.2883 24.9041 37.3185C23.3002 37.3779 22.0745 35.7027 21.0257 34.2031C18.9294 31.1404 17.2971 25.5722 19.4854 21.7834C20.5131 19.9368 22.4345 18.765 24.5466 18.6967C25.4563 18.678 26.3292 19.0286 27.0944 19.336C27.6797 19.5711 28.202 19.7809 28.6297 19.7809C29.0057 19.7809 29.5135 19.5794 30.1052 19.3445C31.0374 18.9746 32.1779 18.5219 33.3402 18.6439C35.1462 18.7004 36.8199 19.6052 37.8563 21.0854Z" fill="#1A1C1F"/>
<path fill-rule="evenodd" clip-rule="evenodd" d="M69.916 11.5107H70.8047V17.7715H69.916V11.5107ZM50.754 12.6225C50.2101 12.0482 49.4374 11.748 48.6484 11.8046H46.4932V17.7715H48.6484C50.4258 17.7715 51.4561 16.6757 51.4561 14.7695C51.5555 13.9848 51.2979 13.1968 50.754 12.6225ZM48.5449 16.9277H47.4199V12.648H48.5449C49.1057 12.6168 49.6511 12.838 50.0319 13.2509C50.4127 13.6638 50.589 14.2253 50.5127 14.7817C50.595 15.3405 50.4212 15.9067 50.0395 16.323C49.6577 16.7393 49.1087 16.9614 48.5449 16.9277ZM52.5029 15.5181C52.4257 14.711 52.8127 13.9299 53.5017 13.5023C54.1906 13.0748 55.0623 13.0748 55.7513 13.5023C56.4402 13.9299 56.8272 14.711 56.75 15.5181C56.8287 16.3261 56.442 17.1087 55.7525 17.5371C55.0629 17.9656 54.19 17.9656 53.5004 17.5371C52.8109 17.1087 52.4242 16.3261 52.5029 15.5181ZM54.6279 13.9712C55.3974 13.9712 55.8359 14.542 55.8359 15.5181C55.8359 16.4981 55.3975 17.0684 54.6279 17.0684C53.8555 17.0684 53.4209 16.502 53.4209 15.5181C53.4209 14.542 53.8555 13.9712 54.6279 13.9712ZM62.3955 17.7715H61.4736L60.543 14.4551H60.4727L59.5459 17.7715H58.6328L57.3916 13.2686H58.293L59.0996 16.7046H59.166L60.0918 13.2686H60.9443L61.8701 16.7046H61.9404L62.7432 13.2686H63.6318L62.3955 17.7715ZM65.5312 13.2686H64.6758L64.6758 17.7715H65.5644V15.1372C65.5326 14.8375 65.6331 14.5389 65.8398 14.3196C66.0465 14.1002 66.3386 13.9821 66.6396 13.9961C67.2969 13.9961 67.6113 14.356 67.6113 15.0796V17.7714H68.5V14.8564C68.5651 14.4162 68.4265 13.9702 68.1233 13.6443C67.8201 13.3185 67.3852 13.1483 66.9414 13.1816C66.3682 13.135 65.8286 13.4572 65.5977 13.9839H65.5312V13.2686ZM73.0389 13.5023C72.35 13.9298 71.9629 14.7109 72.04 15.5181C71.9615 16.3261 72.3482 17.1087 73.0378 17.5371C73.7273 17.9655 74.6003 17.9655 75.2899 17.5371C75.9794 17.1087 76.3662 16.3261 76.2876 15.5181C76.3647 14.7109 75.9777 13.9298 75.2887 13.5023C74.5997 13.0747 73.7279 13.0747 73.0389 13.5023ZM75.373 15.5181C75.373 14.542 74.9346 13.9712 74.165 13.9712C73.3926 13.9712 72.958 14.542 72.958 15.5181C72.958 16.502 73.3926 17.0684 74.165 17.0684C74.9346 17.0684 75.373 16.4981 75.373 15.5181ZM78.8979 15.1538C77.8267 15.2202 77.2231 15.6875 77.2231 16.4981C77.2247 16.8824 77.3887 17.2481 77.6746 17.5049C77.9606 17.7617 78.3419 17.8855 78.7241 17.8457C79.2694 17.8709 79.7861 17.6008 80.0767 17.1387H80.147V17.7715H81.0024V14.6948C81.0024 13.7437 80.3657 13.1817 79.2368 13.1817C78.2153 13.1817 77.4878 13.6778 77.397 14.4512H78.2573C78.356 14.1328 78.6997 13.9507 79.1958 13.9507C79.8032 13.9507 80.1177 14.2193 80.1177 14.6948V15.0835L78.8979 15.1538ZM80.1177 16.1133V15.7368L79.0181 15.8071C78.3979 15.8486 78.1167 16.0596 78.1167 16.4566C78.1167 16.8618 78.4683 17.0977 78.9517 17.0977C79.2379 17.1266 79.5236 17.0382 79.7434 16.8527C79.9632 16.6671 80.0982 16.4003 80.1177 16.1133ZM84.0395 13.1939C82.9019 13.1939 82.1704 14.0952 82.1704 15.5181C82.1704 16.9444 82.894 17.8457 84.0396 17.8457C84.6203 17.8671 85.165 17.5645 85.4536 17.0601H85.5239V17.7715H86.3755V11.5107H85.4868V13.9839H85.4204C85.1521 13.4752 84.614 13.1674 84.0395 13.1939ZM83.0884 15.5181C83.0884 16.4732 83.5386 17.0479 84.2915 17.0479C85.0405 17.0479 85.5034 16.4649 85.5034 15.522C85.5034 14.5835 85.0357 13.9922 84.2915 13.9922C83.5435 13.9922 83.0884 14.5708 83.0884 15.5181ZM91.051 13.5023C90.362 13.9299 89.975 14.711 90.0522 15.5181C89.9736 16.3261 90.3602 17.1087 91.0498 17.5371C91.7393 17.9656 92.6122 17.9656 93.3018 17.5371C93.9913 17.1087 94.378 16.3261 94.2993 15.5181C94.3765 14.711 93.9895 13.9299 93.3006 13.5023C92.6116 13.0748 91.7399 13.0748 91.051 13.5023ZM93.3852 15.5181C93.3852 14.542 92.9468 13.9712 92.1772 13.9712C91.4048 13.9712 90.9702 14.542 90.9702 15.5181C90.9702 16.502 91.4048 17.0684 92.1772 17.0684C92.9468 17.0684 93.3852 16.4981 93.3852 15.5181ZM96.3472 13.2686H95.4917V17.7715H96.3804V15.1372C96.3485 14.8375 96.4491 14.5389 96.6557 14.3196C96.8624 14.1002 97.1545 13.9821 97.4556 13.9961C98.1128 13.9961 98.4272 14.356 98.4272 15.0796V17.7714H99.3159V14.8564C99.3811 14.4162 99.2425 13.9702 98.9393 13.6443C98.6361 13.3185 98.2011 13.1483 97.7573 13.1816C97.1841 13.135 96.6445 13.4572 96.4136 13.9839H96.3472V13.2686ZM104.337 12.1475V13.2891H105.313V14.0376H104.337V16.353C104.337 16.8247 104.532 17.0313 104.974 17.0313C105.087 17.0309 105.201 17.0241 105.313 17.0108V17.751C105.153 17.7795 104.992 17.7947 104.83 17.7964C103.841 17.7964 103.448 17.4487 103.448 16.5806V14.0376H102.733V13.289H103.448V12.1475H104.337ZM107.408 11.5107H106.527L106.527 17.7715H107.416V15.1416C107.388 14.8326 107.498 14.5272 107.717 14.3071C107.936 14.087 108.24 13.9746 108.549 14C109.177 14 109.512 14.3643 109.512 15.0835V17.7715H110.402V14.8643C110.461 14.4262 110.321 13.9848 110.021 13.6602C109.721 13.3355 109.292 13.1615 108.851 13.1856C108.269 13.1383 107.72 13.4609 107.478 13.9922H107.408V11.5107ZM115.583 16.5557C115.334 17.4051 114.512 17.9538 113.632 17.8584C113.032 17.8743 112.455 17.6254 112.054 17.1778C111.654 16.7302 111.47 16.1292 111.552 15.5342C111.472 14.9375 111.655 14.3355 112.054 13.8842C112.452 13.4328 113.026 13.1765 113.628 13.1817C114.881 13.1817 115.637 14.0377 115.637 15.4517V15.7617H112.458V15.8115C112.429 16.1457 112.543 16.4762 112.772 16.7218C113 16.9674 113.321 17.1053 113.657 17.1015C114.092 17.1537 114.515 16.9381 114.728 16.5556L115.583 16.5557ZM114.732 15.1045H112.457C112.453 14.794 112.575 14.495 112.795 14.2754C113.014 14.0558 113.313 13.9341 113.624 13.938C113.93 13.931 114.225 14.0537 114.436 14.2758C114.647 14.4979 114.755 14.7989 114.732 15.1045Z" fill="#1A1C1F"/>
<path fill-rule="evenodd" clip-rule="evenodd" d="M86.7446 34.0742C85.1099 34.0742 83.9136 33.2657 83.7759 32.0342L81.8735 32.0341C81.9936 34.2802 83.853 35.7011 86.6069 35.7011C89.5503 35.7011 91.3999 34.2461 91.3999 31.9228C91.3999 30.1064 90.3423 29.083 87.7944 28.4804L86.4263 28.1445C84.8257 27.749 84.1714 27.2324 84.1714 26.3545C84.1714 25.2529 85.1958 24.4961 86.6929 24.4961C88.1899 24.4961 89.2143 25.2441 89.3266 26.4834H91.2026C91.1421 24.3408 89.3433 22.8691 86.7183 22.8691C84.0679 22.8691 82.2007 24.3408 82.2007 26.4834C82.2007 28.2139 83.2593 29.2803 85.5396 29.8311L87.1489 30.2188C88.7583 30.6143 89.438 31.1914 89.438 32.1553C89.438 33.2656 88.311 34.0742 86.7446 34.0742ZM54.3682 32.1378H49.6348L48.498 35.4942H46.4932L50.9766 23.0762H53.0596L57.543 35.4942H55.5039L54.3682 32.1378ZM50.125 30.5889H53.877L52.0274 25.1417H51.9756L50.125 30.5889ZM63.4473 35.5889C65.7197 35.5889 67.2256 33.7813 67.2256 30.9678C67.2256 28.1622 65.7109 26.3458 63.4131 26.3458C62.2307 26.3076 61.1231 26.9226 60.5302 27.9463H60.4961V26.4405H58.6972V38.4893H60.5556V34.0049H60.5986C61.1662 35.0351 62.2726 35.6504 63.4473 35.5889ZM65.3154 30.9678C65.3154 29.1348 64.3682 27.9297 62.9228 27.9297C61.5029 27.9297 60.5478 29.1602 60.5478 30.9678C60.5478 32.7921 61.5029 34.0137 62.9228 34.0137C64.3682 34.0137 65.3154 32.8174 65.3154 30.9678ZM73.4121 35.5889C75.6846 35.5889 77.1909 33.7813 77.1909 30.9678C77.1909 28.1622 75.6758 26.3458 73.3779 26.3458C72.1955 26.3076 71.0879 26.9226 70.4951 27.9463H70.4609V26.4405H68.6621V38.4893H70.5205V34.0049H70.5635C71.1311 35.0351 72.2375 35.6504 73.4121 35.5889ZM75.2803 30.9678C75.2803 29.1348 74.333 27.9297 72.8877 27.9297C71.4678 27.9297 70.5127 29.1602 70.5127 30.9678C70.5127 32.7921 71.4678 34.0137 72.8877 34.0137C74.333 34.0137 75.2803 32.8174 75.2803 30.9678ZM95.4126 24.2979V26.4405H97.1343V27.9122H95.4126V32.9034C95.4126 33.6788 95.7573 34.0401 96.5142 34.0401C96.7185 34.0365 96.9226 34.0222 97.1255 33.9971V35.46C96.7852 35.5236 96.4394 35.5524 96.0933 35.5459C94.2603 35.5459 93.5454 34.8574 93.5454 33.1016V27.9122H92.229V26.4405H93.5454V24.2979H95.4126ZM102.424 26.3292C99.8081 26.3292 98.1304 28.1192 98.1304 30.9678C98.1304 33.8243 99.7915 35.6065 102.424 35.6065C105.058 35.6065 106.719 33.8243 106.719 30.9678C106.719 28.1192 105.049 26.3292 102.424 26.3292ZM104.826 30.9678C104.826 29.0137 103.93 27.8604 102.424 27.8604C100.918 27.8604 100.023 29.0225 100.023 30.9678C100.023 32.9297 100.918 34.0743 102.424 34.0743C103.93 34.0743 104.826 32.9297 104.826 30.9678ZM110.024 26.4405H108.251L108.251 35.4942H110.11V30.1241C110.048 29.5808 110.227 29.0376 110.599 28.6371C110.971 28.2366 111.5 28.0189 112.046 28.0411C112.329 28.0328 112.611 28.0707 112.881 28.1534V26.4151C112.672 26.3683 112.459 26.345 112.245 26.3457C111.223 26.3067 110.314 26.9895 110.067 27.9815H110.024V26.4405ZM121.45 32.835C121.2 34.4786 119.599 35.6065 117.551 35.6065C114.917 35.6065 113.283 33.8418 113.283 31.0108C113.283 28.171 114.926 26.3292 117.473 26.3292C119.978 26.3292 121.553 28.0499 121.553 30.795V31.4317H115.159V31.544C115.099 32.218 115.332 32.8852 115.798 33.3759C116.264 33.8665 116.918 34.1333 117.594 34.1084C118.496 34.1929 119.346 33.6751 119.685 32.835L121.45 32.835ZM119.694 30.1329H115.167C115.166 29.5216 115.409 28.935 115.842 28.5035C116.274 28.072 116.862 27.8314 117.473 27.835C118.08 27.822 118.664 28.0625 119.086 28.4987C119.507 28.9349 119.728 29.5272 119.694 30.1329Z" fill="#1A1C1F"/>
</svg>
