<svg width="40" height="40" viewBox="0 0 40 40" fill="none" xmlns="http://www.w3.org/2000/svg">
<path d="M20 0C8.95111 0 0 8.95111 0 20C0 31.0489 8.95111 40 20 40C31.0489 40 40 31.0489 40 20C40 8.95111 31.0489 0 20 0ZM25.7422 12.5422C25.7422 12.5422 23.6267 12.5244 23.0933 12.5244C22.2933 12.5244 21.76 13.2178 21.76 13.92V16.8622H25.7422L25.2889 20.8711H21.7156V31.1111H17.6711V20.9244H14.2578V16.8178H17.7244C17.7244 16.8178 17.7244 15.3778 17.7244 12.9422C17.7244 10.7822 20.1244 8.88 21.7956 8.88C22.0444 8.88 25.7422 8.91556 25.7422 8.91556V12.5422Z" fill="#1A1C1F"/>
</svg>
