<svg width="146" height="49" viewBox="0 0 146 49" fill="none" xmlns="http://www.w3.org/2000/svg">
<rect x="0.333252" y="0.714355" width="145.333" height="48" rx="6" fill="white"/>
<path d="M16.199 14.0931C15.895 14.4579 15.7415 14.9249 15.7699 15.3989V36.03C15.7415 36.504 15.895 36.971 16.199 37.3358L16.2643 37.4011L27.8203 25.8544V25.5839L16.2643 14.0278L16.199 14.0931Z" fill="#1A1C1F"/>
<path d="M31.6434 29.706L27.8193 25.854V25.5835L31.6434 21.7222L31.7273 21.7688L36.3068 24.371C37.6126 25.1078 37.6126 26.3203 36.3068 27.0665L31.746 29.6594L31.6434 29.706Z" fill="#1A1C1F"/>
<path d="M31.7565 29.6503L27.8206 25.7144L16.1992 37.3357C16.7483 37.8184 17.5632 37.8419 18.1392 37.3917L31.7658 29.6503" fill="#1A1C1F"/>
<path d="M31.7551 21.7782L18.1285 14.0369C17.5525 13.5866 16.7376 13.6101 16.1885 14.0928L27.8191 25.7142L31.7551 21.7782Z" fill="#1A1C1F"/>
<path fill-rule="evenodd" clip-rule="evenodd" d="M73.1514 18.4387C74.3684 19.6489 76.3344 19.6489 77.5514 18.4387C78.7362 17.192 78.7362 15.2355 77.5514 13.9887C76.9694 13.4025 76.1775 13.0728 75.3514 13.0728C74.5253 13.0728 73.7334 13.4025 73.1514 13.9887C71.9717 15.2375 71.9717 17.19 73.1514 18.4387ZM50.6116 18.4587C51.1248 17.9228 51.3959 17.2 51.3616 16.4587C51.3616 16.3078 51.3482 16.1572 51.3216 16.0087H48.4116V16.7287H50.5816C50.5668 17.1822 50.3893 17.6153 50.0816 17.9487C49.3962 18.6113 48.3795 18.7964 47.5045 18.418C46.6295 18.0396 46.0682 17.1719 46.0816 16.2187C46.0598 15.5879 46.296 14.9755 46.7356 14.5227C47.1752 14.0698 47.7804 13.8156 48.4116 13.8187C49.0395 13.7844 49.6469 14.0474 50.0516 14.5287L50.5816 13.9987C50.3256 13.7043 50.0034 13.4747 49.6416 13.3287C49.2529 13.1624 48.8343 13.0773 48.4116 13.0787C47.5821 13.0602 46.7821 13.386 46.2016 13.9787C45.3081 14.878 45.0408 16.2253 45.5233 17.3976C46.0057 18.5699 47.1439 19.3388 48.4116 19.3487C49.2381 19.3781 50.038 19.0545 50.6116 18.4587ZM53.2414 13.9588H55.9414V13.2188H52.4414V19.2188H55.9414V18.4788H53.2414V16.5787H55.7014V15.8588H53.2414V13.9588ZM59.2216 19.2187H58.4516V13.9587H56.7716V13.2187H60.9416V13.9587H59.2216V19.2187ZM63.8818 13.2188V19.2188H64.6518V13.2188H63.8818ZM68.0711 19.2188H67.3011V13.9588H65.6211V13.2188H69.7411V13.9588H68.0711V19.2188ZM73.7215 17.9386C74.6228 18.8362 76.0802 18.8362 76.9815 17.9386C77.8667 16.9628 77.8667 15.4744 76.9815 14.4986C76.0802 13.601 74.6228 13.601 73.7215 14.4986C72.8363 15.4744 72.8363 16.9628 73.7215 17.9386ZM80.4616 13.2187H79.5216V19.2187H80.3016V14.3287L83.3516 19.2187H84.1516V13.2187H83.3816V17.8887L80.4616 13.2187Z" fill="#1A1C1F"/>
<path d="M77.5514 18.4387L77.6219 18.5097L77.6239 18.5076L77.5514 18.4387ZM73.1514 18.4387L73.0787 18.5074L73.0809 18.5096L73.1514 18.4387ZM77.5514 13.9887L77.6239 13.9198L77.6224 13.9183L77.5514 13.9887ZM73.1514 13.9887L73.0804 13.9182L73.0787 13.92L73.1514 13.9887ZM51.3616 16.4587L51.2615 16.4587L51.2617 16.4634L51.3616 16.4587ZM50.6116 18.4587L50.6836 18.5281L50.6838 18.5279L50.6116 18.4587ZM51.3216 16.0087L51.42 15.991L51.4052 15.9087H51.3216V16.0087ZM48.4116 16.0087V15.9087H48.3116V16.0087H48.4116ZM48.4116 16.7287H48.3116V16.8287H48.4116V16.7287ZM50.5816 16.7287L50.6815 16.732L50.6849 16.6287H50.5816V16.7287ZM50.0816 17.9487L50.1512 18.0207L50.1551 18.0165L50.0816 17.9487ZM47.5045 18.418L47.4648 18.5098H47.4648L47.5045 18.418ZM46.0816 16.2187L46.1817 16.2201L46.1815 16.2153L46.0816 16.2187ZM46.7356 14.5227L46.6639 14.453L46.7356 14.5227ZM48.4116 13.8187L48.4111 13.9189L48.417 13.9186L48.4116 13.8187ZM50.0516 14.5287L49.975 14.5931L50.0452 14.6765L50.1223 14.5994L50.0516 14.5287ZM50.5816 13.9987L50.6523 14.0694L50.7182 14.0035L50.657 13.9331L50.5816 13.9987ZM49.6416 13.3287L49.6022 13.4207L49.6042 13.4215L49.6416 13.3287ZM48.4116 13.0787L48.4093 13.1787L48.4119 13.1787L48.4116 13.0787ZM46.2016 13.9787L46.2725 14.0492L46.273 14.0487L46.2016 13.9787ZM45.5233 17.3976L45.4308 17.4357L45.5233 17.3976ZM48.4116 19.3487L48.4151 19.2487L48.4124 19.2487L48.4116 19.3487ZM55.9414 13.9588V14.0588H56.0414V13.9588H55.9414ZM53.2414 13.9588V13.8587H53.1414V13.9588H53.2414ZM55.9414 13.2188H56.0414V13.1187H55.9414V13.2188ZM52.4414 13.2188V13.1187H52.3414V13.2188H52.4414ZM52.4414 19.2188H52.3414V19.3187H52.4414V19.2188ZM55.9414 19.2188V19.3187H56.0414V19.2188H55.9414ZM55.9414 18.4788H56.0414V18.3788H55.9414V18.4788ZM53.2414 18.4788H53.1414V18.5788H53.2414V18.4788ZM53.2414 16.5787V16.4787H53.1414V16.5787H53.2414ZM55.7014 16.5787V16.6787H55.8014V16.5787H55.7014ZM55.7014 15.8588H55.8014V15.7588H55.7014V15.8588ZM53.2414 15.8588H53.1414V15.9588H53.2414V15.8588ZM58.4516 19.2187H58.3516V19.3187H58.4516V19.2187ZM59.2216 19.2187V19.3187H59.3216V19.2187H59.2216ZM58.4516 13.9587H58.5516V13.8587H58.4516V13.9587ZM56.7716 13.9587H56.6716V14.0587H56.7716V13.9587ZM56.7716 13.2187V13.1187H56.6716V13.2187H56.7716ZM60.9416 13.2187H61.0416V13.1187H60.9416V13.2187ZM60.9416 13.9587V14.0587H61.0416V13.9587H60.9416ZM59.2216 13.9587V13.8587H59.1216V13.9587H59.2216ZM63.8818 19.2188H63.7818V19.3187H63.8818V19.2188ZM63.8818 13.2188V13.1187H63.7818V13.2188H63.8818ZM64.6518 19.2188V19.3187H64.7518V19.2188H64.6518ZM64.6518 13.2188H64.7518V13.1187H64.6518V13.2188ZM67.3011 19.2188H67.2011V19.3187H67.3011V19.2188ZM68.0711 19.2188V19.3187H68.1711V19.2188H68.0711ZM67.3011 13.9588H67.4011V13.8587H67.3011V13.9588ZM65.6211 13.9588H65.5211V14.0588H65.6211V13.9588ZM65.6211 13.2188V13.1187H65.5211V13.2188H65.6211ZM69.7411 13.2188H69.8411V13.1187H69.7411V13.2188ZM69.7411 13.9588V14.0588H69.8411V13.9588H69.7411ZM68.0711 13.9588V13.8587H67.9711V13.9588H68.0711ZM76.9815 17.9386L77.0522 18.0096L77.0556 18.0058L76.9815 17.9386ZM73.7215 17.9386L73.6474 18.0059L73.651 18.0095L73.7215 17.9386ZM76.9815 14.4986L77.0557 14.4313L77.0521 14.4278L76.9815 14.4986ZM73.7215 14.4986L73.6509 14.4277L73.6474 14.4314L73.7215 14.4986ZM79.5216 13.2187V13.1187H79.4216V13.2187H79.5216ZM80.4616 13.2187L80.5464 13.1657L80.517 13.1187H80.4616V13.2187ZM79.5216 19.2187H79.4216V19.3187H79.5216V19.2187ZM80.3016 19.2187V19.3187H80.4016V19.2187H80.3016ZM80.3016 14.3287L80.3864 14.2758L80.2016 13.9794V14.3287H80.3016ZM83.3516 19.2187L83.2667 19.2716L83.2961 19.3187H83.3516V19.2187ZM84.1516 19.2187V19.3187H84.2516V19.2187H84.1516ZM84.1516 13.2187H84.2516V13.1187H84.1516V13.2187ZM83.3816 13.2187V13.1187H83.2816V13.2187H83.3816ZM83.3816 17.8887L83.2968 17.9417L83.4816 18.2373V17.8887H83.3816ZM77.4809 18.3678C76.3029 19.5393 74.3999 19.5393 73.2219 18.3678L73.0809 18.5096C74.3369 19.7586 76.3659 19.7586 77.6219 18.5096L77.4809 18.3678ZM77.4789 14.0576C78.627 15.2658 78.627 17.1617 77.4789 18.3698L77.6239 18.5076C78.8453 17.2222 78.8453 15.2052 77.6239 13.9198L77.4789 14.0576ZM75.3514 13.1728C76.1508 13.1728 76.9172 13.4918 77.4804 14.0592L77.6224 13.9183C77.0216 13.3131 76.2041 12.9728 75.3514 12.9728V13.1728ZM73.2224 14.0592C73.7856 13.4918 74.552 13.1728 75.3514 13.1728V12.9728C74.4987 12.9728 73.6812 13.3131 73.0804 13.9183L73.2224 14.0592ZM73.2241 18.37C72.0808 17.1598 72.0808 15.2676 73.2241 14.0574L73.0787 13.92C71.8626 15.2074 71.8626 17.2201 73.0787 18.5074L73.2241 18.37ZM51.2617 16.4634C51.2948 17.1772 51.0337 17.8735 50.5394 18.3896L50.6838 18.5279C51.216 17.9722 51.4971 17.2227 51.4615 16.4541L51.2617 16.4634ZM51.2231 16.0264C51.2488 16.1691 51.2616 16.3137 51.2616 16.4587L51.4616 16.4588C51.4616 16.3019 51.4477 16.1454 51.42 15.991L51.2231 16.0264ZM48.4116 16.1087H51.3216V15.9087H48.4116V16.1087ZM48.5116 16.7287V16.0087H48.3116V16.7287H48.5116ZM50.5816 16.6287H48.4116V16.8287H50.5816V16.6287ZM50.1551 18.0165C50.4791 17.6654 50.6659 17.2095 50.6815 16.732L50.4816 16.7255C50.4676 17.155 50.2995 17.5651 50.0081 17.8809L50.1551 18.0165ZM47.4648 18.5098C48.3768 18.9042 49.4366 18.7112 50.1511 18.0206L50.0121 17.8768C49.3557 18.5113 48.3821 18.6886 47.5442 18.3262L47.4648 18.5098ZM45.9816 16.2173C45.9676 17.2109 46.5528 18.1153 47.4648 18.5098L47.5442 18.3262C46.7063 17.9638 46.1687 17.1329 46.1816 16.2201L45.9816 16.2173ZM46.6639 14.453C46.2053 14.9254 45.9589 15.5642 45.9816 16.2222L46.1815 16.2153C46.1607 15.6117 46.3867 15.0256 46.8074 14.5923L46.6639 14.453ZM48.4121 13.7187C47.7537 13.7155 47.1225 13.9806 46.6639 14.453L46.8074 14.5923C47.228 14.159 47.8071 13.9158 48.4111 13.9187L48.4121 13.7187ZM50.1281 14.4644C49.7032 13.959 49.0654 13.6828 48.4061 13.7189L48.417 13.9186C49.0135 13.886 49.5906 14.1358 49.975 14.5931L50.1281 14.4644ZM50.5109 13.928L49.9809 14.458L50.1223 14.5994L50.6523 14.0694L50.5109 13.928ZM49.6042 13.4215C49.9514 13.5615 50.2605 13.7818 50.5061 14.0643L50.657 13.9331C50.3907 13.6267 50.0555 13.3878 49.679 13.236L49.6042 13.4215ZM48.4119 13.1787C48.821 13.1774 49.2261 13.2597 49.6022 13.4207L49.6809 13.2368C49.2797 13.0651 48.8476 12.9773 48.4112 12.9787L48.4119 13.1787ZM46.273 14.0487C46.8342 13.4758 47.6076 13.1608 48.4093 13.1787L48.4138 12.9787C47.5567 12.9596 46.73 13.2963 46.1301 13.9087L46.273 14.0487ZM45.6157 17.3596C45.1486 16.2245 45.4074 14.92 46.2725 14.0492L46.1306 13.9082C45.2088 14.8361 44.933 16.2262 45.4308 17.4357L45.6157 17.3596ZM48.4124 19.2487C47.1849 19.2391 46.0829 18.4947 45.6157 17.3596L45.4308 17.4357C45.9286 18.6452 47.1029 19.4385 48.4108 19.4487L48.4124 19.2487ZM50.5395 18.3894C49.9857 18.9647 49.2132 19.2772 48.4151 19.2488L48.408 19.4487C49.2629 19.4791 50.0904 19.1444 50.6836 18.5281L50.5395 18.3894ZM55.9414 13.8587H53.2414V14.0588H55.9414V13.8587ZM55.8414 13.2188V13.9588H56.0414V13.2188H55.8414ZM52.4414 13.3187H55.9414V13.1187H52.4414V13.3187ZM52.5414 19.2188V13.2188H52.3414V19.2188H52.5414ZM55.9414 19.1188H52.4414V19.3187H55.9414V19.1188ZM55.8414 18.4788V19.2188H56.0414V18.4788H55.8414ZM53.2414 18.5788H55.9414V18.3788H53.2414V18.5788ZM53.1414 16.5787V18.4788H53.3414V16.5787H53.1414ZM55.7014 16.4787H53.2414V16.6787H55.7014V16.4787ZM55.6014 15.8588V16.5787H55.8014V15.8588H55.6014ZM53.2414 15.9588H55.7014V15.7588H53.2414V15.9588ZM53.1414 13.9588V15.8588H53.3414V13.9588H53.1414ZM58.4516 19.3187H59.2216V19.1187H58.4516V19.3187ZM58.3516 13.9587V19.2187H58.5516V13.9587H58.3516ZM56.7716 14.0587H58.4516V13.8587H56.7716V14.0587ZM56.6716 13.2187V13.9587H56.8716V13.2187H56.6716ZM60.9416 13.1187H56.7716V13.3187H60.9416V13.1187ZM61.0416 13.9587V13.2187H60.8416V13.9587H61.0416ZM59.2216 14.0587H60.9416V13.8587H59.2216V14.0587ZM59.3216 19.2187V13.9587H59.1216V19.2187H59.3216ZM63.9818 19.2188V13.2188H63.7818V19.2188H63.9818ZM64.6518 19.1188H63.8818V19.3187H64.6518V19.1188ZM64.5518 13.2188V19.2188H64.7518V13.2188H64.5518ZM63.8818 13.3187H64.6518V13.1187H63.8818V13.3187ZM67.3011 19.3187H68.0711V19.1188H67.3011V19.3187ZM67.2011 13.9588V19.2188H67.4011V13.9588H67.2011ZM65.6211 14.0588H67.3011V13.8587H65.6211V14.0588ZM65.5211 13.2188V13.9588H65.7211V13.2188H65.5211ZM69.7411 13.1187H65.6211V13.3187H69.7411V13.1187ZM69.8411 13.9588V13.2188H69.6411V13.9588H69.8411ZM68.0711 14.0588H69.7411V13.8587H68.0711V14.0588ZM68.1711 19.2188V13.9588H67.9711V19.2188H68.1711ZM76.911 17.8678C76.0486 18.7265 74.6544 18.7265 73.7921 17.8678L73.651 18.0095C74.5913 18.9459 76.1117 18.9459 77.0521 18.0095L76.911 17.8678ZM76.9074 14.5658C77.7581 15.5035 77.7581 16.9337 76.9074 17.8714L77.0556 18.0058C77.9754 16.9919 77.9754 15.4454 77.0556 14.4314L76.9074 14.5658ZM73.7921 14.5695C74.6544 13.7108 76.0486 13.7108 76.911 14.5695L77.0521 14.4278C76.1117 13.4913 74.5913 13.4913 73.651 14.4278L73.7921 14.5695ZM73.7956 17.8714C72.945 16.9337 72.945 15.5035 73.7956 14.5658L73.6474 14.4314C72.7277 15.4454 72.7277 16.9919 73.6474 18.0058L73.7956 17.8714ZM79.5216 13.3187H80.4616V13.1187H79.5216V13.3187ZM79.6216 19.2187V13.2187H79.4216V19.2187H79.6216ZM80.3016 19.1187H79.5216V19.3187H80.3016V19.1187ZM80.2016 14.3287V19.2187H80.4016V14.3287H80.2016ZM83.4364 19.1658L80.3864 14.2758L80.2167 14.3816L83.2667 19.2716L83.4364 19.1658ZM84.1516 19.1187H83.3516V19.3187H84.1516V19.1187ZM84.0516 13.2187V19.2187H84.2516V13.2187H84.0516ZM83.3816 13.3187H84.1516V13.1187H83.3816V13.3187ZM83.4816 17.8887V13.2187H83.2816V17.8887H83.4816ZM80.3768 13.2717L83.2968 17.9417L83.4664 17.8357L80.5464 13.1657L80.3768 13.2717Z" fill="#1A1C1F"/>
<path fill-rule="evenodd" clip-rule="evenodd" d="M52.1532 29.4156V31.2156H56.4732C56.4054 32.0634 56.053 32.8634 55.4732 33.4856C54.5992 34.3758 53.3897 34.8553 52.1432 34.8056C49.4922 34.8056 47.3432 32.6566 47.3432 30.0056C47.3432 27.3546 49.4922 25.2056 52.1432 25.2056C53.361 25.1857 54.5369 25.6497 55.4132 26.4956L56.6832 25.2256C55.4881 24.0155 53.8539 23.3409 52.1532 23.3556C49.7321 23.2614 47.4536 24.4993 46.215 26.5817C44.9765 28.664 44.9765 31.2572 46.215 33.3395C47.4536 35.4219 49.7321 36.6598 52.1532 36.5656C53.8849 36.6439 55.5659 35.9693 56.7632 34.7156C57.8109 33.5645 58.3702 32.0514 58.3232 30.4956C58.3264 30.1166 58.2929 29.7382 58.2232 29.3656L52.1532 29.4156ZM68.3232 32.3689C68.3159 30.0243 70.2086 28.1166 72.5532 28.1056C73.6887 28.0838 74.7845 28.5239 75.5894 29.3251C76.3944 30.1263 76.8397 31.22 76.8232 32.3556C76.8232 34.7002 74.9244 36.6019 72.5798 36.6056C70.2352 36.6092 68.3306 34.7135 68.3232 32.3689ZM70.045 33.474C70.5017 34.4299 71.4962 35.0095 72.553 34.9356C73.2163 34.9202 73.8453 34.6376 74.2972 34.1518C74.749 33.666 74.9856 33.0183 74.953 32.3556C74.9504 31.2963 74.3006 30.3461 73.3142 29.9597C72.3279 29.5732 71.2055 29.829 70.484 30.6046C69.7624 31.3803 69.5884 32.5182 70.045 33.474ZM63.2429 28.1056C60.897 28.1112 58.9993 30.0164 59.0029 32.3623C59.0066 34.7082 60.9103 36.6075 63.2563 36.6056C65.6022 36.6038 67.5029 34.7015 67.5029 32.3556C67.5194 31.22 67.0742 30.1263 66.2692 29.3251C65.4642 28.5239 64.3685 28.0838 63.2329 28.1056H63.2429ZM60.7281 33.4817C61.1879 34.437 62.1854 35.0137 63.2427 34.9356H63.2327C63.896 34.9202 64.5249 34.6376 64.9768 34.1518C65.4287 33.666 65.6652 33.0183 65.6327 32.3556C65.6298 31.2954 64.9786 30.3449 63.9911 29.9593C63.0035 29.5737 61.8805 29.8316 61.16 30.6093C60.4395 31.3871 60.2682 32.5264 60.7281 33.4817ZM93.8233 28.1057C95.4812 28.1668 96.9293 29.2449 97.4633 30.8157L97.6733 31.2657L91.9833 33.6157C92.3399 34.4279 93.1568 34.9395 94.0433 34.9057C94.8991 34.9079 95.693 34.4597 96.1333 33.7257L97.5833 34.7257C96.7939 35.9072 95.4641 36.6134 94.0433 36.6057C92.9138 36.6223 91.8262 36.1788 91.0303 35.3773C90.2344 34.5757 89.7987 33.485 89.8233 32.3557C89.7542 31.2522 90.1449 30.1694 90.9026 29.3643C91.6604 28.5591 92.7176 28.1036 93.8233 28.1057ZM91.6632 32.2356C91.6222 31.6108 91.8345 30.9958 92.2522 30.5292C92.6698 30.0626 93.2576 29.7838 93.8832 29.7556C94.5426 29.7122 95.1642 30.0663 95.4632 30.6556L91.6632 32.2356ZM88.913 36.3557H87.043V23.8557H88.913V36.3557ZM83.9828 29.0556H83.9128C83.3428 28.4183 82.5279 28.0545 81.6728 28.0556C79.403 28.1657 77.6191 30.0381 77.6191 32.3106C77.6191 34.5831 79.403 36.4555 81.6728 36.5656C82.5306 36.58 83.3508 36.2139 83.9128 35.5656H83.9728V36.1756C83.9728 37.8056 83.1028 38.6756 81.7028 38.6756C80.7491 38.6533 79.9035 38.0566 79.5628 37.1656L77.9328 37.8456C78.5605 39.3724 80.052 40.3655 81.7028 40.3556C83.8928 40.3556 85.7028 39.0656 85.7028 35.9256V28.3556H83.9828V29.0556ZM81.8401 34.9353L81.8432 34.9356H81.8332L81.8401 34.9353ZM83.5252 34.1334C83.096 34.619 82.4874 34.9086 81.8401 34.9353C80.5045 34.816 79.4806 33.6969 79.4806 32.3556C79.4806 31.0133 80.5061 29.8934 81.8432 29.7756C82.4893 29.8088 83.0947 30.1014 83.522 30.5871C83.9494 31.0728 84.1626 31.7105 84.1132 32.3556C84.1683 33.0037 83.9558 33.646 83.5252 34.1334ZM106.223 23.8555H101.753V36.3555H103.623V31.6155H106.233C107.686 31.7199 109.075 31.004 109.833 29.7605C110.591 28.5169 110.591 26.9541 109.833 25.7105C109.075 24.467 107.686 23.7511 106.233 23.8555H106.223ZM103.613 29.8556H106.223L106.263 29.8856C107.448 29.8856 108.408 28.9253 108.408 27.7406C108.408 26.556 107.448 25.5956 106.263 25.5956H103.613V29.8556ZM117.753 28.0556C116.362 27.9724 115.054 28.7227 114.423 29.9656L116.083 30.6556C116.418 30.0393 117.085 29.6784 117.783 29.7356C118.263 29.6796 118.745 29.8186 119.121 30.1213C119.497 30.424 119.736 30.8652 119.783 31.3456V31.4756C119.183 31.1576 118.513 30.9927 117.833 30.9956C116.043 30.9956 114.233 31.9956 114.233 33.8056C114.269 34.5853 114.619 35.3174 115.203 35.8354C115.786 36.3533 116.555 36.6131 117.333 36.5556C118.293 36.6245 119.213 36.1643 119.733 35.3556H119.793V36.3556H121.593V31.5456C121.593 29.3556 119.933 28.0856 117.803 28.0856L117.753 28.0556ZM116.063 33.8456C116.063 34.5956 116.913 34.9056 117.523 34.9056L117.573 34.9356C118.7 34.9081 119.634 34.055 119.763 32.9356C119.245 32.646 118.658 32.5009 118.063 32.5156C117.123 32.5156 116.063 32.8456 116.063 33.8456ZM128.153 28.3557L126.013 33.7757H125.953L123.733 28.3557H121.733L125.063 35.9357L123.163 40.1457H125.113L130.233 28.3557H128.153ZM113.213 36.3557H111.343V23.8557H113.213V36.3557Z" fill="#1A1C1F"/>
</svg>
