<svg width="40" height="40" viewBox="0 0 40 40" fill="none" xmlns="http://www.w3.org/2000/svg">
<path d="M24.2489 11.3689H15.76C13.3422 11.3689 11.3689 13.3333 11.3689 15.76V24.2489C11.3689 26.6667 13.3333 28.64 15.76 28.64H24.2489C26.6667 28.64 28.64 26.6756 28.64 24.2489V15.76C28.6311 13.3333 26.6667 11.3689 24.2489 11.3689ZM20 25.68C16.8711 25.68 14.32 23.1289 14.32 20C14.32 16.8711 16.8711 14.32 20 14.32C23.1289 14.32 25.68 16.8711 25.68 20C25.68 23.1289 23.1289 25.68 20 25.68ZM25.9644 14.9511C25.4311 14.9511 25.0044 14.5244 25.0044 13.9911C25.0044 13.4578 25.4311 13.0311 25.9644 13.0311C26.4978 13.0311 26.9244 13.4578 26.9244 13.9911C26.9244 14.5244 26.4978 14.9511 25.9644 14.9511Z" fill="#679AB4"/>
<path d="M23.4528 20.042C23.4757 18.1372 21.9501 16.5746 20.0453 16.5517C18.1405 16.5289 16.5779 18.0545 16.555 19.9592C16.5322 21.864 18.0578 23.4267 19.9625 23.4495C21.8673 23.4724 23.4299 21.9468 23.4528 20.042Z" fill="#679AB4"/>
<path d="M20 0C8.95111 0 0 8.95111 0 20C0 31.0489 8.95111 40 20 40C31.0489 40 40 31.0489 40 20C40 8.95111 31.0489 0 20 0ZM31.1111 24.2489C31.1111 28.0356 28.0356 31.1111 24.2489 31.1111H15.76C11.9733 31.1111 8.89778 28.0356 8.89778 24.2489V15.76C8.89778 11.9733 11.9733 8.89778 15.76 8.89778H24.2489C28.0356 8.89778 31.1111 11.9733 31.1111 15.76V24.2489Z" fill="#1A1C1F"/>
</svg>
