<svg width="40" height="40" viewBox="0 0 40 40" fill="none" xmlns="http://www.w3.org/2000/svg">
<path d="M20 0C8.95111 0 0 8.95111 0 20C0 31.0489 8.95111 40 20 40C31.0489 40 40 31.0489 40 20C40 8.95111 31.0489 0 20 0ZM14.3378 31.1111H9.02222V16.2489H14.3378V31.1111ZM11.68 14.2044C10.2133 14.2044 9.02222 13.0133 9.02222 11.5467C9.02222 10.08 10.2133 8.88889 11.68 8.88889C13.1467 8.88889 14.3378 10.08 14.3378 11.5467C14.3378 13.0133 13.1467 14.2044 11.68 14.2044ZM30.9867 31.1111H26.6044C26.6044 31.1111 26.6311 22.4444 26.6489 22.1778C26.6756 21.9111 26.4089 19.7244 24.1689 19.7244C21.9289 19.7244 21.2267 21.3244 21.2267 22.5422V31.1111H17.0756V16.2489H21.1822V18.3111C21.1822 18.3111 21.8133 16.2311 25.6089 16.2311C28.7378 16.2311 30.9778 17.4489 30.9778 20.8C30.9867 22.6578 30.9867 31.1111 30.9867 31.1111Z" fill="#1A1C1F"/>
</svg>
