<svg width="40" height="40" viewBox="0 0 40 40" fill="none" xmlns="http://www.w3.org/2000/svg">
<path d="M20 0C8.95111 0 0 8.95111 0 20C0 31.0489 8.95111 40 20 40C31.0489 40 40 31.0489 40 20C40 8.95111 31.0489 0 20 0ZM28.9156 15.3867C28.9156 15.3867 29.5644 21.3067 24.8889 25.7422C18.3378 31.9556 8.88889 27.12 8.88889 27.12C13.4311 27.1733 15.3511 25.2622 15.3511 25.2622C11.6178 24.6222 11.2444 21.9556 11.2444 21.9556C11.8844 22.3556 13.28 21.9556 13.28 21.9556C9.12 20.0444 9.76889 17.5289 9.76889 17.5289C10.9778 18.2044 11.8844 17.9556 11.8844 17.9556C8.64889 15.1467 10.48 12.1689 10.48 12.1689C16.16 17.5733 19.8133 16.4622 19.8133 16.4622C19.5556 12.6578 21.8044 11.1822 24.2311 11.1022C26.2756 11.0311 27.4489 12.4533 27.4489 12.4533C29.0222 12.5867 30.4978 11.5378 30.4978 11.5378C30.3644 12.8089 28.64 13.8844 28.64 13.8844C29.5378 13.9644 31.1022 13.4756 31.1022 13.4756C30.2933 14.96 28.9156 15.3867 28.9156 15.3867Z" fill="#1A1C1F"/>
</svg>
