<svg width="40" height="40" viewBox="0 0 40 40" fill="none" xmlns="http://www.w3.org/2000/svg">
<path d="M23.4222 21.9556C23.2 21.9911 23.0578 22.2133 22.8356 22.56C22.6044 22.9333 22.3378 23.36 21.8222 23.5022C21.5467 23.5822 21.0311 23.5822 19.8133 22.7111C19.0933 22.1956 18.24 21.4489 17.4756 20.6667C16.2489 19.4133 16.2311 19.1022 16.2311 18.9867C16.2044 18.4711 16.6133 18.0444 16.9778 17.6711C17.2 17.4489 17.4222 17.2178 17.4933 17.0222C17.52 16.88 17.3333 16.24 16.8267 15.3333C16.32 14.4267 15.8667 13.9289 15.7244 13.8756C15.7067 13.8667 15.6711 13.8667 15.6356 13.8667C15.3778 13.8667 14.7467 14.0178 14.1956 14.5244C13.6267 15.0578 13.0578 16.0889 13.5822 17.9556C14.5511 21.4311 17.6 24.24 22.1689 25.8489C23.3778 26.2756 24.3733 26.2756 25.1111 25.8311C26.1422 25.2089 26.4533 23.9022 26.5333 23.3689C26.5422 23.3244 26.5244 23.28 26.4978 23.2444C25.8844 22.6044 23.9822 21.8578 23.4222 21.9556Z" fill="#679AB4"/>
<path d="M20 0C8.95111 0 0 8.95111 0 20C0 31.0489 8.95111 40 20 40C31.0489 40 40 31.0489 40 20C40 8.95111 31.0489 0 20 0ZM20 31.1111C17.6444 31.1111 15.3956 30.3822 13.4933 29.0044L13.3422 28.8978L9.79556 30.2933L11.0489 26.5778L10.9511 26.4356C9.6 24.5422 8.88889 22.32 8.88889 20C8.88889 13.8756 13.8756 8.88889 20 8.88889C26.1244 8.88889 31.1111 13.8756 31.1111 20C31.1111 26.1244 26.1244 31.1111 20 31.1111Z" fill="#1A1C1F"/>
</svg>
