<svg width="40" height="40" viewBox="0 0 40 40" fill="none" xmlns="http://www.w3.org/2000/svg">
<path d="M17.1733 15.7956V24.32L24.0711 20.0533L20.6222 17.9289L17.1733 15.7956Z" fill="#679AB4"/>
<path d="M20 0C8.95111 0 0 8.95111 0 20C0 31.0489 8.95111 40 20 40C31.0489 40 40 31.0489 40 20C40 8.95111 31.0489 0 20 0ZM31.1111 23.7067C31.1111 25.9289 29.2978 27.7422 27.0756 27.7422H12.9244C10.7022 27.7422 8.88889 25.9289 8.88889 23.7067V16.3022C8.88889 14.08 10.7022 12.2667 12.9244 12.2667H27.0756C29.2978 12.2667 31.1111 14.08 31.1111 16.3022V23.7067Z" fill="#1A1C1F"/>
</svg>
