<svg width="38" height="37" fill="none" xmlns="http://www.w3.org/2000/svg"><rect x=".5" width="37" height="37" rx="18.5" fill="#679AB4"/><path d="M24.58 19.25c-.165 0-.337-.052-.502-.09a7.079 7.079 0 0 1-.983-.293 1.5 1.5 0 0 0-1.86.75l-.165.338a9.135 9.135 0 0 1-1.995-1.5 9.136 9.136 0 0 1-1.5-1.995l.315-.21a1.5 1.5 0 0 0 .75-1.86 7.745 7.745 0 0 1-.293-.982 5.564 5.564 0 0 1-.09-.51 2.25 2.25 0 0 0-2.25-1.868h-2.25a2.25 2.25 0 0 0-2.25 2.558 14.25 14.25 0 0 0 12.39 12.345h.286a2.25 2.25 0 0 0 2.056-1.334c.129-.29.195-.606.194-.924v-2.25a2.25 2.25 0 0 0-1.853-2.175zm.375 4.5a.749.749 0 0 1-.255.563.75.75 0 0 1-.615.187 12.75 12.75 0 0 1-11.033-11.085.817.817 0 0 1 .188-.615.75.75 0 0 1 .563-.255h2.25a.75.75 0 0 1 .75.592 8.353 8.353 0 0 0 .458 1.77l-1.051.488a.75.75 0 0 0-.368.997 10.867 10.867 0 0 0 5.25 5.25.75.75 0 0 0 .57 0 .749.749 0 0 0 .428-.39l.465-1.05c.388.14.784.254 1.185.345.2.046.402.083.608.113a.75.75 0 0 1 .592.75l.015 2.34zM24.25 17a.75.75 0 0 0 .75-.75v-3a.75.75 0 1 0-1.5 0v3a.75.75 0 0 0 .75.75zm-3 0a.75.75 0 0 0 .75-.75v-3a.75.75 0 1 0-1.5 0v3a.75.75 0 0 0 .75.75z" fill="#fff"/></svg>