<svg width="38" height="37" fill="none" xmlns="http://www.w3.org/2000/svg"><rect x=".5" width="37" height="37" rx="18.5" fill="#679AB4"/><path d="M19.75 21.5h-4.5a.75.75 0 1 0 0 1.5h4.5a.75.75 0 1 0 0-1.5zm-3-4.5h1.5a.75.75 0 1 0 0-1.5h-1.5a.75.75 0 1 0 0 1.5zm9 1.5H23.5v-6.75a.75.75 0 0 0-1.125-.652l-2.25 1.29-2.25-1.29a.75.75 0 0 0-.75 0l-2.25 1.29-2.25-1.29a.75.75 0 0 0-1.125.652v12A2.25 2.25 0 0 0 13.75 26h10.5a2.25 2.25 0 0 0 2.25-2.25v-4.5a.75.75 0 0 0-.75-.75zm-12 6a.75.75 0 0 1-.75-.75V13.047l1.5.855a.81.81 0 0 0 .75 0l2.25-1.29 2.25 1.29a.81.81 0 0 0 .75 0l1.5-.854V23.75c.002.256.048.51.135.75H13.75zM25 23.75a.75.75 0 1 1-1.5 0V20H25v3.75zm-5.25-5.25h-4.5a.75.75 0 1 0 0 1.5h4.5a.75.75 0 1 0 0-1.5z" fill="#fff"/></svg>