<svg width="38" height="37" fill="none" xmlns="http://www.w3.org/2000/svg"><rect x=".5" width="37" height="37" rx="18.5" fill="#679AB4"/><path d="M20.5 18.133h1.815a.75.75 0 0 0 .532-.218l3.435-3.435a.75.75 0 0 0 0-1.065L24.468 11.6a.748.748 0 0 0-1.066 0l-3.434 3.435a.788.788 0 0 0-.218.533v1.815a.75.75 0 0 0 .75.75zm.75-2.25l2.685-2.685.75.75L22 16.631h-.75v-.75zm4.5 1.5a.75.75 0 0 0-.75.75v5.25a.75.75 0 0 1-.75.75h-10.5a.75.75 0 0 1-.75-.75v-7.208l4.41 4.418a2.25 2.25 0 0 0 3.203 0 .75.75 0 1 0-1.073-1.05.75.75 0 0 1-1.05 0l-4.432-4.425H17.5a.75.75 0 1 0 0-1.5h-3.75a2.25 2.25 0 0 0-2.25 2.25v7.5a2.25 2.25 0 0 0 2.25 2.25h10.5a2.25 2.25 0 0 0 2.25-2.25v-5.25a.75.75 0 0 0-.75-.75v.015z" fill="#fff"/></svg>