<svg width="33" height="32" viewBox="0 0 33 32" fill="none" xmlns="http://www.w3.org/2000/svg">
<path opacity="0.25" d="M14.7984 3.15258L7.75893 6.28125C5.72275 7.18622 4.37905 9.21284 4.50861 11.4373C5.01516 20.1338 7.56182 23.9623 14.1792 28.4423C15.9322 29.6292 18.243 29.6321 19.9947 28.4433C26.6324 23.9389 29.0879 20.0562 29.639 11.4674C29.7827 9.22826 28.4368 7.18012 26.3864 6.26884L19.3748 3.15258C17.9181 2.50513 16.2552 2.50513 14.7984 3.15258Z" fill="url(#paint0_linear_69_210054)"/>
<path d="M16.7291 9.09413C14.6688 5.29384 12.4974 12.3964 11.7513 15.1454C11.7069 15.3092 11.5647 15.4267 11.3956 15.4411C8.83645 15.659 7.16699 16.0164 7.16699 16.4206C7.16699 17.0843 11.6681 17.6225 17.2207 17.6225C22.7733 17.6225 27.2745 17.0843 27.2745 16.4206C27.2745 16.0164 25.6051 15.659 23.0459 15.4411C22.8768 15.4267 22.7346 15.3092 22.6902 15.1454C21.944 12.3963 19.7727 5.29383 17.7124 9.09413C17.4957 9.46174 16.9303 9.44741 16.7291 9.09413Z" fill="url(#paint1_linear_69_210054)"/>
<path fill-rule="evenodd" clip-rule="evenodd" d="M23.6525 18.313C23.9383 18.2599 24.1871 18.516 24.1038 18.7945C23.5457 20.6594 22.4987 21.8936 20.9629 22.4973C19.8841 22.8627 18.714 22.6369 17.4526 21.8203C17.3117 21.7291 17.1297 21.7291 16.9888 21.8203C15.7274 22.6369 14.5573 22.8627 13.4785 22.4973C11.9427 21.8936 10.8957 20.6594 10.3376 18.7945C10.2543 18.516 10.5031 18.2599 10.7889 18.313C12.9225 18.7091 15.0664 18.9106 17.2207 18.9177C19.375 18.9106 21.5189 18.7091 23.6525 18.313ZM21.7832 19.5611C21.7446 19.3739 21.5281 19.3153 21.3527 19.3913C20.2474 19.8707 19.5045 20.1929 19.1239 20.3579C18.9492 20.4337 18.849 20.6265 18.9135 20.8057C19.592 22.6893 22.0378 20.7965 21.7832 19.5611ZM12.6584 19.5611C12.6969 19.3739 12.9134 19.3153 13.0888 19.3913C14.1941 19.8707 14.937 20.1929 15.3176 20.3579C15.4923 20.4337 15.5925 20.6265 15.528 20.8057C14.8495 22.6892 12.4037 20.7965 12.6584 19.5611Z" fill="url(#paint2_linear_69_210054)"/>
<defs>
<linearGradient id="paint0_linear_69_210054" x1="10.6906" y1="27.14" x2="61.8213" y2="-26.2698" gradientUnits="userSpaceOnUse">
<stop stop-color="#6B47F5"/>
<stop offset="1" stop-color="white" stop-opacity="0"/>
</linearGradient>
<linearGradient id="paint1_linear_69_210054" x1="12.1165" y1="21.4602" x2="37.9762" y2="-17.807" gradientUnits="userSpaceOnUse">
<stop stop-color="#6B47F5"/>
<stop offset="1" stop-color="white" stop-opacity="0"/>
</linearGradient>
<linearGradient id="paint2_linear_69_210054" x1="12.1165" y1="21.4602" x2="37.9762" y2="-17.807" gradientUnits="userSpaceOnUse">
<stop stop-color="#6B47F5"/>
<stop offset="1" stop-color="white" stop-opacity="0"/>
</linearGradient>
</defs>
</svg>
