<svg width="33" height="32" viewBox="0 0 33 32" fill="none" xmlns="http://www.w3.org/2000/svg">
<path opacity="0.25" d="M10.9163 27.2596V25.5527C10.9163 24.7046 11.4327 23.9419 12.2201 23.627L14.3296 22.7832C15.3311 22.3826 16.4726 22.8165 16.955 23.7813L17.1386 24.1485C17.1386 24.1485 19.7312 23.63 21.8052 21.5559C23.8793 19.4818 24.3978 16.8892 24.3978 16.8892L24.0307 16.7057C23.0659 16.2232 22.6319 15.0818 23.0325 14.0803L23.8763 11.9708C24.1913 11.1833 24.9539 10.667 25.802 10.667H27.5089C28.6544 10.667 29.583 11.5956 29.583 12.7411C29.583 21.9049 22.1542 29.3337 12.9904 29.3337C11.8449 29.3337 10.9163 28.4051 10.9163 27.2596Z" fill="url(#paint0_linear_69_210042)"/>
<path d="M13.9229 19.681C17.573 18.6602 20.2503 15.3096 20.2503 11.3337C20.2503 6.54719 16.3701 2.66699 11.5837 2.66699C6.79719 2.66699 2.91699 6.54719 2.91699 11.3337C2.91699 15.9681 6.55461 19.7529 11.1304 19.9887C10.6995 19.2446 10.5135 18.3242 10.5135 17.3541V16.2773C9.24121 16.0934 8.26724 15.7116 7.60356 15.0294C6.88357 14.2893 6.58366 13.2531 6.58366 11.9153V9.98332C6.58366 8.78039 7.41771 7.78353 8.54857 7.39483V7.33026C8.54857 6.74773 9.06156 6.33366 9.61875 6.33366C10.1759 6.33366 10.6889 6.74773 10.6889 7.33026V9.09896C10.6889 9.68149 10.1759 10.0956 9.61875 10.0956C9.29197 10.0956 8.98044 9.95313 8.77864 9.71785C8.74286 9.80188 8.72401 9.89155 8.72401 9.98332V11.9153C8.72401 12.9161 8.93917 13.4906 9.33929 13.8334C9.75379 14.1886 10.4468 14.3677 11.5837 14.3677C12.7205 14.3677 13.4135 14.1886 13.828 13.8334C14.2282 13.4906 14.4433 12.9161 14.4433 11.9153V9.98332C14.4433 9.89156 14.4245 9.8019 14.3887 9.71789C14.1869 9.95316 13.8753 10.0956 13.5486 10.0956C12.9914 10.0956 12.4784 9.68149 12.4784 9.09896V7.33026C12.4784 6.74773 12.9914 6.33366 13.5486 6.33366C14.1058 6.33366 14.6187 6.74773 14.6187 7.33026V7.39483C15.7496 7.78353 16.5837 8.78039 16.5837 9.98332V11.9153C16.5837 13.2531 16.2838 14.2893 15.5638 15.0294C14.9001 15.7116 13.9261 16.0934 12.6538 16.2773V17.3541C12.6538 17.962 12.7146 18.4783 12.8812 18.8672C13.04 19.2375 13.2929 19.4915 13.7156 19.6061C13.7848 19.6248 13.8545 19.6498 13.9229 19.681Z" fill="url(#paint1_linear_69_210042)"/>
<defs>
<linearGradient id="paint0_linear_69_210042" x1="24.9881" y1="27.7981" x2="-10.6511" y2="-11.6756" gradientUnits="userSpaceOnUse">
<stop stop-color="#6B47F5"/>
<stop offset="1" stop-color="white" stop-opacity="0"/>
</linearGradient>
<linearGradient id="paint1_linear_69_210042" x1="7.18366" y1="18.5638" x2="40.2528" y2="-18.0879" gradientUnits="userSpaceOnUse">
<stop stop-color="#6B47F5"/>
<stop offset="1" stop-color="white" stop-opacity="0"/>
</linearGradient>
</defs>
</svg>
