<svg width="33" height="32" viewBox="0 0 33 32" fill="none" xmlns="http://www.w3.org/2000/svg">
<g opacity="0.25">
<path d="M3.57606 10.2637C3.38125 10.6162 3.36389 11.0486 3.52917 11.4317C3.69445 11.8148 4.02324 12.1041 4.41731 12.2133L14.0415 14.8804L17.1166 16.7354C17.0054 16.5757 21.0854 10.3312 20.9203 10.2316L17.5303 8.18663C17.3652 8.08702 17.1822 8.02463 16.9942 8.00385L7.98352 7.00808C6.48374 6.84233 5.0622 7.57413 4.33799 8.88477L3.57606 10.2637Z" fill="url(#paint0_linear_69_210066)"/>
<path d="M5.44162 21.8841C5.22013 22.285 5.22982 22.7848 5.46704 23.1962C5.70426 23.6076 6.13315 23.8682 6.59278 23.8803L13.1891 23.9656C14.1531 23.978 15.0488 23.4692 15.5316 22.6348L16.4582 21.0335L24.2249 6.97775L25.481 4.63032C26.0013 3.6579 25.1834 2.51018 24.0944 2.68473L21.1417 3.158C19.5216 3.41768 18.1113 4.4086 17.3177 5.8447L10.8083 17.6252L8.89309 17.8192C8.08933 17.9006 7.3861 18.3651 6.99496 19.073L5.44162 21.8841Z" fill="url(#paint1_linear_69_210066)"/>
<path d="M5.44162 21.8841C5.22013 22.285 5.22982 22.7848 5.46704 23.1962C5.70426 23.6076 6.13315 23.8682 6.59278 23.8803L13.1891 23.9656C14.1531 23.978 15.0488 23.4692 15.5316 22.6348L16.4582 21.0335L24.2249 6.97775L25.481 4.63032C26.0013 3.6579 25.1834 2.51018 24.0944 2.68473L21.1417 3.158C19.5216 3.41768 18.1113 4.4086 17.3177 5.8447L10.8083 17.6252L8.89309 17.8192C8.08933 17.9006 7.3861 18.3651 6.99496 19.073L5.44162 21.8841Z" fill="url(#paint2_linear_69_210066)"/>
<path d="M5.44162 21.8841C5.22013 22.285 5.22982 22.7848 5.46704 23.1962C5.70426 23.6076 6.13315 23.8682 6.59278 23.8803L13.1891 23.9656C14.1531 23.978 15.0488 23.4692 15.5316 22.6348L16.4582 21.0335L24.2249 6.97775L25.481 4.63032C26.0013 3.6579 25.1834 2.51018 24.0944 2.68473L21.1417 3.158C19.5216 3.41768 18.1113 4.4086 17.3177 5.8447L10.8083 17.6252L8.89309 17.8192C8.08933 17.9006 7.3861 18.3651 6.99496 19.073L5.44162 21.8841Z" fill="url(#paint3_linear_69_210066)"/>
<path d="M5.44162 21.8841C5.22013 22.285 5.22982 22.7848 5.46704 23.1962C5.70426 23.6076 6.13315 23.8682 6.59278 23.8803L13.1891 23.9656C14.1531 23.978 15.0488 23.4692 15.5316 22.6348L16.4582 21.0335L24.2249 6.97775L25.481 4.63032C26.0013 3.6579 25.1834 2.51018 24.0944 2.68473L21.1417 3.158C19.5216 3.41768 18.1113 4.4086 17.3177 5.8447L10.8083 17.6252L8.89309 17.8192C8.08933 17.9006 7.3861 18.3651 6.99496 19.073L5.44162 21.8841Z" fill="url(#paint4_linear_69_210066)"/>
</g>
<path fill-rule="evenodd" clip-rule="evenodd" d="M24.0835 17.333C20.7713 17.333 18.0835 20.0208 18.0835 23.333C18.0835 26.6452 20.7713 29.333 24.0835 29.333C27.3957 29.333 30.0835 26.6452 30.0835 23.333C30.0835 20.0208 27.3957 17.333 24.0835 17.333ZM24.6016 20.9596C24.6016 20.5654 24.2821 20.2459 23.888 20.2459C23.4938 20.2459 23.1743 20.5654 23.1743 20.9596V23.127C23.1743 23.4471 23.2813 23.7534 23.42 23.9966C23.5585 24.2394 23.7681 24.4874 24.0422 24.6502L25.6791 25.627C26.0175 25.829 26.4556 25.7184 26.6576 25.3799C26.8596 25.0415 26.749 24.6034 26.4105 24.4014L24.7718 23.4234L24.769 23.4218L24.7666 23.4201C24.7666 23.4201 24.7615 23.4163 24.7578 23.4132C24.7502 23.4069 24.7404 23.3979 24.7292 23.3857C24.7062 23.3608 24.6818 23.328 24.6599 23.2895C24.6109 23.2036 24.6016 23.1399 24.6016 23.127V20.9596Z" fill="url(#paint5_linear_69_210066)"/>
<defs>
<linearGradient id="paint0_linear_69_210066" x1="8.88731" y1="22.2137" x2="49.3399" y2="-24.5399" gradientUnits="userSpaceOnUse">
<stop stop-color="#6B47F5"/>
<stop offset="1" stop-color="white" stop-opacity="0"/>
</linearGradient>
<linearGradient id="paint1_linear_69_210066" x1="8.88731" y1="22.2137" x2="49.3399" y2="-24.5399" gradientUnits="userSpaceOnUse">
<stop stop-color="#6B47F5"/>
<stop offset="1" stop-color="white" stop-opacity="0"/>
</linearGradient>
<linearGradient id="paint2_linear_69_210066" x1="8.88731" y1="22.2137" x2="49.3399" y2="-24.5399" gradientUnits="userSpaceOnUse">
<stop stop-color="#6B47F5"/>
<stop offset="1" stop-color="white" stop-opacity="0"/>
</linearGradient>
<linearGradient id="paint3_linear_69_210066" x1="8.88731" y1="22.2137" x2="49.3399" y2="-24.5399" gradientUnits="userSpaceOnUse">
<stop stop-color="#6B47F5"/>
<stop offset="1" stop-color="white" stop-opacity="0"/>
</linearGradient>
<linearGradient id="paint4_linear_69_210066" x1="8.88731" y1="22.2137" x2="49.3399" y2="-24.5399" gradientUnits="userSpaceOnUse">
<stop stop-color="#6B47F5"/>
<stop offset="1" stop-color="white" stop-opacity="0"/>
</linearGradient>
<linearGradient id="paint5_linear_69_210066" x1="21.0373" y1="28.3459" x2="43.9483" y2="2.96992" gradientUnits="userSpaceOnUse">
<stop stop-color="#6B47F5"/>
<stop offset="1" stop-color="white" stop-opacity="0"/>
</linearGradient>
</defs>
</svg>
