<svg width="32" height="32" viewBox="0 0 32 32" fill="none" xmlns="http://www.w3.org/2000/svg">
<path fill-rule="evenodd" clip-rule="evenodd" d="M24.0003 16.0003C26.667 16.0003 29.3337 10.9458 29.3337 8.00033C29.3337 5.05481 26.9458 2.66699 24.0003 2.66699C21.0548 2.66699 18.667 5.05481 18.667 8.00033C18.667 10.9458 21.3337 16.0003 24.0003 16.0003ZM24.0003 10.0003C25.1049 10.0003 26.0003 9.10489 26.0003 8.00033C26.0003 6.89576 25.1049 6.00033 24.0003 6.00033C22.8958 6.00033 22.0003 6.89576 22.0003 8.00033C22.0003 9.10489 22.8958 10.0003 24.0003 10.0003Z" fill="url(#paint0_linear_69_210016)"/>
<path opacity="0.25" d="M11.1818 5.33301C10.0702 5.33301 9.0752 6.02253 8.6849 7.06334L2.6849 23.0633C2.03115 24.8067 3.31989 26.6663 5.18178 26.6663H26.8191C28.681 26.6663 29.9697 24.8067 29.316 23.0633L24.402 9.95935C24.2723 9.98579 24.138 9.99967 24.0004 9.99967C22.8959 9.99967 22.0004 9.10424 22.0004 7.99967C22.0004 7.30221 22.3575 6.68813 22.8987 6.33022C22.4016 5.71121 21.6424 5.33301 20.8191 5.33301H11.1818Z" fill="url(#paint1_linear_69_210016)"/>
<path fill-rule="evenodd" clip-rule="evenodd" d="M24 16.0003C26.6667 16.0003 29.3333 10.9458 29.3333 8.00033C29.3333 5.05481 26.9455 2.66699 24 2.66699C21.0545 2.66699 18.6667 5.05481 18.6667 8.00033C18.6667 10.9458 21.3333 16.0003 24 16.0003ZM24 10.0003C25.1046 10.0003 26 9.1049 26 8.00033C26 6.89576 25.1046 6.00033 24 6.00033C22.8954 6.00033 22 6.89576 22 8.00033C22 9.1049 22.8954 10.0003 24 10.0003Z" fill="url(#paint2_linear_69_210016)"/>
<path fill-rule="evenodd" clip-rule="evenodd" d="M16 20.3337C15.4477 20.3337 15 20.7814 15 21.3337V22.667C15 23.2193 15.4477 23.667 16 23.667C16.5523 23.667 17 23.2193 17 22.667V21.3337C17 20.7814 16.5523 20.3337 16 20.3337Z" fill="url(#paint3_linear_69_210016)"/>
<path fill-rule="evenodd" clip-rule="evenodd" d="M16 14.3337C15.4477 14.3337 15 14.7814 15 15.3337V16.667C15 17.2193 15.4477 17.667 16 17.667C16.5523 17.667 17 17.2193 17 16.667V15.3337C17 14.7814 16.5523 14.3337 16 14.3337Z" fill="url(#paint4_linear_69_210016)"/>
<path fill-rule="evenodd" clip-rule="evenodd" d="M16 8.33366C15.4477 8.33366 15 8.78137 15 9.33366V10.667C15 11.2193 15.4477 11.667 16 11.667C16.5523 11.667 17 11.2193 17 10.667V9.33366C17 8.78137 16.5523 8.33366 16 8.33366Z" fill="url(#paint5_linear_69_210016)"/>
<defs>
<linearGradient id="paint0_linear_69_210016" x1="21.2926" y1="14.9035" x2="46.6962" y2="-7.6059" gradientUnits="userSpaceOnUse">
<stop stop-color="#6B47F5"/>
<stop offset="1" stop-color="white" stop-opacity="0"/>
</linearGradient>
<linearGradient id="paint1_linear_69_210016" x1="9.15282" y1="24.9114" x2="47.8784" y2="-29.3246" gradientUnits="userSpaceOnUse">
<stop stop-color="#6B47F5"/>
<stop offset="1" stop-color="white" stop-opacity="0"/>
</linearGradient>
<linearGradient id="paint2_linear_69_210016" x1="18.5282" y1="21.9395" x2="57.3047" y2="-7.3745" gradientUnits="userSpaceOnUse">
<stop stop-color="#6B47F5"/>
<stop offset="1" stop-color="white" stop-opacity="0"/>
</linearGradient>
<linearGradient id="paint3_linear_69_210016" x1="18.5282" y1="21.9395" x2="57.3047" y2="-7.3745" gradientUnits="userSpaceOnUse">
<stop stop-color="#6B47F5"/>
<stop offset="1" stop-color="white" stop-opacity="0"/>
</linearGradient>
<linearGradient id="paint4_linear_69_210016" x1="18.5282" y1="21.9395" x2="57.3047" y2="-7.3745" gradientUnits="userSpaceOnUse">
<stop stop-color="#6B47F5"/>
<stop offset="1" stop-color="white" stop-opacity="0"/>
</linearGradient>
<linearGradient id="paint5_linear_69_210016" x1="18.5282" y1="21.9395" x2="57.3047" y2="-7.3745" gradientUnits="userSpaceOnUse">
<stop stop-color="#6B47F5"/>
<stop offset="1" stop-color="white" stop-opacity="0"/>
</linearGradient>
</defs>
</svg>
