<svg width="18" height="14" viewBox="0 0 18 14" fill="none" xmlns="http://www.w3.org/2000/svg">
<path d="M9.03262 7.165C9.4328 6.8186 9.75378 6.39016 9.97377 5.90877C10.1938 5.42737 10.3076 4.90428 10.3076 4.375C10.3076 3.38044 9.91253 2.42661 9.20927 1.72335C8.50601 1.02009 7.55218 0.625 6.55762 0.625C5.56306 0.625 4.60923 1.02009 3.90597 1.72335C3.20271 2.42661 2.80762 3.38044 2.80762 4.375C2.80761 4.90428 2.92147 5.42737 3.14146 5.90877C3.36145 6.39016 3.68243 6.8186 4.08262 7.165C3.03272 7.64041 2.14197 8.40815 1.51685 9.37641C0.891739 10.3447 0.558721 11.4725 0.557617 12.625C0.557617 12.8239 0.636635 13.0147 0.777287 13.1553C0.917939 13.296 1.1087 13.375 1.30762 13.375C1.50653 13.375 1.6973 13.296 1.83795 13.1553C1.9786 13.0147 2.05762 12.8239 2.05762 12.625C2.05762 11.4315 2.53172 10.2869 3.37564 9.44302C4.21955 8.59911 5.36414 8.125 6.55762 8.125C7.75109 8.125 8.89568 8.59911 9.7396 9.44302C10.5835 10.2869 11.0576 11.4315 11.0576 12.625C11.0576 12.8239 11.1366 13.0147 11.2773 13.1553C11.4179 13.296 11.6087 13.375 11.8076 13.375C12.0065 13.375 12.1973 13.296 12.3379 13.1553C12.4786 13.0147 12.5576 12.8239 12.5576 12.625C12.5565 11.4725 12.2235 10.3447 11.5984 9.37641C10.9733 8.40815 10.0825 7.64041 9.03262 7.165ZM6.55762 6.625C6.11261 6.625 5.6776 6.49304 5.30758 6.24581C4.93757 5.99857 4.64919 5.64717 4.47889 5.23604C4.30859 4.8249 4.26403 4.3725 4.35085 3.93605C4.43767 3.49959 4.65196 3.09868 4.96663 2.78401C5.2813 2.46934 5.68221 2.25505 6.11866 2.16823C6.55512 2.08142 7.00752 2.12597 7.41866 2.29627C7.82979 2.46657 8.18119 2.75496 8.42842 3.12497C8.67566 3.49498 8.80762 3.92999 8.80762 4.375C8.80762 4.97174 8.57057 5.54403 8.14861 5.96599C7.72665 6.38795 7.15436 6.625 6.55762 6.625ZM13.8626 6.865C14.3426 6.3245 14.6561 5.65679 14.7655 4.94225C14.8748 4.22772 14.7753 3.49681 14.4789 2.8375C14.1826 2.17819 13.702 1.6186 13.095 1.22607C12.488 0.833538 11.7805 0.624807 11.0576 0.625C10.8587 0.625 10.6679 0.704018 10.5273 0.84467C10.3866 0.985322 10.3076 1.17609 10.3076 1.375C10.3076 1.57391 10.3866 1.76468 10.5273 1.90533C10.6679 2.04598 10.8587 2.125 11.0576 2.125C11.6544 2.125 12.2267 2.36205 12.6486 2.78401C13.0706 3.20597 13.3076 3.77826 13.3076 4.375C13.3066 4.76893 13.2021 5.15568 13.0047 5.49657C12.8072 5.83745 12.5238 6.12054 12.1826 6.3175C12.0714 6.38164 11.9785 6.47325 11.9129 6.58356C11.8472 6.69386 11.811 6.81918 11.8076 6.9475C11.8045 7.07482 11.8338 7.20085 11.8929 7.31369C11.9519 7.42654 12.0387 7.52249 12.1451 7.5925L12.4376 7.7875L12.5351 7.84C13.4392 8.26879 14.2019 8.94699 14.7334 9.79474C15.2649 10.6425 15.543 11.6245 15.5351 12.625C15.5351 12.8239 15.6141 13.0147 15.7548 13.1553C15.8954 13.296 16.0862 13.375 16.2851 13.375C16.484 13.375 16.6748 13.296 16.8154 13.1553C16.9561 13.0147 17.0351 12.8239 17.0351 12.625C17.0412 11.4741 16.753 10.3407 16.1977 9.33255C15.6425 8.3244 14.8386 7.47498 13.8626 6.865Z" fill="#455560"/>
</svg>
