<svg width="16" height="14" viewBox="0 0 16 14" fill="none" xmlns="http://www.w3.org/2000/svg">
<path d="M14.75 5.875H14V5.125C14 4.92609 13.921 4.73532 13.7803 4.59467C13.6397 4.45402 13.4489 4.375 13.25 4.375C13.0511 4.375 12.8603 4.45402 12.7197 4.59467C12.579 4.73532 12.5 4.92609 12.5 5.125V5.875H11.75C11.5511 5.875 11.3603 5.95402 11.2197 6.09467C11.079 6.23532 11 6.42609 11 6.625C11 6.82391 11.079 7.01468 11.2197 7.15533C11.3603 7.29598 11.5511 7.375 11.75 7.375H12.5V8.125C12.5 8.32391 12.579 8.51468 12.7197 8.65533C12.8603 8.79598 13.0511 8.875 13.25 8.875C13.4489 8.875 13.6397 8.79598 13.7803 8.65533C13.921 8.51468 14 8.32391 14 8.125V7.375H14.75C14.9489 7.375 15.1397 7.29598 15.2803 7.15533C15.421 7.01468 15.5 6.82391 15.5 6.625C15.5 6.42609 15.421 6.23532 15.2803 6.09467C15.1397 5.95402 14.9489 5.875 14.75 5.875ZM8.975 7.165C9.37518 6.8186 9.69616 6.39016 9.91616 5.90877C10.1361 5.42737 10.25 4.90428 10.25 4.375C10.25 3.38044 9.85491 2.42661 9.15165 1.72335C8.44839 1.02009 7.49456 0.625 6.5 0.625C5.50544 0.625 4.55161 1.02009 3.84835 1.72335C3.14509 2.42661 2.75 3.38044 2.75 4.375C2.74999 4.90428 2.86385 5.42737 3.08384 5.90877C3.30384 6.39016 3.62482 6.8186 4.025 7.165C2.9751 7.64041 2.08435 8.40815 1.45924 9.37641C0.834121 10.3447 0.501104 11.4725 0.5 12.625C0.5 12.8239 0.579018 13.0147 0.71967 13.1553C0.860322 13.296 1.05109 13.375 1.25 13.375C1.44891 13.375 1.63968 13.296 1.78033 13.1553C1.92098 13.0147 2 12.8239 2 12.625C2 11.4315 2.47411 10.2869 3.31802 9.44302C4.16193 8.59911 5.30653 8.125 6.5 8.125C7.69347 8.125 8.83807 8.59911 9.68198 9.44302C10.5259 10.2869 11 11.4315 11 12.625C11 12.8239 11.079 13.0147 11.2197 13.1553C11.3603 13.296 11.5511 13.375 11.75 13.375C11.9489 13.375 12.1397 13.296 12.2803 13.1553C12.421 13.0147 12.5 12.8239 12.5 12.625C12.4989 11.4725 12.1659 10.3447 11.5408 9.37641C10.9157 8.40815 10.0249 7.64041 8.975 7.165ZM6.5 6.625C6.05499 6.625 5.61998 6.49304 5.24997 6.24581C4.87996 5.99857 4.59157 5.64717 4.42127 5.23604C4.25097 4.8249 4.20642 4.3725 4.29323 3.93605C4.38005 3.49959 4.59434 3.09868 4.90901 2.78401C5.22368 2.46934 5.62459 2.25505 6.06105 2.16823C6.4975 2.08142 6.9499 2.12597 7.36104 2.29627C7.77217 2.46657 8.12357 2.75496 8.37081 3.12497C8.61804 3.49498 8.75 3.92999 8.75 4.375C8.75 4.97174 8.51295 5.54403 8.09099 5.96599C7.66903 6.38795 7.09674 6.625 6.5 6.625Z" fill="white"/>
</svg>
