<svg width="22" height="16" viewBox="0 0 22 16" fill="none" xmlns="http://www.w3.org/2000/svg">
<g clip-path="url(#clip0_3886_39079)">
<rect x="0.399902" y="0.5" width="21" height="15" rx="3" fill="#F93939"/>
<path d="M19.3999 0.5H2.3999C1.29533 0.5 0.399902 1.39543 0.399902 2.5V13.5C0.399902 14.6046 1.29533 15.5 2.3999 15.5H19.3999C20.5045 15.5 21.3999 14.6046 21.3999 13.5V2.5C21.3999 1.39543 20.5045 0.5 19.3999 0.5Z" fill="#F93939"/>
<path fill-rule="evenodd" clip-rule="evenodd" d="M6.3999 10.5H21.3999V15.5H6.3999V10.5Z" fill="#249F58"/>
<path fill-rule="evenodd" clip-rule="evenodd" d="M6.40011 0.5H21.4001V5.5H6.40011V0.5ZM4.97611 4.403C4.92111 4.486 4.85811 4.563 4.78611 4.636C4.19911 5.222 3.24911 5.222 2.66411 4.636C2.07811 4.051 2.07811 3.101 2.66411 2.516C2.73611 2.442 2.81411 2.379 2.89711 2.324C2.67211 2.744 2.85711 3.416 3.37111 3.929C3.88511 4.441 4.55611 4.627 4.97711 4.402L4.97611 4.403Z" fill="white"/>
<path fill-rule="evenodd" clip-rule="evenodd" d="M2.82375 4.40322C2.87875 4.48622 2.94175 4.56322 3.01375 4.63622C3.60075 5.22222 4.55075 5.22222 5.13575 4.63622C5.72175 4.05122 5.72175 3.10122 5.13575 2.51622C5.06375 2.44222 4.98575 2.37922 4.90275 2.32422C5.12775 2.74422 4.94275 3.41622 4.42875 3.92922C3.91475 4.44122 3.24375 4.62722 2.82275 4.40222L2.82375 4.40322Z" fill="white"/>
</g>
<defs>
<clipPath id="clip0_3886_39079">
<rect x="0.399902" y="0.5" width="21" height="15" rx="3" fill="white"/>
</clipPath>
</defs>
</svg>
