<svg width="23" height="16" viewBox="0 0 23 16" fill="none"
                                                xmlns="http://www.w3.org/2000/svg">
                                                <path
                                                    d="M23 13.6385C23 14.8998 21.9984 15.9014 20.7742 15.9014H2.22581C1.00161 15.9014 0 14.8998 0 13.6385V2.36105C0 1.09976 1.00161 0.0981445 2.22581 0.0981445H20.7742C21.9984 0.0981445 23 1.09976 23 2.36105V13.6385Z"
                                                    fill="#469369"></path>
                                                <path
                                                    d="M2.81831 3.69655C2.9667 3.58526 2.9667 3.88203 2.81831 4.21591C2.8925 4.10462 3.04089 3.84494 3.00379 3.65945C2.9667 3.39978 2.81831 3.43687 2.70702 3.58526C2.63283 3.69655 2.66992 3.77074 2.81831 3.69655Z"
                                                    fill="white"></path>
                                                <path
                                                    d="M2.85579 5.81113C3.04127 5.47726 2.96708 5.21758 3.11547 4.73532C3.22676 4.43855 3.22676 4.66113 3.22676 4.84661C3.15256 5.32887 3.18966 6.1079 3.8574 6.07081C3.8945 6.51597 4.00579 7.295 4.00579 7.59177C4.00579 7.85145 4.04289 7.77726 4.11708 7.62887C4.19127 7.48048 4.15418 7.295 4.15418 7.07242C4.15418 6.84984 4.11708 6.44177 4.07998 5.88532C4.15418 5.81113 4.26547 5.69984 4.30256 5.62565C4.37676 5.44016 4.41386 5.47726 4.45095 5.62565C4.52515 5.92242 4.82192 6.1079 5.19289 5.81113C5.56385 5.55145 5.41547 5.0321 5.22998 4.47564C5.37837 4.51274 5.41547 4.40145 5.34127 4.25306C5.30418 4.17887 5.22998 4.10468 5.19289 4.03048C5.11869 3.95629 5.0816 3.8821 5.0074 3.95629C4.93321 4.03048 4.89611 4.10468 4.85902 4.14177C4.82192 4.17887 4.82192 4.25306 4.85902 4.36435C5.0074 4.69823 5.0816 5.06919 5.11869 5.25468C5.15579 5.44016 5.0816 5.47726 4.93321 5.47726C4.82192 5.47726 4.63644 5.44016 4.56224 5.14339C4.48805 4.84661 4.45095 4.73532 4.48805 4.51274C4.48805 4.32726 4.52515 4.17887 4.37676 3.99339C4.22837 3.8079 4.22837 3.845 4.19127 3.91919C4.15418 4.03048 4.11708 4.17887 4.15418 4.36435C4.22837 4.62403 4.26547 4.84661 4.30256 4.995C4.33966 5.10629 4.22837 5.32887 4.04289 5.44016C4.00579 5.06919 3.96869 4.62403 3.9316 4.21597C4.15418 4.14177 4.04289 3.8821 3.8574 3.58532C3.74611 3.36274 3.67192 3.43694 3.59773 3.58532C3.52353 3.73371 3.56063 3.8079 3.63482 3.91919C3.59773 4.03048 3.67192 4.17887 3.70902 4.43855C3.74611 4.62403 3.78321 5.10629 3.78321 5.51435C3.63482 5.51435 3.52353 5.40306 3.44934 5.25468C3.33805 4.9579 3.33805 4.66113 3.41224 4.51274C3.48644 4.32726 3.52353 4.06758 3.41224 3.99339C3.30095 3.91919 3.18966 3.99339 3.11547 4.14177C2.96708 4.36435 2.81869 4.66113 2.81869 4.995C2.81869 5.10629 2.7816 5.36597 2.7074 5.47726C2.67031 5.58855 2.55902 5.58855 2.48482 5.44016C2.33644 5.21758 2.29934 4.62403 2.29934 4.32726C2.29934 4.17887 2.26224 4.14177 2.22515 4.32726C2.07676 4.92081 2.26224 5.51435 2.37353 5.77403C2.55902 6.1079 2.7445 6.03371 2.85579 5.81113Z"
                                                    fill="white"></path>
                                                <path
                                                    d="M4.63636 3.88209C4.71055 3.80789 4.71055 3.80789 4.74765 3.88209C4.78475 3.95628 4.89604 3.95628 4.93313 3.88209C4.97023 3.80789 5.00733 3.7708 4.97023 3.65951C4.93313 3.58531 4.93313 3.62241 4.89604 3.6966C4.85894 3.84499 4.71055 3.80789 4.71055 3.62241C4.71055 3.43693 4.67346 3.54822 4.59926 3.65951C4.52507 3.84499 4.41378 3.80789 4.41378 3.62241C4.41378 3.51112 4.37668 3.39983 4.30249 3.54822C4.26539 3.65951 4.30249 3.7708 4.33959 3.84499C4.45088 3.95628 4.56217 3.95628 4.63636 3.88209Z"
                                                    fill="white"></path>
                                                <path
                                                    d="M3.52329 6.66435C3.63458 6.62725 3.63458 6.62725 3.63458 6.47887C3.63458 6.33048 3.56039 6.40467 3.412 6.44177C3.18942 6.51596 2.74426 6.73855 2.41039 7.14661C2.262 7.33209 2.37329 7.2579 2.48458 7.18371C2.67006 7.03532 3.22652 6.73854 3.52329 6.66435Z"
                                                    fill="white"></path>
                                                <path
                                                    d="M2.78117 9.03853C2.66988 9.22401 2.4473 8.96434 2.59568 8.48208C2.63278 8.37079 2.66988 8.2966 2.66988 8.2224C2.66988 8.14821 2.66988 8.07401 2.66988 7.96272C2.66988 7.88853 2.59568 7.99982 2.55859 8.14821C2.52149 8.37079 2.3731 8.48208 2.4102 9.18692C2.4473 9.59498 2.92956 9.59498 2.96665 9.07563C2.96665 8.85305 2.89246 8.85305 2.78117 9.03853Z"
                                                    fill="white"></path>
                                                <path
                                                    d="M6.08358 7.48044C6.08358 7.29495 6.04648 7.10947 6.04648 6.92398C6.08358 6.92398 6.08358 6.88689 6.12068 6.88689C6.23197 7.22076 6.71423 7.14656 6.86261 6.92398C6.93681 6.81269 6.93681 6.81269 7.011 6.92398C7.12229 7.07237 7.49326 7.14656 7.56745 6.92398C7.64165 6.7014 7.64165 6.47882 7.60455 6.33044C7.56745 6.14495 7.53036 6.18205 7.41907 6.25624C7.30778 6.33044 7.38197 6.36753 7.41907 6.47882C7.45616 6.92398 7.08519 6.88689 7.0481 6.44173C7.011 6.14495 6.9739 6.25624 6.93681 6.40463C6.75132 6.96108 6.26907 7.07237 6.34326 6.40463C6.34326 6.21915 6.23197 6.29334 6.15778 6.36753C6.12068 6.40463 6.04648 6.47882 6.00939 6.51592C5.97229 5.99657 5.93519 5.40302 5.861 4.66108C6.00939 4.84657 6.15777 4.62398 6.04648 4.4385C5.97229 4.29011 5.861 3.91915 5.78681 3.73366C5.71261 3.54818 5.67552 3.58527 5.52713 3.77076C5.37874 3.91915 5.41584 3.95624 5.45294 4.14173C5.45294 4.36431 5.45294 4.54979 5.52713 4.95785C5.56423 5.25463 5.63842 5.88527 5.71261 6.66431C5.63842 6.7014 5.52713 6.7756 5.45294 6.81269C5.41584 6.66431 5.30455 6.59011 5.15616 6.44173C4.93358 6.21915 4.78519 6.21915 4.59971 6.47882C4.41423 6.7385 4.45132 6.7756 4.45132 7.03527C4.45132 7.25786 4.41423 7.33205 4.59971 7.40624C4.78519 7.48044 4.85939 7.44334 4.97068 7.40624C5.04487 7.36915 5.15616 7.33205 5.30455 7.29495C5.34165 7.40624 5.30455 7.55463 5.23036 7.62882C4.78519 8.14818 4.11745 8.55624 3.82068 8.18527C3.67229 7.99979 3.5981 7.70302 3.63519 7.33205C3.67229 7.03527 3.5981 7.18366 3.561 7.25786C3.44971 7.59173 3.41261 8.11108 3.561 8.37076C3.74648 8.74173 4.08036 8.89011 4.59971 8.63044C5.11907 8.40786 5.60132 7.99979 5.60132 7.44334C5.60132 7.33205 5.60132 7.25785 5.60132 7.18366C5.67552 7.14656 5.74971 7.10947 5.78681 7.07237C5.78681 7.25786 5.78681 7.51753 5.78681 7.70302C5.8239 8.29657 5.56423 8.48205 5.34165 8.66753C5.04487 8.89011 4.63681 9.0756 4.26584 9.11269C3.44971 9.22398 3.26423 8.70463 3.26423 7.99979C3.26423 7.8885 3.30132 7.81431 3.30132 7.66592C3.30132 7.36915 3.26423 7.40624 3.15294 7.70302C3.07874 7.99979 2.96745 8.66753 3.22713 9.22398C3.5239 9.78044 4.48842 9.63205 5.23036 9.26108C6.04648 8.85302 6.12068 8.18527 6.08358 7.48044ZM5.04487 6.92398C4.85939 6.99818 4.78519 6.88689 4.82229 6.7756C4.82229 6.66431 4.85939 6.59011 5.00777 6.66431C5.08197 6.7014 5.15616 6.7756 5.23036 6.88689C5.11907 6.92398 5.08197 6.92398 5.04487 6.92398Z"
                                                    fill="white"></path>
                                                <path
                                                    d="M6.93614 8.11112C7.01033 7.96273 7.04743 7.81435 7.01033 7.62886C6.97323 7.51757 7.01033 7.48047 6.89904 7.40628C6.78775 7.36918 6.75065 7.44338 6.71355 7.51757C6.67646 7.62886 6.75065 7.77725 6.89904 7.70306C6.93614 7.77725 6.89904 7.96273 6.86194 8.07402C6.82484 8.22241 6.86194 8.25951 6.93614 8.11112Z"
                                                    fill="white"></path>
                                                <path
                                                    d="M7.23327 5.10627C7.08489 5.29175 6.9736 5.55143 7.19618 5.69982C7.30747 5.77401 7.53005 5.66272 7.60424 5.51433C7.67843 5.32885 7.64134 5.29175 7.49295 5.47724C7.30747 5.69982 7.08489 5.51433 7.30747 5.18046C7.45585 4.95788 7.34456 4.92079 7.23327 5.10627Z"
                                                    fill="white"></path>
                                                <path
                                                    d="M6.60267 5.14336C7.12202 4.92078 7.4188 4.62401 7.56718 4.36433C7.71557 4.40143 7.75267 4.29014 7.67847 4.17885C7.71557 4.06756 7.75267 3.99336 7.78976 3.91917C7.90105 3.43691 7.4188 3.39982 7.30751 3.77078C7.23331 3.95627 7.23331 4.14175 7.3817 4.25304C7.15912 4.54982 6.86234 4.80949 6.49138 5.03207C6.34299 5.18046 6.38009 5.25465 6.60267 5.14336ZM7.49299 3.84498C7.53009 3.73369 7.60428 3.80788 7.60428 3.88207C7.60428 3.91917 7.56718 3.99336 7.53009 4.03046C7.45589 3.99336 7.45589 3.91917 7.49299 3.84498Z"
                                                    fill="white"></path>
                                                <path
                                                    d="M7.30751 3.77078C7.23331 3.95627 7.23331 4.14175 7.3817 4.25304C7.3446 4.29014 7.3085 4.36424 7.2714 4.40134L7.45689 4.54972C7.49398 4.47553 7.56818 4.43843 7.60527 4.36424C7.75366 4.40134 7.79076 4.29005 7.71656 4.17876C7.75366 4.06747 7.79076 3.99327 7.82785 3.91908C7.90205 3.43682 7.45589 3.39982 7.30751 3.77078ZM7.60428 3.88207C7.60428 3.91917 7.56718 3.99336 7.53009 4.03046C7.45589 3.99336 7.45589 3.91917 7.49299 3.84498C7.53009 3.73369 7.60428 3.80788 7.60428 3.88207Z"
                                                    fill="white"></path>
                                                <path
                                                    d="M7.86501 8.11111C7.79082 8.14821 7.67953 8.2595 7.60533 8.3337C7.60533 8.18531 7.64243 7.96273 7.64243 7.88853C7.64243 7.77724 7.60533 7.74015 7.53114 7.85144C7.41985 8.07402 7.30856 8.37079 7.27146 8.59337C6.78921 8.92724 6.19566 9.26112 5.78759 9.4466C5.60211 9.52079 5.7134 9.59499 5.86179 9.55789C6.41824 9.37241 6.8634 9.22402 7.27146 9.03853C7.30856 9.37241 7.41985 9.59499 7.71662 9.66918C8.27308 9.81757 8.82953 9.33531 9.46017 8.48208C9.60856 8.89015 9.97953 9.4466 10.944 9.59499C11.3521 9.66918 11.315 9.63208 11.3892 9.4095C11.4263 9.22402 11.5005 9.18692 11.1666 9.11273C10.7586 8.96434 10.6102 8.66757 11.0182 8.48208C11.4263 8.2966 11.9828 8.14821 12.3537 8.07402C12.6134 8.03692 12.6876 8.03692 12.7618 7.81434C12.836 7.55466 12.8731 7.51757 12.6134 7.55466C12.3166 7.59176 10.9069 7.62886 10.536 7.59176C10.8328 7.44337 11.2408 7.29499 11.5376 7.1837C11.6489 7.25789 11.686 7.22079 11.6489 7.1466C11.7602 7.1095 11.8715 7.07241 11.9828 6.99821C12.3166 6.81273 12.465 6.40466 12.094 6.14499C11.7231 5.88531 11.4263 5.81111 11.2408 6.07079C11.0924 6.29337 10.944 6.51595 11.1666 6.81273C10.8328 6.92402 10.536 7.03531 10.2392 7.1466C10.0166 7.22079 9.90533 7.25789 9.83114 7.55466C9.75695 7.85144 9.71985 7.85144 10.0166 7.88853C10.4247 7.88853 10.7957 7.88853 11.0553 8.11111C10.6473 8.2595 10.3505 8.55628 10.4989 8.96434C10.3134 8.92724 10.1279 8.85305 9.97953 8.70466C9.68275 8.40789 9.68275 7.88853 9.57146 7.29499C9.46017 6.70144 9.2005 6.18208 9.0892 5.9595C9.01501 5.73692 8.97791 5.84821 8.90372 5.9966C8.82953 6.14499 8.75533 6.21918 8.82953 6.44176C8.97791 6.81273 9.2005 7.55466 9.31179 7.99983C9.08921 8.51918 8.49566 9.14982 8.0134 9.22402C7.64243 9.29821 7.53114 9.07563 7.56824 8.89015C7.82791 8.74176 8.0505 8.55628 8.27308 8.3337C8.71824 7.85144 8.79243 7.48047 8.49566 6.70144C8.68114 6.73853 8.64404 6.59015 8.38437 6.25628C8.19888 6.0337 8.16179 6.07079 8.0505 6.29337C7.9763 6.47886 7.90211 6.62724 8.12469 6.70144C8.16179 6.81273 8.23598 6.96112 8.34727 7.1466C8.56985 7.62886 8.19888 7.81434 7.86501 8.11111ZM11.3892 6.47886C11.3892 6.36757 11.4263 6.36757 11.6118 6.47886C11.7973 6.59015 11.9457 6.62724 11.686 6.66434C11.6118 6.70144 11.5005 6.70144 11.4263 6.73853C11.4263 6.62724 11.4263 6.55305 11.3892 6.47886Z"
                                                    fill="white"></path>
                                                <path
                                                    d="M12.5756 7.55459C12.3902 7.55459 11.574 7.59169 11.0176 7.59169L11.7595 8.22234C11.945 8.14814 12.1676 8.11105 12.316 8.07395C12.5756 8.03685 12.6498 8.03685 12.724 7.81427C12.7982 7.55459 12.8353 7.5175 12.5756 7.55459Z"
                                                    fill="white"></path>
                                                <path
                                                    d="M8.94043 5.81106L9.01462 5.88525C9.01462 5.81106 8.97753 5.81106 8.94043 5.81106Z"
                                                    fill="white"></path>
                                                <path
                                                    d="M10.8319 7.40626C11.0545 7.29497 11.3142 7.22077 11.4996 7.14658C11.6109 7.22077 11.648 7.18367 11.6109 7.10948C11.7222 7.07238 11.8335 7.03529 11.9448 6.96109C12.2787 6.77561 12.4271 6.36755 12.0561 6.10787C11.6851 5.84819 11.3883 5.774 11.2029 6.03367C11.0545 6.25626 10.9061 6.47884 11.1287 6.77561C10.869 6.8498 10.6464 6.924 10.4238 7.03529L10.8319 7.40626ZM11.648 6.47884C11.8335 6.59013 11.9819 6.62722 11.7222 6.66432C11.648 6.70142 11.5367 6.70142 11.4625 6.73851C11.4254 6.62722 11.4254 6.55303 11.4254 6.51593C11.3883 6.36755 11.4625 6.36755 11.648 6.47884Z"
                                                    fill="white"></path>
                                                <path
                                                    d="M12.2415 9.48365C12.3528 9.44656 12.5383 9.33526 12.6867 9.22397C12.835 9.07559 12.7238 9.11268 12.6125 9.14978C12.5012 9.18688 12.3899 9.26107 12.2415 9.29817C12.0931 9.37236 12.056 9.29817 12.1302 9.03849C12.2044 8.81591 12.1302 8.81591 12.0189 8.85301C11.9076 8.8901 11.8705 8.9643 11.7592 9.03849C11.685 9.07559 11.685 9.14978 11.8705 9.07559C12.0189 9.00139 11.9818 9.07559 11.9447 9.26107C11.8705 9.44656 11.9818 9.55785 12.2415 9.48365Z"
                                                    fill="white"></path>
                                                <path
                                                    d="M8.79196 5.4401C8.90325 5.18042 8.97744 4.92074 9.05164 4.73526C9.12583 4.54977 9.20002 4.58687 9.16293 4.77235C9.12583 5.10623 9.12583 5.62558 9.4597 5.84816C9.79357 6.03365 10.3129 5.69977 10.4984 5.32881C11.0549 6.03364 11.5371 5.69977 11.5742 5.03203C11.5742 4.80945 11.5 4.36429 11.4258 4.2159C11.3516 4.06752 11.4258 4.06752 11.5 4.14171C11.5742 4.2159 11.7226 4.2901 11.6484 4.03042C11.5742 3.80784 11.4629 3.65945 11.3516 3.54816C11.2403 3.43687 11.2032 3.51106 11.1662 3.58526C11.1291 3.65945 11.1291 3.69655 11.0549 3.77074C10.9807 3.84494 11.0178 3.88203 11.0549 3.99332C11.2774 4.51268 11.4629 5.29171 11.1291 5.3659C10.8323 5.4401 10.6468 4.77235 10.6468 4.47558C10.6468 4.10461 10.5726 3.77074 10.4984 3.54816C10.4242 3.32558 10.3871 3.32558 10.3129 3.43687C10.2758 3.51106 10.2758 3.58526 10.2016 3.65945C10.1645 3.73364 10.2016 3.77074 10.2387 3.91913C10.4242 4.77235 10.3871 5.14332 10.0162 5.3659C9.64518 5.58848 9.4226 5.3659 9.4226 5.10623C9.4226 4.84655 9.4226 4.51268 9.4597 4.2901C9.4968 4.06752 9.53389 3.99332 9.4597 3.88203C9.38551 3.77074 9.31131 3.80784 9.20002 3.95623C8.97744 4.2901 8.71776 4.84655 8.64357 5.10623C8.56938 5.3659 8.38389 5.29171 8.2726 5.06913C8.12422 4.80945 8.16131 4.32719 8.19841 4.10461C8.23551 3.91913 8.23551 3.84494 8.12422 4.03042C7.93873 4.54977 7.93873 5.06913 8.3468 5.51429C8.53228 5.84816 8.68067 5.69977 8.79196 5.4401Z"
                                                    fill="white"></path>
                                                <path
                                                    d="M9.83101 4.4385C9.83101 4.54979 9.83101 4.69818 9.9052 4.4756C9.9423 4.25302 9.9423 3.95624 9.86811 3.77076C9.79391 3.58528 9.75682 3.54818 9.68262 3.62237C9.60843 3.69657 9.60843 3.73366 9.68262 3.80786C9.75682 3.91915 9.86811 4.17883 9.83101 4.4385Z"
                                                    fill="white"></path>
                                                <path
                                                    d="M10.6101 6.18199C10.6101 6.47876 10.5359 6.47876 10.4246 6.18199C10.3875 6.0707 10.3504 6.0707 10.3133 6.21909C10.3133 6.47877 10.202 6.51586 10.1278 6.25618C10.0907 6.14489 10.0907 6.0336 10.0536 6.21909C10.0165 6.36747 10.0536 6.47877 10.1278 6.59006C10.202 6.66425 10.3133 6.66425 10.3504 6.55296C10.3875 6.44167 10.4246 6.44167 10.4988 6.51586C10.573 6.59005 10.8698 6.51586 10.7214 6.1078C10.6472 5.95941 10.6101 5.99651 10.6101 6.18199Z"
                                                    fill="white"></path>
                                                <path
                                                    d="M13.6142 3.84497C13.7255 3.91917 13.8368 4.10465 13.7997 4.32723C13.7626 4.51272 13.7997 4.62401 13.911 4.36433C14.0223 4.10465 13.9481 3.80788 13.8368 3.62239C13.7255 3.43691 13.6884 3.5111 13.6142 3.5853C13.54 3.69659 13.5029 3.80788 13.6142 3.84497Z"
                                                    fill="white"></path>
                                                <path
                                                    d="M11.7227 3.95622C11.7227 4.06751 11.7598 4.1417 11.9082 4.1788C12.205 4.58686 12.5388 5.03203 12.8356 5.44009C12.8727 5.81106 12.9469 6.18203 12.984 6.5159C13.0582 7.25783 13.2066 8.25945 13.0953 8.70461C13.0211 9.03848 13.0953 9.14977 13.2437 8.66751C13.3921 8.18525 13.3921 7.70299 13.2808 6.99815C13.2437 6.70138 13.2437 6.36751 13.2066 5.99654C13.6888 6.77557 14.1711 7.51751 14.3566 8.03686C14.4679 8.33364 14.5792 8.37074 14.4679 7.99977C14.3566 7.48041 13.8743 6.59009 13.1324 5.47719C13.0953 5.18041 13.0953 4.88364 13.0953 4.66106C13.2066 4.77235 13.2808 4.69815 13.2437 4.54977C13.1695 4.25299 13.0582 4.03041 12.9469 3.73364C12.9098 3.58525 12.7614 3.58525 12.6872 3.77074C12.613 3.99332 12.613 4.03041 12.6872 4.1788C12.6872 4.36428 12.7243 4.62396 12.7614 4.88364C12.6501 4.69815 12.4646 4.43848 12.3163 4.25299C12.5017 4.32719 12.6501 4.29009 12.4646 4.06751C12.2792 3.88203 12.0195 3.65944 11.8711 3.51106C11.7227 3.36267 11.6485 3.47396 11.6485 3.58525C11.7227 3.77074 11.7598 3.84493 11.7227 3.95622Z"
                                                    fill="white"></path>
                                                <path
                                                    d="M13.8378 4.99495C13.8007 5.18044 13.7265 5.10624 13.6895 4.95786C13.6524 4.88366 13.6153 4.92076 13.6153 5.06915C13.6524 5.21753 13.6895 5.32882 13.8007 5.21753C13.8749 5.14334 13.8749 5.14334 13.9862 5.21753C14.0604 5.29173 14.1346 5.21753 14.1717 5.18044C14.1717 5.14334 14.2088 5.06915 14.1717 4.88366C14.1346 4.69818 14.0975 4.80947 14.0604 4.95786C14.0233 5.10624 13.9491 5.14334 13.912 4.95786C13.912 4.80947 13.8378 4.84657 13.8378 4.99495Z"
                                                    fill="white"></path>
                                                <path
                                                    d="M14.6904 7.40622C14.7275 8.07396 14.8017 8.37073 14.3936 8.85299C13.9485 9.33525 13.6517 9.48364 13.4662 9.52073C13.2065 9.59493 13.1324 9.70622 13.5033 9.66912C14.0598 9.63202 14.134 9.63203 14.6162 9.07557C14.8759 8.7788 14.9872 8.40783 14.9872 7.51751C14.9501 5.95944 14.7646 5.2917 14.7646 4.43848C14.8388 4.51267 14.9501 4.51267 14.913 4.36428C14.8388 4.1788 14.8017 3.95622 14.7646 3.77073C14.6904 3.58525 14.6533 3.51106 14.5791 3.62235C14.5049 3.73364 14.4307 3.77073 14.3936 3.84493C14.3565 3.91912 14.3194 4.03041 14.3936 4.1417C14.6162 5.95944 14.6533 6.73848 14.6904 7.40622Z"
                                                    fill="white"></path>
                                                <path
                                                    d="M15.6546 7.59172C15.6917 7.96269 15.7659 8.22237 15.6546 8.66753C15.6175 8.77882 15.6917 8.85301 15.7659 8.66753C16.0997 8.03688 15.8771 7.48043 15.84 7.10946C15.803 6.55301 15.5804 5.10624 15.5433 4.51269L15.5804 4.54979C15.7288 4.62398 15.9142 4.69817 15.8029 4.47559C15.6917 4.29011 15.5804 3.95624 15.5062 3.73366C15.432 3.51108 15.3949 3.51108 15.2836 3.69656C15.061 3.99333 15.2094 4.29011 15.2836 4.66108C15.432 5.92237 15.6175 7.22075 15.6546 7.59172Z"
                                                    fill="white"></path>
                                                <path
                                                    d="M16.4336 5.51424C16.5448 5.62553 16.619 5.84811 16.6932 5.9594C16.7674 6.14489 16.8416 5.9965 16.8416 5.88521C16.8416 5.77392 16.8045 5.44005 16.8416 5.32876C16.9158 5.14327 17.0271 5.40295 17.0642 5.29166C17.1013 5.21747 17.0271 5.18037 16.99 5.10618C16.9529 4.99489 16.9158 5.03198 16.8416 5.06908C16.7674 5.14327 16.7303 5.21747 16.7303 5.25456C16.7303 5.36585 16.7303 5.47714 16.7303 5.66263C16.7303 5.81101 16.6932 5.81101 16.6561 5.73682C16.619 5.62553 16.5077 5.36585 16.4336 5.29166C16.3594 5.21747 16.2481 5.25456 16.2481 5.36585C16.2481 5.47714 16.2481 5.44005 16.2481 5.55134C16.2481 5.62553 16.3965 5.62553 16.4336 5.51424Z"
                                                    fill="white"></path>
                                                <path
                                                    d="M16.3594 6.96104C16.3594 7.07233 16.5078 6.92394 16.6191 6.84975C16.7304 6.77555 17.0642 6.55297 17.2126 6.47878C17.361 6.40459 17.3239 6.36749 17.2868 6.2191C17.2868 6.07072 17.1755 6.18201 17.0642 6.2933C16.9529 6.40459 16.6191 6.62717 16.5078 6.73846C16.3965 6.84975 16.3594 6.88684 16.3594 6.96104Z"
                                                    fill="white"></path>
                                                <path
                                                    d="M15.5808 8.96429C15.4324 8.66751 15.4324 8.37074 15.4324 8.11106C15.4324 7.88848 15.3953 7.703 15.3211 8.07396C15.0985 8.96429 15.2469 9.14977 15.4695 9.33525C15.7663 9.59493 15.8775 9.63203 16.0259 9.37235C16.3227 8.92719 16.434 8.55622 16.5824 8.33364C16.7308 8.14816 16.7308 8.29654 16.805 8.37074C16.9905 8.59332 17.1388 8.66751 17.3985 8.70461C17.6582 8.74171 18.1034 8.51913 18.0663 7.703C18.0292 7.18364 17.9921 6.5159 17.955 5.77396C18.2146 6.10784 18.4001 6.40461 18.5856 6.66429C18.6598 7.14654 18.6969 7.59171 18.6969 7.92558C18.6598 8.33364 18.7711 8.33364 18.8453 7.92558C18.8824 7.77719 18.8824 7.40622 18.8453 6.99816C19.1792 7.44332 19.3646 7.703 19.4759 7.92558C19.6243 8.18525 19.6985 8.37074 19.6614 7.88848C19.6614 7.703 19.5872 7.55461 19.3646 7.22074C19.1421 6.92396 18.9566 6.62719 18.7711 6.33042C18.6969 5.62558 18.6227 4.84654 18.6227 4.43848C18.734 4.51267 18.8082 4.43848 18.734 4.29009C18.6969 4.14171 18.5856 3.69654 18.5114 3.54816C18.4372 3.39977 18.363 3.39977 18.2888 3.58525C18.2146 3.73364 18.1405 3.80784 18.1775 3.91913C18.2146 4.62396 18.2888 5.29171 18.4001 5.88525C18.2146 5.62558 18.0292 5.3659 17.8808 5.14332C17.8808 4.88364 17.8437 4.62396 17.8437 4.36429C17.955 4.43848 17.9921 4.43848 17.955 4.253C17.9179 4.10461 17.7695 3.73364 17.6953 3.58525C17.6211 3.43687 17.584 3.43687 17.5098 3.54816C17.3985 3.73364 17.3614 3.88203 17.4727 4.06751C17.4727 4.253 17.5098 4.40138 17.5098 4.58687C17.3985 4.43848 17.3243 4.29009 17.213 4.1788C17.3243 4.2159 17.3985 4.14171 17.2872 4.03042C17.1759 3.91913 16.9534 3.73364 16.8421 3.62235C16.7308 3.47396 16.6566 3.51106 16.6566 3.62235C16.6566 3.73364 16.6566 3.84493 16.6566 3.95622C16.6566 4.06751 16.6566 4.14171 16.7679 4.32719C17.0275 4.66106 17.3243 4.99493 17.5469 5.3288C17.6582 6.5159 17.6953 7.29493 17.6953 7.77719C17.6953 8.07396 17.584 8.22235 17.4356 8.25945C17.2872 8.29655 17.1388 8.22235 16.9905 7.99977C16.7308 7.6288 16.6195 7.703 16.434 8.03687C16.2485 8.37074 16.1001 8.63042 15.9888 8.853C15.9146 9.07558 15.7292 9.26106 15.5808 8.96429Z"
                                                    fill="white"></path>
                                                <path
                                                    d="M19.1425 4.84649C19.1425 5.06907 19.2167 5.03198 19.2538 4.84649C19.2909 4.66101 19.2909 4.29004 19.1796 4.06746C19.0683 3.80778 19.0312 3.91907 18.9941 3.99327C18.9199 4.10456 18.9199 4.14165 19.0312 4.25295C19.0683 4.36424 19.1425 4.62391 19.1425 4.84649Z"
                                                    fill="white"></path>
                                                <path
                                                    d="M20.1441 7.14659C20.07 5.58853 19.8845 4.92079 19.9216 4.32724C20.07 4.43853 20.107 4.40143 20.0329 4.21595C19.9587 4.03046 19.8474 3.80788 19.7732 3.5853C19.699 3.39982 19.6619 3.43692 19.5506 3.5853C19.4393 3.73369 19.4393 3.84498 19.4764 3.91917C19.699 5.81111 19.8103 6.81272 19.8474 7.40627C19.8845 8.2224 19.699 8.70466 18.8829 9.26111C18.6232 9.44659 18.3264 9.63208 18.957 9.48369C19.5506 9.2982 20.2183 8.89014 20.1441 7.14659Z"
                                                    fill="white"></path>
                                                <path
                                                    d="M18.0666 8.77875C17.9553 8.92713 18.215 9.00133 18.2521 8.89004C18.3263 9.00133 18.2521 9.18681 18.1408 9.2981C17.9553 9.44649 18.0666 9.48359 18.1779 9.3723C18.2892 9.2981 18.586 8.96423 18.4005 8.74165C18.2892 8.66746 18.1408 8.66746 18.0666 8.77875Z"
                                                    fill="white"></path>
                                                <path
                                                    d="M17.2496 11.524C16.7673 11.524 16.3222 11.524 15.8399 11.5611V11.4127C15.9883 11.2272 15.9512 11.2272 15.8399 11.0417C15.8028 10.9676 15.7657 10.8934 15.6544 11.0417C15.5431 11.1901 15.5431 11.2272 15.6915 11.4127V11.5611C12.0189 11.5982 7.97538 11.5611 4.48828 11.524C4.85925 12.1546 6.12054 12.1176 7.27054 12.1176C8.30925 12.1176 11.4254 12.1176 15.6544 12.0063V12.1917C15.506 12.3772 15.5431 12.3772 15.6544 12.5627C15.7657 12.7111 15.8028 12.6369 15.8399 12.5627C15.877 12.5256 15.877 12.4885 15.877 12.4885H16.4334C16.4334 12.5627 16.5447 12.5998 16.5818 12.5998C16.6189 12.5998 16.7302 12.5627 16.7302 12.4885H17.3609C17.4351 12.5998 17.5092 12.6369 17.6205 12.6369C17.8431 12.6369 17.9544 12.3772 17.9173 12.0434C17.8802 11.5611 17.6947 11.4869 17.2496 11.524ZM16.7302 12.2659C16.7302 12.1917 16.6189 12.1547 16.5818 12.1547C16.5447 12.1547 16.4334 12.1917 16.4334 12.2659H15.877C15.877 12.2288 15.8399 12.1917 15.7657 12.1176V11.9321C16.248 11.9321 16.7673 11.895 17.2867 11.895C17.2496 12.0063 17.2496 12.1176 17.2496 12.2288L16.7302 12.2659Z"
                                                    fill="white"></path>
                                                <path
                                                    d="M17.2507 11.524C16.7684 11.524 16.3232 11.524 15.841 11.5611V11.4127C15.9894 11.2272 15.9523 11.2272 15.841 11.0417C15.8039 10.9676 15.7668 10.8934 15.6555 11.0417C15.5442 11.1901 15.5442 11.2272 15.6926 11.4127V11.5611C15.6926 11.5611 15.6926 11.5611 15.6555 11.5611L16.1749 12.0063C16.5458 12.0063 16.9539 11.9692 17.3249 11.9692C17.2878 12.0805 17.2878 12.1917 17.2878 12.303H16.7313C16.7313 12.2288 16.62 12.1917 16.5829 12.1917C16.5458 12.1917 16.4716 12.2288 16.4716 12.2659L16.7313 12.4885V12.4514H17.362C17.4361 12.5627 17.5103 12.5998 17.6216 12.5998C17.8442 12.5998 17.9555 12.3401 17.9184 12.0063C17.8813 11.5611 17.6958 11.4869 17.2507 11.524Z"
                                                    fill="white"></path>
                                            </svg>