<svg width="64" height="64" viewBox="0 0 64 64" fill="none" xmlns="http://www.w3.org/2000/svg">
<path d="M8.39999 29C8.69999 29 9.09999 28.9 9.39999 28.8L20.5 24.9C21.7 24.5 22.3 23.2 21.9 22C21.5 20.8 20.2 20.2 19 20.6L12.1 23C15.4 14.4 23.8 8.60001 33.4 8.60001C43.9 8.60001 53 15.6 55.6 25.6C55.9 26.8 57.1 27.5 58.3 27.2C59.5 26.9 60.2 25.7 59.9 24.5C56.8 12.5 45.9 4.10001 33.3 4.10001C22.1 4.10001 12.2 10.7 8.09999 20.6L5.99999 14.6C5.59999 13.4 4.29999 12.8 3.09999 13.2C1.89999 13.6 1.29999 14.9 1.69999 16.1L5.49999 27C6.09999 28.3 7.19999 29 8.39999 29Z" fill="white"/>
<path d="M62.1 49.7L58 39C57.7 38.3 57.2 37.7 56.5 37.4C55.8 37.1 55 37.1 54.3 37.4L43.3 41.6C42.1 42 41.6 43.3 42 44.5C42.4 45.7 43.7 46.2 44.9 45.8L51.8 43.2C47.8 50.5 40 55.3 31.3 55.3C21.4 55.3 12.7 49.1 9.59999 39.9C9.19999 38.7 7.89999 38.1 6.79999 38.5C5.59999 38.9 4.99999 40.2 5.39999 41.3C9.09999 52.3 19.5 59.7 31.3 59.7C41.6 59.7 50.9 54 55.6 45.2L57.9 51.3C58.2 52.2 59.1 52.7 60 52.7C60.3 52.7 60.5 52.7 60.8 52.5C62 52.2 62.5 50.9 62.1 49.7Z" fill="white"/>
</svg>
