<svg width="64" height="64" viewBox="0 0 64 64" fill="none" xmlns="http://www.w3.org/2000/svg">
<path d="M32 36.8C40.3 36.8 47 30.1 47 21.8C47 13.5 40.3 6.79999 32 6.79999C23.7 6.79999 17 13.5 17 21.8C17 30.1 23.7 36.8 32 36.8ZM32 11.3C37.8 11.3 42.5 16 42.5 21.8C42.5 27.6 37.8 32.3 32 32.3C26.2 32.3 21.5 27.6 21.5 21.8C21.5 16 26.2 11.3 32 11.3Z" fill="white"/>
<path d="M61.5 53.2C53.3 46.3 42.9 42.5 32 42.5C21.1 42.5 10.7 46.3 2.49999 53.2C1.59999 54 1.39999 55.4 2.19999 56.4C2.99999 57.3 4.39999 57.5 5.39999 56.7C12.8 50.4 22.2 47 32 47C41.8 47 51.2 50.4 58.5 56.6C58.9 57 59.4 57.1 60 57.1C60.6 57.1 61.3 56.8 61.7 56.3C62.5 55.4 62.4 54 61.5 53.2Z" fill="white"/>
</svg>
