<svg width="48" height="47" viewBox="0 0 48 47" fill="none" xmlns="http://www.w3.org/2000/svg">
<rect x="0.600098" width="47" height="47" rx="23.5" fill="url(#paint0_linear_8671_282475)"/>
<path d="M36.047 30.9746L36.036 30.9707C35.181 30.6922 34.2875 30.5502 33.3883 30.55H30.255V26.8213C30.3803 26.6858 30.5002 26.5503 30.6412 26.4148C32.2492 24.963 33.0418 22.8141 32.7617 20.6659C34.0159 19.9879 34.9774 18.8729 35.4634 17.5326C38.2638 16.2244 38.8717 14.7408 38.8717 13.7083C38.8717 11.4508 36.188 9.8089 32.5024 8.84383C32.1797 5.79667 31.0477 0 27.1217 0C26.3921 0.00903836 25.6736 0.180287 25.0184 0.501333C24.3671 0.810774 23.6111 0.810774 22.9598 0.501333C22.3041 0.18011 21.5851 0.00885871 20.855 0C16.9289 0 15.797 5.79667 15.4743 8.84383C11.7887 9.8089 9.10501 11.4508 9.10501 13.7083C9.10501 14.7463 9.71445 16.2362 12.5211 17.542C13.0073 18.8774 13.9655 19.9887 15.215 20.6659C14.9357 22.8147 15.7295 24.9636 17.3386 26.4148C17.4796 26.5503 17.5995 26.6858 17.7248 26.8213V30.55H14.5883C13.6892 30.5502 12.7956 30.6922 11.9407 30.9707L11.9297 30.9746C8.38097 32.1293 5.97693 35.4348 5.97168 39.1667V44.65C5.97168 45.9479 7.02381 47 8.32168 47H39.655C40.9529 47 42.005 45.9479 42.005 44.65V39.1667C41.9995 35.4349 39.5956 32.1295 36.047 30.9746ZM34.955 32.2984V45.4333H33.3883V32.1167C33.9157 32.1183 34.4413 32.1792 34.955 32.2984ZM22.7663 31.3333H25.2103C27.0974 31.3333 27.8854 30.1826 28.6883 28.9363V30.973L23.9883 35.0017L19.2883 30.973V28.9363C20.0913 30.1826 20.8793 31.3333 22.7663 31.3333ZM31.8217 42.3H24.7717V36.96L28.4643 37.5867C28.9116 37.6515 29.3649 37.5189 29.7067 37.2232C30.0556 36.9205 30.2557 36.4811 30.255 36.0192V32.1167H31.8217V42.3ZM19.2883 33.0363L22.2031 35.5344L19.2883 36.0161V33.0363ZM28.7017 36.0333L25.7681 35.5367L28.7017 33.03V36.0333ZM18.27 37.2201C18.6172 37.5189 19.0777 37.6509 19.5304 37.5812L23.205 36.96V42.3H16.155V32.1167H17.7217V36.0161C17.721 36.478 17.9211 36.9174 18.27 37.2201ZM16.155 43.8667H31.8217V45.4333H16.155V43.8667ZM32.7249 18.8188C32.7573 18.2469 32.8304 17.6781 32.9434 17.1166C33.0531 16.4993 33.1784 15.7991 33.2701 14.8262C33.2807 14.6976 33.2807 14.5685 33.2701 14.44C33.4791 14.2472 33.7453 14.1279 34.0283 14.1C34.2166 14.9623 34.2326 15.8533 34.0753 16.7218L34.0604 16.7798L34.0534 16.815C33.8143 17.5977 33.3527 18.2939 32.7249 18.8188ZM20.855 1.56667C21.3486 1.57482 21.8342 1.69255 22.2768 1.91133C23.36 2.42759 24.6183 2.42759 25.7015 1.91133C26.1435 1.69273 26.6286 1.575 27.1217 1.56667C29.261 1.56667 30.4367 4.96555 30.8817 8.47567C26.326 7.61903 21.6506 7.61903 17.095 8.47567C17.5399 4.96555 18.7157 1.56667 20.855 1.56667ZM10.6717 13.7083C10.6717 11.6717 16.3673 9.4 23.9883 9.4C31.6094 9.4 37.305 11.6717 37.305 13.7083C37.305 14.3295 36.7473 14.9954 35.7438 15.6126C35.7838 14.3593 35.5942 13.0088 34.6636 12.6555C33.9663 12.4239 33.2 12.5458 32.6089 12.9822C32.2575 12.6125 31.7948 12.368 31.2914 12.2858C26.4129 11.5656 21.4548 11.5714 16.578 12.303C16.0989 12.3824 15.656 12.6079 15.3098 12.9485C14.7313 12.5354 13.9893 12.4261 13.3162 12.6548C12.3833 13.008 12.196 14.3554 12.2407 15.6228C11.2318 15.0048 10.6717 14.335 10.6717 13.7083ZM13.9155 16.7633C13.7498 15.8821 13.7613 14.9767 13.9491 14.1C14.1964 14.1054 14.4334 14.2 14.6165 14.3663C14.6048 14.4403 14.5969 14.5148 14.593 14.5896L14.5883 14.8708V14.9327C14.629 15.8556 14.7791 16.7704 15.0356 17.6579C15.1531 18.0354 15.2247 18.4257 15.2487 18.8204C14.6063 18.2855 14.1414 17.5682 13.9155 16.7633ZM16.7926 20.3432C16.7926 20.3071 16.7926 20.2695 16.7926 20.2335V20.2218C16.8091 19.8669 16.8248 19.5081 16.8248 19.1392C16.8302 18.4959 16.735 17.8558 16.5428 17.242C16.318 16.4687 16.1865 15.6714 16.1511 14.8669V14.6162C16.1565 14.2325 16.439 13.9092 16.8185 13.8525C19.1916 13.4941 21.5883 13.315 23.9883 13.3167C26.3507 13.3161 28.7099 13.4889 31.047 13.8337C31.457 13.8962 31.7472 14.2675 31.7089 14.6805C31.6251 15.5883 31.506 16.2542 31.401 16.8409C31.2428 17.5962 31.158 18.3651 31.148 19.1368C31.148 19.5058 31.1637 19.8646 31.1801 20.2194V20.2312C31.1801 20.2672 31.1801 20.3048 31.184 20.3408C31.2624 22.1503 31.3297 23.5791 29.5547 25.2852C28.7412 26.0959 28.0309 27.0039 27.4397 27.9885C26.6227 29.2536 26.2514 29.7667 25.2103 29.7667H22.7663C21.7253 29.7667 21.3563 29.2536 20.5409 27.9885C19.9485 27.0036 19.2368 26.0957 18.422 25.2852C16.6469 23.5783 16.712 22.1503 16.7926 20.3408V20.3432ZM14.5883 45.4333H13.0217V32.2984C13.5354 32.1792 14.061 32.1183 14.5883 32.1167V45.4333ZM7.53835 44.65V39.1667C7.54199 36.4919 9.05896 34.0496 11.455 32.8608V45.4333H8.32168C7.88906 45.4333 7.53835 45.0826 7.53835 44.65ZM40.4383 44.65C40.4383 45.0826 40.0876 45.4333 39.655 45.4333H36.5217V32.8608C38.9177 34.0496 40.4347 36.4919 40.4383 39.1667V44.65Z" fill="#6B47F5"/>
<path d="M27.1217 40.7333C27.5543 40.7333 27.905 40.3826 27.905 39.95C27.905 39.5174 27.5543 39.1667 27.1217 39.1667C26.6891 39.1667 26.3383 39.5174 26.3383 39.95C26.3383 40.3826 26.6891 40.7333 27.1217 40.7333Z" fill="#6B47F5"/>
<defs>
<linearGradient id="paint0_linear_8671_282475" x1="12.1693" y1="43.1337" x2="101.904" y2="-56.2554" gradientUnits="userSpaceOnUse">
<stop stop-color="#6B47F5" stop-opacity="0.2"/>
<stop offset="1" stop-color="white" stop-opacity="0"/>
</linearGradient>
</defs>
</svg>
