<svg width="47" height="47" viewBox="0 0 47 47" fill="none" xmlns="http://www.w3.org/2000/svg">
<rect width="47" height="47" rx="23.5" fill="url(#paint0_linear_8671_282485)"/>
<path d="M15.6082 23.041C13.8365 23.041 12.3861 21.5998 12.3861 19.8189C12.3861 18.0473 13.8273 16.5969 15.6082 16.5969C16.0305 16.5969 16.3793 16.9365 16.3793 17.368C16.3793 17.7994 16.0396 18.1391 15.6082 18.1391C14.6811 18.1391 13.9283 18.8918 13.9283 19.8189C13.9283 20.7461 14.6811 21.4988 15.6082 21.4988C16.0305 21.4988 16.3793 21.8385 16.3793 22.2699C16.3793 22.7014 16.0305 23.041 15.6082 23.041Z" fill="#6B47F5"/>
<path d="M31.8563 23.041C31.434 23.041 31.0852 22.7014 31.0852 22.2699C31.0852 21.8385 31.4248 21.4988 31.8563 21.4988C32.7834 21.4988 33.5361 20.7461 33.5361 19.8189C33.5361 18.8918 32.7834 18.1391 31.8563 18.1391C31.434 18.1391 31.0852 17.7994 31.0852 17.368C31.0852 16.9365 31.4248 16.5969 31.8563 16.5969C33.6279 16.5969 35.0783 18.0381 35.0783 19.8189C35.0783 21.5998 33.6371 23.041 31.8563 23.041Z" fill="#6B47F5"/>
<path d="M23.9342 30.0084H23.5395C18.7477 30.0084 14.8463 26.107 14.8463 21.3152V12.9984C14.8463 12.5762 15.1859 12.2273 15.6174 12.2273C16.0396 12.2273 16.3885 12.567 16.3885 12.9984V21.3152C16.3885 25.2625 19.6014 28.4754 23.5486 28.4754H23.9434C27.8906 28.4754 31.1035 25.2625 31.1035 21.3152V12.9984C31.1035 12.5762 31.4432 12.2273 31.8746 12.2273C32.2969 12.2273 32.6457 12.567 32.6457 12.9984V21.3152C32.6273 26.107 28.726 30.0084 23.9342 30.0084Z" fill="#6B47F5"/>
<path d="M22.3461 35.048C22.3002 35.048 22.2635 35.048 22.2176 35.0389C19.4545 34.5891 17.6002 33.0102 17.6002 31.1191V27.9338C17.6002 27.5115 17.9398 27.1627 18.3713 27.1627C18.7936 27.1627 19.1424 27.5023 19.1424 27.9338V31.1191C19.1424 32.1932 20.5377 33.2121 22.4654 33.5242C22.8877 33.5885 23.1723 33.9924 23.0988 34.4055C23.0346 34.7818 22.7133 35.048 22.3461 35.048Z" fill="#6B47F5"/>
<path d="M25.1092 35.048C24.742 35.048 24.4115 34.7818 24.3473 34.4055C24.283 33.9832 24.5676 33.5885 24.9807 33.5242C26.9176 33.2121 28.3221 32.2023 28.3221 31.1191V27.9338C28.3221 27.5115 28.6617 27.1627 29.0932 27.1627C29.5154 27.1627 29.8643 27.5023 29.8643 27.9338V31.1191C29.8643 33.0193 28.0008 34.5982 25.2377 35.048C25.1918 35.048 25.1459 35.048 25.1092 35.048Z" fill="#6B47F5"/>
<path d="M12.3311 47C11.9088 47 11.56 46.6604 11.56 46.2289V40.1978C11.56 39.7756 11.8996 39.4268 12.3311 39.4268C12.7533 39.4268 13.1021 39.7664 13.1021 40.1978V46.2289C13.1021 46.6604 12.7625 47 12.3311 47Z" fill="#6B47F5"/>
<path d="M35.1334 47C34.7111 47 34.3623 46.6604 34.3623 46.2289V40.1978C34.3623 39.7756 34.702 39.4268 35.1334 39.4268C35.5557 39.4268 35.9045 39.7664 35.9045 40.1978V46.2289C35.8953 46.6604 35.5557 47 35.1334 47Z" fill="#6B47F5"/>
<path d="M38.6492 47H8.81523C7.29141 47 6.04297 45.7607 6.04297 44.2277V40.7945C6.04297 36.4434 7.3373 33.4508 9.88008 31.9086C12.0006 30.6234 14.5525 30.6234 16.2416 30.6234H16.26C17.4166 30.6234 17.5727 29.9258 17.591 29.7146V29.7238L19.124 29.8156C19.1148 29.9166 19.0689 30.4582 18.6926 31.009C18.3346 31.5322 17.6277 32.1564 16.2508 32.1564H16.2324C14.626 32.1564 12.4229 32.1564 10.6695 33.2213C8.58574 34.4789 7.5668 36.9574 7.5668 40.7854V44.2186C7.5668 44.8979 8.11758 45.4486 8.79688 45.4486H38.6217C39.301 45.4486 39.8518 44.8979 39.8518 44.2186V40.7854C39.8518 36.4342 38.5299 33.7996 35.7943 32.7531C35.3996 32.5971 35.1977 32.1564 35.3537 31.7617C35.5098 31.367 35.9504 31.165 36.3451 31.3211C39.6865 32.6063 41.3848 35.7916 41.3848 40.7854V44.2186C41.4123 45.7607 40.173 47 38.6492 47Z" fill="#6B47F5"/>
<path d="M33.4811 32.2482C33.4535 32.2482 33.4352 32.2482 33.4076 32.2482C32.6273 32.1748 31.8838 32.1748 31.2229 32.1748H31.2045C29.0473 32.1748 28.3863 30.6418 28.3404 29.8248L29.8734 29.733V29.7238C29.8918 29.935 30.0478 30.6326 31.2045 30.6326H31.2229C31.9205 30.6326 32.7008 30.6326 33.5545 30.7152C33.9768 30.752 34.2889 31.1283 34.2521 31.5506C34.2062 31.9453 33.8758 32.2482 33.4811 32.2482Z" fill="#6B47F5"/>
<path d="M15.8469 4.05742C15.6082 4.05742 15.3695 3.94727 15.2227 3.73613C14.9748 3.3873 15.0574 2.90996 15.4062 2.66211C17.848 0.917969 20.7305 0 23.7414 0C26.4035 0 29.0014 0.734375 31.2596 2.12051C31.6176 2.34082 31.7369 2.81816 31.5074 3.17617C31.2871 3.53418 30.8098 3.65352 30.4518 3.42402C28.4414 2.18477 26.1189 1.53301 23.7414 1.53301C21.0518 1.53301 18.4814 2.35 16.2967 3.91055C16.159 4.01152 16.0029 4.05742 15.8469 4.05742Z" fill="#6B47F5"/>
<path d="M33.4811 13.1361H13.9834C12.0189 13.1361 10.4125 11.5389 10.4125 9.56523C10.4125 7.5916 12.0098 5.99434 13.9834 5.99434H33.4902C35.4547 5.99434 37.0611 7.5916 37.0611 9.56523C37.0611 11.5389 35.4547 13.1361 33.4811 13.1361ZM13.9834 7.53652C12.8635 7.53652 11.9547 8.44531 11.9547 9.56523C11.9547 10.6852 12.8635 11.5939 13.9834 11.5939H33.4902C34.6102 11.5939 35.5189 10.6852 35.5189 9.56523C35.5189 8.44531 34.6102 7.53652 33.4902 7.53652H13.9834Z" fill="#6B47F5"/>
<path d="M13.9559 18.6072C13.8916 18.6072 13.8365 18.598 13.7723 18.5889C11.6977 18.084 10.2473 16.2389 10.2473 14.1C10.2473 13.0535 10.6053 12.0254 11.2662 11.2084C11.5324 10.8779 12.0189 10.8229 12.3494 11.0891C12.6799 11.3553 12.735 11.8418 12.4688 12.1723C12.0281 12.723 11.7895 13.3932 11.7895 14.1C11.7895 15.532 12.7533 16.7621 14.1395 17.1018C14.5525 17.2027 14.8004 17.6158 14.7086 18.0289C14.6168 18.3686 14.3047 18.6072 13.9559 18.6072Z" fill="#6B47F5"/>
<path d="M11.8262 8.3168C11.6059 8.3168 11.3855 8.225 11.2387 8.04141C10.4768 7.12344 10.2197 5.90254 10.5594 4.76426C10.8256 3.84629 11.4314 3.09355 12.2668 2.63457C13.1021 2.17559 14.066 2.07461 14.984 2.34082C15.4338 2.46934 22.3828 4.49805 27.6887 6.04023C28.0926 6.15957 28.3312 6.58184 28.2119 6.99492C28.0926 7.40801 27.6703 7.6375 27.2572 7.51816C21.9514 5.95762 15.0023 3.93809 14.5525 3.80039C14.0293 3.64434 13.4785 3.70859 13.0104 3.96563C12.533 4.22266 12.1934 4.6541 12.0373 5.17734C11.8445 5.8291 11.9914 6.52676 12.4229 7.05C12.6982 7.38047 12.6523 7.85781 12.3219 8.1332C12.175 8.25254 12.0006 8.3168 11.8262 8.3168Z" fill="#6B47F5"/>
<path d="M35.7025 8.61973C35.2803 8.61973 34.9314 8.28008 34.9314 7.84863C34.9314 7.46309 34.8764 7.06836 34.7662 6.69199C34.4541 5.62715 33.7564 4.75508 32.7834 4.22266C31.8104 3.69023 30.6996 3.5709 29.6348 3.87383L22.4471 5.97598C22.0432 6.09531 21.6117 5.85664 21.4924 5.45273C21.373 5.04883 21.6117 4.61738 22.0156 4.49805L29.1941 2.40508C30.6537 1.98281 32.1867 2.14805 33.5086 2.88242C34.8396 3.60762 35.8035 4.81934 36.2258 6.26973C36.3727 6.78379 36.4553 7.31621 36.4553 7.84863C36.4645 8.28008 36.1248 8.61973 35.7025 8.61973Z" fill="#6B47F5"/>
<path d="M23.7598 16.8814C20.6479 16.8814 17.8297 15.8533 15.8285 13.9898C15.4062 13.6043 14.7178 13.1361 13.7906 13.1361C13.3684 13.1361 13.0195 12.7965 13.0195 12.365C13.0195 11.9428 13.3592 11.5939 13.7906 11.5939C14.9014 11.5939 15.9937 12.0438 16.875 12.8607C18.5641 14.4396 21.0793 15.3393 23.7598 15.3393C26.4127 15.3393 28.9004 14.4396 30.5895 12.8791C31.4982 12.0346 32.5631 11.5939 33.6738 11.5939C34.0961 11.5939 34.4449 11.9336 34.4449 12.365C34.4449 12.7873 34.1053 13.1361 33.6738 13.1361C32.7742 13.1361 32.0674 13.6135 31.6359 14.0174C29.6623 15.835 26.7891 16.8814 23.7598 16.8814Z" fill="#6B47F5"/>
<path d="M22.6674 40.51C22.2635 40.51 21.9238 40.1978 21.9055 39.7848L21.5475 33.7537C21.5383 33.5426 21.6117 33.3314 21.7586 33.1846C21.9055 33.0285 22.1074 32.9459 22.3186 32.9459H25.1643C25.3754 32.9459 25.5773 33.0285 25.715 33.1846C25.8619 33.3406 25.9354 33.5426 25.9262 33.7537L25.66 39.7848C25.6416 40.207 25.2744 40.5375 24.8613 40.5191C24.4391 40.5008 24.1086 40.1428 24.127 39.7205L24.3564 34.4881H23.1264L23.4385 39.7021C23.466 40.1244 23.1447 40.4916 22.7133 40.51C22.6949 40.51 22.6766 40.51 22.6674 40.51Z" fill="#6B47F5"/>
<path d="M24.8889 42.3918H22.6674C22.2451 42.3918 21.8963 42.0521 21.8963 41.6207V39.7389C21.8963 39.3166 22.2359 38.9678 22.6674 38.9678H24.8889C25.3111 38.9678 25.66 39.3074 25.66 39.7389V41.6207C25.66 42.0521 25.3111 42.3918 24.8889 42.3918ZM23.4293 40.8588H24.1178V40.51H23.4293V40.8588Z" fill="#6B47F5"/>
<path d="M21.5934 43.8514C21.4373 43.8514 21.2721 43.8055 21.1436 43.7045C20.8039 43.4566 20.7305 42.9701 20.9783 42.6305L22.0432 41.1801C22.291 40.8404 22.7775 40.767 23.1172 41.0148C23.4568 41.2627 23.5303 41.7492 23.2824 42.0889L22.2176 43.5393C22.0707 43.7412 21.832 43.8514 21.5934 43.8514Z" fill="#6B47F5"/>
<path d="M22.6674 44.8244C22.6123 44.8244 22.5572 44.8152 22.5021 44.8061C22.0891 44.7143 21.8229 44.3104 21.9146 43.8881L22.4471 41.4555C22.5389 41.0424 22.9428 40.7762 23.365 40.868C23.7781 40.9598 24.0443 41.3637 23.9525 41.7859L23.4201 44.2186C23.3375 44.5857 23.0162 44.8244 22.6674 44.8244Z" fill="#6B47F5"/>
<path d="M23.7781 45.3018C23.3559 45.3018 23.007 44.9621 23.007 44.5307V41.6207C23.007 41.1984 23.3467 40.8496 23.7781 40.8496C24.2004 40.8496 24.5492 41.1893 24.5492 41.6207V44.5307C24.5492 44.9621 24.2004 45.3018 23.7781 45.3018Z" fill="#6B47F5"/>
<path d="M25.9537 43.8514C25.715 43.8514 25.4855 43.7412 25.3295 43.5393L24.2646 42.0889C24.0168 41.7492 24.0902 41.2627 24.4299 41.0148C24.7695 40.767 25.2561 40.8404 25.5039 41.1801L26.5688 42.6305C26.8166 42.9701 26.7432 43.4566 26.4035 43.7045C26.275 43.7963 26.1098 43.8514 25.9537 43.8514Z" fill="#6B47F5"/>
<path d="M24.8889 44.8244C24.54 44.8244 24.2188 44.5766 24.1361 44.2186L23.6037 41.7859C23.5119 41.3729 23.7781 40.9598 24.1912 40.868C24.6043 40.7762 25.0174 41.0424 25.1092 41.4555L25.6416 43.8881C25.7334 44.3012 25.4672 44.7143 25.0541 44.8061C24.999 44.8244 24.9439 44.8244 24.8889 44.8244Z" fill="#6B47F5"/>
<path d="M35.1701 33.9281C34.6469 33.9281 34.1604 33.6895 33.8299 33.2488L29.2309 27.0525C28.9738 26.7129 29.0473 26.2264 29.3869 25.9785C29.7266 25.7215 30.2131 25.7949 30.4609 26.1346L35.06 32.3309C35.0783 32.3584 35.1242 32.4135 35.2252 32.3859C35.3262 32.3492 35.3262 32.2758 35.3262 32.2482V10.5658C35.3262 10.1436 35.6658 9.79473 36.0973 9.79473C36.5195 9.79473 36.8684 10.1344 36.8684 10.5658V32.2391C36.8684 32.9734 36.4186 33.6068 35.7117 33.8363C35.5281 33.9006 35.3537 33.9281 35.1701 33.9281Z" fill="#6B47F5"/>
<defs>
<linearGradient id="paint0_linear_8671_282485" x1="11.5692" y1="43.1337" x2="101.304" y2="-56.2554" gradientUnits="userSpaceOnUse">
<stop stop-color="#6B47F5" stop-opacity="0.2"/>
<stop offset="1" stop-color="white" stop-opacity="0"/>
</linearGradient>
</defs>
</svg>
