<svg width="18" height="14" viewBox="0 0 18 14" fill="none" xmlns="http://www.w3.org/2000/svg">
<path d="M14.8333 4.91668H14.5666L13.525 2.31668C13.3389 1.85439 13.019 1.45825 12.6062 1.1791C12.1934 0.899946 11.7066 0.750524 11.2083 0.75001H6.20829C5.62937 0.748353 5.06781 0.947669 4.61947 1.31394C4.17114 1.68021 3.86381 2.19072 3.74996 2.75834L3.31663 4.91668H3.16663C2.50358 4.91668 1.8677 5.18007 1.39886 5.64891C0.930018 6.11775 0.666626 6.75364 0.666626 7.41668V9.91668C0.666626 10.1377 0.754423 10.3497 0.910704 10.5059C1.06698 10.6622 1.27895 10.75 1.49996 10.75H2.33329C2.33329 11.4131 2.59668 12.0489 3.06553 12.5178C3.53437 12.9866 4.17025 13.25 4.83329 13.25C5.49633 13.25 6.13222 12.9866 6.60106 12.5178C7.0699 12.0489 7.33329 11.4131 7.33329 10.75H10.6666C10.6666 11.4131 10.93 12.0489 11.3989 12.5178C11.8677 12.9866 12.5036 13.25 13.1666 13.25C13.8297 13.25 14.4656 12.9866 14.9344 12.5178C15.4032 12.0489 15.6666 11.4131 15.6666 10.75H16.5C16.721 10.75 16.9329 10.6622 17.0892 10.5059C17.2455 10.3497 17.3333 10.1377 17.3333 9.91668V7.41668C17.3333 6.75364 17.0699 6.11775 16.6011 5.64891C16.1322 5.18007 15.4963 4.91668 14.8333 4.91668ZM9.83329 2.41668H11.2083C11.3738 2.41817 11.5351 2.4689 11.6716 2.5624C11.8081 2.6559 11.9137 2.78794 11.975 2.94168L12.7666 4.91668H9.83329V2.41668ZM5.38329 3.08334C5.42225 2.89228 5.52698 2.72093 5.67924 2.59912C5.83151 2.4773 6.02167 2.41275 6.21663 2.41668H8.16663V4.91668H5.01663L5.38329 3.08334ZM4.83329 11.5833C4.66848 11.5833 4.50736 11.5345 4.37032 11.4429C4.23328 11.3513 4.12647 11.2212 4.06339 11.0689C4.00032 10.9166 3.98382 10.7491 4.01597 10.5874C4.04813 10.4258 4.12749 10.2773 4.24404 10.1608C4.36058 10.0442 4.50907 9.96484 4.67072 9.93269C4.83237 9.90054 4.99992 9.91704 5.1522 9.98011C5.30447 10.0432 5.43462 10.15 5.52618 10.287C5.61775 10.4241 5.66663 10.5852 5.66663 10.75C5.66663 10.971 5.57883 11.183 5.42255 11.3393C5.26627 11.4955 5.05431 11.5833 4.83329 11.5833ZM13.1666 11.5833C13.0018 11.5833 12.8407 11.5345 12.7037 11.4429C12.5666 11.3513 12.4598 11.2212 12.3967 11.0689C12.3337 10.9166 12.3172 10.7491 12.3493 10.5874C12.3815 10.4258 12.4608 10.2773 12.5774 10.1608C12.6939 10.0442 12.8424 9.96484 13.0041 9.93269C13.1657 9.90054 13.3333 9.91704 13.4855 9.98011C13.6378 10.0432 13.768 10.15 13.8595 10.287C13.9511 10.4241 14 10.5852 14 10.75C14 10.971 13.9122 11.183 13.7559 11.3393C13.5996 11.4955 13.3876 11.5833 13.1666 11.5833ZM15.6666 9.08334H15.0166C14.7823 8.82555 14.4967 8.61957 14.1781 8.47862C13.8595 8.33767 13.515 8.26486 13.1666 8.26486C12.8183 8.26486 12.4737 8.33767 12.1551 8.47862C11.8366 8.61957 11.5509 8.82555 11.3166 9.08334H6.68329C6.44898 8.82555 6.16336 8.61957 5.84478 8.47862C5.52619 8.33767 5.18167 8.26486 4.83329 8.26486C4.48492 8.26486 4.14039 8.33767 3.82181 8.47862C3.50322 8.61957 3.21761 8.82555 2.98329 9.08334H2.33329V7.41668C2.33329 7.19566 2.42109 6.9837 2.57737 6.82742C2.73365 6.67114 2.94561 6.58334 3.16663 6.58334H14.8333C15.0543 6.58334 15.2663 6.67114 15.4225 6.82742C15.5788 6.9837 15.6666 7.19566 15.6666 7.41668V9.08334Z" fill="#9AA2AF"/>
</svg>
