<svg width="18" height="18" viewBox="0 0 18 18" fill="none" xmlns="http://www.w3.org/2000/svg">
<path d="M17.3333 3.23334C17.334 2.72519 17.1839 2.22826 16.9019 1.80553C16.6199 1.3828 16.2188 1.05328 15.7494 0.858721C15.2799 0.664166 14.7633 0.613332 14.265 0.712659C13.7666 0.811986 13.309 1.05701 12.95 1.41667L10.6083 3.75834L5.20001 1.95834C5.05602 1.91308 4.90243 1.90778 4.75566 1.94301C4.60889 1.97823 4.47444 2.05266 4.36668 2.15834L2.38334 4.125C2.28937 4.22007 2.21964 4.33635 2.18005 4.46402C2.14045 4.5917 2.13215 4.72702 2.15585 4.85858C2.17955 4.99014 2.23454 5.11406 2.3162 5.2199C2.39785 5.32573 2.50377 5.41037 2.62501 5.46667L6.94168 7.425L4.77501 9.59167L3.35001 8.875C3.19615 8.79174 3.01999 8.759 2.84649 8.78143C2.673 8.80387 2.51096 8.88034 2.38334 9L0.908343 10.5083C0.753134 10.6645 0.666016 10.8757 0.666016 11.0958C0.666016 11.316 0.753134 11.5272 0.908343 11.6833L6.31668 17.0917C6.47281 17.2469 6.68402 17.334 6.90418 17.334C7.12433 17.334 7.33554 17.2469 7.49168 17.0917L9.00001 15.6167C9.12508 15.4929 9.20776 15.3327 9.2362 15.1591C9.26464 14.9854 9.23739 14.8072 9.15834 14.65L8.44168 13.225L10.6083 11.0583L12.5667 15.375C12.623 15.4962 12.7076 15.6022 12.8134 15.6838C12.9193 15.7655 13.0432 15.8205 13.1748 15.8442C13.3063 15.8679 13.4416 15.8596 13.5693 15.82C13.697 15.7804 13.8133 15.7106 13.9083 15.6167L15.875 13.65C15.9807 13.5422 16.0551 13.4078 16.0903 13.261C16.1256 13.1142 16.1203 12.9607 16.075 12.8167L14.275 7.40834L16.5833 5.05C16.8227 4.81214 17.0123 4.529 17.141 4.2171C17.2698 3.90519 17.3352 3.57077 17.3333 3.23334ZM15.4 3.875L12.7 6.575C12.5943 6.68277 12.5199 6.81722 12.4847 6.96399C12.4495 7.11076 12.4548 7.26434 12.5 7.40834L14.3 12.8083L13.55 13.5583L11.5917 9.25C11.5361 9.12764 11.4517 9.02054 11.3458 8.93783C11.2399 8.85512 11.1155 8.79926 10.9833 8.775C10.8501 8.75068 10.7129 8.75921 10.5836 8.79987C10.4544 8.84053 10.337 8.91209 10.2417 9.00834L6.80834 12.475C6.68508 12.5981 6.60351 12.7568 6.57511 12.9287C6.54671 13.1006 6.57291 13.2771 6.65001 13.4333L7.33334 14.8333L6.86668 15.3L2.67501 11.1L3.16668 10.6667L4.59168 11.3833C4.74792 11.4604 4.9244 11.4866 5.0963 11.4582C5.2682 11.4298 5.42687 11.3483 5.55001 11.225L9.00001 7.75834C9.09576 7.66333 9.16702 7.5465 9.20767 7.41789C9.24831 7.28927 9.25713 7.15271 9.23336 7.01993C9.20959 6.88716 9.15395 6.76214 9.07121 6.65561C8.98847 6.54908 8.88111 6.46423 8.75834 6.40834L4.41668 4.45L5.16668 3.7L10.5667 5.5C10.7107 5.54526 10.8643 5.55056 11.011 5.51534C11.1578 5.48011 11.2922 5.40568 11.4 5.3L14.1 2.6C14.1831 2.51509 14.2822 2.44762 14.3917 2.40156C14.5012 2.35549 14.6187 2.33177 14.7375 2.33177C14.8563 2.33177 14.9739 2.35549 15.0833 2.40156C15.1928 2.44762 15.292 2.51509 15.375 2.6C15.4619 2.68054 15.5307 2.77869 15.5767 2.8879C15.6226 2.99712 15.6448 3.11488 15.6417 3.23334C15.6462 3.351 15.6271 3.46838 15.5856 3.57858C15.5441 3.68877 15.481 3.78955 15.4 3.875Z" fill="#9AA2AF"/>
</svg>
