<svg width="20" height="12" viewBox="0 0 20 12" fill="none" xmlns="http://www.w3.org/2000/svg">
<path d="M19.1667 3.76666C19.2189 3.55255 19.1892 3.32665 19.0833 3.13333C18.8133 2.6647 18.4533 2.25401 18.0241 1.92483C17.595 1.59565 17.105 1.35445 16.5824 1.21509C16.0598 1.07572 15.5148 1.04093 14.9787 1.1127C14.4426 1.18447 13.9259 1.3614 13.4583 1.63333L11.6667 2.66666L7.50001 0.70833C7.38155 0.646961 7.25009 0.614929 7.11668 0.614929C6.98326 0.614929 6.8518 0.646961 6.73334 0.70833L4.23334 2.15C4.10979 2.22126 4.0066 2.32305 3.93365 2.44561C3.86069 2.56818 3.82042 2.70741 3.81668 2.85C3.81264 2.99364 3.84582 3.13588 3.91299 3.26292C3.98015 3.38995 4.07903 3.49746 4.20001 3.575L6.95001 5.30833L5.50001 6.14166L1.51668 6.625C1.35655 6.6448 1.20561 6.71067 1.0822 6.8146C0.958779 6.91853 0.868187 7.05606 0.821419 7.21048C0.774651 7.3649 0.773719 7.52958 0.818734 7.68452C0.86375 7.83947 0.952778 7.97801 1.07501 8.08333L4.02501 10.6333C4.41338 11.004 4.91076 11.2398 5.44355 11.3058C5.97634 11.3719 6.51623 11.2646 6.98334 11L18.75 4.275C18.8503 4.22294 18.9389 4.15103 19.0106 4.06365C19.0822 3.97626 19.1353 3.87522 19.1667 3.76666ZM6.22501 9.6C6.06493 9.68808 5.88035 9.72111 5.69966 9.69401C5.51897 9.6669 5.3522 9.58117 5.22501 9.45L3.64168 8.09166L5.91668 7.81666C6.02847 7.80234 6.1362 7.76548 6.23334 7.70833L9.03334 6.1C9.15808 6.028 9.26204 5.9249 9.33506 5.80076C9.40809 5.67662 9.44769 5.53567 9.45001 5.39166C9.45172 5.24864 9.41659 5.10758 9.34799 4.98206C9.27939 4.85654 9.17964 4.7508 9.05834 4.675L6.30834 2.93333L7.22501 2.40833L11.3917 4.34166C11.5101 4.40303 11.6416 4.43506 11.775 4.43506C11.9084 4.43506 12.0399 4.40303 12.1583 4.34166L14.2917 3.10833C14.7288 2.86333 15.2296 2.75538 15.7288 2.79847C16.2281 2.84156 16.7029 3.03371 17.0917 3.35L6.22501 9.6Z" fill="#9AA2AF"/>
</svg>
