<svg width="18" height="20" viewBox="0 0 18 20" fill="none" xmlns="http://www.w3.org/2000/svg">
<path d="M5.24996 3.3333C5.35963 3.33394 5.46835 3.31292 5.56988 3.27145C5.67141 3.22998 5.76376 3.16887 5.84163 3.09164L6.67496 2.2583C6.83188 2.10138 6.92004 1.88856 6.92004 1.66664C6.92004 1.44472 6.83188 1.23189 6.67496 1.07497C6.51804 0.918052 6.30521 0.829895 6.08329 0.829895C5.86137 0.829895 5.64855 0.918052 5.49163 1.07497L4.65829 1.9083C4.58019 1.98577 4.51819 2.07794 4.47588 2.17949C4.43358 2.28104 4.41179 2.38996 4.41179 2.49997C4.41179 2.60998 4.43358 2.7189 4.47588 2.82045C4.51819 2.922 4.58019 3.01417 4.65829 3.09164C4.73616 3.16887 4.82851 3.22998 4.93004 3.27145C5.03157 3.31292 5.14029 3.33394 5.24996 3.3333ZM8.58329 3.3333C8.69297 3.33394 8.80168 3.31292 8.90322 3.27145C9.00475 3.22998 9.09709 3.16887 9.17496 3.09164L10.0083 2.2583C10.1652 2.10138 10.2534 1.88856 10.2534 1.66664C10.2534 1.44472 10.1652 1.23189 10.0083 1.07497C9.85137 0.918052 9.63854 0.829895 9.41663 0.829895C9.19471 0.829895 8.98188 0.918052 8.82496 1.07497L7.99163 1.9083C7.91352 1.98577 7.85152 2.07794 7.80922 2.17949C7.76691 2.28104 7.74513 2.38996 7.74513 2.49997C7.74513 2.60998 7.76691 2.7189 7.80922 2.82045C7.85152 2.922 7.91352 3.01417 7.99163 3.09164C8.06949 3.16887 8.16184 3.22998 8.26337 3.27145C8.3649 3.31292 8.47362 3.33394 8.58329 3.3333ZM11.9166 3.3333C12.0263 3.33394 12.135 3.31292 12.2365 3.27145C12.3381 3.22998 12.4304 3.16887 12.5083 3.09164L13.3416 2.2583C13.4193 2.18061 13.481 2.08836 13.523 1.98685C13.5651 1.88533 13.5867 1.77652 13.5867 1.66664C13.5867 1.55676 13.5651 1.44795 13.523 1.34643C13.481 1.24491 13.4193 1.15267 13.3416 1.07497C13.2639 0.997273 13.1717 0.935639 13.0702 0.893588C12.9686 0.851538 12.8598 0.829895 12.75 0.829895C12.6401 0.829895 12.5313 0.851538 12.4298 0.893588C12.3282 0.935639 12.236 0.997273 12.1583 1.07497L11.325 1.9083C11.2469 1.98577 11.1849 2.07794 11.1426 2.17949C11.1002 2.28104 11.0785 2.38996 11.0785 2.49997C11.0785 2.60998 11.1002 2.7189 11.1426 2.82045C11.1849 2.922 11.2469 3.01417 11.325 3.09164C11.4028 3.16887 11.4952 3.22998 11.5967 3.27145C11.6982 3.31292 11.807 3.33394 11.9166 3.3333ZM13.9333 13.0166C13.9151 12.9635 13.8898 12.9131 13.8583 12.8666L13.7583 12.7416L13.6333 12.6416C13.5868 12.6101 13.5364 12.5849 13.4833 12.5666C13.4337 12.5413 13.3802 12.5244 13.325 12.5166C13.1911 12.4898 13.0527 12.4963 12.9219 12.5356C12.7911 12.5748 12.672 12.6456 12.575 12.7416C12.5391 12.7812 12.5057 12.823 12.475 12.8666C12.4434 12.9131 12.4182 12.9635 12.4 13.0166C12.3759 13.0639 12.3591 13.1144 12.35 13.1666C12.3459 13.2221 12.3459 13.2778 12.35 13.3333C12.3509 13.5519 12.4377 13.7614 12.5916 13.9166C12.6687 13.9972 12.7626 14.0598 12.8666 14.1C12.9616 14.1406 13.0634 14.1632 13.1666 14.1666C13.3876 14.1666 13.5996 14.0788 13.7559 13.9226C13.9122 13.7663 14 13.5543 14 13.3333C14.0041 13.2778 14.0041 13.2221 14 13.1666C13.9856 13.1135 13.9631 13.0629 13.9333 13.0166ZM15.4666 9.2583L14.3333 5.87497C14.1604 5.386 13.8397 4.96289 13.4157 4.66427C12.9917 4.36565 12.4853 4.20631 11.9666 4.2083H6.03329C5.51466 4.20631 5.00825 4.36565 4.58421 4.66427C4.16017 4.96289 3.8395 5.386 3.66663 5.87497L2.53329 9.2583C2.00023 9.39789 1.52822 9.70969 1.19065 10.1452C0.853078 10.5807 0.668856 11.1156 0.666626 11.6666V15C0.668076 15.5158 0.829025 16.0185 1.12741 16.4392C1.42579 16.8599 1.847 17.178 2.33329 17.35V18.3333C2.33329 18.5543 2.42109 18.7663 2.57737 18.9226C2.73365 19.0788 2.94561 19.1666 3.16663 19.1666C3.38764 19.1666 3.5996 19.0788 3.75588 18.9226C3.91216 18.7663 3.99996 18.5543 3.99996 18.3333V17.5H14V18.3333C14 18.5543 14.0878 18.7663 14.244 18.9226C14.4003 19.0788 14.6123 19.1666 14.8333 19.1666C15.0543 19.1666 15.2663 19.0788 15.4225 18.9226C15.5788 18.7663 15.6666 18.5543 15.6666 18.3333V17.35C16.1529 17.178 16.5741 16.8599 16.8725 16.4392C17.1709 16.0185 17.3318 15.5158 17.3333 15V11.6666C17.3311 11.1156 17.1468 10.5807 16.8093 10.1452C16.4717 9.70969 15.9997 9.39789 15.4666 9.2583ZM5.24163 6.39997C5.29753 6.23445 5.40404 6.09069 5.5461 5.98901C5.68816 5.88732 5.85859 5.83285 6.03329 5.8333H11.9666C12.1483 5.82382 12.3282 5.87408 12.4787 5.9764C12.6291 6.07872 12.742 6.22749 12.8 6.39997L13.675 9.16664H4.32496L5.24163 6.39997ZM15.6666 15C15.6666 15.221 15.5788 15.4329 15.4225 15.5892C15.2663 15.7455 15.0543 15.8333 14.8333 15.8333H3.16663C2.94561 15.8333 2.73365 15.7455 2.57737 15.5892C2.42109 15.4329 2.33329 15.221 2.33329 15V11.6666C2.33329 11.4456 2.42109 11.2337 2.57737 11.0774C2.73365 10.9211 2.94561 10.8333 3.16663 10.8333H14.8333C15.0543 10.8333 15.2663 10.9211 15.4225 11.0774C15.5788 11.2337 15.6666 11.4456 15.6666 11.6666V15ZM9.83329 12.5H8.16663C7.94561 12.5 7.73365 12.5878 7.57737 12.744C7.42109 12.9003 7.33329 13.1123 7.33329 13.3333C7.33329 13.5543 7.42109 13.7663 7.57737 13.9226C7.73365 14.0788 7.94561 14.1666 8.16663 14.1666H9.83329C10.0543 14.1666 10.2663 14.0788 10.4225 13.9226C10.5788 13.7663 10.6666 13.5543 10.6666 13.3333C10.6666 13.1123 10.5788 12.9003 10.4225 12.744C10.2663 12.5878 10.0543 12.5 9.83329 12.5ZM5.59996 13.0166C5.58172 12.9635 5.5565 12.9131 5.52496 12.8666L5.42496 12.7416C5.30777 12.626 5.15896 12.5477 4.9973 12.5165C4.83565 12.4854 4.66839 12.5028 4.51663 12.5666C4.41433 12.6063 4.32088 12.6658 4.24163 12.7416C4.20579 12.7812 4.17239 12.823 4.14163 12.8666C4.11009 12.9131 4.08487 12.9635 4.06663 13.0166C4.0368 13.0629 4.01431 13.1135 3.99996 13.1666C3.99587 13.2221 3.99587 13.2778 3.99996 13.3333C4.00065 13.4981 4.0502 13.659 4.14233 13.7957C4.23447 13.9323 4.36506 14.0386 4.51758 14.101C4.67011 14.1635 4.83773 14.1793 4.99924 14.1465C5.16075 14.1136 5.3089 14.0337 5.42496 13.9166C5.57891 13.7614 5.66571 13.5519 5.66663 13.3333C5.67072 13.2778 5.67072 13.2221 5.66663 13.1666C5.65228 13.1135 5.62979 13.0629 5.59996 13.0166Z" fill="#9AA2AF"/>
</svg>
