<svg width="18" height="18" viewBox="0 0 18 18" fill="none" xmlns="http://www.w3.org/2000/svg">
<path d="M12.2487 10.0242L12.2452 10.0226C12.1924 10.0004 12.1415 9.97452 12.0882 9.95337C12.6835 9.48686 13.1649 8.89115 13.4961 8.21125C13.8273 7.53136 13.9996 6.78508 14 6.02881C13.9981 5.85309 13.9856 5.67764 13.9628 5.5034C13.9755 5.47027 13.9861 5.43632 13.9943 5.40177L14.2287 3.40389C14.3016 2.77264 14.1319 2.13727 13.7539 1.62646C13.3759 1.11566 12.8179 0.767616 12.1929 0.652832L11.5346 0.533199C9.85887 0.227215 8.14157 0.227215 6.46584 0.533199L5.80667 0.652832C5.18175 0.767703 4.62384 1.11578 4.24593 1.62658C3.86802 2.13737 3.69836 2.7727 3.77131 3.40389L4.00569 5.40177C4.0139 5.43633 4.02443 5.4703 4.03722 5.50344C4.01435 5.67766 4.00192 5.8531 3.99999 6.02881C4.0004 6.78507 4.17272 7.53135 4.50392 8.21124C4.83511 8.89112 5.31652 9.48683 5.91176 9.95333C5.85843 9.97449 5.8076 10.0003 5.7548 10.0226L5.75124 10.0242C4.3869 10.5975 3.20093 11.5257 2.31648 12.7123C1.43202 13.8988 0.881332 15.3005 0.721588 16.7718C0.69763 16.9915 0.761936 17.2118 0.90036 17.3841C1.03878 17.5564 1.23999 17.6666 1.4597 17.6906C1.67942 17.7145 1.89966 17.6502 2.07197 17.5118C2.24427 17.3734 2.35453 17.1722 2.37849 16.9525C2.49574 15.8709 2.87758 14.835 3.49026 13.936C4.10294 13.0371 4.92759 12.3029 5.89136 11.7983L8.41082 14.3178C8.48818 14.3952 8.58003 14.4566 8.68113 14.4985C8.78222 14.5404 8.89058 14.5619 9.00001 14.5619C9.10944 14.5619 9.2178 14.5404 9.3189 14.4985C9.41999 14.4566 9.51185 14.3952 9.5892 14.3178L12.1086 11.7983C13.0724 12.3029 13.897 13.0371 14.5097 13.936C15.1224 14.835 15.5042 15.871 15.6215 16.9525C15.6437 17.1565 15.7404 17.3451 15.8931 17.4822C16.0457 17.6193 16.2436 17.6952 16.4487 17.6955C16.4793 17.6955 16.5099 17.6938 16.5403 17.6906C16.76 17.6666 16.9612 17.5564 17.0996 17.3841C17.238 17.2118 17.3023 16.9915 17.2784 16.7718C17.1187 15.3005 16.568 13.8988 15.6835 12.7123C14.7991 11.5257 13.6131 10.5976 12.2487 10.0242ZM5.42658 3.20939C5.40231 2.99905 5.45887 2.78734 5.58481 2.61714C5.71076 2.44693 5.89667 2.33094 6.10491 2.29264L6.76369 2.17302C8.24233 1.90283 9.7577 1.90283 11.2363 2.17302L11.8947 2.29264C12.103 2.33084 12.289 2.4468 12.415 2.61702C12.541 2.78724 12.5977 2.99899 12.5734 3.20939L12.4253 4.47119H5.5747L5.42658 3.20939ZM8.99999 12.5502L7.62476 11.175C8.53122 10.9801 9.46876 10.9801 10.3752 11.175L8.99999 12.5502ZM8.99999 9.36214C8.13511 9.36113 7.30439 9.02441 6.6829 8.42294C6.0614 7.82148 5.69766 7.00224 5.66832 6.13786H12.3317C12.3024 7.00225 11.9386 7.82151 11.3171 8.42297C10.6956 9.02444 9.86488 9.36115 8.99999 9.36214Z" fill="#9AA2AF"/>
</svg>
