<svg width="21" height="20" viewBox="0 0 21 20" fill="none" xmlns="http://www.w3.org/2000/svg">
<path opacity="0.25" d="M3 5.00032L3 15.0003C3 16.8413 4.49238 18.3337 6.33333 18.3337H11.3333L18 11.667V5.00033C18 3.15938 16.5076 1.66699 14.6667 1.66699L6.33333 1.66699C4.49238 1.66699 3 3.15938 3 5.00032Z" fill="url(#paint0_linear_82_15108)"/>
<path d="M11.3332 14.9997V18.333L17.9998 11.6663H14.6665C12.8256 11.6663 11.3332 13.1587 11.3332 14.9997Z" fill="url(#paint1_linear_82_15108)"/>
<path fill-rule="evenodd" clip-rule="evenodd" d="M6.5415 5.83301C6.5415 5.48783 6.82133 5.20801 7.1665 5.20801H13.8332C14.1783 5.20801 14.4582 5.48783 14.4582 5.83301C14.4582 6.17819 14.1783 6.45801 13.8332 6.45801H7.1665C6.82133 6.45801 6.5415 6.17819 6.5415 5.83301Z" fill="url(#paint2_linear_82_15108)"/>
<path fill-rule="evenodd" clip-rule="evenodd" d="M6.5415 9.99967C6.5415 9.6545 6.82133 9.37467 7.1665 9.37467H10.4998C10.845 9.37467 11.1248 9.6545 11.1248 9.99967C11.1248 10.3449 10.845 10.6247 10.4998 10.6247H7.1665C6.82133 10.6247 6.5415 10.3449 6.5415 9.99967Z" fill="url(#paint3_linear_82_15108)"/>
<defs>
<linearGradient id="paint0_linear_82_15108" x1="6.69231" y1="16.9626" x2="38.6792" y2="-14.9229" gradientUnits="userSpaceOnUse">
<stop stop-color="#6B47F5"/>
<stop offset="1" stop-color="white" stop-opacity="0"/>
</linearGradient>
<linearGradient id="paint1_linear_82_15108" x1="9.36202" y1="17.2533" x2="34.5376" y2="-7.09005" gradientUnits="userSpaceOnUse">
<stop stop-color="#6B47F5"/>
<stop offset="1" stop-color="white" stop-opacity="0"/>
</linearGradient>
<linearGradient id="paint2_linear_82_15108" x1="9.36202" y1="17.2533" x2="34.5376" y2="-7.09005" gradientUnits="userSpaceOnUse">
<stop stop-color="#6B47F5"/>
<stop offset="1" stop-color="white" stop-opacity="0"/>
</linearGradient>
<linearGradient id="paint3_linear_82_15108" x1="9.36202" y1="17.2533" x2="34.5376" y2="-7.09005" gradientUnits="userSpaceOnUse">
<stop stop-color="#6B47F5"/>
<stop offset="1" stop-color="white" stop-opacity="0"/>
</linearGradient>
</defs>
</svg>
