<svg width="21" height="20" viewBox="0 0 21 20" fill="none" xmlns="http://www.w3.org/2000/svg">
<path opacity="0.25" d="M11.3332 2.5H9.6665C5.52437 2.5 2.1665 5.85786 2.1665 10V14.1667C2.1665 16.0076 3.65889 17.5 5.49984 17.5H11.3332C15.4753 17.5 18.8332 14.1421 18.8332 10C18.8332 5.85786 15.4753 2.5 11.3332 2.5Z" fill="url(#paint0_linear_82_15103)"/>
<path fill-rule="evenodd" clip-rule="evenodd" d="M6.5415 11.667C6.5415 12.0122 6.82133 12.292 7.1665 12.292H10.4998C10.845 12.292 11.1248 12.0122 11.1248 11.667C11.1248 11.3218 10.845 11.042 10.4998 11.042H7.1665C6.82133 11.042 6.5415 11.3218 6.5415 11.667ZM6.5415 8.33366C6.5415 8.67884 6.82133 8.95866 7.1665 8.95866H13.8332C14.1783 8.95866 14.4582 8.67884 14.4582 8.33366C14.4582 7.98848 14.1783 7.70866 13.8332 7.70866H7.1665C6.82133 7.70866 6.5415 7.98848 6.5415 8.33366Z" fill="url(#paint1_linear_82_15103)"/>
<defs>
<linearGradient id="paint0_linear_82_15103" x1="6.26907" y1="16.2661" x2="34.4483" y2="-18.4129" gradientUnits="userSpaceOnUse">
<stop stop-color="#6B47F5"/>
<stop offset="1" stop-color="white" stop-opacity="0"/>
</linearGradient>
<linearGradient id="paint1_linear_82_15103" x1="8.49022" y1="8.08569" x2="15.7128" y2="21.9033" gradientUnits="userSpaceOnUse">
<stop stop-color="#6B47F5"/>
<stop offset="1" stop-color="white" stop-opacity="0"/>
</linearGradient>
</defs>
</svg>
