<svg width="21" height="20" viewBox="0 0 21 20" fill="none" xmlns="http://www.w3.org/2000/svg">
<path opacity="0.25" d="M3 5.00032L3 15.0003C3 16.8413 4.49238 18.3337 6.33333 18.3337H11.3333L18 11.667V5.00033C18 3.15938 16.5076 1.66699 14.6667 1.66699L6.33333 1.66699C4.49238 1.66699 3 3.15938 3 5.00032Z" fill="url(#paint0_linear_82_15072)"/>
<path d="M7.85026 7.1973C7.85026 5.85842 9.07479 4.77305 10.5853 4.77305C11.4458 4.77305 12.202 5.12563 12.6989 5.68008L12.1248 5.67859C11.936 5.6781 11.7824 5.81338 11.7819 5.98074C11.7813 6.14809 11.934 6.28416 12.1228 6.28465L13.2998 6.28771C13.3129 6.28842 13.3262 6.28846 13.3394 6.28781L13.4903 6.2882C13.5811 6.28844 13.6684 6.25662 13.7327 6.19976C13.797 6.14291 13.8332 6.0657 13.8332 5.98517L13.8332 4.77305C13.8332 4.60569 13.6801 4.47002 13.4913 4.47002C13.3025 4.47002 13.1494 4.60569 13.1494 4.77305L13.1494 5.21229C12.5297 4.57317 11.6188 4.16699 10.5853 4.16699C8.69715 4.16699 7.1665 5.52371 7.1665 7.1973C7.1665 7.36465 7.31957 7.50033 7.50838 7.50033C7.6972 7.50033 7.85026 7.36465 7.85026 7.1973Z" fill="url(#paint1_linear_82_15072)"/>
<path d="M13.1494 7.80336C13.1494 9.14223 11.9249 10.2276 10.4144 10.2276C9.55384 10.2276 8.79768 9.87502 8.30078 9.32057L8.8749 9.32206C9.06372 9.32255 9.21723 9.18727 9.21778 9.01992C9.21834 8.85256 9.06572 8.71649 8.87691 8.716L7.69986 8.71294C7.68673 8.71223 7.67351 8.71219 7.66027 8.71284L7.50939 8.71245C7.41854 8.71221 7.33132 8.74403 7.26699 8.80089C7.20266 8.85774 7.1665 8.93496 7.1665 9.01548L7.1665 10.2276C7.16651 10.395 7.31957 10.5306 7.50839 10.5306C7.6972 10.5306 7.85027 10.395 7.85027 10.2276L7.85027 9.78836C8.46994 10.4275 9.38087 10.8337 10.4144 10.8337C12.3025 10.8337 13.8332 9.47695 13.8332 7.80336C13.8332 7.636 13.6801 7.50033 13.4913 7.50033C13.3025 7.50033 13.1494 7.636 13.1494 7.80336Z" fill="url(#paint2_linear_82_15072)"/>
<path d="M11.3332 15.0003V18.3337L17.9998 11.667H14.6665C12.8256 11.667 11.3332 13.1594 11.3332 15.0003Z" fill="url(#paint3_linear_82_15072)"/>
<defs>
<linearGradient id="paint0_linear_82_15072" x1="6.69231" y1="16.9626" x2="38.6792" y2="-14.9229" gradientUnits="userSpaceOnUse">
<stop stop-color="#6B47F5"/>
<stop offset="1" stop-color="white" stop-opacity="0"/>
</linearGradient>
<linearGradient id="paint1_linear_82_15072" x1="9.83317" y1="17.1683" x2="36.6515" y2="-5.54629" gradientUnits="userSpaceOnUse">
<stop stop-color="#6B47F5"/>
<stop offset="1" stop-color="white" stop-opacity="0"/>
</linearGradient>
<linearGradient id="paint2_linear_82_15072" x1="9.83317" y1="17.1683" x2="36.6515" y2="-5.54629" gradientUnits="userSpaceOnUse">
<stop stop-color="#6B47F5"/>
<stop offset="1" stop-color="white" stop-opacity="0"/>
</linearGradient>
<linearGradient id="paint3_linear_82_15072" x1="9.83317" y1="17.1683" x2="36.6515" y2="-5.54629" gradientUnits="userSpaceOnUse">
<stop stop-color="#6B47F5"/>
<stop offset="1" stop-color="white" stop-opacity="0"/>
</linearGradient>
</defs>
</svg>
