<svg width="19" height="18" viewBox="0 0 19 18" fill="none" xmlns="http://www.w3.org/2000/svg">
<path fill-rule="evenodd" clip-rule="evenodd" d="M2.14903 6.67312C2.51361 6.4457 2.92699 6.24228 3.37516 6.06301C4.0997 5.77319 4.9407 5.53635 5.86351 5.364C6.03586 4.44119 6.2727 3.60019 6.56252 2.87565C6.74179 2.42748 6.94521 2.01409 7.17263 1.64952C4.78716 2.40404 2.90355 4.28764 2.14903 6.67312ZM9.49984 0.0419922C4.55229 0.0419922 0.541504 4.05277 0.541504 9.00033C0.541504 13.9479 4.55229 17.9587 9.49984 17.9587C14.4474 17.9587 18.4582 13.9479 18.4582 9.00033C18.4582 4.05277 14.4474 0.0419922 9.49984 0.0419922ZM9.49984 1.29199C9.26683 1.29199 8.98162 1.40748 8.65645 1.75131C8.33004 2.09646 8.00729 2.62945 7.72311 3.33989C7.50982 3.87311 7.32517 4.48892 7.17779 5.16908C7.91966 5.08597 8.69853 5.04199 9.49984 5.04199C10.3011 5.04199 11.08 5.08597 11.8219 5.16908C11.6745 4.48892 11.4899 3.87311 11.2766 3.33989C10.9924 2.62945 10.6696 2.09646 10.3432 1.75131C10.0181 1.40748 9.73285 1.29199 9.49984 1.29199ZM13.1362 5.364C12.9638 4.44119 12.727 3.60019 12.4372 2.87565C12.2579 2.42748 12.0545 2.01409 11.827 1.64952C14.2125 2.40404 16.0961 4.28764 16.8506 6.67312C16.4861 6.4457 16.0727 6.24228 15.6245 6.06301C14.9 5.77319 14.059 5.53635 13.1362 5.364ZM12.0446 6.45556C11.2491 6.34994 10.3936 6.29199 9.49984 6.29199C8.60604 6.29199 7.75055 6.34994 6.95507 6.45556C6.84946 7.25104 6.7915 8.10653 6.7915 9.00033C6.7915 9.89412 6.84946 10.7496 6.95507 11.5451C7.75055 11.6507 8.60604 11.7087 9.49984 11.7087C10.3936 11.7087 11.2491 11.6507 12.0446 11.5451C12.1502 10.7496 12.2082 9.89412 12.2082 9.00033C12.2082 8.10653 12.1502 7.25104 12.0446 6.45556ZM13.3311 11.3224C13.4142 10.5805 13.4582 9.80163 13.4582 9.00033C13.4582 8.19902 13.4142 7.42015 13.3311 6.67828C14.0112 6.82566 14.6271 7.01031 15.1603 7.2236C15.8707 7.50778 16.4037 7.83053 16.7489 8.15694C17.0927 8.48211 17.2082 8.76732 17.2082 9.00033C17.2082 9.23333 17.0927 9.51855 16.7489 9.84371C16.4037 10.1701 15.8707 10.4929 15.1603 10.7771C14.6271 10.9903 14.0112 11.175 13.3311 11.3224ZM11.8219 12.8316C11.08 12.9147 10.3011 12.9587 9.49984 12.9587C8.69853 12.9587 7.91966 12.9147 7.17779 12.8316C7.32517 13.5117 7.50982 14.1275 7.72311 14.6608C8.00729 15.3712 8.33004 15.9042 8.65645 16.2493C8.98162 16.5932 9.26683 16.7087 9.49984 16.7087C9.73285 16.7087 10.0181 16.5932 10.3432 16.2493C10.6696 15.9042 10.9924 15.3712 11.2766 14.6608C11.4899 14.1275 11.6745 13.5117 11.8219 12.8316ZM11.827 16.3511C12.0545 15.9866 12.2579 15.5732 12.4372 15.125C12.727 14.4005 12.9638 13.5595 13.1362 12.6367C14.059 12.4643 14.9 12.2275 15.6245 11.9376C16.0727 11.7584 16.4861 11.555 16.8506 11.3275C16.0961 13.713 14.2125 15.5966 11.827 16.3511ZM7.17263 16.3511C4.78716 15.5966 2.90355 13.713 2.14903 11.3275C2.51361 11.555 2.92699 11.7584 3.37516 11.9376C4.0997 12.2275 4.9407 12.4643 5.86351 12.6367C6.03586 13.5595 6.2727 14.4005 6.56252 15.125C6.74179 15.5732 6.94521 15.9866 7.17263 16.3511ZM5.66859 11.3224C4.98843 11.175 4.37262 10.9903 3.8394 10.7771C3.12896 10.4929 2.59597 10.1701 2.25082 9.84371C1.90699 9.51855 1.7915 9.23333 1.7915 9.00033C1.7915 8.76732 1.90699 8.48211 2.25082 8.15694C2.59597 7.83053 3.12896 7.50778 3.8394 7.2236C4.37262 7.01031 4.98843 6.82566 5.66859 6.67828C5.58548 7.42015 5.5415 8.19902 5.5415 9.00033C5.5415 9.80163 5.58548 10.5805 5.66859 11.3224Z" fill="url(#paint0_linear_82_15095)"/>
<defs>
<linearGradient id="paint0_linear_82_15095" x1="4.95176" y1="16.4848" x2="39.1591" y2="-21.4029" gradientUnits="userSpaceOnUse">
<stop stop-color="#6B47F5"/>
<stop offset="1" stop-color="white" stop-opacity="0"/>
</linearGradient>
</defs>
</svg>
