<svg width="21" height="20" viewBox="0 0 21 20" fill="none" xmlns="http://www.w3.org/2000/svg">
<path opacity="0.25" d="M2.1665 6.66634C2.1665 4.82539 3.65889 3.33301 5.49984 3.33301H15.4998C17.3408 3.33301 18.8332 4.82539 18.8332 6.66634V13.333C18.8332 15.174 17.3408 16.6663 15.4998 16.6663H5.49984C3.65889 16.6663 2.1665 15.174 2.1665 13.333V6.66634Z" fill="url(#paint0_linear_82_15077)"/>
<path fill-rule="evenodd" clip-rule="evenodd" d="M8.83317 8.33366C8.83317 7.41318 8.08698 6.66699 7.1665 6.66699C6.24603 6.66699 5.49984 7.41318 5.49984 8.33366C5.49984 9.25413 6.24603 10.0003 7.1665 10.0003C8.08698 10.0003 8.83317 9.25413 8.83317 8.33366ZM7.1665 10.0003C8.23477 10.0003 9.16748 10.6707 9.6665 11.667C9.6665 12.1272 9.29341 12.5003 8.83317 12.5003H5.49984C5.0396 12.5003 4.6665 12.1272 4.6665 11.667C5.16553 10.6707 6.09824 10.0003 7.1665 10.0003ZM10.4998 8.12533C10.4998 7.78015 10.7797 7.50033 11.1248 7.50033H15.2915C15.6367 7.50033 15.9165 7.78015 15.9165 8.12533C15.9165 8.4705 15.6367 8.75033 15.2915 8.75033H11.1248C10.7797 8.75033 10.4998 8.4705 10.4998 8.12533ZM10.4998 10.417C10.4998 10.0718 10.7797 9.79199 11.1248 9.79199H12.7915C13.1367 9.79199 13.4165 10.0718 13.4165 10.417C13.4165 10.7622 13.1367 11.042 12.7915 11.042H11.1248C10.7797 11.042 10.4998 10.7622 10.4998 10.417Z" fill="url(#paint1_linear_82_15077)"/>
<defs>
<linearGradient id="paint0_linear_82_15077" x1="6.26907" y1="15.5695" x2="30.5618" y2="-18.0634" gradientUnits="userSpaceOnUse">
<stop stop-color="#6B47F5"/>
<stop offset="1" stop-color="white" stop-opacity="0"/>
</linearGradient>
<linearGradient id="paint1_linear_82_15077" x1="7.43573" y1="12.0205" x2="16.0337" y2="-6.34534" gradientUnits="userSpaceOnUse">
<stop stop-color="#6B47F5"/>
<stop offset="1" stop-color="white" stop-opacity="0"/>
</linearGradient>
</defs>
</svg>
