<svg width="21" height="20" viewBox="0 0 21 20" fill="none" xmlns="http://www.w3.org/2000/svg">
<path opacity="0.25" fill-rule="evenodd" clip-rule="evenodd" d="M2.1665 3.7988L2.1665 3.79783C2.16703 2.62093 3.12126 1.66702 4.29829 1.66702L9.65732 1.667C10.4827 1.66683 11.0143 1.66673 11.511 1.80858C11.95 1.93396 12.3619 2.13989 12.7256 2.41588C13.1371 2.72812 13.456 3.15348 13.9511 3.81388L14.6739 4.77765C14.9294 4.78404 15.162 4.79458 15.3745 4.81194C15.9275 4.85713 16.3954 4.9514 16.8227 5.1691C17.5155 5.52212 18.0788 6.08542 18.4318 6.77827C18.6495 7.20553 18.7438 7.67346 18.789 8.22648C18.7997 8.35769 18.8078 8.49656 18.814 8.64374H17.4766C15.8711 8.64374 14.5696 9.94524 14.5696 11.5507C14.5696 13.1562 15.8711 14.4577 17.4766 14.4577H18.814C18.8078 14.6049 18.7997 14.7437 18.789 14.875C18.7438 15.428 18.6495 15.8959 18.4318 16.3232C18.0788 17.016 17.5155 17.5793 16.8227 17.9323C16.3954 18.15 15.9275 18.2443 15.3745 18.2895C14.8337 18.3337 14.1627 18.3337 13.3161 18.3337H7.68354C6.83693 18.3337 6.166 18.3337 5.62521 18.2895C5.0722 18.2443 4.60427 18.15 4.177 17.9323C3.48416 17.5793 2.92086 17.016 2.56784 16.3232C2.35013 15.8959 2.25586 15.428 2.21068 14.875C2.1665 14.3342 2.1665 13.6632 2.1665 12.8166V3.7988ZM11.1917 2.92667C10.8709 2.83506 10.5129 2.82981 9.5696 2.82981H4.29829C3.76313 2.82981 3.32929 3.26364 3.32929 3.7988C3.32929 4.33169 3.75946 4.76412 4.2915 4.76777H13.213L13.0735 4.58174C12.5075 3.82714 12.2885 3.54383 12.0227 3.34219C11.7739 3.15336 11.4921 3.01245 11.1917 2.92667Z" fill="url(#paint0_linear_82_15098)"/>
<path d="M18.8332 12.8189C18.8332 12.9842 18.8332 13.1428 18.8329 13.295H17.4766C16.5133 13.295 15.7324 12.5141 15.7324 11.5508C15.7324 10.5875 16.5133 9.80664 17.4766 9.80664H18.8329C18.8332 9.95886 18.8332 10.1174 18.8332 10.2827V12.8189Z" fill="url(#paint1_linear_82_15098)"/>
<defs>
<linearGradient id="paint0_linear_82_15098" x1="6.26434" y1="16.9626" x2="38.0888" y2="-18.2453" gradientUnits="userSpaceOnUse">
<stop stop-color="#6B47F5"/>
<stop offset="1" stop-color="white" stop-opacity="0"/>
</linearGradient>
<linearGradient id="paint1_linear_82_15098" x1="16.4957" y1="13.0081" x2="23.1898" y2="6.4175" gradientUnits="userSpaceOnUse">
<stop stop-color="#6B47F5"/>
<stop offset="1" stop-color="white" stop-opacity="0"/>
</linearGradient>
</defs>
</svg>
