<svg width="48" height="70" viewBox="0 0 48 70" fill="none" xmlns="http://www.w3.org/2000/svg">
<path d="M47.0354 21.0574C47.0354 9.44631 37.5885 0 25.9766 0H21.0588C9.44699 0 0 9.44631 0 21.058L0.0123042 50.385C0.0125776 51.1398 0.624667 51.7516 1.37949 51.7516H8.08541C5.03207 54.129 3.06455 57.8386 3.06455 61.9991V68.6328C3.06455 69.3879 3.67664 70 4.43174 70H17.3359C18.091 70 18.7031 69.3879 18.7031 68.6328C18.7031 67.8777 18.091 67.2656 17.3359 67.2656H13.6627V61.7422C13.6627 60.9871 13.0506 60.375 12.2955 60.375C11.5404 60.375 10.9283 60.9871 10.9283 61.7422V67.2656H5.79879V61.9991C5.79879 56.3486 10.3961 51.7516 16.0471 51.7516H16.1023C16.6666 55.3406 19.7796 58.0944 23.5237 58.0944C27.2679 58.0944 30.381 55.3406 30.9452 51.7516H31.0003C36.6513 51.7516 41.2486 56.3486 41.2486 61.9991V67.2656H36.1192V61.7422C36.1192 60.9871 35.5071 60.375 34.752 60.375C33.9969 60.375 33.3848 60.9871 33.3848 61.7422V67.2656H29.7117C28.9566 67.2656 28.3445 67.8777 28.3445 68.6328C28.3445 69.3879 28.9566 70 29.7117 70H42.6158C43.3709 70 43.983 69.3879 43.983 68.6328V61.9991C43.983 57.8386 42.0155 54.129 38.9621 51.7516H45.6802C46.0429 51.7516 46.3907 51.6075 46.6472 51.351C46.9037 51.0945 47.0475 50.7466 47.0474 50.3839L47.0354 21.0574ZM21.0588 2.73438H25.9767C36.0808 2.73438 44.3011 10.954 44.3011 21.058L44.3022 23.7173C43.7441 23.4366 43.1263 23.2585 42.4739 23.2084C41.7469 23.1544 41.0368 23.2541 40.3629 23.505C40.1123 23.5982 39.9012 23.7598 39.7474 23.9639C31.2067 23.7225 24.6166 20.6257 20.1487 14.7494C19.8711 14.3843 19.4284 14.1833 18.9715 14.2126C18.5139 14.2424 18.1018 14.4996 17.8739 14.8974C15.4312 19.1629 11.0488 21.8315 6.15111 22.0361C5.48898 22.0637 4.95305 22.5589 4.85652 23.1953C4.76191 23.1971 4.66703 23.2016 4.57174 23.2087C3.91644 23.2585 3.29588 23.438 2.7356 23.7211L2.73451 21.0576C2.73437 10.954 10.9547 2.73438 21.0588 2.73438ZM2.7393 32.5689C3.4218 32.9104 4.18127 33.0947 4.95578 33.0947C5.02209 33.0947 5.08826 33.0935 5.15416 33.0909C6.02355 36.5781 7.70396 39.6937 10.0596 42.1647C12.5435 44.7705 15.6807 46.5466 19.1879 47.3438L19.2113 49.0172H2.74613L2.7393 32.5689ZM23.5238 55.36C21.2931 55.36 19.4143 53.8228 18.8907 51.7516H20.5976C20.9635 51.7516 21.3142 51.6049 21.5711 51.3443C21.828 51.0837 21.9697 50.7311 21.9647 50.3651L21.9063 46.1962C21.897 45.5338 21.4143 44.9734 20.7605 44.8662C13.9616 43.7512 8.90039 38.5351 7.55234 31.2538C7.47879 30.8565 7.23324 30.5121 6.8816 30.313C6.5301 30.1139 6.10846 30.0806 5.72975 30.222C5.48379 30.3138 5.22334 30.3603 4.95564 30.3603C4.33699 30.3603 3.76305 30.1118 3.33976 29.6605C2.91648 29.2091 2.70539 28.6177 2.74531 27.9947C2.81517 26.9032 3.68949 26.0177 4.77654 25.9351C5.10781 25.9107 5.42896 25.9551 5.73125 26.0675C6.15125 26.2236 6.6206 26.1644 6.9881 25.9087C7.35574 25.6532 7.57518 25.2338 7.57518 24.786V24.663C12.2408 24.1094 16.4151 21.666 19.1859 17.8883C24.3417 23.7467 31.6157 26.7133 40.8395 26.7133C41.3864 26.7133 41.8582 26.3922 42.077 25.9283C42.1396 25.9275 42.2038 25.9299 42.2678 25.9347C43.3578 26.0183 44.2323 26.9043 44.3022 27.9958V27.996C44.3028 28.0053 44.3033 28.0148 44.3038 28.0241L44.304 28.2622C44.2771 28.7849 44.0702 29.2735 43.708 29.6598C43.3307 30.0621 42.834 30.3034 42.2929 30.3513C42.2038 30.3038 42.1077 30.2612 42.0023 30.2218C41.6239 30.0804 41.2021 30.1138 40.8505 30.3129C40.4988 30.5119 40.2531 30.8563 40.1796 31.2536C38.885 38.2452 33.302 43.7155 26.2869 44.866C25.6331 44.9732 25.1504 45.5336 25.1411 46.196L25.0827 50.365C25.0775 50.7309 25.2194 51.0836 25.4763 51.3442C25.7332 51.6048 26.0839 51.7515 26.4497 51.7515H28.1568C27.6333 53.8228 25.7547 55.36 23.5238 55.36ZM27.8363 49.0171L27.8597 47.3447C35.0358 45.7293 40.7437 40.1851 42.5767 33.0705C43.1806 33.0105 43.7671 32.839 44.3058 32.5698L44.3126 49.017H27.8363V49.0171Z" fill="#679AB4"/>
<path d="M24.8117 68.1092C24.5917 67.581 24.0479 67.2373 23.4758 67.2682C22.9075 67.299 22.4063 67.6914 22.2414 68.2361C22.0791 68.7721 22.2683 69.3768 22.7164 69.717C23.1793 70.0684 23.823 70.0898 24.3072 69.7689C24.8459 69.412 25.0559 68.705 24.8117 68.1092Z" fill="#679AB4"/>
<path d="M29.9273 31.146C30.6824 31.146 31.2945 30.5339 31.2945 29.7788V27.921C31.2945 27.1659 30.6824 26.5538 29.9273 26.5538C29.1722 26.5538 28.5601 27.1659 28.5601 27.921V29.7788C28.5601 30.5339 29.1722 31.146 29.9273 31.146Z" fill="#679AB4"/>
<path d="M18.4875 29.7788V27.921C18.4875 27.1659 17.8754 26.5538 17.1203 26.5538C16.3652 26.5538 15.7531 27.1659 15.7531 27.921V29.7788C15.7531 30.5339 16.3652 31.146 17.1203 31.146C17.8754 31.146 18.4875 30.5339 18.4875 29.7788Z" fill="#679AB4"/>
<path d="M28.7165 37.3049C28.1827 36.7712 27.3171 36.7713 26.7831 37.3052C25.9124 38.1761 24.755 38.6557 23.5238 38.6557C22.2927 38.6557 21.1352 38.1761 20.2646 37.3052C19.7308 36.7712 18.865 36.7711 18.3311 37.3049C17.7971 37.8388 17.797 38.7044 18.3308 39.2384C19.7179 40.626 21.5622 41.3902 23.5238 41.3902C25.4855 41.3902 27.3298 40.6261 28.7168 39.2386C29.2507 38.7045 29.2506 37.8388 28.7165 37.3049Z" fill="#679AB4"/>
<path d="M32.9947 34.8625H34.6384C35.3935 34.8625 36.0056 34.2504 36.0056 33.4953C36.0056 32.7402 35.3935 32.1281 34.6384 32.1281H32.9947C32.2396 32.1281 31.6276 32.7402 31.6276 33.4953C31.6276 34.2504 32.2396 34.8625 32.9947 34.8625Z" fill="#679AB4"/>
<path d="M14.0529 32.1281H12.4094C11.6543 32.1281 11.0422 32.7402 11.0422 33.4953C11.0422 34.2504 11.6543 34.8625 12.4094 34.8625H14.0529C14.808 34.8625 15.4201 34.2504 15.4201 33.4953C15.4201 32.7402 14.808 32.1281 14.0529 32.1281Z" fill="#679AB4"/>
</svg>
