<svg width="54" height="70" viewBox="0 0 54 70" fill="none" xmlns="http://www.w3.org/2000/svg">
<path d="M14.5195 33.6328C11.8262 33.6328 9.63867 31.4453 9.63867 28.752C9.63867 26.0586 11.8262 23.8711 14.5195 23.8711C15.1621 23.8711 15.6816 24.3906 15.6816 25.0332C15.6816 25.6758 15.1621 26.1953 14.5195 26.1953C13.1113 26.1953 11.9629 27.3438 11.9629 28.752C11.9629 30.1602 13.1113 31.3086 14.5195 31.3086C15.1621 31.3086 15.6816 31.8281 15.6816 32.4707C15.6816 33.1133 15.1621 33.6328 14.5195 33.6328Z" fill="#679AB4"/>
<path d="M39.1836 33.6328C38.541 33.6328 38.0215 33.1133 38.0215 32.4707C38.0215 31.8281 38.541 31.3086 39.1836 31.3086C40.5918 31.3086 41.7402 30.1602 41.7402 28.752C41.7402 27.3438 40.5918 26.1953 39.1836 26.1953C38.541 26.1953 38.0215 25.6758 38.0215 25.0332C38.0215 24.3906 38.541 23.8711 39.1836 23.8711C41.877 23.8711 44.0645 26.0586 44.0645 28.752C44.0781 31.4453 41.877 33.6328 39.1836 33.6328Z" fill="#679AB4"/>
<path d="M27.1523 44.2012H26.5508C19.2773 44.2012 13.3437 38.2812 13.3437 30.9941V22.5176C13.3437 21.875 13.8633 21.3555 14.5059 21.3555C15.1484 21.3555 15.668 21.875 15.668 22.5176V30.9941C15.668 36.9824 20.5488 41.8633 26.5371 41.8633H27.1387C33.127 41.8633 38.0078 36.9824 38.0078 30.9941V22.5176C38.0078 21.875 38.5273 21.3555 39.1699 21.3555C39.8125 21.3555 40.332 21.875 40.332 22.5176V30.9941C40.3594 38.2812 34.4395 44.2012 27.1523 44.2012Z" fill="#679AB4"/>
<path d="M26.8516 48.5352C21.6289 48.5352 17.541 45.8418 17.541 42.3965V41.043C17.541 40.4004 18.0605 39.8809 18.7031 39.8809C19.3457 39.8809 19.8652 40.4004 19.8652 41.043V42.3965C19.8652 44.4199 23.1191 46.1973 26.8379 46.1973C30.5566 46.1973 33.8105 44.4199 33.8105 42.3965V41.043C33.8105 40.4004 34.3301 39.8809 34.9727 39.8809C35.6152 39.8809 36.1348 40.4004 36.1348 41.043V42.3965C36.1621 45.8418 32.0742 48.5352 26.8516 48.5352Z" fill="#679AB4"/>
<path d="M26.8516 54.5918C21.6289 54.5918 17.541 51.8984 17.541 48.4531V41.043C17.541 40.4004 18.0605 39.8809 18.7031 39.8809C19.3457 39.8809 19.8652 40.4004 19.8652 41.043V48.4531C19.8652 50.4766 23.1191 52.2539 26.8379 52.2539C30.5566 52.2539 33.8105 50.4766 33.8105 48.4531V41.043C33.8105 40.4004 34.3301 39.8809 34.9727 39.8809C35.6152 39.8809 36.1348 40.4004 36.1348 41.043V48.4531C36.1621 51.8984 32.0742 54.5918 26.8516 54.5918Z" fill="#679AB4"/>
<path d="M26.8516 54.5918C26.209 54.5918 25.6895 54.0723 25.6895 53.4297V47.373C25.6895 46.7305 26.209 46.2109 26.8516 46.2109C27.4941 46.2109 28.0137 46.7305 28.0137 47.373V53.4297C28.0137 54.0723 27.4941 54.5918 26.8516 54.5918Z" fill="#679AB4"/>
<path d="M9.54297 70C8.90039 70 8.38086 69.4805 8.38086 68.8379V59.6777C8.38086 59.0352 8.90039 58.5156 9.54297 58.5156C10.1855 58.5156 10.7051 59.0352 10.7051 59.6777V68.8379C10.7187 69.4805 10.1855 70 9.54297 70Z" fill="#679AB4"/>
<path d="M44.1602 70C43.5176 70 42.998 69.4805 42.998 68.8379V59.6777C42.998 59.0352 43.5176 58.5156 44.1602 58.5156C44.8027 58.5156 45.3223 59.0352 45.3223 59.6777V68.8379C45.3223 69.4805 44.8027 70 44.1602 70Z" fill="#679AB4"/>
<path d="M26.8516 65.5703C26.7695 65.5703 26.7012 65.5566 26.6191 65.543C26.5508 65.5293 26.4688 65.502 26.4004 65.4746C26.332 65.4473 26.2637 65.4063 26.1953 65.3652C26.127 65.3242 26.0723 65.2695 26.0176 65.2148C25.9629 65.1602 25.9082 65.1055 25.8672 65.0371C25.8262 64.9688 25.7852 64.9004 25.7578 64.832C25.7305 64.7637 25.7031 64.6816 25.6895 64.6133C25.6758 64.5313 25.6621 64.4629 25.6621 64.3809C25.6621 64.2988 25.6758 64.2305 25.6895 64.1484C25.7031 64.0801 25.7305 63.998 25.7578 63.9297C25.7852 63.8613 25.8262 63.793 25.8672 63.7246C25.9082 63.6563 25.9629 63.6016 26.0176 63.5469C26.0723 63.4922 26.127 63.4375 26.1953 63.3965C26.2637 63.3555 26.332 63.3145 26.4004 63.2871C26.4688 63.2598 26.5508 63.2324 26.6191 63.2187C26.7695 63.1914 26.9199 63.1914 27.0703 63.2187C27.1387 63.2324 27.2207 63.2598 27.2891 63.2871C27.3574 63.3145 27.4258 63.3555 27.4941 63.3965C27.5625 63.4375 27.6172 63.4922 27.6719 63.5469C27.7266 63.6016 27.7813 63.6563 27.8223 63.7246C27.8633 63.793 27.9043 63.8613 27.9316 63.9297C27.959 63.998 27.9863 64.0801 28 64.1484C28.0137 64.2305 28.0273 64.2988 28.0273 64.3809C28.0273 64.4629 28.0137 64.5313 28 64.6133C27.9863 64.6816 27.959 64.7637 27.9316 64.832C27.9043 64.9004 27.8633 64.9688 27.8223 65.0371C27.7813 65.1055 27.7266 65.1602 27.6719 65.2148C27.6172 65.2695 27.5625 65.3242 27.4941 65.3652C27.4258 65.4063 27.3574 65.4473 27.2891 65.4746C27.2207 65.502 27.1387 65.5293 27.0703 65.543C27.002 65.5703 26.9336 65.5703 26.8516 65.5703Z" fill="#679AB4"/>
<path d="M26.8516 59.7598C26.7695 59.7598 26.7012 59.7461 26.6191 59.7324C26.5508 59.7187 26.4688 59.6914 26.4004 59.6641C26.332 59.6367 26.2637 59.5957 26.1953 59.5547C26.127 59.5137 26.0723 59.459 26.0176 59.4043C25.9629 59.3496 25.9082 59.2949 25.8672 59.2266C25.8262 59.1582 25.7852 59.0898 25.7578 59.0215C25.7305 58.9531 25.7031 58.8711 25.6895 58.8027C25.6758 58.7207 25.6621 58.6523 25.6621 58.5703C25.6621 58.4883 25.6758 58.4199 25.6895 58.3379C25.7031 58.2695 25.7305 58.1875 25.7578 58.1191C25.7852 58.0508 25.8262 57.9824 25.8672 57.9141C25.9082 57.8457 25.9629 57.791 26.0176 57.7363C26.0723 57.6816 26.127 57.627 26.1953 57.5859C26.2637 57.5449 26.332 57.5039 26.4004 57.4766C26.4688 57.4492 26.5508 57.4219 26.6191 57.4082C27.002 57.3262 27.3984 57.4492 27.6719 57.7227C27.7266 57.7773 27.7813 57.832 27.8223 57.9004C27.8633 57.9688 27.9043 58.0371 27.9316 58.1055C27.959 58.1738 27.9863 58.2559 28 58.3242C28.0137 58.4063 28.0273 58.4746 28.0273 58.5566C28.0273 58.6387 28.0137 58.707 28 58.7891C27.9863 58.8574 27.959 58.9395 27.9316 59.0078C27.9043 59.0762 27.8633 59.1445 27.8223 59.2129C27.7813 59.2813 27.7266 59.3359 27.6719 59.3906C27.4531 59.6367 27.1523 59.7598 26.8516 59.7598Z" fill="#679AB4"/>
<path d="M49.4922 70H4.21094C1.88672 70 0 68.1133 0 65.7891V60.5801C0 53.9766 1.95508 49.4375 5.82422 47.0996C9.05078 45.1582 12.9063 45.1445 15.4766 45.1445H15.5039C17.3906 45.1445 17.5137 43.9141 17.5273 43.7773C17.5684 43.1348 18.1152 42.6426 18.7578 42.6836C19.4004 42.7246 19.8926 43.2715 19.8516 43.9141C19.8379 44.0645 19.7695 44.8984 19.1953 45.7324C18.6621 46.5254 17.582 47.4824 15.4902 47.4824C13.043 47.4824 9.70703 47.4824 7.04102 49.0957C3.88281 51.0098 2.33789 54.7695 2.33789 60.5801V65.7891C2.33789 66.8145 3.17188 67.6621 4.21094 67.6621H49.4922C50.5176 67.6621 51.3652 66.8281 51.3652 65.7891V60.5801C51.3652 54.7695 49.8203 51.0098 46.6621 49.0957C43.9961 47.4824 40.6602 47.4824 38.2129 47.4824H38.1855C36.0937 47.4824 35.0137 46.5391 34.4805 45.7324C33.9199 44.8984 33.8379 44.0645 33.8242 43.9141L36.1484 43.7773V43.7637C36.1758 44.0918 36.4219 45.1445 38.1719 45.1445H38.1992C40.7695 45.1445 44.625 45.1445 47.8516 47.0996C51.7207 49.4375 53.6758 53.9766 53.6758 60.5801V65.7891C53.6895 68.1133 51.8164 70 49.4922 70Z" fill="#679AB4"/>
<path d="M45.7598 48.5352C45.7324 48.5352 45.6914 48.5352 45.6504 48.5352C45.0078 48.4805 44.5293 47.9062 44.584 47.2773C45.7871 33.6055 46.334 24.5137 46.334 21.834C46.334 18.7988 45.6504 15.8867 44.3242 13.1934C44.0371 12.6191 44.2695 11.9219 44.8574 11.6348C45.4316 11.3477 46.1289 11.5801 46.416 12.168C47.9199 15.1895 48.6719 18.4434 48.6719 21.8477C48.6719 25.1836 47.9473 35.7246 46.9219 47.4961C46.8672 48.084 46.3613 48.5352 45.7598 48.5352Z" fill="#679AB4"/>
<path d="M11.7715 8.87305C11.4844 8.87305 11.1973 8.76367 10.9785 8.55859C10.5137 8.12109 10.4863 7.38281 10.9238 6.9043C15.0254 2.51563 20.8359 0 26.8516 0C32.8672 0 38.6777 2.51562 42.793 6.91797C43.2305 7.38281 43.2031 8.12109 42.7383 8.57227C42.2734 9.00977 41.5352 8.98242 41.084 8.51758C37.3516 4.52539 32.3066 2.33789 26.8516 2.33789C21.3965 2.33789 16.3516 4.52539 12.6191 8.51758C12.3867 8.75 12.0723 8.87305 11.7715 8.87305Z" fill="#679AB4"/>
<path d="M7.94336 48.5352C7.3418 48.5352 6.83594 48.084 6.78125 47.4688C5.74219 35.6973 5.03125 25.1563 5.03125 21.8203C5.03125 18.4297 5.7832 15.1895 7.27344 12.168C7.56055 11.5938 8.25781 11.3477 8.83203 11.6348C9.40625 11.9219 9.65234 12.6191 9.36524 13.1934C8.03906 15.8867 7.36914 18.7852 7.36914 21.8066C7.36914 24.4863 7.91602 33.5918 9.11914 47.25C9.17383 47.8926 8.69531 48.4531 8.05273 48.5078C8.01172 48.5352 7.98437 48.5352 7.94336 48.5352Z" fill="#679AB4"/>
<path d="M45.0215 13.8496H8.68164C6.67188 13.8496 5.03125 12.209 5.03125 10.1992C5.03125 8.18945 6.67188 6.54883 8.68164 6.54883H45.0078C47.0176 6.54883 48.6582 8.18945 48.6582 10.1992C48.6719 12.2227 47.0312 13.8496 45.0215 13.8496ZM8.68164 8.87305C7.95703 8.87305 7.35547 9.46094 7.35547 10.1992C7.35547 10.9375 7.94336 11.5254 8.68164 11.5254H45.0078C45.7324 11.5254 46.334 10.9375 46.334 10.1992C46.334 9.46094 45.7461 8.87305 45.0078 8.87305H8.68164Z" fill="#679AB4"/>
<path d="M42.9023 36.3535C42.2598 36.3535 41.7402 35.834 41.7402 35.1914V20.3164C41.7402 19.4824 41.4121 18.7031 40.8242 18.1152C40.2363 17.5273 39.457 17.1992 38.623 17.1992C37.6387 17.1992 36.8594 17.7324 36.3809 18.1699C34.002 20.3711 30.543 21.6289 26.8789 21.6289C23.1328 21.6289 19.7285 20.3848 17.3086 18.1426C16.8437 17.7187 16.0781 17.1992 15.0664 17.1992C14.2324 17.1992 13.4531 17.5273 12.8652 18.1152C12.2773 18.7031 11.9492 19.4824 11.9492 20.3164V35.1777C11.9492 35.8203 11.4297 36.3398 10.7871 36.3398C10.1445 36.3398 9.625 35.8203 9.625 35.1777V20.3164C9.625 18.8535 10.1855 17.4863 11.2246 16.4609C12.25 15.4355 13.6172 14.8613 15.0801 14.8613C16.4609 14.8613 17.8145 15.4219 18.9082 16.4336C20.8633 18.252 23.7754 19.3047 26.8926 19.3047C29.9687 19.3047 32.8535 18.2656 34.8086 16.4609C35.9434 15.4219 37.2559 14.8613 38.6367 14.8613C40.0996 14.8613 41.4668 15.4219 42.4922 16.4609C43.5176 17.5 44.0918 18.8535 44.0918 20.3164V35.1777C44.0781 35.8203 43.5586 36.3535 42.9023 36.3535Z" fill="#679AB4"/>
<path d="M42.9023 23.6934H39.7852C36.7773 23.6934 34.3301 21.2461 34.3301 18.2383C34.3301 17.8418 34.3711 17.459 34.4531 17.0762C34.5898 16.4473 35.2051 16.0508 35.8477 16.1875C36.4766 16.3242 36.873 16.9395 36.7363 17.582C36.6953 17.8008 36.668 18.0195 36.668 18.252C36.668 19.9746 38.0625 21.3691 39.7852 21.3691H42.9023C43.5449 21.3691 44.0645 21.8887 44.0645 22.5313C44.0645 23.1738 43.5586 23.6934 42.9023 23.6934Z" fill="#679AB4"/>
<path d="M13.918 23.6934H10.8008C10.1582 23.6934 9.63867 23.1738 9.63867 22.5313C9.63867 21.8887 10.1582 21.3691 10.8008 21.3691H13.918C15.6406 21.3691 17.0352 19.9746 17.0352 18.252C17.0352 18.0195 17.0078 17.7871 16.9531 17.5684C16.8164 16.9395 17.2129 16.3105 17.8281 16.1738C18.457 16.0371 19.0859 16.4336 19.2227 17.0488C19.3047 17.4453 19.3594 17.8418 19.3594 18.252C19.373 21.2461 16.9258 23.6934 13.918 23.6934Z" fill="#679AB4"/>
</svg>
