<svg width="44" height="70" viewBox="0 0 44 70" fill="none" xmlns="http://www.w3.org/2000/svg">
<path d="M27.692 65.5262C26.9914 65.2452 26.1952 65.5856 25.9142 66.2866C25.6795 66.8721 25.0842 67.2656 24.4332 67.2656H19.4385C18.7875 67.2656 18.1922 66.8721 17.9575 66.2866C17.6765 65.5856 16.8807 65.2459 16.1797 65.5262C15.4789 65.8073 15.1385 66.6031 15.4194 67.3039C16.0761 68.9418 17.6536 70 19.4385 70H24.4332C26.2182 70 27.7956 68.9418 28.4521 67.3039C28.7332 66.6031 28.3928 65.8073 27.692 65.5262Z" fill="#679AB4"/>
<path d="M43.7481 58.4831C43.3768 56.5685 42.1972 54.9109 40.511 53.932C40.8177 53.6815 41.1053 53.4045 41.3678 53.0995C42.6627 51.5952 43.2361 49.6066 42.9406 47.644C42.4609 44.4552 41.1037 41.4757 39.0159 39.0275C37.4526 37.1945 35.5312 35.7174 33.3807 34.6794C36.0124 31.872 37.6268 28.0999 37.6268 23.9575C37.6267 16.7888 32.7941 10.7274 26.2156 8.85992C27.1116 7.7901 27.6005 6.45354 27.6005 5.04123C27.6007 2.26146 25.3391 0 22.5594 0H22.559C21.437 0 20.386 0.364902 19.6 1.0273C18.7313 1.7593 18.2529 2.78811 18.2528 3.9241C18.2528 4.67906 18.8649 5.29129 19.62 5.29129C20.3749 5.29129 20.9872 4.6792 20.9872 3.9241C20.9872 3.59885 21.1132 3.32773 21.362 3.11801C21.6557 2.87055 22.0808 2.73424 22.5592 2.73424H22.5593C23.8313 2.73424 24.8663 3.76893 24.8663 5.04096C24.8663 5.90256 24.5308 6.71248 23.9216 7.3217C23.3123 7.93078 22.5026 8.26629 21.6412 8.26629H21.641C21.6075 8.26629 21.5746 8.26889 21.5418 8.27135C13.0713 8.48135 6.24506 15.4372 6.24492 23.9574C6.24492 28.0998 7.8593 31.8719 10.491 34.6793C8.34068 35.7172 6.41924 37.1942 4.856 39.0273C2.76816 41.4755 1.41096 44.4551 0.931075 47.6438C0.635763 49.6065 1.20903 51.5951 2.50389 53.0994C2.76639 53.4044 3.05404 53.6815 3.3607 53.9319C1.67455 54.9108 0.494806 56.5683 0.123615 58.4829C-0.24867 60.4025 0.229025 62.3867 1.43393 63.9265L4.36176 67.6678C5.54465 69.1794 7.34154 69.9922 9.16414 69.9922C10.1988 69.9922 11.242 69.7303 12.1856 69.1854C14.7916 67.6808 15.9083 64.4417 14.7833 61.651L13.0072 57.2448C12.8885 56.9505 12.7482 56.6681 12.5917 56.3969H22.6194C23.3745 56.3969 23.9866 55.7847 23.9866 55.0297C23.9866 54.2747 23.3745 53.6625 22.6194 53.6625H9.99265V50.7803C9.99265 50.4092 10.2945 50.1073 10.6657 50.1073H33.2061C33.5772 50.1073 33.8792 50.4092 33.8792 50.7803V53.8516C32.5227 54.5952 31.4518 55.7879 30.8644 57.2448L29.0883 61.6509C27.9632 64.4417 29.08 67.6808 31.686 69.1854C32.6297 69.7303 33.6725 69.9922 34.7074 69.9922C36.5299 69.9922 38.3271 69.1793 39.51 67.6678L42.4376 63.9265C43.6428 62.3867 44.1204 60.4026 43.7481 58.4831ZM8.97916 23.9575C8.9793 16.8133 14.7918 11.0009 21.9359 11.0008C29.08 11.0009 34.8924 16.8133 34.8926 23.9575C34.8926 31.1017 29.0802 36.9141 21.9359 36.9142C14.7916 36.9141 8.97916 31.1017 8.97916 23.9575ZM10.4714 58.2672L12.2476 62.6735C12.8662 64.2085 12.2518 65.99 10.8186 66.8176C9.38549 67.6452 7.53527 67.2865 6.51521 65.9829L3.58738 62.2416C2.87057 61.3257 2.58647 60.1456 2.80795 59.0037C3.02943 57.8618 3.73422 56.8734 4.74156 56.2918C5.74877 55.7102 6.95723 55.5944 8.05686 55.9732C9.15648 56.3523 10.0365 57.1886 10.4714 58.2672ZM33.2152 44.6387C32.4601 44.6387 31.848 45.2509 31.848 46.0059V47.373H12.0328V46.0059C12.0328 45.2509 11.4207 44.6387 10.6656 44.6387C9.91049 44.6387 9.2984 45.2509 9.2984 46.0059V47.6603C8.09842 48.1882 7.25814 49.3877 7.25814 50.7805V52.7111C6.22277 52.6076 5.26205 52.1124 4.57613 51.3156C3.80135 50.4153 3.45832 49.2253 3.63496 48.0508C4.41768 42.8482 7.8865 38.5496 12.7563 36.6749C15.3392 38.5444 18.5108 39.6484 21.9359 39.6484C25.3609 39.6484 28.5325 38.5444 31.1154 36.6749C35.9852 38.5496 39.454 42.8482 40.2368 48.0508C40.4134 49.2253 40.0704 50.4153 39.2954 51.3156C38.6097 52.1124 37.6488 52.6076 36.6134 52.7111V50.7805C36.6134 49.3913 35.7774 48.1943 34.5823 47.6644V46.0059C34.5823 45.2509 33.9702 44.6387 33.2152 44.6387ZM40.2843 62.2415L37.3566 65.9828C36.3366 67.2861 34.4866 67.6449 33.0533 66.8175C31.6199 65.9899 31.0056 64.2083 31.6244 62.6731L33.4005 58.2669C33.8354 57.1882 34.7155 56.3521 35.8151 55.9729C36.241 55.8262 36.6832 55.7536 37.1237 55.7536C37.8205 55.7536 38.5133 55.9353 39.1304 56.2916C40.1378 56.8732 40.8424 57.8617 41.064 59.0036C41.2852 60.1455 41.0011 61.3256 40.2843 62.2415Z" fill="#679AB4"/>
<path d="M29.0165 54.0627C28.7622 53.8084 28.4095 53.6621 28.0499 53.6621C27.6903 53.6621 27.3376 53.8083 27.0833 54.0627C26.829 54.3171 26.6827 54.6697 26.6827 55.0293C26.6827 55.3902 26.829 55.7416 27.0833 55.9958C27.3376 56.2514 27.6903 56.3965 28.0499 56.3965C28.4095 56.3965 28.7622 56.2514 29.0165 55.9958C29.2708 55.7416 29.4171 55.3889 29.4171 55.0293C29.4171 54.6697 29.2708 54.317 29.0165 54.0627Z" fill="#679AB4"/>
<path d="M25.7052 28.6264C25.1187 28.1509 24.2578 28.2413 23.7822 28.8277C23.3279 29.3882 22.6549 29.7097 21.9359 29.7097C21.2169 29.7097 20.5436 29.3881 20.0895 28.8277C19.6141 28.241 18.7532 28.1512 18.1665 28.6264C17.5799 29.1018 17.4898 29.9627 17.9653 30.5494C18.9412 31.7535 20.3885 32.4439 21.9359 32.4439C23.4832 32.4439 24.9307 31.7533 25.9064 30.5494C26.3819 29.9627 26.2919 29.1018 25.7052 28.6264Z" fill="#679AB4"/>
<path d="M18.4811 22.9906C17.2409 21.7505 15.223 21.7505 13.9825 22.9906C13.4486 23.5245 13.4485 24.3901 13.9825 24.9241C14.5164 25.4581 15.3821 25.4581 15.916 24.9242C16.09 24.7502 16.3735 24.7502 16.5476 24.9242C16.8146 25.1911 17.1645 25.3247 17.5144 25.3247C17.8642 25.3247 18.2142 25.1911 18.4811 24.9242C19.015 24.3904 19.015 23.5246 18.4811 22.9906Z" fill="#679AB4"/>
<path d="M29.8892 22.9905C28.6489 21.7504 26.6308 21.7504 25.3906 22.9905C24.8567 23.5244 24.8567 24.3901 25.3906 24.9241C25.6575 25.1911 26.0075 25.3246 26.3573 25.3246C26.7072 25.3246 27.0572 25.191 27.3241 24.9241C27.4981 24.7502 27.7815 24.7499 27.9557 24.9241C28.4896 25.4581 29.3553 25.458 29.8892 24.924C30.4231 24.3901 30.4231 23.5245 29.8892 22.9905Z" fill="#679AB4"/>
</svg>
