<svg width="48" height="70" viewBox="0 0 48 70" fill="none" xmlns="http://www.w3.org/2000/svg">
<path d="M20.2812 30.0789V30.0778C20.2812 28.9452 19.363 28.0275 18.2304 28.0275C17.0978 28.0275 16.1796 28.9463 16.1796 30.0789C16.1796 31.2114 17.0978 32.1296 18.2304 32.1296C19.363 32.1296 20.2812 31.2114 20.2812 30.0789Z" fill="#679AB4"/>
<path d="M29.1683 28.0275C28.0357 28.0275 27.1175 28.9463 27.1175 30.0789C27.1175 31.2114 28.0357 32.1296 29.1683 32.1296C30.3009 32.1296 31.2191 31.2114 31.2191 30.0789V30.0778C31.2191 28.9452 30.3009 28.0275 29.1683 28.0275Z" fill="#679AB4"/>
<path d="M26.0807 36.2768C25.3576 36.6944 24.5341 36.9149 23.6993 36.9149C22.8645 36.9149 22.041 36.6942 21.3181 36.2768C20.664 35.8992 19.8281 36.1234 19.4505 36.7772C19.0729 37.4311 19.297 38.2672 19.9509 38.6448C21.0889 39.3019 22.3852 39.6493 23.6993 39.6493C25.0133 39.6493 26.3097 39.3019 27.4478 38.6449C28.1016 38.2675 28.3258 37.4313 27.9482 36.7774C27.5709 36.1236 26.735 35.8995 26.0807 36.2768Z" fill="#679AB4"/>
<path d="M44.1883 8.50227C46.3331 5.56584 46.5722 1.62945 46.5823 1.44133C46.6063 1.00041 46.4157 0.57508 46.0709 0.29932C45.7261 0.0235591 45.2691 -0.0685889 44.8442 0.0518597C40.1213 1.39074 34.9285 1.17295 29.9064 0.962266C29.1517 0.932188 28.5149 1.51652 28.4832 2.27093C28.4516 3.02534 29.0374 3.66259 29.7918 3.69417C34.3436 3.88503 39.0306 4.08176 43.5573 3.17231C43.2403 4.56862 42.5955 6.4355 41.306 7.66378C40.9845 7.96989 40.8119 8.40233 40.8761 8.84133C40.94 9.27719 41.19 9.64469 41.5805 9.84676C41.7194 9.93303 43.0059 10.7845 43.8771 13.181C44.6938 15.4277 45.2559 19.4453 43.5246 26.035C43.3018 25.9974 43.0732 25.9768 42.8398 25.9768H42.7941C42.2004 17.2421 35.9975 14.8135 35.7209 14.7095C35.2679 14.5396 34.7588 14.6218 34.3821 14.9257C34.0056 15.2296 33.8178 15.7099 33.8882 16.1886C33.939 16.5347 33.9154 17.0383 33.8287 17.5786C31.3761 15.1853 27.5479 13.7168 23.0802 13.5394C19.6614 13.4038 15.4437 14.1048 13.3233 16.4064C11.2279 16.5027 9.34894 17.3091 7.85611 18.7608C6.07317 20.4945 4.91066 23.1236 4.62656 25.9768H4.55875C4.30076 25.9768 4.04879 26.0018 3.80393 26.0476C2.39231 21.4943 2.17233 15.3159 4.51896 11.7348C5.69556 9.93932 7.42627 8.97846 9.6627 8.87907C10.0575 8.86157 10.4256 8.67399 10.6717 8.3646C12.4349 6.14908 14.7217 4.79625 17.868 4.10706C18.6057 3.94546 19.0726 3.21661 18.911 2.47902C18.7494 1.74142 18.0201 1.27467 17.283 1.43599C13.763 2.20708 11.0211 3.76553 8.92183 6.19255C6.08657 6.48089 3.78246 7.87022 2.23194 10.2363C0.776304 12.4577 0.00439408 15.5022 1.91045e-05 19.0409C-0.00353557 21.8803 0.489059 24.8424 1.39249 27.4742C0.808433 28.183 0.457341 29.0905 0.457341 30.0784C0.457341 32.34 2.29729 34.18 4.55888 34.18H5.82954C7.13479 37.556 9.42372 40.5662 12.3522 42.7342C14.1443 44.0609 16.1157 45.0461 18.1973 45.6742C17.982 48.9242 16.7187 49.2188 15.4276 49.2188H12.7614C7.48424 49.2188 3.19116 53.5121 3.19116 58.7891V68.6328C3.19116 69.3879 3.80338 70 4.55834 70H42.8394C43.5944 70 44.2066 69.3879 44.2066 68.6328V58.7891C44.2066 53.5121 39.9135 49.2188 34.6364 49.2188H31.9703C30.6789 49.2188 29.4156 48.9241 29.2004 45.6744C31.2825 45.0463 33.2542 44.061 35.0466 42.734C37.9751 40.5661 40.264 37.5558 41.5693 34.1799H42.8399C45.1015 34.1799 46.9415 32.3399 46.9415 30.0783C46.9415 29.0741 46.5782 28.1536 45.9769 27.4399C49.2266 15.7933 46.1249 10.5156 44.1883 8.50227ZM5.92538 64.5311H11.3945V67.2656H5.92538V64.5311ZM36.0031 67.2656V64.5311H41.4721V67.2656H36.0031ZM34.6363 51.9532C38.4055 51.9532 41.4721 55.0198 41.4721 58.7891V61.7968H36.0031C36.0031 61.0417 35.3909 60.4296 34.6359 60.4296C33.8809 60.4296 33.2687 61.0417 33.2687 61.7968V67.2656H14.1289V61.7966C14.1289 61.0415 13.5167 60.4295 12.7617 60.4295C12.0067 60.4295 11.3945 61.0415 11.3945 61.7966H5.92538V58.789C5.92538 55.0197 8.99197 51.9531 12.7613 51.9531H15.4274C16.2688 51.9531 16.9711 51.8124 17.5608 51.5887C19.2097 53.1544 21.3982 54.0365 23.6987 54.0365C25.9994 54.0365 28.1879 53.1544 29.8368 51.5887C30.4266 51.8125 31.1288 51.9531 31.9702 51.9531H34.6363V51.9532ZM27.4998 49.6424C27.5461 49.7187 27.5971 49.7962 27.6507 49.874C26.5489 50.7904 25.1566 51.3022 23.6989 51.3022C22.2412 51.3022 20.8491 50.7904 19.7473 49.8741C19.7988 49.7991 19.8478 49.7246 19.8928 49.651C20.4305 48.7708 20.7564 47.6768 20.8915 46.2759C21.8143 46.412 22.7515 46.4842 23.6993 46.4842C24.6469 46.4842 25.5838 46.412 26.5064 46.276C26.6412 47.6721 26.9652 48.7637 27.4998 49.6424ZM42.8398 31.4455H40.6051C40.0133 31.4455 39.4886 31.8264 39.3052 32.3891C37.0909 39.1843 30.8193 43.7498 23.6993 43.7498C16.5793 43.7498 10.3076 39.1843 8.09332 32.389C7.90998 31.8262 7.38526 31.4454 6.7934 31.4454H4.55875C3.80488 31.4454 3.19157 30.832 3.19157 30.0782C3.19157 29.3243 3.80488 28.711 4.55888 28.711L5.92606 28.7109C6.68102 28.7107 7.29311 28.0986 7.29311 27.3437C7.29311 24.7004 8.21623 22.2245 9.76237 20.721C10.8481 19.6653 12.1883 19.1309 13.7484 19.1309C13.8129 19.1309 13.8776 19.1318 13.9428 19.1336C14.4056 19.1459 14.8443 18.924 15.1072 18.5423C16.1266 17.0618 19.3609 16.1284 22.9718 16.2716C26.6256 16.4167 31.2138 17.7567 33.1339 21.0824C33.3775 21.5044 33.8275 21.7649 34.3149 21.766H34.3179C34.8041 21.766 35.2539 21.5077 35.4989 21.0877C35.9364 20.3378 36.2765 19.3462 36.47 18.3519C38.0372 19.6611 40.1056 22.3375 40.1056 27.3438C40.1056 28.0989 40.7177 28.711 41.4726 28.711H42.8399C43.5938 28.711 44.2071 29.3243 44.2071 30.0782C44.2071 30.832 43.5935 31.4455 42.8398 31.4455Z" fill="#679AB4"/>
<path d="M23.6993 3.5416C24.4542 3.5416 25.0665 2.92951 25.0665 2.17441C25.0665 1.41932 24.4542 0.807227 23.6993 0.807227H23.6983C22.9434 0.807227 22.3317 1.41932 22.3317 2.17441C22.3317 2.92951 22.9442 3.5416 23.6993 3.5416Z" fill="#679AB4"/>
</svg>
