<svg width="93" height="93" viewBox="0 0 93 93" fill="none" xmlns="http://www.w3.org/2000/svg">
<mask id="path-1-inside-1_3969_3704" fill="white">
<path fill-rule="evenodd" clip-rule="evenodd" d="M16.1189 26.6816C15.7321 27.1824 15.5222 27.7989 15.5222 28.4336C15.5222 29.0682 15.7321 29.6848 16.1189 30.1855C16.3412 30.6133 22.7269 38.762 36.5291 38.762C43.3999 38.762 49.0582 35.584 54.5144 32.5079C59.9706 29.4318 65.1641 26.539 71.4691 26.539C77.6941 26.539 82.5992 29.5177 87.8572 32.7107L88.06 32.8338L88.0854 32.8493C93.4136 36.0842 99.2667 39.638 106.429 39.638C120.797 39.638 126.799 30.3281 127.042 29.9411C127.357 29.437 127.508 28.8465 127.476 28.2516C127.443 27.6566 127.228 27.0866 126.86 26.6205C120.18 18.3063 111.742 11.6015 102.162 6.9958C92.5821 2.39014 82.1027 0 71.4893 0C60.8759 0 50.3965 2.39014 40.8168 6.9958C31.237 11.6015 22.7989 18.3063 16.1189 26.6205V26.6816ZM4.70114 46.0554C0.912607 56.0416 -0.616776 66.7544 0.224562 77.4122C1.0659 88.0701 4.25674 98.4042 9.5643 107.661C14.8719 116.917 22.1623 124.862 30.9036 130.917C39.645 136.971 49.6169 140.982 60.0918 142.657C60.7121 142.761 61.3491 142.651 61.8994 142.344C62.4497 142.037 62.8809 141.552 63.123 140.967C63.2847 140.559 67.1646 130.781 60.2938 118.741C56.8451 112.784 51.303 109.445 45.9376 106.212L45.9056 106.192C40.5302 102.953 35.4782 99.8975 32.3257 94.3768C29.1999 88.9691 29.3142 83.0542 29.4352 76.7941L29.436 76.7554C29.5572 70.4809 29.6785 63.5342 26.1016 57.2802C18.9277 44.7313 7.91425 44.1812 7.42925 44.1609C6.83403 44.1444 6.24901 44.319 5.75865 44.6596C5.2683 45.0001 4.89797 45.4889 4.70114 46.0554ZM117.605 58.0135C124.536 45.9739 134.863 44.4257 135.307 44.4257C135.937 44.3548 136.572 44.499 137.11 44.8351C137.649 45.1713 138.06 45.6799 138.278 46.2795C142.077 56.2689 143.616 66.9875 142.781 77.6528C141.946 88.3181 138.76 98.6609 133.453 107.926C128.147 117.191 120.856 125.145 112.111 131.207C103.366 137.268 93.3888 141.285 82.9075 142.963C82.3254 143.059 81.7281 142.969 81.1991 142.706C80.6701 142.443 80.2359 142.02 79.9571 141.496C78.6486 138.63 77.9992 135.504 78.0575 132.349C78.1117 127.508 79.4439 122.769 81.9173 118.619C85.4306 112.491 91.2381 109.219 96.5905 106.204C96.7181 106.132 96.8454 106.06 96.9724 105.989C97.1374 105.896 97.3021 105.803 97.4664 105.71C102.735 102.744 107.616 99.9948 110.674 94.6213C113.826 89.0802 113.927 83.1724 114.008 76.8573C114.089 70.5421 114.19 64.0232 117.605 58.0135Z"/>
</mask>
<path d="M16.1189 26.6816L16.6944 27.1261L16.846 26.9297V26.6816H16.1189ZM16.1189 30.1855L16.7641 29.8503L16.7341 29.7926L16.6944 29.7411L16.1189 30.1855ZM54.5144 32.5079L54.8715 33.1413L54.5144 32.5079ZM87.8572 32.7107L87.4798 33.3322L87.4798 33.3322L87.8572 32.7107ZM88.06 32.8338L87.6826 33.4554L87.6827 33.4554L88.06 32.8338ZM88.0854 32.8493L88.4627 32.2277L88.4627 32.2277L88.0854 32.8493ZM127.042 29.9411L127.658 30.3271L127.658 30.3265L127.042 29.9411ZM127.476 28.2516L128.202 28.2118L127.476 28.2516ZM126.86 26.6205L127.43 26.1698L127.427 26.1651L126.86 26.6205ZM102.162 6.9958L101.847 7.65112L102.162 6.9958ZM40.8168 6.9958L41.1318 7.65112L40.8168 6.9958ZM16.1189 26.6205L15.552 26.1651L15.3918 26.3646V26.6205H16.1189ZM0.224562 77.4122L-0.500301 77.4695L0.224562 77.4122ZM4.70114 46.0554L5.38098 46.3133L5.38462 46.3038L5.38799 46.2941L4.70114 46.0554ZM30.9036 130.917L31.3177 130.319L30.9036 130.917ZM60.0918 142.657L60.212 141.94L60.2066 141.939L60.0918 142.657ZM63.123 140.967L63.7949 141.245L63.7989 141.235L63.123 140.967ZM60.2938 118.741L60.9254 118.381L60.9231 118.377L60.2938 118.741ZM45.9376 106.212L46.3129 105.589L46.3129 105.589L45.9376 106.212ZM45.9056 106.192L45.5303 106.815L45.5304 106.815L45.9056 106.192ZM32.3257 94.3768L32.9572 94.0162L32.9552 94.0129L32.3257 94.3768ZM29.4352 76.7941L28.7082 76.7801V76.7801L29.4352 76.7941ZM29.436 76.7554L30.1629 76.7694V76.7694L29.436 76.7554ZM26.1016 57.2802L25.4704 57.641L25.4704 57.6411L26.1016 57.2802ZM7.42925 44.1609L7.45977 43.4343L7.44937 43.434L7.42925 44.1609ZM5.75865 44.6596L6.1734 45.2568H6.1734L5.75865 44.6596ZM135.307 44.4257V45.1528H135.348L135.389 45.1483L135.307 44.4257ZM117.605 58.0135L116.975 57.6508L116.973 57.6543L117.605 58.0135ZM137.11 44.8351L137.495 44.2183V44.2183L137.11 44.8351ZM138.278 46.2795L137.594 46.5278L137.598 46.538L138.278 46.2795ZM142.781 77.6528L143.506 77.7095L142.781 77.6528ZM133.453 107.926L134.084 108.288L133.453 107.926ZM112.111 131.207L112.525 131.804L112.111 131.207ZM82.9075 142.963L82.7926 142.245L82.7891 142.246L82.9075 142.963ZM81.1991 142.706L80.8754 143.357L80.8754 143.357L81.1991 142.706ZM79.9571 141.496L79.2957 141.798L79.3048 141.818L79.3152 141.838L79.9571 141.496ZM78.0575 132.349L78.7846 132.363L78.7846 132.358L78.0575 132.349ZM81.9173 118.619L82.542 118.991L82.5481 118.981L81.9173 118.619ZM96.5905 106.204L96.2336 105.57L96.5905 106.204ZM96.9724 105.989L97.3295 106.622L97.3295 106.622L96.9724 105.989ZM97.4664 105.71L97.8232 106.344H97.8232L97.4664 105.71ZM110.674 94.6213L111.306 94.9808L110.674 94.6213ZM114.008 76.8573L113.281 76.8479L114.008 76.8573ZM16.2493 28.4336C16.2493 27.9592 16.4063 27.4991 16.6944 27.1261L15.5434 26.2372C15.058 26.8657 14.795 27.6386 14.795 28.4336H16.2493ZM16.6944 29.7411C16.4063 29.368 16.2493 28.9079 16.2493 28.4336H14.795C14.795 29.2285 15.058 30.0015 15.5434 30.63L16.6944 29.7411ZM36.5291 38.0349C29.7791 38.0349 24.8639 36.0443 21.6165 34.0174C19.9906 33.0025 18.7808 31.9772 17.9683 31.1854C17.562 30.7894 17.2565 30.4532 17.049 30.2076C16.9451 30.0847 16.8674 29.9863 16.8149 29.9163C16.7507 29.8306 16.747 29.8174 16.7641 29.8503L15.4737 30.5208C15.5185 30.6072 15.5908 30.7078 15.6513 30.7885C15.7235 30.8848 15.8192 31.0054 15.9382 31.1462C16.1764 31.4281 16.514 31.7987 16.9533 32.2268C17.832 33.0832 19.123 34.1752 20.8465 35.251C24.2981 37.4054 29.477 39.4891 36.5291 39.4891V38.0349ZM54.1573 31.8745C48.678 34.9637 43.1807 38.0349 36.5291 38.0349V39.4891C43.6191 39.4891 49.4384 36.2044 54.8715 33.1413L54.1573 31.8745ZM71.4691 25.8119C64.9444 25.8119 59.5891 28.8122 54.1573 31.8745L54.8715 33.1413C60.3522 30.0514 65.3838 27.2662 71.4691 27.2662V25.8119ZM88.2346 32.0892C83.0041 28.9129 77.9289 25.8119 71.4691 25.8119V27.2662C77.4592 27.2662 82.1943 30.1225 87.4798 33.3322L88.2346 32.0892ZM88.4374 32.2123L88.2346 32.0892L87.4798 33.3322L87.6826 33.4554L88.4374 32.2123ZM88.4627 32.2277L88.4373 32.2123L87.6827 33.4554L87.7081 33.4708L88.4627 32.2277ZM106.429 38.9108C99.5005 38.9108 93.816 35.478 88.4627 32.2277L87.708 33.4708C93.0111 36.6905 99.0329 40.3651 106.429 40.3651V38.9108ZM126.425 29.555C126.242 29.8484 120.433 38.9108 106.429 38.9108V40.3651C121.161 40.3651 127.357 30.8079 127.658 30.3271L126.425 29.555ZM126.75 28.2913C126.774 28.737 126.66 29.1789 126.425 29.5557L127.658 30.3265C128.053 29.695 128.243 28.956 128.202 28.2118L126.75 28.2913ZM126.289 27.0713C126.564 27.4193 126.725 27.8456 126.75 28.2913L128.202 28.2118C128.161 27.4676 127.892 26.754 127.43 26.1698L126.289 27.0713ZM101.847 7.65112C111.328 12.2096 119.681 18.846 126.293 27.0759L127.427 26.1651C120.679 17.7666 112.155 10.9933 102.477 6.34049L101.847 7.65112ZM71.4893 0.727119C81.9935 0.727119 92.3652 3.09264 101.847 7.65112L102.477 6.34049C92.799 1.68763 82.212 -0.727119 71.4893 -0.727119V0.727119ZM41.1318 7.65112C50.6134 3.09264 60.9851 0.727119 71.4893 0.727119V-0.727119C60.7666 -0.727119 50.1796 1.68763 40.5017 6.34049L41.1318 7.65112ZM16.6857 27.0759C23.298 18.846 31.6502 12.2096 41.1318 7.65112L40.5017 6.34049C30.8238 10.9933 22.2998 17.7666 15.552 26.1651L16.6857 27.0759ZM16.846 26.6816V26.6205H15.3918V26.6816H16.846ZM0.949426 77.355C0.116532 66.8041 1.63059 56.199 5.38098 46.3133L4.02131 45.7975C0.194629 55.8842 -1.35008 66.7046 -0.500301 77.4695L0.949426 77.355ZM10.1951 107.299C4.94112 98.136 1.78232 87.9059 0.949426 77.355L-0.500301 77.4695C0.349482 88.2343 3.57236 98.6724 8.93352 108.022L10.1951 107.299ZM31.3177 130.319C22.6655 124.327 15.449 116.462 10.1951 107.299L8.93352 108.022C14.2947 117.372 21.659 125.398 30.4896 131.515L31.3177 130.319ZM60.2066 141.939C49.8395 140.282 39.9698 136.312 31.3177 130.319L30.4896 131.515C39.3203 137.631 49.3943 141.683 59.977 143.375L60.2066 141.939ZM61.5452 141.709C61.1389 141.936 60.6692 142.017 60.212 141.94L59.9716 143.374C60.7551 143.506 61.5594 143.366 62.2536 142.979L61.5452 141.709ZM62.4511 140.688C62.2713 141.123 61.9516 141.482 61.5452 141.709L62.2536 142.979C62.9477 142.592 63.4904 141.98 63.7949 141.245L62.4511 140.688ZM59.6623 119.102C66.3745 130.863 62.5726 140.382 62.4471 140.698L63.7989 141.235C63.9967 140.736 67.9547 130.698 60.9254 118.381L59.6623 119.102ZM45.5623 106.834C50.9504 110.081 56.3236 113.335 59.6646 119.105L60.9231 118.377C57.3666 112.234 51.6557 108.808 46.3129 105.589L45.5623 106.834ZM45.5304 106.815L45.5624 106.834L46.3129 105.589L46.2809 105.569L45.5304 106.815ZM31.6943 94.7373C34.955 100.448 40.1794 103.591 45.5303 106.815L46.2809 105.569C40.8811 102.316 36.0014 99.3473 32.9571 94.0162L31.6943 94.7373ZM28.7082 76.7801C28.5879 83.0047 28.4528 89.1295 31.6962 94.7407L32.9552 94.0129C29.947 88.8087 30.0405 83.1037 30.1622 76.8082L28.7082 76.7801ZM28.709 76.7413L28.7082 76.7801L30.1622 76.8082L30.1629 76.7694L28.709 76.7413ZM25.4704 57.6411C28.9328 63.6951 28.8308 70.4385 28.709 76.7413L30.1629 76.7694C30.2836 70.5234 30.4241 63.3734 26.7328 56.9192L25.4704 57.6411ZM7.39874 44.8874C7.77443 44.9031 18.4771 45.4082 25.4704 57.641L26.7329 56.9193C19.3783 44.0544 8.05407 43.4594 7.45977 43.4344L7.39874 44.8874ZM6.1734 45.2568C6.5367 45.0045 6.96942 44.8755 7.40914 44.8877L7.44937 43.434C6.69864 43.4133 5.96132 43.6336 5.3439 44.0623L6.1734 45.2568ZM5.38799 46.2941C5.53458 45.8721 5.81002 45.5092 6.1734 45.2568L5.3439 44.0623C4.72658 44.491 4.26136 45.1057 4.0143 45.8168L5.38799 46.2941ZM135.307 43.6986C135.172 43.6986 134.898 43.7371 134.564 43.802C134.204 43.8721 133.715 43.9849 133.124 44.1579C131.942 44.5038 130.345 45.092 128.543 46.065C124.935 48.0133 120.516 51.5006 116.975 57.6508L118.235 58.3763C121.626 52.4869 125.835 49.1802 129.234 47.3446C130.936 46.4255 132.437 45.8742 133.533 45.5536C134.081 45.3933 134.526 45.2911 134.842 45.2295C135.186 45.1627 135.331 45.1528 135.307 45.1528V43.6986ZM137.495 44.2183C136.818 43.7956 136.019 43.6139 135.226 43.7031L135.389 45.1483C135.855 45.0958 136.326 45.2025 136.725 45.452L137.495 44.2183ZM138.961 46.0313C138.688 45.2797 138.173 44.6409 137.495 44.2183L136.725 45.452C137.125 45.7016 137.432 46.0801 137.594 46.5277L138.961 46.0313ZM143.506 77.7095C144.349 66.9372 142.795 56.111 138.958 46.021L137.598 46.538C141.359 56.4268 142.882 67.0378 142.056 77.5961L143.506 77.7095ZM134.084 108.288C139.444 98.9288 142.663 88.4819 143.506 77.7095L142.056 77.5961C141.23 88.1544 138.075 98.3931 132.822 107.565L134.084 108.288ZM112.525 131.804C121.359 125.681 128.725 117.646 134.084 108.288L132.822 107.565C127.57 116.736 120.352 124.609 111.697 130.609L112.525 131.804ZM83.0225 143.681C93.6115 141.986 103.691 137.928 112.525 131.804L111.697 130.609C103.041 136.609 93.166 140.584 82.7926 142.245L83.0225 143.681ZM80.8754 143.357C81.541 143.688 82.2929 143.801 83.0259 143.68L82.7891 142.246C82.3579 142.317 81.9152 142.25 81.5228 142.055L80.8754 143.357ZM79.3152 141.838C79.6648 142.495 80.2099 143.027 80.8754 143.357L81.5228 142.055C81.1302 141.86 80.807 141.546 80.5991 141.155L79.3152 141.838ZM77.3305 132.336C77.2702 135.599 77.9419 138.833 79.2957 141.798L80.6185 141.194C79.3552 138.428 78.7282 135.409 78.7845 132.363L77.3305 132.336ZM81.2927 118.247C78.7535 122.507 77.386 127.372 77.3305 132.341L78.7846 132.358C78.8373 127.644 80.1343 123.031 82.5419 118.991L81.2927 118.247ZM96.2336 105.57C90.905 108.572 84.9139 111.93 81.2865 118.257L82.5481 118.981C85.9473 113.051 91.5712 109.866 96.9474 106.837L96.2336 105.57ZM96.6153 105.355C96.4884 105.427 96.3612 105.498 96.2336 105.57L96.9474 106.837C97.075 106.765 97.2024 106.694 97.3295 106.622L96.6153 105.355ZM97.1096 105.077C96.9453 105.169 96.7805 105.262 96.6153 105.355L97.3295 106.622C97.4943 106.529 97.6588 106.436 97.8232 106.344L97.1096 105.077ZM110.042 94.2617C107.099 99.4338 102.404 102.096 97.1096 105.077L97.8232 106.344C103.066 103.392 108.134 100.556 111.306 94.9808L110.042 94.2617ZM113.281 76.8479C113.2 83.1893 113.088 88.9078 110.042 94.2617L111.306 94.9808C114.564 89.2526 114.654 83.1556 114.735 76.8666L113.281 76.8479ZM116.973 57.6543C113.452 63.8506 113.361 70.5578 113.281 76.8479L114.735 76.8666C114.816 70.5264 114.928 64.1958 118.237 58.3728L116.973 57.6543Z" fill="white" mask="url(#path-1-inside-1_3969_3704)"/>
</svg>
