<svg width="146" height="49" viewBox="0 0 146 49" fill="none" xmlns="http://www.w3.org/2000/svg">
<rect y="0.714355" width="145.333" height="48" rx="6" fill="#F2F3F5"/>
<path fill-rule="evenodd" clip-rule="evenodd" d="M36.0272 13.3945C36.1367 14.825 35.6843 16.2419 34.766 17.3443C33.8752 18.4523 32.5253 19.0905 31.1036 19.0759C31.0132 17.6866 31.4787 16.3183 32.3977 15.2724C33.3284 14.2124 34.6243 13.5419 36.0272 13.3945ZM40.5232 21.7998C38.8878 22.8053 37.8815 24.5784 37.8567 26.498C37.8591 28.6698 39.1597 30.6297 41.1599 31.4757C40.7752 32.7254 40.1954 33.9064 39.4418 34.975C38.4298 36.4889 37.3687 37.9678 35.6846 37.9952C34.8836 38.0137 34.3429 37.7833 33.7795 37.5433C33.1919 37.293 32.5795 37.0321 31.6213 37.0321C30.605 37.0321 29.9652 37.3014 29.3482 37.5611C28.8149 37.7855 28.2987 38.0028 27.5711 38.0329C25.9672 38.0923 24.7415 36.4172 23.6927 34.9175C21.5964 31.8549 19.9641 26.2866 22.1524 22.4978C23.1801 20.6512 25.1015 19.4794 27.2136 19.4112C28.1233 19.3925 28.9962 19.7431 29.7614 20.0505C30.3467 20.2856 30.869 20.4954 31.2967 20.4954C31.6727 20.4954 32.1805 20.2938 32.7722 20.059C33.7044 19.689 34.8449 19.2364 36.0072 19.3584C37.8132 19.4149 39.4869 20.3197 40.5232 21.7998Z" fill="#1A1C1F"/>
<path fill-rule="evenodd" clip-rule="evenodd" d="M72.5828 12.2251H73.4714V18.4858H72.5828V12.2251ZM53.4208 13.3369C52.8769 12.7625 52.1041 12.4624 51.3152 12.519H49.1599V18.4858H51.3152C53.0925 18.4858 54.1228 17.3901 54.1228 15.4838C54.2223 14.6991 53.9646 13.9112 53.4208 13.3369ZM51.2117 17.6421H50.0867V13.3623H51.2117C51.7725 13.3312 52.3179 13.5523 52.6987 13.9652C53.0794 14.3781 53.2558 14.9396 53.1794 15.4961C53.2618 16.0549 53.0879 16.621 52.7062 17.0373C52.3245 17.4537 51.7755 17.6758 51.2117 17.6421ZM55.1697 16.2324C55.0925 15.4253 55.4795 14.6442 56.1684 14.2167C56.8573 13.7892 57.7291 13.7892 58.418 14.2167C59.1069 14.6442 59.494 15.4253 59.4167 16.2324C59.4954 17.0404 59.1088 17.823 58.4192 18.2515C57.7297 18.6799 56.8567 18.6799 56.1672 18.2515C55.4777 17.823 55.091 17.0404 55.1697 16.2324ZM57.2947 14.6856C58.0642 14.6856 58.5027 15.2564 58.5027 16.2324C58.5027 17.2124 58.0642 17.7827 57.2947 17.7827C56.5222 17.7827 56.0877 17.2163 56.0877 16.2324C56.0877 15.2564 56.5222 14.6856 57.2947 14.6856ZM65.0623 18.4858H64.1404L63.2097 15.1694H63.1394L62.2127 18.4858H61.2996L60.0584 13.9829H60.9597L61.7664 17.4189H61.8328L62.7586 13.9829H63.6111L64.5369 17.4189H64.6072L65.4099 13.9829H66.2986L65.0623 18.4858ZM68.198 13.9829H67.3425L67.3425 18.4858H68.2312V15.8516C68.1993 15.5519 68.2999 15.2532 68.5065 15.0339C68.7132 14.8146 69.0054 14.6964 69.3064 14.7105C69.9636 14.7105 70.2781 15.0703 70.2781 15.794V18.4858H71.1667V15.5708C71.2319 15.1305 71.0933 14.6845 70.7901 14.3587C70.4869 14.0329 70.052 13.8626 69.6082 13.896C69.035 13.8494 68.4953 14.1716 68.2644 14.6982H68.198V13.9829ZM75.7057 14.2166C75.0167 14.6441 74.6296 15.4253 74.7068 16.2324C74.6282 17.0404 75.0149 17.8231 75.7045 18.2515C76.3941 18.6799 77.267 18.6799 77.9566 18.2515C78.6462 17.8231 79.0329 17.0404 78.9543 16.2324C79.0315 15.4253 78.6444 14.6441 77.9554 14.2166C77.2665 13.7891 76.3947 13.7891 75.7057 14.2166ZM78.0398 16.2324C78.0398 15.2564 77.6013 14.6856 76.8318 14.6856C76.0593 14.6856 75.6248 15.2564 75.6248 16.2324C75.6248 17.2163 76.0594 17.7827 76.8318 17.7827C77.6013 17.7827 78.0398 17.2124 78.0398 16.2324ZM81.5647 15.8682C80.4934 15.9346 79.8899 16.4019 79.8899 17.2124C79.8914 17.5967 80.0554 17.9625 80.3414 18.2193C80.6274 18.476 81.0086 18.5998 81.3909 18.56C81.9362 18.5853 82.4529 18.3152 82.7434 17.853H82.8137V18.4859H83.6692V15.4092C83.6692 14.458 83.0325 13.896 81.9036 13.896C80.8821 13.896 80.1545 14.3921 80.0637 15.1655H80.9241C81.0227 14.8472 81.3665 14.6651 81.8626 14.6651C82.47 14.6651 82.7844 14.9336 82.7844 15.4092V15.7979L81.5647 15.8682ZM82.7844 16.8276V16.4512L81.6848 16.5215C81.0647 16.563 80.7834 16.7739 80.7834 17.1709C80.7834 17.5762 81.135 17.812 81.6184 17.812C81.9046 17.841 82.1903 17.7526 82.4101 17.567C82.6299 17.3815 82.765 17.1146 82.7844 16.8276ZM86.7063 13.9082C85.5686 13.9082 84.8372 14.8096 84.8372 16.2324C84.8372 17.6587 85.5608 18.5601 86.7063 18.56C87.2871 18.5815 87.8317 18.2788 88.1204 17.7744H88.1907V18.4858H89.0422V12.2251H88.1536V14.6982H88.0872C87.8188 14.1896 87.2808 13.8817 86.7063 13.9082ZM85.7552 16.2324C85.7552 17.1875 86.2054 17.7622 86.9583 17.7622C87.7073 17.7622 88.1702 17.1792 88.1702 16.2363C88.1702 15.2979 87.7024 14.7066 86.9583 14.7066C86.2102 14.7066 85.7552 15.2852 85.7552 16.2324ZM93.7177 14.2167C93.0288 14.6442 92.6418 15.4253 92.719 16.2324C92.6403 17.0404 93.027 17.823 93.7165 18.2515C94.4061 18.6799 95.279 18.6799 95.9685 18.2515C96.6581 17.823 97.0447 17.0404 96.9661 16.2324C97.0433 15.4253 96.6563 14.6442 95.9673 14.2167C95.2784 13.7892 94.4067 13.7892 93.7177 14.2167ZM96.052 16.2324C96.052 15.2564 95.6135 14.6856 94.844 14.6856C94.0715 14.6856 93.637 15.2564 93.637 16.2324C93.637 17.2163 94.0716 17.7827 94.844 17.7827C95.6135 17.7827 96.052 17.2124 96.052 16.2324ZM99.0139 13.9829H98.1584V18.4858H99.0471V15.8516C99.0152 15.5519 99.1158 15.2532 99.3225 15.0339C99.5291 14.8146 99.8213 14.6964 100.122 14.7105C100.78 14.7105 101.094 15.0703 101.094 15.794V18.4858H101.983V15.5708C102.048 15.1305 101.909 14.6845 101.606 14.3587C101.303 14.0329 100.868 13.8626 100.424 13.896C99.8509 13.8494 99.3113 14.1716 99.0803 14.6982H99.0139V13.9829ZM107.004 12.8618V14.0034H107.98V14.752H107.004V17.0674C107.004 17.5391 107.198 17.7456 107.641 17.7456C107.754 17.7453 107.867 17.7384 107.98 17.7251V18.4653C107.82 18.4939 107.658 18.5091 107.496 18.5107C106.508 18.5107 106.115 18.1631 106.115 17.2949V14.7519H105.4V14.0034H106.115V12.8618H107.004ZM110.074 12.2251H109.194L109.194 18.4858H110.082V15.8559C110.055 15.547 110.165 15.2416 110.384 15.0215C110.602 14.8014 110.907 14.689 111.216 14.7143C111.844 14.7143 112.179 15.0786 112.179 15.7978V18.4858H113.069V15.5786C113.127 15.1406 112.988 14.6992 112.688 14.3745C112.388 14.0499 111.959 13.8759 111.518 13.8999C110.936 13.8527 110.387 14.1753 110.145 14.7065H110.074V12.2251ZM118.25 17.27C118.001 18.1194 117.179 18.6682 116.299 18.5728C115.699 18.5886 115.122 18.3397 114.721 17.8922C114.32 17.4446 114.137 16.8436 114.219 16.2485C114.139 15.6519 114.322 15.0499 114.72 14.5985C115.119 14.1472 115.693 13.8909 116.295 13.896C117.548 13.896 118.304 14.752 118.304 16.166V16.4761H115.124V16.5259C115.096 16.86 115.21 17.1905 115.439 17.4361C115.667 17.6817 115.988 17.8196 116.323 17.8159C116.758 17.8681 117.181 17.6524 117.395 17.27L118.25 17.27ZM117.399 15.8189H115.124C115.12 15.5084 115.242 15.2094 115.461 14.9897C115.681 14.7701 115.98 14.6485 116.29 14.6524C116.597 14.6453 116.892 14.768 117.103 14.9902C117.314 15.2123 117.421 15.5133 117.399 15.8189Z" fill="#1A1C1F"/>
<path fill-rule="evenodd" clip-rule="evenodd" d="M89.4114 34.7886C87.7766 34.7886 86.5803 33.98 86.4426 32.7486L84.5402 32.7485C84.6604 34.9946 86.5197 36.4155 89.2736 36.4155C92.217 36.4155 94.0666 34.9604 94.0666 32.6372C94.0666 30.8208 93.009 29.7973 90.4612 29.1948L89.093 28.8589C87.4924 28.4634 86.8381 27.9468 86.8381 27.0689C86.8381 25.9673 87.8625 25.2105 89.3596 25.2105C90.8567 25.2105 91.8811 25.9585 91.9934 27.1978H93.8694C93.8088 25.0552 92.01 23.5835 89.385 23.5835C86.7346 23.5835 84.8674 25.0552 84.8674 27.1978C84.8674 28.9282 85.926 29.9946 88.2063 30.5454L89.8157 30.9331C91.425 31.3286 92.1047 31.9058 92.1047 32.8696C92.1047 33.98 90.9778 34.7886 89.4114 34.7886ZM57.0349 32.8521H52.3015L51.1648 36.2086H49.1599L53.6433 23.7906H55.7263L60.2097 36.2086H58.1707L57.0349 32.8521ZM52.7918 31.3033H56.5438L54.6941 25.856H54.6423L52.7918 31.3033ZM66.114 36.3033C68.3865 36.3033 69.8923 34.4957 69.8923 31.6822C69.8923 28.8765 68.3777 27.0601 66.0798 27.0601C64.8974 27.022 63.7898 27.6369 63.197 28.6607H63.1628V27.1548H61.364V39.2037H63.2224V34.7193H63.2654C63.833 35.7495 64.9394 36.3647 66.114 36.3033ZM67.9822 31.6822C67.9822 29.8492 67.0349 28.6441 65.5896 28.6441C64.1697 28.6441 63.2146 29.8746 63.2146 31.6822C63.2146 33.5064 64.1697 34.7281 65.5896 34.7281C67.0349 34.7281 67.9822 33.5318 67.9822 31.6822ZM76.0789 36.3033C78.3513 36.3033 79.8577 34.4957 79.8577 31.6822C79.8577 28.8765 78.3425 27.0601 76.0446 27.0601C74.8623 27.022 73.7546 27.6369 73.1618 28.6607H73.1277V27.1548H71.3288V39.2037H73.1872V34.7193H73.2302C73.7978 35.7495 74.9042 36.3647 76.0789 36.3033ZM77.947 31.6822C77.947 29.8492 76.9998 28.6441 75.5544 28.6441C74.1345 28.6441 73.1794 29.8746 73.1794 31.6822C73.1794 33.5064 74.1345 34.7281 75.5544 34.7281C76.9998 34.7281 77.947 33.5318 77.947 31.6822ZM98.0793 25.0123V27.1548H99.801V28.6265H98.0793V33.6177C98.0793 34.3931 98.4241 34.7544 99.1809 34.7544C99.3853 34.7509 99.5894 34.7365 99.7922 34.7114V36.1743C99.452 36.2379 99.1061 36.2667 98.76 36.2603C96.927 36.2603 96.2122 35.5718 96.2122 33.8159V28.6265H94.8958V27.1548H96.2121V25.0123H98.0793ZM105.091 27.0435C102.475 27.0435 100.797 28.8336 100.797 31.6822C100.797 34.5386 102.458 36.3209 105.091 36.3209C107.725 36.3209 109.386 34.5386 109.386 31.6822C109.386 28.8335 107.716 27.0435 105.091 27.0435ZM107.492 31.6822C107.492 29.7281 106.597 28.5748 105.091 28.5748C103.585 28.5748 102.69 29.7369 102.69 31.6822C102.69 33.6441 103.585 34.7886 105.091 34.7886C106.597 34.7886 107.492 33.6441 107.492 31.6822ZM112.691 27.1548H110.918L110.918 36.2085H112.777V30.8384C112.715 30.2951 112.893 29.7519 113.266 29.3515C113.638 28.951 114.167 28.7333 114.713 28.7554C114.996 28.7472 115.278 28.7851 115.548 28.8677V27.1294C115.339 27.0826 115.126 27.0593 114.911 27.0601C113.89 27.0211 112.981 27.7038 112.734 28.6958H112.691V27.1548ZM124.116 33.5494C123.866 35.1929 122.266 36.3208 120.218 36.3208C117.584 36.3208 115.949 34.5562 115.949 31.7251C115.949 28.8853 117.593 27.0435 120.14 27.0435C122.645 27.0435 124.22 28.7642 124.22 31.5093V32.146H117.825V32.2583C117.766 32.9324 117.998 33.5996 118.464 34.0902C118.93 34.5809 119.585 34.8477 120.261 34.8228C121.163 34.9073 122.013 34.3894 122.352 33.5494L124.116 33.5494ZM122.361 30.8472H117.834C117.833 30.236 118.075 29.6494 118.508 29.2179C118.941 28.7864 119.529 28.5457 120.14 28.5494C120.746 28.5363 121.331 28.7769 121.752 29.2131C122.174 29.6493 122.394 30.2416 122.361 30.8472Z" fill="#1A1C1F"/>
</svg>
