<svg width="146" height="49" viewBox="0 0 146 49" fill="none" xmlns="http://www.w3.org/2000/svg">
<rect x="0.666748" y="0.714355" width="145.333" height="48" rx="6" fill="#F2F3F5"/>
<path fill-rule="evenodd" clip-rule="evenodd" d="M35.3373 10.364H21.8864C15.5523 10.364 13.2393 12.6859 13.2393 19.02V32.4354C13.2393 38.7695 15.5523 41.0914 21.8864 41.0914H35.3282C41.6623 41.0914 43.9842 38.7695 43.9842 32.4354V18.9933C43.9842 12.6593 41.6712 10.3374 35.3371 10.3374" fill="#1A1C1F"/>
<path d="M19.3241 25.719H20.1425V29.7401H19.3241V28.1032H17.4826V29.7401H16.6641V25.719H17.4826V27.3381H19.3241V25.719ZM23.9234 28.0231C23.9234 28.6725 23.5942 29.0195 23.0334 29.0195C22.4726 29.0195 22.1434 28.6636 22.1434 27.9875V25.719H21.325V28.0231C21.296 28.259 21.3203 28.4985 21.396 28.7238C21.4718 28.9492 21.597 29.1547 21.7625 29.3253C21.928 29.496 22.1297 29.6274 22.3526 29.7099C22.5755 29.7924 22.8141 29.824 23.0509 29.8023C23.2872 29.8205 23.5246 29.7866 23.7464 29.7029C23.9681 29.6193 24.1688 29.488 24.3343 29.3183C24.4997 29.1486 24.6259 28.9447 24.7039 28.7208C24.7819 28.497 24.8097 28.2588 24.7856 28.0231V25.719H23.9761L23.9234 28.0231ZM33.3444 28.4857L32.4544 25.719H31.788L30.898 28.4857L30.008 25.719H29.118L30.4791 29.7401H31.1552L32.0452 27.0712L32.9352 29.7401H33.6113L35.008 25.719H34.118L33.3444 28.4857ZM36.547 28.0057H38.0238V27.2668H36.547V26.4484H38.6999V25.71H35.738V29.7222H38.7716V29.0461H36.547V28.0057ZM39.7496 29.7316H40.5503V25.719H39.7496V29.7316ZM26.3431 28.8953L25.9784 29.7316H25.1421L26.9214 25.7194H27.642L29.4212 29.7316H28.5312L28.1664 28.8953H26.3431ZM26.6545 28.157H27.8822L27.268 26.7154L26.6545 28.157Z" fill="#F2F3F5"/>
<path d="M28.6123 20.6037C27.2555 20.599 25.9558 20.0574 24.9973 19.0971C24.0387 18.1369 23.4994 16.8363 23.4971 15.4795H24.2532C24.2532 16.645 24.7162 17.7628 25.5403 18.587C26.3645 19.4112 27.4823 19.8742 28.6479 19.8742C29.8134 19.8742 30.9312 19.4112 31.7554 18.587C32.5796 17.7628 33.0426 16.645 33.0426 15.4795H33.7632C33.7608 16.8363 33.2214 18.1369 32.2629 19.0971C31.3043 20.0573 30.0046 20.599 28.6479 20.6037" fill="#F2F3F5"/>
<path d="M59.6456 32.1442H55.0992L53.9934 35.1727H51.9913L56.4436 23.8249H58.3301L62.8765 35.1727H60.7803L59.6456 32.1442ZM55.6775 30.6047H59.0674L57.8531 27.3522C57.6869 26.904 57.5207 26.4053 57.3544 25.8633C57.2098 26.3453 57.0508 26.8272 56.8773 27.3088L55.6775 30.6047Z" fill="#1A1C1F"/>
<path d="M63.78 28.7977C63.78 28.1761 63.78 27.4822 63.715 26.7305H65.5364C65.6044 27.0863 65.6502 27.446 65.6737 27.8074C65.9898 27.4269 66.3851 27.1199 66.832 26.9077C67.2788 26.6955 67.7666 26.5832 68.2613 26.5787C68.811 26.5747 69.3512 26.7223 69.8225 27.0052C70.3359 27.3271 70.7412 27.7954 70.9862 28.3496C71.3019 29.0863 71.4525 29.8831 71.4272 30.6842C71.4497 31.5547 71.2768 32.4191 70.9212 33.214C70.6117 33.8783 70.1075 34.4329 69.4756 34.8041C68.8402 35.1746 68.1148 35.3622 67.3794 35.3462C66.8009 35.3476 66.2263 35.2499 65.6808 35.0571V38.5481L63.7438 38.7144L63.78 28.7977ZM68.8395 33.1344C69.2834 32.4527 69.5009 31.6484 69.4611 30.8359C69.519 30.1146 69.3469 29.3935 68.9697 28.776C68.8207 28.5723 68.6244 28.408 68.3978 28.2972C68.1711 28.1864 67.9209 28.1324 67.6687 28.14C67.3018 28.1349 66.9401 28.2271 66.6206 28.4074C66.2834 28.5996 65.9785 28.8436 65.7171 29.1305V33.6624C65.9317 33.7629 66.1572 33.8381 66.3892 33.8865C66.6272 33.9356 66.8694 33.9623 67.1124 33.966C67.4422 33.9839 67.7714 33.9208 68.0713 33.7822C68.3711 33.6437 68.6325 33.4338 68.8325 33.1709" fill="#1A1C1F"/>
<path d="M72.6703 28.7977C72.6703 28.1761 72.6703 27.4822 72.6053 26.7305H74.4272C74.4951 27.0863 74.541 27.446 74.5645 27.8074C74.8806 27.4269 75.2758 27.1199 75.7227 26.9077C76.1696 26.6955 76.6574 26.5832 77.152 26.5787C77.7041 26.5735 78.2468 26.7211 78.7201 27.0052C79.2335 27.3271 79.6388 27.7954 79.8838 28.3496C80.1995 29.0862 80.35 29.8831 80.3247 30.6842C80.3472 31.5547 80.1744 32.4191 79.8187 33.214C79.5093 33.8783 79.0051 34.4329 78.3732 34.8041C77.7375 35.1738 77.0122 35.3614 76.277 35.3462C75.6984 35.3476 75.1239 35.2499 74.5784 35.0571V38.5481L72.6413 38.7144L72.6703 28.7977ZM77.7299 33.1344C78.1737 32.4527 78.3912 31.6484 78.3515 30.8359C78.4093 30.1146 78.2372 29.3935 77.8599 28.776C77.711 28.5723 77.5147 28.408 77.288 28.2972C77.0614 28.1864 76.8111 28.1324 76.5589 28.14C76.1921 28.1349 75.8304 28.2271 75.5108 28.4074C75.1737 28.5996 74.8688 28.8436 74.6074 29.1305V33.6624C74.8219 33.7629 75.0475 33.8381 75.2795 33.8865C75.5175 33.9356 75.7596 33.9623 76.0026 33.966C76.3454 33.9869 76.6877 33.9202 76.9976 33.7722C77.3074 33.6243 77.5746 33.3999 77.7738 33.1203" fill="#1A1C1F"/>
<path d="M83.9748 34.6451C83.1469 34.1942 82.4743 33.504 82.0449 32.6647C81.583 31.7132 81.3574 30.6644 81.3872 29.6072C81.3534 28.4761 81.6202 27.3562 82.1606 26.3619C82.6504 25.4905 83.3873 24.7837 84.2783 24.3307C85.2127 23.8782 86.2399 23.6504 87.2779 23.6657C87.906 23.6631 88.532 23.7359 89.1427 23.8825C89.7143 24.0164 90.2694 24.2127 90.798 24.468L90.3064 25.9569C89.3924 25.4985 88.3871 25.2514 87.3647 25.2338C86.641 25.219 85.9259 25.3934 85.2903 25.7398C84.6826 26.0793 84.1933 26.5966 83.888 27.2222C83.5366 27.9593 83.3657 28.7695 83.3893 29.5857C83.3755 30.3265 83.5056 31.0629 83.7724 31.754C84.017 32.366 84.4466 32.8864 85.0011 33.2427C85.6169 33.6287 86.3348 33.8201 87.0611 33.792C87.4388 33.7894 87.8157 33.7579 88.1886 33.698C88.5497 33.6355 88.9051 33.5437 89.2512 33.4234V31.1249H86.6274V29.6218H91.1304V34.3991C90.4758 34.7112 89.7902 34.9535 89.0849 35.1222C88.3876 35.28 87.6749 35.3599 86.9599 35.3607C85.9287 35.3778 84.9106 35.1288 84.0037 34.6376" fill="#1A1C1F"/>
<path d="M98.0692 35.1727C97.9995 34.8052 97.956 34.4333 97.9392 34.0596C97.6135 34.4333 97.2183 34.7402 96.7755 34.9631C96.2733 35.2144 95.7179 35.3409 95.1564 35.3317C94.6978 35.337 94.2436 35.2408 93.8266 35.0498C93.4306 34.863 93.1005 34.5606 92.8797 34.1825C92.6318 33.7578 92.509 33.2717 92.5255 32.7803C92.5152 32.4105 92.5892 32.0432 92.742 31.7063C92.8948 31.3695 93.1223 31.0718 93.4073 30.8359C94.2852 30.2736 95.3252 30.0192 96.3635 30.1128C96.8762 30.1124 97.3883 30.1487 97.8958 30.2213V30.0406C97.9521 29.4707 97.7806 28.9016 97.4188 28.4577C97.0408 28.1326 96.5502 27.969 96.0527 28.0023C95.6059 28.0057 95.1614 28.0665 94.73 28.183C94.3024 28.2831 93.886 28.426 93.4869 28.6094L93.1834 27.1639C93.6246 26.9798 94.0819 26.837 94.5495 26.7374C95.1353 26.6049 95.7342 26.5394 96.3347 26.5424C96.9703 26.5234 97.6028 26.6366 98.1923 26.8749C98.7159 27.1 99.1415 27.5051 99.3922 28.0169C99.709 28.6943 99.8578 29.4381 99.8259 30.1853V33.5392C99.8259 33.8934 99.8259 34.421 99.8909 35.1294L98.0692 35.1727ZM96.9127 33.6115C97.2851 33.438 97.6193 33.1922 97.8958 32.8884V31.3275C97.4688 31.2761 97.0394 31.2471 96.6093 31.2407C96.0272 31.1829 95.4424 31.32 94.9468 31.6307C94.7966 31.7596 94.6776 31.9209 94.5988 32.1024C94.52 32.284 94.4834 32.4811 94.4918 32.6788C94.4778 32.8478 94.5003 33.0179 94.5576 33.1775C94.615 33.3371 94.7059 33.4825 94.8243 33.604C95.0755 33.8171 95.3988 33.9257 95.7277 33.9075C96.1393 33.8995 96.5441 33.8008 96.9132 33.6184" fill="#1A1C1F"/>
<path d="M101.517 33.1561V23.1671L103.447 23.0154V32.8092C103.421 33.0775 103.485 33.3467 103.627 33.5754C103.702 33.6543 103.793 33.7154 103.895 33.7542C103.996 33.7929 104.105 33.8084 104.213 33.7994C104.384 33.7907 104.554 33.7615 104.719 33.7127L104.95 35.1005C104.732 35.1805 104.507 35.2386 104.278 35.2739C104.039 35.3146 103.797 35.3364 103.555 35.3389C102.218 35.3389 101.546 34.6158 101.546 33.1706" fill="#1A1C1F"/>
<path d="M106.331 33.1561V23.1671L108.261 23.0154V32.8092C108.235 33.0775 108.299 33.3467 108.441 33.5754C108.516 33.6542 108.607 33.7153 108.708 33.7541C108.81 33.7929 108.919 33.8084 109.027 33.7994C109.212 33.7989 109.397 33.7746 109.576 33.7271L109.8 35.1149C109.583 35.1968 109.358 35.2549 109.128 35.2884C108.889 35.3292 108.647 35.3509 108.405 35.3534C107.06 35.3534 106.388 34.6306 106.388 33.1851" fill="#1A1C1F"/>
<path d="M117.787 31.2046H112.258C112.344 32.9779 113.188 33.8621 114.787 33.8572C115.196 33.8583 115.604 33.8098 116.002 33.7127C116.41 33.621 116.809 33.4928 117.194 33.3296L117.621 34.6523C116.624 35.121 115.534 35.3558 114.433 35.3389C113.646 35.3657 112.865 35.1915 112.164 34.833C111.558 34.51 111.07 34.0041 110.769 33.3874C110.44 32.6642 110.282 31.8754 110.306 31.0815C110.286 30.2523 110.454 29.4293 110.798 28.6746C111.095 28.0362 111.572 27.4986 112.171 27.1278C112.786 26.7681 113.489 26.5855 114.202 26.6002C114.882 26.563 115.556 26.7404 116.129 27.1075C116.703 27.4746 117.146 28.0127 117.397 28.6457C117.663 29.2994 117.795 29.9998 117.787 30.7056L117.787 31.2046ZM115.893 29.9759C115.901 29.4272 115.723 28.892 115.387 28.458C115.234 28.2907 115.045 28.1589 114.836 28.0715C114.626 27.9842 114.4 27.9434 114.173 27.9521C113.945 27.9466 113.718 27.9895 113.507 28.0779C113.297 28.1664 113.107 28.2984 112.952 28.4652C112.583 28.8883 112.358 29.4171 112.308 29.9759H115.893Z" fill="#1A1C1F"/>
<path d="M119.341 28.8553C119.341 28.3927 119.341 27.6843 119.283 26.7303H121.09C121.119 26.9664 121.148 27.2483 121.177 27.576C121.177 27.901 121.227 28.1687 121.242 28.371C121.434 28.0397 121.654 27.7254 121.9 27.4313C122.103 27.1855 122.348 26.9775 122.623 26.817C122.927 26.6544 123.268 26.5723 123.613 26.5785C123.874 26.5727 124.135 26.6043 124.387 26.6724L124.141 28.3421C123.936 28.2881 123.724 28.2614 123.512 28.2626C123.091 28.2533 122.677 28.3745 122.327 28.6095C121.9 28.9278 121.531 29.3164 121.235 29.7588V35.1725H119.305L119.341 28.8553Z" fill="#1A1C1F"/>
<path d="M125.579 38.6421C125.334 38.6031 125.093 38.5475 124.856 38.4759L125.202 37.0303C125.332 37.0664 125.499 37.0953 125.701 37.1315C125.887 37.1656 126.076 37.1825 126.265 37.1821C127.118 37.1821 127.761 36.6327 128.188 35.5341L128.318 35.2161L125.196 26.6941H127.27L128.838 31.4573C129.044 32.0696 129.208 32.695 129.329 33.3293C129.481 32.715 129.648 32.1079 129.85 31.5007L131.44 26.6941H133.428L130.32 35.2592C130.082 35.9484 129.762 36.6061 129.366 37.2179C129.065 37.6797 128.652 38.0577 128.166 38.3167C127.648 38.5727 127.074 38.6968 126.496 38.678C126.191 38.6809 125.886 38.6567 125.585 38.6057" fill="#1A1C1F"/>
<path d="M51.9841 12.7951H55.468L55.3738 13.6409H53.003V15.2674H55.2365V16.062H53.003V17.869H55.5038L55.4177 18.7148H51.9841V12.7951Z" fill="#1A1C1F"/>
<path d="M57.8746 15.6932L56.0392 12.7951H57.1954L58.4458 14.927L59.7612 12.7951H60.8889L59.06 15.6574L61.0408 18.7148H59.8627L58.4531 16.387L57.015 18.7148H55.8873L57.8746 15.6932Z" fill="#1A1C1F"/>
<path d="M61.7923 12.7662H63.3897C63.9973 12.7272 64.6011 12.8871 65.1099 13.2215C65.3079 13.3796 65.4651 13.5829 65.5683 13.8143C65.6714 14.0458 65.7175 14.2986 65.7026 14.5515C65.7123 14.912 65.6195 15.2679 65.4352 15.5779C65.2667 15.8692 65.0148 16.1033 64.7121 16.2501C64.3695 16.4142 63.9932 16.4958 63.6134 16.4886C63.3515 16.4836 63.0904 16.457 62.8328 16.4091V18.6859H61.7923V12.7662ZM64.3582 15.4116C64.47 15.3038 64.557 15.173 64.6131 15.0282C64.6692 14.8834 64.6932 14.7281 64.6832 14.5732C64.6959 14.4247 64.6723 14.2754 64.6144 14.138C64.5564 14.0007 64.466 13.8796 64.3507 13.7851C64.0552 13.6067 63.712 13.5234 63.3677 13.5465H62.8111V15.6571C63.0069 15.6939 63.2051 15.7156 63.4042 15.7221C63.7479 15.7445 64.0878 15.6389 64.3583 15.4257" fill="#1A1C1F"/>
<path d="M66.7143 12.7951H67.734V17.8406H70.1836L70.1048 18.7148H66.7143V12.7951Z" fill="#1A1C1F"/>
<path d="M71.7379 18.4256C71.3115 18.1851 70.9667 17.8227 70.7476 17.3848C70.508 16.8973 70.389 16.3594 70.4007 15.8164C70.3922 15.2596 70.5186 14.709 70.7693 14.2118C71.003 13.7518 71.371 13.3737 71.8246 13.1276C72.3172 12.8532 72.8725 12.7112 73.4364 12.7156C73.9732 12.7002 74.5044 12.8274 74.976 13.0842C75.4024 13.3248 75.7472 13.6872 75.9662 14.1251C76.2043 14.6008 76.328 15.1255 76.3277 15.6574C76.3429 16.2319 76.2137 16.801 75.9518 17.3126C75.718 17.7828 75.3443 18.169 74.8821 18.4184C74.3891 18.6819 73.8365 18.8138 73.2776 18.8015C72.7377 18.8163 72.2036 18.6866 71.7308 18.4256H71.7379ZM74.3834 17.7025C74.6723 17.5075 74.8963 17.2306 75.0267 16.9074C75.175 16.5404 75.2464 16.1468 75.2363 15.751C75.2454 15.3643 75.1816 14.9794 75.0484 14.6162C74.9344 14.2961 74.725 14.0186 74.4484 13.8212C74.2178 13.6756 73.9588 13.5808 73.6887 13.543C73.4186 13.5052 73.1435 13.5252 72.8818 13.6018C72.62 13.6783 72.3775 13.8097 72.1704 13.987C71.9632 14.1644 71.7961 14.3838 71.6802 14.6307C71.5323 14.9829 71.4585 15.3618 71.4633 15.7438C71.4597 16.1361 71.5283 16.5256 71.6657 16.893C71.7907 17.2172 72.0097 17.4965 72.2946 17.6953C72.6025 17.8994 72.9661 18.0029 73.3354 17.9917C73.7056 18.0006 74.0702 17.9 74.3834 17.7025Z" fill="#1A1C1F"/>
<path d="M77.4624 12.7662H79.3128C79.8541 12.7303 80.3922 12.8725 80.8451 13.1709C81.018 13.3081 81.1554 13.4847 81.246 13.6859C81.3366 13.8871 81.3776 14.1071 81.3657 14.3274C81.3709 14.5962 81.315 14.8628 81.2024 15.1069C81.0897 15.351 80.9231 15.5664 80.7151 15.7369C80.5445 15.8804 80.3517 15.9951 80.1441 16.0766L81.9656 18.6859H80.7726L79.2186 16.3801H78.4955V18.722H77.4624V12.7662ZM79.0598 15.5707C79.2875 15.5749 79.513 15.5254 79.7179 15.426C79.9022 15.3324 80.0572 15.1899 80.166 15.0141C80.276 14.8284 80.3311 14.6154 80.325 14.3997C80.3378 14.2762 80.3186 14.1515 80.2693 14.0375C80.2199 13.9236 80.142 13.8243 80.0431 13.7492C79.7931 13.6074 79.5051 13.5468 79.2191 13.5757H78.496V15.5995L79.0598 15.5707Z" fill="#1A1C1F"/>
<path d="M82.7753 12.7951H86.2584L86.165 13.6409H83.7942V15.2674H86.0277V16.062H83.7942V17.869H86.2877L86.2007 18.7148H82.7753V12.7951Z" fill="#1A1C1F"/>
<path d="M91.0726 12.7951H90.0534V18.7148H91.0726V12.7951Z" fill="#1A1C1F"/>
<path d="M93.7828 13.6482H91.9474L92.0343 12.7951H96.6451L96.5517 13.6482H94.8024V18.7148H93.7828V13.6482Z" fill="#1A1C1F"/>
<path d="M101.083 18.4256C100.655 18.1855 100.307 17.8232 100.086 17.3848C99.8518 16.8957 99.7355 16.3585 99.7461 15.8164C99.7341 15.2508 99.858 14.6906 100.107 14.1829C100.343 13.7244 100.711 13.3469 101.163 13.0987C101.662 12.8319 102.223 12.6999 102.789 12.7156C103.328 12.701 103.861 12.8281 104.336 13.0842C104.76 13.3252 105.103 13.6877 105.319 14.125C105.553 14.6091 105.669 15.1415 105.659 15.679C105.673 16.2526 105.546 16.8208 105.29 17.3342C105.054 17.7927 104.687 18.1702 104.235 18.4184C103.739 18.6818 103.184 18.8137 102.623 18.8015C102.085 18.8165 101.553 18.6867 101.083 18.4256ZM103.729 17.7025C104.02 17.5095 104.244 17.232 104.372 16.9074C104.523 16.5409 104.597 16.1473 104.589 15.751C104.594 15.3646 104.531 14.9803 104.401 14.6162C104.285 14.2974 104.076 14.0206 103.801 13.8212C103.485 13.6107 103.11 13.5069 102.731 13.5248C102.367 13.5084 102.007 13.6062 101.701 13.8045C101.396 14.0028 101.159 14.2916 101.026 14.6307C100.878 14.9829 100.804 15.3618 100.809 15.7438C100.804 16.1368 100.875 16.5271 101.018 16.893C101.141 17.2167 101.357 17.4962 101.64 17.6953C101.95 17.9004 102.316 18.004 102.688 17.9917C103.056 18.0018 103.419 17.9011 103.729 17.7025Z" fill="#1A1C1F"/>
<path d="M106.8 12.7662H107.971L110.899 17.3559C110.899 16.9222 110.863 16.5175 110.863 16.1488V12.7662H111.817V18.6859H110.675L107.704 14.0239C107.704 14.5587 107.747 15.0213 107.747 15.4694V18.722H106.8V12.7662Z" fill="#1A1C1F"/>
</svg>
