<svg width="12" height="16" viewBox="0 0 12 16" fill="none" xmlns="http://www.w3.org/2000/svg">
<path d="M10.5 0.5H1.5C1.30109 0.5 1.11032 0.579018 0.96967 0.71967C0.829018 0.860322 0.75 1.05109 0.75 1.25V14.75C0.749991 14.8934 0.791077 15.0337 0.868391 15.1545C0.945705 15.2752 1.05601 15.3713 1.18623 15.4313C1.31645 15.4912 1.46114 15.5126 1.60315 15.4929C1.74516 15.4732 1.87855 15.4132 1.9875 15.32L6 11.9525L9.9675 15.2825C10.0376 15.352 10.1207 15.407 10.2121 15.4443C10.3034 15.4817 10.4013 15.5006 10.5 15.5C10.5984 15.5025 10.696 15.482 10.785 15.44C10.922 15.3837 11.0392 15.2882 11.122 15.1654C11.2047 15.0426 11.2493 14.8981 11.25 14.75V1.25C11.25 1.05109 11.171 0.860322 11.0303 0.71967C10.8897 0.579018 10.6989 0.5 10.5 0.5ZM9.75 13.145L6.48 10.4C6.34523 10.2878 6.17539 10.2263 6 10.2263C5.82461 10.2263 5.65477 10.2878 5.52 10.4L2.25 13.145V2H9.75V13.145Z" fill="#679AB4"/>
</svg>
