<svg width="24" height="24" viewBox="0 0 24 24" fill="none" xmlns="http://www.w3.org/2000/svg">
<path d="M22.0001 5.36832C22.0009 4.78394 21.8207 4.21248 21.4823 3.72634C21.144 3.24019 20.6626 2.86125 20.0993 2.63751C19.536 2.41377 18.916 2.35531 18.318 2.46954C17.72 2.58376 17.1708 2.86553 16.7401 3.27915L13.9301 5.97207L7.44006 3.90207C7.26727 3.85002 7.08297 3.84393 6.90685 3.88444C6.73072 3.92494 6.56938 4.01053 6.44006 4.13207L4.06006 6.39374C3.94729 6.50306 3.86362 6.63678 3.81611 6.78361C3.76859 6.93043 3.75863 7.08606 3.78707 7.23735C3.81551 7.38864 3.8815 7.53115 3.97949 7.65286C4.07747 7.77457 4.20457 7.87191 4.35006 7.93665L9.53006 10.1887L6.93006 12.6804L5.22006 11.8562C5.03543 11.7605 4.82404 11.7228 4.61584 11.7486C4.40764 11.7744 4.2132 11.8624 4.06006 12L2.29006 13.7346C2.10381 13.9141 1.99927 14.157 1.99927 14.4102C1.99927 14.6634 2.10381 14.9063 2.29006 15.0858L8.78006 21.3054C8.96742 21.4839 9.22087 21.5841 9.48506 21.5841C9.74925 21.5841 10.0027 21.4839 10.1901 21.3054L12.0001 19.6092C12.1501 19.4668 12.2494 19.2826 12.2835 19.0829C12.3176 18.8832 12.2849 18.6783 12.1901 18.4975L11.3301 16.8587L13.9301 14.3671L16.2801 19.3312C16.3476 19.4707 16.4492 19.5925 16.5762 19.6864C16.7032 19.7803 16.8519 19.8435 17.0098 19.8708C17.1676 19.898 17.33 19.8885 17.4832 19.8429C17.6364 19.7974 17.776 19.7172 17.8901 19.6092L20.2501 17.3475C20.3769 17.2236 20.4662 17.0689 20.5085 16.9002C20.5507 16.7314 20.5444 16.5548 20.4901 16.3892L18.3301 10.1696L21.1001 7.45749C21.3873 7.18395 21.6148 6.85833 21.7693 6.49964C21.9238 6.14095 22.0023 5.75637 22.0001 5.36832ZM19.6801 6.10624L16.4401 9.21124C16.3132 9.33517 16.2239 9.48979 16.1817 9.65857C16.1394 9.82736 16.1458 10.004 16.2001 10.1696L18.3601 16.3796L17.4601 17.2421L15.1101 12.2875C15.0434 12.1468 14.9421 12.0236 14.815 11.9285C14.6879 11.8334 14.5387 11.7691 14.3801 11.7412C14.2201 11.7133 14.0555 11.7231 13.9004 11.7698C13.7453 11.8166 13.6045 11.8989 13.4901 12.0096L9.37006 15.9962C9.22215 16.1378 9.12427 16.3203 9.09019 16.518C9.0561 16.7157 9.08754 16.9186 9.18006 17.0983L10.0001 18.7083L9.44006 19.245L4.41006 14.415L5.00006 13.9167L6.71006 14.7408C6.89755 14.8295 7.10932 14.8596 7.31561 14.827C7.52189 14.7943 7.7123 14.7005 7.86006 14.5587L12.0001 10.5721C12.115 10.4628 12.2005 10.3285 12.2492 10.1806C12.298 10.0326 12.3086 9.8756 12.2801 9.72291C12.2516 9.57021 12.1848 9.42644 12.0855 9.30393C11.9862 9.18142 11.8574 9.08384 11.7101 9.01957L6.50006 6.76749L7.40006 5.90499L13.8801 7.97499C14.0529 8.02703 14.2372 8.03313 14.4133 7.99262C14.5894 7.95211 14.7507 7.86652 14.8801 7.74499L18.1201 4.63998C18.2197 4.54233 18.3387 4.46474 18.4701 4.41177C18.6014 4.3588 18.7425 4.33151 18.8851 4.33151C19.0276 4.33151 19.1687 4.3588 19.3 4.41177C19.4314 4.46474 19.5504 4.54233 19.6501 4.63998C19.7544 4.7326 19.8369 4.84547 19.892 4.97107C19.9472 5.09666 19.9738 5.23209 19.9701 5.36832C19.9755 5.50363 19.9526 5.63862 19.9028 5.76534C19.853 5.89207 19.7773 6.00797 19.6801 6.10624Z" fill="#818B9B"/>
</svg>
