<svg width="24" height="24" viewBox="0 0 24 24" fill="none" xmlns="http://www.w3.org/2000/svg">
<path d="M21 10.4761H18.5C18.3677 10.4766 18.2368 10.5023 18.1149 10.5516C17.9931 10.601 17.8826 10.673 17.79 10.7636L16.55 11.9998L13.75 8.94275C13.6565 8.84701 13.5434 8.77068 13.4179 8.7185C13.2923 8.66632 13.1569 8.63939 13.02 8.63939C12.8831 8.63939 12.7477 8.66632 12.6222 8.7185C12.4966 8.77068 12.3836 8.84701 12.29 8.94275L10.59 10.5719H9.00001C8.7348 10.5719 8.48044 10.6729 8.2929 10.8526C8.10537 11.0323 8.00001 11.2761 8.00001 11.5303C8.00001 11.7844 8.10537 12.0282 8.2929 12.2079C8.48044 12.3876 8.7348 12.4886 9.00001 12.4886H11C11.1316 12.4893 11.2621 12.4651 11.3839 12.4175C11.5058 12.3698 11.6166 12.2995 11.71 12.2107L13 10.9265L15.8 13.9836C15.8903 14.0823 16.0009 14.1621 16.1247 14.2181C16.2486 14.2742 16.3831 14.3053 16.52 14.3094C16.6516 14.3102 16.7821 14.286 16.9039 14.2383C17.0258 14.1906 17.1366 14.1203 17.23 14.0315L18.93 12.3928H21C21.2652 12.3928 21.5196 12.2918 21.7071 12.1121C21.8947 11.9323 22 11.6886 22 11.4344C22 11.1803 21.8947 10.9365 21.7071 10.7568C21.5196 10.5771 21.2652 10.4761 21 10.4761ZM13.61 15.5553L11.71 17.3761C11.617 17.4659 11.5064 17.5372 11.3846 17.5859C11.2627 17.6345 11.132 17.6596 11 17.6596C10.868 17.6596 10.7373 17.6345 10.6154 17.5859C10.4936 17.5372 10.383 17.4659 10.29 17.3761L5.08001 12.3832C4.73713 12.0548 4.46513 11.6648 4.27955 11.2357C4.09398 10.8065 3.99846 10.3465 3.99846 9.88192C3.99846 9.41736 4.09398 8.95735 4.27955 8.52817C4.46513 8.099 4.73713 7.70907 5.08001 7.38067C5.77167 6.71997 6.70843 6.34897 7.68501 6.34897C8.66159 6.34897 9.59835 6.71997 10.29 7.38067C10.383 7.47049 10.4936 7.54179 10.6154 7.59044C10.7373 7.63909 10.868 7.66414 11 7.66414C11.132 7.66414 11.2627 7.63909 11.3846 7.59044C11.5064 7.54179 11.617 7.47049 11.71 7.38067C12.4127 6.74024 13.3453 6.38309 14.315 6.38309C15.2847 6.38309 16.2173 6.74024 16.92 7.38067C17.1428 7.59701 17.3376 7.83834 17.5 8.09942C17.6456 8.29129 17.8603 8.42458 18.1026 8.4735C18.3448 8.52242 18.5974 8.4835 18.8114 8.36425C19.0254 8.24501 19.1856 8.05392 19.2611 7.82798C19.3366 7.60203 19.322 7.35728 19.22 7.14109C18.9728 6.74774 18.6774 6.38418 18.34 6.05817C17.391 5.13803 16.1311 4.57189 14.786 4.46126C13.4409 4.35062 12.0988 4.70271 11 5.45442C10.1509 4.8682 9.14924 4.5182 8.10565 4.44304C7.06206 4.36788 6.0171 4.57049 5.08607 5.02851C4.15504 5.48652 3.37416 6.18213 2.82958 7.03858C2.28501 7.89502 1.99793 8.879 2.00001 9.88192C1.99971 10.595 2.14718 11.3011 2.43385 11.9591C2.72053 12.6171 3.14071 13.2141 3.67001 13.7153L8.88001 18.7082C9.44251 19.2466 10.205 19.549 11 19.549C11.795 19.549 12.5575 19.2466 13.12 18.7082L15 16.9065C15.1863 16.727 15.2908 16.4841 15.2908 16.2309C15.2908 15.9777 15.1863 15.7348 15 15.5553C14.8135 15.3825 14.5644 15.286 14.305 15.286C14.0457 15.286 13.7965 15.3825 13.61 15.5553Z" fill="#818B9B"/>
</svg>
