<svg width="28" height="28" viewBox="0 0 28 28" fill="none" xmlns="http://www.w3.org/2000/svg">
<rect width="28" height="28" rx="14" fill="#F47B20"/>
<path d="M14 12.0835C13.6044 12.0835 13.2178 12.1959 12.8889 12.4065C12.56 12.6171 12.3036 12.9165 12.1522 13.2667C12.0009 13.6169 11.9613 14.0023 12.0384 14.3741C12.1156 14.7459 12.3061 15.0874 12.5858 15.3555C12.8655 15.6235 13.2219 15.806 13.6098 15.88C13.9978 15.954 14.3999 15.916 14.7654 15.7709C15.1308 15.6259 15.4432 15.3802 15.6629 15.065C15.8827 14.7498 16 14.3792 16 14.0002C16 13.4918 15.7893 13.0043 15.4142 12.6449C15.0391 12.2854 14.5304 12.0835 14 12.0835ZM7 12.0835C6.60444 12.0835 6.21776 12.1959 5.88886 12.4065C5.55996 12.6171 5.30362 12.9165 5.15224 13.2667C5.00087 13.6169 4.96126 14.0023 5.03843 14.3741C5.1156 14.7459 5.30608 15.0874 5.58579 15.3555C5.86549 15.6235 6.22186 15.806 6.60982 15.88C6.99778 15.954 7.39992 15.916 7.76537 15.7709C8.13082 15.6259 8.44318 15.3802 8.66294 15.065C8.8827 14.7498 9 14.3792 9 14.0002C9 13.4918 8.78929 13.0043 8.41421 12.6449C8.03914 12.2854 7.53043 12.0835 7 12.0835ZM21 12.0835C20.6044 12.0835 20.2178 12.1959 19.8889 12.4065C19.56 12.6171 19.3036 12.9165 19.1522 13.2667C19.0009 13.6169 18.9613 14.0023 19.0384 14.3741C19.1156 14.7459 19.3061 15.0874 19.5858 15.3555C19.8655 15.6235 20.2219 15.806 20.6098 15.88C20.9978 15.954 21.3999 15.916 21.7654 15.7709C22.1308 15.6259 22.4432 15.3802 22.6629 15.065C22.8827 14.7498 23 14.3792 23 14.0002C23 13.4918 22.7893 13.0043 22.4142 12.6449C22.0391 12.2854 21.5304 12.0835 21 12.0835Z" fill="white"/>
</svg>
