<svg width="32" height="33" viewBox="0 0 32 33" fill="none" xmlns="http://www.w3.org/2000/svg">
<rect y="0.5" width="32" height="32" rx="16" fill="#818B9B"/>
<path d="M16.375 19.875H15.625C15.4261 19.875 15.2353 19.954 15.0947 20.0947C14.954 20.2353 14.875 20.4261 14.875 20.625C14.875 20.8239 14.954 21.0147 15.0947 21.1553C15.2353 21.296 15.4261 21.375 15.625 21.375H16.375C16.5739 21.375 16.7647 21.296 16.9053 21.1553C17.046 21.0147 17.125 20.8239 17.125 20.625C17.125 20.4261 17.046 20.2353 16.9053 20.0947C16.7647 19.954 16.5739 19.875 16.375 19.875ZM16.375 16.875H15.625C15.4261 16.875 15.2353 16.954 15.0947 17.0947C14.954 17.2353 14.875 17.4261 14.875 17.625C14.875 17.8239 14.954 18.0147 15.0947 18.1553C15.2353 18.296 15.4261 18.375 15.625 18.375H16.375C16.5739 18.375 16.7647 18.296 16.9053 18.1553C17.046 18.0147 17.125 17.8239 17.125 17.625C17.125 17.4261 17.046 17.2353 16.9053 17.0947C16.7647 16.954 16.5739 16.875 16.375 16.875ZM12.625 19.875H11.875C11.6761 19.875 11.4853 19.954 11.3447 20.0947C11.204 20.2353 11.125 20.4261 11.125 20.625C11.125 20.8239 11.204 21.0147 11.3447 21.1553C11.4853 21.296 11.6761 21.375 11.875 21.375H12.625C12.8239 21.375 13.0147 21.296 13.1553 21.1553C13.296 21.0147 13.375 20.8239 13.375 20.625C13.375 20.4261 13.296 20.2353 13.1553 20.0947C13.0147 19.954 12.8239 19.875 12.625 19.875ZM12.625 16.875H11.875C11.6761 16.875 11.4853 16.954 11.3447 17.0947C11.204 17.2353 11.125 17.4261 11.125 17.625C11.125 17.8239 11.204 18.0147 11.3447 18.1553C11.4853 18.296 11.6761 18.375 11.875 18.375H12.625C12.8239 18.375 13.0147 18.296 13.1553 18.1553C13.296 18.0147 13.375 17.8239 13.375 17.625C13.375 17.4261 13.296 17.2353 13.1553 17.0947C13.0147 16.954 12.8239 16.875 12.625 16.875ZM23.125 12.375H20.875V9.375C20.875 9.2765 20.8556 9.17896 20.818 9.08796C20.7803 8.99695 20.725 8.91426 20.6554 8.84461C20.5857 8.77496 20.503 8.71972 20.412 8.68204C20.321 8.64436 20.2235 8.62497 20.125 8.625H11.875C11.7765 8.62497 11.679 8.64436 11.588 8.68204C11.497 8.71972 11.4143 8.77496 11.3446 8.84461C11.275 8.91426 11.2197 8.99695 11.182 9.08796C11.1444 9.17896 11.125 9.2765 11.125 9.375V12.375H8.875C8.7765 12.375 8.67896 12.3944 8.58796 12.432C8.49695 12.4697 8.41426 12.525 8.34461 12.5946C8.27496 12.6643 8.21972 12.747 8.18204 12.838C8.14436 12.929 8.12497 13.0265 8.125 13.125V23.625C8.12497 23.7235 8.14436 23.821 8.18204 23.912C8.21972 24.003 8.27496 24.0857 8.34461 24.1554C8.41426 24.225 8.49695 24.2803 8.58796 24.318C8.67896 24.3556 8.7765 24.375 8.875 24.375H23.125C23.2235 24.375 23.321 24.3556 23.412 24.318C23.503 24.2803 23.5857 24.225 23.6554 24.1554C23.725 24.0857 23.7803 24.003 23.818 23.912C23.8556 23.821 23.875 23.7235 23.875 23.625V13.125C23.875 13.0265 23.8556 12.929 23.818 12.838C23.7803 12.747 23.725 12.6643 23.6554 12.5946C23.5857 12.525 23.503 12.4697 23.412 12.432C23.321 12.3944 23.2235 12.375 23.125 12.375ZM22.375 22.875H9.625V13.875H11.875C11.9735 13.875 12.071 13.8556 12.162 13.818C12.253 13.7803 12.3357 13.725 12.4054 13.6554C12.475 13.5857 12.5303 13.503 12.568 13.412C12.6056 13.321 12.625 13.2235 12.625 13.125V10.125H19.375V13.125C19.375 13.2235 19.3944 13.321 19.432 13.412C19.4697 13.503 19.525 13.5857 19.5946 13.6554C19.6643 13.725 19.747 13.7803 19.838 13.818C19.929 13.8556 20.0265 13.875 20.125 13.875H22.375V22.875ZM19.375 16.875C19.1761 16.875 18.9853 16.954 18.8447 17.0947C18.704 17.2353 18.625 17.4261 18.625 17.625C18.625 17.8239 18.704 18.0147 18.8447 18.1553C18.9853 18.296 19.1761 18.375 19.375 18.375H20.125C20.3239 18.375 20.5147 18.296 20.6553 18.1553C20.796 18.0147 20.875 17.8239 20.875 17.625C20.875 17.4261 20.796 17.2353 20.6553 17.0947C20.5147 16.954 20.3239 16.875 20.125 16.875H19.375ZM17.125 12.75H16.75V12.375C16.75 12.1761 16.671 11.9853 16.5303 11.8447C16.3897 11.704 16.1989 11.625 16 11.625C15.8011 11.625 15.6103 11.704 15.4697 11.8447C15.329 11.9853 15.25 12.1761 15.25 12.375V12.75H14.875C14.6761 12.75 14.4853 12.829 14.3447 12.9697C14.204 13.1103 14.125 13.3011 14.125 13.5C14.125 13.6989 14.204 13.8897 14.3447 14.0303C14.4853 14.171 14.6761 14.25 14.875 14.25H15.25V14.625C15.25 14.8239 15.329 15.0147 15.4697 15.1553C15.6103 15.296 15.8011 15.375 16 15.375C16.1989 15.375 16.3897 15.296 16.5303 15.1553C16.671 15.0147 16.75 14.8239 16.75 14.625V14.25H17.125C17.3239 14.25 17.5147 14.171 17.6553 14.0303C17.796 13.8897 17.875 13.6989 17.875 13.5C17.875 13.3011 17.796 13.1103 17.6553 12.9697C17.5147 12.829 17.3239 12.75 17.125 12.75ZM20.125 19.875H19.375C19.1761 19.875 18.9853 19.954 18.8447 20.0947C18.704 20.2353 18.625 20.4261 18.625 20.625C18.625 20.8239 18.704 21.0147 18.8447 21.1553C18.9853 21.296 19.1761 21.375 19.375 21.375H20.125C20.3239 21.375 20.5147 21.296 20.6553 21.1553C20.796 21.0147 20.875 20.8239 20.875 20.625C20.875 20.4261 20.796 20.2353 20.6553 20.0947C20.5147 19.954 20.3239 19.875 20.125 19.875Z" fill="white"/>
</svg>
