<svg width="8" height="10" viewBox="0 0 8 10" fill="none" xmlns="http://www.w3.org/2000/svg">
<path d="M2.5 4H3C3.13261 4 3.25979 3.94732 3.35355 3.85355C3.44732 3.75979 3.5 3.63261 3.5 3.5C3.5 3.36739 3.44732 3.24021 3.35355 3.14645C3.25979 3.05268 3.13261 3 3 3H2.5C2.36739 3 2.24021 3.05268 2.14645 3.14645C2.05268 3.24021 2 3.36739 2 3.5C2 3.63261 2.05268 3.75979 2.14645 3.85355C2.24021 3.94732 2.36739 4 2.5 4ZM2.5 5C2.36739 5 2.24021 5.05268 2.14645 5.14645C2.05268 5.24021 2 5.36739 2 5.5C2 5.63261 2.05268 5.75979 2.14645 5.85355C2.24021 5.94732 2.36739 6 2.5 6H5.5C5.63261 6 5.75979 5.94732 5.85355 5.85355C5.94732 5.75979 6 5.63261 6 5.5C6 5.36739 5.94732 5.24021 5.85355 5.14645C5.75979 5.05268 5.63261 5 5.5 5H2.5ZM8 3.47C7.99479 3.42407 7.98474 3.37882 7.97 3.335V3.29C7.94596 3.23859 7.91389 3.19133 7.875 3.15L4.875 0.15C4.83367 0.111108 4.78641 0.0790405 4.735 0.0549999C4.72008 0.05288 4.70493 0.05288 4.69 0.0549999C4.63921 0.0258706 4.58311 0.0071721 4.525 0H1.5C1.10218 0 0.720644 0.158035 0.43934 0.43934C0.158035 0.720644 0 1.10218 0 1.5V8.5C0 8.89782 0.158035 9.27936 0.43934 9.56066C0.720644 9.84196 1.10218 10 1.5 10H6.5C6.89782 10 7.27936 9.84196 7.56066 9.56066C7.84196 9.27936 8 8.89782 8 8.5V3.5C8 3.5 8 3.5 8 3.47ZM5 1.705L6.295 3H5.5C5.36739 3 5.24021 2.94732 5.14645 2.85355C5.05268 2.75979 5 2.63261 5 2.5V1.705ZM7 8.5C7 8.63261 6.94732 8.75979 6.85355 8.85355C6.75979 8.94732 6.63261 9 6.5 9H1.5C1.36739 9 1.24021 8.94732 1.14645 8.85355C1.05268 8.75979 1 8.63261 1 8.5V1.5C1 1.36739 1.05268 1.24021 1.14645 1.14645C1.24021 1.05268 1.36739 1 1.5 1H4V2.5C4 2.89782 4.15804 3.27936 4.43934 3.56066C4.72064 3.84196 5.10218 4 5.5 4H7V8.5ZM5.5 7H2.5C2.36739 7 2.24021 7.05268 2.14645 7.14645C2.05268 7.24021 2 7.36739 2 7.5C2 7.63261 2.05268 7.75979 2.14645 7.85355C2.24021 7.94732 2.36739 8 2.5 8H5.5C5.63261 8 5.75979 7.94732 5.85355 7.85355C5.94732 7.75979 6 7.63261 6 7.5C6 7.36739 5.94732 7.24021 5.85355 7.14645C5.75979 7.05268 5.63261 7 5.5 7Z" fill="#455560"/>
</svg>
