<svg width="32" height="33" viewBox="0 0 32 33" fill="none" xmlns="http://www.w3.org/2000/svg">
<rect y="0.5" width="32" height="32" rx="16" fill="#679AB4"/>
<path d="M21.8067 19.6397L20.1933 18.0263C20.1314 17.9639 20.0576 17.9143 19.9764 17.8804C19.8951 17.8466 19.808 17.8291 19.72 17.8291C19.632 17.8291 19.5449 17.8466 19.4636 17.8804C19.3824 17.9143 19.3086 17.9639 19.2467 18.0263L16.86 20.413C16.7982 20.4753 16.7493 20.5492 16.7162 20.6304C16.683 20.7116 16.6662 20.7986 16.6667 20.8863V22.4997C16.6667 22.6765 16.7369 22.8461 16.8619 22.9711C16.987 23.0961 17.1565 23.1663 17.3333 23.1663H18.9467C19.0344 23.1668 19.1214 23.15 19.2026 23.1169C19.2838 23.0837 19.3577 23.0348 19.42 22.973L21.8067 20.5863C21.8692 20.5244 21.9187 20.4506 21.9526 20.3694C21.9864 20.2882 22.0039 20.201 22.0039 20.113C22.0039 20.025 21.9864 19.9379 21.9526 19.8566C21.9187 19.7754 21.8692 19.7016 21.8067 19.6397ZM18.6667 21.833H18V21.1663L19.72 19.4463L20.3867 20.113L18.6667 21.833ZM14.6667 21.833H12C11.8232 21.833 11.6536 21.7628 11.5286 21.6377C11.4036 21.5127 11.3333 21.3432 11.3333 21.1663V11.833C11.3333 11.6562 11.4036 11.4866 11.5286 11.3616C11.6536 11.2366 11.8232 11.1663 12 11.1663H15.3333V13.1663C15.3333 13.6968 15.544 14.2055 15.9191 14.5806C16.2942 14.9556 16.8029 15.1663 17.3333 15.1663H19.3333V15.833C19.3333 16.0098 19.4036 16.1794 19.5286 16.3044C19.6536 16.4294 19.8232 16.4997 20 16.4997C20.1768 16.4997 20.3464 16.4294 20.4714 16.3044C20.5964 16.1794 20.6667 16.0098 20.6667 15.833V14.4997C20.6667 14.4997 20.6667 14.4997 20.6667 14.4597C20.6597 14.3984 20.6463 14.3381 20.6267 14.2797V14.2197C20.5946 14.1511 20.5519 14.0881 20.5 14.033L16.5 10.033C16.4449 9.98115 16.3819 9.9384 16.3133 9.90634C16.2934 9.90351 16.2732 9.90351 16.2533 9.90634L16.04 9.83301H12C11.4696 9.83301 10.9609 10.0437 10.5858 10.4188C10.2107 10.7939 10 11.3026 10 11.833V21.1663C10 21.6968 10.2107 22.2055 10.5858 22.5806C10.9609 22.9556 11.4696 23.1663 12 23.1663H14.6667C14.8435 23.1663 15.013 23.0961 15.1381 22.9711C15.2631 22.8461 15.3333 22.6765 15.3333 22.4997C15.3333 22.3229 15.2631 22.1533 15.1381 22.0283C15.013 21.9032 14.8435 21.833 14.6667 21.833ZM16.6667 12.1063L18.3933 13.833H17.3333C17.1565 13.833 16.987 13.7628 16.8619 13.6377C16.7369 13.5127 16.6667 13.3432 16.6667 13.1663V12.1063ZM13.3333 17.833H17.3333C17.5101 17.833 17.6797 17.7628 17.8047 17.6377C17.9298 17.5127 18 17.3432 18 17.1663C18 16.9895 17.9298 16.82 17.8047 16.6949C17.6797 16.5699 17.5101 16.4997 17.3333 16.4997H13.3333C13.1565 16.4997 12.987 16.5699 12.8619 16.6949C12.7369 16.82 12.6667 16.9895 12.6667 17.1663C12.6667 17.3432 12.7369 17.5127 12.8619 17.6377C12.987 17.7628 13.1565 17.833 13.3333 17.833ZM13.3333 15.1663H14C14.1768 15.1663 14.3464 15.0961 14.4714 14.9711C14.5964 14.8461 14.6667 14.6765 14.6667 14.4997C14.6667 14.3229 14.5964 14.1533 14.4714 14.0283C14.3464 13.9032 14.1768 13.833 14 13.833H13.3333C13.1565 13.833 12.987 13.9032 12.8619 14.0283C12.7369 14.1533 12.6667 14.3229 12.6667 14.4997C12.6667 14.6765 12.7369 14.8461 12.8619 14.9711C12.987 15.0961 13.1565 15.1663 13.3333 15.1663ZM14.6667 19.1663H13.3333C13.1565 19.1663 12.987 19.2366 12.8619 19.3616C12.7369 19.4866 12.6667 19.6562 12.6667 19.833C12.6667 20.0098 12.7369 20.1794 12.8619 20.3044C12.987 20.4294 13.1565 20.4997 13.3333 20.4997H14.6667C14.8435 20.4997 15.013 20.4294 15.1381 20.3044C15.2631 20.1794 15.3333 20.0098 15.3333 19.833C15.3333 19.6562 15.2631 19.4866 15.1381 19.3616C15.013 19.2366 14.8435 19.1663 14.6667 19.1663Z" fill="white"/>
</svg>
