<svg width="32" height="33" viewBox="0 0 32 33" fill="none" xmlns="http://www.w3.org/2000/svg">
<rect y="0.5" width="32" height="32" rx="16" fill="#818B9B"/>
<path d="M21.7985 12.8061C21.7332 12.7407 21.6425 12.7031 21.5501 12.7031C21.4576 12.7031 21.367 12.7407 21.3016 12.8061C21.2362 12.8715 21.1986 12.9622 21.1986 13.0547C21.1986 13.1471 21.2362 13.2378 21.3016 13.3032C21.3669 13.3686 21.4576 13.4063 21.5501 13.4063C21.6425 13.4063 21.7332 13.3686 21.7985 13.3032C21.8639 13.2379 21.9015 13.1471 21.9015 13.0547C21.9015 12.9622 21.8639 12.8715 21.7985 12.8061Z" fill="white"/>
<path d="M21.5501 12.0176C21.7441 12.0176 21.9015 11.8601 21.9015 11.666V8.55467C21.9015 7.97311 21.4285 7.5 20.8471 7.5H8.05437C7.47299 7.49996 7 7.97311 7 8.55467V24.4453C7 25.0269 7.47299 25.5 8.05437 25.5H20.8472C21.4286 25.5 21.9015 25.0269 21.9015 24.4453V22.8663C21.9015 22.6722 21.7442 22.5147 21.5501 22.5147C21.356 22.5147 21.1986 22.6722 21.1986 22.8663V24.4453C21.1986 24.6391 21.041 24.7969 20.8472 24.7969H8.05437C7.86059 24.7969 7.70291 24.6391 7.70291 24.4453V8.55467C7.70291 8.36083 7.86059 8.2031 8.05437 8.2031H20.8472C21.041 8.2031 21.1986 8.36083 21.1986 8.55467V11.666C21.1986 11.8601 21.356 12.0176 21.5501 12.0176Z" fill="white"/>
<path d="M24.6912 21.6399L22.8782 19.8263C23.1903 19.2689 23.3687 18.6267 23.3687 17.9436C23.3687 15.8125 21.6355 14.0787 19.505 14.0787C19.4837 14.0787 19.4626 14.0791 19.4414 14.0795V12.145C19.4414 11.9509 19.284 11.7935 19.0899 11.7935H17.0359V9.89507C17.0359 9.70095 16.8785 9.54351 16.6844 9.54351H14.279C14.0849 9.54351 13.9275 9.70095 13.9275 9.89507V12.0044H11.8735C11.6794 12.0044 11.522 12.1619 11.522 12.356V14.2545H9.81162C9.61755 14.2545 9.46016 14.4119 9.46016 14.606V16.5045C9.46016 16.6986 9.61755 16.856 9.81162 16.856H15.7972C15.6958 17.2012 15.6412 17.5661 15.6412 17.9437C15.6412 20.0748 17.3745 21.8086 19.505 21.8086C20.1879 21.8086 20.8298 21.6303 21.3871 21.3179L23.1882 23.1196C23.4003 23.3318 23.6761 23.4388 23.9508 23.4388C24.2071 23.4388 24.4623 23.3456 24.6637 23.158C24.8753 22.9608 24.9947 22.6932 24.9998 22.4045C25.0049 22.1156 24.8953 21.8441 24.6912 21.6399ZM11.522 16.1529H10.1631V14.9576H11.522L11.522 16.1529ZM13.9275 16.1529H12.2249V12.7076H13.9275V16.1529ZM14.6304 16.1529V10.2466H16.3329V13.8985C16.3329 14.0926 16.4903 14.25 16.6844 14.25C16.8785 14.25 17.0359 14.0926 17.0359 13.8985V12.4967H18.7385V14.1552C17.5838 14.3886 16.6142 15.1387 16.0819 16.1529H14.6304ZM19.505 21.1055C17.7621 21.1055 16.3441 19.687 16.3441 17.9436C16.3441 16.2002 17.762 14.7818 19.505 14.7818C21.2479 14.7818 22.6658 16.2002 22.6658 17.9436C22.6658 19.6871 21.2479 21.1055 19.505 21.1055ZM24.1847 22.6434C24.048 22.7707 23.824 22.7612 23.6852 22.6223L21.9759 20.9125C22.1561 20.762 22.3225 20.5956 22.4729 20.4153L24.1942 22.137C24.2622 22.2051 24.2988 22.2956 24.2971 22.3919C24.2953 22.4882 24.2554 22.5775 24.1847 22.6434Z" fill="white"/>
<path d="M20.4199 16.146C20.2509 16.0506 20.0365 16.1102 19.9411 16.2793L18.0514 19.6278C17.956 19.7968 18.0156 20.0113 18.1847 20.1067C18.2393 20.1376 18.2986 20.1522 18.3571 20.1522C18.4797 20.1522 18.5989 20.0879 18.6635 19.9734L20.5532 16.625C20.6486 16.4559 20.589 16.2415 20.4199 16.146Z" fill="white"/>
<path d="M20.733 18.2438C20.1516 18.2438 19.6786 18.7169 19.6786 19.2985C19.6786 19.88 20.1516 20.3531 20.733 20.3531C21.3143 20.3531 21.7873 19.88 21.7873 19.2985C21.7873 18.7169 21.3143 18.2438 20.733 18.2438ZM20.733 19.65C20.5392 19.65 20.3815 19.4923 20.3815 19.2984C20.3815 19.1046 20.5392 18.9469 20.733 18.9469C20.9267 18.9469 21.0844 19.1046 21.0844 19.2984C21.0844 19.4923 20.9268 19.65 20.733 19.65Z" fill="white"/>
<path d="M18.2769 15.5341C17.6956 15.5341 17.2226 16.0072 17.2226 16.5888C17.2226 17.1704 17.6956 17.6435 18.2769 17.6435C18.8583 17.6435 19.3313 17.1704 19.3313 16.5888C19.3313 16.0072 18.8583 15.5341 18.2769 15.5341ZM18.2769 16.9403C18.0832 16.9403 17.9255 16.7826 17.9255 16.5888C17.9255 16.3949 18.0832 16.2372 18.2769 16.2372C18.4707 16.2372 18.6284 16.3949 18.6284 16.5888C18.6284 16.7826 18.4707 16.9403 18.2769 16.9403Z" fill="white"/>
<path d="M18.9798 22.8984H9.24929C9.05523 22.8984 8.89784 23.0559 8.89784 23.25C8.89784 23.4441 9.05523 23.6016 9.24929 23.6016H18.9798C19.1739 23.6016 19.3313 23.4441 19.3313 23.25C19.3313 23.0559 19.1739 22.8984 18.9798 22.8984Z" fill="white"/>
<path d="M14.4508 20.9297H12.2716C12.0775 20.9297 11.9201 21.0871 11.9201 21.2813C11.9201 21.4754 12.0775 21.6328 12.2716 21.6328H14.4508C14.6448 21.6328 14.8022 21.4754 14.8022 21.2813C14.8022 21.0871 14.6448 20.9297 14.4508 20.9297Z" fill="white"/>
<path d="M15.988 21.0327C15.9226 20.9673 15.8319 20.9297 15.7395 20.9297C15.6471 20.9297 15.5564 20.9673 15.491 21.0327C15.4253 21.0981 15.3881 21.1888 15.3881 21.2813C15.3881 21.3737 15.4253 21.4644 15.491 21.5298C15.5564 21.5952 15.6468 21.6328 15.7395 21.6328C15.8319 21.6328 15.9226 21.5952 15.988 21.5298C16.0533 21.4644 16.091 21.3737 16.091 21.2813C16.091 21.1888 16.0534 21.0981 15.988 21.0327Z" fill="white"/>
<path d="M14.4508 18.9609H12.2716C12.0775 18.9609 11.9201 19.1184 11.9201 19.3125C11.9201 19.5066 12.0775 19.664 12.2716 19.664H14.4508C14.6448 19.664 14.8022 19.5066 14.8022 19.3125C14.8022 19.1184 14.6448 18.9609 14.4508 18.9609Z" fill="white"/>
<path d="M10.0225 19.857C9.78992 19.857 9.60075 19.6998 9.60075 19.5066C9.60075 19.3134 9.78992 19.1563 10.0225 19.1563C10.255 19.1563 10.4442 19.3135 10.4442 19.5066C10.4442 19.7008 10.6016 19.8582 10.7957 19.8582C10.9897 19.8582 11.1471 19.7008 11.1471 19.5066C11.1471 19.0406 10.8223 18.6445 10.3736 18.506C10.37 18.315 10.2143 18.1612 10.0225 18.1612C9.83067 18.1612 9.67496 18.315 9.67138 18.506C9.22271 18.6445 8.89784 19.0406 8.89784 19.5066C8.89784 20.0875 9.40233 20.5602 10.0225 20.5602C10.255 20.5602 10.4442 20.7174 10.4442 20.9106C10.4442 21.1037 10.255 21.2609 10.0225 21.2609C9.78992 21.2609 9.60075 21.1037 9.60075 20.9106C9.60075 20.7164 9.44336 20.559 9.24929 20.559C9.05523 20.559 8.89784 20.7164 8.89784 20.9106C8.89784 21.3765 9.22254 21.7725 9.67103 21.9111V21.9314C9.67103 22.1255 9.82842 22.2829 10.0225 22.2829C10.2165 22.2829 10.3739 22.1255 10.3739 21.9314V21.9111C10.8224 21.7725 11.1471 21.3765 11.1471 20.9106C11.1471 20.3297 10.6426 19.857 10.0225 19.857Z" fill="white"/>
</svg>
