<svg width="10" height="11" viewBox="0 0 10 11" fill="none" xmlns="http://www.w3.org/2000/svg">
<path d="M6.5 5H5.5L5.5 3C5.5 2.86739 5.44732 2.74021 5.35356 2.64645C5.25979 2.55268 5.13261 2.5 5 2.5C4.86739 2.5 4.74022 2.55268 4.64645 2.64645C4.55268 2.74021 4.5 2.86739 4.5 3L4.5 5.5C4.5 5.63261 4.55268 5.75979 4.64645 5.85355C4.74022 5.94732 4.86739 6 5 6H6.5C6.63261 6 6.75979 5.94732 6.85356 5.85355C6.94732 5.75979 7 5.63261 7 5.5C7 5.36739 6.94732 5.24021 6.85356 5.14645C6.75979 5.05268 6.63261 5 6.5 5ZM5 0.5C4.0111 0.5 3.0444 0.793245 2.22215 1.34265C1.39991 1.89206 0.759043 2.67295 0.380605 3.58658C0.00216642 4.50021 -0.0968503 5.50555 0.0960759 6.47545C0.289002 7.44536 0.765206 8.33627 1.46447 9.03553C2.16373 9.7348 3.05465 10.211 4.02455 10.4039C4.99446 10.5969 5.99979 10.4978 6.91342 10.1194C7.82705 9.74096 8.60794 9.1001 9.15735 8.27785C9.70676 7.45561 10 6.48891 10 5.5C9.99853 4.17437 9.47127 2.90346 8.53391 1.96609C7.59655 1.02873 6.32563 0.501474 5 0.5ZM5 9.5C4.20888 9.5 3.43552 9.2654 2.77772 8.82588C2.11992 8.38635 1.60723 7.76164 1.30448 7.03073C1.00173 6.29983 0.92252 5.49556 1.07686 4.71964C1.2312 3.94371 1.61216 3.23098 2.17158 2.67157C2.73099 2.11216 3.44372 1.7312 4.21964 1.57686C4.99557 1.42252 5.79983 1.50173 6.53074 1.80448C7.26164 2.10723 7.88635 2.61992 8.32588 3.27772C8.76541 3.93552 9 4.70887 9 5.5C8.99879 6.56049 8.57697 7.5772 7.82709 8.32709C7.07721 9.07697 6.0605 9.49879 5 9.5Z" fill="#455560"/>
</svg>
