<svg width="13" height="16" viewBox="0 0 13 16" fill="none" xmlns="http://www.w3.org/2000/svg">
<path d="M11.2501 8.93433V6.41683C11.2489 5.29514 10.8509 4.21003 10.1264 3.35369C9.40192 2.49735 8.39775 1.92503 7.29175 1.73808V0.875163C7.29175 0.6652 7.20834 0.463836 7.05987 0.31537C6.91141 0.166904 6.71004 0.0834961 6.50008 0.0834961C6.29012 0.0834961 6.08875 0.166904 5.94029 0.31537C5.79182 0.463836 5.70841 0.6652 5.70841 0.875163V1.73808C4.60241 1.92503 3.59825 2.49735 2.87376 3.35369C2.14928 4.21003 1.75122 5.29514 1.75008 6.41683V8.93433C1.2881 9.09766 0.887955 9.39989 0.604491 9.79957C0.321027 10.1993 0.168125 10.6768 0.166748 11.1668V12.7502C0.166748 12.9601 0.250156 13.1615 0.398622 13.31C0.547088 13.4584 0.748452 13.5418 0.958415 13.5418H3.44425C3.62656 14.2127 4.02454 14.8049 4.5768 15.2271C5.12907 15.6493 5.80492 15.878 6.50008 15.878C7.19525 15.878 7.8711 15.6493 8.42336 15.2271C8.97562 14.8049 9.37361 14.2127 9.55591 13.5418H12.0417C12.2517 13.5418 12.4531 13.4584 12.6015 13.31C12.75 13.1615 12.8334 12.9601 12.8334 12.7502V11.1668C12.832 10.6768 12.6791 10.1993 12.3957 9.79957C12.1122 9.39989 11.7121 9.09766 11.2501 8.93433ZM3.33341 6.41683C3.33341 5.57698 3.66704 4.77152 4.26091 4.17766C4.85477 3.58379 5.66023 3.25016 6.50008 3.25016C7.33993 3.25016 8.14539 3.58379 8.73925 4.17766C9.33312 4.77152 9.66675 5.57698 9.66675 6.41683V8.79183H3.33341V6.41683ZM6.50008 14.3335C6.22377 14.3318 5.9527 14.2579 5.71382 14.119C5.47494 13.9801 5.27657 13.7811 5.13841 13.5418H7.86175C7.72359 13.7811 7.52522 13.9801 7.28634 14.119C7.04746 14.2579 6.77639 14.3318 6.50008 14.3335ZM11.2501 11.9585H1.75008V11.1668C1.75008 10.9569 1.83349 10.7555 1.98196 10.607C2.13042 10.4586 2.33178 10.3752 2.54175 10.3752H10.4584C10.6684 10.3752 10.8697 10.4586 11.0182 10.607C11.1667 10.7555 11.2501 10.9569 11.2501 11.1668V11.9585Z" fill="#455560"/>
</svg>
