<svg width="7" height="4" viewBox="0 0 7 4" fill="none" xmlns="http://www.w3.org/2000/svg">
<path d="M6.56089 0.186209C6.44091 0.0669431 6.27861 0 6.10944 0C5.94027 0 5.77797 0.0669431 5.658 0.186209L3.35914 2.45305L1.09231 0.186209C0.972329 0.0669431 0.810031 0 0.64086 0C0.471689 0 0.309392 0.0669431 0.189414 0.186209C0.129395 0.245738 0.0817568 0.316561 0.0492471 0.394593C0.0167374 0.472626 0 0.556323 0 0.640857C0 0.72539 0.0167374 0.809088 0.0492471 0.88712C0.0817568 0.965153 0.129395 1.03598 0.189414 1.0955L2.90449 3.81059C2.96402 3.8706 3.03485 3.91824 3.11288 3.95075C3.19091 3.98326 3.27461 4 3.35914 4C3.44368 4 3.52737 3.98326 3.60541 3.95075C3.68344 3.91824 3.75426 3.8706 3.81379 3.81059L6.56089 1.0955C6.62091 1.03598 6.66855 0.965153 6.70106 0.88712C6.73357 0.809088 6.7503 0.72539 6.7503 0.640857C6.7503 0.556323 6.73357 0.472626 6.70106 0.394593C6.66855 0.316561 6.62091 0.245738 6.56089 0.186209Z" fill="#1A1C1F"/>
</svg>
