<svg width="17" height="14" viewBox="0 0 17 14" fill="none" xmlns="http://www.w3.org/2000/svg">
<path d="M16.3533 6.68317C14.7542 2.97025 11.7458 0.666504 8.49999 0.666504C5.25416 0.666504 2.24583 2.97025 0.646659 6.68317C0.603067 6.78305 0.580566 6.89086 0.580566 6.99984C0.580566 7.10882 0.603067 7.21662 0.646659 7.3165C2.24583 11.0294 5.25416 13.3332 8.49999 13.3332C11.7458 13.3332 14.7542 11.0294 16.3533 7.3165C16.3969 7.21662 16.4194 7.10882 16.4194 6.99984C16.4194 6.89086 16.3969 6.78305 16.3533 6.68317ZM8.49999 11.7498C5.99041 11.7498 3.61541 9.93692 2.24583 6.99984C3.61541 4.06275 5.99041 2.24984 8.49999 2.24984C11.0096 2.24984 13.3846 4.06275 14.7542 6.99984C13.3846 9.93692 11.0096 11.7498 8.49999 11.7498ZM8.49999 3.83317C7.87368 3.83317 7.26144 4.01889 6.74069 4.36685C6.21993 4.71481 5.81405 5.20937 5.57437 5.78801C5.3347 6.36664 5.27199 7.00335 5.39417 7.61762C5.51636 8.2319 5.81795 8.79614 6.26082 9.23901C6.70369 9.68187 7.26793 9.98347 7.88221 10.1057C8.49648 10.2278 9.13319 10.1651 9.71182 9.92546C10.2905 9.68578 10.785 9.2799 11.133 8.75914C11.4809 8.23839 11.6667 7.62614 11.6667 6.99984C11.6667 6.15998 11.333 5.35453 10.7392 4.76067C10.1453 4.1668 9.33984 3.83317 8.49999 3.83317ZM8.49999 8.58317C8.18684 8.58317 7.88072 8.49031 7.62034 8.31633C7.35996 8.14235 7.15702 7.89507 7.03718 7.60575C6.91734 7.31644 6.88599 6.99808 6.94708 6.69094C7.00818 6.38381 7.15897 6.10168 7.38041 5.88025C7.60184 5.65882 7.88396 5.50802 8.1911 5.44693C8.49824 5.38583 8.81659 5.41719 9.10591 5.53703C9.39522 5.65687 9.64251 5.85981 9.81649 6.12018C9.99047 6.38056 10.0833 6.68668 10.0833 6.99984C10.0833 7.41976 9.91651 7.82249 9.61958 8.11942C9.32265 8.41635 8.91992 8.58317 8.49999 8.58317Z" fill="#455560"/>
</svg>
