<svg width="20" height="14" viewBox="0 0 20 20" fill="none" xmlns="http://www.w3.org/2000/svg">
<path fill-rule="evenodd" clip-rule="evenodd" d="M8.93972 4.08211C9.29031 4.02837 9.64451 4.00164 9.9992 4.00215C13.1776 4.00215 16.1661 6.29102 17.9053 9.99918C17.6393 10.5635 17.3389 11.1109 17.0057 11.6384C16.9 11.8021 16.8444 11.9932 16.8458 12.1881C16.8504 12.6364 17.1529 13.0268 17.5858 13.1431C18.0187 13.2595 18.4762 13.0734 18.7049 12.6878C19.1706 11.9561 19.5751 11.1872 19.9143 10.389C20.0227 10.1369 20.0227 9.85143 19.9143 9.59938C17.8953 4.9117 14.0972 2.00305 9.9992 2.00305C9.5301 2.00078 9.06174 2.04092 8.59989 2.12308C8.2428 2.18379 7.94522 2.43039 7.81925 2.76999C7.69328 3.10959 7.75805 3.4906 7.98917 3.76949C8.22028 4.04839 8.58263 4.1828 8.93972 4.12209V4.08211ZM1.7133 0.293969C1.45976 0.0404359 1.09023 -0.05858 0.743898 0.0342195C0.397566 0.127019 0.127049 0.397535 0.03425 0.743868C-0.0585495 1.0902 0.0404664 1.45973 0.293999 1.71327L3.39246 4.80173C1.97874 6.16259 0.853579 7.79424 0.0841033 9.59936C-0.0271547 9.85428 -0.0271547 10.144 0.0841033 10.399C2.1031 15.0866 5.90122 17.9952 9.99919 17.9952C11.7954 17.9828 13.5492 17.448 15.0467 16.456L18.2851 19.7043C18.4728 19.8936 18.7282 20 18.9947 20C19.2612 20 19.5167 19.8936 19.7044 19.7043C19.8936 19.5167 20 19.2612 20 18.9947C20 18.7282 19.8936 18.4727 19.7044 18.2851L1.7133 0.293969ZM8.07009 9.47944L10.5189 11.9282C10.3499 11.9767 10.1749 12.0002 9.99914 11.9982C8.89511 11.9982 8.00013 11.1032 8.00013 9.99919C7.99808 9.82346 8.02165 9.64837 8.07009 9.47944ZM9.99918 15.9962C6.82075 15.9962 3.83223 13.7074 2.10309 9.99919C2.74886 8.57365 3.66539 7.28711 4.80175 6.21107L6.57087 8.00018C5.71731 9.55803 5.99399 11.4922 7.25006 12.7483C8.50614 14.0044 10.4403 14.2811 11.9982 13.4275L13.5874 14.9967C12.499 15.6373 11.262 15.9819 9.99918 15.9962Z" fill="#B3B9C3"/>
</svg>
