<svg width="14" height="14" viewBox="0 0 14 14" fill="none" xmlns="http://www.w3.org/2000/svg">
<path d="M13.2733 4.75976C13.2733 4.75976 13.2733 4.75976 13.2733 4.72642C12.8036 3.44391 11.9512 2.33661 10.8316 1.55433C9.71201 0.772054 8.37913 0.352539 7.0133 0.352539C5.64747 0.352539 4.31459 0.772054 3.19497 1.55433C2.07536 2.33661 1.22303 3.44391 0.753301 4.72642C0.753301 4.72642 0.753301 4.72642 0.753301 4.75976C0.228717 6.20702 0.228717 7.79249 0.753301 9.23976C0.753301 9.23976 0.753301 9.23976 0.753301 9.27309C1.22303 10.5556 2.07536 11.6629 3.19497 12.4452C4.31459 13.2275 5.64747 13.647 7.0133 13.647C8.37913 13.647 9.71201 13.2275 10.8316 12.4452C11.9512 11.6629 12.8036 10.5556 13.2733 9.27309C13.2733 9.27309 13.2733 9.27309 13.2733 9.23976C13.7979 7.79249 13.7979 6.20702 13.2733 4.75976ZM1.83997 8.33309C1.60879 7.45923 1.60879 6.54028 1.83997 5.66642H3.07997C2.97332 6.55211 2.97332 7.4474 3.07997 8.33309H1.83997ZM2.38663 9.66642H3.31997C3.47645 10.261 3.70011 10.8358 3.98663 11.3798C3.33283 10.9344 2.7863 10.3491 2.38663 9.66642ZM3.31997 4.33309H2.38663C2.78055 3.65248 3.3201 3.0674 3.96663 2.61976C3.687 3.16459 3.47006 3.73937 3.31997 4.33309ZM6.3333 12.1331C5.51448 11.5322 4.9394 10.6566 4.7133 9.66642H6.3333V12.1331ZM6.3333 8.33309H4.42663C4.30223 7.44856 4.30223 6.55096 4.42663 5.66642H6.3333V8.33309ZM6.3333 4.33309H4.7133C4.9394 3.34294 5.51448 2.4673 6.3333 1.86642V4.33309ZM11.6133 4.33309H10.68C10.5235 3.73853 10.2998 3.16372 10.0133 2.61976C10.6671 3.06514 11.2136 3.65038 11.6133 4.33309ZM7.66663 1.86642C8.48546 2.4673 9.06054 3.34294 9.28663 4.33309H7.66663V1.86642ZM7.66663 12.1331V9.66642H9.28663C9.06054 10.6566 8.48546 11.5322 7.66663 12.1331ZM9.5733 8.33309H7.66663V5.66642H9.5733C9.69771 6.55096 9.69771 7.44856 9.5733 8.33309ZM10.0333 11.3798C10.3198 10.8358 10.5435 10.261 10.7 9.66642H11.6333C11.2336 10.3491 10.6871 10.9344 10.0333 11.3798ZM12.16 8.33309H10.92C10.9742 7.89073 11.0009 7.44543 11 6.99976C11.0007 6.55409 10.974 6.1088 10.92 5.66642H12.16C12.3911 6.54028 12.3911 7.45923 12.16 8.33309Z" fill="#1A1C1F"/>
</svg>
