<svg width="17" height="16" viewBox="0 0 17 16" fill="none" xmlns="http://www.w3.org/2000/svg">
<path d="M14.3899 8.79166C14.2157 8.79166 14.0336 8.73625 13.8595 8.69666C13.5068 8.61894 13.1602 8.51575 12.8224 8.38791C12.4551 8.2543 12.0514 8.26124 11.689 8.40739C11.3265 8.55354 11.0309 8.82858 10.8591 9.17958L10.6849 9.53583C9.91382 9.10689 9.20526 8.57414 8.57906 7.9525C7.95742 7.3263 7.42467 6.61774 6.99573 5.84666L7.32823 5.625C7.67923 5.45314 7.95427 5.15754 8.10042 4.79509C8.24657 4.43263 8.25351 4.02893 8.1199 3.66166C7.9942 3.32316 7.89106 2.97671 7.81115 2.62458C7.77156 2.45041 7.7399 2.26833 7.71615 2.08625C7.62001 1.52861 7.32793 1.02363 6.89251 0.662228C6.45709 0.300831 5.90695 0.106771 5.34115 0.114997H2.96615C2.62496 0.111794 2.28709 0.182141 1.97554 0.321251C1.66399 0.46036 1.38607 0.664965 1.1607 0.921137C0.935324 1.17731 0.767795 1.47903 0.669512 1.80577C0.57123 2.13251 0.544501 2.47659 0.591147 2.81458C1.0129 6.13117 2.52759 9.21273 4.89595 11.5725C7.26432 13.9323 10.3514 15.4357 13.6695 15.8454H13.9703C14.5541 15.8463 15.1178 15.6321 15.5536 15.2437C15.8041 15.0197 16.0042 14.7451 16.1406 14.4381C16.2771 14.131 16.3469 13.7985 16.3453 13.4625V11.0875C16.3356 10.5376 16.1354 10.0081 15.7787 9.5894C15.4221 9.1707 14.9312 8.88874 14.3899 8.79166ZM14.7857 13.5417C14.7856 13.6541 14.7615 13.7652 14.7151 13.8675C14.6687 13.9699 14.601 14.0612 14.5166 14.1354C14.4298 14.2145 14.3265 14.2732 14.2143 14.3075C14.102 14.3417 13.9835 14.3505 13.8674 14.3333C10.9025 13.9532 8.14858 12.5968 6.03996 10.4781C3.93134 8.35949 2.58805 5.59914 2.22198 2.6325C2.20938 2.51653 2.22042 2.39922 2.25444 2.28764C2.28846 2.17606 2.34474 2.07254 2.4199 1.98333C2.49408 1.89888 2.5854 1.8312 2.68778 1.78479C2.79016 1.73838 2.90124 1.71431 3.01365 1.71416H5.38865C5.57275 1.71007 5.75251 1.77028 5.89701 1.88443C6.04151 1.99858 6.14169 2.15953 6.18031 2.33958C6.21198 2.55597 6.25156 2.76972 6.29906 2.98083C6.39052 3.39815 6.51223 3.80826 6.66323 4.20791L5.5549 4.7225C5.46013 4.76598 5.37489 4.82775 5.30406 4.90426C5.23324 4.98077 5.17822 5.07053 5.14218 5.16836C5.10613 5.26619 5.08977 5.37018 5.09403 5.47436C5.09828 5.57854 5.12307 5.68085 5.16698 5.77541C6.30635 8.21593 8.26813 10.1777 10.7086 11.3171C10.9014 11.3963 11.1176 11.3963 11.3103 11.3171C11.409 11.2818 11.4998 11.2272 11.5772 11.1565C11.6547 11.0859 11.7174 11.0005 11.7616 10.9054L12.2524 9.79708C12.6617 9.94344 13.0794 10.065 13.5032 10.1612C13.7143 10.2087 13.9281 10.2483 14.1445 10.28C14.3245 10.3186 14.4855 10.4188 14.5996 10.5633C14.7138 10.7078 14.774 10.8876 14.7699 11.0717L14.7857 13.5417ZM14.0416 6.41666C14.2515 6.41666 14.4529 6.33326 14.6014 6.18479C14.7498 6.03632 14.8332 5.83496 14.8332 5.625V2.45833C14.8332 2.24837 14.7498 2.047 14.6014 1.89854C14.4529 1.75007 14.2515 1.66666 14.0416 1.66666C13.8316 1.66666 13.6302 1.75007 13.4818 1.89854C13.3333 2.047 13.2499 2.24837 13.2499 2.45833V5.625C13.2499 5.83496 13.3333 6.03632 13.4818 6.18479C13.6302 6.33326 13.8316 6.41666 14.0416 6.41666ZM10.8749 6.41666C11.0849 6.41666 11.2862 6.33326 11.4347 6.18479C11.5832 6.03632 11.6666 5.83496 11.6666 5.625V2.45833C11.6666 2.24837 11.5832 2.047 11.4347 1.89854C11.2862 1.75007 11.0849 1.66666 10.8749 1.66666C10.6649 1.66666 10.4636 1.75007 10.3151 1.89854C10.1666 2.047 10.0832 2.24837 10.0832 2.45833V5.625C10.0832 5.83496 10.1666 6.03632 10.3151 6.18479C10.4636 6.33326 10.6649 6.41666 10.8749 6.41666Z" fill="#455560"/>
</svg>
