<svg fill="none" height="15" viewBox="0 0 21 15" width="21" xmlns="http://www.w3.org/2000/svg"><path d="m0 3c0-1.65685 1.34315-3 3-3h15c1.6569 0 3 1.34315 3 3v9c0 1.6569-1.3431 3-3 3h-15c-1.65685 0-3-1.3431-3-3z" fill="#fff"/><g clip-rule="evenodd" fill-rule="evenodd"><path d="m0 0h9v7h-9z" fill="#1a47b8"/><path d="m9 0v1h12v-1zm0 2v1h12v-1zm0 2v1h12v-1zm0 2v1h12v-1zm-9 2v1h21v-1zm0 2v1h21v-1zm0 2v1h21v-1zm0 2v1h21v-1z" fill="#f93939"/><path d="m1 1v1h1v-1zm2 0v1h1v-1zm2 0v1h1v-1zm2 0v1h1v-1zm-1 1v1h1v-1zm-2 0v1h1v-1zm-2 0v1h1v-1zm-1 1v1h1v-1zm2 0v1h1v-1zm2 0v1h1v-1zm2 0v1h1v-1zm-6 2v1h1v-1zm2 0v1h1v-1zm2 0v1h1v-1zm2 0v1h1v-1zm-1-1v1h1v-1zm-2 0v1h1v-1zm-2 0v1h1v-1z" fill="#fff"/></g></svg>