<svg width="22" height="15" fill="none" xmlns="http://www.w3.org/2000/svg"><g clip-path="url(#clip0_429_4589)"><path d="M.5 3a3 3 0 0 1 3-3h15a3 3 0 0 1 3 3v9a3 3 0 0 1-3 3h-15a3 3 0 0 1-3-3V3z" fill="#fff"/><path fill-rule="evenodd" clip-rule="evenodd" d="M14.5 0h7v15h-7V0z" fill="#F93939"/><path fill-rule="evenodd" clip-rule="evenodd" d="M.5 0h7v15h-7V0z" fill="#1A47B8"/></g><defs><clipPath id="clip0_429_4589"><path d="M.5 3a3 3 0 0 1 3-3h15a3 3 0 0 1 3 3v9a3 3 0 0 1-3 3h-15a3 3 0 0 1-3-3V3z" fill="#fff"/></clipPath></defs></svg>