<svg width="88" height="65" fill="none" xmlns="http://www.w3.org/2000/svg"><path d="M0 3.176V.02h9.998v3.157H6.84v19.995h3.158v3.157H0v-3.157h3.42V3.176H0zm10.787 3.157h3.157c0-.316-.029-.72-.06-1.169-.123-1.716-.292-4.1.91-4.835.592-.363 1.385-.34 2.1-.32.162.005.32.01.47.01v6.314h6.052V9.49h-6.052v7.893c0 .314-.016.65-.034.998-.05 1.002-.103 2.088.23 2.948 1.214 3.135 5.08 1.812 5.856-.789h3.42c-.082 1.78-.652 3.496-2.109 4.626-2.536 1.965-7.824 1.691-9.783-.954-1.035-1.396-1.02-3.01-1.004-4.648.002-.2.004-.401.004-.602V9.49h-3.157V6.333zM33.15 26.328h-3.42V3.702c0-.196-.01-.405-.018-.62-.03-.676-.06-1.409.176-1.995.459-1.135 1.726-1.103 2.8-1.076.16.004.315.008.462.008v8.156c4.586-3.022 12.445-2.535 14.443 3.42.416 1.242.367 2.66.32 4.016-.015.424-.03.842-.03 1.246v9.471h-3.42v-9.471c0-.271.005-.546.01-.823.029-1.428.057-2.899-.646-4.175-2.078-3.769-8.19-2.877-10.127.525-.646 1.135-.606 2.532-.568 3.844.01.303.018.602.018.892v9.208zM54.46 6.333v1.579c.177-.093.353-.188.528-.282.848-.457 1.693-.912 2.63-1.168 3.802-1.04 10.53.088 11.05 4.87-.244.056-.52.152-.808.252-.684.237-1.441.5-2.031.33-.482-.138-.845-.572-1.201-.998-.229-.273-.454-.542-.707-.729-1.28-.943-2.927-1.061-4.461-.935-2.227.182-4.16 1.763-4.755 3.922-.323 1.172-.292 2.44-.262 3.674.009.358.018.713.018 1.061v8.42h-3.42V6.332h3.42z" fill="#fff"/><path fill-rule="evenodd" clip-rule="evenodd" d="M71.581 11.584c-.288-.1-.564-.195-.808-.252C71.89 5.135 82.59 4.326 86.149 8.726c1.25 1.547 1.228 3.41 1.205 5.275-.003.25-.006.501-.006.751v11.576H84.19v-1.052c-.451.129-.892.267-1.329.405-1.456.458-2.868.903-4.46.91-2.157.01-4.232-.171-6.05-1.483-2.882-2.08-3.33-6.513-.502-8.86 1.979-1.644 4.105-1.609 6.277-1.574 1.396.023 2.81.046 4.217-.375 1.386-.416 1.646-2.021 1.01-3.219-1.264-2.382-5.604-2.315-7.579-1.028-.305.199-.582.509-.861.821-.4.447-.803.899-1.302 1.041-.591.169-1.347-.093-2.03-.33zm8.589 5.695c1.175.026 2.354.053 3.494-.159 0 .348.027.748.055 1.17.081 1.222.175 2.635-.325 3.538-1.454 2.621-7.286 2.42-9.141.498-1.799-1.863-.092-4.283 2.045-4.803 1.248-.303 2.558-.274 3.872-.244z" fill="#fff"/><path d="M44.758 33.397c-3.257 1.26-2.054 8.17 1.784 6.498 2.432-1.059 1.608-7.81-1.785-6.498z" fill="#fff"/><path fill-rule="evenodd" clip-rule="evenodd" d="M10.487 57.808c-2.009-.362-3.603-1.88-5.008-3.256-.224 1.302-.685 2.556-1.147 3.812-.37 1.005-.74 2.01-.988 3.04-.054.225-.088.484-.123.755-.096.736-.202 1.555-.756 1.97-.875.658-1.751-.416-2.086-1.144-.681-1.484-.302-3.213.039-4.77.037-.17.074-.336.108-.5 1.12-5.292 3.39-10.22 5.644-15.114l.445-.965c.053-.115.106-.238.163-.365.366-.834.824-1.875 1.627-2.248 1.748-.812 2.55 2.248 2.61 3.404.232-.078.46-.157.688-.236 1.24-.429 2.424-.838 3.792-.814 3.142.056 5.1 3.393 4.936 6.321-.072 1.292-.83 2.513-1.51 3.608l-.213.346c-1.778 2.902-4.24 6.874-8.22 6.156zm-1.554-9.72c1.919-1.267 5.389-1.956 7.617-1.444-.698 2.37-2.775 5.032-5.009 6.145-1.53.762-3.561.032-4.153-1.664-.383-1.095.693-2.472 1.545-3.036z" fill="#fff"/><path d="M26.405 40.62c1.895-2.024 3.42 1.233 3.588 2.86.08-.068.16-.138.241-.21.774-.677 1.621-1.419 2.658-1.57 1.958-.286 3.631 1.74 3.384 3.621-.15 1.137-.958 1.153-1.815 1.17-.353.008-.715.015-1.042.101-1.15.303-2.24 1.043-3.163 1.77-2.266 1.783-4.256 4.161-5.592 6.717-.167.319-.324.835-.496 1.4-.344 1.13-.747 2.452-1.401 2.77-1.136.553-1.711-1.611-1.863-2.325-.404-1.893.25-3.777.868-5.55l.086-.249c.773-2.231 1.558-4.416 2.488-6.59.094-.22.188-.448.284-.682.464-1.131.974-2.375 1.775-3.232zm28.98 6.872c.152-.292.3-.575.44-.848-3.287 2.245-5.577 5.405-7.732 8.698-.169.259-.35.694-.55 1.178-.453 1.093-1.008 2.433-1.764 2.533-.688.092-1.281-.575-1.63-1.08-1.054-1.52-.764-3.593-.303-5.267.896-3.255 2.023-6.438 3.485-9.489.088-.183.177-.386.27-.599.41-.931.9-2.05 1.72-2.512 1.332-.75 2.023 1.052 2.2 2.057.358 2.046-.701 3.832-1.715 5.54l-.308.522c1.13-.987 2.098-2.124 3.067-3.261 1.305-1.533 2.61-3.066 4.314-4.236 1.77-1.215 3.71.217 3.914 2.226.106 1.046-.328 1.978-.762 2.91-.395.847-.79 1.693-.78 2.625.962-2.276 2.996-4.347 4.745-6.058.842-.825 1.77-1.7 2.899-2.114 2.768-1.015 5.032 2.598 4.31 5.009-.276.922-.81 1.78-1.335 2.626-.276.444-.549.884-.782 1.328a42.158 42.158 0 0 0-2.697 6.326c-.078.239-.135.58-.199.957-.172 1.027-.39 2.32-1.201 2.535-1.51.4-2.11-2.218-2.23-3.228-.354-2.956 1.412-6.882 3.08-9.226-3.33 1.658-5.832 5.12-7.817 8.171-.242.373-.48.938-.732 1.54-.45 1.072-.946 2.256-1.602 2.659-1.532.94-2.79-1.789-2.948-2.88-.404-2.8 1.3-6.07 2.643-8.642z" fill="#fff"/><path fill-rule="evenodd" clip-rule="evenodd" d="M83.477 51.624c-3.074 2.172-6.664.777-9.729-.499l-.105.28c-.16.42-.327.855-.351 1.303-.075 1.379 1.11 2.016 2.301 2.247 2.324.45 4.671-.284 6.854-1.019.112-.038.28-.11.478-.197.905-.393 2.48-1.078 2.73-.157.38 1.405-2.003 3.195-2.945 3.858-2.942 2.07-9.106 3.833-11.984.715-1.493-1.617-.92-4.161-.482-6.11l.029-.13c1.037-4.618 4.354-8.675 8.483-10.884 1.966-1.051 4.523-1.843 6.586-.586 4.08 2.486 1.203 9.01-1.865 11.179zm-6.302-3.926c2.848 1.038 6.454.42 6.853-3.163-2.42.057-5.344 1.235-6.853 3.163z" fill="#fff"/><path d="M39.116 44.84c.397-.896.875-1.975 1.711-2.401 1.988-1.013 3.004 2.574 2.789 3.941-.143.905-.712 1.764-1.257 2.587-.248.376-.492.743-.687 1.104-1.052 1.941-1.866 3.978-2.587 6.062-.073.211-.144.52-.223.868-.22.961-.508 2.218-1.096 2.512-.594.298-1.151-.324-1.448-.76-.726-1.064-.856-2.424-.766-3.674.227-3.151 1.91-6.713 3.259-9.57l.086-.183c.071-.151.144-.315.22-.485z" fill="#fff"/></svg>