<svg width="166" height="32" fill="none" xmlns="http://www.w3.org/2000/svg"><path fill-rule="evenodd" clip-rule="evenodd" d="M3.607 5.97a.642.642 0 0 0 0 .785c.05.096 1.479 1.919 4.568 1.919 1.537 0 2.803-.711 4.024-1.4 1.221-.688 2.383-1.335 3.794-1.335 1.393 0 2.491.666 3.668 1.38l.045.028.006.004c1.192.724 2.502 1.519 4.105 1.519 3.215 0 4.558-2.083 4.612-2.17a.647.647 0 0 0-.04-.743 15.965 15.965 0 0 0-5.527-4.392 15.838 15.838 0 0 0-13.728 0 15.966 15.966 0 0 0-5.527 4.392v.014zm-2.555 4.336A16.193 16.193 0 0 0 2.14 24.092a16.025 16.025 0 0 0 4.776 5.204 15.873 15.873 0 0 0 6.531 2.627.62.62 0 0 0 .678-.378c.037-.092.905-2.28-.633-4.974-.771-1.333-2.012-2.08-3.212-2.804l-.007-.004c-1.203-.725-2.334-1.409-3.04-2.644-.699-1.21-.673-2.534-.646-3.935v-.008c.027-1.404.054-2.959-.746-4.358-1.605-2.809-4.07-2.932-4.179-2.936a.625.625 0 0 0-.61.424zm25.265 2.676c1.55-2.694 3.862-3.04 3.961-3.04a.629.629 0 0 1 .665.414 16.197 16.197 0 0 1-1.08 13.795 16.03 16.03 0 0 1-4.776 5.21 15.877 15.877 0 0 1-6.535 2.63.628.628 0 0 1-.66-.328 4.718 4.718 0 0 1-.425-2.046 6.136 6.136 0 0 1 .864-3.073c.786-1.371 2.085-2.103 3.283-2.778l.086-.048.11-.063c1.18-.663 2.272-1.279 2.956-2.481.705-1.24.728-2.562.746-3.975.018-1.413.04-2.872.805-4.217z" fill="#fff"/><path d="M54.617 17.427a.929.929 0 0 1-.293.66c-.635.512-1.372.56-2.407.56-.898 0-1.87-.512-1.87-1.347s.977-1.406 1.856-1.406h1.88c.29.002.58-.055.849-.166l-.015 1.7zm.127 2.402h1.376v-6.307c0-1.674-1.752-2.558-3.48-2.558-1.953 0-3.246.742-3.74 2.133l-.029.074 1.392.449.029-.069c.376-1.05 1.464-1.269 2.304-1.269.976 0 2.02.386 2.02 1.24v.86c-.286.193-.63.287-.975.268h-1.724c-1.757-.025-3.392.912-3.392 2.65 0 1.66 1.728 2.65 3.417 2.65a5.795 5.795 0 0 0 2.831-.678l-.015.557h-.014zm53.832-2.402a.91.91 0 0 1-.293.66c-.634.512-1.371.56-2.401.56-.899 0-1.875-.512-1.875-1.347s.976-1.406 1.855-1.406h1.865c.291.002.58-.054.849-.166v1.7zm.127 2.402h1.377v-6.307c0-1.674-1.753-2.558-3.481-2.558-1.952 0-3.246.742-3.739 2.133l-.029.074 1.396.449v-.069c.381-1.05 1.464-1.269 2.304-1.269.976 0 2.021.386 2.021 1.24v.86c-.288.193-.63.287-.976.268h-1.724c-1.757-.025-3.417.912-3.417 2.65 0 1.66 1.728 2.65 3.417 2.65a5.777 5.777 0 0 0 2.827-.678s.024.527.024.557zM50.126 8.367H39.68v1.357h4.466V19.82h1.587V9.724h4.461V8.367h-.068zm50.864 2.91a.92.92 0 0 0-.39.488s-2.202 5.14-2.602 6.087c-.136-.313-2.84-6.737-2.84-6.737h-1.621l3.641 8.606-.732 1.66c-.322.757-.713.976-1.587.976h-.488v1.338h.674a2.87 2.87 0 0 0 2.855-1.826l4.638-10.739h-.918c-.219-.01-.436.04-.63.142v.005zm-9.914.043a.688.688 0 0 0-.21.518v7.976h1.548V11.13h-.8a.81.81 0 0 0-.538.186v.004zm-.273-2.25a.815.815 0 0 0 .835.766.772.772 0 1 0 0-1.532.815.815 0 0 0-.835.761v.005zm-7.86 2.797v-.737h-1.527v8.68h1.528v-5.341c0-1.235 1.035-2.167 2.406-2.167 2.134 0 2.568.976 2.568 2.48v5.027h1.499v-5.116c0-2.44-1.372-3.704-4.076-3.704-.877-.001-1.726.308-2.397.873v.005zm-4.173-.522a.762.762 0 0 0-.215.527v4.96c0 1.186-1.235 1.83-2.401 1.83-2.133 0-2.568-1.025-2.568-2.567V11.13h-1.528v4.96c0 2.67 1.264 3.86 4.096 3.86a4.286 4.286 0 0 0 2.401-.712v.571h1.509V11.13h-.791a.736.736 0 0 0-.503.21v.005zm-7.659-.215h-.732c-.23.005-.455.061-.659.166a1.02 1.02 0 0 0-.361.527l-2.133 5.716-2.705-6.409h-1.415l-2.67 6.41-2.339-6.41h-1.615l3.192 8.68h1.43l2.72-6.488 2.718 6.487h1.435l3.242-8.679h-.108zm58.149-.697c0-.228-.913-2.281-1.825-2.281-.229 0-.685.456-.685.684 0 .456.228 2.281 1.825 2.281 0 0 .685-.228.685-.684zm2.281-8.669c-.456-.456-6.16-1.14-10.95 14.144h-.228c-.685-4.106-.457-8.669-.457-9.353-.228-1.825-1.825-1.37-1.825-1.37-.684 1.37-.228 13.232.913 14.83.684.227 2.737.227 3.194-.229 0 0 2.965-14.828 9.353-18.022zm-5.019 10.494c-1.825 2.053-2.053 5.475-2.281 6.616 0 1.368 1.368 1.368 1.368 1.368 1.597-.456 1.369-1.597 1.369-1.597s-.228 0-.228-.456c0-.228.913-4.106.913-4.562.228-.685-.457-1.37-1.141-1.37zm39.238 1.14c0-.228-.228-.228-.228-.228l-.228-.228h-.913c-.228 0-.228.228-.456.228l-.228.229v.912c0 .228.228.228.228.228l.228.228h.912c.229 0 .229-.228.457-.228 0 0 .228-.228.228-.456v-.685zm-.228.685s0 .228-.228.228l-.229.228h-.684s-.228 0-.228-.228l-.228-.228v-.456-.229s0-.228.228-.228l.228-.228h.684s.229 0 .229.228l.228.229v.684zm-16.654-1.825c.229 0 1.141-.456 1.141-.913 0-.228-.684-1.825-1.825-1.825-.228 0-.684.457-.684.685-.228.456.228 2.053 1.368 2.053zm1.825 7.3s-.228 0 0 0c-1.825 0 .229-6.16-2.281-5.931-.456 0-1.14.456-1.369.456-.228.456-1.368 2.053-3.193 4.106-.229.228-.457 0-.457 0-.912-2.966 3.194-11.634 3.194-11.634.228-.913-.912-1.37-1.597-1.597-1.369 2.053-3.878 8.44-3.65 13.687v.229c-.456.228-1.825.684-1.597-.457 0-.228.685-2.281.685-2.51 0-.227-.913-1.368-1.597-1.368-.228 0-2.738 3.194-3.65 3.878-.228.228-.456 0-.456 0-.457-.912.684-3.65 3.878-4.79 0 0 .684-.685.912-.685v-.228c0-.228-.228-.228-.228-.228-1.825-.913-5.703-.684-6.387-.684.456-2.282 2.053-5.704 2.053-6.16 0-.456-.457-1.14-1.597-1.369-1.825 2.966-3.194 7.072-3.194 7.529-.228.228-.684.228-.912 1.14 0 .456.684.913.684 1.14 0 .457-.684 2.282-.456 6.845.912 0 1.825-1.37 1.825-1.597.456-3.65 1.14-5.247 1.14-5.247 1.369 0 2.51 0 3.422-.228-1.597 1.368-3.194 2.737-3.194 5.475 0 1.14 1.141 1.597 1.825 1.597 1.141 0 2.282-.913 2.738-1.597 0-.228.228 0 .228 0 .228.912.913 1.597 1.825 1.597.684 0 1.825-.685 2.281-.913.228.228.913.913 1.369.913 1.597 0 3.194-2.282 4.106-3.878 0-.229.229 0 .229 0 .456 1.596.228 3.878 1.825 3.878.456 0 .912 0 1.368-.229.685-.684.457-1.14.228-1.14zm14.372-5.475s0-.228 0 0l-.228-.228h.228v-.228-.229h-.684v.913-.456h.228v.456c.685 0 .685 0 .456-.228zm-.228-.456h-.228v-.229h.228v.229c0-.229 0-.229 0 0 0-.229 0 0 0 0zm-2.965-.913c-.229 0-.229.228-.229.228-1.596 2.966-3.193 5.475-4.562 5.703a.49.49 0 0 1-.456-.456c-.228-1.14.912-4.106.912-5.019 0-.228-.228-.228-.456-.456l-.228.228h-.228c-.685-.228-1.825-.456-2.282-.684.685-1.597 1.825-5.247 1.825-5.475 0-.685-.684-1.14-1.596-1.369-1.597 2.738-2.51 6.616-2.738 6.844-.456.456-1.369 0-1.369.912.457.457 1.141.685 1.141 1.14 0 .23-.456 1.598-.228 5.932.228 0 1.369-1.14 1.369-1.597.228-3.193 1.14-4.562 1.14-4.562h2.053c-.228.456-1.368 2.737-1.368 3.65 0 1.369.456 2.053 1.596 2.281h.685c1.14-.228 2.281-.684 3.422-2.053h.228c-1.597 5.931-5.019 7.528-6.388 7.756 0 .457 2.51.228 4.107-1.14 1.825-1.597 3.421-4.107 3.878-6.16.228-.684.456-1.14.456-1.825.228-1.14.456-2.281.456-3.65.228.456-.912-.228-1.14-.228z" fill="#fff"/></svg>