<svg width="1700" height="446" viewBox="0 0 1700 446" fill="none" xmlns="http://www.w3.org/2000/svg">
<path d="M1388.94 204.4C1374.33 257.055 1373.04 314.499 1373.04 314.499L1388.94 322.019L1404.84 314.499C1404.84 314.499 1403.52 257.055 1388.94 204.4Z" fill="white"/>
<path d="M1388.91 246.316C1392.7 246.316 1395.78 243.243 1395.78 239.453C1395.78 235.663 1392.7 232.59 1388.91 232.59C1385.12 232.59 1382.05 235.663 1382.05 239.453C1382.05 243.243 1385.12 246.316 1388.91 246.316Z" fill="#F2F3F5"/>
<path d="M1646.24 147.613H1580.41V356.999H1646.24V147.613Z" fill="#F2F3F5"/>
<path d="M1500.41 315.019H1479.5V273.272C1485.66 275.694 1490.96 279.917 1494.69 285.391C1498.42 290.864 1500.41 297.335 1500.41 303.96V315.019Z" fill="white"/>
<path d="M1478.63 320.129H1457.71V307.748C1457.71 299.944 1459.62 292.259 1463.26 285.359C1466.91 278.459 1472.18 272.553 1478.63 268.155V320.129Z" fill="white"/>
<path d="M1124.87 354.645H1166.91V242.448H1124.87V354.645Z" fill="white"/>
<path d="M1166.65 242.44V288.752H1160.36L1166.65 242.44Z" fill="#B3B9C3"/>
<path d="M1166.65 92.54V339.029H1236.7V92.54H1166.65ZM1173.4 104.288C1191.83 98.6716 1211.52 98.6716 1229.95 104.288V117.43C1230.01 135.68 1225.85 153.697 1217.8 170.077C1210.59 184.492 1192.73 184.492 1185.55 170.077C1177.5 153.697 1173.34 135.68 1173.4 117.43V104.288Z" fill="white"/>
<path d="M1201.67 187.983C1213.4 188.034 1225.12 187.115 1236.7 185.236V187.703C1225.12 189.582 1213.4 190.5 1201.67 190.45C1189.94 190.5 1178.23 189.581 1166.65 187.703V185.236C1178.23 187.115 1189.94 188.033 1201.67 187.983Z" fill="#F2F3F5"/>
<path d="M1201.67 195.031C1213.4 195.081 1225.12 194.163 1236.7 192.284V194.742C1225.12 196.621 1213.4 197.54 1201.67 197.489C1189.94 197.539 1178.23 196.621 1166.65 194.742V192.276C1178.23 194.157 1189.94 195.078 1201.67 195.031Z" fill="#F2F3F5"/>
<path d="M1201.67 202.086C1213.4 202.136 1225.12 201.218 1236.7 199.339V201.805C1225.12 203.684 1213.4 204.603 1201.67 204.552C1189.94 204.602 1178.23 203.684 1166.65 201.805V199.339C1178.23 201.217 1189.94 202.136 1201.67 202.086Z" fill="#F2F3F5"/>
<path d="M1201.67 209.157C1213.4 209.208 1225.12 208.289 1236.7 206.411V208.877C1213.49 212.54 1189.86 212.54 1166.65 208.877V206.411C1178.23 208.289 1189.94 209.208 1201.67 209.157Z" fill="#F2F3F5"/>
<path d="M1201.67 216.188C1213.4 216.239 1225.12 215.32 1236.7 213.441V215.908C1213.49 219.57 1189.86 219.57 1166.65 215.908V213.441C1178.23 215.32 1189.94 216.238 1201.67 216.188Z" fill="#F2F3F5"/>
<path d="M1201.67 223.236C1213.4 223.287 1225.12 222.368 1236.7 220.489V222.956C1213.49 226.618 1189.86 226.618 1166.65 222.956V220.489C1178.23 222.367 1189.94 223.286 1201.67 223.236Z" fill="#F2F3F5"/>
<path d="M1201.67 241.295C1213.4 241.345 1225.12 240.426 1236.7 238.548V241.014C1213.49 244.677 1189.86 244.677 1166.65 241.014V238.548C1178.23 240.426 1189.94 241.345 1201.67 241.295Z" fill="#F2F3F5"/>
<path d="M1201.67 248.342C1213.4 248.393 1225.12 247.474 1236.7 245.595V248.062C1213.49 251.724 1189.86 251.724 1166.65 248.062V245.595C1178.23 247.473 1189.94 248.392 1201.67 248.342Z" fill="#F2F3F5"/>
<path d="M1201.67 255.397C1213.4 255.448 1225.12 254.527 1236.7 252.643V255.117C1213.49 258.78 1189.86 258.78 1166.65 255.117V252.643C1178.23 254.526 1189.94 255.448 1201.67 255.397Z" fill="#F2F3F5"/>
<path d="M1201.67 262.445C1213.4 262.495 1225.12 261.576 1236.7 259.698V262.164C1213.49 265.827 1189.86 265.827 1166.65 262.164V259.698C1178.23 261.576 1189.94 262.495 1201.67 262.445Z" fill="#F2F3F5"/>
<path d="M1201.67 269.5C1213.4 269.551 1225.12 268.629 1236.7 266.745V269.22C1213.49 272.882 1189.86 272.882 1166.65 269.22V266.745C1178.23 268.629 1189.94 269.55 1201.67 269.5Z" fill="#F2F3F5"/>
<path d="M1201.67 276.548C1213.4 276.598 1225.12 275.679 1236.7 273.801V276.267C1213.49 279.93 1189.86 279.93 1166.65 276.267V273.801C1178.23 275.679 1189.94 276.598 1201.67 276.548Z" fill="#F2F3F5"/>
<path d="M1201.67 294.606C1213.4 294.657 1225.12 293.736 1236.7 291.852V294.326C1213.49 297.989 1189.86 297.989 1166.65 294.326V291.852C1178.23 293.735 1189.94 294.657 1201.67 294.606Z" fill="#F2F3F5"/>
<path d="M1201.67 301.654C1213.4 301.704 1225.12 300.785 1236.7 298.907V301.373C1213.49 305.036 1189.86 305.036 1166.65 301.373V298.907C1178.23 300.785 1189.94 301.704 1201.67 301.654Z" fill="#F2F3F5"/>
<path d="M1201.67 308.709C1213.4 308.76 1225.12 307.838 1236.7 305.954V308.461C1213.49 312.123 1189.86 312.123 1166.65 308.461V305.986C1178.23 307.859 1189.94 308.77 1201.67 308.709Z" fill="#F2F3F5"/>
<path d="M1201.67 315.756C1213.4 315.807 1225.12 314.888 1236.7 313.009V315.476C1213.49 319.138 1189.86 319.138 1166.65 315.476V313.009C1178.23 314.887 1189.94 315.806 1201.67 315.756Z" fill="#F2F3F5"/>
<path d="M1201.67 322.803C1213.4 322.854 1225.12 321.935 1236.7 320.057V322.523C1213.49 326.196 1189.86 326.196 1166.65 322.523V320.057C1178.23 321.935 1189.94 322.854 1201.67 322.803Z" fill="#F2F3F5"/>
<path d="M1201.67 329.859C1213.4 329.909 1225.12 328.99 1236.7 327.112V329.578C1213.49 333.241 1189.86 333.241 1166.65 329.578V327.112C1178.23 328.99 1189.94 329.909 1201.67 329.859Z" fill="#F2F3F5"/>
<path d="M1226.24 200.765V203.231C1224.07 203.471 1221.61 203.696 1218.9 203.904V201.437C1221.61 201.229 1224.07 200.997 1226.24 200.765Z" fill="#679AB4"/>
<path d="M1195.14 209.037V211.504C1192.56 211.432 1190.11 211.32 1187.79 211.184V208.709C1190.1 208.853 1192.55 208.963 1195.14 209.037Z" fill="#679AB4"/>
<path d="M1182.09 194.198V196.664C1179.32 196.424 1176.85 196.168 1174.75 195.911V193.445C1176.85 193.701 1179.32 193.941 1182.09 194.198Z" fill="#679AB4"/>
<path d="M1217.64 222.675V225.174C1215.34 225.326 1212.89 225.462 1210.3 225.566V223.1C1212.89 222.982 1215.34 222.841 1217.64 222.675Z" fill="#679AB4"/>
<path d="M1233.58 239.044V241.511C1231.8 241.775 1229.31 242.104 1226.23 242.44V239.973C1229.34 239.637 1231.83 239.301 1233.58 239.044Z" fill="#679AB4"/>
<path d="M1195.46 241.19V243.657C1192.89 243.585 1190.44 243.473 1188.13 243.337V240.87C1190.44 241.022 1192.89 241.134 1195.46 241.19Z" fill="#679AB4"/>
<path d="M1220.76 247.549V250C1218.5 250.184 1216.05 250.352 1213.43 250.488V248.022C1216.05 247.902 1218.5 247.734 1220.76 247.549Z" fill="#679AB4"/>
<path d="M1030.25 292.284H919.673V364.807H1030.25V292.284Z" fill="white"/>
<path d="M1078.69 316.413H1025.98V388.937H1078.69V316.413Z" fill="white"/>
<path d="M1033.88 324.798H1031.61V394.999H1033.88V324.798Z" fill="#F2F3F5"/>
<path d="M1044.31 324.798H1042.04V394.999H1044.31V324.798Z" fill="#F2F3F5"/>
<path d="M1054.73 324.798H1052.46V394.999H1054.73V324.798Z" fill="#F2F3F5"/>
<path d="M1088.48 345.739H1046.73V418.263H1088.48V345.739Z" fill="#F2F3F5"/>
<path d="M1094.94 351.666H1053.19V353.692H1094.94V351.666Z" fill="white"/>
<path d="M1094.94 358.2H1053.19V360.226H1094.94V358.2Z" fill="white"/>
<path d="M1076.47 358.2H1071.66V360.226H1076.47V358.2Z" fill="#679AB4"/>
<path d="M1094.94 364.743H1053.19V366.769H1094.94V364.743Z" fill="white"/>
<path d="M1094.94 371.278H1053.19V373.304H1094.94V371.278Z" fill="white"/>
<path d="M1113.11 333.294H1084.68V405.818H1113.11V333.294Z" fill="white"/>
<path d="M1020.49 316.397H1008.01V373.977H1020.49V316.397Z" fill="#B3B9C3"/>
<path d="M1046.69 334.696H910.728V438.372H1046.69V334.696Z" fill="white"/>
<path d="M1012.95 352.675H1008.04V362.085H1012.95V352.675Z" fill="#F2F3F5"/>
<path d="M1012.95 366.994H1008.04V376.403H1012.95V366.994Z" fill="#F2F3F5"/>
<path d="M1012.95 338.356H1008.04V347.766H1012.95V338.356Z" fill="#F2F3F5"/>
<path d="M1022.94 338.356H1018.03V347.766H1022.94V338.356Z" fill="#F2F3F5"/>
<path d="M1037.17 439.469H1112.21V381.225H1037.17V439.469Z" fill="#B3B9C3"/>
<path d="M1017.28 430.836H1021.35V422.964H1017.28V430.836Z" fill="white"/>
<path d="M1044.29 404.649H1049.1V413.258H1044.29V404.649Z" fill="white"/>
<path d="M1058.34 430.836H1062.41V422.964H1058.34V430.836Z" fill="white"/>
<path d="M1057.98 386.702H1062.78V395.311H1057.98V386.702Z" fill="white"/>
<path d="M1071.66 404.649H1076.47V413.258H1071.66V404.649Z" fill="white"/>
<path d="M1085.35 386.702H1090.15V395.311H1085.35V386.702Z" fill="white"/>
<path d="M1099.04 386.702H1103.84V395.311H1099.04V386.702Z" fill="white"/>
<path d="M1516.91 334.319H1545.16V255.341H1516.91V334.319Z" fill="white"/>
<path d="M1528.83 285.901V335.625H1525.27L1528.83 285.901Z" fill="#B3B9C3"/>
<path d="M1541.76 255.333V285.901H1538.2L1541.76 255.333Z" fill="#B3B9C3"/>
<path d="M1555.6 273.929H1580.42V168.659H1555.6V273.929Z" fill="white"/>
<path d="M1576.78 148.871H1649.87V146.364H1576.78V148.871Z" fill="white"/>
<path d="M1542.51 285.901H1528.83V343.481H1542.51V285.901Z" fill="#F2F3F5"/>
<path d="M1541.76 334.312H1498.33V437.987H1541.76V334.312Z" fill="#B3B9C3"/>
<path d="M1532.82 361.708H1537.72V352.298H1532.82V361.708Z" fill="white"/>
<path d="M1532.82 376.027H1537.72V366.617H1532.82V376.027Z" fill="white"/>
<path d="M1532.82 347.381H1537.72V337.972H1532.82V347.381Z" fill="white"/>
<path d="M1522.82 347.381H1527.73V337.972H1522.82V347.381Z" fill="white"/>
<path d="M1425.86 255.157H1466.15V437.988H1383.67V270.838H1425.86V255.157Z" fill="white"/>
<path d="M1388.1 335.625H1391.63V330.836H1388.1V335.625Z" fill="#F2F3F5"/>
<path d="M1413.12 314.227H1416.65V309.438H1413.12V314.227Z" fill="#679AB4"/>
<path d="M1458.84 265.152H1456.05V269.22H1458.84V265.152Z" fill="#F2F3F5"/>
<path d="M1436.63 265.152H1433.83V269.22H1436.63V265.152Z" fill="#679AB4"/>
<path d="M1458.84 274.826H1456.05V278.886H1458.84V274.826Z" fill="#F2F3F5"/>
<path d="M1447.73 284.54H1444.94V288.6H1447.73V284.54Z" fill="#F2F3F5"/>
<path d="M1433.1 283.803H1437.36V289.329H1433.1V283.803Z" fill="#F2F3F5"/>
<path d="M1402.38 340.654H1399.58V344.714H1402.38V340.654Z" fill="#F2F3F5"/>
<path d="M1391.27 340.654H1388.47V344.714H1391.27V340.654Z" fill="#F2F3F5"/>
<path d="M1402.38 309.798H1399.58V313.858H1402.38V309.798Z" fill="#F2F3F5"/>
<path d="M1391.27 309.798H1388.47V313.858H1391.27V309.798Z" fill="#F2F3F5"/>
<path d="M1407.57 283.803H1411.83V289.329H1407.57V283.803Z" fill="#F2F3F5"/>
<path d="M1432.77 340.951H1429.97V345.011H1432.77V340.951Z" fill="#F2F3F5"/>
<path d="M1440.61 437.987H1508.78V299.675H1440.61V437.987Z" fill="#F2F3F5"/>
<path d="M1440.62 305.121L1508.78 318.167V299.684H1440.62V305.121Z" fill="white"/>
<path d="M1438.34 303.423H1511.06V299.683H1438.34V303.423Z" fill="#B3B9C3"/>
<path d="M1425.86 267.089H1381.87V270.829H1425.86V267.089Z" fill="#B3B9C3"/>
<path d="M1437.36 255.157H1463.19V242.64L1437.36 245.755V255.157Z" fill="white"/>
<path d="M1437.36 244.874L1463.19 241.767V240.414L1437.36 243.521V244.874Z" fill="white"/>
<path d="M1437.36 249.519H1431.65V255.149H1437.36V249.519Z" fill="#B3B9C3"/>
<path d="M1456.3 349.735L1457.83 356.999L1474.91 437.987H1453.57V355.349L1456.3 349.735Z" fill="#B3B9C3"/>
<path d="M1478.18 432.414H1486.95V415.612H1478.18V432.414Z" fill="white"/>
<path d="M1469.73 415.62H1460.96V432.422H1469.73V415.62Z" fill="#9AA2AF"/>
<path d="M1479.94 403.095H1485.2V394.695H1479.94V403.095Z" fill="white"/>
<path d="M1479.57 374.073H1485.56V383.202H1479.57V374.073Z" fill="white"/>
<path d="M1462.73 403.095H1467.99V394.695H1462.73V403.095Z" fill="white"/>
<path d="M1462.73 382.914H1467.99V374.513H1462.73V382.914Z" fill="white"/>
<path d="M1467.98 334.151H1462.72V342.552H1467.98V334.151Z" fill="#679AB4"/>
<path d="M1479.57 313.602H1485.56V322.732H1479.57V313.602Z" fill="white"/>
<path d="M1462.73 322.363H1467.99V313.963H1462.73V322.363Z" fill="white"/>
<path d="M1462.72 403.095V394.694H1465.78L1467.55 403.095H1462.72Z" fill="#9AA2AF"/>
<path d="M1496.03 432.414H1504.8V415.612H1496.03V432.414Z" fill="white"/>
<path d="M1503.04 394.694H1497.78V403.095H1503.04V394.694Z" fill="#679AB4"/>
<path d="M1497.79 362.733H1503.05V354.332H1497.79V362.733Z" fill="white"/>
<path d="M1479.94 362.733H1485.2V354.332H1479.94V362.733Z" fill="white"/>
<path d="M1462.73 362.733H1467.99V354.332H1462.73V362.733Z" fill="white"/>
<path d="M1497.42 333.783H1503.41V342.897H1497.42V333.783Z" fill="white"/>
<path d="M1227.75 318.872H1202.53V324.029H1227.75V318.872Z" fill="#B3B9C3"/>
<path d="M1215.14 311.832H1196.26V324.037H1215.14V311.832Z" fill="#F2F3F5"/>
<path d="M1112.21 415.644V317.71H1150.76V440.085H1112.21V439.821H1098.99V415.644H1112.21Z" fill="white"/>
<path d="M1136.57 322.875H1130.32V334.856H1136.57V322.875Z" fill="#F2F3F5"/>
<path d="M1123.85 322.875H1117.59V334.856H1123.85V322.875Z" fill="#F2F3F5"/>
<path d="M1130.32 339.805V351.818H1136.57V339.805H1130.32Z" fill="#F2F3F5"/>
<path d="M1123.85 339.805H1117.59V351.786H1123.85V339.805Z" fill="#F2F3F5"/>
<path d="M1117.59 355.605V367.618H1123.86V355.605H1117.59Z" fill="#F2F3F5"/>
<path d="M1130.32 371.406V383.419H1136.57V371.406H1130.32Z" fill="#F2F3F5"/>
<path d="M1117.59 387.214V399.227H1123.86V387.214H1117.59Z" fill="#F2F3F5"/>
<path d="M1130.32 403.015V415.028H1136.57V403.015H1130.32Z" fill="#F2F3F5"/>
<path d="M1130.32 418.815V437.987H1136.57V418.815H1130.32Z" fill="#F2F3F5"/>
<path d="M1117.59 418.815V437.987H1123.86V418.815H1117.59Z" fill="#F2F3F5"/>
<path d="M1105.19 418.815V437.987H1111.45V418.815H1105.19Z" fill="#F2F3F5"/>
<path d="M1140.16 437.996H1203V281.473H1140.16V437.996Z" fill="#F2F3F5"/>
<path d="M1203 281.464H1182.09V437.987H1203V281.464Z" fill="#B3B9C3"/>
<path d="M1184.93 301.589H1198.68V297.769H1184.93V301.589Z" fill="#F2F3F5"/>
<path d="M1184.93 309.27H1198.68V305.45H1184.93V309.27Z" fill="#F2F3F5"/>
<path d="M1158.7 432.414H1165.49V416.661H1158.7V432.414Z" fill="white"/>
<path d="M1145.38 432.414H1152.17V416.661H1145.38V432.414Z" fill="white"/>
<path d="M1160.06 404.929H1164.14V397.057H1160.06V404.929Z" fill="white"/>
<path d="M1159.7 377.701H1164.5V386.302H1159.7V377.701Z" fill="white"/>
<path d="M1146.73 404.929H1150.81V397.057H1146.73V404.929Z" fill="white"/>
<path d="M1150.82 378.133H1146.74V386.005H1150.82V378.133Z" fill="#679AB4"/>
<path d="M1164.14 359.218H1160.06V367.09H1164.14V359.218Z" fill="#679AB4"/>
<path d="M1146.73 367.089H1150.81V359.217H1146.73V367.089Z" fill="white"/>
<path d="M1146.73 348.166H1150.81V340.294H1146.73V348.166Z" fill="white"/>
<path d="M1159.7 321.01H1164.5V329.611H1159.7V321.01Z" fill="white"/>
<path d="M1146.73 329.25H1150.81V321.378H1146.73V329.25Z" fill="white"/>
<path d="M1146.37 303.063H1151.18V311.664H1146.37V303.063Z" fill="white"/>
<path d="M1159.7 285.116H1164.5V293.717H1159.7V285.116Z" fill="white"/>
<path d="M1146.37 285.116H1151.18V293.717H1146.37V285.116Z" fill="white"/>
<path d="M1173.51 358.849H1178.32V367.458H1173.51V358.849Z" fill="white"/>
<path d="M1293.98 324.029H1192.54V437.987H1293.98V324.029Z" fill="#F2F3F5"/>
<path d="M1242.1 330.996H1235.84V342.977H1242.1V330.996Z" fill="white"/>
<path d="M1229.36 330.996H1223.11V342.977H1229.36V330.996Z" fill="white"/>
<path d="M1217.09 330.996H1210.84V342.977H1217.09V330.996Z" fill="white"/>
<path d="M1204.15 330.996H1197.89V342.977H1204.15V330.996Z" fill="white"/>
<path d="M1211.2 347.573H1216.76V358.825H1211.23V347.573H1211.2Z" fill="#B3B9C3"/>
<path d="M1198.26 347.573H1203.78V358.825H1198.26V347.573Z" fill="#B3B9C3"/>
<path d="M1636.47 266.649V439.749H1699.03V266.649H1636.47Z" fill="white"/>
<path d="M1359.16 375.266H1380.72V303.423H1376.96H1359.16V375.266Z" fill="#B3B9C3"/>
<path d="M1635.36 300.997H1618.5V358.577H1635.36V300.997Z" fill="white"/>
<path d="M1673.96 380.487H1650.68V438.067H1673.96V380.487Z" fill="#F2F3F5"/>
<path d="M1653.27 365.496L1662.33 438.068H1646.89L1653.27 365.496Z" fill="#B3B9C3"/>
<path d="M1699.03 326.383V438.068H1690.8L1699.03 326.383Z" fill="#B3B9C3"/>
<path d="M1275.52 344.21H1294.47V263.918H1275.52V344.21Z" fill="white"/>
<path d="M1258.32 292.957V327.008H1281.84V292.957H1258.32Z" fill="white"/>
<path d="M1294.01 250.681V440.654H1359.75V250.681H1294.01Z" fill="white"/>
<path d="M1329.75 363.478H1303.72V369.524H1329.75V363.478Z" fill="#AFDFF2"/>
<path d="M1329.75 352.907H1303.72V358.953H1329.75V352.907Z" fill="#F2F3F5"/>
<path d="M1329.75 342.336H1303.72V348.382H1329.75V342.336Z" fill="#F2F3F5"/>
<path d="M1329.75 331.765H1303.72V337.811H1329.75V331.765Z" fill="#F2F3F5"/>
<path d="M1329.75 321.194H1303.72V327.24H1329.75V321.194Z" fill="#F2F3F5"/>
<path d="M1329.75 310.623H1303.72V316.669H1329.75V310.623Z" fill="#F2F3F5"/>
<path d="M1329.75 300.052H1303.72V306.098H1329.75V300.052Z" fill="#F2F3F5"/>
<path d="M1329.75 289.481H1303.72V295.527H1329.75V289.481Z" fill="#F2F3F5"/>
<path d="M1329.75 278.91H1303.72V284.956H1329.75V278.91Z" fill="#F2F3F5"/>
<path d="M1251.31 417.814H1306.82V311.832H1251.31V417.814Z" fill="#B3B9C3"/>
<path d="M1191.46 293.91H1198.68V290.09H1191.46V293.91Z" fill="#F2F3F5"/>
<path d="M1191.46 316.95H1198.68V313.13H1191.46V316.95Z" fill="#F2F3F5"/>
<path d="M1608.75 413.554V402.639C1608.75 402.494 1608.81 402.356 1608.91 402.254C1609.01 402.152 1609.15 402.094 1609.29 402.094H1615.53C1615.6 402.093 1615.67 402.107 1615.74 402.134C1615.8 402.161 1615.86 402.201 1615.91 402.251C1615.96 402.302 1616 402.363 1616.03 402.429C1616.06 402.496 1616.07 402.567 1616.07 402.639V413.554C1616.07 413.626 1616.06 413.697 1616.03 413.763C1616 413.829 1615.96 413.889 1615.91 413.939C1615.86 413.99 1615.8 414.03 1615.73 414.057C1615.67 414.085 1615.6 414.099 1615.53 414.099H1609.29C1609.15 414.097 1609.01 414.039 1608.91 413.937C1608.81 413.835 1608.75 413.698 1608.75 413.554ZM1614.97 403.191H1609.85V413.002H1614.97V403.191Z" fill="#61C3FF"/>
<path d="M1541.76 219.312L1611.8 198.931V439.021H1541.76V219.312Z" fill="white"/>
<path d="M1582.98 257.047H1577.85V263.942H1582.98V257.047Z" fill="#F2F3F5"/>
<path d="M1558.09 257.047H1552.96V263.942H1558.09V257.047Z" fill="#F2F3F5"/>
<path d="M1582.98 271.382H1577.85V278.277H1582.98V271.382Z" fill="#F2F3F5"/>
<path d="M1558.09 271.382H1552.96V278.277H1558.09V271.382Z" fill="#F2F3F5"/>
<path d="M1570.3 285.717H1565.18V292.612H1570.3V285.717Z" fill="#F2F3F5"/>
<path d="M1558.09 285.717H1552.96V292.612H1558.09V285.717Z" fill="#F2F3F5"/>
<path d="M1582.98 342.352H1577.85V349.247H1582.98V342.352Z" fill="#F2F3F5"/>
<path d="M1558.09 342.352H1552.96V349.247H1558.09V342.352Z" fill="#F2F3F5"/>
<path d="M1570.3 355.35H1565.18V362.245H1570.3V355.35Z" fill="#F2F3F5"/>
<path d="M1558.09 355.35H1552.96V362.245H1558.09V355.35Z" fill="#F2F3F5"/>
<path d="M1570.3 403.191H1565.18V413.002H1570.3V403.191Z" fill="#F2F3F5"/>
<path d="M1558.09 403.191H1552.96V413.002H1558.09V403.191Z" fill="#F2F3F5"/>
<path d="M1582.98 380.191H1577.85V390.01H1582.98V380.191Z" fill="#F2F3F5"/>
<path d="M1462.72 380.208L1463.29 382.914H1462.72V380.208Z" fill="#9AA2AF"/>
<path d="M1231.97 363.758H1208.88V437.996H1231.97V363.758Z" fill="#B3B9C3"/>
<path d="M1208.88 363.758L1185.93 437.988H1208.88V363.758Z" fill="white"/>
<path d="M1207.88 374.481H1229.36V368.307H1207.88V374.481Z" fill="#F2F3F5"/>
<path d="M1207.88 385.077H1229.36V378.902H1207.88V385.077Z" fill="#F2F3F5"/>
<path d="M1207.88 395.719H1229.36V389.545H1207.88V395.719Z" fill="#F2F3F5"/>
<path d="M1280.11 369.564H1276.68V361.5H1278.47L1280.11 369.564Z" fill="#208FF6"/>
<path d="M1368.79 375.266H1369.61V357.007H1368.79V375.266Z" fill="white"/>
<path d="M1363.89 375.266H1364.3V366.497H1363.89V375.266Z" fill="white"/>
<path d="M1374.37 375.266H1334.45V437.995H1374.37V375.266Z" fill="#679AB4"/>
<path d="M1337.72 388.44H1334.45V432.814H1337.72V388.44Z" fill="#6E9FBB"/>
<path d="M1337.72 432.814H1371.78V414.099H1337.72V432.814Z" fill="#F2F3F5"/>
<path d="M1337.72 407.155H1374.37V388.44H1337.72V407.155Z" fill="#F2F3F5"/>
<path d="M1375.06 407.155H1334.45V414.091H1375.06V407.155Z" fill="#679AB4"/>
<path d="M1374.43 383.651H1334.45V388.44H1374.43V383.651Z" fill="#679AB4"/>
<path d="M1374.37 375.266H1334.45V382.017H1374.37V375.266Z" fill="#679AB4"/>
<path d="M1374.43 382.017H1334.45V383.651H1374.43V382.017Z" fill="#6E9FBB"/>
<path d="M1363.33 409.454H1349.1V412.289H1363.33V409.454Z" fill="#F2F3F5"/>
<path d="M1350.08 414.091H1349.1V432.806H1350.08V414.091Z" fill="#679AB4"/>
<path d="M1361.77 414.091H1360.79V432.806H1361.77V414.091Z" fill="#679AB4"/>
<path d="M1338.06 392.965H1341.36V389.465H1338.06V392.965Z" fill="#146BBD"/>
<path d="M1346.6 392.965H1349.9V389.465H1346.6V392.965Z" fill="white"/>
<path d="M1341.92 392.965H1346V389.465H1341.92V392.965Z" fill="white"/>
<path d="M1346.6 402.831H1349.9V393.485H1346.6V402.831Z" fill="white"/>
<path d="M1341.92 402.831H1346V393.485H1341.92V402.831Z" fill="white"/>
<path d="M1346.6 406.139H1349.9V403.36H1346.6V406.139Z" fill="white"/>
<path d="M1341.92 406.139H1346V403.36H1341.92V406.139Z" fill="white"/>
<path d="M1351.76 392.965H1355.06V389.465H1351.76V392.965Z" fill="white"/>
<path d="M1360.32 392.965H1363.61V389.465H1360.32V392.965Z" fill="white"/>
<path d="M1355.64 392.965H1359.72V389.465H1355.64V392.965Z" fill="white"/>
<path d="M1351.76 402.831H1355.06V393.485H1351.76V402.831Z" fill="white"/>
<path d="M1360.32 402.831H1363.61V393.485H1360.32V402.831Z" fill="white"/>
<path d="M1355.64 402.831H1359.72V393.485H1355.64V402.831Z" fill="white"/>
<path d="M1351.76 406.139H1355.06V403.36H1351.76V406.139Z" fill="white"/>
<path d="M1360.32 406.139H1363.61V403.36H1360.32V406.139Z" fill="white"/>
<path d="M1355.64 406.139H1359.72V403.36H1355.64V406.139Z" fill="white"/>
<path d="M1365.74 392.965H1369.04V389.465H1365.74V392.965Z" fill="white"/>
<path d="M1369.61 392.965H1373.7V389.465H1369.61V392.965Z" fill="white"/>
<path d="M1365.74 402.831H1369.04V393.485H1365.74V402.831Z" fill="white"/>
<path d="M1369.61 402.831H1373.7V393.485H1369.61V402.831Z" fill="white"/>
<path d="M1365.74 406.139H1369.04V403.36H1365.74V406.139Z" fill="white"/>
<path d="M1369.61 406.139H1373.7V403.36H1369.61V406.139Z" fill="white"/>
<path d="M1350.8 432.806L1351.95 437.987H1334.45V432.806H1350.8Z" fill="#6E9FBB"/>
<path d="M1335.57 432.838L1335.55 438.02L1335.73 438.02L1335.76 432.839L1335.57 432.838Z" fill="white"/>
<path d="M1337.16 432.838L1337.13 438.02L1337.32 438.02L1337.34 432.839L1337.16 432.838Z" fill="white"/>
<path d="M1338.73 432.839L1338.7 438.02L1338.88 438.021L1338.91 432.84L1338.73 432.839Z" fill="white"/>
<path d="M1340.31 432.839L1340.29 438.02L1340.47 438.021L1340.5 432.84L1340.31 432.839Z" fill="white"/>
<path d="M1341.89 432.839L1341.86 438.02L1342.05 438.021L1342.07 432.84L1341.89 432.839Z" fill="white"/>
<path d="M1340.98 388.44H1334.45V383.651H1339.91L1340.98 388.44Z" fill="#6E9FBB"/>
<path d="M1339.91 383.651H1334.45V382.017H1339.55L1339.91 383.651Z" fill="#F2F3F5"/>
<path d="M1338.05 375.266L1339.55 382.017H1334.45V375.266H1338.05Z" fill="#6E9FBB"/>
<path d="M1345.12 407.155H1337.72V388.44H1340.98L1345.12 407.155Z" fill="white"/>
<path d="M1341.92 402.831V393.485H1342.09L1344.16 402.831H1341.92Z" fill="#F2F3F5"/>
<path d="M1341.92 406.13V403.352H1344.27L1344.89 406.13H1341.92Z" fill="#F2F3F5"/>
<path d="M1338.06 392.965H1341.36V389.465H1338.06V392.965Z" fill="white"/>
<path d="M1338.05 389.465H1341.2L1341.35 390.162V392.964H1338.05V389.465Z" fill="#F2F3F5"/>
<path d="M1338.06 402.831H1341.36V393.485H1338.06V402.831Z" fill="#F2F3F5"/>
<path d="M1338.06 406.139H1341.36V403.36H1338.06V406.139Z" fill="#F2F3F5"/>
<path d="M1350.8 432.806H1337.72V414.091H1346.65L1350.8 432.806Z" fill="white"/>
<path d="M1349.1 425.158L1350.08 429.563V432.806H1349.1V425.158Z" fill="#6E9FBB"/>
<path d="M1346.65 414.091H1334.45V407.155H1345.12L1346.65 414.091Z" fill="#6E9FBB"/>
<path d="M1374.36 436.818H1341.92V437.003H1374.36V436.818Z" fill="white"/>
<path d="M1374.36 435.457H1341.92V435.641H1374.36V435.457Z" fill="white"/>
<path d="M1374.36 434H1341.92V434.184H1374.36V434Z" fill="white"/>
<path d="M1374.36 432.718H1341.92V432.902H1374.36V432.718Z" fill="white"/>
<path d="M1343.23 432.83L1343.21 438.012L1343.4 438.013L1343.42 432.831L1343.23 432.83Z" fill="white"/>
<path d="M1344.82 432.823L1344.79 438.004L1344.98 438.005L1345.01 432.823L1344.82 432.823Z" fill="white"/>
<path d="M1346.4 432.823L1346.37 438.004L1346.56 438.005L1346.59 432.824L1346.4 432.823Z" fill="white"/>
<path d="M1347.96 432.815L1347.94 437.996L1348.13 437.997L1348.16 432.816L1347.96 432.815Z" fill="white"/>
<path d="M1349.47 432.777L1349.45 437.958L1349.64 437.959L1349.67 432.778L1349.47 432.777Z" fill="white"/>
<path d="M1351.13 432.83L1351.11 438.012L1351.3 438.013L1351.33 432.831L1351.13 432.83Z" fill="white"/>
<path d="M1348.98 430.644V435.825H1349.18V430.644H1348.98Z" fill="white"/>
<path d="M1354.21 432.784L1354.19 437.966L1354.38 437.967L1354.41 432.785L1354.21 432.784Z" fill="white"/>
<path d="M1355.86 432.823L1355.83 438.004L1356.03 438.005L1356.05 432.824L1355.86 432.823Z" fill="white"/>
<path d="M1353.68 430.644V435.825H1353.88V430.644H1353.68Z" fill="white"/>
<path d="M1358.94 432.777L1358.91 437.958L1359.1 437.959L1359.13 432.778L1358.94 432.777Z" fill="white"/>
<path d="M1360.6 432.831L1360.57 438.012L1360.77 438.013L1360.79 432.832L1360.6 432.831Z" fill="white"/>
<path d="M1358.41 430.652V435.833H1358.6V430.652H1358.41Z" fill="white"/>
<path d="M1363.68 432.785L1363.65 437.966L1363.84 437.967L1363.87 432.785L1363.68 432.785Z" fill="white"/>
<path d="M1365.32 432.823L1365.3 438.004L1365.49 438.005L1365.52 432.823L1365.32 432.823Z" fill="white"/>
<path d="M1366.91 432.831L1366.88 438.012L1367.08 438.013L1367.1 432.832L1366.91 432.831Z" fill="white"/>
<path d="M1368.49 432.831L1368.46 438.012L1368.65 438.013L1368.68 432.832L1368.49 432.831Z" fill="white"/>
<path d="M1370.06 432.823L1370.04 438.004L1370.23 438.005L1370.26 432.824L1370.06 432.823Z" fill="white"/>
<path d="M1367.83 430.644V435.825H1368.02V430.644H1367.83Z" fill="white"/>
<path d="M1373.22 432.823L1373.19 438.004L1373.39 438.005L1373.41 432.824L1373.22 432.823Z" fill="white"/>
<path d="M1343.24 436.818H1334.45V437.003H1343.24V436.818Z" fill="white"/>
<path d="M1343.24 435.457H1334.45V435.641H1343.24V435.457Z" fill="white"/>
<path d="M1343.24 434H1334.45V434.184H1343.24V434Z" fill="white"/>
<path d="M1343.24 432.718H1334.45V432.902H1343.24V432.718Z" fill="white"/>
<path d="M1334.45 356.999H1276.68V437.987H1334.45V356.999Z" fill="#F2F3F5"/>
<path d="M1336.03 356.999H1276.68V358.817H1336.03V356.999Z" fill="#9AA2AF"/>
<path d="M1276.68 382.394H1293.81V374.329H1276.68V382.394Z" fill="white"/>
<path d="M1276.68 369.564H1293.81V361.5H1276.68V369.564Z" fill="white"/>
<path d="M1276.68 437.987L1293.99 437.883L1277.56 356.999H1276.68V437.987Z" fill="#B3B9C3"/>
<path d="M1280.11 369.564H1276.68V361.5H1278.47L1280.11 369.564Z" fill="#9AA2AF"/>
<path d="M1279.09 358.817H1276.68V356.999H1278.72L1279.09 358.817Z" fill="#818B9B"/>
<path d="M1282.71 382.394H1276.68V374.329H1281.08L1282.71 382.394Z" fill="#9AA2AF"/>
<path d="M1322.06 434.095H1331.13V414.098H1322.06V434.095Z" fill="white"/>
<path d="M1309.81 434.095H1318.88V414.098H1309.81V434.095Z" fill="white"/>
<path d="M1297.36 434.095H1306.44V414.098H1297.36V434.095Z" fill="white"/>
<path d="M1322.55 389.673H1330.64V403.896H1322.55V389.673Z" fill="#9AA2AF"/>
<path d="M1310.3 389.673H1318.38V403.896H1310.3V389.673Z" fill="white"/>
<path d="M1297.85 389.673H1305.94V403.896H1297.85V389.673Z" fill="white"/>
<path d="M1322.55 373.416H1330.64V383.306H1322.55V373.416Z" fill="#9AA2AF"/>
<path d="M1310.3 373.416H1318.38V383.306H1310.3V373.416Z" fill="white"/>
<path d="M1322.55 360.587H1330.64V370.477H1322.55V360.587Z" fill="white"/>
<path d="M1310.3 360.587H1318.38V370.477H1310.3V360.587Z" fill="white"/>
<path d="M1374.37 437.996H1453.57V349.744H1374.37V437.996Z" fill="white"/>
<path d="M1371.66 355.357H1456.3V349.744H1371.66V355.357Z" fill="#F2F3F5"/>
<path d="M1412.3 434.095H1421.37V414.098H1412.3V434.095Z" fill="#F2F3F5"/>
<path d="M1388.13 414.091H1379.06V434.088H1388.13V414.091Z" fill="#F2F3F5"/>
<path d="M1400.38 414.091H1391.31V434.088H1400.38V414.091Z" fill="#F2F3F5"/>
<path d="M1379.55 389.673H1387.64V403.896H1379.55V389.673Z" fill="#B3B9C3"/>
<path d="M1391.8 389.673H1399.88V403.896H1391.8V389.673Z" fill="#B3B9C3"/>
<path d="M1379.55 373.416H1387.64V383.306H1379.55V373.416Z" fill="#F2F3F5"/>
<path d="M1391.8 373.416H1399.88V383.306H1391.8V373.416Z" fill="#B3B9C3"/>
<path d="M1379.55 360.587H1387.64V370.477H1379.55V360.587Z" fill="#F2F3F5"/>
<path d="M1391.8 360.587H1399.88V370.477H1391.8V360.587Z" fill="#F2F3F5"/>
<path d="M1437 434.095H1446.07V414.098H1437V434.095Z" fill="#F2F3F5"/>
<path d="M1424.74 434.095H1433.82V414.098H1424.74V434.095Z" fill="#F2F3F5"/>
<path d="M1437.48 389.673H1445.57V403.896H1437.48V389.673Z" fill="#B3B9C3"/>
<path d="M1425.24 389.673H1433.32V403.896H1425.24V389.673Z" fill="#B3B9C3"/>
<path d="M1437.48 373.416H1445.57V383.306H1437.48V373.416Z" fill="#F2F3F5"/>
<path d="M1425.24 373.416H1433.32V383.306H1425.24V373.416Z" fill="#B3B9C3"/>
<path d="M1437.48 360.587H1445.57V370.477H1437.48V360.587Z" fill="#F2F3F5"/>
<path d="M1425.24 360.587H1433.32V370.477H1425.24V360.587Z" fill="#F2F3F5"/>
<path d="M1404.24 373.128H1419.82V368.643H1404.24V373.128Z" fill="#B3B9C3"/>
<path d="M1276.68 351.786H1229.36V437.987H1276.68V351.786Z" fill="white"/>
<path d="M1261.2 360.587H1269.29V370.477H1261.2V360.587Z" fill="#F2F3F5"/>
<path d="M1248.94 360.587H1257.03V370.477H1248.94V360.587Z" fill="#F2F3F5"/>
<path d="M1236.78 389.673H1244.87V403.896H1236.78V389.673Z" fill="#F2F3F5"/>
<path d="M1236.78 373.416H1244.87V383.306H1236.78V373.416Z" fill="#F2F3F5"/>
<path d="M1262.1 402.983H1268.36V390.586H1262.1V402.983Z" fill="#B3B9C3"/>
<path d="M1262.1 382.394H1268.36V374.329H1262.1V382.394Z" fill="#B3B9C3"/>
<path d="M1260.7 434.095H1269.77V414.098H1260.7V434.095Z" fill="#F2F3F5"/>
<path d="M1248.45 434.095H1257.52V414.098H1248.45V434.095Z" fill="#F2F3F5"/>
<path d="M1236.28 434.095H1245.36V414.098H1236.28V434.095Z" fill="#F2F3F5"/>
<path d="M1300.07 318.039H1293.81V330.019H1300.07V318.039Z" fill="#F2F3F5"/>
<path d="M1293.99 350.2H1300.07V344.21H1293.99V350.2Z" fill="white"/>
<path d="M1287.34 318.039H1281.08V330.019H1287.34V318.039Z" fill="#F2F3F5"/>
<path d="M1653.28 365.496H1603.14V439.021H1653.28V365.496Z" fill="#F2F3F5"/>
<path d="M1643.03 349.247H1603.14V364.03H1643.03V349.247Z" fill="#F2F3F5"/>
<path d="M1643.03 350.208L1603.14 355.021V350.208H1643.03Z" fill="white"/>
<path d="M1655.65 363.566H1600.77V365.496H1655.65V363.566Z" fill="#B3B9C3"/>
<path d="M1643.03 348.278H1600.77V350.208H1643.03V348.278Z" fill="#B3B9C3"/>
<path d="M1619 372.768H1613.88V379.663H1619V372.768Z" fill="white"/>
<path d="M1643.89 372.768H1638.8V379.663H1643.92L1643.89 372.768Z" fill="#679AB4"/>
<path d="M1643.89 385.773H1638.8V392.668H1643.92L1643.89 385.773Z" fill="white"/>
<path d="M1632.27 412.145H1621.58V438.068H1632.27V412.145Z" fill="white"/>
<path d="M1643.89 412.145H1633.19V438.068H1643.88L1643.89 412.145Z" fill="white"/>
<path d="M1698.77 436.856H0V441.777H1698.77V436.856Z" fill="white"/>
<path d="M1440.62 303.423V349.736H1434.34L1440.62 303.423Z" fill="#B3B9C3"/>
<path d="M1425.86 270.837V349.736H1422.72L1425.86 270.837Z" fill="#B3B9C3"/>
<path d="M1405.91 437.987C1406.34 437.802 1406.7 437.496 1406.96 437.106C1407.22 436.716 1407.35 436.26 1407.36 435.793V431.308C1407.36 430.859 1407.23 430.417 1407 430.035L1406.78 429.691V427.785H1409.68V429.635L1409.46 429.979C1409.23 430.361 1409.1 430.802 1409.1 431.252V435.793C1409.09 436.26 1409.22 436.72 1409.47 437.115C1409.72 437.51 1410.08 437.825 1410.5 438.019H1405.93L1405.91 437.987Z" fill="#B3B9C3"/>
<path d="M1409.35 410.567C1411.19 410.567 1412.69 409.072 1412.69 407.227C1412.69 405.383 1411.19 403.888 1409.35 403.888C1407.51 403.888 1406.01 405.383 1406.01 407.227C1406.01 409.072 1407.51 410.567 1409.35 410.567Z" fill="#6E9FBB"/>
<path d="M1404.81 423.629C1407.98 423.629 1410.55 421.058 1410.55 417.887C1410.55 414.715 1407.98 412.145 1404.81 412.145C1401.64 412.145 1399.07 414.715 1399.07 417.887C1399.07 421.058 1401.64 423.629 1404.81 423.629Z" fill="#6E9FBB"/>
<path d="M1405.75 410.495C1407.6 410.495 1409.09 409 1409.09 407.155C1409.09 405.311 1407.6 403.816 1405.75 403.816C1403.91 403.816 1402.42 405.311 1402.42 407.155C1402.42 409 1403.91 410.495 1405.75 410.495Z" fill="#679AB4"/>
<path d="M1413.19 420.425C1415.04 420.425 1416.53 418.93 1416.53 417.086C1416.53 415.241 1415.04 413.746 1413.19 413.746C1411.35 413.746 1409.86 415.241 1409.86 417.086C1409.86 418.93 1411.35 420.425 1413.19 420.425Z" fill="#679AB4"/>
<path d="M1412.69 430.908C1414.53 430.908 1416.03 429.413 1416.03 427.568C1416.03 425.724 1414.53 424.229 1412.69 424.229C1410.85 424.229 1409.35 425.724 1409.35 427.568C1409.35 429.413 1410.85 430.908 1412.69 430.908Z" fill="#679AB4"/>
<path d="M1408.31 430.195C1412.85 430.195 1416.53 426.513 1416.53 421.971C1416.53 417.428 1412.85 413.746 1408.31 413.746C1403.77 413.746 1400.08 417.428 1400.08 421.971C1400.08 426.513 1403.77 430.195 1408.31 430.195Z" fill="#679AB4"/>
<path d="M1408.31 419.208C1411.79 419.208 1414.6 416.39 1414.6 412.913C1414.6 409.437 1411.79 406.619 1408.31 406.619C1404.83 406.619 1402.02 409.437 1402.02 412.913C1402.02 416.39 1404.83 419.208 1408.31 419.208Z" fill="#679AB4"/>
<path d="M1568.42 437.154C1569.96 437.154 1571.21 435.907 1571.21 434.367C1571.21 432.828 1569.96 431.581 1568.42 431.581C1566.88 431.581 1565.63 432.828 1565.63 434.367C1565.63 435.907 1566.88 437.154 1568.42 437.154Z" fill="#6E9FBB"/>
<path d="M1552.17 435.361C1553.71 435.361 1554.96 434.113 1554.96 432.574C1554.96 431.035 1553.71 429.787 1552.17 429.787C1550.63 429.787 1549.38 431.035 1549.38 432.574C1549.38 434.113 1550.63 435.361 1552.17 435.361Z" fill="#679AB4"/>
<path d="M1560.28 437.747C1562.92 437.747 1565.07 435.6 1565.07 432.95C1565.07 430.301 1562.92 428.153 1560.28 428.153C1557.63 428.153 1555.48 430.301 1555.48 432.95C1555.48 435.6 1557.63 437.747 1560.28 437.747Z" fill="#6E9FBB"/>
<path d="M1550.45 433.527C1550.93 432.25 1551.78 431.142 1552.88 430.339C1553.99 429.537 1555.3 429.075 1556.66 429.01C1557.65 428.98 1558.64 429.165 1559.55 429.552C1560.46 429.939 1561.28 430.519 1561.94 431.252C1562.7 430.833 1563.56 430.615 1564.43 430.62C1565.71 430.621 1566.94 431.086 1567.9 431.929C1568.86 432.772 1569.47 433.935 1569.64 435.2C1570.37 435.213 1571.06 435.512 1571.58 436.033C1572.09 436.555 1572.38 437.256 1572.38 437.987H1549.91C1550.01 437.836 1550.12 437.693 1550.25 437.563C1549.88 436.231 1549.95 434.816 1550.45 433.527Z" fill="#679AB4"/>
<path d="M1521.68 414.019C1521.68 413.322 1521.89 412.642 1522.3 412.076C1522.7 411.509 1523.28 411.083 1523.94 410.858C1524.6 410.633 1525.31 410.619 1525.98 410.82C1526.64 411.021 1527.23 411.425 1527.66 411.977H1528.16C1529.43 411.978 1530.66 412.398 1531.66 413.17C1532.66 413.941 1533.38 415.023 1533.7 416.245C1534.17 416.124 1534.66 416.108 1535.14 416.197C1535.62 416.285 1536.07 416.477 1536.46 416.759C1536.86 417.04 1537.18 417.405 1537.42 417.826C1537.66 418.248 1537.81 418.717 1537.84 419.2C1538.69 419.484 1539.45 419.959 1540.08 420.589C1540.7 421.218 1541.18 421.985 1541.46 422.828C1542.35 422.653 1543.27 422.733 1544.11 423.059C1544.96 423.385 1545.7 423.944 1546.24 424.671C1546.78 425.398 1547.1 426.263 1547.18 427.167C1547.25 428.071 1547.06 428.977 1546.64 429.779C1546.63 431.006 1546.19 432.19 1545.39 433.12C1544.59 434.049 1543.48 434.662 1542.27 434.849C1541.05 435.036 1539.81 434.785 1538.77 434.141C1537.73 433.496 1536.95 432.501 1536.57 431.333C1536.57 430.994 1536.62 430.656 1536.72 430.332C1536.47 430.367 1536.22 430.386 1535.98 430.388C1534.46 430.388 1532.99 429.783 1531.92 428.706C1530.84 427.629 1530.24 426.169 1530.24 424.646C1530.23 424.07 1530.32 423.498 1530.49 422.948C1529.62 423.349 1528.66 423.523 1527.7 423.455C1526.74 423.386 1525.81 423.077 1525 422.556C1524.2 422.035 1523.53 421.318 1523.07 420.473C1522.61 419.628 1522.38 418.68 1522.38 417.719C1522.39 417.254 1522.44 416.792 1522.56 416.341C1521.97 415.71 1521.66 414.877 1521.68 414.019Z" fill="#6E9FBB"/>
<path d="M1587.26 437.987C1587.68 437.794 1588.04 437.48 1588.29 437.085C1588.54 436.689 1588.67 436.229 1588.67 435.761V431.276C1588.66 430.826 1588.54 430.384 1588.3 430.003L1588.08 429.659V427.785H1590.98V429.635L1590.76 429.979C1590.53 430.362 1590.4 430.803 1590.4 431.252V435.793C1590.39 436.26 1590.52 436.72 1590.77 437.115C1591.02 437.51 1591.38 437.825 1591.8 438.019H1587.24L1587.26 437.987Z" fill="#B3B9C3"/>
<path d="M1590.69 410.567C1592.54 410.567 1594.03 409.072 1594.03 407.227C1594.03 405.383 1592.54 403.888 1590.69 403.888C1588.85 403.888 1587.35 405.383 1587.35 407.227C1587.35 409.072 1588.85 410.567 1590.69 410.567Z" fill="#B3B9C3"/>
<path d="M1586.16 423.629C1589.33 423.629 1591.9 421.058 1591.9 417.887C1591.9 414.715 1589.33 412.145 1586.16 412.145C1582.99 412.145 1580.42 414.715 1580.42 417.887C1580.42 421.058 1582.99 423.629 1586.16 423.629Z" fill="#B3B9C3"/>
<path d="M1587.1 410.495C1588.94 410.495 1590.44 409 1590.44 407.155C1590.44 405.311 1588.94 403.816 1587.1 403.816C1585.25 403.816 1583.76 405.311 1583.76 407.155C1583.76 409 1585.25 410.495 1587.1 410.495Z" fill="#F2F3F5"/>
<path d="M1594.54 420.425C1596.38 420.425 1597.87 418.93 1597.87 417.086C1597.87 415.241 1596.38 413.746 1594.54 413.746C1592.69 413.746 1591.2 415.241 1591.2 417.086C1591.2 418.93 1592.69 420.425 1594.54 420.425Z" fill="#F2F3F5"/>
<path d="M1594.03 430.908C1595.88 430.908 1597.37 429.413 1597.37 427.568C1597.37 425.724 1595.88 424.229 1594.03 424.229C1592.19 424.229 1590.69 425.724 1590.69 427.568C1590.69 429.413 1592.19 430.908 1594.03 430.908Z" fill="#F2F3F5"/>
<path d="M1589.65 430.195C1594.19 430.195 1597.87 426.513 1597.87 421.971C1597.87 417.428 1594.19 413.746 1589.65 413.746C1585.11 413.746 1581.43 417.428 1581.43 421.971C1581.43 426.513 1585.11 430.195 1589.65 430.195Z" fill="#F2F3F5"/>
<path d="M1589.65 419.208C1593.13 419.208 1595.94 416.39 1595.94 412.913C1595.94 409.437 1593.13 406.619 1589.65 406.619C1586.17 406.619 1583.36 409.437 1583.36 412.913C1583.36 416.39 1586.17 419.208 1589.65 419.208Z" fill="#F2F3F5"/>
<path d="M1607.15 426.952C1608.46 426.952 1609.53 425.887 1609.53 424.574C1609.53 423.26 1608.46 422.195 1607.15 422.195C1605.83 422.195 1604.77 423.26 1604.77 424.574C1604.77 425.887 1605.83 426.952 1607.15 426.952Z" fill="#679AB4"/>
<path d="M1610.88 425.782C1612.68 425.782 1614.14 424.323 1614.14 422.523C1614.14 420.723 1612.68 419.264 1610.88 419.264C1609.08 419.264 1607.62 420.723 1607.62 422.523C1607.62 424.323 1609.08 425.782 1610.88 425.782Z" fill="#679AB4"/>
<path d="M1607.48 437.987C1607.87 437.81 1608.2 437.524 1608.42 437.164C1608.65 436.804 1608.77 436.386 1608.76 435.961V423.148C1608.76 422.739 1608.64 422.338 1608.42 421.995L1608.23 421.682V420H1610.86V421.682L1610.67 421.995C1610.45 422.34 1610.34 422.739 1610.34 423.148V435.961C1610.33 436.386 1610.44 436.804 1610.67 437.164C1610.9 437.524 1611.22 437.81 1611.61 437.987H1607.46H1607.48Z" fill="#B3B9C3"/>
<path d="M1614.44 402.606C1616.11 402.606 1617.47 401.248 1617.47 399.571C1617.47 397.895 1616.11 396.536 1614.44 396.536C1612.76 396.536 1611.4 397.895 1611.4 399.571C1611.4 401.248 1612.76 402.606 1614.44 402.606Z" fill="#6E9FBB"/>
<path d="M1606.49 416.229C1609.37 416.229 1611.71 413.894 1611.71 411.015C1611.71 408.136 1609.37 405.802 1606.49 405.802C1603.61 405.802 1601.28 408.136 1601.28 411.015C1601.28 413.894 1603.61 416.229 1606.49 416.229Z" fill="#6E9FBB"/>
<path d="M1608 394.719C1610.37 394.719 1612.3 392.793 1612.3 390.418C1612.3 388.043 1610.37 386.118 1608 386.118C1605.62 386.118 1603.7 388.043 1603.7 390.418C1603.7 392.793 1605.62 394.719 1608 394.719Z" fill="#6E9FBB"/>
<path d="M1607.1 398.587C1609.17 398.587 1610.86 396.905 1610.86 394.831C1610.86 392.756 1609.17 391.075 1607.1 391.075C1605.03 391.075 1603.34 392.756 1603.34 394.831C1603.34 396.905 1605.03 398.587 1607.1 398.587Z" fill="#679AB4"/>
<path d="M1607.19 389.073C1608.57 389.073 1609.69 387.951 1609.69 386.566C1609.69 385.182 1608.57 384.06 1607.19 384.06C1605.8 384.06 1604.68 385.182 1604.68 386.566C1604.68 387.951 1605.8 389.073 1607.19 389.073Z" fill="#679AB4"/>
<path d="M1612.67 385.084C1613.65 385.084 1614.44 384.295 1614.44 383.322C1614.44 382.349 1613.65 381.561 1612.67 381.561C1611.7 381.561 1610.91 382.349 1610.91 383.322C1610.91 384.295 1611.7 385.084 1612.67 385.084Z" fill="#679AB4"/>
<path d="M1610.31 386.566C1611.7 386.566 1612.82 385.444 1612.82 384.059C1612.82 382.675 1611.7 381.553 1610.31 381.553C1608.93 381.553 1607.81 382.675 1607.81 384.059C1607.81 385.444 1608.93 386.566 1610.31 386.566Z" fill="#679AB4"/>
<path d="M1614.12 397.337C1615.5 397.337 1616.62 396.215 1616.62 394.83C1616.62 393.446 1615.5 392.324 1614.12 392.324C1612.73 392.324 1611.61 393.446 1611.61 394.83C1611.61 396.215 1612.73 397.337 1614.12 397.337Z" fill="#679AB4"/>
<path d="M1614.81 410.463C1616.59 410.463 1618.02 409.025 1618.02 407.251C1618.02 405.478 1616.59 404.04 1614.81 404.04C1613.04 404.04 1611.6 405.478 1611.6 407.251C1611.6 409.025 1613.04 410.463 1614.81 410.463Z" fill="#679AB4"/>
<path d="M1602.69 419.44C1604.46 419.44 1605.9 418.003 1605.9 416.229C1605.9 414.455 1604.46 413.018 1602.69 413.018C1600.91 413.018 1599.48 414.455 1599.48 416.229C1599.48 418.003 1600.91 419.44 1602.69 419.44Z" fill="#679AB4"/>
<path d="M1604.41 423.228C1606.18 423.228 1607.62 421.79 1607.62 420.017C1607.62 418.243 1606.18 416.805 1604.41 416.805C1602.64 416.805 1601.2 418.243 1601.2 420.017C1601.2 421.79 1602.64 423.228 1604.41 423.228Z" fill="#679AB4"/>
<path d="M1606.49 424.253C1608.27 424.253 1609.7 422.815 1609.7 421.042C1609.7 419.268 1608.27 417.831 1606.49 417.831C1604.72 417.831 1603.28 419.268 1603.28 421.042C1603.28 422.815 1604.72 424.253 1606.49 424.253Z" fill="#679AB4"/>
<path d="M1611.71 398.907C1613.09 398.907 1614.21 397.785 1614.21 396.4C1614.21 395.016 1613.09 393.894 1611.71 393.894C1610.32 393.894 1609.2 395.016 1609.2 396.4C1609.2 397.785 1610.32 398.907 1611.71 398.907Z" fill="#679AB4"/>
<path d="M1610.73 396.344C1612.11 396.344 1613.23 395.222 1613.23 393.838C1613.23 392.453 1612.11 391.331 1610.73 391.331C1609.34 391.331 1608.22 392.453 1608.22 393.838C1608.22 395.222 1609.34 396.344 1610.73 396.344Z" fill="#679AB4"/>
<path d="M1614.1 413.322C1615.78 413.322 1617.14 411.963 1617.14 410.287C1617.14 408.61 1615.78 407.251 1614.1 407.251C1612.42 407.251 1611.06 408.61 1611.06 410.287C1611.06 411.963 1612.42 413.322 1614.1 413.322Z" fill="#6E9FBB"/>
<path d="M1613.64 422.835C1615.32 422.835 1616.68 421.477 1616.68 419.8C1616.68 418.124 1615.32 416.765 1613.64 416.765C1611.97 416.765 1610.61 418.124 1610.61 419.8C1610.61 421.477 1611.97 422.835 1613.64 422.835Z" fill="#679AB4"/>
<path d="M1609.67 422.195C1613.8 422.195 1617.14 418.85 1617.14 414.723C1617.14 410.597 1613.8 407.251 1609.67 407.251C1605.54 407.251 1602.2 410.597 1602.2 414.723C1602.2 418.85 1605.54 422.195 1609.67 422.195Z" fill="#679AB4"/>
<path d="M1607.62 411.552C1612.01 411.552 1615.57 407.992 1615.57 403.6C1615.57 399.208 1612.01 395.647 1607.62 395.647C1603.23 395.647 1599.67 399.208 1599.67 403.6C1599.67 407.992 1603.23 411.552 1607.62 411.552Z" fill="#679AB4"/>
<path d="M1611.91 393.966C1614.51 393.966 1616.61 391.857 1616.61 389.257C1616.61 386.656 1614.51 384.548 1611.91 384.548C1609.31 384.548 1607.2 386.656 1607.2 389.257C1607.2 391.857 1609.31 393.966 1611.91 393.966Z" fill="#679AB4"/>
<path d="M1611.8 196.152V198.931L1538.52 220.257V217.478L1546.38 215.188L1611.8 196.152Z" fill="#B3B9C3"/>
<path d="M1294.02 263.918V311.832H1283.59L1294.02 263.918Z" fill="#F2F3F5"/>
<path d="M1281.84 292.957V311.832H1285.33L1281.84 292.957Z" fill="#B3B9C3"/>
<path d="M1580.41 168.659V205.289L1571.59 208.204L1580.41 168.659Z" fill="#B3B9C3"/>
<path d="M1636.48 266.649V348.278H1621.73L1646.24 148.871V266.649H1636.48Z" fill="#B3B9C3"/>
<path d="M1466.15 280.632V299.684H1468.91L1466.15 280.632Z" fill="#B3B9C3"/>
<path d="M1511.47 403.079C1512.15 402.777 1512.93 402.749 1513.63 402.999C1514.34 403.249 1514.92 403.758 1515.27 404.424C1515.59 404.25 1515.94 404.162 1516.31 404.168C1516.67 404.175 1517.02 404.275 1517.33 404.461C1517.65 404.646 1517.9 404.909 1518.08 405.224C1518.26 405.54 1518.35 405.896 1518.35 406.258C1518.36 406.349 1518.36 406.44 1518.35 406.531C1519.79 406.894 1521.09 407.642 1522.13 408.693C1522.38 408.58 1522.66 408.52 1522.93 408.517C1523.37 408.514 1523.8 408.651 1524.16 408.907C1524.51 409.163 1524.78 409.525 1524.92 409.942C1525.06 410.358 1525.06 410.808 1524.93 411.227C1524.8 411.645 1524.54 412.011 1524.18 412.273C1524.18 412.377 1524.24 412.481 1524.26 412.585C1524.46 412.715 1524.65 412.857 1524.83 413.009C1525.24 412.811 1525.69 412.7 1526.15 412.683C1526.61 412.666 1527.07 412.743 1527.49 412.91C1527.92 413.076 1528.31 413.329 1528.63 413.652C1528.96 413.975 1529.21 414.361 1529.38 414.787C1529.87 414.383 1530.46 414.126 1531.09 414.046C1531.72 413.966 1532.36 414.067 1532.93 414.337C1533.5 414.606 1533.99 415.033 1534.33 415.568C1534.67 416.103 1534.85 416.724 1534.85 417.358C1534.85 417.851 1534.74 418.338 1534.53 418.783H1534.81C1535.7 418.785 1536.55 419.139 1537.17 419.767C1537.8 420.394 1538.15 421.244 1538.15 422.131C1538.15 422.799 1537.95 423.453 1537.57 424.005C1537.67 424.238 1537.75 424.476 1537.82 424.717C1539.29 424.787 1540.68 425.421 1541.7 426.487C1542.72 427.553 1543.29 428.969 1543.29 430.443C1543.29 430.814 1543.26 431.185 1543.19 431.549C1543.48 431.401 1543.8 431.324 1544.12 431.324C1544.53 431.323 1544.93 431.441 1545.27 431.665C1545.61 431.889 1545.88 432.207 1546.04 432.582C1546.26 432.536 1546.48 432.514 1546.71 432.518C1547.4 432.517 1548.08 432.732 1548.64 433.134C1549.02 432.775 1549.53 432.575 1550.05 432.574C1550.6 432.574 1551.14 432.794 1551.53 433.186C1551.92 433.578 1552.14 434.11 1552.14 434.664C1553.01 434.685 1553.84 435.046 1554.45 435.67C1555.06 436.294 1555.4 437.131 1555.4 438.003H1508.79V401.726C1509.31 401.725 1509.82 401.848 1510.29 402.083C1510.75 402.318 1511.16 402.659 1511.47 403.079Z" fill="#679AB4"/>
<path d="M1192.54 416.597V437.987H1185.93L1192.54 416.597Z" fill="#B3B9C3"/>
<path d="M1140.15 281.464L1135.48 317.71L1140.15 317.934V281.464Z" fill="#B3B9C3"/>
<path d="M1098.99 415.917L1094.63 437.988H1098.99V415.917Z" fill="#F2F3F5"/>
<path d="M1112.21 381.224L1107.85 415.644H1112.21V381.224Z" fill="#F2F3F5"/>
<path d="M1046.73 345.739L1041.22 381.216L1046.73 381.224V345.739Z" fill="#B3B9C3"/>
<path d="M1112.19 333.294L1110.45 381.216L1112.19 381.224V333.294Z" fill="#B3B9C3"/>
<path d="M1383.67 270.837L1376.96 303.423H1380.72V350.4H1383.67V270.837Z" fill="#F2F3F5"/>
<path d="M1028.44 428.514C1024.01 413.538 1043.12 404.609 1053.96 415.54C1060.37 422.011 1028.88 416.974 1034.86 435.561C1036.4 440.39 1029.12 430.804 1028.44 428.514Z" fill="#D1D5DB"/>
<path d="M1031.38 433.03C1031.38 433.03 1028.28 403.84 1011.36 399.924C1003.18 398.034 998.291 402.07 1002.51 410.03C1005.59 415.844 1014.81 417.398 1017.02 422.9" fill="white"/>
<path d="M1031.38 433.03C1031.38 433.03 1028.28 403.84 1011.36 399.924C1003.18 398.034 998.291 402.07 1002.51 410.03C1005.59 415.844 1014.81 417.398 1017.02 422.9" stroke="#676F7C" stroke-width="0.312364" stroke-linecap="round" stroke-linejoin="round"/>
<path d="M1023.97 423.781C1023.97 423.781 1015.68 408.509 1008.94 404.561" stroke="#B3B9C3" stroke-width="0.312364" stroke-linecap="round" stroke-linejoin="round"/>
<path d="M1032.69 432.838L1035.89 436.842H1023.65C1023.65 436.842 1017.24 426.92 1010.98 428.946C1004.73 430.972 1005.17 423.541 1005.17 423.541L1018.14 420.962L1027.24 426.744L1032.69 432.838Z" fill="#A8C5D6"/>
<path d="M1012.28 416.197C1022.47 419.56 1030.48 427.865 1036.51 436.874H1035.23C1035.23 436.874 1017.28 412.849 1010.01 431.084C1003.42 447.622 995.84 446.212 992.22 443.898C982.37 437.611 985.397 407.3 1012.28 416.197Z" fill="#679AB4"/>
<path d="M1548.42 62.7651C1562.39 62.7651 1573.71 51.4387 1573.71 37.4668C1573.71 23.4949 1562.39 12.1685 1548.42 12.1685C1534.44 12.1685 1523.12 23.4949 1523.12 37.4668C1523.12 51.4387 1534.44 62.7651 1548.42 62.7651Z" fill="#F47B20"/>
<path d="M1470.73 57.4471C1470.32 55.5473 1470.11 53.6091 1470.11 51.6651C1470.1 45.3235 1472.32 39.1793 1476.37 34.3041C1480.43 29.4289 1486.06 26.1319 1492.3 24.9881C1498.54 23.8442 1504.98 24.9262 1510.5 28.0452C1516.02 31.1642 1520.28 36.1224 1522.52 42.0551C1527.46 40.8095 1532.68 41.485 1537.14 43.9453C1541.6 46.4055 1544.96 50.467 1546.54 55.3089C1548.48 54.7374 1550.54 54.6744 1552.52 55.1259C1554.49 55.5775 1556.32 56.5284 1557.82 57.8876C1559.19 55.7309 1561.14 54.0072 1563.46 52.9166C1565.77 51.826 1568.34 51.4131 1570.88 51.7258C1573.41 52.0385 1575.81 53.064 1577.79 54.6833C1579.77 56.3026 1581.24 58.4494 1582.05 60.8747C1583.45 60.0183 1585.05 59.5638 1586.69 59.5613C1591.59 59.5613 1595.57 61.7877 1595.57 66.6968C1595.57 67.1132 1612.99 69.2755 1612.94 69.6759H1437.56C1437.51 69.2755 1460.19 66.2403 1460.19 65.8239C1460.21 59.9297 1464.88 57.7274 1470.73 57.4471Z" fill="white"/>
<path d="M938.516 216.754C939.598 212.539 939.003 208.067 936.857 204.281C934.71 200.495 931.18 197.688 927.007 196.451C922.834 195.213 918.344 195.642 914.48 197.647C910.617 199.652 907.681 203.076 906.291 207.2C903.216 206.42 899.96 206.837 897.181 208.367C894.402 209.897 892.308 212.426 891.323 215.441C890.114 215.086 888.835 215.047 887.607 215.327C886.378 215.608 885.243 216.198 884.308 217.043C883.455 215.7 882.239 214.626 880.8 213.946C879.362 213.267 877.76 213.009 876.181 213.204C874.601 213.398 873.11 214.037 871.879 215.045C870.649 216.054 869.729 217.391 869.228 218.901C868.361 218.37 867.362 218.093 866.345 218.1C863.286 218.1 860.811 219.485 860.811 222.536C860.811 222.801 849.968 224.138 850 224.394H959.154C959.154 224.138 945.067 222.256 945.067 221.992C945.067 218.3 942.16 216.931 938.516 216.754Z" fill="white"/>
<path d="M1090.68 107.388C1091.34 104.345 1090.83 101.164 1089.24 98.4839C1087.66 95.8035 1085.12 93.8218 1082.13 92.9368C1079.15 92.0518 1075.94 92.3289 1073.15 93.7126C1070.36 95.0962 1068.19 97.4839 1067.09 100.396C1064.84 99.8253 1062.46 100.131 1060.42 101.253C1058.39 102.374 1056.86 104.227 1056.14 106.435C1055.65 106.289 1055.14 106.216 1054.63 106.218C1053.29 106.218 1052 106.714 1051.01 107.612C1050.38 106.631 1049.49 105.849 1048.44 105.355C1047.38 104.86 1046.21 104.674 1045.05 104.818C1043.9 104.962 1042.81 105.431 1041.91 106.169C1041.01 106.907 1040.33 107.885 1039.97 108.989C1039.34 108.593 1038.61 108.385 1037.86 108.389C1035.63 108.389 1033.82 109.398 1033.82 111.592C1033.82 111.784 1025.88 112.769 1025.9 112.953H1105.78C1105.78 112.769 1095.46 111.352 1095.46 111.2C1095.46 108.541 1093.34 107.532 1090.68 107.388Z" fill="white"/>
<path d="M1359.03 130.323C1359.25 129.343 1359.36 128.341 1359.36 127.336C1359.36 124.06 1358.21 120.888 1356.11 118.372C1354.01 115.857 1351.1 114.156 1347.87 113.568C1344.65 112.979 1341.32 113.539 1338.47 115.151C1335.62 116.762 1333.42 119.323 1332.26 122.387C1329.7 121.731 1326.99 122.074 1324.67 123.346C1322.36 124.617 1320.61 126.722 1319.79 129.234C1319.23 129.076 1318.65 128.995 1318.07 128.994C1316.55 129.001 1315.09 129.572 1313.97 130.596C1313.26 129.48 1312.24 128.589 1311.05 128.025C1309.85 127.461 1308.52 127.247 1307.21 127.409C1305.9 127.571 1304.66 128.101 1303.64 128.939C1302.61 129.776 1301.85 130.887 1301.43 132.141C1300.71 131.693 1299.88 131.457 1299.03 131.46C1296.49 131.46 1294.44 132.614 1294.44 135.144C1294.44 135.369 1285.42 136.482 1285.46 136.69H1376.16C1376.16 136.482 1364.46 134.912 1364.46 134.696C1364.46 131.605 1362.05 130.467 1359.03 130.323Z" fill="white"/>
<path d="M1092.46 45.0342H1101.22C1103.83 45.0342 1105.94 42.9224 1105.94 40.3173V39.7247C1105.94 37.1196 1103.83 35.0078 1101.22 35.0078H1092.46C1089.86 35.0078 1087.74 37.1196 1087.74 39.7247V40.3173C1087.74 42.9224 1089.86 45.0342 1092.46 45.0342Z" fill="#9AA2AF"/>
<path d="M1101.84 44.5599C1104.33 44.2024 1106.05 41.8968 1105.7 39.4102C1105.34 36.9236 1103.03 35.1975 1100.55 35.5549C1098.06 35.9124 1096.33 38.218 1096.69 40.7046C1097.05 43.1913 1099.35 44.9173 1101.84 44.5599Z" fill="white"/>
<path d="M1097.68 40.0211C1097.68 40.9514 1098.05 41.8436 1098.71 42.5014C1099.37 43.1592 1100.26 43.5288 1101.19 43.5288H1101.37C1102.27 43.4857 1103.12 43.0978 1103.74 42.4455C1104.36 41.7931 1104.71 40.9264 1104.71 40.0251C1104.71 39.1239 1104.36 38.2572 1103.74 37.6048C1103.12 36.9525 1102.27 36.5645 1101.37 36.5215H1101.19C1100.26 36.5215 1099.37 36.8899 1098.71 37.546C1098.05 38.2021 1097.68 39.0922 1097.68 40.0211Z" fill="#9AA2AF"/>
<path d="M1021.58 22.3147C1022.52 26.6312 1027.54 30.8356 1033.54 34.0469C1040.18 37.6187 1048.04 39.9971 1052.85 39.9971H1116.36C1127.57 39.9971 1133.02 36.049 1134.14 33.7026C1134.27 33.4559 1134.34 33.1818 1134.35 32.9018C1134.35 32.173 1133.48 30.235 1131.38 28.6173C1130.8 27.8165 1129.84 27.2399 1129.24 26.2148C1127.22 22.8113 1120.18 19.8081 1111.87 19.8081H1023.69C1023.37 19.8067 1023.06 19.8741 1022.78 20.0054C1022.5 20.1367 1022.25 20.3287 1022.04 20.5679C1021.84 20.8071 1021.7 21.0876 1021.62 21.3895C1021.54 21.6913 1021.52 22.0072 1021.58 22.3147Z" fill="white"/>
<path d="M1021.56 22.3389C1021.83 23.4506 1022.31 24.5035 1022.96 25.4461C1023.65 26.507 1024.45 27.4874 1025.36 28.3691C1026.7 29.638 1028.15 30.7851 1029.69 31.7967C1030.89 32.5975 1032.17 33.3583 1033.5 34.0711C1040.15 37.6428 1048.01 40.0213 1052.82 40.0213H1116.33C1127.55 40.0213 1134.9 36.4175 1134.34 32.8858C1130.4 33.8487 1126.25 33.2366 1122.76 31.1801C1118.39 28.6655 1117.43 22.3709 1101.13 22.3709L1021.56 22.3389Z" fill="#F2F3F5"/>
<path d="M1023.17 0.379883H1024.56C1025.22 0.381058 1025.88 0.580386 1026.43 0.952547C1026.98 1.32471 1027.41 1.85291 1027.67 2.47006L1034.72 19.7761H1025.11V4.47214C1025.11 3.79 1024.93 3.12009 1024.58 2.53256C1024.24 1.94504 1023.74 1.46153 1023.14 1.13267L1023.17 0.379883Z" fill="white"/>
<path d="M1021.81 0.379886H1023.23C1023.9 0.378921 1024.55 0.577392 1025.1 0.949824C1025.66 1.32226 1026.09 1.85165 1026.34 2.47006L1033.37 19.7761H1023.76V4.47214C1023.76 3.78937 1023.57 3.11925 1023.23 2.5318C1022.88 1.94435 1022.38 1.46114 1021.78 1.13267L1021.81 0.379886Z" fill="#679AB4"/>
<path d="M1034.33 25.4458L1009.36 25.4458C1009.11 25.4458 1008.87 25.3471 1008.7 25.1714C1008.52 24.9956 1008.42 24.7573 1008.42 24.5088V24.4528L1034.33 24.4528V25.4458Z" fill="#679AB4"/>
<path d="M1119.86 26.2227C1119.86 26.8598 1120.11 27.4709 1120.56 27.9215C1121.01 28.372 1121.62 28.6252 1122.26 28.6252H1131.45C1130.8 27.7667 1130.08 26.9631 1129.31 26.2227H1119.86Z" fill="#9AA2AF"/>
<path d="M1127.92 25.4178L1127.48 25.7744L1131.03 30.0753L1131.46 29.7187L1127.92 25.4178Z" fill="white"/>
<path d="M1124.02 25.6381L1123.49 25.8022L1124.74 29.9141L1125.28 29.75L1124.02 25.6381Z" fill="white"/>
<path d="M1121.54 25.6387L1120.99 25.7686L1121.97 29.882L1122.52 29.7522L1121.54 25.6387Z" fill="white"/>
<path d="M1034.33 24.4528C1034.33 24.4528 1030.32 23.708 1021.58 23.708L1008.4 24.4528H1034.33Z" fill="white"/>
<path d="M1130.67 27.7202H1124.02L1122.2 28.6011L1131.67 28.8334L1130.67 27.7202Z" fill="white"/>
<path d="M1029.72 31.7965C1030.52 32.3651 1031.45 32.9016 1032.36 33.3982C1032.74 33.6224 1033.14 33.8386 1033.54 34.0468C1040.18 37.6185 1048.04 39.997 1052.85 39.997H1111.9C1111.9 39.997 1111.68 31.7725 1087.53 31.7725L1029.72 31.7965Z" fill="#679AB4"/>
<path d="M1032.36 33.4224C1032.74 33.6466 1033.14 33.8628 1033.54 34.071C1040.18 37.6428 1048.04 40.0212 1052.85 40.0212H1108.71C1108.71 40.0212 1108.5 33.4224 1085.29 33.4224H1032.36Z" fill="#F2F3F5"/>
<path d="M1023.76 26.5674V26.6234C1023.76 26.6234 1023.76 26.6715 1023.81 26.6875C1023.96 26.8637 1024.1 27.0479 1024.26 27.2241L1024.37 27.3362C1024.69 27.6966 1025.03 28.0569 1025.4 28.4093L1025.5 28.4974C1025.69 28.6816 1025.87 28.8578 1026.07 29.0339C1026.26 29.2101 1026.47 29.3863 1026.67 29.5545L1026.74 29.6105C1026.95 29.7947 1027.18 29.9709 1027.39 30.1471H1027.44C1027.66 30.3233 1027.89 30.4915 1028.12 30.6676L1028.85 31.2042C1030.32 32.2218 1031.84 33.1524 1033.42 33.9911C1040.07 37.5628 1047.93 39.9413 1052.73 39.9413H1116.25C1126.06 39.9413 1132.94 37.1624 1134.09 34.0952C1129.97 35.1973 1125.72 35.7441 1121.46 35.7209H1050.92C1045.58 35.7209 1036.86 33.3184 1029.47 29.7787C1027.73 28.9427 1026.03 28.0096 1024.4 26.9838H1024.35L1023.76 26.5674Z" fill="white"/>
<path d="M1057.14 40.9424H1052.13C1050.26 40.9424 1048.46 40.1974 1047.13 38.8712C1045.8 37.5451 1045.06 35.7465 1045.06 33.871V33.3825H1057.14V40.9424Z" fill="#9AA2AF"/>
<path d="M1054.69 37.1863L1082.19 33.4224H1054.69V37.1863Z" fill="#9AA2AF"/>
<path d="M1053.24 45.0342H1062.01C1064.61 45.0342 1066.72 42.9224 1066.72 40.3173V39.7247C1066.72 37.1196 1064.61 35.0078 1062.01 35.0078H1053.24C1050.64 35.0078 1048.53 37.1196 1048.53 39.7247V40.3173C1048.53 42.9224 1050.64 45.0342 1053.24 45.0342Z" fill="#9AA2AF"/>
<path d="M1048.54 40.021C1048.53 40.3959 1048.58 40.7697 1048.66 41.1342C1048.92 40.0277 1049.54 39.0399 1050.42 38.3327C1051.31 37.6255 1052.41 37.241 1053.55 37.2421H1061.71C1062.84 37.2449 1063.94 37.6307 1064.83 38.3371C1065.72 39.0435 1066.34 40.0291 1066.6 41.1342C1066.69 40.7697 1066.73 40.3959 1066.73 40.021C1066.73 38.6907 1066.2 37.4156 1065.26 36.4757C1064.32 35.5357 1063.04 35.0078 1061.71 35.0078H1053.55C1052.22 35.0078 1050.94 35.536 1050 36.4761C1049.06 37.4163 1048.54 38.6914 1048.54 40.021Z" fill="white"/>
<path d="M1061.98 44.5701C1064.49 44.5701 1066.53 42.5336 1066.53 40.0214C1066.53 37.5092 1064.49 35.4727 1061.98 35.4727C1059.47 35.4727 1057.43 37.5092 1057.43 40.0214C1057.43 42.5336 1059.47 44.5701 1061.98 44.5701Z" fill="white"/>
<path d="M1058.47 40.0214C1058.47 40.9524 1058.84 41.8445 1059.5 42.5021C1060.16 43.1597 1061.05 43.529 1061.98 43.529H1062.2C1063.1 43.486 1063.95 43.098 1064.57 42.4457C1065.19 41.7933 1065.54 40.9266 1065.54 40.0254C1065.54 39.1241 1065.19 38.2574 1064.57 37.605C1063.95 36.9527 1063.1 36.5648 1062.2 36.5217H1062.02C1061.56 36.5164 1061.1 36.6029 1060.67 36.7762C1060.24 36.9495 1059.85 37.2062 1059.51 37.5315C1059.18 37.8568 1058.92 38.2443 1058.74 38.6716C1058.56 39.0989 1058.47 39.5576 1058.47 40.0214Z" fill="#9AA2AF"/>
<path d="M1022.96 25.4458C1023.66 26.5133 1024.48 27.4944 1025.41 28.3688L1034.35 25.4458H1022.96Z" fill="white"/>
<path d="M988.801 33.4221H1082.22V33.1658C1082.22 32.804 1082.08 32.4569 1081.82 32.2003C1081.57 31.9437 1081.22 31.7985 1080.86 31.7964H990.427C990.002 31.7964 989.595 31.9651 989.294 32.2655C988.994 32.5659 988.825 32.9733 988.825 33.3981L988.801 33.4221Z" fill="white"/>
<path d="M999.572 31.7964H1041.45C1041.87 31.7964 1042.28 31.9651 1042.58 32.2655C1042.88 32.5659 1043.05 32.9733 1043.05 33.3981H999.572V31.7964Z" fill="white"/>
<path d="M1002.34 33.4225H988.801C988.801 32.9977 988.97 32.5903 989.27 32.2899C989.571 31.9895 989.978 31.8208 990.403 31.8208H1000.69C1001.11 31.8208 1001.52 31.9895 1001.82 32.2899C1002.12 32.5903 1002.29 32.9977 1002.29 33.4225H1002.34Z" fill="#679AB4"/>
<path d="M102.395 286.101H18.0431V440.005H102.395V286.101Z" fill="white"/>
<path d="M27.6848 439.789H64.1708L64.1708 356.27H27.6848L27.6848 439.789Z" fill="#F2F3F5"/>
<path d="M33.6908 439.797H46.352V356.278H41.0585L33.6908 439.797Z" fill="white"/>
<path d="M111.108 251.938H41.0589V439.397H111.108V251.938Z" fill="#F2F3F5"/>
<path d="M113.062 248.83H39.0888V251.929H113.062V248.83Z" fill="white"/>
<path d="M45.2069 317.429H50.3402V310.534H45.2069V317.429Z" fill="white"/>
<path d="M70.0972 278.653H75.2305V271.758H70.0972V278.653Z" fill="white"/>
<path d="M57.8761 292.996H63.0094V286.101H57.8761V292.996Z" fill="white"/>
<path d="M70.0972 292.996H75.2305V286.101H70.0972V292.996Z" fill="white"/>
<path d="M45.2069 349.623H50.3402V342.728H45.2069V349.623Z" fill="white"/>
<path d="M70.0972 349.623H75.2305V342.728H70.0972V349.623Z" fill="white"/>
<path d="M57.8761 362.629H63.0094V355.709H57.8761V362.629Z" fill="white"/>
<path d="M70.0972 362.629H75.2305V355.709H70.0972V362.629Z" fill="white"/>
<path d="M57.8761 413.37H63.0094V403.567H57.8761V413.37Z" fill="white"/>
<path d="M70.0972 413.37H75.2305V403.567H70.0972V413.37Z" fill="white"/>
<path d="M57.8761 431.052H63.0094V421.242H57.8761V431.052Z" fill="white"/>
<path d="M70.0972 431.052H75.2305V421.242H70.0972V431.052Z" fill="white"/>
<path d="M23.0079 394.206H0V440.005H23.0079V394.206Z" fill="white"/>
<path d="M45.864 437.987C46.474 437.707 46.9883 437.255 47.3429 436.685C47.6974 436.115 47.8766 435.454 47.8581 434.783V428.433C47.8561 427.793 47.6759 427.166 47.3375 426.623L47.0332 426.134V423.516H51.1735V426.182L50.8692 426.671C50.5309 427.214 50.3507 427.841 50.3487 428.481V434.831C50.3301 435.502 50.5093 436.163 50.8639 436.733C51.2185 437.303 51.7328 437.755 52.3428 438.035H45.864V437.987Z" fill="#B3B9C3"/>
<path d="M50.7407 399.122C53.3591 399.122 55.4816 397 55.4816 394.382C55.4816 391.763 53.3591 389.641 50.7407 389.641C48.1224 389.641 45.9998 391.763 45.9998 394.382C45.9998 397 48.1224 399.122 50.7407 399.122Z" fill="#6E9FBB"/>
<path d="M44.31 417.638C48.8081 417.638 52.4545 413.991 52.4545 409.493C52.4545 404.995 48.8081 401.349 44.31 401.349C39.8119 401.349 36.1655 404.995 36.1655 409.493C36.1655 413.991 39.8119 417.638 44.31 417.638Z" fill="#6E9FBB"/>
<path d="M45.6479 399.026C48.2662 399.026 50.3888 396.904 50.3888 394.285C50.3888 391.667 48.2662 389.544 45.6479 389.544C43.0295 389.544 40.9069 391.667 40.9069 394.285C40.9069 396.904 43.0295 399.026 45.6479 399.026Z" fill="#679AB4"/>
<path d="M56.1944 413.105C58.8128 413.105 60.9354 410.982 60.9354 408.364C60.9354 405.746 58.8128 403.623 56.1944 403.623C53.5761 403.623 51.4535 405.746 51.4535 408.364C51.4535 410.982 53.5761 413.105 56.1944 413.105Z" fill="#679AB4"/>
<path d="M55.4821 427.953C58.1005 427.953 60.2231 425.83 60.2231 423.212C60.2231 420.593 58.1005 418.471 55.4821 418.471C52.8638 418.471 50.7412 420.593 50.7412 423.212C50.7412 425.83 52.8638 427.953 55.4821 427.953Z" fill="#679AB4"/>
<path d="M49.2672 426.943C55.7069 426.943 60.9273 421.723 60.9273 415.283C60.9273 408.843 55.7069 403.623 49.2672 403.623C42.8275 403.623 37.607 408.843 37.607 415.283C37.607 421.723 42.8275 426.943 49.2672 426.943Z" fill="#679AB4"/>
<path d="M49.2673 411.367C54.1943 411.367 58.1885 407.373 58.1885 402.446C58.1885 397.519 54.1943 393.524 49.2673 393.524C44.3402 393.524 40.346 397.519 40.346 402.446C40.346 407.373 44.3402 411.367 49.2673 411.367Z" fill="#679AB4"/>
</svg>
