<svg width="28" height="29" viewBox="0 0 28 29" fill="none" xmlns="http://www.w3.org/2000/svg">
<g clip-path="url(#clip0_1_9)">
<path d="M0 14.5C0 22.232 6.26801 28.5 14 28.5C21.732 28.5 28 22.232 28 14.5C28 6.76801 21.732 0.5 14 0.5C6.26801 0.5 0 6.76801 0 14.5Z" fill="white"/>
<path d="M10.8752 16.2685C10.9923 16.3849 11.1507 16.4502 11.3158 16.4502C11.4809 16.4502 11.6393 16.3849 11.7564 16.2685L14.0002 14.056L16.2127 16.2685C16.3298 16.3849 16.4882 16.4502 16.6533 16.4502C16.8184 16.4502 16.9768 16.3849 17.0939 16.2685C17.1525 16.2103 17.199 16.1412 17.2307 16.0651C17.2625 15.9889 17.2788 15.9072 17.2788 15.8247C17.2788 15.7422 17.2625 15.6605 17.2307 15.5843C17.199 15.5082 17.1525 15.4391 17.0939 15.3809L14.4439 12.731C14.3858 12.6724 14.3167 12.6259 14.2405 12.5941C14.1644 12.5624 14.0827 12.5461 14.0002 12.5461C13.9177 12.5461 13.836 12.5624 13.7598 12.5941C13.6837 12.6259 13.6145 12.6724 13.5564 12.731L10.8752 15.3809C10.8166 15.4391 10.7701 15.5082 10.7384 15.5843C10.7066 15.6605 10.6903 15.7422 10.6903 15.8247C10.6903 15.9072 10.7066 15.9889 10.7384 16.0651C10.7701 16.1412 10.8166 16.2103 10.8752 16.2685Z" fill="#818B9B"/>
</g>
<defs>
<clipPath id="clip0_1_9">
<rect width="28" height="29" fill="white" transform="translate(28 29) rotate(-180)"/>
</clipPath>
</defs>
</svg>
