<svg width="28" height="29" viewBox="0 0 28 29" fill="none" xmlns="http://www.w3.org/2000/svg">
<rect y="0.5" width="28" height="28" rx="14" fill="white"/>
<path d="M17.1248 12.7315C17.0077 12.6151 16.8493 12.5498 16.6842 12.5498C16.5191 12.5498 16.3607 12.6151 16.2436 12.7315L13.9998 14.944L11.7873 12.7315C11.6702 12.6151 11.5118 12.5498 11.3467 12.5498C11.1816 12.5498 11.0232 12.6151 10.9061 12.7315C10.8475 12.7897 10.801 12.8588 10.7693 12.9349C10.7375 13.0111 10.7212 13.0928 10.7212 13.1753C10.7212 13.2578 10.7375 13.3395 10.7693 13.4157C10.801 13.4918 10.8475 13.5609 10.9061 13.6191L13.5561 16.269C13.6142 16.3276 13.6833 16.3741 13.7595 16.4059C13.8356 16.4376 13.9173 16.4539 13.9998 16.4539C14.0823 16.4539 14.164 16.4376 14.2402 16.4059C14.3163 16.3741 14.3855 16.3276 14.4436 16.269L17.1248 13.6191C17.1834 13.5609 17.2299 13.4918 17.2616 13.4157C17.2934 13.3395 17.3097 13.2578 17.3097 13.1753C17.3097 13.0928 17.2934 13.0111 17.2616 12.9349C17.2299 12.8588 17.1834 12.7897 17.1248 12.7315Z" fill="#818B9B"/>
</svg>
