<svg width="18" height="13" viewBox="0 0 18 13" fill="none" xmlns="http://www.w3.org/2000/svg">
<path d="M4.83268 8.49984H7.33268C7.5537 8.49984 7.76566 8.41204 7.92194 8.25576C8.07822 8.09948 8.16602 7.88752 8.16602 7.6665C8.16602 7.44549 8.07822 7.23353 7.92194 7.07725C7.76566 6.92097 7.5537 6.83317 7.33268 6.83317H4.83268C4.61167 6.83317 4.39971 6.92097 4.24343 7.07725C4.08715 7.23353 3.99935 7.44549 3.99935 7.6665C3.99935 7.88752 4.08715 8.09948 4.24343 8.25576C4.39971 8.41204 4.61167 8.49984 4.83268 8.49984ZM14.8327 0.166504H3.16602C2.50297 0.166504 1.86709 0.429896 1.39825 0.898737C0.929408 1.36758 0.666016 2.00346 0.666016 2.6665V10.1665C0.666016 10.8295 0.929408 11.4654 1.39825 11.9343C1.86709 12.4031 2.50297 12.6665 3.16602 12.6665H14.8327C15.4957 12.6665 16.1316 12.4031 16.6005 11.9343C17.0693 11.4654 17.3327 10.8295 17.3327 10.1665V2.6665C17.3327 2.00346 17.0693 1.36758 16.6005 0.898737C16.1316 0.429896 15.4957 0.166504 14.8327 0.166504ZM15.666 10.1665C15.666 10.3875 15.5782 10.5995 15.4219 10.7558C15.2657 10.912 15.0537 10.9998 14.8327 10.9998H3.16602C2.945 10.9998 2.73304 10.912 2.57676 10.7558C2.42048 10.5995 2.33268 10.3875 2.33268 10.1665V5.1665H15.666V10.1665ZM15.666 3.49984H2.33268V2.6665C2.33268 2.44549 2.42048 2.23353 2.57676 2.07725C2.73304 1.92097 2.945 1.83317 3.16602 1.83317H14.8327C15.0537 1.83317 15.2657 1.92097 15.4219 2.07725C15.5782 2.23353 15.666 2.44549 15.666 2.6665V3.49984Z" fill="#679AB4"/>
</svg>
