<svg width="14" height="16" viewBox="0 0 14 16" fill="none" xmlns="http://www.w3.org/2000/svg">
<path d="M13.3533 4.52754C13.3533 4.52754 13.3533 4.52754 13.3533 4.46754L13.3083 4.35504C13.2927 4.33117 13.2751 4.30859 13.2558 4.28754C13.2358 4.25579 13.2132 4.22569 13.1883 4.19754L13.1208 4.14504L13.0008 4.08504L7.37584 0.612537C7.25664 0.538037 7.11891 0.498535 6.97834 0.498535C6.83778 0.498535 6.70004 0.538037 6.58084 0.612537L1.00084 4.08504L0.933341 4.14504L0.865841 4.19754C0.84098 4.22569 0.818408 4.25579 0.798341 4.28754C0.77906 4.30859 0.761503 4.33117 0.745841 4.35504L0.700841 4.46754C0.700841 4.46754 0.700841 4.46754 0.700841 4.52754C0.69347 4.59233 0.69347 4.65775 0.700841 4.72254V11.2775C0.700586 11.405 0.732818 11.5304 0.794495 11.642C0.856171 11.7535 0.945257 11.8475 1.05334 11.915L6.67834 15.3875C6.71296 15.4089 6.75103 15.4241 6.79084 15.4325C6.79084 15.4325 6.82834 15.4325 6.85084 15.4325C6.97773 15.4728 7.11396 15.4728 7.24084 15.4325C7.24084 15.4325 7.27834 15.4325 7.30084 15.4325C7.34066 15.4241 7.37872 15.4089 7.41334 15.3875L13.0008 11.915C13.1089 11.8475 13.198 11.7535 13.2597 11.642C13.3214 11.5304 13.3536 11.405 13.3533 11.2775V4.72254C13.3607 4.65775 13.3607 4.59233 13.3533 4.52754ZM6.25084 13.4075L2.12584 10.8575V6.07254L6.25084 8.61504V13.4075ZM7.00084 7.31754L2.80084 4.72254L7.00084 2.13504L11.2008 4.72254L7.00084 7.31754ZM11.8758 10.8575L7.75084 13.4075V8.61504L11.8758 6.07254V10.8575Z" fill="white"/>
</svg>
