<svg width="42" height="42" viewBox="0 0 42 42" fill="none" xmlns="http://www.w3.org/2000/svg">
<rect width="42" height="42" rx="21" fill="white"/>
<path d="M21 21C20.4808 21 19.9733 21.154 19.5416 21.4424C19.1099 21.7308 18.7735 22.1408 18.5748 22.6205C18.3761 23.1001 18.3242 23.6279 18.4254 24.1371C18.5267 24.6463 18.7767 25.114 19.1438 25.4812C19.511 25.8483 19.9787 26.0983 20.4879 26.1996C20.9971 26.3008 21.5249 26.2489 22.0045 26.0502C22.4842 25.8515 22.8942 25.515 23.1826 25.0834C23.471 24.6517 23.625 24.1442 23.625 23.625C23.625 22.9288 23.3484 22.2611 22.8562 21.7688C22.3639 21.2766 21.6962 21 21 21ZM21 24.5C20.8269 24.5 20.6578 24.4487 20.5139 24.3525C20.37 24.2564 20.2578 24.1197 20.1916 23.9598C20.1254 23.8 20.1081 23.624 20.1418 23.4543C20.1756 23.2846 20.2589 23.1287 20.3813 23.0063C20.5037 22.8839 20.6596 22.8006 20.8293 22.7668C20.999 22.7331 21.175 22.7504 21.3348 22.8166C21.4947 22.8828 21.6314 22.995 21.7275 23.1389C21.8237 23.2828 21.875 23.4519 21.875 23.625C21.875 23.8571 21.7828 24.0796 21.6187 24.2437C21.4546 24.4078 21.2321 24.5 21 24.5ZM20.3787 18.9963C20.462 19.0759 20.5601 19.1384 20.6675 19.18C20.7722 19.2263 20.8855 19.2502 21 19.2502C21.1145 19.2502 21.2278 19.2263 21.3325 19.18C21.4399 19.1384 21.538 19.0759 21.6213 18.9963L23.625 17.0275C23.7944 16.8581 23.8896 16.6283 23.8896 16.3888C23.8896 16.1492 23.7944 15.9194 23.625 15.75C23.4556 15.5806 23.2258 15.4854 22.9862 15.4854C22.7467 15.4854 22.5169 15.5806 22.3475 15.75L21.875 16.2663V13.125C21.875 12.8929 21.7828 12.6704 21.6187 12.5063C21.4546 12.3422 21.2321 12.25 21 12.25C20.7679 12.25 20.5454 12.3422 20.3813 12.5063C20.2172 12.6704 20.125 12.8929 20.125 13.125V16.2663L19.6525 15.75C19.4831 15.5806 19.2533 15.4854 19.0137 15.4854C18.7742 15.4854 18.5444 15.5806 18.375 15.75C18.2056 15.9194 18.1104 16.1492 18.1104 16.3888C18.1104 16.6283 18.2056 16.8581 18.375 17.0275L20.3787 18.9963ZM27.125 23.625C27.125 23.4519 27.0737 23.2828 26.9775 23.1389C26.8814 22.995 26.7447 22.8828 26.5848 22.8166C26.425 22.7504 26.249 22.7331 26.0793 22.7668C25.9096 22.8006 25.7537 22.8839 25.6313 23.0063C25.5089 23.1287 25.4256 23.2846 25.3918 23.4543C25.3581 23.624 25.3754 23.8 25.4416 23.9598C25.5078 24.1197 25.62 24.2564 25.7639 24.3525C25.9078 24.4487 26.0769 24.5 26.25 24.5C26.4821 24.5 26.7046 24.4078 26.8687 24.2437C27.0328 24.0796 27.125 23.8571 27.125 23.625ZM28 17.5H25.375C25.1429 17.5 24.9204 17.5922 24.7563 17.7563C24.5922 17.9204 24.5 18.1429 24.5 18.375C24.5 18.6071 24.5922 18.8296 24.7563 18.9937C24.9204 19.1578 25.1429 19.25 25.375 19.25H28C28.2321 19.25 28.4546 19.3422 28.6187 19.5063C28.7828 19.6704 28.875 19.8929 28.875 20.125V27.125C28.875 27.3571 28.7828 27.5796 28.6187 27.7437C28.4546 27.9078 28.2321 28 28 28H14C13.7679 28 13.5454 27.9078 13.3813 27.7437C13.2172 27.5796 13.125 27.3571 13.125 27.125V20.125C13.125 19.8929 13.2172 19.6704 13.3813 19.5063C13.5454 19.3422 13.7679 19.25 14 19.25H16.625C16.8571 19.25 17.0796 19.1578 17.2437 18.9937C17.4078 18.8296 17.5 18.6071 17.5 18.375C17.5 18.1429 17.4078 17.9204 17.2437 17.7563C17.0796 17.5922 16.8571 17.5 16.625 17.5H14C13.3038 17.5 12.6361 17.7766 12.1438 18.2688C11.6516 18.7611 11.375 19.4288 11.375 20.125V27.125C11.375 27.8212 11.6516 28.4889 12.1438 28.9812C12.6361 29.4734 13.3038 29.75 14 29.75H28C28.6962 29.75 29.3639 29.4734 29.8562 28.9812C30.3484 28.4889 30.625 27.8212 30.625 27.125V20.125C30.625 19.4288 30.3484 18.7611 29.8562 18.2688C29.3639 17.7766 28.6962 17.5 28 17.5ZM14.875 23.625C14.875 23.7981 14.9263 23.9672 15.0225 24.1111C15.1186 24.255 15.2553 24.3672 15.4152 24.4334C15.575 24.4996 15.751 24.5169 15.9207 24.4832C16.0904 24.4494 16.2463 24.3661 16.3687 24.2437C16.4911 24.1213 16.5744 23.9654 16.6082 23.7957C16.6419 23.626 16.6246 23.45 16.5584 23.2902C16.4922 23.1303 16.38 22.9936 16.2361 22.8975C16.0922 22.8013 15.9231 22.75 15.75 22.75C15.5179 22.75 15.2954 22.8422 15.1313 23.0063C14.9672 23.1704 14.875 23.3929 14.875 23.625Z" fill="#F47B20"/>
</svg>
