<svg width="18" height="18" viewBox="0 0 18 18" fill="none" xmlns="http://www.w3.org/2000/svg">
<path d="M16.841 6.19994C16.841 6.19994 16.841 6.19994 16.841 6.15828C16.2538 4.55513 15.1884 3.17101 13.7889 2.19316C12.3894 1.21531 10.7233 0.690918 9.01602 0.690918C7.30872 0.690918 5.64263 1.21531 4.24311 2.19316C2.84359 3.17101 1.77818 4.55513 1.19102 6.15828C1.19102 6.15828 1.19102 6.15828 1.19102 6.19994C0.535286 8.00902 0.535286 9.99086 1.19102 11.7999C1.19102 11.7999 1.19102 11.7999 1.19102 11.8416C1.77818 13.4448 2.84359 14.8289 4.24311 15.8067C5.64263 16.7846 7.30872 17.309 9.01602 17.309C10.7233 17.309 12.3894 16.7846 13.7889 15.8067C15.1884 14.8289 16.2538 13.4448 16.841 11.8416C16.841 11.8416 16.841 11.8416 16.841 11.7999C17.4967 9.99086 17.4967 8.00902 16.841 6.19994ZM2.54935 10.6666C2.26037 9.57429 2.26037 8.4256 2.54935 7.33327H4.09935C3.96604 8.44039 3.96604 9.5595 4.09935 10.6666H2.54935ZM3.23268 12.3333H4.39935C4.59495 13.0765 4.87453 13.795 5.23268 14.4749C4.41543 13.9182 3.73226 13.1867 3.23268 12.3333ZM4.39935 5.66661H3.23268C3.72507 4.81585 4.39951 4.0845 5.20768 3.52494C4.85814 4.20598 4.58697 4.92446 4.39935 5.66661ZM8.16602 15.4166C7.14249 14.6655 6.42364 13.571 6.14102 12.3333H8.16602V15.4166ZM8.16602 10.6666H5.78268C5.62717 9.56094 5.62717 8.43894 5.78268 7.33327H8.16602V10.6666ZM8.16602 5.66661H6.14102C6.42364 4.42891 7.14249 3.33437 8.16602 2.58328V5.66661ZM14.766 5.66661H13.5993C13.4038 4.92341 13.1242 4.20489 12.766 3.52494C13.5833 4.08167 14.2664 4.81323 14.766 5.66661ZM9.83268 2.58328C10.8562 3.33437 11.5751 4.42891 11.8577 5.66661H9.83268V2.58328ZM9.83268 15.4166V12.3333H11.8577C11.5751 13.571 10.8562 14.6655 9.83268 15.4166ZM12.216 10.6666H9.83268V7.33327H12.216C12.3715 8.43894 12.3715 9.56094 12.216 10.6666ZM12.791 14.4749C13.1492 13.795 13.4288 13.0765 13.6243 12.3333H14.791C14.2914 13.1867 13.6083 13.9182 12.791 14.4749ZM15.4493 10.6666H13.8993C13.9671 10.1137 14.0005 9.55703 13.9993 8.99994C14.0003 8.44286 13.9669 7.88625 13.8993 7.33327H15.4493C15.7383 8.4256 15.7383 9.57429 15.4493 10.6666Z" fill="#679AB4"/>
</svg>
