<svg width="18" height="17" viewBox="0 0 18 17" fill="none" xmlns="http://www.w3.org/2000/svg">
<path d="M16.5 0H12.5C11.9 0 11.5 0.4 11.5 1C11.5 1.6 11.9 2 12.5 2H14.1L11.7 4.4C8.59999 2.1 4.19999 2.7 1.89999 5.8C-0.400011 8.9 0.19999 13.3 3.29999 15.6C6.39999 17.9 10.8 17.3 13.1 14.2C15 11.7 15 8.3 13.1 5.8L15.5 3.4V5C15.5 5.6 15.9 6 16.5 6C17.1 6 17.5 5.6 17.5 5V1C17.5 0.4 17.1 0 16.5 0ZM11 13.5C8.99999 15.5 5.89999 15.5 3.89999 13.5C1.89999 11.5 1.89999 8.4 3.89999 6.4C5.89999 4.4 8.99999 4.4 11 6.4C11.9 7.3 12.5 8.6 12.5 9.9C12.5 11.3 12 12.6 11 13.5Z" fill="#009DDE"/>
</svg>
