<svg width="28" height="29" viewBox="0 0 28 29" fill="none" xmlns="http://www.w3.org/2000/svg">
<rect y="0.5" width="28" height="28" rx="14" fill="#F2F3F5"/>
<path d="M19.25 13.75H14.75V9.25C14.75 9.05109 14.671 8.86032 14.5303 8.71967C14.3897 8.57902 14.1989 8.5 14 8.5C13.8011 8.5 13.6103 8.57902 13.4697 8.71967C13.329 8.86032 13.25 9.05109 13.25 9.25V13.75H8.75C8.55109 13.75 8.36032 13.829 8.21967 13.9697C8.07902 14.1103 8 14.3011 8 14.5C8 14.6989 8.07902 14.8897 8.21967 15.0303C8.36032 15.171 8.55109 15.25 8.75 15.25H13.25V19.75C13.25 19.9489 13.329 20.1397 13.4697 20.2803C13.6103 20.421 13.8011 20.5 14 20.5C14.1989 20.5 14.3897 20.421 14.5303 20.2803C14.671 20.1397 14.75 19.9489 14.75 19.75V15.25H19.25C19.4489 15.25 19.6397 15.171 19.7803 15.0303C19.921 14.8897 20 14.6989 20 14.5C20 14.3011 19.921 14.1103 19.7803 13.9697C19.6397 13.829 19.4489 13.75 19.25 13.75Z" fill="#679AB4"/>
</svg>
