<svg width="20" height="20" viewBox="0 0 20 20" fill="none" xmlns="http://www.w3.org/2000/svg">
<rect width="20" height="20" rx="10" fill="#455560"/>
<path d="M14.0835 9.41683H10.5835V5.91683C10.5835 5.76212 10.522 5.61375 10.4126 5.50435C10.3032 5.39495 10.1549 5.3335 10.0002 5.3335C9.84545 5.3335 9.69708 5.39495 9.58768 5.50435C9.47829 5.61375 9.41683 5.76212 9.41683 5.91683V9.41683H5.91683C5.76212 9.41683 5.61375 9.47829 5.50435 9.58768C5.39495 9.69708 5.3335 9.84545 5.3335 10.0002C5.3335 10.1549 5.39495 10.3032 5.50435 10.4126C5.61375 10.522 5.76212 10.5835 5.91683 10.5835H9.41683V14.0835C9.41683 14.2382 9.47829 14.3866 9.58768 14.496C9.69708 14.6054 9.84545 14.6668 10.0002 14.6668C10.1549 14.6668 10.3032 14.6054 10.4126 14.496C10.522 14.3866 10.5835 14.2382 10.5835 14.0835V10.5835H14.0835C14.2382 10.5835 14.3866 10.522 14.496 10.4126C14.6054 10.3032 14.6668 10.1549 14.6668 10.0002C14.6668 9.84545 14.6054 9.69708 14.496 9.58768C14.3866 9.47829 14.2382 9.41683 14.0835 9.41683Z" fill="white"/>
</svg>
