<svg width="16" height="16" viewBox="0 0 16 16" fill="none" xmlns="http://www.w3.org/2000/svg">
<path d="M8 9.5C7.81458 9.5 7.63333 9.55498 7.47916 9.658C7.32499 9.76101 7.20482 9.90743 7.13387 10.0787C7.06291 10.25 7.04434 10.4385 7.08052 10.6204C7.11669 10.8023 7.20598 10.9693 7.33709 11.1004C7.4682 11.2315 7.63525 11.3208 7.81711 11.357C7.99896 11.3932 8.18746 11.3746 8.35877 11.3036C8.53008 11.2327 8.67649 11.1125 8.77951 10.9583C8.88252 10.8042 8.9375 10.6229 8.9375 10.4375C8.9375 10.1889 8.83873 9.9504 8.66292 9.77459C8.4871 9.59877 8.24864 9.5 8 9.5ZM8 8.375C8.19892 8.375 8.38968 8.29598 8.53033 8.15533C8.67099 8.01468 8.75 7.82391 8.75 7.625V5.375C8.75 5.17609 8.67099 4.98532 8.53033 4.84467C8.38968 4.70402 8.19892 4.625 8 4.625C7.80109 4.625 7.61033 4.70402 7.46967 4.84467C7.32902 4.98532 7.25 5.17609 7.25 5.375V7.625C7.25 7.82391 7.32902 8.01468 7.46967 8.15533C7.61033 8.29598 7.80109 8.375 8 8.375ZM8 0.5C6.51664 0.5 5.0666 0.939867 3.83323 1.76398C2.59986 2.58809 1.63856 3.75943 1.07091 5.12987C0.50325 6.50032 0.354725 8.00832 0.644114 9.46318C0.933503 10.918 1.64781 12.2544 2.6967 13.3033C3.7456 14.3522 5.08197 15.0665 6.53683 15.3559C7.99168 15.6453 9.49968 15.4968 10.8701 14.9291C12.2406 14.3614 13.4119 13.4001 14.236 12.1668C15.0601 10.9334 15.5 9.48336 15.5 8C15.4978 6.01156 14.7069 4.10519 13.3009 2.69914C11.8948 1.2931 9.98845 0.502211 8 0.5ZM8 14C6.81332 14 5.65328 13.6481 4.66658 12.9888C3.67989 12.3295 2.91085 11.3925 2.45673 10.2961C2.0026 9.19974 1.88378 7.99334 2.11529 6.82946C2.3468 5.66557 2.91825 4.59647 3.75736 3.75736C4.59648 2.91824 5.66558 2.3468 6.82946 2.11529C7.99335 1.88378 9.19975 2.0026 10.2961 2.45672C11.3925 2.91085 12.3295 3.67988 12.9888 4.66658C13.6481 5.65327 14 6.81331 14 8C13.9982 9.59074 13.3655 11.1158 12.2406 12.2406C11.1158 13.3655 9.59074 13.9982 8 14Z" fill="#F47B20"/>
</svg>
