<svg width="18" height="18" viewBox="0 0 18 18" fill="none" xmlns="http://www.w3.org/2000/svg">
<path d="M8.99915 0.666504C7.38288 0.669575 5.80238 1.1426 4.45017 2.02795C3.09796 2.91331 2.03239 4.17279 1.38326 5.65298C0.734134 7.13317 0.529459 8.77019 0.794167 10.3646C1.05888 11.9591 1.78154 13.4421 2.87415 14.6332C3.6545 15.479 4.6016 16.1541 5.65576 16.6158C6.70992 17.0776 7.8483 17.3159 8.99915 17.3159C10.15 17.3159 11.2884 17.0776 12.3425 16.6158C13.3967 16.1541 14.3438 15.479 15.1241 14.6332C16.2167 13.4421 16.9394 11.9591 17.2041 10.3646C17.4688 8.77019 17.2642 7.13317 16.615 5.65298C15.9659 4.17279 14.9003 2.91331 13.5481 2.02795C12.1959 1.1426 10.6154 0.669575 8.99915 0.666504ZM8.99915 15.6665C7.27287 15.6639 5.61491 14.9917 4.37415 13.7915C4.75085 12.8745 5.39167 12.0901 6.21519 11.5381C7.03871 10.9861 8.00774 10.6913 8.99915 10.6913C9.99055 10.6913 10.9596 10.9861 11.7831 11.5381C12.6066 12.0901 13.2474 12.8745 13.6241 13.7915C12.3834 14.9917 10.7254 15.6639 8.99915 15.6665ZM7.33248 7.33317C7.33248 7.00354 7.43023 6.6813 7.61336 6.40722C7.7965 6.13314 8.0568 5.91952 8.36134 5.79337C8.66588 5.66723 9.00099 5.63422 9.3243 5.69853C9.6476 5.76284 9.94457 5.92157 10.1777 6.15466C10.4107 6.38775 10.5695 6.68472 10.6338 7.00802C10.6981 7.33132 10.6651 7.66643 10.5389 7.97098C10.4128 8.27552 10.1992 8.53582 9.9251 8.71895C9.65101 8.90209 9.32878 8.99984 8.99915 8.99984C8.55712 8.99984 8.1332 8.82424 7.82063 8.51168C7.50807 8.19912 7.33248 7.7752 7.33248 7.33317ZM14.7575 12.3332C14.0129 11.0596 12.867 10.069 11.4991 9.5165C11.9235 9.03539 12.1999 8.44205 12.2954 7.8077C12.3908 7.17335 12.3012 6.52493 12.0373 5.94025C11.7733 5.35557 11.3463 4.85947 10.8074 4.51148C10.2685 4.16348 9.64064 3.97838 8.99915 3.97838C8.35765 3.97838 7.72979 4.16348 7.19089 4.51148C6.65199 4.85947 6.22495 5.35557 5.96102 5.94025C5.69709 6.52493 5.60747 7.17335 5.70292 7.8077C5.79837 8.44205 6.07484 9.03539 6.49915 9.5165C5.13131 10.069 3.98537 11.0596 3.24081 12.3332C2.64743 11.3224 2.33391 10.1719 2.33248 8.99984C2.33248 7.23173 3.03486 5.53604 4.2851 4.28579C5.53534 3.03555 7.23104 2.33317 8.99915 2.33317C10.7673 2.33317 12.4629 3.03555 13.7132 4.28579C14.9634 5.53604 15.6658 7.23173 15.6658 8.99984C15.6644 10.1719 15.3509 11.3224 14.7575 12.3332Z" fill="#679AB4"/>
</svg>
