<svg width="17" height="13" viewBox="0 0 17 13" fill="none" xmlns="http://www.w3.org/2000/svg">
<path d="M16.3675 7.16519C15.9723 6.54862 15.4269 6.05853 14.7787 5.73443C15.253 5.19691 15.5138 4.5092 15.5138 3.78196C15.5138 2.15359 14.1937 0.833496 12.5654 0.833496C11.1741 0.833496 9.98841 1.80578 9.68804 3.13378C9.41927 3.04682 9.14261 2.99939 8.85804 2.99939C8.57347 2.99939 8.2889 3.04682 8.01223 3.13378C7.71975 1.79787 6.52614 0.833496 5.13491 0.833496C3.51443 0.841401 2.19434 2.16149 2.19434 3.78987C2.19434 4.5092 2.4631 5.20482 2.92948 5.74234C2.28129 6.05853 1.73587 6.54862 1.34063 7.1731C0.929585 7.81338 0.708252 8.56433 0.708252 9.32318V11.1571C0.708252 11.2915 0.811014 11.3942 0.945394 11.3942H4.93729V12.1294C4.93729 12.2637 5.04005 12.3665 5.17443 12.3665H12.5496C12.6839 12.3665 12.7867 12.2637 12.7867 12.1294V11.3942H16.7628C16.8972 11.3942 16.9999 11.2915 16.9999 11.1571V9.32318C16.9999 8.55643 16.7786 7.81338 16.3675 7.1731V7.16519ZM6.61309 4.26415C6.58147 4.32739 6.54985 4.38272 6.52614 4.43806C6.49452 4.5092 6.4629 4.58034 6.41547 4.65149C6.15462 5.03882 5.73567 5.28386 5.293 5.32339H5.00052C4.21005 5.25225 3.59348 4.58034 3.59348 3.78987C3.59348 2.93616 4.2891 2.24844 5.13491 2.24844C5.98071 2.24844 6.67633 2.94406 6.67633 3.78987C6.67633 3.96377 6.64471 4.12977 6.60519 4.26415H6.61309ZM4.70805 6.73043H5.19024C5.27719 6.73043 5.37205 6.73043 5.45109 6.73043C5.48271 6.73043 5.50643 6.72253 5.53014 6.71462C5.81471 6.6751 6.08347 6.59605 6.34433 6.48538C6.44709 6.80157 6.60519 7.08614 6.81861 7.3391C6.28109 7.62367 5.82262 8.04262 5.49062 8.56433C5.21395 8.99119 5.03214 9.48128 4.961 9.98718H2.1232V9.32318C2.1232 8.82519 2.26549 8.343 2.53425 7.92405C3.00853 7.1731 3.83062 6.73043 4.71595 6.73043H4.70805ZM6.33643 10.4773C6.33643 10.0662 6.455 9.66309 6.67633 9.32318C7.07157 8.70662 7.75137 8.33509 8.48651 8.33509H9.23746C9.9726 8.33509 10.6524 8.70662 11.0476 9.32318C11.269 9.67099 11.3876 10.0662 11.3876 10.4773V10.9595H6.34433V10.4773H6.33643ZM10.0991 5.65539C10.0991 6.3431 9.54575 6.89643 8.85804 6.89643C8.17033 6.89643 7.61699 6.3431 7.61699 5.65539C7.61699 5.52891 7.64071 5.40244 7.67233 5.28386C7.72766 5.11786 7.76718 5.04672 7.84623 4.93606C8.08337 4.61196 8.4549 4.41434 8.85804 4.41434C9.26118 4.41434 9.60899 4.59615 9.84613 4.90444C9.94889 5.05463 10.0042 5.1811 10.0517 5.30758C10.0833 5.42615 10.0991 5.53682 10.0991 5.65539ZM10.8975 7.3391C11.103 7.08614 11.269 6.79367 11.3717 6.48538C11.6247 6.59605 11.8935 6.6751 12.1701 6.71462C12.1938 6.73043 12.2255 6.73043 12.2571 6.73834C12.344 6.73834 12.431 6.73834 12.5179 6.73834H13.0001C13.8855 6.73834 14.6996 7.181 15.1818 7.92405C15.4506 8.343 15.5929 8.82519 15.5929 9.32318V9.98718H12.7551C12.6839 9.48128 12.5021 8.99909 12.2255 8.56433C11.8935 8.04262 11.435 7.62367 10.8975 7.3391ZM12.7235 5.33129H12.431C11.9804 5.29177 11.5773 5.06253 11.3164 4.69891C11.2374 4.58034 11.1741 4.47758 11.0951 4.27206C11.0476 4.12187 11.0239 3.96377 11.0239 3.79777C11.0239 2.94406 11.7196 2.25635 12.5654 2.25635C13.4112 2.25635 14.1068 2.95197 14.1068 3.79777C14.1068 4.58825 13.4902 5.26805 12.7155 5.33129H12.7235Z" fill="white"/>
</svg>
