<svg width="10" height="12" viewBox="0 0 10 12" fill="none" xmlns="http://www.w3.org/2000/svg">
<path d="M0.0666666 5.68333C0.106329 5.58103 0.1658 5.48758 0.241668 5.40833L4.40833 1.24166C4.48603 1.16396 4.57827 1.10233 4.67979 1.06028C4.78131 1.01823 4.89012 0.996582 5 0.996582C5.22192 0.996582 5.43475 1.08474 5.59167 1.24166C5.66937 1.31936 5.731 1.4116 5.77305 1.51312C5.8151 1.61464 5.83674 1.72344 5.83674 1.83333C5.83674 2.05524 5.74859 2.26807 5.59167 2.42499L2.84167 5.16666H9.16667C9.38768 5.16666 9.59964 5.25446 9.75592 5.41074C9.9122 5.56702 10 5.77898 10 5.99999C10 6.22101 9.9122 6.43297 9.75592 6.58925C9.59964 6.74553 9.38768 6.83333 9.16667 6.83333H2.84167L5.59167 9.57499C5.66977 9.65246 5.73177 9.74463 5.77408 9.84618C5.81638 9.94773 5.83817 10.0566 5.83817 10.1667C5.83817 10.2767 5.81638 10.3856 5.77408 10.4871C5.73177 10.5887 5.66977 10.6809 5.59167 10.7583C5.5142 10.8364 5.42203 10.8984 5.32048 10.9407C5.21893 10.983 5.11001 11.0048 5 11.0048C4.88999 11.0048 4.78107 10.983 4.67952 10.9407C4.57797 10.8984 4.4858 10.8364 4.40833 10.7583L0.241668 6.59166C0.1658 6.51241 0.106329 6.41895 0.0666666 6.31666C-0.0166817 6.11377 -0.0166817 5.88621 0.0666666 5.68333Z" fill="#9AA2AF"/>
</svg>
