<svg width="18" height="18" viewBox="0 0 18 18" fill="none" xmlns="http://www.w3.org/2000/svg">
<path d="M15.75 7.875H15V7.125C15 6.92609 14.921 6.73532 14.7803 6.59467C14.6397 6.45402 14.4489 6.375 14.25 6.375C14.0511 6.375 13.8603 6.45402 13.7197 6.59467C13.579 6.73532 13.5 6.92609 13.5 7.125V7.875H12.75C12.5511 7.875 12.3603 7.95402 12.2197 8.09467C12.079 8.23532 12 8.42609 12 8.625C12 8.82391 12.079 9.01468 12.2197 9.15533C12.3603 9.29598 12.5511 9.375 12.75 9.375H13.5V10.125C13.5 10.3239 13.579 10.5147 13.7197 10.6553C13.8603 10.796 14.0511 10.875 14.25 10.875C14.4489 10.875 14.6397 10.796 14.7803 10.6553C14.921 10.5147 15 10.3239 15 10.125V9.375H15.75C15.9489 9.375 16.1397 9.29598 16.2803 9.15533C16.421 9.01468 16.5 8.82391 16.5 8.625C16.5 8.42609 16.421 8.23532 16.2803 8.09467C16.1397 7.95402 15.9489 7.875 15.75 7.875ZM9.975 9.165C10.3752 8.8186 10.6962 8.39016 10.9162 7.90877C11.1361 7.42737 11.25 6.90428 11.25 6.375C11.25 5.38044 10.8549 4.42661 10.1517 3.72335C9.44839 3.02009 8.49456 2.625 7.5 2.625C6.50544 2.625 5.55161 3.02009 4.84835 3.72335C4.14509 4.42661 3.75 5.38044 3.75 6.375C3.74999 6.90428 3.86385 7.42737 4.08384 7.90877C4.30384 8.39016 4.62482 8.8186 5.025 9.165C3.9751 9.64041 3.08435 10.4081 2.45924 11.3764C1.83412 12.3447 1.5011 13.4725 1.5 14.625C1.5 14.8239 1.57902 15.0147 1.71967 15.1553C1.86032 15.296 2.05109 15.375 2.25 15.375C2.44891 15.375 2.63968 15.296 2.78033 15.1553C2.92098 15.0147 3 14.8239 3 14.625C3 13.4315 3.47411 12.2869 4.31802 11.443C5.16193 10.5991 6.30653 10.125 7.5 10.125C8.69347 10.125 9.83807 10.5991 10.682 11.443C11.5259 12.2869 12 13.4315 12 14.625C12 14.8239 12.079 15.0147 12.2197 15.1553C12.3603 15.296 12.5511 15.375 12.75 15.375C12.9489 15.375 13.1397 15.296 13.2803 15.1553C13.421 15.0147 13.5 14.8239 13.5 14.625C13.4989 13.4725 13.1659 12.3447 12.5408 11.3764C11.9157 10.4081 11.0249 9.64041 9.975 9.165ZM7.5 8.625C7.05499 8.625 6.61998 8.49304 6.24997 8.24581C5.87996 7.99857 5.59157 7.64717 5.42127 7.23604C5.25097 6.8249 5.20642 6.3725 5.29323 5.93605C5.38005 5.49959 5.59434 5.09868 5.90901 4.78401C6.22368 4.46934 6.62459 4.25505 7.06105 4.16823C7.4975 4.08142 7.9499 4.12597 8.36104 4.29627C8.77217 4.46657 9.12357 4.75496 9.37081 5.12497C9.61804 5.49498 9.75 5.92999 9.75 6.375C9.75 6.97174 9.51295 7.54403 9.09099 7.96599C8.66903 8.38795 8.09674 8.625 7.5 8.625Z" fill="white"/>
</svg>
