<svg width="48" height="47" viewBox="0 0 48 47" fill="none" xmlns="http://www.w3.org/2000/svg">
<path d="M36.9788 29.0896C36.9655 29.081 36.9499 29.0771 36.9358 29.0693C35.7692 28.4982 34.4878 28.2008 33.189 28.1997H30.0556V26.0377C30.181 25.9022 30.3008 25.7667 30.4418 25.6312C32.0319 24.203 32.8256 22.0893 32.5686 19.9676C34.0205 19.1816 35.0618 17.8064 35.4247 16.1958C35.6597 14.485 35.6895 12.3472 34.5027 11.8764C34.0774 11.7087 33.6054 11.7022 33.1757 11.8584C33.1828 11.4479 33.1835 11.0038 33.1757 10.5197L33.3324 10.363C34.5841 9.10848 35.1335 7.31562 34.7996 5.5752C34.5012 3.90304 33.3829 2.49254 31.8229 1.82063C31.6215 1.73368 31.3999 1.66788 31.1884 1.59111C31.1426 1.56961 31.0948 1.55256 31.0458 1.54019C29.7455 1.10915 28.3901 0.866719 27.021 0.820297C26.9886 0.810822 26.9556 0.803495 26.9223 0.798363C26.898 0.798363 26.8776 0.810113 26.8541 0.81168C26.6152 0.803063 26.3849 0.782696 26.1389 0.782696C24.6144 0.748749 23.1007 1.04678 21.7028 1.65613L21.5297 1.30519C20.9532 0.14441 19.5457 -0.330469 18.3838 0.243755L15.5693 1.63106C14.408 2.2076 13.9331 3.61564 14.5078 4.77775L14.6003 4.96497C13.0697 5.92582 12.152 7.61607 12.1797 9.42298C12.182 9.95441 12.2638 10.4825 12.4226 10.9897C12.4323 11.0294 12.4454 11.0681 12.4617 11.1056C12.5625 11.4225 12.6936 11.7289 12.8534 12.0206C11.9063 12.6715 11.9032 14.6158 12.157 16.2279C12.5261 17.8253 13.5638 19.1871 15.006 19.9668C14.7485 22.089 15.5423 24.2035 17.1328 25.6319C17.2738 25.7675 17.3937 25.903 17.519 26.0385V28.1997H14.3888C9.63216 28.2054 5.77758 32.0599 5.77197 36.8165V44.65C5.77197 45.9479 6.82412 47 8.122 47H39.4558C40.7537 47 41.8058 45.9479 41.8058 44.65V36.8165C41.8013 33.5313 39.9292 30.5345 36.9788 29.0896ZM35.6393 30.2145C35.126 32.2437 34.2993 34.1805 33.189 35.9548V29.7664C34.026 29.7683 34.8558 29.9201 35.6393 30.2145ZM28.489 34.4571V37.3265C27.7848 38.3381 26.9988 39.2901 26.1389 40.1732V37.8842C27.0291 36.8189 27.8159 35.6713 28.489 34.4571ZM23.7889 32.1165C23.597 32.1165 19.0888 32.0663 19.0888 28.9831V28.1527C19.8918 29.399 20.6798 30.5498 22.5669 30.5498H25.0109C26.898 30.5498 27.686 29.399 28.489 28.1527V28.9831C28.489 32.0663 23.9792 32.1165 23.7889 32.1165ZM30.0556 29.7664H31.5816C31.4845 30.7744 31.2516 31.7647 30.8891 32.7102C30.6377 33.3784 30.3588 34.0192 30.0556 34.6427V29.7664ZM24.5722 41.6733C23.8555 42.3117 23.0713 42.9485 22.2222 43.5925V41.8989C23.0055 41.1993 23.8038 40.4434 24.5722 39.6413V41.6733ZM20.6555 45.4333H17.7571C18.5851 44.8482 19.5847 44.1016 20.6555 43.2306V45.4333ZM24.5722 43.7342V45.4333H22.3703C23.1546 44.863 23.8886 44.2967 24.5722 43.7342ZM26.1389 44.6147V42.3657C26.9727 41.5988 27.7575 40.7805 28.489 39.9154V42.2075C27.7228 43.0559 26.9332 43.8666 26.1389 44.6147ZM30.0556 37.8106C30.6454 36.9155 31.169 35.9784 31.6223 35.007V38.3284C31.1124 39.0397 30.7074 39.5747 30.0556 40.3784V37.8106ZM22.2222 3.1484V6.50111C21.4075 6.67919 20.6242 6.87685 19.8722 7.0941V4.99709C19.8784 4.99004 19.8863 4.98455 19.8918 4.9775C20.5323 4.21171 21.3261 3.58862 22.2222 3.1484ZM18.3055 7.58134C17.7752 7.75994 17.2511 7.95265 16.7388 8.16023V5.78905C17.2568 5.68762 17.7798 5.61285 18.3055 5.56501V7.58134ZM15.1721 12.3488C14.7557 12.0287 14.4129 11.6229 14.1671 11.1589C14.442 10.9897 14.7796 10.7978 15.1721 10.5925V12.3488ZM16.7388 9.85774C17.2537 9.63527 17.7759 9.42925 18.3055 9.23968V11.3813C17.7133 11.556 17.1869 11.7229 16.7388 11.8748V9.85774ZM19.8722 8.72737C20.6187 8.50177 21.4052 8.29732 22.2222 8.11088V10.4178C21.3746 10.5894 20.5889 10.7711 19.8722 10.9536V8.72737ZM23.7889 7.77013C23.8367 7.76073 23.8813 7.75054 23.9299 7.74193C24.7289 7.59779 25.4535 7.48107 26.1389 7.39177V9.78332C25.3172 9.88437 24.5362 10.0011 23.7889 10.128V7.77013ZM33.2869 7.12778C33.1722 7.93115 32.8007 8.67586 32.2279 9.25065L32.0806 9.39948C31.9239 9.39948 31.7766 9.40732 31.6223 9.40967V7.05337C32.2093 7.06277 32.7642 7.08757 33.2869 7.12778ZM30.0556 5.51018C29.2906 5.53211 28.5072 5.58016 27.7056 5.65431V2.42772C28.5006 2.49511 29.2875 2.63753 30.0556 2.85307V5.51018ZM27.7056 7.22649C28.5093 7.14972 29.2927 7.09984 30.0556 7.07687V9.45745C29.248 9.49505 28.4631 9.54832 27.7056 9.61804V7.22649ZM33.8392 13.3162C34.0155 14.1851 34.0286 15.0793 33.8776 15.9529C33.6597 16.7901 33.1866 17.5386 32.524 18.0946C32.552 17.504 32.6251 16.9163 32.7425 16.3368C32.9053 15.4728 33.0219 14.6007 33.0919 13.7243C33.2869 13.5067 33.5507 13.3627 33.8392 13.3162ZM33.189 5.55561C32.6924 5.52114 32.1707 5.49843 31.6223 5.48903V3.47505C32.3938 3.94004 32.9553 4.68568 33.189 5.55561ZM26.1389 5.81098C25.4112 5.90263 24.6325 6.02327 23.7889 6.17602V2.59849C24.5603 2.42674 25.3487 2.34317 26.1389 2.34938V5.81098ZM15.8716 3.48523C15.9367 3.28892 16.0778 3.12693 16.2633 3.03559L19.0755 1.64829C19.4617 1.45607 19.9306 1.61226 20.1244 1.99766L20.343 2.44182C19.7382 2.87926 19.188 3.38762 18.7042 3.95602C17.8682 4.0108 17.037 4.12466 16.2171 4.29678C16.1568 4.31088 16.1035 4.33673 16.044 4.3524L15.9131 4.08528C15.82 3.89876 15.8051 3.6828 15.8716 3.48523ZM15.1721 6.48388V8.84174C14.6692 9.08223 14.1945 9.33055 13.755 9.58435C13.755 9.5303 13.7464 9.47703 13.7464 9.42298C13.7431 8.27587 14.2691 7.19137 15.1721 6.48388ZM13.708 15.9796C13.5524 15.0975 13.5641 14.194 13.7425 13.3162C13.8175 13.319 13.8912 13.3374 13.9587 13.3703C14.1271 13.5192 14.3047 13.6574 14.4906 13.7839C14.5615 14.6425 14.6763 15.4969 14.8345 16.3438C14.9522 16.922 15.0255 17.5084 15.0538 18.0977C14.3978 17.5471 13.9278 16.8074 13.708 15.9796ZM16.5931 19.554C16.5931 19.5399 16.5931 19.525 16.5931 19.5109C16.5931 19.4968 16.5931 19.4905 16.5931 19.4796C16.6103 19.1098 16.6268 18.7354 16.6268 18.35C16.6167 17.5806 16.5322 16.8141 16.3745 16.061C16.2641 15.4461 16.1442 14.745 16.0612 13.7846C21.052 11.9854 26.3096 11.0376 31.6145 10.9811C31.6511 12.6846 31.5123 14.3875 31.2001 16.0626C31.0426 16.8162 30.9584 17.5833 30.9487 18.3531C30.9487 18.7448 30.9651 19.1231 30.9823 19.4976V19.5571C31.0607 21.3666 31.128 22.7955 29.353 24.5016C28.5395 25.3123 27.8291 26.2202 27.238 27.2049C26.4233 28.47 26.052 28.9831 25.0109 28.9831H22.5669C21.5258 28.9831 21.1569 28.47 20.3414 27.2049C19.749 26.22 19.0373 25.3121 18.2224 24.5016C16.4474 22.7947 16.5124 21.3666 16.5931 19.5571V19.554ZM7.33866 44.65V36.8165C7.34298 32.9247 10.4969 29.7707 14.3888 29.7664H17.595C18.065 32.4705 20.9516 33.4482 23.0055 33.6424V35.2498C23.0055 35.6825 23.3563 36.0332 23.7889 36.0332C24.2215 36.0332 24.5722 35.6825 24.5722 35.2498V33.6424C25.6158 33.5512 26.6335 33.2678 27.574 32.8066C26.843 34.3343 25.9103 35.757 24.801 37.0366C21.9136 40.271 18.5982 43.096 14.9465 45.4333H12.8221V39.1666C12.8221 38.7339 12.4714 38.3832 12.0387 38.3832C11.6061 38.3832 11.2554 38.7339 11.2554 39.1666V45.4333H8.122C7.68938 45.4333 7.33866 45.0826 7.33866 44.65ZM40.2391 44.65C40.2391 45.0826 39.8884 45.4333 39.4558 45.4333H36.3224V39.1666C36.3224 38.7339 35.9717 38.3832 35.539 38.3832C35.1064 38.3832 34.7557 38.7339 34.7557 39.1666V45.4333H27.5489C31.3748 41.7367 35.7647 36.0786 37.076 30.9414C39.049 32.2453 40.2369 34.4516 40.2391 36.8165V44.65Z" fill="#679AB4"/>
<path d="M20.6555 36.0332C21.0881 36.0332 21.4389 35.6825 21.4389 35.2498C21.4389 34.8172 21.0881 34.4665 20.6555 34.4665C20.2229 34.4665 19.8722 34.8172 19.8722 35.2498C19.8722 35.6825 20.2229 36.0332 20.6555 36.0332Z" fill="#679AB4"/>
<path d="M20.6555 39.1666C21.0881 39.1666 21.4389 38.8158 21.4389 38.3832C21.4389 37.9506 21.0881 37.5999 20.6555 37.5999C20.2229 37.5999 19.8722 37.9506 19.8722 38.3832C19.8722 38.8158 20.2229 39.1666 20.6555 39.1666Z" fill="#679AB4"/>
</svg>
