<svg width="38" height="49" viewBox="0 0 38 49" fill="none" xmlns="http://www.w3.org/2000/svg">
<path fill-rule="evenodd" clip-rule="evenodd" d="M0.483961 0.656198C-0.00431011 0.926803 0.0119936 0.618906 0.00843301 9.59555C0.00487241 18.684 -0.0141487 18.3488 0.51788 18.5912C0.828589 18.7328 1.05572 18.7328 1.36643 18.5912C1.89368 18.351 1.87915 18.5701 1.87915 10.8715V3.78006L2.62772 4.49518C3.31595 5.15277 3.40787 5.21039 3.76777 5.21039C4.14407 5.21039 4.20685 5.16326 5.38588 3.99585L6.6125 2.78122L7.83688 3.99585C9.02893 5.17825 9.07213 5.21039 9.4681 5.21039C9.86408 5.21039 9.90774 5.17797 11.1016 3.99585L12.3282 2.78122L13.5526 3.99585C14.7453 5.17891 14.7875 5.21039 15.1846 5.21039C15.5816 5.21039 15.6238 5.17891 16.8165 3.99585L18.0409 2.78122L19.2675 3.99585C20.4604 5.17703 20.5053 5.21039 20.9 5.21039C21.2942 5.21039 21.3404 5.17628 22.5059 4.02303L23.7059 2.83557L24.9237 4.02303C26.1137 5.18322 26.1511 5.21039 26.5584 5.21039C26.9487 5.21039 27.0233 5.16513 27.7326 4.4979L28.49 3.7854V21.4576V39.1298H16.4917C3.4506 39.1298 4.1109 39.103 3.86512 39.6425C3.71193 39.9787 3.72457 40.2237 3.9116 40.5402C4.09253 40.8467 4.35218 40.9648 5.0181 41.0439C6.05958 41.1675 6.94373 41.8635 7.313 42.8504C7.81252 44.1856 7.21387 45.6847 5.92924 46.3155C5.48613 46.5332 5.27081 46.5789 4.69015 46.5789C3.5189 46.5789 2.61273 46.0017 2.12334 44.944C1.92797 44.5216 1.92553 44.4265 1.87915 35.1944C1.85339 30.0667 1.79557 25.7959 1.75069 25.7038C1.64509 25.4872 1.20695 25.2622 0.890619 25.2622C0.732734 25.2622 0.525282 25.3792 0.32111 25.5834L0 25.9045L0.0260486 35.3516L0.0520972 44.7986L0.257769 45.3373C0.689351 46.4675 1.60283 47.5081 2.5819 47.9848C3.69281 48.5258 2.86713 48.4998 18.9326 48.4998C35.0222 48.4998 34.1661 48.5271 35.3012 47.9773C36.273 47.5067 37.192 46.4506 37.5982 45.3373C37.8793 44.567 37.8766 43.0554 37.5927 42.2763C37.0316 40.7365 35.692 39.5589 34.1308 39.2333C33.8576 39.1763 32.8984 39.1298 31.9991 39.1298H30.364V20.1462V1.16255L30.0454 0.843973C29.4481 0.246729 29.1314 0.383062 27.6497 1.87608L26.575 2.95869L25.4004 1.79643C24.2124 0.620967 23.9392 0.447809 23.4616 0.567745C23.3202 0.603164 22.7008 1.13416 22.0327 1.7924L20.8534 2.95447L19.674 1.77994C18.6179 0.728253 18.4534 0.59979 18.1017 0.552659L17.7088 0.5L16.4467 1.74977L15.1846 2.99954L13.9224 1.74977L12.6603 0.5L12.2674 0.552659C11.915 0.599978 11.7511 0.728534 10.6733 1.80402L9.47194 3.00263L8.22114 1.76401C6.55966 0.118828 6.62693 0.116486 4.87896 1.87758L3.80291 2.96178L2.67701 1.84741C2.05784 1.23451 1.4591 0.686369 1.34656 0.629212C1.07764 0.492785 0.760844 0.502717 0.483961 0.656198ZM4.60676 8.1522C4.16824 8.39516 4.13479 8.58256 4.13123 10.8137C4.12767 13.0863 4.17096 13.3174 4.64068 13.5314C4.82639 13.616 7.40193 13.6434 15.1936 13.6434C26.393 13.6434 25.8847 13.6672 26.1292 13.1307C26.2051 12.9641 26.2411 12.2242 26.2411 10.8324C26.2411 8.61114 26.2 8.38298 25.7591 8.15491C25.388 7.96302 4.95279 7.9603 4.60676 8.1522ZM24.3672 10.8324V11.7694H15.1846H6.00195V10.8324V9.89539H15.1846H24.3672V10.8324ZM7.23036 17.1474C6.94195 17.3072 6.75905 17.6415 6.75483 18.0165C6.75202 18.2694 6.70976 18.3227 6.4698 18.3754C6.07888 18.4613 5.1654 19.0934 4.84729 19.4981C3.71502 20.9389 3.99527 22.9404 5.4866 24.0639C6.06745 24.5015 6.59414 24.6899 7.50481 24.7855C7.89338 24.8264 8.36853 24.9345 8.56081 25.0257C9.55909 25.4994 9.62768 26.7804 8.68805 27.4022C8.375 27.6094 8.20596 27.6515 7.68855 27.6515C7.17114 27.6515 7.00211 27.6094 6.68905 27.4022C6.27134 27.1258 6.00195 26.6548 6.00195 26.2012C6.00195 25.4741 5.01632 25.0841 4.43773 25.5823C4.20029 25.7866 4.17499 25.8665 4.1763 26.4072C4.1793 27.5771 4.91813 28.625 6.1545 29.2127C6.68456 29.4647 6.73319 29.5136 6.78697 29.8502C6.86231 30.321 7.2075 30.6031 7.70842 30.6031C8.17832 30.6031 8.62555 30.1996 8.62555 29.7758C8.62555 29.5241 8.68486 29.4686 9.2227 29.2169C10.032 28.8382 10.5319 28.3613 10.8968 27.62C11.1647 27.0759 11.2023 26.9071 11.2022 26.248C11.2021 25.3772 10.9463 24.7065 10.3715 24.0702C9.78406 23.42 8.58751 22.9197 7.61987 22.9197C7.16992 22.9197 6.52039 22.5971 6.27424 22.2513C5.33509 20.9325 7.24338 19.3853 8.64457 20.3296C9.06154 20.6106 9.37515 21.1043 9.37515 21.4797C9.37515 21.6922 9.46211 21.8896 9.6467 22.0962C9.87139 22.3476 9.98608 22.4001 10.3122 22.4001C10.8351 22.4001 11.2492 21.9741 11.2492 21.436C11.2492 20.1904 10.3076 18.8984 9.07063 18.4468C8.68871 18.3074 8.62555 18.2483 8.62555 18.0297C8.62555 17.261 7.8782 16.7883 7.23036 17.1474ZM13.7593 17.2881C13.5078 17.5128 13.4553 17.6275 13.4553 17.9536C13.4553 18.2797 13.5078 18.3944 13.7593 18.619L14.0632 18.8906H19.7729C24.0002 18.8906 25.5466 18.8615 25.7284 18.7786C25.997 18.6562 26.2411 18.2634 26.2411 17.9536C26.2411 17.6438 25.997 17.2509 25.7284 17.1286C25.5466 17.0456 24.0002 17.0166 19.7729 17.0166H14.0632L13.7593 17.2881ZM0.323734 21.3643C-0.026798 21.7148 -0.0788954 22.0168 0.138676 22.4376C0.277352 22.7059 0.633787 22.9197 0.942153 22.9197C1.41693 22.9197 1.87915 22.462 1.87915 21.9918C1.87915 21.675 1.66823 21.3195 1.39707 21.1792C0.976261 20.9616 0.674265 21.0137 0.323734 21.3643ZM13.7593 22.5353C13.5078 22.76 13.4553 22.8747 13.4553 23.2008C13.4553 23.5269 13.5078 23.6416 13.7593 23.8662L14.0632 24.1378H19.7729C24.0002 24.1378 25.5466 24.1087 25.7284 24.0258C25.997 23.9034 26.2411 23.5106 26.2411 23.2008C26.2411 22.891 25.997 22.4981 25.7284 22.3758C25.5466 22.2928 24.0002 22.2638 19.7729 22.2638H14.0632L13.7593 22.5353ZM13.7593 27.7825C13.5078 28.0072 13.4553 28.1219 13.4553 28.448C13.4553 28.7741 13.5078 28.8887 13.7593 29.1134L14.0632 29.385H19.7729C24.0002 29.385 25.5466 29.3559 25.7284 29.273C25.997 29.1506 26.2411 28.7578 26.2411 28.448C26.2411 28.1382 25.997 27.7453 25.7284 27.623C25.5466 27.54 24.0002 27.511 19.7729 27.511H14.0632L13.7593 27.7825ZM4.60676 32.889C3.97878 33.237 3.9994 34.2281 4.64068 34.5202C4.82639 34.6048 7.40193 34.6322 15.1936 34.6322C23.9313 34.6322 25.5402 34.6119 25.7591 34.4987C26.3826 34.1761 26.3826 33.2142 25.7591 32.8917C25.388 32.6998 4.95279 32.6971 4.60676 32.889ZM34.4101 41.3121C35.4152 41.8057 35.9353 42.659 35.9353 43.8148C35.9353 44.9706 35.4152 45.8239 34.4101 46.3175L33.8777 46.5789L21.1558 46.6037L8.43375 46.6284L8.67118 46.2695C9.14184 45.5584 9.31968 44.8849 9.31968 43.8148C9.31968 42.7446 9.14184 42.0711 8.67118 41.36L8.43375 41.0012L21.1558 41.0259L33.8777 41.0506L34.4101 41.3121Z" fill="#9AA2AF"/>
</svg>
