<svg width="21" height="20" viewBox="0 0 21 20" fill="none" xmlns="http://www.w3.org/2000/svg">
<path d="M10.4998 15.8335C10.6647 15.8335 10.8258 15.7846 10.9628 15.6931C11.0999 15.6015 11.2067 15.4713 11.2697 15.3191C11.3328 15.1668 11.3493 14.9992 11.3172 14.8376C11.285 14.6759 11.2056 14.5274 11.0891 14.4109C10.9725 14.2944 10.8241 14.215 10.6624 14.1828C10.5008 14.1507 10.3332 14.1672 10.1809 14.2303C10.0287 14.2933 9.89851 14.4001 9.80695 14.5372C9.71538 14.6742 9.6665 14.8353 9.6665 15.0002C9.6665 15.2212 9.7543 15.4331 9.91058 15.5894C10.0669 15.7457 10.2788 15.8335 10.4998 15.8335ZM14.6665 15.8335C14.8313 15.8335 14.9924 15.7846 15.1295 15.6931C15.2665 15.6015 15.3733 15.4713 15.4364 15.3191C15.4995 15.1668 15.516 14.9992 15.4838 14.8376C15.4517 14.6759 15.3723 14.5274 15.2558 14.4109C15.1392 14.2944 14.9907 14.215 14.8291 14.1828C14.6674 14.1507 14.4999 14.1672 14.3476 14.2303C14.1953 14.2933 14.0652 14.4001 13.9736 14.5372C13.882 14.6742 13.8332 14.8353 13.8332 15.0002C13.8332 15.2212 13.921 15.4331 14.0772 15.5894C14.2335 15.7457 14.4455 15.8335 14.6665 15.8335ZM14.6665 12.5002C14.8313 12.5002 14.9924 12.4513 15.1295 12.3597C15.2665 12.2682 15.3733 12.138 15.4364 11.9857C15.4995 11.8335 15.516 11.6659 15.4838 11.5043C15.4517 11.3426 15.3723 11.1941 15.2558 11.0776C15.1392 10.961 14.9907 10.8817 14.8291 10.8495C14.6674 10.8174 14.4999 10.8339 14.3476 10.8969C14.1953 10.96 14.0652 11.0668 13.9736 11.2039C13.882 11.3409 13.8332 11.502 13.8332 11.6668C13.8332 11.8878 13.921 12.0998 14.0772 12.2561C14.2335 12.4124 14.4455 12.5002 14.6665 12.5002ZM10.4998 12.5002C10.6647 12.5002 10.8258 12.4513 10.9628 12.3597C11.0999 12.2682 11.2067 12.138 11.2697 11.9857C11.3328 11.8335 11.3493 11.6659 11.3172 11.5043C11.285 11.3426 11.2056 11.1941 11.0891 11.0776C10.9725 10.961 10.8241 10.8817 10.6624 10.8495C10.5008 10.8174 10.3332 10.8339 10.1809 10.8969C10.0287 10.96 9.89851 11.0668 9.80695 11.2039C9.71538 11.3409 9.6665 11.502 9.6665 11.6668C9.6665 11.8878 9.7543 12.0998 9.91058 12.2561C10.0669 12.4124 10.2788 12.5002 10.4998 12.5002ZM16.3332 2.50016H15.4998V1.66683C15.4998 1.44582 15.412 1.23385 15.2558 1.07757C15.0995 0.921293 14.8875 0.833496 14.6665 0.833496C14.4455 0.833496 14.2335 0.921293 14.0772 1.07757C13.921 1.23385 13.8332 1.44582 13.8332 1.66683V2.50016H7.1665V1.66683C7.1665 1.44582 7.07871 1.23385 6.92243 1.07757C6.76615 0.921293 6.55418 0.833496 6.33317 0.833496C6.11216 0.833496 5.9002 0.921293 5.74392 1.07757C5.58764 1.23385 5.49984 1.44582 5.49984 1.66683V2.50016H4.6665C4.00346 2.50016 3.36758 2.76355 2.89874 3.2324C2.4299 3.70124 2.1665 4.33712 2.1665 5.00016V16.6668C2.1665 17.3299 2.4299 17.9658 2.89874 18.4346C3.36758 18.9034 4.00346 19.1668 4.6665 19.1668H16.3332C16.9962 19.1668 17.6321 18.9034 18.1009 18.4346C18.5698 17.9658 18.8332 17.3299 18.8332 16.6668V5.00016C18.8332 4.33712 18.5698 3.70124 18.1009 3.2324C17.6321 2.76355 16.9962 2.50016 16.3332 2.50016ZM17.1665 16.6668C17.1665 16.8878 17.0787 17.0998 16.9224 17.2561C16.7661 17.4124 16.5542 17.5002 16.3332 17.5002H4.6665C4.44549 17.5002 4.23353 17.4124 4.07725 17.2561C3.92097 17.0998 3.83317 16.8878 3.83317 16.6668V9.16683H17.1665V16.6668ZM17.1665 7.50016H3.83317V5.00016C3.83317 4.77915 3.92097 4.56719 4.07725 4.41091C4.23353 4.25463 4.44549 4.16683 4.6665 4.16683H5.49984V5.00016C5.49984 5.22118 5.58764 5.43314 5.74392 5.58942C5.9002 5.7457 6.11216 5.8335 6.33317 5.8335C6.55418 5.8335 6.76615 5.7457 6.92243 5.58942C7.07871 5.43314 7.1665 5.22118 7.1665 5.00016V4.16683H13.8332V5.00016C13.8332 5.22118 13.921 5.43314 14.0772 5.58942C14.2335 5.7457 14.4455 5.8335 14.6665 5.8335C14.8875 5.8335 15.0995 5.7457 15.2558 5.58942C15.412 5.43314 15.4998 5.22118 15.4998 5.00016V4.16683H16.3332C16.5542 4.16683 16.7661 4.25463 16.9224 4.41091C17.0787 4.56719 17.1665 4.77915 17.1665 5.00016V7.50016ZM6.33317 12.5002C6.49799 12.5002 6.6591 12.4513 6.79615 12.3597C6.93319 12.2682 7.04 12.138 7.10307 11.9857C7.16614 11.8335 7.18265 11.6659 7.15049 11.5043C7.11834 11.3426 7.03897 11.1941 6.92243 11.0776C6.80588 10.961 6.6574 10.8817 6.49575 10.8495C6.3341 10.8174 6.16654 10.8339 6.01427 10.8969C5.862 10.96 5.73185 11.0668 5.64028 11.2039C5.54871 11.3409 5.49984 11.502 5.49984 11.6668C5.49984 11.8878 5.58764 12.0998 5.74392 12.2561C5.9002 12.4124 6.11216 12.5002 6.33317 12.5002ZM6.33317 15.8335C6.49799 15.8335 6.6591 15.7846 6.79615 15.6931C6.93319 15.6015 7.04 15.4713 7.10307 15.3191C7.16614 15.1668 7.18265 14.9992 7.15049 14.8376C7.11834 14.6759 7.03897 14.5274 6.92243 14.4109C6.80588 14.2944 6.6574 14.215 6.49575 14.1828C6.3341 14.1507 6.16654 14.1672 6.01427 14.2303C5.862 14.2933 5.73185 14.4001 5.64028 14.5372C5.54871 14.6742 5.49984 14.8353 5.49984 15.0002C5.49984 15.2212 5.58764 15.4331 5.74392 15.5894C5.9002 15.7457 6.11216 15.8335 6.33317 15.8335Z" fill="#679AB4"/>
</svg>
