<svg width="281" height="291" viewBox="0 0 281 291" fill="none" xmlns="http://www.w3.org/2000/svg">
<g clip-path="url(#clip0_905_534823)">
<path d="M181.576 226.527L137.392 274.432C123.412 289.589 98.1214 282.139 94.5972 261.82L83.4544 197.61L24.2454 170.389C5.5132 161.776 4.78204 135.425 23.0171 125.788L80.6395 95.3502L88.2289 30.6283C90.6271 10.1486 115.472 1.31627 130.263 15.6762L177.02 61.0663L240.923 48.2857C261.14 44.2424 277.218 65.1316 268.13 83.6444L239.41 142.144L271.318 198.97C281.415 216.949 266.507 238.693 246.1 235.776L181.59 226.534L181.576 226.527Z" fill="#F2F3F5"/>
<path d="M194.568 153.426C201.836 144.571 204.117 137.604 204.117 137.604C204.117 137.604 215.735 146.187 228.881 147.62C228.881 147.62 227.718 155.634 219.851 165.387C204.833 160.832 194.575 153.426 194.575 153.426H194.568Z" fill="white"/>
<path d="M75.2068 119.61C64.1517 116.744 48.1028 120.107 48.1028 120.107C48.1028 120.107 50.5449 138.459 44.0303 154.098C44.0303 154.098 61.9363 152.519 72.9914 155.385C77.1663 135.71 75.2068 119.617 75.2068 119.617V119.61Z" fill="white"/>
<path d="M69.1675 116.005C58.6023 111.677 42.2463 112.839 42.2463 112.839C42.2463 112.839 42.1951 131.352 33.626 145.968C33.626 145.968 44.8858 146.502 54.8222 148.871L57.7029 148.249C57.7029 148.249 64.4223 144.162 64.8756 142.531C69.0066 127.55 69.1675 116.005 69.1675 116.005Z" fill="#D1D5DB"/>
<path d="M54.8223 148.878C54.8223 148.878 60.1889 147.452 58.7851 144.016C58.7851 144.016 60.6715 143.168 64.8683 142.539C64.8683 142.539 60.9713 148.944 54.8149 148.878H54.8223Z" fill="#9AA2AF"/>
<path d="M166.316 81.9989C175.163 76.5518 190.02 75.1846 190.02 75.1846C190.02 75.1846 192.799 91.8037 202.648 103.656C202.648 103.656 192.616 105.798 184.047 109.395L181.371 109.264C181.371 109.264 174.732 106.588 174.089 105.191C168.166 92.3448 166.316 82.0063 166.316 82.0063V81.9989Z" fill="white"/>
<path d="M184.047 109.395C184.047 109.395 179.016 108.905 179.769 105.615C179.769 105.615 177.949 105.132 174.088 105.183C174.088 105.183 178.534 110.36 184.047 109.395Z" fill="#D1D5DB"/>
<path d="M169.994 70.0371C176.067 70.0371 180.99 65.1138 180.99 59.0405C180.99 52.9673 176.067 48.0439 169.994 48.0439C163.92 48.0439 158.997 52.9673 158.997 59.0405C158.997 65.1138 163.92 70.0371 169.994 70.0371Z" fill="white"/>
<path d="M267.669 47.0057C267.669 72.7643 246.787 93.6461 221.029 93.6461H216.627C196.688 88.3452 174.388 68.6113 174.388 47.0057C174.388 25.4 196.732 5.68805 216.634 0.365234H221.036C246.795 0.365234 267.676 21.247 267.676 47.0057H267.669Z" fill="#F5AC66"/>
<path d="M216.635 93.6461C242.393 93.6461 263.275 72.7645 263.275 47.0057C263.275 21.2469 242.393 0.365234 216.635 0.365234C190.876 0.365234 169.994 21.2469 169.994 47.0057C169.994 72.7645 190.876 93.6461 216.635 93.6461Z" fill="#F47B20"/>
<g opacity="0.32">
<path opacity="0.8" d="M218.528 0.416992L263.136 43.6722C261.469 20.0997 242.29 1.36749 218.528 0.416992Z" fill="#F5AC66"/>
<path opacity="0.8" d="M172.641 31.5054C170.93 36.3529 169.994 41.5661 169.994 46.9985C169.994 51.115 170.535 55.1071 171.537 58.9091L206.106 92.4253C209.491 93.2076 213.015 93.6317 216.635 93.6317C222.067 93.6317 227.28 92.6958 232.128 90.9849L196.754 55.6116L172.641 31.498V31.5054Z" fill="#F5AC66"/>
<path opacity="0.8" d="M177.32 21.9353L242.912 85.5386C243.899 84.8659 244.857 84.1494 245.786 83.4036L180.245 17.8555C179.199 19.1569 178.227 20.5242 177.32 21.9353Z" fill="#F5AC66"/>
</g>
<path d="M211.297 69.8619C208.65 69.8619 206.113 68.809 204.249 66.9446L189.158 51.8535C185.261 47.9564 185.261 41.6466 189.158 37.7495C193.055 33.8525 199.365 33.8525 203.262 37.7495L211.297 45.7849L230.015 27.0673C233.912 23.1703 240.222 23.1703 244.119 27.0673C248.016 30.9644 248.016 37.2743 244.119 41.1713L218.345 66.9446C216.474 68.8163 213.937 69.8692 211.297 69.8692V69.8619Z" fill="white"/>
<path d="M216.634 94.0047C190.715 94.0047 169.628 72.9182 169.628 46.9987C169.628 21.0792 190.715 0 216.634 0C242.554 0 263.64 21.0865 263.64 47.006C263.64 72.9255 242.554 94.012 216.634 94.012V94.0047ZM216.634 0.731156C191.117 0.731156 170.36 21.4887 170.36 47.006C170.36 72.5233 191.117 93.2809 216.634 93.2809C242.152 93.2809 262.909 72.5233 262.909 47.006C262.909 21.4887 242.152 0.731156 216.634 0.731156Z" fill="white"/>
<path d="M216.635 84.6173C195.892 84.6173 179.024 67.7422 179.024 47.0066C179.024 26.2711 195.899 9.38867 216.635 9.38867C237.37 9.38867 254.253 26.2637 254.253 47.0066C254.253 67.7495 237.377 84.6173 216.635 84.6173ZM216.635 10.1198C196.294 10.1198 179.755 26.6659 179.755 47.0066C179.755 67.3474 196.301 83.8861 216.635 83.8861C236.968 83.8861 253.521 67.3401 253.521 47.0066C253.521 26.6732 236.975 10.1198 216.635 10.1198Z" fill="white"/>
<path d="M248.833 59.9912L236.323 77.8753L240.747 78.4529L249.864 65.431C251.1 63.6689 250.676 61.2049 248.877 60.0205C248.855 60.0058 248.841 59.9985 248.841 59.9985L248.833 59.9912Z" fill="white"/>
<path d="M255.721 61L241.324 77.4071L244.512 81.0337L256.145 66.5202C257.571 64.9044 257.41 62.4111 255.757 61.0292C255.735 61.0146 255.728 61.0073 255.721 61Z" fill="white"/>
<path d="M257.344 64.875L242.948 81.2821L247.284 82.3423L257.768 70.3952C259.194 68.7794 259.033 66.2861 257.381 64.9042C257.359 64.8896 257.352 64.8823 257.344 64.875Z" fill="white"/>
<path d="M257.893 72.0193C257.893 72.0193 257.864 71.99 257.856 71.99L248.373 81.6559L240.075 75.7482L235.205 78.7166C235.125 78.7825 235.044 78.8556 234.971 78.936L229.458 72.5749C228.42 71.3758 226.855 70.7763 225.283 70.9591L224.859 71.0103C224.172 71.0907 223.777 71.8365 224.106 72.4506L230.92 85.0923L226.629 93.0034L233.45 102.223L236.126 98.8819L237.084 98.7064C238.598 98.4359 239.958 97.6243 240.923 96.4252L257.966 77.5249C259.479 75.9894 259.457 73.4889 257.886 72.0266L257.893 72.0193Z" fill="white"/>
<path d="M244.944 79.3746C244.856 79.3746 244.768 79.3453 244.702 79.2868C244.549 79.1552 244.534 78.9213 244.666 78.7677L254.785 67.2374C254.916 67.0839 255.15 67.0692 255.304 67.2008C255.458 67.3325 255.472 67.5664 255.341 67.72L245.221 79.2503C245.148 79.3307 245.046 79.3746 244.944 79.3746Z" fill="#676F7C"/>
<path d="M226.629 93.3688C226.57 93.3688 226.512 93.3541 226.453 93.3249C226.278 93.2298 226.212 93.0105 226.307 92.8277L230.643 84.8289L223.785 72.6259C223.572 72.2237 223.572 71.7485 223.785 71.3537C223.997 70.9588 224.377 70.6883 224.823 70.6371L225.247 70.5859C226.936 70.3812 228.625 71.0319 229.736 72.3261L235.03 78.4459C235.834 77.9487 238.196 76.7788 240.799 78.1827C240.974 78.2777 241.04 78.4971 240.945 78.6798C240.85 78.8553 240.63 78.9211 240.448 78.8261C237.706 77.3491 235.205 79.199 235.176 79.2209C235.022 79.3379 234.803 79.3159 234.679 79.1697L229.173 72.8087C228.215 71.7046 226.775 71.1416 225.32 71.3171L224.896 71.3683C224.691 71.3902 224.516 71.5145 224.421 71.6973C224.326 71.8801 224.326 72.0921 224.421 72.2749L231.374 84.6461C231.432 84.7557 231.44 84.8874 231.374 84.997L226.943 93.1714C226.877 93.2956 226.753 93.3615 226.621 93.3615L226.629 93.3688Z" fill="#676F7C"/>
<path d="M235.308 99.8978L228.443 89.6543L199.006 125.942L173.679 117.745C167.033 115.596 160.248 113.921 153.368 112.744L142.152 110.821L106.493 116.305L100.856 119.632C93.4859 123.982 86.7008 129.261 80.6687 135.337L54.9979 161.191L24.7207 134.701L15.6982 144.922L47.35 180.42C51.7735 185.377 59.3044 186.006 64.4883 181.846L76.7863 171.968L92.3453 159.472C92.3453 159.472 101.514 165.87 113.103 196.001C119.281 212.064 117.387 227.09 116.261 232.529L116.035 232.544L105.162 278.176C114.711 284.566 128.399 284.193 137.399 274.432L181.583 226.527L184.529 226.951L172.158 206.632C164.254 188.375 165.359 160.935 163.618 145.983L194.758 146.604C201.777 146.743 208.358 143.175 212.072 137.216L235.323 99.8978H235.308Z" fill="#B3B9C3"/>
<path d="M130.629 112.007L106.486 120.81V84.0254L124.414 87.1036L130.629 112.007Z" fill="white"/>
<path d="M141.808 86.2182C141.808 86.2182 140.953 99.0281 145.698 108.65H129.788L124.136 98.3554L141.808 86.2109V86.2182Z" fill="#6E9FBB"/>
<path d="M96.3304 104.453C103.817 101.346 101.134 107.955 106.486 105.404V84.0247L127.872 51.0495C127.872 51.0495 123.844 44.3448 112.482 48.198C101.156 52.0366 78.885 63.0697 89.4576 104.453C89.4576 104.453 92.4407 106.062 96.3231 104.453H96.3304Z" fill="#34383E"/>
<path d="M140.96 97.1261C142.386 96.4827 144.089 96.1756 144.089 96.1756C147.694 67.9383 140.119 51.8968 131.506 49.6594C124.794 47.912 122.06 52.489 122.06 52.489L123.398 103.319C127.119 103.231 129.393 102.573 131.382 101.769C138.182 99.0198 135.739 99.4804 140.953 97.1188L140.96 97.1261Z" fill="#676F7C"/>
<path d="M113.096 96.0739L113.593 98.7646C113.593 98.7646 118.104 108.942 129.415 107.129L126.644 95.3428L113.096 96.0739Z" fill="#9AA2AF"/>
<path d="M104.863 84.0252C107.548 84.0252 109.725 81.8483 109.725 79.163C109.725 76.4777 107.548 74.3008 104.863 74.3008C102.178 74.3008 100.001 76.4777 100.001 79.163C100.001 81.8483 102.178 84.0252 104.863 84.0252Z" fill="white"/>
<path d="M107.59 81.8312C107.415 81.8312 107.254 81.6996 107.232 81.5168L106.918 79.3453C106.698 77.8245 105.273 76.7643 103.759 76.991C103.562 77.0129 103.372 76.8813 103.342 76.6839C103.313 76.4865 103.452 76.2964 103.649 76.2671C105.565 75.9893 107.356 77.32 107.641 79.2429L107.956 81.4145C107.985 81.6119 107.846 81.802 107.649 81.8312C107.634 81.8312 107.612 81.8312 107.598 81.8312H107.59Z" fill="#676F7C"/>
<path d="M107.276 79.6589C107.276 79.6589 107.254 79.6589 107.239 79.6589L103.788 79.3519C103.584 79.3372 103.437 79.1544 103.459 78.957C103.481 78.7523 103.649 78.6134 103.854 78.628L107.305 78.9351C107.51 78.9497 107.656 79.1325 107.634 79.3299C107.619 79.52 107.459 79.6663 107.269 79.6663L107.276 79.6589Z" fill="#676F7C"/>
<path d="M138.526 71.5007C138.292 69.9653 138.153 68.4299 137.977 66.8944C137.122 59.5609 130.892 53.8652 123.325 53.8652C115.757 53.8652 109.528 59.5609 108.672 66.8944C108.497 68.4372 108.358 69.9726 108.124 71.5007C107.51 75.544 106.486 82.702 106.486 85.4512C106.486 94.7515 114.025 102.29 123.325 102.29C132.625 102.29 140.163 94.7515 140.163 85.4512C140.163 82.7093 139.14 75.544 138.526 71.5007Z" fill="white"/>
<path d="M127.068 60.2765C127.068 60.2765 133.225 68.8822 139.191 67.8512C145.157 66.8276 134.087 53.8496 134.087 53.8496H128.582L127.068 60.2692V60.2765Z" fill="#676F7C"/>
<path d="M129.327 85.8382C129.21 85.8382 129.101 85.7871 129.028 85.6847C128.911 85.5165 128.947 85.2899 129.115 85.1729L130.943 83.8714C131.916 83.1768 132.369 81.9704 132.091 80.8006L129.817 72.48C129.766 72.2826 129.876 72.0852 130.073 72.034C130.271 71.9828 130.468 72.0925 130.519 72.2899L132.8 80.6178C133.151 82.0874 132.588 83.5936 131.367 84.4637L129.539 85.7651C129.474 85.809 129.4 85.8309 129.327 85.8309V85.8382Z" fill="#676F7C"/>
<path d="M129.306 91.9359C123.003 91.9359 121.972 87.2199 121.965 87.176C121.928 86.9786 122.053 86.7885 122.25 86.7446C122.447 86.7081 122.638 86.8324 122.681 87.0298C122.718 87.198 123.617 91.2047 129.306 91.2047H129.328C129.532 91.2047 129.693 91.3656 129.693 91.5703C129.693 91.7823 129.51 91.9285 129.306 91.9359Z" fill="#676F7C"/>
<path d="M124.136 76.7272C125.283 76.7272 126.213 75.7975 126.213 74.6507C126.213 73.5039 125.283 72.5742 124.136 72.5742C122.989 72.5742 122.06 73.5039 122.06 74.6507C122.06 75.7975 122.989 76.7272 124.136 76.7272Z" fill="#676F7C"/>
<path d="M134.928 76.7272C136.075 76.7272 137.005 75.7975 137.005 74.6507C137.005 73.5039 136.075 72.5742 134.928 72.5742C133.781 72.5742 132.852 73.5039 132.852 74.6507C132.852 75.7975 133.781 76.7272 134.928 76.7272Z" fill="#676F7C"/>
<path d="M124.794 71.4998H122.316C121.512 71.4998 120.854 70.8418 120.854 70.0375C120.854 69.2332 121.512 68.5752 122.316 68.5752H124.794C125.599 68.5752 126.257 69.2332 126.257 70.0375C126.257 70.8418 125.599 71.4998 124.794 71.4998Z" fill="#676F7C"/>
<path d="M135.33 68.8602H132.851C132.047 68.8602 131.389 68.2021 131.389 67.3979C131.389 66.5936 132.047 65.9355 132.851 65.9355H135.33C136.134 65.9355 136.792 66.5936 136.792 67.3979C136.792 68.2021 136.134 68.8602 135.33 68.8602Z" fill="#676F7C"/>
<path d="M97.6831 155.181L92.3384 159.473C92.3384 159.473 101.507 165.87 113.096 196.001C119.274 212.065 117.38 227.09 116.254 232.53L116.028 232.544L105.156 278.176C140.061 188.441 107.517 163.794 97.6831 155.181Z" fill="#9AA2AF"/>
<path d="M163.612 145.983L158.091 129.978L187.645 146.458L163.612 145.983Z" fill="#9AA2AF"/>
<path d="M172.143 206.998C171.997 206.998 171.865 206.91 171.807 206.771C165.958 192.265 165.3 177.554 164.722 164.584C163.954 147.394 163.296 132.544 151.305 123.017C151.144 122.893 151.123 122.659 151.247 122.505C151.371 122.345 151.605 122.323 151.759 122.447C164.005 132.186 164.678 147.182 165.453 164.554C166.031 177.474 166.681 192.112 172.487 206.501C172.56 206.691 172.472 206.903 172.282 206.976C172.238 206.991 172.194 207.005 172.143 207.005V206.998Z" fill="#676F7C"/>
<path d="M116.247 232.887C116.247 232.887 116.196 232.887 116.174 232.88C115.976 232.836 115.852 232.646 115.889 232.449C116.781 228.164 119.193 212.875 112.752 196.125C101.361 166.506 92.2211 159.83 92.1261 159.764C91.9579 159.647 91.9213 159.421 92.0383 159.253C92.1553 159.084 92.382 159.048 92.5501 159.165C92.9303 159.428 101.938 165.965 113.439 195.862C119.954 212.802 117.512 228.259 116.612 232.595C116.576 232.77 116.422 232.887 116.254 232.887H116.247Z" fill="#676F7C"/>
<path d="M66.528 180.551C66.4184 180.551 66.316 180.507 66.2429 180.412C66.1186 180.251 66.1405 180.025 66.3014 179.9L97.4486 154.887C97.6095 154.763 97.8361 154.785 97.9604 154.946C98.0847 155.107 98.0628 155.333 97.9019 155.458L66.7547 180.471C66.6889 180.522 66.6085 180.551 66.528 180.551Z" fill="#676F7C"/>
<path d="M106.822 81.4731C106.822 81.4731 106.786 81.4731 106.764 81.4731C106.566 81.4438 106.427 81.2537 106.457 81.0563C107.641 73.3865 106.924 70.0451 106.917 70.0159C106.873 69.8184 106.998 69.621 107.195 69.5772C107.385 69.5333 107.59 69.6576 107.634 69.855C107.663 69.9939 108.387 73.3353 107.18 81.1733C107.151 81.3561 106.998 81.4804 106.822 81.4804V81.4731Z" fill="#34383E"/>
<path d="M106.486 116.671C106.281 116.671 106.12 116.51 106.12 116.305L106.135 86.2181C106.135 86.0134 106.296 85.8525 106.5 85.8525C106.705 85.8525 106.866 86.0134 106.866 86.2181L106.851 116.305C106.851 116.51 106.69 116.671 106.486 116.671Z" fill="#676F7C"/>
<path d="M204.673 182.489L201.704 184.054C200.761 184.551 199.664 183.747 199.847 182.701L200.418 179.396L198.012 177.057C197.252 176.318 197.668 175.024 198.721 174.87L202.041 174.388L203.525 171.383C203.993 170.432 205.353 170.432 205.821 171.383L207.305 174.388L210.625 174.87C211.677 175.024 212.094 176.311 211.334 177.057L208.928 179.396L209.499 182.701C209.681 183.747 208.577 184.544 207.641 184.054L204.673 182.489Z" fill="white"/>
<path d="M33.721 99.2319L28.2812 100.723C26.563 101.199 25.0422 99.4878 25.7149 97.8354L27.8352 92.6076L24.7351 87.899C23.7554 86.4074 24.9106 84.4406 26.6873 84.5649L32.3099 84.967L35.8341 80.5655C36.9454 79.169 39.1754 79.6588 39.6068 81.3917L40.9595 86.868L46.2384 88.8568C47.9055 89.4856 48.1321 91.7595 46.6186 92.7027L41.8295 95.6785L41.5663 101.316C41.4859 103.1 39.3948 104.014 38.0275 102.866L33.7137 99.2319H33.721Z" fill="#F2F3F5"/>
<path d="M64.7366 75.8648C67.1473 75.8648 69.1016 73.9105 69.1016 71.4998C69.1016 69.089 67.1473 67.1348 64.7366 67.1348C62.3259 67.1348 60.3716 69.089 60.3716 71.4998C60.3716 73.9105 62.3259 75.8648 64.7366 75.8648Z" fill="#F2F3F5"/>
<path d="M252.746 146.904C255.157 146.904 257.111 144.95 257.111 142.539C257.111 140.128 255.157 138.174 252.746 138.174C250.335 138.174 248.381 140.128 248.381 142.539C248.381 144.95 250.335 146.904 252.746 146.904Z" fill="#F2F3F5"/>
<path d="M89.1864 51.8317C93.1316 51.8317 96.3298 48.6335 96.3298 44.6883C96.3298 40.7431 93.1316 37.5449 89.1864 37.5449C85.2412 37.5449 82.043 40.7431 82.043 44.6883C82.043 48.6335 85.2412 51.8317 89.1864 51.8317Z" fill="white"/>
<path d="M13.4241 173.386C15.8348 173.386 17.7891 171.432 17.7891 169.021C17.7891 166.611 15.8348 164.656 13.4241 164.656C11.0134 164.656 9.05908 166.611 9.05908 169.021C9.05908 171.432 11.0134 173.386 13.4241 173.386Z" fill="white"/>
<path d="M273.613 111.662C277.162 111.662 280.04 108.785 280.04 105.235C280.04 101.686 277.162 98.8086 273.613 98.8086C270.063 98.8086 267.186 101.686 267.186 105.235C267.186 108.785 270.063 111.662 273.613 111.662Z" fill="#F2F3F5"/>
<path d="M201.082 126.497C200.439 126.497 199.73 126.439 198.94 126.3C198.743 126.263 198.611 126.073 198.648 125.876C198.684 125.679 198.874 125.547 199.072 125.583C202.881 126.271 204.819 124.823 204.833 124.808C204.994 124.684 205.221 124.713 205.345 124.874C205.469 125.035 205.44 125.262 205.279 125.386C205.206 125.445 203.817 126.497 201.075 126.497H201.082Z" fill="#676F7C"/>
<path d="M104.863 88.6599C106.623 88.6599 108.05 87.2326 108.05 85.472C108.05 83.7114 106.623 82.2842 104.863 82.2842C103.102 82.2842 101.675 83.7114 101.675 85.472C101.675 87.2326 103.102 88.6599 104.863 88.6599Z" fill="#F2F3F5"/>
<path d="M129.685 53.3889C132.939 61.0002 127.418 70.5418 117.116 72.0114C111.932 72.7499 108.13 75.1188 106.822 81.107C106.822 81.107 107.165 75.053 106.032 74.4462C101.009 71.7628 112.941 52.7308 112.941 52.7308L127.389 52.3799C127.389 52.3799 129.385 52.7089 129.678 53.3889H129.685Z" fill="#34383E"/>
<path d="M108.05 73.7959C108.05 73.7959 108.036 73.7959 108.021 73.7959C107.816 73.7812 107.67 73.6058 107.685 73.4083C107.699 73.1671 108.204 67.3836 118.484 65.2048C121.438 64.576 122.9 62.7115 123.609 61.2565C124.706 59.0046 124.786 56.0288 123.807 54.0181C123.719 53.8353 123.792 53.616 123.975 53.5282C124.158 53.4405 124.377 53.5136 124.465 53.6964C125.554 55.9337 125.474 59.0996 124.267 61.5709C123.485 63.1722 121.876 65.2267 118.63 65.914C108.928 67.9759 108.408 73.401 108.408 73.4522C108.394 73.6423 108.233 73.7885 108.043 73.7885L108.05 73.7959Z" fill="#676F7C"/>
<path d="M116.451 51.0632L118.557 47.0126C118.557 47.0126 130.394 45.755 130.175 57.3584L126.636 56.9855L124.64 52.9422L122.059 53.8562L116.451 51.0632Z" fill="#34383E"/>
<path d="M111.421 112.079L104.292 117.599L98.2163 121.189C98.2163 121.189 133.202 144.265 142.137 110.821L129.78 108.657L111.414 112.086L111.421 112.079Z" fill="white"/>
<path d="M98.8082 102.786C98.7132 102.786 98.6181 102.749 98.5523 102.676C98.4792 102.603 96.7318 100.819 95.54 97.3897C94.4432 94.2384 93.6317 89.0399 95.9933 82.1744C96.0591 81.9843 96.2638 81.8819 96.4612 81.9477C96.6513 82.0135 96.7537 82.2182 96.6879 82.4156C92.301 95.1597 99.0056 102.098 99.0714 102.164C99.2104 102.31 99.2104 102.537 99.0714 102.683C98.9983 102.756 98.9106 102.793 98.8155 102.793L98.8082 102.786Z" fill="#676F7C"/>
<path d="M177.949 208.065C170.411 215.662 205.046 210.464 202.392 229.51L205.945 230.022C207.634 227.748 209.221 225.255 209.55 224.144C215.033 205.601 191.38 194.539 177.949 208.073V208.065Z" fill="white"/>
<path d="M211.443 227.792C211.443 227.792 211.414 227.792 211.406 227.792C211.209 227.77 211.063 227.587 211.085 227.39C211.136 226.929 216.261 181.415 242.729 175.309C251.445 173.299 254.515 176.582 255.561 179.696C259.056 190.115 245.127 213.454 234.803 218.075C234.621 218.155 234.401 218.075 234.321 217.892C234.24 217.709 234.321 217.49 234.504 217.409C244.623 212.884 258.281 190.093 254.874 179.93C253.492 175.821 249.463 174.505 242.897 176.026C216.934 182.014 211.86 227.017 211.816 227.47C211.794 227.66 211.64 227.799 211.45 227.799L211.443 227.792Z" fill="#676F7C"/>
<path d="M223.04 213.33C222.981 213.33 222.923 213.315 222.864 213.286C222.689 213.191 222.623 212.964 222.718 212.789C223.252 211.809 235.842 188.756 246.342 182.585C246.51 182.482 246.736 182.541 246.839 182.716C246.941 182.892 246.883 183.111 246.707 183.213C236.383 189.275 223.486 212.898 223.354 213.132C223.288 213.257 223.164 213.322 223.032 213.322L223.04 213.33Z" fill="#B3B9C3"/>
<path d="M205.294 229.927L218.47 231.814C218.47 231.814 226.922 219.903 234.687 222.418C242.452 224.926 241.881 215.721 241.881 215.721L225.818 212.533L214.551 219.691L205.294 229.927Z" fill="#A8C5D6"/>
<path d="M233.086 206.573C221.358 210.449 211.963 219.603 204.695 229.832L206.355 230.073C211.714 223.704 228.399 206.179 235.901 225.013C237.59 229.254 239.33 232.53 241.07 235.052C247.731 244.711 254.37 243.16 257.923 240.894C260.738 239.095 262.697 235.71 263.648 231.703C266.814 218.36 258.691 198.107 233.086 206.581V206.573Z" fill="#519BC6"/>
<path d="M3.95539 116.788C5.1022 116.788 6.03187 115.858 6.03187 114.711C6.03187 113.564 5.1022 112.635 3.95539 112.635C2.80858 112.635 1.87891 113.564 1.87891 114.711C1.87891 115.858 2.80858 116.788 3.95539 116.788Z" fill="#F2F3F5"/>
<path d="M4.22614 122.103C5.44968 122.103 6.44155 121.111 6.44155 119.887C6.44155 118.664 5.44968 117.672 4.22614 117.672C3.00261 117.672 2.01074 118.664 2.01074 119.887C2.01074 121.111 3.00261 122.103 4.22614 122.103Z" fill="#F2F3F5"/>
<path d="M3.07087 125.985C4.2944 125.985 5.28627 124.994 5.28627 123.77C5.28627 122.547 4.2944 121.555 3.07087 121.555C1.84734 121.555 0.855469 122.547 0.855469 123.77C0.855469 124.994 1.84734 125.985 3.07087 125.985Z" fill="#F2F3F5"/>
<path d="M2.2154 129.634C3.43893 129.634 4.4308 128.642 4.4308 127.419C4.4308 126.195 3.43893 125.203 2.2154 125.203C0.991869 125.203 0 126.195 0 127.419C0 128.642 0.991869 129.634 2.2154 129.634Z" fill="#F2F3F5"/>
<path d="M24.377 135.008L21.3574 131.513C19.1639 124.889 16.773 123.733 14.9086 122.498L4.69433 113.029L3.10041 116.678L4.79669 118.25L0.460938 128.72L17.0947 145.434L24.377 135.008Z" fill="#F2F3F5"/>
<path d="M9.24902 122.915C11.9689 120.736 14.9155 122.498 14.9155 122.498L20.2749 114.77C21.123 113.541 22.5268 112.817 24.0184 112.839H24.4205C25.0712 112.854 25.5172 113.512 25.276 114.119L20.0043 130.409L16.97 133.955L9.24902 122.907V122.915Z" fill="#F2F3F5"/>
<path d="M24.3769 135.374C24.2745 135.374 24.1722 135.33 24.0991 135.249L21.0794 131.754C20.1289 130.658 19.8291 129.122 20.2897 127.748L24.918 114.009C24.9911 113.812 24.9765 113.622 24.8668 113.468C24.7644 113.315 24.5963 113.22 24.4062 113.22H23.9528C22.6002 113.22 21.3353 113.878 20.5676 114.989L15.2082 122.717C15.0985 122.871 14.8865 122.922 14.7183 122.82C14.616 122.761 12.1593 121.343 9.76841 122.981C9.60025 123.098 9.37359 123.054 9.2566 122.885C9.13962 122.717 9.18349 122.491 9.35166 122.374C11.6402 120.802 13.9652 121.643 14.7841 122.03L19.9607 114.565C20.882 113.234 22.4247 112.459 24.0113 112.474H24.4135C24.8375 112.481 25.2324 112.7 25.4736 113.051C25.7149 113.41 25.7588 113.856 25.5979 114.251L20.977 127.974C20.5968 129.108 20.8454 130.365 21.6205 131.272L24.6401 134.767C24.7717 134.92 24.7571 135.154 24.6036 135.286C24.5378 135.344 24.45 135.374 24.3623 135.374H24.3769Z" fill="#676F7C"/>
<path d="M8.32059 120.304C7.85265 120.304 7.3774 120.202 6.9314 119.99C6.74861 119.902 6.66818 119.683 6.75592 119.5C6.84366 119.317 7.05569 119.236 7.2458 119.324C8.28404 119.814 9.49044 119.544 10.2216 118.688L4.45278 113.285C4.30655 113.146 4.29924 112.919 4.43816 112.766C4.57708 112.62 4.80373 112.612 4.95728 112.751L10.9674 118.374C11.099 118.498 11.1209 118.695 11.0186 118.842C10.3971 119.77 9.38077 120.289 8.32791 120.289L8.32059 120.304Z" fill="#676F7C"/>
<path d="M8.4813 125.539C8.01336 125.539 7.53811 125.437 7.09211 125.225C6.90932 125.137 6.82889 124.918 6.91663 124.735C7.00437 124.552 7.2164 124.472 7.4065 124.559C8.44474 125.049 9.65115 124.779 10.3823 123.923L2.67592 116.707C2.52969 116.568 2.52238 116.341 2.6613 116.188C2.80022 116.041 3.02688 116.034 3.18042 116.173L11.1281 123.609C11.2597 123.733 11.2816 123.931 11.1793 124.077C10.5578 125.005 9.54148 125.525 8.48861 125.525L8.4813 125.539Z" fill="#676F7C"/>
<path d="M6.88749 129.188C6.41955 129.188 5.9443 129.085 5.49829 128.873C5.3155 128.786 5.23508 128.566 5.32282 128.383C5.41055 128.201 5.62259 128.12 5.81269 128.208C6.85093 128.698 8.05734 128.427 8.7885 127.572L3.01967 122.169C2.87344 122.03 2.86613 121.803 3.00505 121.65C3.14397 121.503 3.37063 121.496 3.52417 121.635L9.53427 127.258C9.66588 127.382 9.68782 127.579 9.58545 127.725C8.96397 128.654 7.94767 129.173 6.8948 129.173L6.88749 129.188Z" fill="#676F7C"/>
<path d="M7.68462 131.557C7.59688 131.557 7.50183 131.528 7.43603 131.462L1.42592 125.84C1.27969 125.701 1.27238 125.474 1.4113 125.32C1.55022 125.174 1.77688 125.167 1.93042 125.306L7.94052 130.928C8.08675 131.067 8.09407 131.294 7.95515 131.448C7.88203 131.528 7.78698 131.565 7.68462 131.565V131.557Z" fill="#676F7C"/>
<path d="M121.591 112.839C121.591 112.839 90.8606 106.002 95.9568 58.2432C95.9568 58.2432 82.0356 69.927 83.2127 91.5692C83.9658 105.366 89.5592 106.909 89.179 111.596C88.7988 116.282 85.3185 124.742 89.4568 125.166C93.5952 125.59 111.399 123.396 111.399 123.396L121.584 112.839H121.591Z" fill="#519BC6"/>
<path d="M104.139 129.978C104.139 129.978 122.483 152.541 123.324 160.035C124.165 167.53 128.435 153.769 132.04 154.34C135.644 154.91 136.785 154.15 137.07 151.686C137.355 149.222 136.785 146.882 139.161 145.537C141.537 144.191 132.486 133.37 129.415 132.047C126.351 130.716 104.146 129.978 104.146 129.978H104.139Z" fill="#6E9FBB"/>
<path d="M152.519 114.609C152.519 114.609 140.623 138.54 116.459 135.008C92.294 131.477 95.2479 125.489 89.5229 127.419L86.3351 130.058C86.3351 130.058 84.3317 124.253 89.4718 122.082C89.4718 122.082 89.9543 119.91 93.5662 118.47C97.1781 117.022 98.7867 117.826 100.074 115.976C101.36 114.127 101.075 111.078 103.144 111.319C105.214 111.56 118.864 115.574 123.324 111.802C127.784 108.029 128.245 105.696 130.629 105.777C130.629 105.777 132.449 104.892 134.935 105.375C134.935 105.375 136.865 104.249 140.155 104.49C143.446 104.731 144.089 107.714 144.974 107.349C145.858 106.983 149.068 107.437 150.918 108.658C152.768 109.879 153.492 108.592 154.932 109.476C156.38 110.361 157.235 113.469 157.235 113.469C157.235 113.469 153.353 112.745 152.505 114.609H152.519Z" fill="#519BC6"/>
<path d="M110.222 125.401C108.226 125.401 106.039 125.079 103.7 124.267C92.6593 120.421 89.7055 122.352 89.6762 122.374C89.5154 122.491 89.2887 122.454 89.1644 122.293C89.0474 122.132 89.0767 121.906 89.2375 121.789C89.3618 121.694 92.3961 119.559 103.934 123.58C114.389 127.221 121.73 120.611 121.803 120.546C121.949 120.407 122.183 120.421 122.322 120.568C122.461 120.714 122.447 120.948 122.3 121.087C122.242 121.145 117.511 125.415 110.214 125.415L110.222 125.401Z" fill="#6E9FBB"/>
<path d="M127.06 129.364C126.329 129.364 125.839 129.313 125.781 129.305C125.584 129.283 125.437 129.101 125.459 128.903C125.481 128.706 125.649 128.56 125.861 128.582C125.905 128.582 130.563 129.086 133.188 126.812C134.321 125.832 134.92 124.451 134.972 122.718C135.184 115.435 141.216 107.883 144.893 106.998C145.091 106.947 145.288 107.071 145.332 107.268C145.376 107.466 145.259 107.663 145.061 107.707C142.064 108.431 135.907 115.435 135.695 122.74C135.637 124.685 134.957 126.242 133.655 127.368C131.659 129.093 128.727 129.371 127.053 129.371L127.06 129.364Z" fill="#6E9FBB"/>
<path d="M146.231 111.618C146.129 111.618 146.026 111.575 145.953 111.494C145.822 111.341 145.836 111.114 145.99 110.982C146.107 110.88 148.878 108.518 153.791 108.774C153.996 108.782 154.15 108.957 154.135 109.154C154.128 109.359 153.974 109.535 153.755 109.498C149.141 109.271 146.494 111.509 146.465 111.531C146.399 111.589 146.312 111.618 146.224 111.618H146.231Z" fill="#6E9FBB"/>
<path d="M119.961 118.184C118.798 118.184 117.541 117.994 116.166 117.577C109.059 115.391 105.893 116.086 104 116.502C103.714 116.568 103.451 116.619 103.21 116.663C103.013 116.7 102.822 116.568 102.786 116.363C102.749 116.166 102.881 115.976 103.086 115.939C103.32 115.895 103.568 115.844 103.846 115.786C105.813 115.354 109.096 114.631 116.385 116.875C124.201 119.281 128.091 113.702 131.213 109.22C132.478 107.407 133.568 105.842 134.745 105.067C134.913 104.957 135.14 105.001 135.249 105.169C135.359 105.338 135.315 105.564 135.147 105.674C134.079 106.376 133.026 107.882 131.813 109.637C129.239 113.336 125.861 118.184 119.968 118.184H119.961Z" fill="#6E9FBB"/>
<path d="M118.104 114.637C116.305 114.637 114.039 114.067 111.238 112.385C100.176 105.761 94.495 108.927 94.4438 108.964C94.2683 109.066 94.049 109.007 93.9466 108.832C93.8443 108.657 93.9028 108.437 94.0709 108.335C94.3122 108.189 100.14 104.891 111.619 111.764C119.756 116.633 122.893 111.808 123.017 111.603C123.127 111.435 123.346 111.376 123.522 111.486C123.69 111.596 123.749 111.815 123.639 111.991C123.617 112.027 121.943 114.637 118.104 114.645V114.637Z" fill="#6E9FBB"/>
<path d="M141.427 214.762C118.886 211.699 87.936 222.132 87.936 222.132C87.936 222.132 97.0973 257.864 87.8921 290.327C87.8921 290.327 122.944 282.979 145.485 286.043C149.104 246.136 141.435 214.77 141.435 214.77L141.427 214.762Z" fill="#F2F3F5"/>
<path d="M136.602 209.352C115.969 199.774 83.3152 200.593 83.3152 200.593C83.3152 200.593 81.5165 237.436 63.1353 265.731C63.1353 265.731 98.7937 269.065 119.427 278.644C134.672 241.589 136.602 209.352 136.602 209.352Z" fill="white"/>
<path d="M119.427 279.009C119.376 279.009 119.325 278.995 119.274 278.973C98.9403 269.526 63.4646 266.126 63.1063 266.097C62.982 266.082 62.865 266.009 62.8139 265.892C62.7627 265.775 62.77 265.644 62.8358 265.534C80.9538 237.64 82.9426 200.944 82.9572 200.578C82.9645 200.388 83.1181 200.234 83.3155 200.227C83.6445 200.227 116.291 199.511 136.763 209.023C136.902 209.089 136.982 209.228 136.975 209.374C136.953 209.696 134.862 242.093 119.771 278.783C119.734 278.878 119.661 278.951 119.566 278.987C119.522 279.002 119.478 279.009 119.435 279.009H119.427ZM63.7717 265.424C68.5096 265.914 100.205 269.446 119.237 278.146C133.451 243.417 136.003 212.642 136.222 209.571C117.007 200.761 87.1613 200.892 83.6664 200.944C83.4251 204.724 80.771 238.876 63.7717 265.417V265.424Z" fill="#676F7C"/>
<path d="M128.398 226.073C127.821 226.073 125.408 226.044 123.002 225.525C119.902 224.859 105.542 222.176 103.027 222.395C101.682 222.52 100 221.949 98.377 221.394C96.7611 220.845 95.0941 220.268 94.0485 220.538C92.3084 220.984 91.409 220.297 90.3708 219.5C89.9467 219.171 89.5007 218.835 88.945 218.52C87.1903 217.526 84.4192 219.493 84.3899 219.515C84.2291 219.632 83.9951 219.595 83.8781 219.434C83.7611 219.273 83.7977 219.039 83.9586 218.922C84.0902 218.827 87.1391 216.656 89.296 217.884C89.8955 218.228 90.3781 218.593 90.8022 218.922C91.7965 219.683 92.4546 220.187 93.8511 219.836C95.1014 219.515 96.7977 220.1 98.5963 220.714C100.146 221.24 101.74 221.796 102.939 221.679C105.681 221.423 120.802 224.318 123.134 224.816C125.751 225.378 128.471 225.349 128.493 225.349C128.691 225.349 128.859 225.51 128.859 225.708C128.859 225.912 128.698 226.073 128.501 226.08C128.486 226.08 128.442 226.08 128.376 226.08L128.398 226.073Z" fill="#676F7C"/>
<path d="M113.169 214.208C112.803 214.208 112.437 214.149 112.101 213.988C111.692 213.798 111.37 213.593 111.085 213.411C110.434 213.001 110.003 212.731 109.125 212.906C108.284 213.067 107.159 212.738 105.959 212.394C104.936 212.102 103.883 211.788 103.115 211.839C101.302 211.941 91.3875 210.274 89.7862 209.974C88.068 209.653 86.2913 209.645 86.2694 209.645C86.0647 209.645 85.9038 209.477 85.9038 209.28C85.9038 209.075 86.0647 208.914 86.2694 208.914C86.3279 208.921 88.1119 208.914 89.9179 209.258C91.9651 209.638 101.441 211.195 103.071 211.115C103.963 211.064 105.082 211.385 106.164 211.7C107.224 212.007 108.321 212.329 108.986 212.197C110.149 211.97 110.763 212.351 111.472 212.797C111.757 212.972 112.05 213.155 112.416 213.33C113.541 213.857 115.289 212.855 115.304 212.848C115.479 212.745 115.698 212.804 115.801 212.979C115.903 213.155 115.845 213.374 115.669 213.476C115.603 213.513 114.397 214.208 113.169 214.208Z" fill="#676F7C"/>
<path d="M124.816 247.482C124.816 247.482 124.757 247.482 124.728 247.475C124.655 247.46 117.292 245.684 115.164 246.137C113.892 246.407 112.225 245.764 110.463 245.084C108.935 244.499 107.348 243.899 106.164 243.951C106.105 243.951 106.04 243.951 105.974 243.951C102.779 243.951 88.3676 240.624 86.1156 240.046C83.5273 239.388 80.8074 239.315 80.7855 239.315C80.5808 239.315 80.4272 239.14 80.4272 238.942C80.4272 238.738 80.5808 238.606 80.8001 238.584C80.9171 238.584 83.6224 238.657 86.2911 239.337C89.362 240.119 103.62 243.344 106.12 243.212C107.473 243.139 109.132 243.775 110.726 244.389C112.313 245.004 113.958 245.64 115.011 245.406C117.299 244.916 124.596 246.671 124.903 246.744C125.101 246.795 125.218 246.992 125.174 247.182C125.13 247.351 124.984 247.46 124.816 247.46V247.482Z" fill="#676F7C"/>
<path d="M118.637 261.279C118.637 261.279 118.579 261.279 118.55 261.264C118.477 261.242 111.128 259.393 108.994 259.882C107.714 260.175 106.047 259.502 104.285 258.786C102.764 258.172 101.199 257.535 99.993 257.601C99.7809 257.63 99.6201 257.462 99.6055 257.258C99.5908 257.053 99.7444 256.885 99.9491 256.87C101.309 256.782 102.961 257.455 104.555 258.106C106.142 258.749 107.78 259.414 108.825 259.173C111.128 258.639 118.418 260.482 118.725 260.555C118.923 260.606 119.04 260.804 118.988 261.001C118.945 261.169 118.798 261.279 118.637 261.279Z" fill="#676F7C"/>
<path d="M116.531 265.469C116.531 265.469 116.473 265.469 116.444 265.454C116.371 265.432 109.023 263.582 106.888 264.072C105.615 264.365 103.941 263.692 102.179 262.975C100.658 262.361 99.0861 261.732 97.887 261.791C97.6896 261.813 97.5141 261.652 97.4995 261.447C97.4849 261.243 97.6384 261.074 97.8431 261.06C99.1958 260.965 100.855 261.645 102.449 262.295C104.036 262.939 105.674 263.604 106.719 263.363C109.023 262.829 116.312 264.672 116.619 264.745C116.817 264.796 116.934 264.993 116.882 265.191C116.839 265.359 116.692 265.469 116.531 265.469Z" fill="#676F7C"/>
<path d="M126.315 231.843C126.315 231.843 126.249 231.843 126.212 231.828C125.262 231.565 121.789 230.966 118.718 230.439C116.415 230.044 114.243 229.671 113.212 229.452C110.807 228.948 104.49 228.202 102.808 228.216H102.771C101.748 228.216 99.8394 227.675 97.9896 227.149C96.6881 226.776 95.4598 226.425 94.9333 226.396C93.6977 226.323 91.1752 225.833 89.2669 224.787C87.6291 223.895 83.9806 224.488 83.9441 224.495C83.7467 224.531 83.5566 224.393 83.52 224.195C83.4835 223.998 83.6224 223.808 83.8198 223.771C83.9806 223.742 87.7534 223.128 89.6105 224.144C91.4019 225.124 93.8439 225.592 94.9699 225.657C95.5695 225.694 96.7832 226.038 98.1797 226.44C99.8979 226.93 101.835 227.485 102.757 227.485C102.793 227.485 102.823 227.485 102.859 227.485C104.68 227.485 110.953 228.231 113.351 228.736C114.375 228.948 116.539 229.321 118.835 229.715C122.074 230.271 125.415 230.841 126.402 231.119C126.6 231.178 126.709 231.375 126.658 231.572C126.614 231.733 126.468 231.836 126.307 231.836L126.315 231.843Z" fill="#676F7C"/>
<path d="M126.914 236.617C126.914 236.617 126.885 236.617 126.878 236.617C126.848 236.617 124.114 236.317 121.445 235.864C118.338 235.33 103.927 232.961 101.419 232.756C100.147 232.654 98.4796 232.303 96.871 231.967C95.1309 231.601 93.4858 231.265 92.3964 231.228C90.8171 231.17 89.9762 230.899 88.9087 230.556C88.4774 230.417 88.0021 230.263 87.4172 230.102C85.4869 229.583 82.7451 229.868 82.7232 229.868C82.5331 229.89 82.343 229.744 82.321 229.547C82.2991 229.349 82.4453 229.166 82.6427 229.145C82.7597 229.13 85.5454 228.837 87.6073 229.393C88.2068 229.554 88.6967 229.715 89.1354 229.854C90.1883 230.19 90.9487 230.439 92.4183 230.49C93.5662 230.534 95.2406 230.877 97.0173 231.243C98.6039 231.572 100.249 231.916 101.477 232.018C104.175 232.245 119.237 234.738 121.562 235.133C124.209 235.586 126.922 235.879 126.951 235.879C127.148 235.9 127.294 236.083 127.272 236.281C127.251 236.471 127.097 236.61 126.907 236.61L126.914 236.617Z" fill="#676F7C"/>
<path d="M124.772 242.072C124.772 242.072 124.706 242.072 124.669 242.057C123.726 241.794 120.246 241.195 117.182 240.668C114.879 240.273 112.708 239.9 111.669 239.681C109.271 239.177 102.932 238.416 101.265 238.445C100.249 238.453 98.3184 237.904 96.4466 237.378C95.1452 237.005 93.9168 236.654 93.3904 236.625C92.1547 236.552 89.6322 236.062 87.7239 235.024C86.0861 234.124 82.4377 234.724 82.4011 234.731C82.2037 234.768 82.0136 234.629 81.977 234.431C81.9405 234.234 82.0794 234.044 82.2768 234.007C82.4377 233.978 86.2104 233.364 88.0676 234.38C89.8516 235.36 92.301 235.828 93.4269 235.894C94.0265 235.93 95.2402 236.274 96.6367 236.676C98.3549 237.166 100.292 237.722 101.214 237.722C101.25 237.722 101.28 237.722 101.316 237.722C103.137 237.722 109.41 238.467 111.808 238.972C112.832 239.184 114.996 239.557 117.292 239.952C120.524 240.507 123.872 241.078 124.852 241.355C125.049 241.414 125.159 241.611 125.108 241.809C125.064 241.97 124.918 242.072 124.757 242.072H124.772Z" fill="#676F7C"/>
</g>
<defs>
<clipPath id="clip0_905_534823">
<rect width="280.764" height="291" fill="white"/>
</clipPath>
</defs>
</svg>
