<svg width="28" height="28" viewBox="0 0 28 28" fill="none" xmlns="http://www.w3.org/2000/svg">
<rect width="28" height="28" rx="14" fill="#FCF4F6"/>
<path d="M12.75 17.75C12.9158 17.75 13.0747 17.6842 13.1919 17.5669C13.3092 17.4497 13.375 17.2908 13.375 17.125V13.375C13.375 13.2092 13.3092 13.0503 13.1919 12.9331C13.0747 12.8158 12.9158 12.75 12.75 12.75C12.5842 12.75 12.4253 12.8158 12.3081 12.9331C12.1908 13.0503 12.125 13.2092 12.125 13.375V17.125C12.125 17.2908 12.1908 17.4497 12.3081 17.5669C12.4253 17.6842 12.5842 17.75 12.75 17.75ZM19 10.25H16.5V9.625C16.5 9.12772 16.3025 8.65081 15.9508 8.29917C15.5992 7.94754 15.1223 7.75 14.625 7.75H13.375C12.8777 7.75 12.4008 7.94754 12.0492 8.29917C11.6975 8.65081 11.5 9.12772 11.5 9.625V10.25H9C8.83424 10.25 8.67527 10.3158 8.55806 10.4331C8.44085 10.5503 8.375 10.7092 8.375 10.875C8.375 11.0408 8.44085 11.1997 8.55806 11.3169C8.67527 11.4342 8.83424 11.5 9 11.5H9.625V18.375C9.625 18.8723 9.82254 19.3492 10.1742 19.7008C10.5258 20.0525 11.0027 20.25 11.5 20.25H16.5C16.9973 20.25 17.4742 20.0525 17.8258 19.7008C18.1775 19.3492 18.375 18.8723 18.375 18.375V11.5H19C19.1658 11.5 19.3247 11.4342 19.4419 11.3169C19.5592 11.1997 19.625 11.0408 19.625 10.875C19.625 10.7092 19.5592 10.5503 19.4419 10.4331C19.3247 10.3158 19.1658 10.25 19 10.25ZM12.75 9.625C12.75 9.45924 12.8158 9.30027 12.9331 9.18306C13.0503 9.06585 13.2092 9 13.375 9H14.625C14.7908 9 14.9497 9.06585 15.0669 9.18306C15.1842 9.30027 15.25 9.45924 15.25 9.625V10.25H12.75V9.625ZM17.125 18.375C17.125 18.5408 17.0592 18.6997 16.9419 18.8169C16.8247 18.9342 16.6658 19 16.5 19H11.5C11.3342 19 11.1753 18.9342 11.0581 18.8169C10.9408 18.6997 10.875 18.5408 10.875 18.375V11.5H17.125V18.375ZM15.25 17.75C15.4158 17.75 15.5747 17.6842 15.6919 17.5669C15.8092 17.4497 15.875 17.2908 15.875 17.125V13.375C15.875 13.2092 15.8092 13.0503 15.6919 12.9331C15.5747 12.8158 15.4158 12.75 15.25 12.75C15.0842 12.75 14.9253 12.8158 14.8081 12.9331C14.6908 13.0503 14.625 13.2092 14.625 13.375V17.125C14.625 17.2908 14.6908 17.4497 14.8081 17.5669C14.9253 17.6842 15.0842 17.75 15.25 17.75Z" fill="#C4314B"/>
</svg>
