<svg width="20" height="20" viewBox="0 0 20 20" fill="none" xmlns="http://www.w3.org/2000/svg">
<path d="M10.0002 11.667C9.77915 11.667 9.56719 11.7548 9.41091 11.9111C9.25463 12.0674 9.16683 12.2793 9.16683 12.5003V14.167C9.16683 14.388 9.25463 14.6 9.41091 14.7562C9.56719 14.9125 9.77915 15.0003 10.0002 15.0003C10.2212 15.0003 10.4331 14.9125 10.5894 14.7562C10.7457 14.6 10.8335 14.388 10.8335 14.167V12.5003C10.8335 12.2793 10.7457 12.0674 10.5894 11.9111C10.4331 11.7548 10.2212 11.667 10.0002 11.667ZM10.3168 9.23366C10.166 9.16371 9.99765 9.1405 9.8335 9.16699L9.6835 9.21699L9.5335 9.29199L9.4085 9.39199C9.32924 9.47183 9.26697 9.56689 9.22543 9.67144C9.1839 9.77599 9.16396 9.88787 9.16683 10.0003C9.1662 10.11 9.18722 10.2187 9.22869 10.3202C9.27016 10.4218 9.33126 10.5141 9.4085 10.592C9.48775 10.6679 9.5812 10.7273 9.6835 10.767C9.7824 10.8136 9.89085 10.8365 10.0002 10.8337C10.1098 10.8343 10.2186 10.8133 10.3201 10.7718C10.4216 10.7303 10.514 10.6692 10.5918 10.592C10.6691 10.5141 10.7302 10.4218 10.7716 10.3202C10.8131 10.2187 10.8341 10.11 10.8335 10.0003C10.8341 9.89065 10.8131 9.78193 10.7716 9.6804C10.7302 9.57887 10.6691 9.48653 10.5918 9.40866C10.5108 9.33505 10.4178 9.27586 10.3168 9.23366ZM16.6668 7.45033C16.6581 7.37377 16.6414 7.29835 16.6168 7.22533V7.15033C16.5768 7.06464 16.5233 6.98588 16.4585 6.91699L11.4585 1.91699C11.3896 1.85217 11.3108 1.79873 11.2252 1.75866H11.1418C11.0608 1.71533 10.9737 1.68443 10.8835 1.66699H5.8335C5.17045 1.66699 4.53457 1.93038 4.06573 2.39923C3.59689 2.86807 3.3335 3.50395 3.3335 4.16699V15.8337C3.3335 16.4967 3.59689 17.1326 4.06573 17.6014C4.53457 18.0703 5.17045 18.3337 5.8335 18.3337H14.1668C14.8299 18.3337 15.4658 18.0703 15.9346 17.6014C16.4034 17.1326 16.6668 16.4967 16.6668 15.8337V7.50033C16.6668 7.50033 16.6668 7.50033 16.6668 7.45033ZM11.6668 4.50866L13.8252 6.66699H12.5002C12.2791 6.66699 12.0672 6.5792 11.9109 6.42291C11.7546 6.26663 11.6668 6.05467 11.6668 5.83366V4.50866ZM15.0002 15.8337C15.0002 16.0547 14.9124 16.2666 14.7561 16.4229C14.5998 16.5792 14.3878 16.667 14.1668 16.667H5.8335C5.61248 16.667 5.40052 16.5792 5.24424 16.4229C5.08796 16.2666 5.00016 16.0547 5.00016 15.8337V4.16699C5.00016 3.94598 5.08796 3.73402 5.24424 3.57774C5.40052 3.42146 5.61248 3.33366 5.8335 3.33366H10.0002V5.83366C10.0002 6.4967 10.2636 7.13259 10.7324 7.60143C11.2012 8.07027 11.8371 8.33366 12.5002 8.33366H15.0002V15.8337Z" fill="#679AB4"/>
</svg>
