<svg width="26" height="26" viewBox="0 0 26 26" fill="none" xmlns="http://www.w3.org/2000/svg">
<path d="M13.7685 17.0198C13.6655 17.1184 13.544 17.1958 13.411 17.2473C13.1473 17.3557 12.8514 17.3557 12.5877 17.2473C12.4547 17.1958 12.3332 17.1184 12.2302 17.0198L8.98019 13.7698C8.77619 13.5658 8.66159 13.2891 8.66159 13.0007C8.66159 12.7122 8.77619 12.4355 8.98019 12.2315C9.18418 12.0275 9.46086 11.9129 9.74935 11.9129C10.0378 11.9129 10.3145 12.0275 10.5185 12.2315L11.916 13.6398V9.75065C11.916 9.46333 12.0302 9.18778 12.2333 8.98462C12.4365 8.78145 12.712 8.66732 12.9994 8.66732C13.2867 8.66732 13.5622 8.78145 13.7654 8.98462C13.9685 9.18778 14.0827 9.46333 14.0827 9.75065V13.6398L15.4802 12.2315C15.5809 12.1299 15.7007 12.0494 15.8327 11.9944C15.9647 11.9394 16.1063 11.911 16.2494 11.911C16.3924 11.911 16.534 11.9394 16.666 11.9944C16.798 12.0494 16.9178 12.1299 17.0185 12.2315C17.1201 12.3322 17.2007 12.452 17.2557 12.584C17.3107 12.716 17.339 12.8576 17.339 13.0007C17.339 13.1437 17.3107 13.2853 17.2557 13.4173C17.2007 13.5493 17.1201 13.6691 17.0185 13.7698L13.7685 17.0198ZM12.9994 23.834C10.8567 23.834 8.76221 23.1986 6.98068 22.0082C5.19914 20.8179 3.81061 19.1259 2.99066 17.1464C2.17071 15.1669 1.95617 12.9886 2.37418 10.8872C2.79219 8.78571 3.82396 6.8554 5.33903 5.34033C6.8541 3.82526 8.78441 2.79348 10.8859 2.37548C12.9873 1.95747 15.1656 2.172 17.1451 2.99195C19.1246 3.8119 20.8166 5.20044 22.0069 6.98197C23.1973 8.76351 23.8327 10.858 23.8327 13.0007C23.8327 14.4233 23.5525 15.832 23.008 17.1464C22.4636 18.4607 21.6656 19.655 20.6597 20.661C19.6537 21.6669 18.4595 22.4649 17.1451 23.0093C15.8307 23.5538 14.422 23.834 12.9994 23.834V23.834ZM12.9994 4.33398C11.2852 4.33398 9.60964 4.84228 8.18441 5.79458C6.75919 6.74689 5.64836 8.10043 4.9924 9.68406C4.33644 11.2677 4.16481 13.0103 4.49921 14.6914C4.83362 16.3726 5.65904 17.9169 6.87109 19.1289C8.08315 20.341 9.6274 21.1664 11.3086 21.5008C12.9897 21.8352 14.7323 21.6636 16.3159 21.0076C17.8996 20.3516 19.2531 19.2408 20.2054 17.8156C21.1577 16.3904 21.666 14.7148 21.666 13.0007C21.666 10.7021 20.7529 8.49771 19.1276 6.87239C17.5023 5.24708 15.2979 4.33398 12.9994 4.33398V4.33398Z" fill="white"/>
</svg>
