<svg width="28" height="28" viewBox="0 0 28 28" fill="none" xmlns="http://www.w3.org/2000/svg">
<rect width="28" height="28" rx="14" fill="#E3FFEF"/>
<path d="M9.625 17.7497H12.275C12.3573 17.7502 12.4388 17.7344 12.5149 17.7033C12.5911 17.6722 12.6603 17.6264 12.7188 17.5685L17.0438 13.2372L18.8187 11.4997C18.8773 11.4416 18.9238 11.3725 18.9556 11.2963C18.9873 11.2202 19.0036 11.1385 19.0036 11.056C19.0036 10.9735 18.9873 10.8918 18.9556 10.8156C18.9238 10.7394 18.8773 10.6703 18.8187 10.6122L16.1687 7.93097C16.1106 7.87239 16.0415 7.82589 15.9654 7.79416C15.8892 7.76243 15.8075 7.74609 15.725 7.74609C15.6425 7.74609 15.5608 7.76243 15.4846 7.79416C15.4085 7.82589 15.3394 7.87239 15.2812 7.93097L13.5187 9.69972L9.18125 14.031C9.12332 14.0894 9.0775 14.1586 9.04639 14.2348C9.01529 14.3109 8.99952 14.3925 9 14.4747V17.1247C9 17.2905 9.06585 17.4494 9.18306 17.5667C9.30027 17.6839 9.45924 17.7497 9.625 17.7497ZM15.725 9.25597L17.4937 11.0247L16.6062 11.9122L14.8375 10.1435L15.725 9.25597ZM10.25 14.731L13.9563 11.0247L15.725 12.7935L12.0188 16.4997H10.25V14.731ZM19.625 18.9997H8.375C8.20924 18.9997 8.05027 19.0656 7.93306 19.1828C7.81585 19.3 7.75 19.459 7.75 19.6247C7.75 19.7905 7.81585 19.9494 7.93306 20.0667C8.05027 20.1839 8.20924 20.2497 8.375 20.2497H19.625C19.7908 20.2497 19.9497 20.1839 20.0669 20.0667C20.1842 19.9494 20.25 19.7905 20.25 19.6247C20.25 19.459 20.1842 19.3 20.0669 19.1828C19.9497 19.0656 19.7908 18.9997 19.625 18.9997Z" fill="#469369"/>
</svg>
