<svg width="18" height="18" viewBox="0 0 18 18" fill="none" xmlns="http://www.w3.org/2000/svg">
<path d="M9 10.5C8.81458 10.5 8.63333 10.555 8.47916 10.658C8.32499 10.761 8.20482 10.9074 8.13387 11.0787C8.06291 11.25 8.04434 11.4385 8.08052 11.6204C8.11669 11.8023 8.20598 11.9693 8.33709 12.1004C8.4682 12.2315 8.63525 12.3208 8.81711 12.357C8.99896 12.3932 9.18746 12.3746 9.35877 12.3036C9.53008 12.2327 9.67649 12.1125 9.77951 11.9583C9.88252 11.8042 9.9375 11.6229 9.9375 11.4375C9.9375 11.1889 9.83873 10.9504 9.66292 10.7746C9.4871 10.5988 9.24864 10.5 9 10.5ZM9 9.375C9.19892 9.375 9.38968 9.29598 9.53033 9.15533C9.67099 9.01468 9.75 8.82391 9.75 8.625V6.375C9.75 6.17609 9.67099 5.98532 9.53033 5.84467C9.38968 5.70402 9.19892 5.625 9 5.625C8.80109 5.625 8.61033 5.70402 8.46967 5.84467C8.32902 5.98532 8.25 6.17609 8.25 6.375V8.625C8.25 8.82391 8.32902 9.01468 8.46967 9.15533C8.61033 9.29598 8.80109 9.375 9 9.375ZM9 1.5C7.51664 1.5 6.0666 1.93987 4.83323 2.76398C3.59986 3.58809 2.63856 4.75943 2.07091 6.12987C1.50325 7.50032 1.35472 9.00832 1.64411 10.4632C1.9335 11.918 2.64781 13.2544 3.6967 14.3033C4.7456 15.3522 6.08197 16.0665 7.53683 16.3559C8.99168 16.6453 10.4997 16.4968 11.8701 15.9291C13.2406 15.3614 14.4119 14.4001 15.236 13.1668C16.0601 11.9334 16.5 10.4834 16.5 9C16.4978 7.01156 15.7069 5.10519 14.3009 3.69914C12.8948 2.2931 10.9884 1.50221 9 1.5ZM9 15C7.81332 15 6.65328 14.6481 5.66658 13.9888C4.67989 13.3295 3.91085 12.3925 3.45673 11.2961C3.0026 10.1997 2.88378 8.99334 3.11529 7.82946C3.3468 6.66557 3.91825 5.59647 4.75736 4.75736C5.59648 3.91824 6.66558 3.3468 7.82946 3.11529C8.99335 2.88378 10.1997 3.0026 11.2961 3.45672C12.3925 3.91085 13.3295 4.67988 13.9888 5.66658C14.6481 6.65327 15 7.81331 15 9C14.9982 10.5907 14.3655 12.1158 13.2406 13.2406C12.1158 14.3655 10.5907 14.9982 9 15Z" fill="#455560"/>
</svg>
