<svg width="22" height="22" viewBox="0 0 22 22" fill="none" xmlns="http://www.w3.org/2000/svg">
<path d="M19.2502 9.54222H16.9585C16.8372 9.54272 16.7172 9.56729 16.6055 9.61449C16.4938 9.6617 16.3926 9.7306 16.3077 9.81722L15.171 10.9997L12.6043 8.07555C12.5186 7.98396 12.415 7.91095 12.2999 7.86104C12.1848 7.81113 12.0606 7.78538 11.9352 7.78538C11.8097 7.78538 11.6856 7.81113 11.5705 7.86104C11.4554 7.91095 11.3518 7.98396 11.266 8.07555L9.70767 9.63388H8.25017C8.00706 9.63388 7.7739 9.73046 7.60199 9.90237C7.43008 10.0743 7.33351 10.3074 7.33351 10.5505C7.33351 10.7937 7.43008 11.0268 7.60199 11.1987C7.7739 11.3706 8.00706 11.4672 8.25017 11.4672H10.0835C10.2041 11.4679 10.3237 11.4448 10.4354 11.3992C10.5471 11.3536 10.6487 11.2863 10.7343 11.2014L11.9168 9.97305L14.4835 12.8972C14.5663 12.9916 14.6676 13.068 14.7811 13.1216C14.8947 13.1752 15.018 13.2049 15.1435 13.2089C15.2641 13.2096 15.3837 13.1865 15.4954 13.1408C15.6071 13.0952 15.7087 13.028 15.7943 12.943L17.3527 11.3755H19.2502C19.4933 11.3755 19.7264 11.279 19.8984 11.1071C20.0703 10.9352 20.1668 10.702 20.1668 10.4589C20.1668 10.2158 20.0703 9.98261 19.8984 9.8107C19.7264 9.63879 19.4933 9.54222 19.2502 9.54222ZM12.476 14.4005L10.7343 16.1422C10.6491 16.2281 10.5477 16.2963 10.436 16.3429C10.3243 16.3894 10.2045 16.4134 10.0835 16.4134C9.9625 16.4134 9.84268 16.3894 9.73098 16.3429C9.61927 16.2963 9.51789 16.2281 9.43267 16.1422L4.65684 11.3664C4.34253 11.0523 4.0932 10.6793 3.92309 10.2688C3.75297 9.85826 3.66542 9.41825 3.66542 8.97388C3.66542 8.52952 3.75297 8.08951 3.92309 7.67899C4.0932 7.26848 4.34253 6.8955 4.65684 6.58138C5.29086 5.94941 6.14956 5.59454 7.04476 5.59454C7.93996 5.59454 8.79865 5.94941 9.43267 6.58138C9.51789 6.6673 9.61927 6.73549 9.73098 6.78203C9.84268 6.82857 9.9625 6.85253 10.0835 6.85253C10.2045 6.85253 10.3243 6.82857 10.436 6.78203C10.5477 6.73549 10.6491 6.6673 10.7343 6.58138C11.3785 5.96879 12.2334 5.62717 13.1223 5.62717C14.0112 5.62717 14.8661 5.96879 15.5102 6.58138C15.7144 6.78831 15.8929 7.01915 16.0418 7.26888C16.1753 7.45241 16.3721 7.57991 16.5942 7.6267C16.8162 7.67349 17.0477 7.63626 17.2439 7.5222C17.4401 7.40814 17.587 7.22536 17.6562 7.00924C17.7254 6.79312 17.712 6.55901 17.6185 6.35222C17.3919 5.97597 17.1211 5.62821 16.8118 5.31638C15.9419 4.43625 14.787 3.89473 13.554 3.7889C12.321 3.68307 11.0907 4.01986 10.0835 4.73888C9.30513 4.17815 8.38696 3.84337 7.43034 3.77148C6.47372 3.69959 5.51583 3.89339 4.66239 4.33149C3.80895 4.76959 3.09314 5.43495 2.59395 6.25416C2.09476 7.07337 1.83159 8.01456 1.83351 8.97388C1.83323 9.65597 1.96841 10.3313 2.2312 10.9607C2.49398 11.5902 2.87915 12.1611 3.36434 12.6405L8.14017 17.4164C8.6558 17.9314 9.35475 18.2206 10.0835 18.2206C10.8123 18.2206 11.5112 17.9314 12.0268 17.4164L13.7502 15.6931C13.9209 15.5213 14.0167 15.289 14.0167 15.0468C14.0167 14.8046 13.9209 14.5723 13.7502 14.4005C13.5792 14.2353 13.3508 14.143 13.1131 14.143C12.8754 14.143 12.6469 14.2353 12.476 14.4005Z" fill="#009DDE"/>
</svg>
