<svg width="16" height="16" viewBox="0 0 16 16" fill="none" xmlns="http://www.w3.org/2000/svg">
<path d="M8.00065 1.33398C6.68211 1.33398 5.39318 1.72498 4.29685 2.45752C3.20052 3.19006 2.34604 4.23125 1.84146 5.44943C1.33687 6.6676 1.20485 8.00805 1.46209 9.30125C1.71932 10.5945 2.35426 11.7823 3.28661 12.7147C4.21896 13.647 5.40685 14.282 6.70005 14.5392C7.99326 14.7965 9.3337 14.6644 10.5519 14.1598C11.7701 13.6553 12.8112 12.8008 13.5438 11.7045C14.2763 10.6081 14.6673 9.31919 14.6673 8.00065C14.6654 6.23314 13.9623 4.53859 12.7125 3.28878C11.4627 2.03896 9.76816 1.33595 8.00065 1.33398ZM8.00065 13.334C6.94582 13.334 5.91467 13.0212 5.03761 12.4352C4.16055 11.8491 3.47696 11.0162 3.0733 10.0416C2.66963 9.06709 2.56401 7.99474 2.7698 6.96017C2.97559 5.9256 3.48354 4.9753 4.22942 4.22941C4.9753 3.48354 5.92561 2.97558 6.96017 2.7698C7.99474 2.56401 9.06709 2.66963 10.0416 3.07329C11.0162 3.47696 11.8491 4.16055 12.4352 5.03761C13.0212 5.91467 13.334 6.94582 13.334 8.00065C13.3324 9.41464 12.7699 10.7703 11.7701 11.7701C10.7703 12.7699 9.41465 13.3324 8.00065 13.334ZM8.00065 7.66732C7.82384 7.66732 7.65427 7.73756 7.52925 7.86258C7.40423 7.9876 7.33399 8.15717 7.33399 8.33398V10.334C7.33399 10.5108 7.40423 10.6804 7.52925 10.8054C7.65427 10.9304 7.82384 11.0007 8.00065 11.0007C8.17747 11.0007 8.34703 10.9304 8.47206 10.8054C8.59708 10.6804 8.66732 10.5108 8.66732 10.334V8.33398C8.66732 8.15717 8.59708 7.9876 8.47206 7.86258C8.34703 7.73756 8.17747 7.66732 8.00065 7.66732ZM8.00065 5.00065C7.83584 5.00065 7.67472 5.04953 7.53768 5.14109C7.40064 5.23266 7.29383 5.36281 7.23075 5.51508C7.16768 5.66735 7.15118 5.83491 7.18333 5.99656C7.21549 6.15821 7.29486 6.3067 7.4114 6.42324C7.52794 6.53978 7.67643 6.61915 7.83808 6.65131C7.99973 6.68346 8.16729 6.66696 8.31956 6.60388C8.47183 6.54081 8.60198 6.434 8.69355 6.29696C8.78511 6.15992 8.83399 5.9988 8.83399 5.83398C8.83399 5.61297 8.74619 5.40101 8.58991 5.24473C8.43363 5.08845 8.22167 5.00065 8.00065 5.00065Z" fill="#F47B20"/>
</svg>
