<svg width="14" height="14" viewBox="0 0 14 14" fill="none" xmlns="http://www.w3.org/2000/svg">
<path d="M7.00065 0.333984C5.68211 0.333984 4.39318 0.724978 3.29685 1.45752C2.20052 2.19006 1.34604 3.23125 0.841457 4.44943C0.336873 5.6676 0.204851 7.00805 0.462086 8.30125C0.71932 9.59446 1.35426 10.7823 2.28661 11.7147C3.21896 12.647 4.40685 13.282 5.70005 13.5392C6.99326 13.7965 8.3337 13.6644 9.55188 13.1598C10.7701 12.6553 11.8112 11.8008 12.5438 10.7045C13.2763 9.60812 13.6673 8.31919 13.6673 7.00065C13.6654 5.23314 12.9623 3.53859 11.7125 2.28878C10.4627 1.03896 8.76816 0.33595 7.00065 0.333984ZM7.00065 12.334C5.94582 12.334 4.91467 12.0212 4.03761 11.4352C3.16055 10.8491 2.47696 10.0162 2.0733 9.04163C1.66963 8.06709 1.56401 6.99474 1.7698 5.96017C1.97559 4.9256 2.48354 3.9753 3.22942 3.22941C3.9753 2.48354 4.92561 1.97558 5.96017 1.7698C6.99474 1.56401 8.06709 1.66963 9.04163 2.07329C10.0162 2.47696 10.8491 3.16055 11.4352 4.03761C12.0212 4.91467 12.334 5.94582 12.334 7.00065C12.3324 8.41464 11.7699 9.77026 10.7701 10.7701C9.77026 11.7699 8.41465 12.3324 7.00065 12.334ZM7.00065 6.66732C6.82384 6.66732 6.65427 6.73756 6.52925 6.86258C6.40423 6.9876 6.33399 7.15717 6.33399 7.33398V9.33398C6.33399 9.5108 6.40423 9.68037 6.52925 9.80539C6.65427 9.93041 6.82384 10.0007 7.00065 10.0007C7.17747 10.0007 7.34703 9.93041 7.47206 9.80539C7.59708 9.68037 7.66732 9.5108 7.66732 9.33398V7.33398C7.66732 7.15717 7.59708 6.9876 7.47206 6.86258C7.34703 6.73756 7.17747 6.66732 7.00065 6.66732ZM7.00065 4.00065C6.83584 4.00065 6.67472 4.04953 6.53768 4.14109C6.40064 4.23266 6.29383 4.36281 6.23075 4.51508C6.16768 4.66735 6.15118 4.83491 6.18333 4.99656C6.21549 5.15821 6.29486 5.3067 6.4114 5.42324C6.52794 5.53978 6.67643 5.61915 6.83808 5.65131C6.99973 5.68346 7.16729 5.66696 7.31956 5.60388C7.47183 5.54081 7.60198 5.434 7.69355 5.29696C7.78511 5.15992 7.83399 4.9988 7.83399 4.83398C7.83399 4.61297 7.74619 4.40101 7.58991 4.24473C7.43363 4.08845 7.22167 4.00065 7.00065 4.00065Z" fill="#F47B20"/>
</svg>
