<svg width="20" height="20" viewBox="0 0 20 20" fill="none" xmlns="http://www.w3.org/2000/svg">
<path d="M17.8415 7.19994C17.8415 7.19994 17.8415 7.19994 17.8415 7.15828C17.2543 5.55513 16.1889 4.17101 14.7894 3.19316C13.3899 2.21531 11.7238 1.69092 10.0165 1.69092C8.30921 1.69092 6.64312 2.21531 5.2436 3.19316C3.84408 4.17101 2.77867 5.55513 2.1915 7.15828C2.1915 7.15828 2.1915 7.15828 2.1915 7.19994C1.53577 9.00902 1.53577 10.9909 2.1915 12.7999C2.1915 12.7999 2.1915 12.7999 2.1915 12.8416C2.77867 14.4448 3.84408 15.8289 5.2436 16.8067C6.64312 17.7846 8.30921 18.309 10.0165 18.309C11.7238 18.309 13.3899 17.7846 14.7894 16.8067C16.1889 15.8289 17.2543 14.4448 17.8415 12.8416C17.8415 12.8416 17.8415 12.8416 17.8415 12.7999C18.4972 10.9909 18.4972 9.00902 17.8415 7.19994ZM3.54984 11.6666C3.26086 10.5743 3.26086 9.4256 3.54984 8.33327H5.09984C4.96653 9.44039 4.96653 10.5595 5.09984 11.6666H3.54984ZM4.23317 13.3333H5.39984C5.59544 14.0765 5.87501 14.795 6.23317 15.4749C5.41592 14.9182 4.73275 14.1867 4.23317 13.3333ZM5.39984 6.66661H4.23317C4.72556 5.81585 5.4 5.0845 6.20817 4.52494C5.85863 5.20598 5.58746 5.92446 5.39984 6.66661ZM9.1665 16.4166C8.14298 15.6655 7.42413 14.571 7.1415 13.3333H9.1665V16.4166ZM9.1665 11.6666H6.78317C6.62766 10.5609 6.62766 9.43894 6.78317 8.33327H9.1665V11.6666ZM9.1665 6.66661H7.1415C7.42413 5.42891 8.14298 4.33437 9.1665 3.58328V6.66661ZM15.7665 6.66661H14.5998C14.4042 5.92341 14.1247 5.20489 13.7665 4.52494C14.5838 5.08167 15.2669 5.81323 15.7665 6.66661ZM10.8332 3.58328C11.8567 4.33437 12.5755 5.42891 12.8582 6.66661H10.8332V3.58328ZM10.8332 16.4166V13.3333H12.8582C12.5755 14.571 11.8567 15.6655 10.8332 16.4166ZM13.2165 11.6666H10.8332V8.33327H13.2165C13.372 9.43894 13.372 10.5609 13.2165 11.6666ZM13.7915 15.4749C14.1497 14.795 14.4292 14.0765 14.6248 13.3333H15.7915C15.2919 14.1867 14.6088 14.9182 13.7915 15.4749ZM16.4498 11.6666H14.8998C14.9676 11.1137 15.001 10.557 14.9998 9.99994C15.0008 9.44286 14.9674 8.88625 14.8998 8.33327H16.4498C16.7388 9.4256 16.7388 10.5743 16.4498 11.6666Z" fill="#679AB4"/>
</svg>
