<svg width="48" height="47" viewBox="0 0 48 47" fill="none" xmlns="http://www.w3.org/2000/svg">
<path d="M15.3206 22.582C13.5122 22.582 12.0435 21.1133 12.0435 19.3049C12.0435 17.4965 13.5122 16.0277 15.3206 16.0277C15.7521 16.0277 16.1009 16.3766 16.1009 16.808C16.1009 17.2395 15.7521 17.5883 15.3206 17.5883C14.3751 17.5883 13.604 18.3594 13.604 19.3049C13.604 20.2504 14.3751 21.0215 15.3206 21.0215C15.7521 21.0215 16.1009 21.3703 16.1009 21.8018C16.1009 22.2332 15.7521 22.582 15.3206 22.582Z" fill="#679AB4"/>
<path d="M31.8808 22.582C31.4493 22.582 31.1005 22.2332 31.1005 21.8018C31.1005 21.3703 31.4493 21.0215 31.8808 21.0215C32.8263 21.0215 33.5974 20.2504 33.5974 19.3049C33.5974 18.3594 32.8263 17.5883 31.8808 17.5883C31.4493 17.5883 31.1005 17.2395 31.1005 16.808C31.1005 16.3766 31.4493 16.0277 31.8808 16.0277C33.6892 16.0277 35.1579 17.4965 35.1579 19.3049C35.1671 21.1133 33.6892 22.582 31.8808 22.582Z" fill="#679AB4"/>
<path d="M23.8026 29.6779H23.3987C18.5151 29.6779 14.5312 25.7031 14.5312 20.8104V15.1189C14.5312 14.6875 14.88 14.3387 15.3114 14.3387C15.7429 14.3387 16.0917 14.6875 16.0917 15.1189V20.8104C16.0917 24.8311 19.3688 28.1082 23.3896 28.1082H23.7935C27.8142 28.1082 31.0913 24.8311 31.0913 20.8104V15.1189C31.0913 14.6875 31.4401 14.3387 31.8716 14.3387C32.303 14.3387 32.6519 14.6875 32.6519 15.1189V20.8104C32.6702 25.7031 28.6954 29.6779 23.8026 29.6779Z" fill="#679AB4"/>
<path d="M23.6007 32.5879C20.094 32.5879 17.3493 30.7795 17.3493 28.4662V27.5574C17.3493 27.126 17.6981 26.7771 18.1296 26.7771C18.561 26.7771 18.9099 27.126 18.9099 27.5574V28.4662C18.9099 29.8248 21.0946 31.0182 23.5915 31.0182C26.0884 31.0182 28.2731 29.8248 28.2731 28.4662V27.5574C28.2731 27.126 28.622 26.7771 29.0534 26.7771C29.4849 26.7771 29.8337 27.126 29.8337 27.5574V28.4662C29.852 30.7795 27.1073 32.5879 23.6007 32.5879Z" fill="#679AB4"/>
<path d="M23.6007 36.6545C20.094 36.6545 17.3493 34.8461 17.3493 32.5328V27.5574C17.3493 27.126 17.6981 26.7771 18.1296 26.7771C18.561 26.7771 18.9099 27.126 18.9099 27.5574V32.5328C18.9099 33.8914 21.0946 35.0848 23.5915 35.0848C26.0884 35.0848 28.2731 33.8914 28.2731 32.5328V27.5574C28.2731 27.126 28.622 26.7771 29.0534 26.7771C29.4849 26.7771 29.8337 27.126 29.8337 27.5574V32.5328C29.852 34.8461 27.1073 36.6545 23.6007 36.6545Z" fill="#679AB4"/>
<path d="M23.6007 36.6545C23.1692 36.6545 22.8204 36.3057 22.8204 35.8742V31.8076C22.8204 31.3762 23.1692 31.0273 23.6007 31.0273C24.0321 31.0273 24.381 31.3762 24.381 31.8076V35.8742C24.381 36.3057 24.0321 36.6545 23.6007 36.6545Z" fill="#679AB4"/>
<path d="M11.9792 47C11.5478 47 11.1989 46.6512 11.1989 46.2197V40.0693C11.1989 39.6379 11.5478 39.2891 11.9792 39.2891C12.4106 39.2891 12.7595 39.6379 12.7595 40.0693V46.2197C12.7687 46.6512 12.4106 47 11.9792 47Z" fill="#679AB4"/>
<path d="M35.2222 47C34.7907 47 34.4419 46.6512 34.4419 46.2197V40.0693C34.4419 39.6379 34.7907 39.2891 35.2222 39.2891C35.6536 39.2891 36.0024 39.6379 36.0024 40.0693V46.2197C36.0024 46.6512 35.6536 47 35.2222 47Z" fill="#679AB4"/>
<path d="M23.6007 44.0258C23.5456 44.0258 23.4997 44.0166 23.4446 44.0074C23.3987 43.9982 23.3437 43.9799 23.2978 43.9615C23.2519 43.9432 23.206 43.9156 23.1601 43.8881C23.1142 43.8605 23.0774 43.8238 23.0407 43.7871C23.004 43.7504 22.9673 43.7137 22.9397 43.6678C22.9122 43.6219 22.8847 43.576 22.8663 43.5301C22.8479 43.4842 22.8296 43.4291 22.8204 43.3832C22.8112 43.3281 22.8021 43.2822 22.8021 43.2271C22.8021 43.1721 22.8112 43.1262 22.8204 43.0711C22.8296 43.0252 22.8479 42.9701 22.8663 42.9242C22.8847 42.8783 22.9122 42.8324 22.9397 42.7865C22.9673 42.7406 23.004 42.7039 23.0407 42.6672C23.0774 42.6305 23.1142 42.5938 23.1601 42.5662C23.206 42.5387 23.2519 42.5111 23.2978 42.4928C23.3437 42.4744 23.3987 42.4561 23.4446 42.4469C23.5456 42.4285 23.6466 42.4285 23.7476 42.4469C23.7935 42.4561 23.8485 42.4744 23.8944 42.4928C23.9403 42.5111 23.9862 42.5387 24.0321 42.5662C24.078 42.5938 24.1147 42.6305 24.1515 42.6672C24.1882 42.7039 24.2249 42.7406 24.2524 42.7865C24.28 42.8324 24.3075 42.8783 24.3259 42.9242C24.3442 42.9701 24.3626 43.0252 24.3718 43.0711C24.381 43.1262 24.3901 43.1721 24.3901 43.2271C24.3901 43.2822 24.381 43.3281 24.3718 43.3832C24.3626 43.4291 24.3442 43.4842 24.3259 43.5301C24.3075 43.576 24.28 43.6219 24.2524 43.6678C24.2249 43.7137 24.1882 43.7504 24.1515 43.7871C24.1147 43.8238 24.078 43.8605 24.0321 43.8881C23.9862 43.9156 23.9403 43.9432 23.8944 43.9615C23.8485 43.9799 23.7935 43.9982 23.7476 44.0074C23.7017 44.0258 23.6558 44.0258 23.6007 44.0258Z" fill="#679AB4"/>
<path d="M23.6007 40.1244C23.5456 40.1244 23.4997 40.1152 23.4446 40.1061C23.3987 40.0969 23.3437 40.0785 23.2978 40.0602C23.2519 40.0418 23.206 40.0143 23.1601 39.9867C23.1142 39.9592 23.0774 39.9225 23.0407 39.8857C23.004 39.849 22.9673 39.8123 22.9397 39.7664C22.9122 39.7205 22.8847 39.6746 22.8663 39.6287C22.8479 39.5828 22.8296 39.5277 22.8204 39.4818C22.8112 39.4268 22.8021 39.3809 22.8021 39.3258C22.8021 39.2707 22.8112 39.2248 22.8204 39.1697C22.8296 39.1238 22.8479 39.0688 22.8663 39.0229C22.8847 38.977 22.9122 38.9311 22.9397 38.8852C22.9673 38.8393 23.004 38.8025 23.0407 38.7658C23.0774 38.7291 23.1142 38.6924 23.1601 38.6648C23.206 38.6373 23.2519 38.6098 23.2978 38.5914C23.3437 38.573 23.3987 38.5547 23.4446 38.5455C23.7017 38.4904 23.9679 38.573 24.1515 38.7566C24.1882 38.7934 24.2249 38.8301 24.2524 38.876C24.28 38.9219 24.3075 38.9678 24.3259 39.0137C24.3442 39.0596 24.3626 39.1147 24.3718 39.1605C24.381 39.2156 24.3901 39.2615 24.3901 39.3166C24.3901 39.3717 24.381 39.4176 24.3718 39.4727C24.3626 39.5186 24.3442 39.5736 24.3259 39.6195C24.3075 39.6654 24.28 39.7113 24.2524 39.7572C24.2249 39.8031 24.1882 39.8398 24.1515 39.8766C24.0046 40.0418 23.8026 40.1244 23.6007 40.1244Z" fill="#679AB4"/>
<path d="M38.8022 47H8.39912C6.83857 47 5.57178 45.7332 5.57178 44.1727V40.6752C5.57178 36.2414 6.88447 33.1937 9.48232 31.624C11.6487 30.3205 14.2374 30.3113 15.9632 30.3113H15.9815C17.2483 30.3113 17.331 29.4852 17.3401 29.3934C17.3677 28.9619 17.7349 28.6314 18.1663 28.659C18.5978 28.6865 18.9282 29.0537 18.9007 29.4852C18.8915 29.5861 18.8456 30.1461 18.4601 30.7061C18.102 31.2385 17.3769 31.8811 15.9724 31.8811C14.3292 31.8811 12.0894 31.8811 10.2993 32.9643C8.17881 34.2494 7.1415 36.7738 7.1415 40.6752V44.1727C7.1415 44.8611 7.70147 45.4303 8.39912 45.4303H38.8022C39.4907 45.4303 40.0599 44.8703 40.0599 44.1727V40.6752C40.0599 36.7738 39.0226 34.2494 36.9021 32.9643C35.112 31.8811 32.8722 31.8811 31.229 31.8811H31.2106C29.8062 31.8811 29.081 31.2477 28.7229 30.7061C28.3466 30.1461 28.2915 29.5861 28.2823 29.4852L29.8429 29.3934V29.3842C29.8612 29.6045 30.0265 30.3113 31.2015 30.3113H31.2198C32.9456 30.3113 35.5343 30.3113 37.7007 31.624C40.2985 33.1937 41.6112 36.2414 41.6112 40.6752V44.1727C41.6204 45.7332 40.3628 47 38.8022 47Z" fill="#679AB4"/>
<path d="M36.2962 32.5879C36.2778 32.5879 36.2503 32.5879 36.2228 32.5879C35.7913 32.5512 35.47 32.1656 35.5067 31.7434C36.3146 22.5637 36.6817 16.4592 36.6817 14.66C36.6817 12.6221 36.2228 10.6668 35.3323 8.8584C35.1395 8.47285 35.2956 8.00469 35.6903 7.81191C36.0759 7.61914 36.544 7.7752 36.7368 8.16992C37.7466 10.1986 38.2515 12.3834 38.2515 14.6691C38.2515 16.909 37.7649 23.9865 37.0765 31.8902C37.0397 32.285 36.7001 32.5879 36.2962 32.5879Z" fill="#679AB4"/>
<path d="M13.4755 5.95762C13.2827 5.95762 13.0899 5.88418 12.9431 5.74648C12.631 5.45273 12.6126 4.95703 12.9063 4.63574C15.6603 1.68906 19.5616 0 23.6007 0C27.6397 0 31.5411 1.68906 34.3042 4.64492C34.5979 4.95703 34.5796 5.45273 34.2675 5.75566C33.9554 6.04941 33.4597 6.03105 33.1567 5.71895C30.6507 3.03848 27.2634 1.56973 23.6007 1.56973C19.938 1.56973 16.5507 3.03848 14.0446 5.71895C13.8886 5.875 13.6774 5.95762 13.4755 5.95762Z" fill="#679AB4"/>
<path d="M10.9052 32.5879C10.5013 32.5879 10.1616 32.285 10.1249 31.8719C9.42725 23.9682 8.9499 16.8906 8.9499 14.6508C8.9499 12.3742 9.45479 10.1986 10.4554 8.16992C10.6481 7.78438 11.1163 7.61914 11.5019 7.81191C11.8874 8.00469 12.0526 8.47285 11.8599 8.8584C10.9694 10.6668 10.5196 12.6129 10.5196 14.6416C10.5196 16.4408 10.8868 22.5545 11.6946 31.725C11.7313 32.1564 11.4101 32.5328 10.9786 32.5695C10.9511 32.5879 10.9327 32.5879 10.9052 32.5879Z" fill="#679AB4"/>
<path d="M35.8005 9.29902H11.4009C10.0515 9.29902 8.9499 8.19746 8.9499 6.84805C8.9499 5.49863 10.0515 4.39707 11.4009 4.39707H35.7913C37.1407 4.39707 38.2423 5.49863 38.2423 6.84805C38.2515 8.20664 37.1499 9.29902 35.8005 9.29902ZM11.4009 5.95762C10.9144 5.95762 10.5104 6.35234 10.5104 6.84805C10.5104 7.34375 10.9052 7.73848 11.4009 7.73848H35.7913C36.2778 7.73848 36.6817 7.34375 36.6817 6.84805C36.6817 6.35234 36.287 5.95762 35.7913 5.95762H11.4009Z" fill="#679AB4"/>
<path d="M34.3776 24.4088C33.9462 24.4088 33.5974 24.06 33.5974 23.6285V13.641C33.5974 13.0811 33.3771 12.5578 32.9823 12.1631C32.5876 11.7684 32.0644 11.548 31.5044 11.548C30.8435 11.548 30.3202 11.9061 29.9989 12.1998C28.4017 13.6777 26.0792 14.5223 23.619 14.5223C21.1038 14.5223 18.8181 13.6869 17.1933 12.1814C16.8812 11.8969 16.3671 11.548 15.6878 11.548C15.1278 11.548 14.6046 11.7684 14.2099 12.1631C13.8151 12.5578 13.5948 13.0811 13.5948 13.641V23.6193C13.5948 24.0508 13.246 24.3996 12.8146 24.3996C12.3831 24.3996 12.0343 24.0508 12.0343 23.6193V13.641C12.0343 12.6588 12.4106 11.7408 13.1083 11.0523C13.7968 10.3639 14.7147 9.97832 15.697 9.97832C16.6241 9.97832 17.5329 10.3547 18.2673 11.034C19.58 12.2549 21.5353 12.9617 23.6282 12.9617C25.6937 12.9617 27.6306 12.2641 28.9433 11.0523C29.7052 10.3547 30.5864 9.97832 31.5136 9.97832C32.4958 9.97832 33.4138 10.3547 34.1022 11.0523C34.7907 11.75 35.1763 12.6588 35.1763 13.641V23.6193C35.1671 24.0508 34.8183 24.4088 34.3776 24.4088Z" fill="#679AB4"/>
<path d="M34.3776 15.9084H32.2847C30.2651 15.9084 28.622 14.2652 28.622 12.2457C28.622 11.9795 28.6495 11.7225 28.7046 11.4654C28.7964 11.0432 29.2095 10.777 29.6409 10.8688C30.0632 10.9605 30.3294 11.3736 30.2376 11.8051C30.2101 11.952 30.1917 12.0988 30.1917 12.2549C30.1917 13.4115 31.128 14.3479 32.2847 14.3479H34.3776C34.8091 14.3479 35.1579 14.6967 35.1579 15.1281C35.1579 15.5596 34.8183 15.9084 34.3776 15.9084Z" fill="#679AB4"/>
<path d="M14.9167 15.9084H12.8237C12.3923 15.9084 12.0435 15.5596 12.0435 15.1281C12.0435 14.6967 12.3923 14.3479 12.8237 14.3479H14.9167C16.0733 14.3479 17.0097 13.4115 17.0097 12.2549C17.0097 12.0988 16.9913 11.9428 16.9546 11.7959C16.8628 11.3736 17.129 10.9514 17.5421 10.8596C17.9644 10.7678 18.3866 11.034 18.4784 11.4471C18.5335 11.7133 18.5702 11.9795 18.5702 12.2549C18.5794 14.2652 16.9362 15.9084 14.9167 15.9084Z" fill="#679AB4"/>
</svg>
