<svg width="15" height="16" viewBox="0 0 15 16" fill="none" xmlns="http://www.w3.org/2000/svg">
<path d="M13.4325 10.6325H10.035C9.83609 10.6325 9.64532 10.7115 9.50467 10.8522C9.36402 10.9928 9.285 11.1836 9.285 11.3825C9.285 11.5814 9.36402 11.7722 9.50467 11.9128C9.64532 12.0535 9.83609 12.1325 10.035 12.1325H11.835C11.0077 12.9971 9.9408 13.5945 8.77137 13.848C7.60194 14.1016 6.38341 13.9997 5.27233 13.5554C4.16126 13.1112 3.2084 12.3448 2.53619 11.3549C1.86398 10.3649 1.50313 9.1966 1.5 8C1.5 7.80109 1.42098 7.61032 1.28033 7.46967C1.13968 7.32902 0.948912 7.25 0.75 7.25C0.551088 7.25 0.360322 7.32902 0.21967 7.46967C0.0790176 7.61032 0 7.80109 0 8C0.00396499 9.4646 0.436666 10.896 1.2447 12.1175C2.05274 13.3391 3.20075 14.2973 4.54706 14.8739C5.89336 15.4506 7.37905 15.6204 8.82076 15.3625C10.2625 15.1046 11.5971 14.4302 12.66 13.4225V14.75C12.66 14.9489 12.739 15.1397 12.8797 15.2803C13.0203 15.421 13.2111 15.5 13.41 15.5C13.6089 15.5 13.7997 15.421 13.9403 15.2803C14.081 15.1397 14.16 14.9489 14.16 14.75V11.375C14.1581 11.1812 14.0814 10.9957 13.9457 10.8573C13.8101 10.7189 13.6262 10.6383 13.4325 10.6325ZM7.5 0.5C5.57729 0.505484 3.73012 1.24919 2.34 2.5775V1.25C2.34 1.05109 2.26098 0.860322 2.12033 0.71967C1.97968 0.579018 1.78891 0.5 1.59 0.5C1.39109 0.5 1.20032 0.579018 1.05967 0.71967C0.919018 0.860322 0.84 1.05109 0.84 1.25V4.625C0.84 4.82391 0.919018 5.01468 1.05967 5.15533C1.20032 5.29598 1.39109 5.375 1.59 5.375H4.965C5.16391 5.375 5.35468 5.29598 5.49533 5.15533C5.63598 5.01468 5.715 4.82391 5.715 4.625C5.715 4.42609 5.63598 4.23532 5.49533 4.09467C5.35468 3.95402 5.16391 3.875 4.965 3.875H3.165C3.99185 3.0109 5.05807 2.41362 6.2268 2.15983C7.39553 1.90604 8.61344 2.00731 9.72421 2.45065C10.835 2.89398 11.7879 3.65916 12.4607 4.64795C13.1335 5.63675 13.4954 6.80404 13.5 8C13.5 8.19891 13.579 8.38968 13.7197 8.53033C13.8603 8.67098 14.0511 8.75 14.25 8.75C14.4489 8.75 14.6397 8.67098 14.7803 8.53033C14.921 8.38968 15 8.19891 15 8C15 7.01509 14.806 6.03982 14.4291 5.12987C14.0522 4.21993 13.4997 3.39314 12.8033 2.6967C12.1069 2.00026 11.2801 1.44781 10.3701 1.0709C9.46018 0.693993 8.48491 0.5 7.5 0.5Z" fill="white"/>
</svg>
