<svg width="24" height="24" viewBox="0 0 24 24" fill="none" xmlns="http://www.w3.org/2000/svg">
<path d="M19.5 3.5H15.5C14.9 3.5 14.5 3.9 14.5 4.5C14.5 5.1 14.9 5.5 15.5 5.5H17.1L14.7 7.9C11.6 5.6 7.19999 6.2 4.89999 9.3C2.59999 12.4 3.19999 16.8 6.29999 19.1C9.39999 21.4 13.8 20.8 16.1 17.7C18 15.2 18 11.8 16.1 9.3L18.5 6.9V8.5C18.5 9.1 18.9 9.5 19.5 9.5C20.1 9.5 20.5 9.1 20.5 8.5V4.5C20.5 3.9 20.1 3.5 19.5 3.5ZM14 17C12 19 8.89999 19 6.89999 17C4.89999 15 4.89999 11.9 6.89999 9.9C8.89999 7.9 12 7.9 14 9.9C14.9 10.8 15.5 12.1 15.5 13.4C15.5 14.8 15 16.1 14 17Z" fill="#009DDE"/>
</svg>
