<svg width="21" height="20" viewBox="0 0 21 20" fill="none" xmlns="http://www.w3.org/2000/svg">
<path d="M18.8335 14.1663H2.16683C1.94582 14.1663 1.73385 14.2541 1.57757 14.4104C1.42129 14.5667 1.3335 14.7787 1.3335 14.9997C1.3335 15.2207 1.42129 15.4326 1.57757 15.5889C1.73385 15.7452 1.94582 15.833 2.16683 15.833H18.8335C19.0545 15.833 19.2665 15.7452 19.4228 15.5889C19.579 15.4326 19.6668 15.2207 19.6668 14.9997C19.6668 14.7787 19.579 14.5667 19.4228 14.4104C19.2665 14.2541 19.0545 14.1663 18.8335 14.1663ZM18.8335 17.4997H2.16683C1.94582 17.4997 1.73385 17.5875 1.57757 17.7437C1.42129 17.9 1.3335 18.112 1.3335 18.333C1.3335 18.554 1.42129 18.766 1.57757 18.9223C1.73385 19.0785 1.94582 19.1663 2.16683 19.1663H18.8335C19.0545 19.1663 19.2665 19.0785 19.4228 18.9223C19.579 18.766 19.6668 18.554 19.6668 18.333C19.6668 18.112 19.579 17.9 19.4228 17.7437C19.2665 17.5875 19.0545 17.4997 18.8335 17.4997ZM5.50016 5.83301C5.33534 5.83301 5.17423 5.88188 5.03719 5.97345C4.90015 6.06502 4.79334 6.19517 4.73026 6.34744C4.66719 6.49971 4.65069 6.66726 4.68284 6.82892C4.715 6.99057 4.79436 7.13905 4.91091 7.2556C5.02745 7.37214 5.17594 7.45151 5.33759 7.48366C5.49924 7.51582 5.66679 7.49931 5.81907 7.43624C5.97134 7.37317 6.10149 7.26636 6.19305 7.12932C6.28462 6.99228 6.3335 6.83116 6.3335 6.66634C6.3335 6.44533 6.2457 6.23337 6.08942 6.07709C5.93314 5.9208 5.72118 5.83301 5.50016 5.83301ZM17.1668 0.833008H3.8335C3.17045 0.833008 2.53457 1.0964 2.06573 1.56524C1.59689 2.03408 1.3335 2.66997 1.3335 3.33301V9.99967C1.3335 10.6627 1.59689 11.2986 2.06573 11.7674C2.53457 12.2363 3.17045 12.4997 3.8335 12.4997H17.1668C17.8299 12.4997 18.4658 12.2363 18.9346 11.7674C19.4034 11.2986 19.6668 10.6627 19.6668 9.99967V3.33301C19.6668 2.66997 19.4034 2.03408 18.9346 1.56524C18.4658 1.0964 17.8299 0.833008 17.1668 0.833008ZM18.0002 9.99967C18.0002 10.2207 17.9124 10.4326 17.7561 10.5889C17.5998 10.7452 17.3878 10.833 17.1668 10.833H3.8335C3.61248 10.833 3.40052 10.7452 3.24424 10.5889C3.08796 10.4326 3.00016 10.2207 3.00016 9.99967V3.33301C3.00016 3.11199 3.08796 2.90003 3.24424 2.74375C3.40052 2.58747 3.61248 2.49967 3.8335 2.49967H17.1668C17.3878 2.49967 17.5998 2.58747 17.7561 2.74375C17.9124 2.90003 18.0002 3.11199 18.0002 3.33301V9.99967ZM10.5002 4.16634C10.0057 4.16634 9.52236 4.31296 9.11124 4.58767C8.70011 4.86237 8.37968 5.25282 8.19046 5.70963C8.00124 6.16645 7.95174 6.66911 8.0482 7.15407C8.14466 7.63902 8.38276 8.08448 8.73239 8.43411C9.08203 8.78374 9.52748 9.02184 10.0124 9.1183C10.4974 9.21477 11.0001 9.16526 11.4569 8.97604C11.9137 8.78682 12.3041 8.46639 12.5788 8.05527C12.8535 7.64414 13.0002 7.16079 13.0002 6.66634C13.0002 6.0033 12.7368 5.36741 12.2679 4.89857C11.7991 4.42973 11.1632 4.16634 10.5002 4.16634ZM10.5002 7.49967C10.3353 7.49967 10.1742 7.4508 10.0372 7.35923C9.90015 7.26766 9.79333 7.13752 9.73026 6.98524C9.66719 6.83297 9.65069 6.66542 9.68284 6.50377C9.715 6.34211 9.79436 6.19363 9.91091 6.07709C10.0275 5.96054 10.1759 5.88117 10.3376 5.84902C10.4992 5.81686 10.6668 5.83337 10.8191 5.89644C10.9713 5.95951 11.1015 6.06632 11.1931 6.20337C11.2846 6.34041 11.3335 6.50152 11.3335 6.66634C11.3335 6.88735 11.2457 7.09932 11.0894 7.2556C10.9331 7.41188 10.7212 7.49967 10.5002 7.49967ZM15.5002 5.83301C15.3353 5.83301 15.1742 5.88188 15.0372 5.97345C14.9001 6.06502 14.7933 6.19517 14.7303 6.34744C14.6672 6.49971 14.6507 6.66726 14.6828 6.82892C14.715 6.99057 14.7944 7.13905 14.9109 7.2556C15.0274 7.37214 15.1759 7.45151 15.3376 7.48366C15.4992 7.51582 15.6668 7.49931 15.8191 7.43624C15.9713 7.37317 16.1015 7.26636 16.1931 7.12932C16.2846 6.99228 16.3335 6.83116 16.3335 6.66634C16.3335 6.44533 16.2457 6.23337 16.0894 6.07709C15.9331 5.9208 15.7212 5.83301 15.5002 5.83301Z" fill="#679AB4"/>
</svg>
