<svg width="123" height="107" viewBox="0 0 123 107" fill="none" xmlns="http://www.w3.org/2000/svg">
<path d="M22.5078 54.5527C23.3625 56.4176 24.0424 57.6025 24.6058 58.3407" stroke="#455560"/>
<path d="M64.9813 105.7C92.9813 105.7 115.681 82.9996 115.681 54.8996C115.681 26.7996 92.8813 4.09961 64.9813 4.09961C36.9813 4.09961 14.2812 26.7996 14.2812 54.8996C14.2812 82.9996 36.9813 105.7 64.9813 105.7Z" fill="#F2F3F5" stroke="#D9DCE1" stroke-width="2" stroke-miterlimit="10"/>
<path d="M112.381 21.6004C114.646 21.6004 116.481 19.7648 116.481 17.5004C116.481 15.236 114.646 13.4004 112.381 13.4004C110.117 13.4004 108.281 15.236 108.281 17.5004C108.281 19.7648 110.117 21.6004 112.381 21.6004Z" fill="#F2F3F5"/>
<path d="M118.382 5.6C119.928 5.6 121.182 4.3464 121.182 2.8C121.182 1.2536 119.928 0 118.382 0C116.836 0 115.582 1.2536 115.582 2.8C115.582 4.3464 116.836 5.6 118.382 5.6Z" fill="#F2F3F5"/>
<path d="M16.9816 21.5004C18.528 21.5004 19.7816 20.2468 19.7816 18.7004C19.7816 17.154 18.528 15.9004 16.9816 15.9004C15.4352 15.9004 14.1816 17.154 14.1816 18.7004C14.1816 20.2468 15.4352 21.5004 16.9816 21.5004Z" fill="#F2F3F5"/>
<path d="M5.2 82.0289C8.07188 82.0289 10.4 79.7008 10.4 76.8289C10.4 73.957 8.07188 71.6289 5.2 71.6289C2.32812 71.6289 0 73.957 0 76.8289C0 79.7008 2.32812 82.0289 5.2 82.0289Z" fill="#F2F3F5"/>
<path d="M118.823 77.5887H103.442C102.714 77.5887 102.091 77.121 101.883 76.4974C100.376 72.0286 97.0505 70.9374 88.9962 67.7676C88.5285 67.5597 88.4765 66.9362 88.9442 66.6764C91.2825 65.5332 90.8668 64.5459 90.8668 57.6867C90.7629 57.5828 90.659 57.4269 90.607 57.323C90.0874 56.5435 89.7236 55.6082 89.6197 54.6728L89.1001 54.413C87.5412 54.7768 87.6451 53.114 87.2294 49.8922C87.0735 48.5412 87.2814 48.2814 87.853 48.0735L88.3726 47.398C85.3068 40.5388 86.8657 36.2259 89.8795 34.667C88.8922 32.4845 88.8403 31.7051 88.8403 31.7051C88.8403 31.7051 95.2317 32.7963 97.4142 32.3286C100.22 31.757 104.481 32.4326 106.092 36.122C108.742 37.1612 109.781 38.876 110.041 40.6428C110.405 43.5527 108.794 46.7225 108.482 47.9696C108.534 48.0215 108.534 48.0735 108.586 48.1255C109.002 48.3333 109.158 48.6971 109.002 49.8403C108.638 52.9061 108.69 54.8287 107.131 54.3611L105.728 56.8033C105.676 57.1151 105.624 57.219 105.624 57.3749C105.572 57.8426 105.572 58.726 105.572 63.8184C105.572 64.4419 105.728 65.0135 106.04 65.4812C106.352 66.0528 106.872 66.4685 107.495 66.7283H107.547C111.184 68.2353 113.783 69.2226 115.705 70.002C119.966 71.7168 120.694 72.1845 121.057 75.0424C121.161 76.4455 120.174 77.5887 118.823 77.5887Z" fill="white" stroke="#D9DCE1" stroke-width="2" stroke-miterlimit="10"/>
<path d="M108.378 47.9168C108.533 47.1374 108.17 46.2021 107.858 45.5265C107.806 45.4226 107.754 45.3187 107.702 45.1628C106.507 42.7205 103.753 41.6813 101.155 41.5773C94.5034 41.2136 93.8798 42.5127 91.8013 40.59C92.4249 41.5773 92.5288 43.0843 91.4895 45.0069C90.814 46.358 89.463 46.9295 88.2678 47.3453C85.2539 40.4861 86.7609 36.1731 89.7748 34.6143C88.7875 32.4318 88.7355 31.6523 88.7355 31.6523C88.7355 31.6523 95.127 32.7436 97.3094 32.2759C100.115 31.7043 104.376 32.3798 105.987 36.0692C108.637 37.1085 109.677 38.8233 109.937 40.59C110.352 43.5 108.689 46.6697 108.378 47.9168Z" fill="#D9DCE1"/>
<path d="M90.8027 57.5874C91.1145 58.159 91.2824 58.05 91.75 58.4657L96.5826 61.8433C97.7258 62.7786 99.3367 62.8306 100.48 61.8952L105.001 57.8421C105.157 57.6862 105.375 57.2633 105.531 57.1074" stroke="#D9DCE1" stroke-width="2" stroke-miterlimit="10"/>
<path d="M39.3182 65.9999C36.824 65.948 36.5642 65.4803 36.5642 65.4803V61.3232C39.2143 59.1408 41.4487 56.5946 42.0723 53.2689C43.7351 52.9052 44.7744 51.3982 44.6185 49.7354C44.5665 49.0079 44.0989 48.3324 44.0469 47.553C44.0469 47.1892 44.0469 46.8255 44.0469 46.4617C44.0469 46.2019 44.0469 45.9941 43.9949 45.7342C43.9949 45.4744 43.943 45.2146 43.943 44.9548C43.7871 43.7077 43.4753 42.4086 42.6439 40.9017C40.5654 37.0044 36.4603 34.4062 31.8355 34.4062C30.9002 34.4062 29.9649 34.5102 29.0815 34.718C27.4187 35.0818 25.9117 35.8093 24.5607 36.8485C24.3009 37.0564 24.041 37.2642 23.7812 37.4721C23.7293 37.524 23.6773 37.576 23.5734 37.628C22.1184 38.979 20.9752 40.6938 20.3516 42.6164C19.7281 44.5391 19.5722 46.5137 19.832 48.4883C19.832 48.5403 19.832 48.5922 19.832 48.6442C19.832 48.6962 19.832 48.7481 19.832 48.8001C19.884 49.1638 19.9879 49.1119 19.7281 49.4236C19.6761 49.5276 19.5722 49.6315 19.5202 49.7874C19.2085 50.359 18.9486 51.1384 19.3124 52.0738C19.9359 53.8405 21.1831 53.5807 22.3263 54.568C22.2743 54.62 22.1704 54.6719 22.1184 54.6719H22.0664L20.7674 55.0876C12.9729 57.5299 12.0895 65.7921 20.0918 67.299C19.5202 67.351 19.0006 67.6628 18.6369 67.9226C16.0907 69.8972 14.4798 72.911 14.0641 75.873C13.9082 76.7563 14.6357 77.5877 15.571 77.5877H27.9383C28.1981 77.5877 28.4579 77.3799 28.5618 77.1201C29.705 72.963 32.3032 71.508 37.7074 69.3256L40.8252 68.0785C41.3448 67.8706 41.9164 67.6628 42.54 67.4029C43.1116 67.1951 43.0596 66.3637 42.436 66.2078C41.8125 66.0519 41.1889 65.9999 40.5654 65.948C40.0457 65.9999 39.63 65.9999 39.3182 65.9999ZM23.4694 60.6997C23.4694 60.18 23.8332 59.6084 24.6126 58.9849C24.9244 59.4006 25.3401 59.8683 25.8078 60.284C26.1715 60.5957 26.5353 60.9075 26.951 61.2193C27.2108 61.3752 27.4706 61.583 27.7304 61.7909C27.7824 61.8429 27.8344 61.8948 27.8863 61.8948C27.9383 61.9468 28.0422 61.9988 28.0942 62.0507V64.5969C28.0422 64.545 27.9902 64.493 27.9383 64.493C27.6785 64.2851 27.4706 64.0773 27.2628 63.9214C26.899 63.6616 26.5353 63.4537 26.1715 63.2459C26.0156 63.1419 25.9117 63.09 25.8078 62.9861C24.6126 62.2066 23.5214 61.4791 23.4694 60.6997Z" fill="white" stroke="#D9DCE1" stroke-width="2" stroke-miterlimit="10"/>
<path d="M28.0508 61.9936C30.2332 63.0848 32.7182 63.5579 36.6154 61.2715" stroke="#D9DCE1" stroke-width="2" stroke-miterlimit="10"/>
<path d="M43.9426 45.735C41.7081 46.5145 39.3178 46.8262 36.9275 46.6184C33.1862 46.3066 29.5487 44.7997 26.7427 42.3054C25.8074 45.0075 23.469 47.0341 20.8189 48.2293C20.4552 48.3851 20.0914 48.541 19.7277 48.645C19.7277 48.593 19.7277 48.541 19.7277 48.541C19.4679 46.5664 19.6237 44.5918 20.2473 42.6692C20.8709 40.7465 22.0141 39.0318 23.469 37.6807C23.521 37.6287 23.573 37.5768 23.6769 37.5248C23.9367 37.317 24.1965 37.1091 24.4563 36.9013C25.8074 35.914 27.3663 35.1865 28.9771 34.7708C29.9125 34.5629 30.7958 34.459 31.7312 34.459C36.3559 34.459 40.461 37.0571 42.5396 40.9544C43.319 42.4613 43.6827 43.7604 43.8386 44.9556C43.9426 45.2154 43.9426 45.4752 43.9426 45.735Z" fill="#D9DCE1"/>
<path d="M29.6536 72.2874C28.6663 73.5345 26.7956 73.5865 25.2367 73.5345C26.8996 71.9237 25.9642 66.6754 20.1443 67.299H20.0924C12.09 65.792 12.9734 57.5299 20.7159 55.0876L22.015 54.6719C22.1189 54.7238 22.1709 54.7758 22.2229 54.8797C22.8464 56.4906 23.6778 57.8416 24.5612 58.9329C21.3915 61.583 25.8083 62.4144 27.9388 64.441C29.8095 65.5322 31.3684 70.105 29.6536 72.2874Z" fill="#D9DCE1"/>
<path d="M21.0488 53.7383C24.7979 55.2146 23.1378 57.1792 24.653 58.9663" stroke="#D9DCE1" stroke-width="1.8"/>
<path d="M98.9205 79.9777C99.1803 81.9004 97.6734 83.6671 95.6988 83.6671H34.7978C32.8232 83.6671 31.3163 81.9004 31.5761 79.9777C32.1477 75.9766 33.031 75.1452 38.9549 72.7548L40.4098 72.1832C43.1639 71.092 46.7493 69.741 51.5819 67.7144C52.6732 67.2467 53.5565 66.4153 54.0242 65.3241C54.284 64.7525 54.4399 64.077 54.4399 63.4015V54.3079C54.284 54.1 54.1281 53.9441 54.0242 53.7363C53.2448 52.5931 52.7251 51.242 52.5692 49.7871L51.7898 49.4233C49.4514 49.9949 49.6593 47.5007 49.0357 42.7201C48.7759 40.7455 49.0877 40.3298 49.9711 40.018L50.6986 39.0307C46.2297 28.8978 48.4641 22.5583 52.881 20.3239C51.53 17.1022 51.426 15.959 51.426 15.959C51.426 15.959 60.8314 17.5179 64.0531 16.8943C68.1582 16.0629 74.4977 17.0502 76.8361 22.5064C80.7333 24.0653 82.2403 26.5075 82.604 29.2096C83.1756 33.4706 80.7333 38.1473 80.2657 39.966C80.3176 40.0699 80.3176 40.1219 80.3696 40.1739C80.9932 40.4856 81.201 41.0053 80.9931 42.7201C80.4216 47.2409 80.5774 50.0469 78.2391 49.4233L76.1606 53.0608C76.0566 53.4765 76.0566 53.6324 76.0047 53.9441C75.9008 54.6197 75.9527 55.9707 75.9527 63.4015C75.9527 64.2848 76.2125 65.1682 76.6802 65.8437C77.1998 66.6232 77.9273 67.2987 78.8107 67.6624C78.8627 67.6624 78.8627 67.6624 78.9146 67.7144C84.2668 69.9488 88.1121 71.4038 90.9181 72.495C97.3096 74.9893 98.2969 75.7687 98.9205 79.9777Z" fill="white" stroke="#D9DCE1" stroke-width="2" stroke-miterlimit="10"/>
<path d="M80.3172 39.966C80.5251 38.8228 80.0054 37.4198 79.5897 36.4325C79.5378 36.2766 79.4338 36.1207 79.3819 35.9129C77.5632 32.2755 73.562 30.8205 69.7167 30.6126C59.8957 30.093 59.0123 31.9637 55.9464 29.1577C56.8818 30.6126 56.9857 32.847 55.5307 35.6531C54.4915 37.6277 52.5169 38.511 50.8021 39.0826C46.3332 28.9498 48.5677 22.6103 52.9845 20.3759C51.5296 17.1022 51.4256 15.959 51.4256 15.959C51.4256 15.959 60.831 17.5179 64.0527 16.8943C68.1578 16.0629 74.4973 17.0502 76.8357 22.5064C80.7329 24.0653 82.2399 26.5075 82.6036 29.2096C83.2272 33.4186 80.7849 38.0953 80.3172 39.966Z" fill="#D9DCE1"/>
<path d="M54.4919 54.308C54.336 54.1002 54.1801 53.9443 54.0762 53.7364V53.2168C54.5438 54.0482 55.1674 54.8277 55.9468 55.4512L63.0658 60.4397C64.7286 61.8427 67.119 61.8947 68.8337 60.5436L75.485 54.5678C75.6929 54.36 75.9527 54.1521 76.1606 53.9443" stroke="#D9DCE1" stroke-width="2" stroke-miterlimit="10"/>
<path d="M82.9795 93.0959C82.657 94.4665 82.1733 95.9178 81.6089 97.1273C80.0769 100.111 77.6581 102.449 74.6748 103.981C71.611 105.513 67.9827 106.158 64.3544 105.351C55.8078 103.578 50.3251 95.1922 52.0989 86.6456C53.8727 78.099 62.1774 72.5356 70.724 74.3901C73.7879 75.0351 76.4486 76.5671 78.7062 78.6634C82.4958 82.4529 84.1083 87.9356 82.9795 93.0959Z" fill="#D9DCE1" stroke="#9AA2AF" stroke-width="2" stroke-miterlimit="10"/>
<path d="M72.5776 87.499H69.9493V84.8707C69.9493 83.6316 68.9753 82.5 67.5786 82.5C66.3395 82.5 65.2079 83.474 65.2079 84.8707V87.499H62.5797C61.3406 87.499 60.209 88.473 60.209 89.8696C60.209 90.5123 60.438 91.1176 60.8849 91.5644C61.3317 92.0113 61.937 92.2403 62.5797 92.2403H65.2079V94.8686C65.2079 96.1076 66.182 97.2393 67.5786 97.2393C68.8177 97.2393 69.9493 96.2652 69.9493 94.8686V92.2403H72.5776C73.8166 92.2403 74.9482 91.2663 74.9482 89.8696C74.9482 88.473 73.8166 87.499 72.5776 87.499Z" fill="white" stroke="#9AA2AF" stroke-width="2"/>
</svg>
