<svg width="179" height="44" viewBox="0 0 179 44" fill="none" xmlns="http://www.w3.org/2000/svg">
<g filter="url(#filter0_d_2724_29489)">
<g clip-path="url(#clip0_2724_29489)">
<rect x="10.6" y="6" width="33.6" height="24" rx="3" fill="white"/>
<path d="M24.887 18.8105H11.08V23.2732H24.887V18.8105Z" fill="#84B740"/>
<path d="M24.887 12.7207H11.08V17.1873H24.887V12.7207Z" fill="#259BD6"/>
<path d="M38.6941 22.3652L38.6326 22.3771C38.4195 22.4169 38.3416 22.4328 38.1858 22.4328C37.825 22.4328 37.3987 22.2538 37.3987 21.4106C37.3987 20.9771 37.4725 20.4004 38.1448 20.4004H38.1489C38.2637 20.4083 38.3949 20.4203 38.6408 20.4919L38.6941 20.5078V22.3652ZM38.8048 18.1611L38.6941 18.181V19.7401L38.5957 19.7123L38.567 19.7043C38.4564 19.6725 38.2022 19.6009 37.9562 19.6009C36.6116 19.6009 36.3287 20.5873 36.3287 21.4146C36.3287 22.5482 36.9847 23.2005 38.1284 23.2005C38.6121 23.2005 38.9688 23.1527 39.3295 23.0374C39.6616 22.934 39.7805 22.7868 39.7805 22.4726V17.998C39.4607 18.0537 39.1287 18.1094 38.8048 18.1611Z" fill="#27292D"/>
<path d="M42.6911 22.394L42.6337 22.41L42.4288 22.4617C42.2361 22.5094 42.0639 22.5372 41.9327 22.5372C41.6171 22.5372 41.4285 22.3861 41.4285 22.1276C41.4285 21.9605 41.5064 21.6781 42.0229 21.6781H42.6911V22.394ZM42.2197 19.582C41.8057 19.582 41.3793 19.6536 40.8505 19.8127L40.5061 19.9122L40.6209 20.6679L40.9571 20.5605C41.3096 20.4491 41.7483 20.3775 42.0762 20.3775C42.2238 20.3775 42.6747 20.3775 42.6747 20.8508V21.0576H42.0475C40.9038 21.0576 40.3749 21.4116 40.3749 22.1713C40.3749 22.8196 40.8628 23.2094 41.6827 23.2094C41.9368 23.2094 42.2894 23.1617 42.5927 23.0901L42.6091 23.0861L42.6255 23.0901L42.728 23.106C43.0478 23.1617 43.3798 23.2174 43.7037 23.277V20.7951C43.7037 19.9917 43.2036 19.582 42.2197 19.582Z" fill="#27292D"/>
<path d="M34.7256 22.394L34.6682 22.41L34.4632 22.4617C34.2705 22.5094 34.1024 22.5372 33.9672 22.5372C33.6515 22.5372 33.4629 22.3861 33.4629 22.1276C33.4629 21.9605 33.5408 21.6781 34.0532 21.6781H34.7215V22.394H34.7256ZM34.2582 19.582C33.8401 19.582 33.4178 19.6536 32.889 19.8127L32.5446 19.9122L32.6594 20.6679L32.9956 20.5605C33.3481 20.4491 33.7868 20.3775 34.1147 20.3775C34.2623 20.3775 34.7133 20.3775 34.7133 20.8508V21.0576H34.086C32.9423 21.0576 32.4094 21.4116 32.4094 22.1713C32.4094 22.8196 32.8972 23.2094 33.7212 23.2094C33.9754 23.2094 34.3279 23.1617 34.6313 23.0901L34.6477 23.0861L34.6641 23.0901L34.7625 23.106C35.0863 23.1617 35.4143 23.2174 35.7381 23.281V20.7991C35.7422 19.9877 35.2421 19.582 34.2582 19.582Z" fill="#27292D"/>
<path d="M30.409 19.5899C29.8884 19.5899 29.4579 19.757 29.2981 19.8286L29.2571 19.8484L29.2202 19.8206C28.9988 19.6655 28.6749 19.5859 28.224 19.5859C27.8264 19.5859 27.4533 19.6416 27.0475 19.757C26.699 19.8604 26.5637 20.0234 26.5637 20.3297V23.1656H27.6542V20.5445L27.7075 20.5286C27.9288 20.457 28.06 20.4451 28.1871 20.4451C28.5028 20.4451 28.6626 20.6081 28.6626 20.9263V23.1696H29.7367V20.8826C29.7367 20.7473 29.708 20.6678 29.7039 20.6519L29.667 20.5843L29.7408 20.5524C29.9048 20.4808 30.0852 20.4451 30.2737 20.4451C30.491 20.4451 30.7493 20.5286 30.7493 20.9263V23.1696H31.8192V20.8229C31.8192 19.9916 31.3601 19.5899 30.409 19.5899Z" fill="#27292D"/>
<path d="M41.8875 15.6321C41.7276 15.6321 41.4611 15.6162 41.2521 15.5765L41.1906 15.5645V14.0332C41.1906 13.906 41.166 13.8264 41.1619 13.8145L41.1291 13.7508L41.1988 13.723C41.2152 13.715 41.2316 13.7111 41.2521 13.7031L41.2644 13.6952C41.289 13.6872 41.3136 13.6793 41.3382 13.6713C41.3505 13.6673 41.3587 13.6633 41.3669 13.6633C41.6087 13.5997 41.8301 13.6077 41.9285 13.5997H41.9326C42.6008 13.5997 42.6787 14.1764 42.6787 14.61C42.6746 15.4532 42.2441 15.6321 41.8875 15.6321ZM41.8834 12.7207C41.8752 12.7207 41.8629 12.7207 41.8547 12.7207C41.2275 12.7207 40.5839 12.8878 40.3543 13.2139C40.2313 13.373 40.1616 13.5719 40.1575 13.8065V15.3855C40.1575 15.5208 40.1288 15.5725 40.1247 15.5844L40.0878 15.652H38.1078V14.5543H38.1037C38.0791 13.3969 37.374 12.7605 36.3532 12.7605H36.2343H35.357C35.316 13.0429 35.2832 13.2417 35.2423 13.5241H36.2343C36.755 13.5241 37.0296 13.9537 37.0296 14.6139V15.7197L36.9599 15.6839C36.9476 15.6799 36.8615 15.652 36.7263 15.652H35.0127C34.9799 15.8628 34.9389 16.1373 34.8938 16.4117H40.1616C40.342 16.3759 40.5511 16.3441 40.7314 16.3163C40.9979 16.4435 41.4939 16.5111 41.8342 16.5111C42.9779 16.5111 43.7199 15.7674 43.7199 14.6219C43.7158 13.4883 42.9984 12.7446 41.8834 12.7207Z" fill="#27292D"/>
<path d="M32.6473 16.8763H32.6965C33.8403 16.8763 34.3732 16.5104 34.3732 15.6075C34.3732 14.9592 33.8854 14.4421 33.0655 14.4421H32.0119C31.6963 14.4421 31.5077 14.2671 31.5077 13.9728C31.5077 13.7739 31.5856 13.5273 32.1021 13.5273H34.406C34.4552 13.237 34.4798 13.054 34.5249 12.7637H32.1308C31.0157 12.7637 30.4541 13.2171 30.4541 13.9728C30.4541 14.7205 30.942 15.1103 31.7618 15.1103H32.8154C33.1311 15.1103 33.3196 15.3529 33.3196 15.6075C33.3196 15.7745 33.2418 16.1206 32.7293 16.1206H32.553L29.1792 16.1126H28.5643C28.0436 16.1126 27.6788 15.8263 27.6788 15.162V14.7046C27.6788 14.0126 27.9616 13.583 28.5643 13.583H29.5645C29.6096 13.2887 29.6383 13.1017 29.6793 12.8233H28.4331H28.3142C27.2934 12.8233 26.5883 13.4876 26.5637 14.645V14.6887V15.162C26.5883 16.3195 27.2934 16.8723 28.3142 16.8723H28.4331H29.3104L31.1387 16.8763H32.2292H32.6473Z" fill="#27292D"/>
</g>
</g>
<g filter="url(#filter1_d_2724_29489)">
<g clip-path="url(#clip1_2724_29489)">
<rect x="52.2" y="6" width="33.6" height="24" rx="2.31818" fill="white"/>
<path d="M68.879 13.8698L67.1337 22.2506H65.0083L66.7536 13.8698H68.879ZM77.6573 19.287L78.7805 16.1248L79.4025 19.287H77.6573ZM80.0246 22.2506H81.96L80.2752 13.8698H78.4694C78.0979 13.8698 77.7264 14.129 77.6054 14.5178L74.4864 22.2506H76.6637L77.0957 21.0237H79.7741L80.0333 22.2506H80.0246ZM74.5469 19.4858C74.5469 17.2912 71.6093 17.153 71.6093 16.1939C71.6784 15.7446 72.0499 15.4854 72.4905 15.4854C73.1989 15.4201 73.9113 15.5548 74.5469 15.8742L74.9184 14.0598C74.3064 13.8109 73.6523 13.6818 72.9917 13.6797C70.9353 13.6797 69.432 14.8374 69.432 16.4445C69.432 17.68 70.4947 18.3194 71.2464 18.7082C72.0499 19.097 72.3696 19.3562 72.3005 19.745C72.3005 20.3152 71.6784 20.5744 71.0563 20.5744C70.3046 20.5744 69.5616 20.3843 68.879 20.056L68.4989 21.8704C69.2505 22.1901 70.0541 22.3197 70.8057 22.3197C73.1126 22.3802 74.5469 21.2224 74.5469 19.4771V19.4858ZM65.8809 13.8698L62.52 22.2506H60.2736L58.5974 15.5459C58.5974 15.2262 58.3382 14.967 58.0963 14.8374C57.4514 14.497 56.7578 14.258 56.04 14.129L56.1005 13.8698H59.6515C60.1526 13.8698 60.5241 14.2586 60.5846 14.7078L61.4573 19.5462L63.7037 13.8698H65.8809Z" fill="#191E70"/>
<rect x="52.2" y="6" width="33.6" height="3.84" fill="#191E70"/>
<rect x="52.2" y="26.1602" width="33.6" height="3.84" fill="#F7B600"/>
</g>
</g>
<g filter="url(#filter2_d_2724_29489)">
<g clip-path="url(#clip2_2724_29489)">
<rect x="93.8" y="6" width="33.6" height="24" fill="#353A48"/>
<path d="M105.8 25.1988C109.776 25.1988 113 21.9753 113 17.9988C113 14.0224 109.776 10.7988 105.8 10.7988C101.824 10.7988 98.6 14.0224 98.6 17.9988C98.6 21.9753 101.824 25.1988 105.8 25.1988Z" fill="#ED0006"/>
<path d="M115.4 25.1988C119.376 25.1988 122.6 21.9753 122.6 17.9988C122.6 14.0224 119.376 10.7988 115.4 10.7988C111.424 10.7988 108.2 14.0224 108.2 17.9988C108.2 21.9753 111.424 25.1988 115.4 25.1988Z" fill="#F9A000"/>
<path fill-rule="evenodd" clip-rule="evenodd" d="M110.6 12.6328C111.358 13.3065 111.964 14.133 112.38 15.058C112.795 15.9829 113.01 16.9853 113.01 17.9992C113.01 19.0131 112.795 20.0155 112.38 20.9405C111.964 21.8654 111.358 22.6919 110.6 23.3656C109.847 22.6962 109.243 21.8757 108.827 20.9575C108.412 20.0393 108.194 19.0439 108.189 18.0361C108.183 17.0282 108.39 16.0305 108.796 15.1079C109.201 14.1852 109.796 13.3583 110.543 12.6808L110.6 12.6328Z" fill="#FF5D00"/>
</g>
</g>
<g filter="url(#filter3_d_2724_29489)">
<g clip-path="url(#clip3_2724_29489)">
<rect x="135.4" y="6" width="33.6" height="24" fill="#017ECD"/>
<path d="M152.267 17.9718V17.319C152.267 17.0694 152.008 16.8102 151.758 16.8102H151.038V17.9718H150.27V14.6886H152.162C152.632 14.6406 153.093 14.9478 153.141 15.399V15.6486C153.141 15.9558 152.987 16.2534 152.68 16.4166C152.939 16.5606 153.093 16.8678 153.035 17.1654V17.9718H152.267ZM150.99 16.0518H151.806C151.96 16.1094 152.162 16.0038 152.219 15.8598C152.267 15.7062 152.162 15.495 152.008 15.447H150.99V16.0518ZM161.915 17.9718L160.677 15.7542V17.9718H159.141L158.882 17.271H157.442L157.192 17.9718H155.56C155.56 17.9718 154.523 17.8278 154.523 16.407C154.523 14.6886 155.397 14.6406 155.752 14.6406H156.731V15.399H155.963C155.598 15.447 155.349 15.7542 155.397 16.1094V16.359C155.397 17.4726 156.731 17.1174 156.779 17.1174L157.768 14.6406H158.843L160.024 17.6166V14.6982H161.099L162.328 16.8774V14.6886H163.096V18.0294L161.925 17.9718H161.915ZM157.806 16.455H158.574L158.219 15.495L157.806 16.455ZM146.162 17.9718V15.7062L145.192 17.9718H144.578L143.598 15.7062V17.9718H142.062L141.803 17.271H140.363L140.114 17.9718H139.24L140.526 14.6406H141.602L142.782 17.6742V14.6982H144.011L144.875 16.7622L145.758 14.6886H146.987V18.0294L146.162 17.9718ZM140.68 16.4646H141.448L141.083 15.5046L140.68 16.4646ZM147.4 17.9814V14.6886H149.8V15.4566H148.168V15.9558H149.752V16.7142H148.168V17.271H149.8V17.9718H147.4V17.9814ZM153.448 18.039V14.6886H154.216V18.0294H153.448V18.039ZM155.138 22.2822V21.6198C155.138 21.3222 154.888 21.1206 154.581 21.1206H153.755V22.2726H152.939V18.999H154.936C155.054 18.9741 155.176 18.9745 155.294 19.0001C155.412 19.0258 155.523 19.076 155.62 19.1477C155.717 19.2193 155.798 19.3107 155.857 19.4158C155.916 19.5209 155.952 19.6373 155.963 19.7574V19.9494C155.963 20.2566 155.81 20.5638 155.502 20.7174C155.752 20.8614 155.906 21.1686 155.906 21.4758V22.2822H155.138ZM153.803 20.3622H154.677C154.83 20.4102 155.042 20.3046 155.09 20.1606C155.138 20.007 155.042 19.8054 154.888 19.7574C154.859 19.7304 154.822 19.7154 154.782 19.7154C154.743 19.7154 154.705 19.7304 154.677 19.7574H153.813V20.3622H153.803ZM149.656 22.2822H148.936L148.062 21.3222L147.198 22.2822H144.107V18.999H147.131L148.053 20.055L149.032 18.999H151.643C152.152 18.9414 152.622 19.2486 152.67 19.7574V19.9494C152.67 20.9094 152.306 21.2166 151.23 21.2166H150.414V22.2726H149.646L149.656 22.2822ZM148.629 20.6598L149.656 21.8214V19.5558L148.629 20.6598ZM144.933 21.5718H146.68L147.496 20.6598L146.68 19.7574H144.933V20.2566H146.622V21.0246H144.933V21.5718ZM150.472 20.3622H151.346C151.499 20.4102 151.701 20.3046 151.758 20.1606C151.806 20.007 151.701 19.8054 151.547 19.7574C151.519 19.7331 151.483 19.7197 151.446 19.7197C151.409 19.7197 151.374 19.7331 151.346 19.7574H150.482V20.3622H150.472ZM160.782 22.2822H159.304V21.5142H160.59C160.59 21.5142 161.051 21.5718 161.051 21.2646C161.051 20.967 160.331 21.015 160.331 21.015C159.765 21.111 159.304 20.7174 159.198 20.2086V20.055C159.15 19.5558 159.563 19.095 160.072 19.047H161.819V19.7574H160.533C160.533 19.7574 160.072 19.6614 160.072 20.007C160.072 20.2566 160.686 20.2566 160.686 20.2566C160.686 20.2566 161.973 20.1606 161.973 21.1686C162.003 21.4445 161.923 21.721 161.75 21.9384C161.578 22.1558 161.327 22.2965 161.051 22.3302H160.84L160.792 22.2822H160.782ZM156.366 22.2822V18.999H158.939V19.7574H157.192V20.2566H158.882V21.0246H157.192V21.5718H158.939V22.2822H156.376H156.366ZM163.662 22.2822H162.165V21.5142H163.451C163.451 21.5142 163.912 21.5718 163.912 21.2646C163.912 20.967 163.192 21.015 163.192 21.015C162.626 21.111 162.165 20.7174 162.069 20.151V20.007C162.011 19.4982 162.424 19.047 162.933 18.999H164.68V19.7574H163.403C163.403 19.7574 162.933 19.6614 162.933 20.007C162.933 20.2566 163.557 20.2566 163.557 20.2566C163.557 20.2566 164.834 20.1606 164.834 21.1686C164.861 21.4429 164.78 21.717 164.607 21.9322C164.435 22.1475 164.186 22.2869 163.912 22.3206H163.71C163.71 22.2726 163.71 22.2726 163.653 22.2726L163.662 22.2822Z" fill="white"/>
</g>
</g>
<defs>
<filter id="filter0_d_2724_29489" x="0.599976" y="0" width="53.6" height="44" filterUnits="userSpaceOnUse" color-interpolation-filters="sRGB">
<feFlood flood-opacity="0" result="BackgroundImageFix"/>
<feColorMatrix in="SourceAlpha" type="matrix" values="0 0 0 0 0 0 0 0 0 0 0 0 0 0 0 0 0 0 127 0" result="hardAlpha"/>
<feOffset dy="4"/>
<feGaussianBlur stdDeviation="5"/>
<feColorMatrix type="matrix" values="0 0 0 0 0.0352941 0 0 0 0 0.117647 0 0 0 0 0.258824 0 0 0 0.06 0"/>
<feBlend mode="normal" in2="BackgroundImageFix" result="effect1_dropShadow_2724_29489"/>
<feBlend mode="normal" in="SourceGraphic" in2="effect1_dropShadow_2724_29489" result="shape"/>
</filter>
<filter id="filter1_d_2724_29489" x="42.2" y="0" width="53.6" height="44" filterUnits="userSpaceOnUse" color-interpolation-filters="sRGB">
<feFlood flood-opacity="0" result="BackgroundImageFix"/>
<feColorMatrix in="SourceAlpha" type="matrix" values="0 0 0 0 0 0 0 0 0 0 0 0 0 0 0 0 0 0 127 0" result="hardAlpha"/>
<feOffset dy="4"/>
<feGaussianBlur stdDeviation="5"/>
<feColorMatrix type="matrix" values="0 0 0 0 0.0352941 0 0 0 0 0.117647 0 0 0 0 0.258824 0 0 0 0.06 0"/>
<feBlend mode="normal" in2="BackgroundImageFix" result="effect1_dropShadow_2724_29489"/>
<feBlend mode="normal" in="SourceGraphic" in2="effect1_dropShadow_2724_29489" result="shape"/>
</filter>
<filter id="filter2_d_2724_29489" x="83.8" y="0" width="53.6" height="44" filterUnits="userSpaceOnUse" color-interpolation-filters="sRGB">
<feFlood flood-opacity="0" result="BackgroundImageFix"/>
<feColorMatrix in="SourceAlpha" type="matrix" values="0 0 0 0 0 0 0 0 0 0 0 0 0 0 0 0 0 0 127 0" result="hardAlpha"/>
<feOffset dy="4"/>
<feGaussianBlur stdDeviation="5"/>
<feColorMatrix type="matrix" values="0 0 0 0 0.0352941 0 0 0 0 0.117647 0 0 0 0 0.258824 0 0 0 0.06 0"/>
<feBlend mode="normal" in2="BackgroundImageFix" result="effect1_dropShadow_2724_29489"/>
<feBlend mode="normal" in="SourceGraphic" in2="effect1_dropShadow_2724_29489" result="shape"/>
</filter>
<filter id="filter3_d_2724_29489" x="125.4" y="0" width="53.6" height="44" filterUnits="userSpaceOnUse" color-interpolation-filters="sRGB">
<feFlood flood-opacity="0" result="BackgroundImageFix"/>
<feColorMatrix in="SourceAlpha" type="matrix" values="0 0 0 0 0 0 0 0 0 0 0 0 0 0 0 0 0 0 127 0" result="hardAlpha"/>
<feOffset dy="4"/>
<feGaussianBlur stdDeviation="5"/>
<feColorMatrix type="matrix" values="0 0 0 0 0.0352941 0 0 0 0 0.117647 0 0 0 0 0.258824 0 0 0 0.06 0"/>
<feBlend mode="normal" in2="BackgroundImageFix" result="effect1_dropShadow_2724_29489"/>
<feBlend mode="normal" in="SourceGraphic" in2="effect1_dropShadow_2724_29489" result="shape"/>
</filter>
<clipPath id="clip0_2724_29489">
<rect x="10.6" y="6" width="33.6" height="24" rx="3" fill="white"/>
</clipPath>
<clipPath id="clip1_2724_29489">
<rect x="52.2" y="6" width="33.6" height="24" rx="3" fill="white"/>
</clipPath>
<clipPath id="clip2_2724_29489">
<rect x="93.8" y="6" width="33.6" height="24" rx="3" fill="white"/>
</clipPath>
<clipPath id="clip3_2724_29489">
<rect x="135.4" y="6" width="33.6" height="24" rx="3" fill="white"/>
</clipPath>
</defs>
</svg>
