<svg width="20" height="20" viewBox="0 0 20 20" fill="none" xmlns="http://www.w3.org/2000/svg">
<path d="M10.0001 1.6665C8.38385 1.66957 6.80336 2.1426 5.45115 3.02795C4.09893 3.91331 3.03337 5.17279 2.38424 6.65298C1.73511 8.13317 1.53044 9.77019 1.79514 11.3646C2.05985 12.9591 2.78252 14.4421 3.87512 15.6332C4.65547 16.479 5.60257 17.1541 6.65674 17.6158C7.7109 18.0776 8.84927 18.3159 10.0001 18.3159C11.151 18.3159 12.2893 18.0776 13.3435 17.6158C14.3977 17.1541 15.3448 16.479 16.1251 15.6332C17.2177 14.4421 17.9404 12.9591 18.2051 11.3646C18.4698 9.77019 18.2651 8.13317 17.616 6.65298C16.9669 5.17279 15.9013 3.91331 14.5491 3.02795C13.1969 2.1426 11.6164 1.66957 10.0001 1.6665ZM10.0001 16.6665C8.27384 16.6639 6.61588 15.9917 5.37512 14.7915C5.75183 13.8745 6.39265 13.0901 7.21617 12.5381C8.03968 11.9861 9.00871 11.6913 10.0001 11.6913C10.9915 11.6913 11.9606 11.9861 12.7841 12.5381C13.6076 13.0901 14.2484 13.8745 14.6251 14.7915C13.3844 15.9917 11.7264 16.6639 10.0001 16.6665ZM8.33346 8.33317C8.33346 8.00354 8.4312 7.6813 8.61434 7.40722C8.79748 7.13314 9.05777 6.91952 9.36232 6.79337C9.66686 6.66723 10.002 6.63422 10.3253 6.69853C10.6486 6.76284 10.9455 6.92157 11.1786 7.15466C11.4117 7.38775 11.5705 7.68472 11.6348 8.00802C11.6991 8.33132 11.6661 8.66643 11.5399 8.97098C11.4138 9.27552 11.2002 9.53582 10.9261 9.71895C10.652 9.90209 10.3298 9.99984 10.0001 9.99984C9.55809 9.99984 9.13417 9.82424 8.82161 9.51168C8.50905 9.19912 8.33346 8.7752 8.33346 8.33317ZM15.7585 13.3332C15.0139 12.0596 13.868 11.069 12.5001 10.5165C12.9244 10.0354 13.2009 9.44205 13.2963 8.8077C13.3918 8.17335 13.3022 7.52493 13.0382 6.94025C12.7743 6.35557 12.3473 5.85947 11.8084 5.51148C11.2695 5.16348 10.6416 4.97838 10.0001 4.97838C9.35863 4.97838 8.73076 5.16348 8.19187 5.51148C7.65297 5.85947 7.22593 6.35557 6.962 6.94025C6.69806 7.52493 6.60844 8.17335 6.7039 8.8077C6.79935 9.44205 7.07582 10.0354 7.50012 10.5165C6.13229 11.069 4.98635 12.0596 4.24179 13.3332C3.64841 12.3224 3.33489 11.1719 3.33346 9.99984C3.33346 8.23173 4.03583 6.53604 5.28608 5.28579C6.53632 4.03555 8.23201 3.33317 10.0001 3.33317C11.7682 3.33317 13.4639 4.03555 14.7142 5.28579C15.9644 6.53604 16.6668 8.23173 16.6668 9.99984C16.6654 11.1719 16.3518 12.3224 15.7585 13.3332Z" fill="#679AB4"/>
</svg>
