<svg width="48" height="47" viewBox="0 0 48 47" fill="none" xmlns="http://www.w3.org/2000/svg">
<g clip-path="url(#clip0_3523_290390)">
<path d="M15.9211 21.9018C14.115 21.9018 12.6445 20.4313 12.6445 18.6252C12.6445 16.8191 14.115 15.3486 15.9211 15.3486C16.3508 15.3486 16.7 15.6978 16.7 16.1275C16.7 16.5572 16.3508 16.9063 15.9211 16.9063C14.9744 16.9063 14.2022 17.6785 14.2022 18.6252C14.2022 19.5719 14.9744 20.3441 15.9211 20.3441C16.3508 20.3441 16.7 20.6932 16.7 21.1229C16.7 21.5526 16.3508 21.9018 15.9211 21.9018Z" fill="#679AB4"/>
<path d="M32.4786 21.9018C32.0488 21.9018 31.6997 21.5526 31.6997 21.1229C31.6997 20.6932 32.0488 20.3441 32.4786 20.3441C33.4253 20.3441 34.1974 19.5719 34.1974 18.6252C34.1974 17.6785 33.4253 16.9063 32.4786 16.9063C32.0488 16.9063 31.6997 16.5572 31.6997 16.1275C31.6997 15.6978 32.0488 15.3486 32.4786 15.3486C34.2847 15.3486 35.7551 16.8191 35.7551 18.6252C35.7619 20.4313 34.2847 21.9018 32.4786 21.9018Z" fill="#679AB4"/>
<path d="M24.4013 28.992H23.9985C19.1172 28.992 15.1289 25.0172 15.1289 20.1225V14.4288C15.1289 13.999 15.478 13.6499 15.9078 13.6499C16.3375 13.6499 16.6866 13.999 16.6866 14.4288V20.1225C16.6866 24.1443 19.9632 27.4209 23.985 27.4209H24.3879C28.4098 27.4209 31.6863 24.1443 31.6863 20.1225V14.4288C31.6863 13.999 32.0355 13.6499 32.4652 13.6499C32.8949 13.6499 33.244 13.999 33.244 14.4288V20.1225C33.2642 25.0172 29.2893 28.992 24.3946 28.992H24.4013Z" fill="#679AB4"/>
<path d="M24.1997 31.906C20.6949 31.906 17.9487 30.0999 17.9487 27.7834V26.877C17.9487 26.4473 18.2979 26.0981 18.7276 26.0981C19.1573 26.0981 19.5064 26.4473 19.5064 26.877V27.7834C19.5064 29.1397 21.6886 30.3349 24.1863 30.3349C26.684 30.3349 28.8662 29.1397 28.8662 27.7834V26.877C28.8662 26.4473 29.2153 26.0981 29.645 26.0981C30.0747 26.0981 30.4239 26.4473 30.4239 26.877V27.7834C30.444 30.0999 27.6979 31.906 24.193 31.906H24.1997Z" fill="#679AB4"/>
<path d="M24.1997 35.9685C20.6949 35.9685 17.9487 34.1624 17.9487 31.8459V26.8707C17.9487 26.4409 18.2979 26.0918 18.7276 26.0918C19.1573 26.0918 19.5064 26.4409 19.5064 26.8707V31.8459C19.5064 33.2022 21.6886 34.3974 24.1863 34.3974C26.684 34.3974 28.8662 33.2022 28.8662 31.8459V26.8707C28.8662 26.4409 29.2153 26.0918 29.645 26.0918C30.0747 26.0918 30.4239 26.4409 30.4239 26.8707V31.8459C30.444 34.1624 27.6979 35.9685 24.193 35.9685H24.1997Z" fill="#679AB4"/>
<path d="M24.1998 35.9684C23.77 35.9684 23.4209 35.6192 23.4209 35.1895V31.1207C23.4209 30.6909 23.77 30.3418 24.1998 30.3418C24.6295 30.3418 24.9786 30.6909 24.9786 31.1207V35.1895C24.9786 35.6192 24.6295 35.9684 24.1998 35.9684Z" fill="#679AB4"/>
<path d="M12.5772 46.3149C12.1475 46.3149 11.7983 45.9658 11.7983 45.5361V39.3858C11.7983 38.9561 12.1475 38.6069 12.5772 38.6069C13.0069 38.6069 13.3561 38.9561 13.3561 39.3858V45.5361C13.3628 45.9658 13.0069 46.3149 12.5772 46.3149Z" fill="#679AB4"/>
<path d="M35.8223 46.3149C35.3926 46.3149 35.0435 45.9658 35.0435 45.5361V39.3858C35.0435 38.9561 35.3926 38.6069 35.8223 38.6069C36.252 38.6069 36.6012 38.9561 36.6012 39.3858V45.5361C36.6012 45.9658 36.252 46.3149 35.8223 46.3149Z" fill="#679AB4"/>
<path d="M24.1998 43.3408C24.146 43.3408 24.099 43.3341 24.0453 43.3206C23.9983 43.3139 23.9446 43.2938 23.8976 43.2736C23.8506 43.2535 23.8036 43.2266 23.7566 43.1998C23.7096 43.1729 23.676 43.1326 23.6358 43.0991C23.6022 43.0655 23.5619 43.0252 23.535 42.9782C23.5082 42.9312 23.4813 42.8842 23.4612 42.8372C23.441 42.7902 23.4276 42.7365 23.4142 42.6895C23.4075 42.6358 23.394 42.5888 23.394 42.5351C23.394 42.4813 23.4008 42.4343 23.4142 42.3806C23.4209 42.3336 23.441 42.2799 23.4612 42.2329C23.4813 42.1859 23.5082 42.1389 23.535 42.0919C23.5619 42.0449 23.6022 42.0113 23.6358 41.9711C23.6693 41.9375 23.7096 41.8972 23.7566 41.8703C23.8036 41.8435 23.8506 41.8166 23.8976 41.7965C23.9446 41.7763 23.9983 41.7629 24.0453 41.7495C24.146 41.7293 24.2468 41.7293 24.3475 41.7495C24.3945 41.7562 24.4482 41.7763 24.4952 41.7965C24.5422 41.8166 24.5892 41.8435 24.6295 41.8703C24.6765 41.8972 24.71 41.9375 24.7503 41.9711C24.7839 42.0046 24.8242 42.0449 24.851 42.0919C24.8779 42.1389 24.9048 42.1859 24.9249 42.2329C24.945 42.2799 24.9585 42.3336 24.9719 42.3806C24.9786 42.4343 24.992 42.4813 24.992 42.5351C24.992 42.5888 24.9853 42.6358 24.9719 42.6895C24.9652 42.7365 24.945 42.7902 24.9249 42.8372C24.9048 42.8842 24.8779 42.9312 24.851 42.9782C24.8242 43.0252 24.7839 43.0588 24.7503 43.0991C24.7168 43.1326 24.6765 43.1729 24.6295 43.1998C24.5825 43.2266 24.5355 43.2535 24.4952 43.2736C24.4482 43.2938 24.3945 43.3072 24.3475 43.3206C24.3005 43.3408 24.2535 43.3408 24.1998 43.3408Z" fill="#679AB4"/>
<path d="M24.1998 39.4398C24.146 39.4398 24.099 39.4331 24.0453 39.4197C23.9983 39.413 23.9446 39.3928 23.8976 39.3727C23.8506 39.3525 23.8036 39.3257 23.7566 39.2988C23.7096 39.272 23.676 39.2317 23.6358 39.1981C23.6022 39.1645 23.5619 39.1243 23.535 39.0773C23.5082 39.0303 23.4813 38.9833 23.4612 38.9363C23.441 38.8893 23.4276 38.8355 23.4142 38.7885C23.4075 38.7348 23.394 38.6878 23.394 38.6341C23.394 38.5804 23.4008 38.5334 23.4142 38.4797C23.4209 38.4327 23.441 38.379 23.4612 38.332C23.4813 38.285 23.5082 38.238 23.535 38.1977C23.5619 38.1507 23.6022 38.1171 23.6358 38.0768C23.6693 38.0433 23.7096 38.003 23.7566 37.9761C23.8036 37.9493 23.8506 37.9224 23.8976 37.9023C23.9446 37.8821 23.9983 37.8687 24.0453 37.8553C24.3005 37.8015 24.569 37.8821 24.7503 38.0634C24.7839 38.097 24.8242 38.1373 24.851 38.1843C24.8779 38.2313 24.9048 38.2783 24.9249 38.3253C24.945 38.3723 24.9585 38.426 24.9719 38.473C24.9786 38.5267 24.992 38.5737 24.992 38.6274C24.992 38.6811 24.9853 38.7281 24.9719 38.7818C24.9652 38.8288 24.945 38.8825 24.9249 38.9295C24.9048 38.9765 24.8779 39.0235 24.851 39.0705C24.8242 39.1175 24.7839 39.1511 24.7503 39.1914C24.6026 39.3593 24.4012 39.4398 24.1998 39.4398Z" fill="#679AB4"/>
<path d="M39.4009 46.3152H8.99859C7.44088 46.3152 6.17188 45.0462 6.17188 43.4885V39.9903C6.17188 35.5589 7.48788 32.5106 10.0796 30.9395C12.2483 29.6369 14.8333 29.6235 16.5589 29.6235H16.579C17.848 29.6235 17.9286 28.7976 17.9353 28.7036C17.9622 28.2739 18.3314 27.9449 18.7612 27.9717C19.1909 27.9986 19.5199 28.3679 19.493 28.7976C19.4863 28.8983 19.4393 29.4556 19.0499 30.0196C18.694 30.55 17.9689 31.1946 16.5589 31.1946C14.9139 31.1946 12.678 31.1946 10.8853 32.2756C8.76359 33.558 7.72959 36.0826 7.72959 39.9836V43.4817C7.72959 44.1733 8.28688 44.7373 8.98516 44.7373H39.4009C40.0924 44.7373 40.6564 44.18 40.6564 43.4817V39.9836C40.6564 36.0826 39.6224 33.558 37.5007 32.2756C35.708 31.1946 33.4722 31.1946 31.8272 31.1946H31.807C30.4037 31.1946 29.6786 30.5635 29.316 30.0196C28.94 29.4623 28.8863 28.8983 28.8729 28.7976L30.4306 28.7036C30.4507 28.9117 30.6119 29.6235 31.7869 29.6235H31.807C33.5326 29.6235 36.1243 29.6235 38.2863 30.9395C40.8847 32.5106 42.194 35.5589 42.194 39.9903V43.4885C42.2007 45.0462 40.9452 46.3152 39.3875 46.3152H39.4009Z" fill="#679AB4"/>
<path d="M31.6994 12.1125H26.187C24.5554 12.1125 22.0174 11.5687 20.8491 10.4407L20.7685 10.3601L19.9964 10.9375C19.0765 11.6291 17.9754 12.0521 16.8205 12.1595L16.6997 12.173V16.4097L15.0883 15.7852C14.8935 15.4562 14.6988 15.1272 14.5108 14.8117C13.4365 13.0122 12.4227 11.3202 12.1138 9.80281C11.6304 7.41924 12.3958 4.98196 14.1684 3.28324C14.3027 3.14896 14.484 3.08182 14.672 3.08182C14.86 3.08182 15.0547 3.16239 15.1957 3.30339C15.518 3.63239 15.8604 3.78681 16.2767 3.78681C16.9615 3.78681 17.7807 3.38396 19.2578 2.53124C19.7883 2.22239 20.3925 1.87996 21.0237 1.56439C22.1181 1.02053 24.1928 0.671387 25.2201 0.671387C25.8445 0.671387 26.4623 0.772101 27.0531 0.980244C28.9533 1.63153 30.1417 3.16239 30.6788 4.02181L30.7258 4.08896H30.8064C31.122 4.04867 31.4241 4.03524 31.7128 4.03524C34.1031 4.03524 35.0968 5.13639 35.5198 6.06296C36.1711 7.49981 35.963 9.61481 34.9155 12.3542C34.4791 13.4822 33.7943 14.9258 33.3108 15.7315L31.7195 16.3425V12.1192L31.6994 12.1125ZM14.6518 4.90139C13.6111 6.20396 13.2015 7.88924 13.5305 9.52081C13.732 10.5212 14.3765 11.7231 14.9808 12.7705L15.2293 13.207V11.468C15.2293 11.0651 15.5583 10.7361 15.9611 10.7361H16.2364C17.2704 10.7361 18.291 10.3937 19.1168 9.77596L20.4261 8.79567C20.5537 8.70167 20.7014 8.64796 20.8625 8.64796C21.0841 8.64796 21.2923 8.74867 21.4333 8.92324C22.3464 10.0714 24.7165 10.6555 26.187 10.6555H32.4245C32.8274 10.6555 33.1497 10.9845 33.1497 11.3874V12.079L33.4115 12.126C33.5055 11.8977 33.5928 11.6627 33.6801 11.4277C34.4993 9.1381 34.6335 7.36553 34.0494 6.43224C33.66 5.8011 32.8744 5.48553 31.7263 5.48553C31.3435 5.48553 30.9138 5.5191 30.4438 5.59296C30.4035 5.59296 30.37 5.59967 30.3297 5.59967C30.041 5.59967 29.7858 5.43853 29.6583 5.18339C29.6113 5.08267 28.5638 3.03482 26.5563 2.34996C26.1265 2.20224 25.6767 2.12839 25.2134 2.12839C24.4077 2.12839 22.5478 2.43053 21.6615 2.86696C21.0707 3.15567 20.4933 3.49139 19.983 3.79353C18.9758 4.37767 18.0291 4.92153 17.1025 5.1431C16.8138 5.21024 16.5318 5.25053 16.2633 5.25053C15.753 5.25053 15.2695 5.12296 14.8398 4.86782L14.7391 4.80739L14.6653 4.90139H14.6518Z" fill="#679AB4"/>
</g>
<defs>
<clipPath id="clip0_3523_290390">
<rect width="36.0423" height="45.6437" fill="white" transform="translate(6.17188 0.671387)"/>
</clipPath>
</defs>
</svg>
