<svg width="16" height="17" viewBox="0 0 16 17" fill="none" xmlns="http://www.w3.org/2000/svg">
<rect width="16" height="17" fill="#F5F5F5"/>
<g clip-path="url(#clip0_0_1)">
<path fill-rule="evenodd" clip-rule="evenodd" d="M8 16.5C12.4183 16.5 16 12.9183 16 8.5C16 4.08172 12.4183 0.5 8 0.5C3.58172 0.5 0 4.08172 0 8.5C0 12.9183 3.58172 16.5 8 16.5ZM8 14.5C11.3137 14.5 14 11.8137 14 8.5C14 5.18629 11.3137 2.5 8 2.5C4.68629 2.5 2 5.18629 2 8.5C2 11.8137 4.68629 14.5 8 14.5Z" fill="#237B4B"/>
<path d="M15 8.5C15 7.58075 14.8189 6.6705 14.4672 5.82122C14.1154 4.97194 13.5998 4.20026 12.9497 3.55025C12.2997 2.90024 11.5281 2.38463 10.6788 2.03284C9.82951 1.68106 8.91925 1.5 8 1.5" stroke="#237B4B" stroke-width="2"/>
</g>
<defs>
<clipPath id="clip0_0_1">
<rect width="16" height="17" fill="white"/>
</clipPath>
</defs>
</svg>
