<svg width="18" height="18" viewBox="0 0 18 18" fill="none" xmlns="http://www.w3.org/2000/svg">
<path d="M9.75 15H4.5C4.30109 15 4.11032 14.921 3.96967 14.7803C3.82902 14.6397 3.75 14.4489 3.75 14.25V3.75C3.75 3.55109 3.82902 3.36032 3.96967 3.21967C4.11032 3.07902 4.30109 3 4.5 3H8.25V5.25C8.25 5.84674 8.48705 6.41903 8.90901 6.84099C9.33097 7.26295 9.90326 7.5 10.5 7.5H12.75V9C12.75 9.19891 12.829 9.38968 12.9697 9.53033C13.1103 9.67098 13.3011 9.75 13.5 9.75C13.6989 9.75 13.8897 9.67098 14.0303 9.53033C14.171 9.38968 14.25 9.19891 14.25 9V6.75C14.25 6.75 14.25 6.75 14.25 6.705C14.2422 6.6361 14.2271 6.56822 14.205 6.5025V6.435C14.1689 6.35788 14.1208 6.287 14.0625 6.225L9.5625 1.725C9.5005 1.66666 9.42962 1.61856 9.3525 1.5825C9.33011 1.57932 9.30739 1.57932 9.285 1.5825C9.20881 1.53881 9.12467 1.51076 9.0375 1.5H4.5C3.90326 1.5 3.33097 1.73705 2.90901 2.15901C2.48705 2.58097 2.25 3.15326 2.25 3.75V14.25C2.25 14.8467 2.48705 15.419 2.90901 15.841C3.33097 16.2629 3.90326 16.5 4.5 16.5H9.75C9.94891 16.5 10.1397 16.421 10.2803 16.2803C10.421 16.1397 10.5 15.9489 10.5 15.75C10.5 15.5511 10.421 15.3603 10.2803 15.2197C10.1397 15.079 9.94891 15 9.75 15ZM9.75 4.0575L11.6925 6H10.5C10.3011 6 10.1103 5.92098 9.96967 5.78033C9.82902 5.63968 9.75 5.44891 9.75 5.25V4.0575ZM6 6C5.80109 6 5.61032 6.07902 5.46967 6.21967C5.32902 6.36032 5.25 6.55109 5.25 6.75C5.25 6.94891 5.32902 7.13968 5.46967 7.28033C5.61032 7.42098 5.80109 7.5 6 7.5H6.75C6.94891 7.5 7.13968 7.42098 7.28033 7.28033C7.42098 7.13968 7.5 6.94891 7.5 6.75C7.5 6.55109 7.42098 6.36032 7.28033 6.21967C7.13968 6.07902 6.94891 6 6.75 6H6ZM10.5 9H6C5.80109 9 5.61032 9.07902 5.46967 9.21967C5.32902 9.36032 5.25 9.55109 5.25 9.75C5.25 9.94891 5.32902 10.1397 5.46967 10.2803C5.61032 10.421 5.80109 10.5 6 10.5H10.5C10.6989 10.5 10.8897 10.421 11.0303 10.2803C11.171 10.1397 11.25 9.94891 11.25 9.75C11.25 9.55109 11.171 9.36032 11.0303 9.21967C10.8897 9.07902 10.6989 9 10.5 9ZM15.5325 12.9675L14.0325 11.4675C13.9612 11.3992 13.8771 11.3457 13.785 11.31C13.6024 11.235 13.3976 11.235 13.215 11.31C13.1229 11.3457 13.0388 11.3992 12.9675 11.4675L11.4675 12.9675C11.3263 13.1087 11.2469 13.3003 11.2469 13.5C11.2469 13.6997 11.3263 13.8913 11.4675 14.0325C11.6087 14.1737 11.8003 14.2531 12 14.2531C12.1997 14.2531 12.3913 14.1737 12.5325 14.0325L12.75 13.8075V15.75C12.75 15.9489 12.829 16.1397 12.9697 16.2803C13.1103 16.421 13.3011 16.5 13.5 16.5C13.6989 16.5 13.8897 16.421 14.0303 16.2803C14.171 16.1397 14.25 15.9489 14.25 15.75V13.8075L14.4675 14.0325C14.5372 14.1028 14.6202 14.1586 14.7116 14.1967C14.803 14.2347 14.901 14.2543 15 14.2543C15.099 14.2543 15.197 14.2347 15.2884 14.1967C15.3798 14.1586 15.4628 14.1028 15.5325 14.0325C15.6028 13.9628 15.6586 13.8798 15.6967 13.7884C15.7347 13.697 15.7543 13.599 15.7543 13.5C15.7543 13.401 15.7347 13.303 15.6967 13.2116C15.6586 13.1202 15.6028 13.0372 15.5325 12.9675ZM9 13.5C9.19891 13.5 9.38968 13.421 9.53033 13.2803C9.67098 13.1397 9.75 12.9489 9.75 12.75C9.75 12.5511 9.67098 12.3603 9.53033 12.2197C9.38968 12.079 9.19891 12 9 12H6C5.80109 12 5.61032 12.079 5.46967 12.2197C5.32902 12.3603 5.25 12.5511 5.25 12.75C5.25 12.9489 5.32902 13.1397 5.46967 13.2803C5.61032 13.421 5.80109 13.5 6 13.5H9Z" fill="white"/>
</svg>
