<svg width="26" height="26" viewBox="0 0 26 26" fill="none" xmlns="http://www.w3.org/2000/svg">
<path d="M13.7685 8.98018C13.6655 8.88156 13.544 8.80424 13.411 8.75268C13.1473 8.64433 12.8514 8.64433 12.5877 8.75268C12.4547 8.80424 12.3332 8.88156 12.2302 8.98018L8.98019 12.2302C8.77619 12.4342 8.66159 12.7109 8.66159 12.9993C8.66159 13.2878 8.77619 13.5645 8.98019 13.7685C9.18418 13.9725 9.46086 14.0871 9.74935 14.0871C10.0378 14.0871 10.3145 13.9725 10.5185 13.7685L11.916 12.3602V16.2493C11.916 16.5367 12.0302 16.8122 12.2333 17.0154C12.4365 17.2185 12.712 17.3327 12.9994 17.3327C13.2867 17.3327 13.5622 17.2185 13.7654 17.0154C13.9685 16.8122 14.0827 16.5367 14.0827 16.2493V12.3602L15.4802 13.7685C15.5809 13.8701 15.7007 13.9506 15.8327 14.0056C15.9647 14.0606 16.1063 14.089 16.2494 14.089C16.3924 14.089 16.534 14.0606 16.666 14.0056C16.798 13.9506 16.9178 13.8701 17.0185 13.7685C17.1201 13.6678 17.2007 13.548 17.2557 13.416C17.3107 13.284 17.339 13.1424 17.339 12.9993C17.339 12.8563 17.3107 12.7147 17.2557 12.5827C17.2007 12.4507 17.1201 12.3309 17.0185 12.2302L13.7685 8.98018ZM12.9994 2.16602C10.8567 2.16602 8.76221 2.80138 6.98068 3.99176C5.19914 5.18214 3.81061 6.87408 2.99066 8.85361C2.17071 10.8331 1.95617 13.0114 2.37418 15.1128C2.79219 17.2143 3.82396 19.1446 5.33903 20.6597C6.8541 22.1747 8.78441 23.2065 10.8859 23.6245C12.9873 24.0425 15.1656 23.828 17.1451 23.008C19.1246 22.1881 20.8166 20.7996 22.0069 19.018C23.1973 17.2365 23.8327 15.142 23.8327 12.9993C23.8327 11.5767 23.5525 10.168 23.008 8.85361C22.4636 7.53925 21.6656 6.34499 20.6597 5.33903C19.6537 4.33306 18.4595 3.53508 17.1451 2.99065C15.8307 2.44623 14.422 2.16602 12.9994 2.16602V2.16602ZM12.9994 21.666C11.2852 21.666 9.60964 21.1577 8.18441 20.2054C6.75919 19.2531 5.64836 17.8996 4.9924 16.3159C4.33644 14.7323 4.16481 12.9897 4.49921 11.3086C4.83362 9.6274 5.65904 8.08315 6.87109 6.87109C8.08315 5.65904 9.6274 4.83362 11.3086 4.49921C12.9897 4.1648 14.7323 4.33643 16.3159 4.99239C17.8996 5.64835 19.2531 6.75918 20.2054 8.18441C21.1577 9.60963 21.666 11.2852 21.666 12.9993C21.666 15.2979 20.7529 17.5023 19.1276 19.1276C17.5023 20.7529 15.2979 21.666 12.9994 21.666V21.666Z" fill="#455560"/>
</svg>
