<svg width="21" height="20" viewBox="0 0 21 20" fill="none" xmlns="http://www.w3.org/2000/svg">
<path d="M10.7502 10.1832C11.1948 9.79828 11.5515 9.32224 11.7959 8.78736C12.0403 8.25247 12.1668 7.67126 12.1668 7.08317C12.1668 5.9781 11.7278 4.91829 10.9464 4.13689C10.165 3.35549 9.10523 2.9165 8.00016 2.9165C6.89509 2.9165 5.83529 3.35549 5.05388 4.13689C4.27248 4.91829 3.8335 5.9781 3.8335 7.08317C3.83349 7.67126 3.96 8.25247 4.20443 8.78736C4.44887 9.32224 4.80551 9.79828 5.25016 10.1832C4.08361 10.7114 3.09388 11.5644 2.39931 12.6403C1.70474 13.7161 1.33472 14.9693 1.3335 16.2498C1.3335 16.4709 1.42129 16.6828 1.57757 16.8391C1.73385 16.9954 1.94582 17.0832 2.16683 17.0832C2.38784 17.0832 2.5998 16.9954 2.75609 16.8391C2.91237 16.6828 3.00016 16.4709 3.00016 16.2498C3.00016 14.9238 3.52695 13.652 4.46463 12.7143C5.40231 11.7766 6.67408 11.2498 8.00016 11.2498C9.32624 11.2498 10.598 11.7766 11.5357 12.7143C12.4734 13.652 13.0002 14.9238 13.0002 16.2498C13.0002 16.4709 13.088 16.6828 13.2442 16.8391C13.4005 16.9954 13.6125 17.0832 13.8335 17.0832C14.0545 17.0832 14.2665 16.9954 14.4228 16.8391C14.579 16.6828 14.6668 16.4709 14.6668 16.2498C14.6656 14.9693 14.2956 13.7161 13.601 12.6403C12.9064 11.5644 11.9167 10.7114 10.7502 10.1832ZM8.00016 9.58317C7.50571 9.58317 7.02236 9.43655 6.61124 9.16185C6.20011 8.88714 5.87968 8.4967 5.69046 8.03988C5.50125 7.58306 5.45174 7.0804 5.5482 6.59545C5.64466 6.11049 5.88276 5.66504 6.2324 5.3154C6.58203 4.96577 7.02748 4.72767 7.51244 4.63121C7.99739 4.53474 8.50006 4.58425 8.95687 4.77347C9.41369 4.96269 9.80413 5.28312 10.0788 5.69425C10.3535 6.10537 10.5002 6.58872 10.5002 7.08317C10.5002 7.74621 10.2368 8.3821 9.76793 8.85094C9.29909 9.31978 8.6632 9.58317 8.00016 9.58317ZM16.1168 9.84984C16.6501 9.24928 16.9985 8.50738 17.12 7.71345C17.2415 6.91952 17.1309 6.1074 16.8016 5.37484C16.4723 4.64228 15.9383 4.0205 15.2639 3.58436C14.5895 3.14821 13.8033 2.91629 13.0002 2.9165C12.7791 2.9165 12.5672 3.0043 12.4109 3.16058C12.2546 3.31686 12.1668 3.52882 12.1668 3.74984C12.1668 3.97085 12.2546 4.18281 12.4109 4.33909C12.5672 4.49537 12.7791 4.58317 13.0002 4.58317C13.6632 4.58317 14.2991 4.84656 14.7679 5.3154C15.2368 5.78425 15.5002 6.42013 15.5002 7.08317C15.499 7.52087 15.3829 7.95059 15.1635 8.32936C14.9442 8.70812 14.6292 9.02266 14.2502 9.2415C14.1266 9.31277 14.0234 9.41456 13.9505 9.53712C13.8775 9.65968 13.8372 9.79892 13.8335 9.9415C13.83 10.083 13.8626 10.223 13.9282 10.3484C13.9938 10.4738 14.0903 10.5804 14.2085 10.6582L14.5335 10.8748L14.6418 10.9332C15.6463 11.4096 16.4938 12.1632 17.0843 13.1051C17.6749 14.047 17.984 15.1381 17.9752 16.2498C17.9752 16.4709 18.063 16.6828 18.2192 16.8391C18.3755 16.9954 18.5875 17.0832 18.8085 17.0832C19.0295 17.0832 19.2415 16.9954 19.3978 16.8391C19.554 16.6828 19.6418 16.4709 19.6418 16.2498C19.6486 14.971 19.3283 13.7117 18.7114 12.5916C18.0944 11.4714 17.2013 10.5276 16.1168 9.84984Z" fill="#679AB4"/>
</svg>
