<svg width="14" height="14" viewBox="0 0 14 14" fill="none" xmlns="http://www.w3.org/2000/svg">
<path d="M6.52671 9.1935C6.49804 9.22518 6.47132 9.25857 6.44671 9.2935C6.42148 9.33066 6.4013 9.37101 6.38671 9.4135C6.36749 9.45129 6.35401 9.49173 6.34671 9.5335C6.34344 9.57788 6.34344 9.62245 6.34671 9.66683C6.34446 9.75428 6.36272 9.84104 6.40004 9.92016C6.42999 10.0029 6.47775 10.078 6.53997 10.1402C6.60218 10.2025 6.67731 10.2502 6.76004 10.2802C6.83984 10.3154 6.92613 10.3337 7.01338 10.3337C7.10063 10.3337 7.18691 10.3154 7.26671 10.2802C7.34944 10.2502 7.42457 10.2025 7.48679 10.1402C7.549 10.078 7.59677 10.0029 7.62671 9.92016C7.65631 9.8391 7.6699 9.75307 7.66671 9.66683C7.66722 9.57909 7.6504 9.49212 7.61722 9.41089C7.58405 9.32967 7.53516 9.25579 7.47338 9.1935C7.4114 9.13101 7.33767 9.08141 7.25643 9.04757C7.17519 9.01372 7.08805 8.9963 7.00004 8.9963C6.91204 8.9963 6.8249 9.01372 6.74366 9.04757C6.66242 9.08141 6.58869 9.13101 6.52671 9.1935ZM7.00004 0.333496C5.6815 0.333496 4.39257 0.724489 3.29624 1.45703C2.19991 2.18957 1.34543 3.23077 0.840847 4.44894C0.336263 5.66711 0.20424 7.00756 0.461475 8.30077C0.71871 9.59397 1.35365 10.7819 2.286 11.7142C3.21835 12.6466 4.40624 13.2815 5.69944 13.5387C6.99265 13.796 8.33309 13.6639 9.55127 13.1594C10.7694 12.6548 11.8106 11.8003 12.5432 10.704C13.2757 9.60764 13.6667 8.31871 13.6667 7.00016C13.6667 6.12468 13.4943 5.25778 13.1592 4.44894C12.8242 3.6401 12.3331 2.90517 11.7141 2.28612C11.095 1.66706 10.3601 1.176 9.55127 0.840966C8.74243 0.505935 7.87552 0.333496 7.00004 0.333496ZM7.00004 12.3335C5.94521 12.3335 4.91406 12.0207 4.037 11.4347C3.15994 10.8486 2.47635 10.0157 2.07269 9.04114C1.66902 8.0666 1.5634 6.99425 1.76919 5.95968C1.97498 4.92512 2.48293 3.97481 3.22881 3.22893C3.97469 2.48305 4.925 1.9751 5.95956 1.76931C6.99413 1.56352 8.06648 1.66914 9.04102 2.07281C10.0156 2.47647 10.8485 3.16006 11.4345 4.03712C12.0206 4.91418 12.3334 5.94533 12.3334 7.00016C12.3334 8.41465 11.7715 9.77121 10.7713 10.7714C9.77109 11.7716 8.41453 12.3335 7.00004 12.3335ZM7.00004 3.66683C6.64875 3.6666 6.3036 3.75891 5.99932 3.93446C5.69503 4.11001 5.44236 4.3626 5.26671 4.66683C5.21847 4.74271 5.18609 4.82756 5.17149 4.91628C5.1569 5.005 5.16041 5.09576 5.1818 5.18309C5.20319 5.27042 5.24202 5.35252 5.29597 5.42445C5.34991 5.49639 5.41785 5.55666 5.49569 5.60166C5.57353 5.64666 5.65968 5.67544 5.74893 5.68628C5.83819 5.69712 5.92872 5.6898 6.01507 5.66475C6.10142 5.6397 6.18181 5.59744 6.25141 5.54051C6.32101 5.48358 6.37837 5.41317 6.42004 5.3335C6.47878 5.23176 6.56336 5.14735 6.66521 5.08882C6.76706 5.03028 6.88257 4.9997 7.00004 5.00016C7.17686 5.00016 7.34642 5.0704 7.47145 5.19543C7.59647 5.32045 7.66671 5.49002 7.66671 5.66683C7.66671 5.84364 7.59647 6.01321 7.47145 6.13823C7.34642 6.26326 7.17686 6.3335 7.00004 6.3335C6.82323 6.3335 6.65366 6.40373 6.52864 6.52876C6.40362 6.65378 6.33338 6.82335 6.33338 7.00016V7.66683C6.33338 7.84364 6.40362 8.01321 6.52864 8.13823C6.65366 8.26326 6.82323 8.3335 7.00004 8.3335C7.17686 8.3335 7.34642 8.26326 7.47145 8.13823C7.59647 8.01321 7.66671 7.84364 7.66671 7.66683V7.54683C8.10762 7.38684 8.47828 7.07698 8.71389 6.67141C8.9495 6.26584 9.03507 5.79036 8.95564 5.32809C8.87622 4.86582 8.63684 4.44617 8.27937 4.14251C7.9219 3.83884 7.46907 3.67047 7.00004 3.66683Z" fill="#EE7500"/>
</svg>
