<svg width="10" height="11" viewBox="0 0 10 11" fill="none" xmlns="http://www.w3.org/2000/svg">
<path d="M8.74992 4.7499H3.05742L5.53242 2.2824C5.67365 2.14117 5.75299 1.94962 5.75299 1.7499C5.75299 1.55017 5.67365 1.35862 5.53242 1.21739C5.39119 1.07617 5.19965 0.996826 4.99992 0.996826C4.8002 0.996826 4.60865 1.07617 4.46742 1.21739L0.717422 4.9674C0.649142 5.03872 0.595618 5.12283 0.559922 5.2149C0.484909 5.39749 0.484909 5.6023 0.559922 5.7849C0.595618 5.87696 0.649142 5.96107 0.717422 6.0324L4.46742 9.78239C4.53714 9.85269 4.6201 9.90849 4.71149 9.94656C4.80288 9.98464 4.90091 10.0042 4.99992 10.0042C5.09893 10.0042 5.19696 9.98464 5.28835 9.94656C5.37975 9.90849 5.4627 9.85269 5.53242 9.78239C5.60272 9.71267 5.65851 9.62972 5.69659 9.53833C5.73467 9.44693 5.75427 9.3489 5.75427 9.2499C5.75427 9.15089 5.73467 9.05286 5.69659 8.96146C5.65851 8.87007 5.60272 8.78712 5.53242 8.7174L3.05742 6.2499H8.74992C8.94883 6.2499 9.1396 6.17088 9.28025 6.03023C9.42091 5.88957 9.49992 5.69881 9.49992 5.4999C9.49992 5.30098 9.42091 5.11022 9.28025 4.96957C9.1396 4.82891 8.94883 4.7499 8.74992 4.7499Z" fill="#EE7500"/>
</svg>
