<svg width="22" height="22" viewBox="0 0 22 22" fill="none" xmlns="http://www.w3.org/2000/svg">
<path d="M10.2308 15.019C10.3338 15.1176 10.4553 15.1949 10.5883 15.2465C10.852 15.3549 11.1479 15.3549 11.4116 15.2465C11.5446 15.1949 11.6661 15.1176 11.7691 15.019L15.0191 11.769C15.2231 11.565 15.3377 11.2883 15.3377 10.9998C15.3377 10.7113 15.2231 10.4347 15.0191 10.2307C14.8151 10.0267 14.5385 9.91208 14.25 9.91208C13.9615 9.91208 13.6848 10.0267 13.4808 10.2307L12.0833 11.639V7.74984C12.0833 7.46252 11.9692 7.18697 11.766 6.98381C11.5628 6.78064 11.2873 6.66651 11 6.66651C10.7126 6.66651 10.4371 6.78064 10.2339 6.98381C10.0308 7.18697 9.91663 7.46252 9.91663 7.74984V11.639L8.51913 10.2307C8.41842 10.1291 8.2986 10.0485 8.16658 9.99354C8.03457 9.93854 7.89297 9.91023 7.74996 9.91023C7.60695 9.91023 7.46535 9.93854 7.33333 9.99354C7.20132 10.0485 7.0815 10.1291 6.98079 10.2307C6.87925 10.3314 6.79866 10.4512 6.74366 10.5832C6.68866 10.7152 6.66034 10.8568 6.66034 10.9998C6.66034 11.1429 6.68866 11.2845 6.74366 11.4165C6.79866 11.5485 6.87925 11.6683 6.98079 11.769L10.2308 15.019ZM11 21.8332C13.1426 21.8332 15.2371 21.1978 17.0186 20.0074C18.8002 18.817 20.1887 17.1251 21.0087 15.1456C21.8286 13.166 22.0431 10.9878 21.6251 8.88636C21.2071 6.7849 20.1754 4.85459 18.6603 3.33952C17.1452 1.82445 15.2149 0.792675 13.1134 0.374668C11.012 -0.0433383 8.83375 0.171198 6.85422 0.991147C4.87469 1.8111 3.18275 3.19963 1.99237 4.98116C0.80199 6.7627 0.166626 8.85721 0.166626 10.9998C0.166626 13.873 1.30799 16.6285 3.33964 18.6602C4.3456 19.6661 5.53986 20.4641 6.85422 21.0085C8.16858 21.553 9.57731 21.8332 11 21.8332ZM11 2.33318C12.7141 2.33318 14.3897 2.84147 15.8149 3.79377C17.2401 4.74608 18.351 6.09963 19.0069 7.68325C19.6629 9.26688 19.8345 11.0095 19.5001 12.6906C19.1657 14.3718 18.3403 15.916 17.1282 17.1281C15.9162 18.3402 14.3719 19.1656 12.6907 19.5C11.0096 19.8344 9.267 19.6628 7.68337 19.0068C6.09974 18.3508 4.7462 17.24 3.79389 15.8148C2.84158 14.3896 2.33329 12.7139 2.33329 10.9998C2.33329 8.7013 3.24639 6.4969 4.8717 4.87158C6.49702 3.24627 8.70142 2.33318 11 2.33318Z" fill="#1A1C1F"/>
</svg>
