<svg width="39" height="52" viewBox="0 0 39 52" fill="none" xmlns="http://www.w3.org/2000/svg">
<path d="M38.2962 0.297578C38.1073 0.108672 37.8452 0 37.5781 0H1.01562C0.748516 0 0.486484 0.108672 0.297578 0.297578C0.108672 0.486484 0 0.748516 0 1.01562V50.9844C0 51.2515 0.108672 51.5135 0.297578 51.7024C0.486484 51.8913 0.748516 52 1.01562 52H30.2656C30.5318 52 30.7928 51.8919 30.9815 51.7043C30.9824 51.7035 30.9829 51.7035 30.9838 51.7026L38.2963 44.3901C38.2996 44.3868 38.3016 44.3839 38.3045 44.3807C38.488 44.1925 38.5938 43.9348 38.5938 43.6719V38.0859C38.5938 37.5263 38.1377 37.0703 37.5781 37.0703C37.0185 37.0703 36.5625 37.5263 36.5625 38.0859V42.6562H30.2656C29.7047 42.6562 29.25 43.1109 29.25 43.6719V49.9688H2.03125V2.03125H36.5625V28.9453C36.5625 29.5049 37.0185 29.9609 37.5781 29.9609C38.1377 29.9609 38.5938 29.5049 38.5938 28.9453V1.01562C38.5938 0.748516 38.4851 0.486484 38.2962 0.297578ZM31.2812 44.6875H35.1262L31.2812 48.5325V44.6875Z" fill="#237B4B"/>
<path d="M37.5781 34.5312C38.139 34.5312 38.5938 34.0765 38.5938 33.5156C38.5938 32.9547 38.139 32.5 37.5781 32.5C37.0172 32.5 36.5625 32.9547 36.5625 33.5156C36.5625 34.0765 37.0172 34.5312 37.5781 34.5312Z" fill="#237B4B"/>
<path d="M26.2031 42.6562H6.09375C5.53292 42.6562 5.07812 43.1109 5.07812 43.6719C5.07812 44.2328 5.53292 44.6875 6.09375 44.6875H26.2031C26.764 44.6875 27.2188 44.2328 27.2188 43.6719C27.2188 43.1109 26.764 42.6562 26.2031 42.6562Z" fill="#237B4B"/>
<path d="M32.5 38.5938H6.09375C5.53292 38.5938 5.07812 39.0484 5.07812 39.6094C5.07812 40.1703 5.53292 40.625 6.09375 40.625H32.5C33.0608 40.625 33.5156 40.1703 33.5156 39.6094C33.5156 39.0484 33.0608 38.5938 32.5 38.5938Z" fill="#237B4B"/>
<path d="M33.5156 18.2812C33.5156 17.7203 33.0608 17.2656 32.5 17.2656H8.125C7.56417 17.2656 7.10938 17.7203 7.10938 18.2812C7.10938 18.8422 7.56417 19.2969 8.125 19.2969H15.2555C15.0734 19.5342 14.9089 19.7894 14.7648 20.0607L13.5526 22.3438H6.09375C5.53292 22.3438 5.07812 22.7984 5.07812 23.3594C5.07812 23.9203 5.53292 24.375 6.09375 24.375H12.4742L11.3957 26.4062H6.09375C5.53292 26.4062 5.07812 26.8609 5.07812 27.4219C5.07812 27.9828 5.53292 28.4375 6.09375 28.4375H10.3172L9.70531 29.59C9.55693 29.8696 9.438 30.1647 9.3472 30.4688H6.09375C5.53292 30.4688 5.07812 30.9234 5.07812 31.4844C5.07812 32.0453 5.53292 32.5 6.09375 32.5H9.18186C9.27773 33.2467 9.54119 33.9382 9.932 34.5312H6.09375C5.53292 34.5312 5.07812 34.9859 5.07812 35.5469C5.07812 36.1078 5.53292 36.5625 6.09375 36.5625H32.5C33.0608 36.5625 33.5156 36.1078 33.5156 35.5469C33.5156 34.9859 33.0608 34.5312 32.5 34.5312H28.6616C29.0526 33.9382 29.316 33.2467 29.4118 32.5H32.5C33.0608 32.5 33.5156 32.0453 33.5156 31.4844C33.5156 30.9234 33.0608 30.4688 32.5 30.4688H29.2464C29.1556 30.1647 29.0367 29.8695 28.8882 29.5899L28.2764 28.4375H32.5C33.0608 28.4375 33.5156 27.9828 33.5156 27.4219C33.5156 26.8609 33.0608 26.4062 32.5 26.4062H27.198L26.1195 24.375H32.5C33.0608 24.375 33.5156 23.9203 33.5156 23.3594C33.5156 22.7984 33.0608 22.3438 32.5 22.3438H25.0411L23.829 20.0607C23.6849 19.7894 23.5204 19.5342 23.3382 19.2969H32.5C33.0608 19.2969 33.5156 18.8421 33.5156 18.2812ZM13.6152 34.5312C12.2679 34.5312 11.1719 33.3382 11.1719 31.8718C11.1719 31.406 11.2851 30.9462 11.4995 30.5425L16.5588 21.0133C17.1209 19.9546 18.17 19.2969 19.2969 19.2969C20.4237 19.2969 21.4729 19.9546 22.035 21.0132L27.0941 30.5423C27.3085 30.9462 27.4219 31.4059 27.4219 31.8717C27.4219 33.3382 26.3258 34.5312 24.9786 34.5312H13.6152Z" fill="#237B4B"/>
<path d="M6.09375 11.1719H17.0625C17.6233 11.1719 18.0781 10.7172 18.0781 10.1562C18.0781 9.59532 17.6233 9.14062 17.0625 9.14062H6.09375C5.53292 9.14062 5.07812 9.59532 5.07812 10.1562C5.07812 10.7172 5.53292 11.1719 6.09375 11.1719Z" fill="#237B4B"/>
<path d="M20.6172 10.1562C20.6172 10.7172 21.072 11.1719 21.6328 11.1719H32.5C33.0608 11.1719 33.5156 10.7172 33.5156 10.1562C33.5156 9.59532 33.0608 9.14062 32.5 9.14062H21.6328C21.072 9.14062 20.6172 9.59532 20.6172 10.1562Z" fill="#237B4B"/>
<path d="M11.6797 7.10938H26.9141C27.4749 7.10938 27.9297 6.65468 27.9297 6.09375C27.9297 5.53282 27.4749 5.07812 26.9141 5.07812H11.6797C11.1189 5.07812 10.6641 5.53282 10.6641 6.09375C10.6641 6.65468 11.1189 7.10938 11.6797 7.10938Z" fill="#237B4B"/>
<path d="M19.2969 21.8359C18.7373 21.8359 18.2812 22.292 18.2812 22.8516V26.4062C18.2812 26.9659 18.7373 27.4219 19.2969 27.4219C19.8565 27.4219 20.3125 26.9659 20.3125 26.4062V22.8516C20.3125 22.292 19.8565 21.8359 19.2969 21.8359Z" fill="#237B4B"/>
<path d="M19.2969 31.9922C19.8578 31.9922 20.3125 31.5375 20.3125 30.9766C20.3125 30.4156 19.8578 29.9609 19.2969 29.9609C18.736 29.9609 18.2812 30.4156 18.2812 30.9766C18.2812 31.5375 18.736 31.9922 19.2969 31.9922Z" fill="#237B4B"/>
</svg>
