<svg width="18" height="16" viewBox="0 0 18 16" fill="none" xmlns="http://www.w3.org/2000/svg">
<path d="M9.00034 11.0007C8.85201 11.0007 8.707 11.0447 8.58366 11.1271C8.46033 11.2095 8.3642 11.3266 8.30743 11.4637C8.25067 11.6007 8.23581 11.7515 8.26475 11.897C8.29369 12.0425 8.36512 12.1761 8.47001 12.281C8.5749 12.3859 8.70854 12.4573 8.85402 12.4863C8.99951 12.5152 9.15031 12.5004 9.28735 12.4436C9.4244 12.3868 9.54153 12.2907 9.62394 12.1674C9.70636 12.044 9.75034 11.899 9.75034 11.7507C9.75034 11.5518 9.67132 11.361 9.53067 11.2204C9.39002 11.0797 9.19925 11.0007 9.00034 11.0007ZM17.0028 12.1032L10.9653 1.60319C10.7702 1.25333 10.4852 0.96191 10.1397 0.759044C9.79429 0.556177 9.40095 0.449219 9.00034 0.449219C8.59973 0.449219 8.20639 0.556177 7.86095 0.759044C7.5155 0.96191 7.23049 1.25333 7.03534 1.60319L1.03534 12.1032C0.833439 12.4437 0.724949 12.8315 0.720825 13.2273C0.716702 13.6232 0.81709 14.0131 1.01186 14.3577C1.20662 14.7024 1.48887 14.9895 1.8301 15.1902C2.17134 15.3909 2.55948 15.498 2.95534 15.5007H15.0453C15.4444 15.5046 15.8373 15.4024 16.1838 15.2044C16.5303 15.0064 16.8179 14.7198 17.0171 14.3741C17.2163 14.0283 17.32 13.6357 17.3175 13.2367C17.315 12.8376 17.2064 12.4464 17.0028 12.1032ZM15.7053 13.6032C15.6396 13.7202 15.5437 13.8173 15.4276 13.8846C15.3115 13.9519 15.1795 13.9868 15.0453 13.9857H2.95534C2.82117 13.9868 2.68917 13.9519 2.57308 13.8846C2.45699 13.8173 2.36108 13.7202 2.29534 13.6032C2.22952 13.4892 2.19486 13.3598 2.19486 13.2282C2.19486 13.0965 2.22952 12.9672 2.29534 12.8532L8.29534 2.35319C8.35828 2.23034 8.4539 2.12724 8.57168 2.05525C8.68945 1.98326 8.82481 1.94516 8.96284 1.94516C9.10088 1.94516 9.23623 1.98326 9.35401 2.05525C9.47178 2.12724 9.5674 2.23034 9.63034 2.35319L15.6678 12.8532C15.7423 12.9656 15.785 13.0959 15.7916 13.2305C15.7982 13.3652 15.7684 13.4991 15.7053 13.6182V13.6032ZM9.00034 5.00069C8.80143 5.00069 8.61066 5.07971 8.47001 5.22036C8.32936 5.36101 8.25034 5.55178 8.25034 5.75069V8.75069C8.25034 8.9496 8.32936 9.14037 8.47001 9.28102C8.61066 9.42167 8.80143 9.50069 9.00034 9.50069C9.19925 9.50069 9.39002 9.42167 9.53067 9.28102C9.67132 9.14037 9.75034 8.9496 9.75034 8.75069V5.75069C9.75034 5.55178 9.67132 5.36101 9.53067 5.22036C9.39002 5.07971 9.19925 5.00069 9.00034 5.00069Z" fill="#332500"/>
</svg>
