<svg width="28" height="32" viewBox="0 0 28 32" fill="none" xmlns="http://www.w3.org/2000/svg">
<path d="M25.25 0H12.7927C12.4475 0 12.1677 0.279785 12.1677 0.624999C12.1677 0.970213 12.4475 1.25 12.7927 1.25H25.25C25.5947 1.25 25.875 1.53027 25.875 1.875V24.7773C25.875 25.1218 25.5947 25.4023 25.25 25.4023H23.1096V11.4951C23.1096 11.488 23.1086 11.4814 23.1084 11.4746C23.1081 11.467 23.1079 11.4594 23.1074 11.4521C23.1057 11.4262 23.1027 11.4009 23.0979 11.376C23.0976 11.375 23.0976 11.3735 23.0974 11.3723C23.092 11.3449 23.0842 11.3183 23.0754 11.2922C23.0734 11.2873 23.0717 11.2822 23.0698 11.2773C23.0607 11.2529 23.0505 11.229 23.0385 11.2063C23.0376 11.2043 23.0368 11.2026 23.0358 11.2009C23.0229 11.1767 23.0083 11.1535 22.9921 11.1313C22.9885 11.1262 22.9848 11.1213 22.9809 11.1162C22.9641 11.0945 22.9465 11.0732 22.927 11.0537C22.927 11.0534 22.9267 11.0532 22.9265 11.053L17.404 5.53075C17.404 5.53051 17.4038 5.53026 17.4033 5.53002C17.384 5.51073 17.3628 5.49315 17.3408 5.47631C17.2378 5.39745 17.112 5.35277 16.9824 5.34862C16.9756 5.34838 16.969 5.34765 16.9621 5.34765H6.54271V1.875C6.54271 1.53027 6.82299 1.25 7.16771 1.25H8.48241C8.82762 1.25 9.1074 0.970213 9.1074 0.624999C9.1074 0.279785 8.82762 0 8.48241 0H7.16771C6.13378 0 5.29272 0.841063 5.29272 1.875V5.34789H2.75C1.71606 5.34789 0.875 6.18895 0.875 7.22289V30.1249C0.875 31.1589 1.71606 31.9999 2.75 31.9999H21.2346C22.2685 31.9999 23.1096 31.1589 23.1096 30.1249V26.6523H25.25C26.2839 26.6523 27.1249 25.8112 27.1249 24.7773V1.875C27.1249 0.841063 26.2839 0 25.25 0ZM17.5871 7.48167L20.9755 10.8701H18.2121C17.8676 10.8701 17.5871 10.5896 17.5871 10.2451V7.48167ZM21.8596 30.1249C21.8596 30.4697 21.5791 30.7499 21.2346 30.7499H2.75C2.40551 30.7499 2.125 30.4697 2.125 30.1249V7.22264C2.125 6.87816 2.40551 6.59764 2.75 6.59764H16.3371V10.2451C16.3371 11.279 17.1784 12.1201 18.2121 12.1201H21.8596V30.1249Z" fill="#F47B20"/>
<path d="M10.2781 1.25H10.2949C10.6401 1.25 10.9199 0.970215 10.9199 0.625C10.9199 0.279785 10.6401 0 10.2949 0H10.2781C9.93284 0 9.65306 0.279785 9.65306 0.625C9.65306 0.970215 9.93284 1.25 10.2781 1.25Z" fill="#F47B20"/>
<path d="M16.2492 28.8749H16.2343C15.8894 28.8749 15.6093 29.1547 15.6093 29.4999C15.6093 29.8452 15.8894 30.1249 16.2343 30.1249H16.2492C16.5942 30.1249 16.8742 29.8452 16.8742 29.4999C16.8742 29.1547 16.5942 28.8749 16.2492 28.8749Z" fill="#F47B20"/>
<path d="M20.6084 28.8747H18.0437C17.6985 28.8747 17.4187 29.1545 17.4187 29.4997C17.4187 29.8449 17.6985 30.1247 18.0437 30.1247H20.6084C20.9534 30.1247 21.2334 29.8449 21.2334 29.4997C21.2334 29.1545 20.9534 28.8747 20.6084 28.8747Z" fill="#F47B20"/>
<path d="M4.31863 14.1201H5.29372V15.095C5.29372 15.6604 5.75344 16.1201 6.31863 16.1201H7.51882C8.08401 16.1201 8.54372 15.6604 8.54372 15.095V14.1201H9.51882C10.084 14.1201 10.5437 13.6602 10.5437 13.095V11.895C10.5437 11.3298 10.084 10.8701 9.51882 10.8701H8.54372V9.89502C8.54372 9.32983 8.08401 8.87012 7.51882 8.87012H6.31863C5.75344 8.87012 5.29372 9.32983 5.29372 9.89502V10.8701H4.31863C3.75344 10.8701 3.29372 11.3298 3.29372 11.895V13.095C3.29372 13.6602 3.75368 14.1201 4.31863 14.1201ZM4.54372 12.1201H5.91872C6.26394 12.1201 6.54372 11.8403 6.54372 11.4951V10.1201H7.29372V11.4951C7.29372 11.8403 7.57351 12.1201 7.91872 12.1201H9.29372V12.8701H7.91872C7.57351 12.8701 7.29372 13.1499 7.29372 13.4951V14.8701H6.54372V13.4951C6.54372 13.1499 6.26394 12.8701 5.91872 12.8701H4.54372V12.1201Z" fill="#F47B20"/>
<path d="M3.91872 19.1519H9.91872C10.2639 19.1519 10.5437 18.8721 10.5437 18.5269C10.5437 18.1816 10.2639 17.9019 9.91872 17.9019H3.91872C3.57351 17.9019 3.29372 18.1816 3.29372 18.5269C3.29372 18.8721 3.57351 19.1519 3.91872 19.1519Z" fill="#F47B20"/>
<path d="M3.91872 21.6521H20.0679C20.4131 21.6521 20.6929 21.3723 20.6929 21.0271C20.6929 20.6818 20.4131 20.4021 20.0679 20.4021H3.91872C3.57351 20.4021 3.29372 20.6818 3.29372 21.0271C3.29372 21.3723 3.57351 21.6521 3.91872 21.6521Z" fill="#F47B20"/>
<path d="M3.91872 24.1521H20.0679C20.4131 24.1521 20.6929 23.8723 20.6929 23.5271C20.6929 23.1818 20.4131 22.9021 20.0679 22.9021H3.91872C3.57351 22.9021 3.29372 23.1818 3.29372 23.5271C3.29372 23.8723 3.57351 24.1521 3.91872 24.1521Z" fill="#F47B20"/>
<path d="M9.91872 25.4021H3.91872C3.57351 25.4021 3.29372 25.6818 3.29372 26.0271C3.29372 26.3723 3.57351 26.6521 3.91872 26.6521H9.91872C10.2639 26.6521 10.5437 26.3723 10.5437 26.0271C10.5437 25.6818 10.2639 25.4021 9.91872 25.4021Z" fill="#F47B20"/>
</svg>
