<svg width="6" height="10" viewBox="0 0 6 10" fill="none" xmlns="http://www.w3.org/2000/svg">
<path d="M5.35917 4.52637L1.58584 0.759699C1.52387 0.697213 1.45013 0.647617 1.36889 0.613771C1.28765 0.579926 1.20052 0.5625 1.11251 0.5625C1.0245 0.5625 0.937362 0.579926 0.856123 0.613771C0.774883 0.647617 0.701149 0.697213 0.639174 0.759699C0.515007 0.884607 0.445313 1.05357 0.445312 1.2297C0.445313 1.40582 0.515007 1.57479 0.639174 1.6997L3.93917 5.03303L0.639174 8.33303C0.515007 8.45794 0.445312 8.62691 0.445312 8.80303C0.445312 8.97916 0.515007 9.14812 0.639174 9.27303C0.700917 9.33602 0.774547 9.38614 0.855797 9.42047C0.937048 9.4548 1.0243 9.47266 1.11251 9.47303C1.20071 9.47266 1.28797 9.4548 1.36922 9.42047C1.45047 9.38614 1.5241 9.33602 1.58584 9.27303L5.35917 5.50637C5.42684 5.44394 5.48085 5.36817 5.51779 5.28384C5.55473 5.1995 5.5738 5.10843 5.5738 5.01637C5.5738 4.9243 5.55473 4.83323 5.51779 4.74889C5.48085 4.66456 5.42684 4.58879 5.35917 4.52637Z" fill="#F47B20"/>
</svg>
