<svg width="32" height="32" viewBox="0 0 32 32" fill="none" xmlns="http://www.w3.org/2000/svg">
<path d="M15.9997 31.9988C16.3449 31.9988 16.6247 31.7189 16.6247 31.3738C16.6247 31.0286 16.3449 30.7488 15.9997 30.7488C15.6545 30.7488 15.3747 31.0286 15.3747 31.3738C15.3747 31.7189 15.6545 31.9988 15.9997 31.9988Z" fill="#F47B20"/>
<path d="M27.6163 0H4.3834C1.96628 0 0.000277778 1.98331 0.000277778 4.40044C-0.000347222 4.38919 0.000277778 4.41169 0.000277778 4.40044L1.25234 27.6339C1.2619 30.0429 3.22465 32 5.63584 32H13.1928C13.5386 32 13.819 31.7196 13.819 31.3738C13.819 31.0279 13.5387 30.7475 13.1928 30.7475H5.63584C3.90934 30.7475 2.50428 29.3261 2.50428 27.5995C2.5049 27.6108 2.50428 27.5882 2.50428 27.5995L1.25234 4.36744C1.26103 2.64831 2.66228 1.25244 4.3834 1.25244H27.6163C29.3374 1.25244 30.7386 2.64831 30.7473 4.36744L29.4954 27.5996C29.4954 27.5883 29.4948 27.6108 29.4954 27.5996C29.4954 29.3261 28.0903 30.7476 26.3638 30.7476H18.8069C18.4611 30.7476 18.1807 31.0279 18.1807 31.3738C18.1807 31.7197 18.4611 32 18.8069 32H26.3638C28.775 32 30.7378 30.0429 30.7473 27.6339L31.9994 4.40037C31.9994 4.41162 32 4.38912 31.9994 4.40037C31.9994 1.98331 30.0334 0 27.6163 0Z" fill="#F47B20"/>
<path d="M9.61535 14.3511H22.3841C22.6327 14.3511 22.8578 14.2039 22.9577 13.9762L25.6744 7.77656C25.7895 7.51406 25.7116 7.20694 25.4854 7.03094C24.2545 6.07338 20.8476 3.84463 16.0236 3.83031C16.0393 3.83031 16.0079 3.83031 16.0236 3.83031C11.1766 3.83031 7.75335 6.06694 6.51416 7.03094C6.28797 7.20694 6.2101 7.51406 6.32516 7.77656L9.04191 13.9762C9.14159 14.2039 9.36672 14.3511 9.61535 14.3511ZM15.9988 11.4271C16.6619 11.4271 17.305 11.5648 17.8587 11.8252C18.5142 12.1334 18.9901 12.5861 19.2225 13.0986H12.7758C13.2137 12.134 14.5052 11.4271 15.9988 11.4271ZM10.1328 6.33369L10.6215 7.37044C10.7282 7.597 10.9534 7.72981 11.1883 7.72981C11.2777 7.72981 11.3687 7.71056 11.4548 7.66987C11.7677 7.52238 11.9018 7.14925 11.7543 6.83644L11.3004 5.8735C12.4654 5.47088 13.8327 5.16419 15.3735 5.09731V6.16825C15.3735 6.51413 15.6539 6.7945 15.9998 6.7945C16.3457 6.7945 16.626 6.51413 16.626 6.16825V5.09744C18.1582 5.16394 19.5192 5.46744 20.68 5.86681L20.2749 6.89331C20.148 7.215 20.3058 7.57875 20.6275 7.70575C20.703 7.73556 20.7807 7.74963 20.8572 7.74963C21.1068 7.74963 21.3427 7.59938 21.4399 7.35319L21.8458 6.32475C22.9202 6.8005 23.7594 7.3255 24.3274 7.73025L21.9748 13.0987H20.5462C20.2948 12.0978 19.5238 11.2242 18.3918 10.6919C17.6725 10.3536 16.845 10.1747 15.9989 10.1747C15.1098 10.1747 14.2816 10.3683 13.5778 10.7048L12.7162 8.87656C12.5687 8.56375 12.1958 8.42956 11.8827 8.57706C11.5699 8.72456 11.4358 9.09769 11.5832 9.4105L12.5208 11.3999C11.991 11.8711 11.6153 12.4524 11.4536 13.0988H10.0247L7.67216 7.73025C8.23716 7.3275 9.06891 6.80681 10.1328 6.33369Z" fill="#F47B20"/>
<path d="M9.61535 16.856H22.3841C22.7299 16.856 23.0103 16.5756 23.0103 16.2297C23.0103 15.8839 22.73 15.6035 22.3841 15.6035H9.61535C9.26953 15.6035 8.98909 15.8839 8.98909 16.2297C8.98909 16.5756 9.26953 16.856 9.61535 16.856Z" fill="#F47B20"/>
<path d="M4.93422 26.3805C4.93422 26.0346 4.65384 25.7543 4.30797 25.7543C3.96216 25.7543 3.68172 26.0346 3.68172 26.3805C3.68172 28.1136 5.09178 29.5237 6.82497 29.5237C7.17078 29.5237 7.45122 29.2433 7.45122 28.8974C7.45122 28.5516 7.17085 28.2712 6.82497 28.2712C5.78241 28.2712 4.93422 27.4231 4.93422 26.3805Z" fill="#F47B20"/>
<path d="M24.4855 28.8974C24.4855 29.2433 24.7659 29.5237 25.1118 29.5237C26.845 29.5237 28.255 28.1136 28.255 26.3805C28.255 26.0346 27.9747 25.7543 27.6288 25.7543C27.2829 25.7543 27.0025 26.0346 27.0025 26.3805C27.0025 27.4231 26.1543 28.2713 25.1118 28.2713C24.7659 28.2713 24.4855 28.5516 24.4855 28.8974Z" fill="#F47B20"/>
</svg>
