<svg width="20" height="32" viewBox="0 0 20 32" fill="none" xmlns="http://www.w3.org/2000/svg">
<path d="M11.1165 21.6565C10.7055 21.6565 10.3038 21.7744 9.95758 21.9896C9.61139 21.7744 9.2097 21.6565 8.7987 21.6565C7.57414 21.6565 6.57782 22.6712 6.57782 23.9184C6.57782 24.6259 7.08863 25.4777 8.13945 26.5226C8.84876 27.2278 9.54833 27.7646 9.57776 27.7871C9.68989 27.8727 9.82383 27.9157 9.9577 27.9157C10.0916 27.9157 10.2255 27.8727 10.3376 27.7871C10.3671 27.7646 11.0666 27.2279 11.776 26.5226C12.8268 25.4777 13.3376 24.6259 13.3376 23.9184C13.3374 22.6712 12.3411 21.6565 11.1165 21.6565ZM9.95733 26.4901C8.86964 25.5886 7.82895 24.431 7.82895 23.9184C7.82895 23.3612 8.26401 22.9077 8.7987 22.9077C9.06483 22.9077 9.31314 23.018 9.49776 23.2182C9.61627 23.3467 9.78295 23.4197 9.95764 23.4197C10.1323 23.4197 10.299 23.3467 10.4175 23.2182C10.6022 23.018 10.8505 22.9077 11.1166 22.9077C11.6512 22.9077 12.0863 23.3612 12.0863 23.9184C12.0862 24.4298 11.0451 25.5877 9.95733 26.4901Z" fill="#F47B20"/>
<path d="M9.12998 16.8549C8.72417 16.5049 8.24042 16.3523 7.76679 16.4255C4.82666 16.8798 3.42497 19.178 3.36672 19.2757C3.18972 19.5724 3.28679 19.9565 3.58347 20.1335C3.88022 20.3106 4.26429 20.2134 4.44122 19.9167C4.45247 19.8979 5.59304 18.0275 7.95786 17.6621C8.09973 17.6406 8.24104 17.7407 8.31286 17.8025C8.53398 17.9933 8.68748 18.3104 8.68598 18.5735C8.68455 18.8263 8.52442 19.049 8.28754 19.1277C7.12142 19.5155 6.31823 19.9759 5.90017 20.4962L3.50479 23.4775C3.25772 23.785 2.91666 23.9552 2.57116 23.9435C2.42216 23.9385 2.31653 23.8905 2.21803 23.7829C1.61628 23.1254 1.73541 20.9825 1.78628 20.0675C1.79416 19.9262 1.80122 19.7982 1.80597 19.6874C2.05116 14.0349 4.25535 12.4248 7.73248 11.6592L7.94767 11.6118C8.28511 11.5375 8.49836 11.2037 8.42398 10.8663C8.34967 10.5288 8.01567 10.3155 7.67848 10.39L7.46336 10.4374C5.15204 10.9463 3.56729 11.8198 2.4761 13.1861C1.29253 14.6682 0.682405 16.7168 0.555967 19.6332C0.551342 19.7396 0.544467 19.8624 0.536967 19.998C0.440529 21.7318 0.411592 23.6624 1.29484 24.6276C1.61941 24.9822 2.04641 25.178 2.52966 25.194C2.55485 25.1949 2.58003 25.1953 2.6051 25.1953C2.64891 25.1953 2.69253 25.194 2.73603 25.1914C2.75147 26.21 2.9831 27.1885 3.42629 28.1011C3.53447 28.3239 3.75741 28.4536 3.98941 28.4536C4.0811 28.4536 4.17429 28.4334 4.26222 28.3906C4.57316 28.2397 4.70272 27.8654 4.55172 27.5546C4.1761 26.7811 3.98566 25.9495 3.98566 25.0826V24.7354C4.16616 24.6032 4.3326 24.4446 4.47991 24.2612L6.87523 21.2799C7.12898 20.9642 7.78754 20.6125 8.68211 20.315C9.42805 20.0669 9.9323 19.37 9.93692 18.5807C9.94073 17.9486 9.63136 17.2873 9.12998 16.8549Z" fill="#F47B20"/>
<path d="M5.54187 28.9824L5.52569 28.9652C5.28956 28.713 4.89362 28.6999 4.64144 28.9361C4.38919 29.1722 4.37612 29.5681 4.61225 29.8203L4.63906 29.8486C4.76187 29.9766 4.92606 30.0411 5.09056 30.0411C5.24631 30.0411 5.40231 29.9832 5.52356 29.8669C5.77288 29.6277 5.78113 29.2317 5.54187 28.9824Z" fill="#F47B20"/>
<path d="M15.5141 11.6235C14.6056 11.0451 13.6102 10.6291 12.5559 10.3871C12.2192 10.3099 11.8835 10.5201 11.8062 10.8569C11.7289 11.1936 11.9392 11.5293 12.276 11.6065C13.1909 11.8165 14.0543 12.1774 14.8422 12.679C14.9464 12.7453 15.0626 12.7768 15.1776 12.7768C15.3843 12.7768 15.5866 12.6744 15.7059 12.4871C15.8914 12.1958 15.8056 11.8091 15.5141 11.6235Z" fill="#F47B20"/>
<path d="M17.2646 13.0675L17.2315 13.033C16.9916 12.7844 16.5955 12.7775 16.347 13.0175C16.0983 13.2574 16.0914 13.6535 16.3314 13.902L16.3594 13.9311C16.4823 14.06 16.6471 14.1249 16.8122 14.1249C16.9672 14.1249 17.1228 14.0675 17.2438 13.9519C17.4937 13.7135 17.5032 13.3175 17.2646 13.0675Z" fill="#F47B20"/>
<path d="M18.6675 14.955C18.4976 14.654 18.1161 14.5479 17.8152 14.7178C17.5143 14.8878 17.4082 15.2693 17.5781 15.5701C18.2093 16.6879 18.2595 17.9985 18.2595 19.5956V21.502C18.2595 23.7032 17.7553 26.795 15.3537 29.024C14.9137 29.4323 14.0683 29.8457 12.9088 30.2197C12.8676 30.2309 12.8269 30.2418 12.7863 30.2526C12.5113 30.3087 12.2297 30.2481 11.999 30.0796C11.7383 29.8892 11.5892 29.5947 11.59 29.2717C11.591 28.8269 11.8787 28.4429 12.3061 28.3164C13.4166 27.9876 14.2145 27.6029 14.6775 27.1732C16.3292 25.6402 16.2437 23.2676 16.1683 21.1743C16.152 20.723 16.1367 20.297 16.1367 19.8792C16.1367 19.8345 16.1318 19.7911 16.123 19.749C16.2521 19.5095 16.3381 19.2613 16.3801 19.0026C16.5693 17.8355 15.8117 16.8491 15.203 16.0565C14.9624 15.7431 14.5988 15.2697 14.5954 15.1017C14.5953 14.7562 14.3153 14.4761 13.9698 14.4761C13.6244 14.4761 13.3443 14.7563 13.3443 15.1017C13.3443 15.6902 13.7458 16.2131 14.2108 16.8185C14.6969 17.4515 15.2478 18.1688 15.1452 18.8024C15.0784 19.2142 14.7298 19.6358 14.109 20.0555C13.8228 20.249 13.7477 20.6379 13.9411 20.9241C14.062 21.1029 14.2592 21.1993 14.4599 21.1993C14.5805 21.1993 14.7023 21.1645 14.8097 21.0919C14.8444 21.0685 14.8775 21.0447 14.9111 21.021C14.9134 21.0872 14.9157 21.1537 14.9181 21.2193C14.9871 23.1335 15.0583 25.1128 13.8266 26.2561C13.5151 26.5452 12.849 26.8509 11.9511 27.1168C10.989 27.4017 10.3413 28.2666 10.339 29.269C10.3378 29.7807 10.5042 30.2603 10.8069 30.6494C10.0901 30.7457 9.65927 30.749 9.65227 30.749C8.73208 30.749 7.81876 30.5236 7.01114 30.0972C6.70564 29.936 6.32726 30.0529 6.16582 30.3585C6.00457 30.6641 6.12145 31.0424 6.42701 31.2038C7.41401 31.7248 8.52926 32.0002 9.65227 32.0002C9.71152 32.0002 11.0908 31.9938 13.088 31.4672C13.1303 31.4575 13.1725 31.4456 13.2147 31.4334C13.2276 31.4299 13.2403 31.4266 13.2535 31.423C13.2567 31.4221 13.2597 31.4208 13.263 31.4199C13.2686 31.4181 13.2743 31.4169 13.28 31.4151C14.638 30.9782 15.6221 30.4823 16.2051 29.9412C18.3678 27.934 19.511 25.0159 19.511 21.5022V19.5958C19.5107 17.8734 19.4473 16.3355 18.6675 14.955Z" fill="#F47B20"/>
<path d="M9.96338 0C9.24351 0 8.56044 0.158688 7.94544 0.441001C6.81369 -0.324188 5.26406 -0.069125 4.441 1.03794C3.59468 2.1765 3.83243 3.79138 4.97087 4.63763C5.01537 4.67076 5.06287 4.69676 5.11206 4.71638C5.11075 4.76251 5.10856 4.80832 5.10856 4.85476V5.6237C5.10856 8.30064 7.28644 10.4785 9.96338 10.4785C12.6403 10.4785 14.8182 8.30064 14.8182 5.6237V4.85482C14.8181 2.17788 12.6403 0 9.96338 0ZM5.44513 1.78438C5.74475 1.38119 6.23213 1.19819 6.69763 1.26569C6.10525 1.80513 5.64763 2.48932 5.37856 3.26113C5.10675 2.81469 5.11462 2.22907 5.44513 1.78438ZM9.96338 9.22733C8.11275 9.22733 6.58419 7.82495 6.38294 6.02714C7.324 5.95639 9.36126 5.66445 10.713 4.46232C11.6478 5.5112 12.926 5.87357 13.5483 5.99283C13.3627 7.80714 11.8258 9.22733 9.96338 9.22733ZM11.3103 3.16588C11.2043 2.98401 11.0141 2.86757 10.8038 2.85607C10.5941 2.84476 10.3918 2.93957 10.2666 3.10882C9.32957 4.37607 7.294 4.69307 6.36175 4.77226C6.406 2.82332 8.004 1.25119 9.96332 1.25119C11.9041 1.25119 13.4906 2.79363 13.5634 4.71695C12.9575 4.56882 11.8978 4.17445 11.3103 3.16588Z" fill="#F47B20"/>
</svg>
