<svg width="217" height="182" fill="none" xmlns="http://www.w3.org/2000/svg"><g clip-path="url(#clip0_8179_31689)"><path d="M161.105 127.683a8.618 8.618 0 1 0 0-17.234 8.618 8.618 0 0 0 0 17.234z" fill="#F2F3F5"/><path d="M163.063 114.476a1.956 1.956 0 0 0-1.959-1.895 1.96 1.96 0 0 0-1.958 1.895c.05.819.174 1.631.368 2.428.3 1.333.441 2.698.42 4.064v.019c.012.302.141.587.36.796a1.167 1.167 0 0 0 1.621 0c.218-.209.347-.494.36-.796v-.019c-.02-1.366.121-2.731.419-4.064.195-.797.318-1.609.369-2.428zm-1.958 11.138a1.432 1.432 0 1 0 0-2.864 1.432 1.432 0 0 0 0 2.864z" fill="#fff"/><path d="M66.144 62.112a8.653 8.653 0 1 0 0-17.306 8.653 8.653 0 0 0 0 17.306z" fill="#F2F3F5"/><path d="M102.331 32.818a.105.105 0 0 1-.049-.011.097.097 0 0 1-.037-.033l-3.935-5.54a.105.105 0 0 1 .101-.171.105.105 0 0 1 .069.049l3.934 5.54c.016.023.023.05.019.078a.112.112 0 0 1-.042.069.108.108 0 0 1-.06.019z" fill="#676F7C"/><path d="M98.887 72.55l-28.48 45.069c-3.498 5.536.48 12.763 7.025 12.763h56.964c6.55 0 10.533-7.227 7.03-12.765l-28.478-45.068a8.313 8.313 0 0 0-7.031-3.872 8.318 8.318 0 0 0-7.03 3.874z" fill="#519BC6"/><path d="M134.396 133.434H77.432a11.37 11.37 0 0 1-9.615-17.45l28.48-45.068a11.372 11.372 0 0 1 19.233 0l28.479 45.068a11.374 11.374 0 0 1-9.617 17.45h.004zM105.917 65.82a11.11 11.11 0 0 0-9.433 5.203L68 116.095a11.165 11.165 0 0 0 9.433 17.13h56.964a11.16 11.16 0 0 0 9.776-5.779 11.164 11.164 0 0 0-.343-11.351L115.35 71.027a11.107 11.107 0 0 0-9.433-5.207z" fill="#519BC6"/><path d="M113.212 84.839a7.295 7.295 0 0 0-14.59 0c0 1.589.51 5.221 1.375 9.036a64.727 64.727 0 0 1 1.564 15.126v.067a4.353 4.353 0 0 0 4.356 4.356 4.356 4.356 0 0 0 4.356-4.356v-.067a64.783 64.783 0 0 1 1.566-15.134c.863-3.807 1.373-7.44 1.373-9.028zm-7.295 41.456a5.33 5.33 0 1 0 0-10.658 5.33 5.33 0 0 0 0 10.658z" fill="#fff"/><path d="M134.396 134.833h-21.184a.03.03 0 0 1-.01-.002.02.02 0 0 1-.009-.005.015.015 0 0 1-.006-.009c-.002-.003-.002-.006-.002-.01 0-.007.002-.014.008-.019a.027.027 0 0 1 .019-.008h21.184a.027.027 0 0 1 .027.027l-.002.01a.015.015 0 0 1-.006.009.04.04 0 0 1-.009.005.036.036 0 0 1-.01.002zm-26.521 0h-8.869a.025.025 0 0 1-.018-.008.026.026 0 0 1-.007-.018l.001-.01a.033.033 0 0 1 .005-.009.076.076 0 0 1 .009-.006.035.035 0 0 1 .01-.002h8.869a.027.027 0 0 1 .027.027c0 .004 0 .007-.002.01a.015.015 0 0 1-.006.009.02.02 0 0 1-.009.005.036.036 0 0 1-.01.002zm-19.453 0h-7.14a.025.025 0 0 1-.017-.008.026.026 0 0 1-.007-.018l.001-.01a.033.033 0 0 1 .005-.009.076.076 0 0 1 .009-.006.035.035 0 0 1 .01-.002h7.14l.01.002a.068.068 0 0 1 .008.006.033.033 0 0 1 .005.009.023.023 0 0 1 .002.01.025.025 0 0 1-.008.018.025.025 0 0 1-.018.008zm-10.983 0a12.742 12.742 0 0 1-6.878-1.979.029.029 0 0 1-.007-.018c0-.007.003-.013.007-.018a.032.032 0 0 1 .019-.007c.007 0 .013.003.019.007a12.686 12.686 0 0 0 6.833 1.966c.007 0 .014.003.02.008a.027.027 0 0 1 .007.02.022.022 0 0 1-.01.015.028.028 0 0 1-.017.006h.007zm56.957-2.954h-34.042a.029.029 0 0 1-.018-.007.024.024 0 0 1-.007-.018.016.016 0 0 1 .001-.01.02.02 0 0 1 .005-.009.024.024 0 0 1 .009-.006c.003-.002.006-.002.01-.002h34.042c.007 0 .014.002.019.008a.027.027 0 0 1 .008.019c0 .007-.004.013-.009.018a.029.029 0 0 1-.018.007zm-40.926 0H82.723a.028.028 0 0 1-.018-.007.025.025 0 0 1-.007-.018l.001-.01a.017.017 0 0 1 .005-.009.017.017 0 0 1 .009-.006c.003-.002.006-.002.01-.002H93.47c.004 0 .007 0 .01.002a.017.017 0 0 1 .009.006.017.017 0 0 1 .005.009.021.021 0 0 1 .001.01.026.026 0 0 1-.007.018.028.028 0 0 1-.018.007zm-13.822 0h-2.216a.028.028 0 0 1-.018-.007.026.026 0 0 1-.007-.018l.001-.01a.017.017 0 0 1 .006-.009.018.018 0 0 1 .008-.006c.003-.002.007-.002.01-.002h2.21c.007 0 .014.002.019.008a.027.027 0 0 1 .008.019.028.028 0 0 1-.007.016.028.028 0 0 1-.014.009zm-11.483-1.027a.03.03 0 0 1-.019 0 13.172 13.172 0 0 1-1.886-2.62 12.747 12.747 0 0 1-1.59-5.461.038.038 0 0 1 .005-.009.078.078 0 0 1 .009-.006.034.034 0 0 1 .01-.002c.014 0 .027 0 .027.025.114 1.906.656 3.76 1.585 5.427a12.921 12.921 0 0 0 1.886 2.61.027.027 0 0 1 0 .038l-.027-.002zm77.393-2.614h-.013a.028.028 0 0 1-.01-.036 12.547 12.547 0 0 0-.388-12.933.032.032 0 0 1-.007-.019c0-.007.003-.014.007-.019a.028.028 0 0 1 .018-.006c.007 0 .013.002.018.006a12.61 12.61 0 0 1 .39 12.996.027.027 0 0 1-.015.011zm-76.697-1.419a.032.032 0 0 1-.013-.005.027.027 0 0 1-.01-.01 9.666 9.666 0 0 1-1.063-6.58.027.027 0 0 1 .012-.017.034.034 0 0 1 .02-.004.03.03 0 0 1 .016.012.027.027 0 0 1 .005.02 9.602 9.602 0 0 0 1.048 6.544.027.027 0 0 1 .001.02.032.032 0 0 1-.012.016l-.004.004zm74.112 0h-.012a.028.028 0 0 1-.012-.016.027.027 0 0 1 .001-.02 9.64 9.64 0 0 0 .436-8.559.027.027 0 0 1-.001-.02.03.03 0 0 1 .014-.015.02.02 0 0 1 .01-.003c.004 0 .008 0 .011.002a.015.015 0 0 1 .009.006c.003.003.004.006.006.01a9.697 9.697 0 0 1-.446 8.608.033.033 0 0 1-.016.007zm-78.034-7.337a.024.024 0 0 1-.017-.011.027.027 0 0 1-.004-.02c.322-1.494.907-2.92 1.727-4.209l2.725-4.298a.025.025 0 0 1 .008-.005.032.032 0 0 1 .01-.002l.01.002a.024.024 0 0 1 .008.005.04.04 0 0 1 .005.009.022.022 0 0 1 .002.009c0 .004 0 .007-.002.01a.022.022 0 0 1-.005.008l-2.725 4.299a12.831 12.831 0 0 0-1.719 4.193.037.037 0 0 1-.01.008.053.053 0 0 1-.013.002zm4.222-2.624l-.008.001-.007-.001-.005-.008a.027.027 0 0 1 0-.02.022.022 0 0 1 .005-.008l3.773-5.966a.032.032 0 0 1 .016-.009.03.03 0 0 1 .019.004c.005.003.01.008.011.014a.029.029 0 0 1 0 .019l-3.773 5.965a.023.023 0 0 1-.015.009.024.024 0 0 1-.016-.004v.004zm73.515 0c-.005 0-.009-.002-.013-.004a.022.022 0 0 1-.01-.009l-.956-1.511a.029.029 0 0 1-.007-.018c0-.006.003-.013.007-.018a.022.022 0 0 1 .008-.005c.003-.002.006-.002.01-.002.003 0 .006 0 .009.002a.022.022 0 0 1 .008.005l.956 1.512a.016.016 0 0 1 .006.008l.002.009a.03.03 0 0 1-.002.01.016.016 0 0 1-.006.008.01.01 0 0 1-.005.006c-.002.002-.005.002-.007.003v.004zm-2.581-4.084a.03.03 0 0 1-.013-.003.028.028 0 0 1-.01-.009l-9.137-14.464a.032.032 0 0 1-.007-.019c0-.007.003-.013.007-.019a.022.022 0 0 1 .008-.005.027.027 0 0 1 .02 0l.008.005 9.137 14.464a.022.022 0 0 1 .005.008c.002.003.002.007.002.01s0 .007-.002.01l-.005.008c0 .003-.001.007-.004.009a.01.01 0 0 1-.009.005zm2.023-2.328a.045.045 0 0 1-.023 0l-9.223-14.588a.023.023 0 0 1-.003-.02.023.023 0 0 1 .011-.015.026.026 0 0 1 .036.008l9.223 14.585.006.008a.036.036 0 0 1 .002.01.036.036 0 0 1-.002.01.055.055 0 0 1-.006.008l-.006.001-.007-.001-.005-.004-.003-.007v.005zm-66.572-3.69h-.015a.03.03 0 0 1 0-.037l17.916-28.374a.027.027 0 0 1 .038 0 .03.03 0 0 1 .006.017.03.03 0 0 1-.006.018l-17.92 28.364a.03.03 0 0 1-.009.008.021.021 0 0 1-.01.004zm-1.768-2.725a.019.019 0 0 1-.014 0 .026.026 0 0 1 0-.035l17.9-28.326a.026.026 0 0 1 .006-.01.027.027 0 0 1 .022-.008c.005 0 .009.002.012.004a.029.029 0 0 1 .008.01.029.029 0 0 1 .004.011.028.028 0 0 1-.009.022L73.795 104.01a.03.03 0 0 1-.008.01.026.026 0 0 1-.013.003l.004.008zm51.866-14.124a.023.023 0 0 1-.012-.003.022.022 0 0 1-.009-.01l-5.219-8.269a.03.03 0 0 1-.004-.02.03.03 0 0 1 .012-.017.028.028 0 0 1 .021-.004.027.027 0 0 1 .017.012l5.226 8.271a.028.028 0 0 1 .006.018.028.028 0 0 1-.006.018l-.032.004zm3.036-.727a.025.025 0 0 1-.013-.003.03.03 0 0 1-.008-.01l-6.079-9.604a.033.033 0 0 1-.007-.02c0-.006.003-.013.007-.018a.028.028 0 0 1 .037 0l6.079 9.607a.024.024 0 0 1 .007.017.024.024 0 0 1-.007.018.023.023 0 0 1-.005.008.025.025 0 0 1-.009.005h-.002zm-11.557-12.758a.024.024 0 0 1-.012-.003.022.022 0 0 1-.009-.01l-2.934-4.634a.023.023 0 0 1-.003-.02.023.023 0 0 1 .011-.015.027.027 0 0 1 .02-.004.03.03 0 0 1 .016.012l2.934 4.635a.024.024 0 0 1 .007.017.024.024 0 0 1-.007.018l-.023.004zm-21.984-.683h-.013a.025.025 0 0 1-.007-.018c0-.003 0-.006.002-.01a.024.024 0 0 1 .005-.007l2.497-3.952a.026.026 0 0 1 .008-.005.026.026 0 0 1 .02 0 .026.026 0 0 1 .013.013.025.025 0 0 1-.006.027l-2.496 3.952a.023.023 0 0 1-.021 0h-.002zm24.246-1.258a.023.023 0 0 1-.012-.003.022.022 0 0 1-.009-.01l-2.696-4.263a.028.028 0 0 1-.006-.018c0-.006.002-.013.006-.017a.027.027 0 0 1 .038 0l2.694 4.263a.028.028 0 0 1 .006.018.028.028 0 0 1-.006.018l-.015.012zm-26.164-1.226h-.015a.028.028 0 0 1-.007-.018c0-.006.003-.012.007-.017l1.92-3.038a.026.026 0 0 1 .026-.012.027.027 0 0 1 .017.01.026.026 0 0 1 .004.02.027.027 0 0 1-.003.01l-1.92 3.037a.023.023 0 0 1-.014.004.023.023 0 0 1-.013-.004l-.002.008zm17.647-4.685h-.012a9.823 9.823 0 0 0-9.652-.126l-.011-.001a.031.031 0 0 1-.009-.005.016.016 0 0 1-.006-.008.028.028 0 0 1-.002-.02.027.027 0 0 1 .012-.016 9.868 9.868 0 0 1 9.701.132.024.024 0 0 1 .007.018.024.024 0 0 1-.007.018.03.03 0 0 1-.019 0l-.002.008zm3.773-.849h-.018a12.642 12.642 0 0 0-8.702-3.435.023.023 0 0 1-.017-.008.025.025 0 0 1-.008-.018l.001-.01.006-.009a.022.022 0 0 1 .008-.006 12.701 12.701 0 0 1 8.755 3.456.031.031 0 0 1 .002.01.032.032 0 0 1-.002.01.018.018 0 0 1-.006.008c-.004 0-.009 0-.013-.002a.024.024 0 0 1-.01-.01l.004.014zm-16.81-.553a.024.024 0 0 1-.02 0 .028.028 0 0 1-.007-.019c0-.007.002-.014.007-.019a12.79 12.79 0 0 1 5.172-2.568.027.027 0 0 1 .031.02.036.036 0 0 1 .002.01.036.036 0 0 1-.004.01.022.022 0 0 1-.017.011 12.704 12.704 0 0 0-5.152 2.546.023.023 0 0 1-.017 0l.004.009z" fill="#519BC6"/><path d="M108.214 95.32l-1.601-.357s-1.78 1.952.396 3.513c2.176 1.562 1.996-5.24 1.996-5.24l-.791 2.083z" fill="#818B9B"/><path d="M108.104 130.682h-3.063v4.57h3.063v-4.57z" fill="#F2F3F5"/><path d="M108.104 134.346h-2.321a1.076 1.076 0 0 0-.803.359c-.884 1.004-2.725 1.507-3.823 1.748a1.912 1.912 0 0 0-1.543 1.698h8.49v-3.805z" fill="#818B9B"/><path d="M99.784 138.103h8.152a.395.395 0 0 1 .398.398v.348h-8.949v-.348a.4.4 0 0 1 .399-.398z" fill="#676F7C"/><path d="M101.157 136.461a1.912 1.912 0 0 0-1.543 1.698h2.515c-.415-1.564-.972-1.698-.972-1.698z" fill="#676F7C"/><path d="M118.272 135.252h3.062v-4.57h-3.062v4.57z" fill="#F2F3F5"/><path d="M118.274 134.346h2.321a1.057 1.057 0 0 1 .802.359c.885 1.004 2.726 1.507 3.824 1.748a1.912 1.912 0 0 1 1.543 1.698h-8.49v-3.805z" fill="#818B9B"/><path d="M126.992 138.847h-8.946v-.348a.398.398 0 0 1 .398-.399h8.152a.398.398 0 0 1 .398.399v.348h-.002z" fill="#676F7C"/><path d="M125.225 136.461a1.912 1.912 0 0 1 1.543 1.698h-2.516c.411-1.564.973-1.698.973-1.698zm-11.271-31.598l4.32 31.816 3.612-1.532-1.941-37.394-12.299-2.222-3.05 39.534 3.507 1.614 5.851-31.816z" fill="#676F7C"/><path d="M115.243 93.542l4.006.12s1.362 1.584 1.375 3.144c.015 1.677-1.203 2.218-2.111 2.637-1.113.511-3.983-1.62-3.983-1.62l-2.857-.342 3.57-3.939zm-1.289 11.322l7.655 24.95.277 5.333-3.612 1.532-4.32-31.815z" fill="#818B9B"/><path d="M109.009 97.51l.839-1.331s7.106-.172 9.537 1.149a1.143 1.143 0 0 1 .591.943l.254 4.905-11.221-5.666z" fill="#676F7C"/><path d="M111.744 59.35c-1.936-.265-4.972-.028-5.869 5.185-.897 5.213 1.159 8.202.275 8.242-1.22.057-1.719 1.887-.61 2.369 1.109.482 6.026 2.545 6.026 2.545s6.377-2.153 6.186-3.134c-.287-1.482-1.597-1.314-1.842-1.74-.541-.941.501-2.67.555-4.301.055-1.501.226-8.492-4.721-9.167z" fill="#818B9B"/><path d="M109.759 61.806c-.74.21-3.249.484-3.523 5.064-.241 4.01.377 5.002 2.869 5.362 1.508.21 2.465 3.069 2.484 3.704 0 0-.639-3.29 1.503-3.61 2.143-.318 3.817-2.77 2.428-6.626-1.585-4.393-4.694-4.205-5.761-3.894z" fill="#34383E"/><path d="M108.055 67.964a.948.948 0 1 0 0-1.896.948.948 0 0 0 0 1.896z" fill="#676F7C"/><path d="M107.389 66.07s.232 1.991.499 2.119c.266.128.79-.33.79-.33l-.365-2.158-.924.369z" fill="#34383E"/><path d="M130.916 81.61l-.57-.232a3.578 3.578 0 0 0-1.715-.243l-4.477.476-3.1-4.77a5.97 5.97 0 0 0-3.002-2.324l-1.597-.555-10.54.337-1.335.713a9.091 9.091 0 0 0-2.075 1.517l-5.031 4.91-5.159-3.287a3.355 3.355 0 0 0-2.543-.447l-1.597 3.184a2.674 2.674 0 0 0 1.404 1.625l5.423 2.591a5.297 5.297 0 0 0 5.633-.68l3.456-2.827 2.763 9.21c.28.944.271 1.95-.025 2.89-.386 1.236-.644 2.88.79 2.724 2.224-.239 5.48-.19 5.48-.19l-.189-.153 6.865-1.694-1.115-12.577 3.245 3.175c.499.49 1.171.766 1.872.766h4.091a4.61 4.61 0 0 0 1.979-.447l.719-.342.35-3.35z" fill="#818B9B"/><path d="M110.057 67.166l-.614 5.163c1.144.478 1.914 2.425 2.096 3.301-.096-.824-.193-3.043 1.547-3.303.292-.034.575-.118.839-.248v-4.523l-3.868-.39z" fill="#676F7C"/><path d="M112.514 69.47v1.117s-.937.794-3.1.496l-.133-1.215 3.233-.398z" fill="#34383E"/><path d="M114.35 67.038a7.801 7.801 0 0 0-.197-.767v.767s-.105-4.821-4.402-4.612c-1.467.072-1.887.877-1.991 1.214a2.751 2.751 0 0 0-.095.912c.017.302.044.601.053.903.019.797.069 2.206.161 2.725a3.287 3.287 0 0 0 2.522 2.685 3.283 3.283 0 0 0 3.941-3.835l.008.008z" fill="#676F7C"/><path d="M110.619 67.65h-.027l-.464-.126a.628.628 0 0 1-.436-.404.641.641 0 0 1 .082-.59l.281-.391a.103.103 0 0 1 .069-.05.104.104 0 0 1 .125.09.104.104 0 0 1-.003.043.128.128 0 0 1-.021.038l-.281.398a.436.436 0 0 0 .239.67l.463.127a.105.105 0 0 1 .064.048.108.108 0 0 1 .012.08.115.115 0 0 1-.041.05.111.111 0 0 1-.062.017zm.952.895a.103.103 0 0 1-.055-.017c-.01 0-.935-.563-1.84-.21a.106.106 0 0 1-.08-.001.107.107 0 0 1-.057-.057.11.11 0 0 1 .002-.08.109.109 0 0 1 .057-.056c1.004-.4 1.987.193 2.027.21a.103.103 0 0 1 .048.065.106.106 0 0 1-.012.08.11.11 0 0 1-.09.067zm-.093-2.57a.405.405 0 1 0 0-.809.405.405 0 0 0 0 .81zm-2.071.369a.405.405 0 1 0 0-.81.405.405 0 0 0 0 .81zm1.774-1.323a.421.421 0 0 1-.402-.299.417.417 0 0 1 .171-.47l.583-.381a.42.42 0 0 1 .459.7l-.583.381a.419.419 0 0 1-.228.07zm-1.612-.063a.458.458 0 0 1-.116-.016l-.431-.124a.42.42 0 0 1 .23-.807l.434.126a.42.42 0 0 1-.117.822z" fill="#F2F3F5"/><path d="M114.637 67.964a.948.948 0 1 0 0-1.896.948.948 0 0 0 0 1.896z" fill="#676F7C"/><path d="M114.352 67.658a.106.106 0 0 1-.105-.103l-.012-.419a.72.72 0 0 1 .696-.742.109.109 0 0 1 .109.1.114.114 0 0 1-.007.042.1.1 0 0 1-.022.035.096.096 0 0 1-.034.024.1.1 0 0 1-.04.009.512.512 0 0 0-.493.526l.013.42a.137.137 0 0 1-.006.04.1.1 0 0 1-.022.035.103.103 0 0 1-.073.034h-.004z" fill="#F2F3F5"/><path d="M114.339 67.23a.106.106 0 0 1-.105-.119.107.107 0 0 1 .078-.086l.652-.178a.105.105 0 0 1 .128.074.093.093 0 0 1 .003.04.09.09 0 0 1-.013.04.092.092 0 0 1-.027.03.101.101 0 0 1-.036.017l-.652.179a.066.066 0 0 1-.028.004zm-27.392 2.118l-.032.1c-.065.09-.119.187-.16.29l-.888 2.234v.02a1.214 1.214 0 0 0-.66.725l-.606 1.806a3.008 3.008 0 0 0 .36 2.64l.736 1.09c.095.13.237.22.397.249.17.04.32.142.419.287l.807 1.193 1.932-1.7-1.373-2.027a4.648 4.648 0 0 1-.618-1.323l-.302-1.048a2.53 2.53 0 0 1-.084-.945l.72-2.673-.512 1.908a6.18 6.18 0 0 0 .48-1.677l.031-.23.376-1.393a.137.137 0 0 0-.096-.165.137.137 0 0 0-.07 0 .136.136 0 0 0-.193-.14 1.304 1.304 0 0 0-.664.779z" fill="#F2F3F5"/><path d="M86.446 78.674a1.047 1.047 0 0 1-.839-.373l-.731-1.08a3.13 3.13 0 0 1-.371-2.725l.603-1.807a1.312 1.312 0 0 1 .935-.861.264.264 0 0 1 .321.318l-.338 1.394c-.067.28-.04.575.078.839.046.1.08.206.103.314a.103.103 0 0 1-.08.124.105.105 0 0 1-.126-.08 1.447 1.447 0 0 0-.088-.274 1.496 1.496 0 0 1-.09-.965l.34-1.402a.052.052 0 0 0-.015-.05.056.056 0 0 0-.052-.015 1.106 1.106 0 0 0-.786.725l-.606 1.807a2.918 2.918 0 0 0 .348 2.547l.731 1.08c.065.098.44.419 1.072.21a.105.105 0 0 1 .1.179.104.104 0 0 1-.035.02 1.47 1.47 0 0 1-.474.075zm.524-4.679a.102.102 0 0 1-.1-.075 2.669 2.669 0 0 1-.045-1.273l.744-3.502a.028.028 0 0 0 0-.017.028.028 0 0 0-.01-.013.025.025 0 0 0-.016-.005 1.21 1.21 0 0 0-.69.678.105.105 0 0 1-.196-.075 1.426 1.426 0 0 1 .795-.793.241.241 0 0 1 .323.275l-.745 3.503c-.08.388-.067.79.04 1.171a.103.103 0 0 1-.035.11.102.102 0 0 1-.036.018c-.01.002-.02 0-.03-.002z" fill="#676F7C"/><path d="M86.886 73.043h-.021a.105.105 0 0 1-.073-.13l1.092-4.066a.027.027 0 0 0 0-.03.027.027 0 0 0-.03 0 .105.105 0 1 1-.067-.199.242.242 0 0 1 .308.162.24.24 0 0 1 0 .128l-1.094 4.066a.102.102 0 0 1-.115.07zm1.658 4.178l-1.796 2.264 1.425 1.404 1.597-3.184-1.226-.484z" fill="#676F7C"/><path d="M136.532 82.317a2.707 2.707 0 0 0-1.509-.371l-3.906.224-.331 2.553h.937a.628.628 0 0 1 .447.195c.111.113.261.18.419.187H133.995l.818.6a1.215 1.215 0 0 0 .996.21l.865-.21a1.408 1.408 0 0 0 1.074-1.206l.048-.42a1.465 1.465 0 0 0-.709-1.427l-.555-.335zm-2.983 2.448l.042.032c-.023 0-.04-.01-.042-.032z" fill="#F2F3F5"/><path d="M133.788 85.214h-1.174c-.186 0-.765-.17-.977-.922a.109.109 0 0 1 .037-.112.1.1 0 0 1 .037-.018.103.103 0 0 1 .079.009.107.107 0 0 1 .049.062c.18.64.658.771.775.771h1.157c.333 0 .666-.035.992-.105l.838-.182 1.132-.16a1.106 1.106 0 0 0 .857-.639.05.05 0 0 0 .008-.026.05.05 0 0 0-.008-.026.041.041 0 0 0-.019-.02.045.045 0 0 0-.027-.005l-1.44.078a1.45 1.45 0 0 1-.918-.254 1.382 1.382 0 0 0-.268-.149.098.098 0 0 1-.059-.057.097.097 0 0 1 0-.082.098.098 0 0 1 .059-.057.104.104 0 0 1 .082.003c.108.046.211.102.308.17.231.155.508.229.786.21l1.438-.076a.26.26 0 0 1 .232.113.261.261 0 0 1 .024.258 1.319 1.319 0 0 1-1.019.761l-1.126.16-.838.18a4.9 4.9 0 0 1-1.017.115z" fill="#676F7C"/><path d="M132.363 81.81l-.189 3.108-1.612.04.354-3.347 1.447.199z" fill="#676F7C"/><path d="M115.298 81.426c-.183-1.157-1.298-1.928-2.204-2.006-.985-.086-2.293.612-2.276 2.014.013 1.017.457 1.665 1.365 1.575a.225.225 0 0 0 0 .073.303.303 0 0 0 .178.247 8.864 8.864 0 0 1-.189.996l.554-.07.111-.628a.418.418 0 0 1 .144-.25c-.021.177-.05.42-.084.858l.581-.073-.084-.959h.105l.09.954.547-.069c-.1-.394-.17-.629-.22-.784.08.048.141.122.172.21l.21.555.457-.056a8.824 8.824 0 0 1-.304-.85.274.274 0 0 0 .088-.307c.681-.034.891-.602.759-1.43zm-3.4.511c-.082-.654.913-1.048 1.178-.767.107.111 0 .254-.16.63-.302.733-.937.8-1.018.137zm1.716.495c-.136.103-.163-.031-.243-.027-.079.004-.084.14-.241.05-.103-.056 0-.251.099-.383a.14.14 0 0 1 .171-.04.14.14 0 0 1 .049.04c.113.117.247.295.165.36zm.086-.64c-.209-.37-.35-.51-.266-.628.21-.262 1.117.124 1.155.702.038.579-.495.593-.893-.073h.004z" fill="#B3B9C3"/><path d="M104.091 81.594l1.31-1.164 1.308 9.892-2.618-8.728zm14.565.211l-.298-3.356 3.723 6.708-3.425-3.352zm-20.81-.282a2.01 2.01 0 0 1-1.242-.516.103.103 0 0 1-.031-.075.105.105 0 0 1 .104-.105.103.103 0 0 1 .073.031c.322.291.74.454 1.174.457a1.422 1.422 0 0 0 1.002-.566.104.104 0 0 1 .111-.032.102.102 0 0 1 .036.02.102.102 0 0 1 .013.146 1.625 1.625 0 0 1-1.151.642l-.088-.002z" fill="#676F7C"/><path d="M106.709 96.533l.793.876s.262-.95 1.652-1.109c1.389-.159.151-1.276.151-1.276l-2.596 1.51z" fill="#818B9B"/><path d="M135.467 85.264a.589.589 0 0 1-.283-.075l-.245-.14a.097.097 0 0 1-.031-.027.087.087 0 0 1-.018-.037.094.094 0 0 1-.003-.04.106.106 0 0 1 .014-.04.105.105 0 0 1 .142-.039l.246.14a.358.358 0 0 0 .262.038.107.107 0 0 1 .081.014.11.11 0 0 1 .048.067.11.11 0 0 1-.014.081.106.106 0 0 1-.067.048.551.551 0 0 1-.132.01zm1.824.23a.108.108 0 0 1-.102-.075c-.004-.013-.005-.027-.004-.04a.13.13 0 0 1 .012-.04.108.108 0 0 1 .027-.03c.366-.296.542-.84.484-1.514a1.359 1.359 0 0 0-.658-1.048l-.742-.438a1.946 1.946 0 0 0-1.088-.267l-1.118.057a.099.099 0 0 1-.078-.025.112.112 0 0 1-.024-.034.117.117 0 0 1-.007-.042.11.11 0 0 1 .006-.04.103.103 0 0 1 .053-.06.106.106 0 0 1 .04-.009l1.117-.056c.422-.021.841.081 1.205.295l.738.434a1.574 1.574 0 0 1 .765 1.216c.065.738-.14 1.354-.561 1.696a.108.108 0 0 1-.065.02zm-13.286-3.77c-.954 0-1.677-.893-1.704-.935a.106.106 0 0 1-.022-.077.103.103 0 0 1 .039-.07.102.102 0 0 1 .076-.022.103.103 0 0 1 .07.039s.763.943 1.677.838l2.899-.306.023.21-2.899.308a.83.83 0 0 1-.159.015z" fill="#676F7C"/><path d="M130.288 44.263c5.645-9.041 8.588-17.39 6.573-18.648-2.015-1.259-8.225 5.05-13.87 14.092-5.645 9.041-8.588 17.39-6.573 18.648 2.015 1.259 8.225-5.05 13.87-14.092z" fill="#818B9B"/><path d="M117.023 58.62a1.206 1.206 0 0 1-.656-.174c-2.097-1.308.777-9.563 6.54-18.792 5.762-9.23 11.919-15.433 14.013-14.125 2.096 1.308-.778 9.563-6.54 18.79-5.247 8.404-10.815 14.3-13.357 14.3zm19.236-33.047c-1.048 0-2.775 1.162-4.892 3.312-2.616 2.656-5.557 6.524-8.282 10.89-2.725 4.366-4.911 8.708-6.15 12.22-1.206 3.422-1.373 5.713-.457 6.29.916.576 2.899-.585 5.45-3.168 2.614-2.658 5.557-6.525 8.282-10.9 2.725-4.375 4.911-8.706 6.15-12.22 1.205-3.422 1.373-5.71.457-6.29a1.03 1.03 0 0 0-.558-.134z" fill="#676F7C"/><path d="M133.549 22.892l-31.325 8.723 11.516 10.657a20.123 20.123 0 0 1 6.245 11.839l.436 2.947a28.253 28.253 0 0 0 5.557 13.107l5.009 6.515 12.183 15.843a12.733 12.733 0 0 0 9.027 4.924l.052.189 16.438 19.121a13.665 13.665 0 0 0 2.568 2.306l.667.901a13.683 13.683 0 0 0 9.407 5.45 1.414 1.414 0 0 0 1.581-1.309 1.419 1.419 0 0 0-.149-.741l-.059-.023c.249-.017.488-.099.694-.239a1.41 1.41 0 0 0 .621-1.274 1.413 1.413 0 0 0-.239-.694l-8.473-12.51-1.096-2.167a64.395 64.395 0 0 0-10.507-15.007l-4.67-6.865a26.637 26.637 0 0 1-2.406-9.668l-.505-9.747a34.177 34.177 0 0 0-5.719-17.22l-16.853-25.058z" fill="#F2F3F5"/><path d="M178.468 121.499a1.418 1.418 0 0 0 1.481-1.423 1.426 1.426 0 0 0-.202-.728l-10.787-17.937s9.996 13.959 11.948 17.256c1.951 3.297.285 4.624.285 4.624s-3.281-.031-6.857-2.62c1.325.491 2.72.771 4.132.828zm-24.06-24.058a1.681 1.681 0 0 0 1.343-.93 1.678 1.678 0 0 0-.085-1.632l-8.133-12.709a14.57 14.57 0 0 1-2.275-9.16c.073-.696.106-1.396.097-2.096.628 8.953 8.288 17.878 11.355 22.316 5.71 8.265 3.649 13.847 3.649 13.847l-8.286-9.642a12.75 12.75 0 0 0 2.333 0l.002.006z" fill="#D1D5DB"/><path d="M178.533 121.604h-.065a13.853 13.853 0 0 1-9.852-4.786l-16.579-19.285a12.757 12.757 0 0 1-8.942-4.955l-17.204-22.356a28.461 28.461 0 0 1-5.577-13.158l-.434-2.947a20.09 20.09 0 0 0-6.211-11.774l-11.655-10.787 31.579-8.79.042.061 16.853 25.058a34.277 34.277 0 0 1 5.737 17.273l.505 9.747a26.648 26.648 0 0 0 3.757 12.204l19.348 32.178a1.52 1.52 0 0 1 .019 1.531 1.525 1.525 0 0 1-1.321.775v.011zm-26.202-24.037l16.44 19.115a13.637 13.637 0 0 0 4.362 3.356 13.644 13.644 0 0 0 5.335 1.356 1.319 1.319 0 0 0 1.371-1.317c0-.238-.065-.471-.187-.674l-19.345-32.179a26.843 26.843 0 0 1-3.786-12.3l-.505-9.75a34.064 34.064 0 0 0-5.702-17.172l-16.811-24.994-31.07 8.657 11.378 10.529a20.31 20.31 0 0 1 6.276 11.9l.434 2.947a28.24 28.24 0 0 0 5.542 13.062l17.189 22.355a12.555 12.555 0 0 0 11.145 4.878 1.562 1.562 0 0 0 1.263-.87 1.567 1.567 0 0 0-.085-1.53l-8.131-12.705a14.73 14.73 0 0 1-2.291-9.223v-.092c.42-4.459-.748-8.691-3.303-11.917a.086.086 0 0 1-.019-.036.094.094 0 0 1-.004-.041.107.107 0 0 1 .116-.093.102.102 0 0 1 .07.04c2.589 3.268 3.773 7.546 3.354 12.066v.092a14.51 14.51 0 0 0 2.258 9.093l8.131 12.705a1.786 1.786 0 0 1 .099 1.738 1.784 1.784 0 0 1-1.435.987 13.14 13.14 0 0 1-2.094.017h.005z" fill="#676F7C"/><path d="M175.305 108.729a.102.102 0 0 1-.092-.057l-1.099-2.169a64.268 64.268 0 0 0-10.481-14.982.117.117 0 0 1-.028-.034.126.126 0 0 1-.011-.043.095.095 0 0 1 .008-.044.106.106 0 0 1 .107-.065.103.103 0 0 1 .042.014.098.098 0 0 1 .033.03 64.437 64.437 0 0 1 10.525 15.029l1.09 2.174a.106.106 0 0 1 .005.08.106.106 0 0 1-.051.061c-.015.006-.032.008-.048.006zm6.196 16.803c-.061 0-.123-.004-.184-.013a13.826 13.826 0 0 1-9.481-5.49l-.667-.901a.104.104 0 0 1-.017-.037.096.096 0 0 1-.002-.041.106.106 0 0 1 .013-.039.104.104 0 0 1 .065-.048.1.1 0 0 1 .042-.002.088.088 0 0 1 .038.014.1.1 0 0 1 .031.027l.667.902a13.621 13.621 0 0 0 9.334 5.408 1.312 1.312 0 0 0 1.23-.554 1.319 1.319 0 0 0 .097-1.345.097.097 0 0 1-.007-.08.103.103 0 0 1 .053-.061.103.103 0 0 1 .079-.005.11.11 0 0 1 .061.051 1.522 1.522 0 0 1-.611 2.016 1.527 1.527 0 0 1-.741.198z" fill="#676F7C"/><path d="M182.474 123.465a13.877 13.877 0 0 1-8.198-2.708.104.104 0 0 1-.021-.147.104.104 0 0 1 .068-.041.102.102 0 0 1 .078.018 13.722 13.722 0 0 0 8.211 2.668 1.311 1.311 0 0 0 1.152-.704 1.316 1.316 0 0 0-.077-1.348l-24.749-36.57c-.016-.023-.021-.052-.016-.08a.104.104 0 0 1 .123-.082.106.106 0 0 1 .067.045l24.749 36.561a1.517 1.517 0 0 1 .086 1.568 1.522 1.522 0 0 1-1.343.812l-.13.008z" fill="#676F7C"/><path d="M86.787 16.77L116.1 58.038c-1.314-1.987 1.602-9.852 6.895-18.329 5.645-9.04 11.856-15.35 13.87-14.093C119.234 4.746 75.415.748 86.787 16.77z" fill="#D1D5DB"/><path d="M132.71 19.511a.11.11 0 0 1-.05-.013.113.113 0 0 1-.038-.035L119.714.163a.106.106 0 0 1-.015-.079.105.105 0 0 1 .044-.067.107.107 0 0 1 .079-.015.104.104 0 0 1 .066.044l12.908 19.302a.096.096 0 0 1 .019.079.09.09 0 0 1-.015.038.09.09 0 0 1-.029.03.106.106 0 0 1-.061.016zm-1.926 9.922a.107.107 0 0 1-.071-.03.097.097 0 0 1-.023-.034.111.111 0 0 1-.008-.04c0-.014.003-.028.008-.04a.097.097 0 0 1 .023-.035c2.641-2.796 4.702-4.146 5.869-3.865l-1.631-2.438a.11.11 0 0 1-.022-.082.118.118 0 0 1 .016-.04.106.106 0 0 1 .07-.047.109.109 0 0 1 .044.002c.014.003.027.01.038.019a.1.1 0 0 1 .028.033l1.822 2.725a.105.105 0 0 1-.074.163.107.107 0 0 1-.069-.017c-.983-.611-3.144.732-5.946 3.694a.11.11 0 0 1-.074.032zm-4.586 5.615a.109.109 0 0 1-.061-.019.106.106 0 0 1-.041-.068.104.104 0 0 1 .018-.078 60.846 60.846 0 0 1 2.601-3.354.106.106 0 0 1 .072-.046.103.103 0 0 1 .082.022.1.1 0 0 1 .027.034.09.09 0 0 1 .011.042.09.09 0 0 1-.007.043.103.103 0 0 1-.023.037 66.97 66.97 0 0 0-2.593 3.354.108.108 0 0 1-.086.033zM116.1 58.144a.1.1 0 0 1-.047-.012.106.106 0 0 1-.037-.032l-11.503-16.2a.108.108 0 0 1-.019-.078.104.104 0 0 1 .188-.044l11.064 15.58c-.449-2.604 1.968-9.003 6.142-16.032a.105.105 0 0 1 .063-.049.102.102 0 0 1 .079.014.097.097 0 0 1 .031.026c.009.011.015.023.018.037a.094.094 0 0 1 .003.04.106.106 0 0 1-.014.04c-4.612 7.768-7.085 14.727-5.88 16.546.015.023.021.051.016.078a.112.112 0 0 1-.043.067.11.11 0 0 1-.061.019zM94.778 28.116a.103.103 0 0 1-.086-.044l-3.593-5.058a.105.105 0 1 1 .172-.122l3.593 5.059a.107.107 0 0 1-.025.146.109.109 0 0 1-.061.02z" fill="#676F7C"/><path d="M54.158 120.419c.693-2.273-7.012-6.632-17.208-9.738-10.197-3.106-19.024-3.781-19.716-1.509-.692 2.273 7.013 6.633 17.21 9.738 10.195 3.106 19.022 3.781 19.714 1.509z" fill="#818B9B"/><path d="M49.828 121.882c-3.667 0-9.245-.987-15.416-2.867-4.938-1.505-9.451-3.354-12.709-5.19-3.297-1.866-4.92-3.528-4.57-4.679.353-1.151 2.627-1.625 6.402-1.335 3.731.285 8.506 1.27 13.445 2.775 10.408 3.171 17.998 7.506 17.277 9.869-.302.962-1.912 1.427-4.43 1.427zm-28.299-13.946c-2.448 0-3.949.443-4.192 1.271-.315 1.031 1.316 2.647 4.473 4.435 3.243 1.834 7.741 3.673 12.665 5.171 4.924 1.499 9.68 2.484 13.401 2.765 3.616.277 5.87-.157 6.186-1.188.316-1.032-1.316-2.648-4.473-4.434-3.243-1.836-7.742-3.674-12.666-5.173-4.923-1.499-9.682-2.484-13.398-2.767a27.918 27.918 0 0 0-1.99-.08h-.006z" fill="#676F7C"/><path d="M16.404 111.892l15.61 29.181 7.303-13.887a20.136 20.136 0 0 1 9.817-9.1l2.725-1.184a28.268 28.268 0 0 0 11.216-8.769l4.994-6.529 12.145-15.87a12.738 12.738 0 0 0 2.412-9.993l.168-.1L96.99 54.805a13.698 13.698 0 0 0 1.57-3.082l.695-.878a13.674 13.674 0 0 0 2.823-10.5 1.417 1.417 0 0 0-2.352-.851v.063a1.417 1.417 0 0 0-2.41-.463l-9.891 11.424-1.818 1.618A64.352 64.352 0 0 0 73.841 66.18l-5.418 6.29a26.692 26.692 0 0 1-8.712 4.833l-9.284 3.016A34.169 34.169 0 0 0 35.3 90.308l-18.895 21.584z" fill="#F2F3F5"/><path d="M99.035 44.12a1.42 1.42 0 0 0-2.406-.677L82.104 58.515S92.993 45.238 95.67 42.498c2.677-2.74 4.402-1.478 4.402-1.478s.819 3.178-.75 7.303a13.45 13.45 0 0 0-.286-4.203zM82.044 73.6a1.678 1.678 0 0 0-2.8-.547L69.084 84.199a14.554 14.554 0 0 1-8.257 4.572c-.694.112-1.381.263-2.058.453 8.479-2.935 15.113-12.644 18.603-16.755 6.498-7.661 12.426-7.127 12.426-7.127l-7.154 10.502a12.656 12.656 0 0 0-.601-2.245z" fill="#D1D5DB"/><path d="M32.014 141.299l-15.736-29.422.048-.054 18.885-21.591a34.258 34.258 0 0 1 15.193-10.02l9.282-3.018A26.652 26.652 0 0 0 70.498 70.4l26.055-27.04a1.524 1.524 0 0 1 2.585.727 13.836 13.836 0 0 1-2.063 10.76L82.76 75.881a12.758 12.758 0 0 1-2.465 9.92l-17.13 22.394A28.437 28.437 0 0 1 51.907 117l-2.725 1.185a20.101 20.101 0 0 0-9.77 9.053l-7.398 14.061zM16.53 111.907l15.482 28.944 7.213-13.712a20.331 20.331 0 0 1 9.865-9.149l2.725-1.185a28.223 28.223 0 0 0 11.176-8.734l17.13-22.406a12.565 12.565 0 0 0 1.818-12.03 1.565 1.565 0 0 0-2.62-.514L69.165 84.266a14.726 14.726 0 0 1-8.316 4.612l-.09.015c-4.417.746-8.2 2.976-10.653 6.288a.106.106 0 1 1-.17-.126c2.486-3.354 6.318-5.609 10.787-6.364l.09-.014a14.519 14.519 0 0 0 8.197-4.54l10.16-11.148a1.774 1.774 0 0 1 2.974.58c.242.656.43 1.33.562 2.017l14.197-20.838a13.634 13.634 0 0 0 2.032-10.596 1.314 1.314 0 0 0-2.23-.63L70.648 70.565a26.86 26.86 0 0 1-10.9 6.848l-9.282 3.018a34.06 34.06 0 0 0-15.093 9.96L16.53 111.906z" fill="#676F7C"/><path d="M73.85 66.281a.118.118 0 0 1-.057-.017.107.107 0 0 1-.033-.144 64.561 64.561 0 0 1 11.784-14.062l1.811-1.622a.103.103 0 0 1 .147 0 .1.1 0 0 1 0 .147l-1.809 1.622a64.368 64.368 0 0 0-11.739 14.017.105.105 0 0 1-.104.06zm24.71-14.457a.107.107 0 0 1-.084-.172l.698-.876a13.622 13.622 0 0 0 2.8-10.42 1.312 1.312 0 0 0-1.551-1.098c-.234.045-.45.153-.627.311a.105.105 0 0 1-.178-.074.104.104 0 0 1 .032-.074 1.523 1.523 0 0 1 2.515.914 13.829 13.829 0 0 1-2.845 10.58l-.679.86a.11.11 0 0 1-.082.049z" fill="#676F7C"/><path d="M68.419 72.582a.105.105 0 0 1-.07-.025.107.107 0 0 1-.01-.149L97.231 39.02a1.524 1.524 0 0 1 2.63.598c.802 2.889.647 5.96-.442 8.753a.106.106 0 0 1-.096.067.105.105 0 0 1-.04-.008.104.104 0 0 1-.059-.055.101.101 0 0 1 0-.081 13.67 13.67 0 0 0 .428-8.63 1.313 1.313 0 0 0-2.26-.507L68.5 72.547a.106.106 0 0 1-.081.035z" fill="#676F7C"/><path d="M37.395 153.069l16.539-32.254c-1.578 1.789-9.934 1.011-19.495-1.901-10.195-3.106-17.899-7.466-17.207-9.737L.397 133.868" fill="#fff"/><path d="M29.01 117.162h-.037a67.278 67.278 0 0 1-3.924-1.64.104.104 0 0 1-.051-.139.108.108 0 0 1 .058-.055.106.106 0 0 1 .08.004 67.566 67.566 0 0 0 3.912 1.633c.028.005.053.02.069.044a.106.106 0 0 1-.106.165v-.012zm0 52.339a.13.13 0 0 1-.048 0 .107.107 0 0 1-.044-.142l24.697-48.152c-2.14 1.285-9.16.646-17.322-1.643a.1.1 0 0 1-.064-.049.102.102 0 0 1-.01-.079.105.105 0 0 1 .128-.073c8.701 2.437 16.063 3.02 17.507 1.383a.11.11 0 0 1 .139-.017.104.104 0 0 1 .034.135l-24.924 48.581a.111.111 0 0 1-.039.04.103.103 0 0 1-.054.016zm-18.79-49.933a.096.096 0 0 1-.058-.019.099.099 0 0 1-.045-.066.105.105 0 0 1 .017-.078l7.014-10.288a.104.104 0 0 1 .19.04.106.106 0 0 1-.016.079l-7.016 10.286a.103.103 0 0 1-.086.046zM.398 133.973a.1.1 0 0 1-.06-.027.104.104 0 0 1-.027-.145l7.698-11.29a.104.104 0 0 1 .067-.044.1.1 0 0 1 .079.016.102.102 0 0 1 .044.067.103.103 0 0 1-.016.078l-7.7 11.299a.104.104 0 0 1-.086.046zM108.812 76.63a.101.101 0 0 1-.052-.015.105.105 0 0 1-.038-.04c-1.008-1.817-3.61-1.727-3.637-1.725a.108.108 0 0 1-.074-.028.106.106 0 0 1-.035-.072.1.1 0 0 1 .028-.075.103.103 0 0 1 .073-.034c.111 0 2.756-.099 3.827 1.832a.112.112 0 0 1 .011.08.121.121 0 0 1-.019.036.098.098 0 0 1-.032.026.092.092 0 0 1-.052.015zm-.222-3.054a.11.11 0 0 1-.067-.023c-1.334-1.071-2.319-.686-2.329-.681a.107.107 0 0 1-.115-.024.114.114 0 0 1-.023-.034.11.11 0 0 1 .001-.08.104.104 0 0 1 .057-.057c.044-.02 1.111-.434 2.541.712a.106.106 0 0 1 .016.147.11.11 0 0 1-.036.029.11.11 0 0 1-.045.01zm6.517 1.467a.113.113 0 0 1-.05-.012.11.11 0 0 1-.038-.034c-.015-.023-.021-.05-.015-.078a.107.107 0 0 1 .042-.067c1.866-1.282 2.71-.553 2.746-.524.02.02.031.045.032.072a.105.105 0 0 1-.17.086s-.776-.64-2.488.538a.11.11 0 0 1-.059.02zm.385-1.408a.092.092 0 0 1-.033 0 .106.106 0 0 1-.065-.134 7.64 7.64 0 0 0 .289-1.738c0-.014.003-.028.009-.04a.101.101 0 0 1 .1-.06.107.107 0 0 1 .101.11 7.818 7.818 0 0 1-.302 1.797.102.102 0 0 1-.099.065z" fill="#676F7C"/><path d="M68.113 48.851a1.968 1.968 0 1 0-3.935 0c.05.822.175 1.638.371 2.438.299 1.34.44 2.71.42 4.081v.02a1.176 1.176 0 0 0 2.35 0v-.02a17.58 17.58 0 0 1 .418-4.08c.197-.8.323-1.617.376-2.439zm-1.969 11.184a1.438 1.438 0 1 0 0-2.876 1.438 1.438 0 0 0 0 2.876zm69.382 54.45a2.868 2.868 0 1 0-.001-5.735 2.868 2.868 0 0 0 .001 5.735z" fill="#fff"/><path d="M136.178 110.091a.654.654 0 0 0-.652-.652.652.652 0 0 0-.652.652c.017.273.058.543.123.807.099.445.147.899.141 1.355a.39.39 0 0 0 .778 0 5.77 5.77 0 0 1 .14-1.355c.065-.264.105-.535.122-.807zm-.652 3.706a.475.475 0 1 0 0-.95.475.475 0 0 0 0 .95zm28.998 23.863s.614-3.687 4.241-4.425c3.626-.738 2.039-2.964 8.984-4.546 8.36-1.904 23.934-.369 27.265 9.462 1.557 4.597-5.549 4.597-11.938 8.739-6.898 4.473-4.995 11.319 6.918 11.319 13.327 0 20.699 0 15.145 8.861-6.765 10.787-20.646 16.807-29.026 13.453-8.381-3.354-2.614-1.799-10.9-5.373-8.287-3.574-10.689-37.49-10.689-37.49z" fill="#F2F3F5"/><path d="M161.1 174.11c2.264-.718 1.486-9.537-1.739-19.696-3.225-10.16-7.674-17.813-9.938-17.094-2.265.719-1.486 9.537 1.739 19.696 3.224 10.16 7.674 17.813 9.938 17.094z" fill="#818B9B"/><path d="M160.801 174.251c-1.127 0-2.668-1.595-4.402-4.565-1.886-3.237-3.773-7.727-5.339-12.649-3.293-10.369-4.026-19.075-1.676-19.825 1.146-.365 2.825 1.239 4.731 4.513 1.886 3.236 3.773 7.726 5.339 12.648 1.565 4.922 2.603 9.682 2.934 13.416.334 3.773-.113 6.054-1.257 6.416a1.083 1.083 0 0 1-.33.046zm-11.069-36.882a.913.913 0 0 0-.275.042c-1.027.327-1.434 2.587-1.115 6.198.329 3.713 1.366 8.461 2.934 13.366 1.568 4.905 3.447 9.382 5.32 12.604 1.824 3.144 3.459 4.748 4.486 4.421 1.03-.327 1.436-2.587 1.118-6.199-.33-3.712-1.367-8.46-2.935-13.365-1.568-4.905-3.448-9.38-5.322-12.604-1.667-2.87-3.178-4.463-4.211-4.463z" fill="#676F7C"/><path d="M174.971 174.54l-3.59-29.797-7.966.952a20.125 20.125 0 0 1-13.063-2.92l-2.526-1.579a28.269 28.269 0 0 0-13.587-4.263l-8.211-.419-19.96-.992a12.721 12.721 0 0 0-9.599 3.681l-.178-.082-25.21.128a13.674 13.674 0 0 0-3.428.455l-1.117-.078a13.711 13.711 0 0 0-10.248 3.631 1.417 1.417 0 0 0-.03 2.051c.182.18.41.307.659.368l.054-.029a1.415 1.415 0 0 0 .985 2.249l15.017 1.66 2.363.581a64.434 64.434 0 0 0 18.237 1.727l8.252.893a26.685 26.685 0 0 1 8.936 4.433l7.756 5.935a34.152 34.152 0 0 0 16.82 6.806l39.634 4.609z" fill="#F2F3F5"/><path d="M61.126 143.63a1.42 1.42 0 0 0 .124 2.049c.196.166.432.275.685.318l20.652 3.414s-17.111-1.438-20.887-2.096c-3.775-.658-3.708-2.779-3.708-2.779s2.153-2.478 6.44-3.524a13.506 13.506 0 0 0-3.306 2.618zm33.914-2.727a1.677 1.677 0 0 0 1.136 2.616l14.944 2.044a14.561 14.561 0 0 1 8.445 4.205c.485.51 1 .991 1.541 1.44-7.223-5.314-18.981-5.276-24.345-5.817-9.997-1.01-12.91-6.205-12.91-6.205l12.704-.065a12.69 12.69 0 0 0-1.513 1.774l-.002.008z" fill="#D1D5DB"/><path d="M175.091 174.66l-39.779-4.624a34.286 34.286 0 0 1-16.87-6.827l-7.756-5.935a26.66 26.66 0 0 0-11.728-5.049l-37.038-6.121a1.525 1.525 0 0 1-.867-2.541 13.835 13.835 0 0 1 10.03-4.402l25.427-.13a12.775 12.775 0 0 1 9.569-3.597l28.16 1.394a28.419 28.419 0 0 1 13.635 4.281l2.516 1.578a20.09 20.09 0 0 0 12.996 2.905l8.07-.964.013.103 3.622 29.929zm-78.793-35.423l-25.213.128a13.618 13.618 0 0 0-9.88 4.337 1.31 1.31 0 0 0 .747 2.192l37.046 6.125a26.87 26.87 0 0 1 11.82 5.092l7.756 5.932a34.05 34.05 0 0 0 16.769 6.787l39.515 4.593-3.563-29.556-7.863.939a20.307 20.307 0 0 1-13.13-2.935l-2.533-1.588a28.223 28.223 0 0 0-13.53-4.247l-28.173-1.398a12.55 12.55 0 0 0-10.938 5.326 1.562 1.562 0 0 0 1.065 2.45l14.944 2.044a14.732 14.732 0 0 1 8.51 4.237l.063.067c3.119 3.213 7.102 5.064 11.217 5.209a.102.102 0 0 1 .072.034c.019.02.029.047.028.075a.11.11 0 0 1-.008.04.116.116 0 0 1-.024.034.093.093 0 0 1-.036.021c-.013.005-.027.006-.041.005-4.167-.147-8.2-2.02-11.357-5.272l-.065-.067a14.528 14.528 0 0 0-8.385-4.175l-14.941-2.044a1.77 1.77 0 0 1-1.525-1.938c.031-.303.14-.593.315-.842.402-.57.85-1.107 1.338-1.605z" fill="#676F7C"/><path d="M90.466 152.044a64.48 64.48 0 0 1-15.149-1.805l-2.362-.572a.107.107 0 0 1-.078-.128.108.108 0 0 1 .048-.063c.023-.014.051-.02.078-.014l2.364.572a64.326 64.326 0 0 0 18.206 1.729.096.096 0 0 1 .04.004.097.097 0 0 1 .037.02.096.096 0 0 1 .032.075.1.1 0 0 1-.006.04.097.097 0 0 1-.02.036.111.111 0 0 1-.033.025.109.109 0 0 1-.04.01c-1.04.047-2.079.071-3.117.071zm-33.543-6.253h-.034a1.518 1.518 0 0 1-1.106-1.906 1.52 1.52 0 0 1 .427-.691 13.846 13.846 0 0 1 10.326-3.66l1.117.078a.109.109 0 0 1 .04.01.11.11 0 0 1 .053.06.107.107 0 0 1-.004.081.105.105 0 0 1-.06.053.139.139 0 0 1-.041.006l-1.12-.078a13.634 13.634 0 0 0-10.169 3.603 1.317 1.317 0 0 0-.025 1.902c.17.166.382.284.613.339a.109.109 0 0 1 .07.04.107.107 0 0 1 .019.036.11.11 0 0 1-.01.081.112.112 0 0 1-.063.05.14.14 0 0 1-.041.003l.008-.007z" fill="#676F7C"/><path d="M101.846 152.864h-.012l-43.884-4.855a1.521 1.521 0 0 1-1.002-2.49 13.851 13.851 0 0 1 7.46-4.599.105.105 0 0 1 .082.014.107.107 0 0 1 .034.148.11.11 0 0 1-.067.048 13.644 13.644 0 0 0-7.347 4.529 1.318 1.318 0 0 0 .214 1.889c.189.144.413.234.65.26l43.883 4.853c.028 0 .054.011.074.03a.105.105 0 0 1 0 .149.107.107 0 0 1-.074.03l-.011-.006z" fill="#676F7C"/><path d="M161.105 174.1l15.527 1.621c6.582.851-.361-41.052-12.265-40.205l-14.493 1.756c2.367.288 6.467 7.607 9.489 17.133 3.226 10.158 4.013 18.976 1.742 19.695z" fill="#D1D5DB"/><path d="M167.811 174.905h-.013l-6.707-.7a.105.105 0 0 1-.116-.094.106.106 0 0 1 .024-.077.104.104 0 0 1 .071-.039c1.106-.35 1.486-2.873 1.048-6.917a.104.104 0 0 1 .17-.092.102.102 0 0 1 .039.069c.42 3.819.109 6.261-.863 6.978l6.36.665a.102.102 0 0 1 .072.034.102.102 0 0 1 .027.076.103.103 0 0 1-.034.072.102.102 0 0 1-.076.027l-.002-.002zm-6.02-10.711a.106.106 0 0 1-.068-.025.114.114 0 0 1-.035-.063 65.064 65.064 0 0 0-.874-4.149.105.105 0 0 1 .013-.081.111.111 0 0 1 .067-.049.108.108 0 0 1 .13.08c.35 1.444.645 2.845.876 4.163a.106.106 0 0 1-.084.122l-.025.002zm-3.04-11.542a.112.112 0 0 1-.061-.019.109.109 0 0 1-.037-.052c-2.935-8.548-6.624-14.942-8.789-15.204a.11.11 0 0 1-.075-.03.11.11 0 0 1-.03-.075c0-.027.011-.054.03-.074a.11.11 0 0 1 .075-.03l9.808-1.189a.107.107 0 0 1 .077.021.107.107 0 0 1 .04.069.109.109 0 0 1-.022.078.11.11 0 0 1-.07.04l-9.318 1.13c2.275 1.048 5.725 7.183 8.467 15.195a.139.139 0 0 1 .006.04.108.108 0 0 1-.071.094.08.08 0 0 1-.03.006zm35.16-13.015a.11.11 0 0 1-.059-.017.112.112 0 0 1-.038-.048.106.106 0 0 1 .002-.08.108.108 0 0 1 .057-.056c3.079-1.191 4.54-2.652 4.119-4.115-.333-1.157-1.843-2.26-4.035-2.935a15.154 15.154 0 0 0-7.188-.419c-3.354.654-4.953 1.803-6.123 2.641-1.587 1.139-2.461 1.765-5.809-.159-2.643-1.522-5.093-1.811-7.083-.838a5.717 5.717 0 0 0-2.24 1.955.107.107 0 0 1-.065.047.103.103 0 0 1-.078-.012.102.102 0 0 1-.048-.063.109.109 0 0 1 .01-.079c.03-.05 3.042-4.974 9.609-1.194 3.23 1.859 4.016 1.295 5.582.171 1.185-.838 2.809-2.014 6.205-2.676 4.807-.942 10.701.865 11.464 3.511.616 2.134-2.394 3.653-4.245 4.368l-.037-.002z" fill="#676F7C"/><path d="M182.241 139.637c-5.75 0-8.454-1.989-10.726-4.041-2.23-2.013-4.706-.26-4.821-.185a.109.109 0 0 1-.147-.023.1.1 0 0 1-.017-.038.113.113 0 0 1-.001-.041.095.095 0 0 1 .015-.038.1.1 0 0 1 .028-.03c.025-.019 2.725-1.928 5.073.197 2.453 2.216 5.175 4.193 11.468 3.983.028 0 .054.011.075.03.02.019.032.045.034.073a.102.102 0 0 1-.028.074.105.105 0 0 1-.072.033c-.292.002-.587.006-.881.006zm-9.353 3.216a.12.12 0 0 1-.053-.015.101.101 0 0 1-.037-.04c-2.908-5.259-5.002-6.209-5.031-6.219a.106.106 0 0 1-.032-.171.099.099 0 0 1 .035-.022.097.097 0 0 1 .041-.008.118.118 0 0 1 .04.01c.088.038 2.18.987 5.121 6.309a.119.119 0 0 1 .013.053.112.112 0 0 1-.015.051.102.102 0 0 1-.039.038.1.1 0 0 1-.051.014h.008zm5.1 15.457a.108.108 0 0 1-.069-.025.104.104 0 0 1-.036-.063c-.742-4.555-2.889-10.425-2.909-10.481a.106.106 0 0 1 .002-.08.11.11 0 0 1 .058-.054.106.106 0 0 1 .137.063c.021.058 2.173 5.946 2.92 10.52a.113.113 0 0 1-.001.041.124.124 0 0 1-.017.037.1.1 0 0 1-.068.042h-.017zm-11.887-22.509a.081.081 0 0 1-.038 0c-1.069-.419-2.344-.094-2.356-.09a.112.112 0 0 1-.082-.012.107.107 0 0 1-.031-.029.09.09 0 0 1-.018-.038.1.1 0 0 1-.002-.042.12.12 0 0 1 .014-.04.118.118 0 0 1 .028-.031.146.146 0 0 1 .038-.018c.055-.014 1.352-.348 2.484.099a.093.093 0 0 1 .039.015.092.092 0 0 1 .03.029.086.086 0 0 1 .016.038.095.095 0 0 1 .001.041.093.093 0 0 1-.015.039.092.092 0 0 1-.029.03.1.1 0 0 1-.079.017v-.008zm20.008 44.822a.065.065 0 0 1-.034 0c-5.335-1.821-5.318-8.082-5.318-8.145a.107.107 0 0 1 .105-.103.11.11 0 0 1 .04.008.094.094 0 0 1 .033.023.11.11 0 0 1 .03.074c0 .063-.013 6.173 5.175 7.944a.106.106 0 0 1 .065.134.106.106 0 0 1-.038.048.094.094 0 0 1-.058.017zM86.5 16.461a.1.1 0 0 1-.084-.044l-2.29-3.226a.105.105 0 0 1 .102-.157c.026.003.05.016.067.036l2.291 3.226a.104.104 0 0 1-.025.146.11.11 0 0 1-.06.02z" fill="#676F7C"/></g><defs><clipPath id="clip0_8179_31689"><path fill="#fff" transform="translate(.293)" d="M0 0H216.707V181.447H0z"/></clipPath></defs></svg>