<svg width="296" height="156" fill="none" xmlns="http://www.w3.org/2000/svg"><g clip-path="url(#clip0_8179_31409)"><path d="M235.533 139.208a.688.688 0 0 0-.385-.366.686.686 0 0 0-.897.398.696.696 0 0 0 .013.531c.134.258.291.502.47.731.288.388.53.809.72 1.253a.417.417 0 0 0 .762-.337 6.084 6.084 0 0 1-.45-1.373 4.973 4.973 0 0 0-.233-.837zm.766 3.925a.507.507 0 1 0 .002-1.014.507.507 0 0 0-.002 1.014z" fill="#F2F3F5"/><path d="M233.929 137.317a4.005 4.005 0 0 0-1.639 5.965 4.007 4.007 0 0 0 4.15 1.594 4.006 4.006 0 0 0 3.061-3.224 4 4 0 0 0-5.572-4.335zm2.969 6.651a3.279 3.279 0 0 1-4.403-4.167 3.284 3.284 0 0 1 4.812-1.606 3.29 3.29 0 0 1 1.318 3.95 3.273 3.273 0 0 1-1.727 1.823zm-17.947-7.544a1.109 1.109 0 0 0-.254.74c.004.181.051.358.137.516a33.426 33.426 0 0 1-2.2 2.639l1.497.84 1.431-1.715c.212-.27.517-.451.856-.508a61.967 61.967 0 0 0-1.794 2.505l1.735.972 1.573-3.251c.116.051.228.11.335.178l-1.555 3.263 1.794 1.015c.467-1.553.705-2.464.868-3.103.164.329.21.704.132 1.063l-.47 2.332 1.652.926c.179-1.234.419-2.457.721-3.667a1.091 1.091 0 0 0 .878-.619 1.31 1.31 0 0 0 .086-.254c2.641 1.492 4.801-.127 6.161-3.552 1.888-4.737-1.046-9.165-4.202-10.464-3.017-1.241-7.836-.315-10.084 3.709-1.606 2.88-1.649 5.316.703 6.435zm6.722-1.352c0-1.599-.143-2.266.347-2.5 1.211-.578 3.756 2.259 2.644 4.403-1.111 2.144-3.009 1.076-2.991-1.903zm-2.061.132a.476.476 0 0 1 .444-.008.476.476 0 0 1 .262.358c.119.601.205 1.441-.196 1.5-.629.091-.454-.394-.713-.523-.259-.13-.523.307-.83-.254-.192-.358.5-.797 1.033-1.073zm-3.532-2.416c.921-2.065 4.486-2.01 4.788-.761.125.507-.487.822-1.705 1.819-2.213 1.822-4.009 1.046-3.083-1.058zm-69.434-77.736a3.578 3.578 0 1 0 0-7.156 3.578 3.578 0 0 0 0 7.156zm-65.5-13.832a5.225 5.225 0 0 0-2.55 6.933l2.075 4.48 1.522-.707-2.065-4.476a3.535 3.535 0 1 1 6.417-2.97l2.073 4.492 1.522-.708-2.073-4.483a5.22 5.22 0 0 0-6.922-2.56z" fill="#F2F3F5"/><path d="M87.88 47.135c-.507 1.132-1.801 3.01-5.148 5.105l1.347 2.916a10.382 10.382 0 0 0 2.413 3.045c2.078 1.791 4.552 2.408 7.359 1.834 2.253-1.763 3.385-4.047 3.367-6.79a10.347 10.347 0 0 0-.761-3.819l-1.347-2.913c-3.771 1.19-6.042.972-7.23.622zm3.682 6.478l.947 1.632-1.452.672-.63-1.776a1.33 1.33 0 1 1 1.135-.523v-.005zm167.323 77.643a7.446 7.446 0 1 0-.002-14.892 7.446 7.446 0 0 0 .002 14.892z" fill="#F2F3F5"/><path d="M259.063 119.807a1.576 1.576 0 0 0-2.027-.92 1.573 1.573 0 0 0-.919 2.026c.268.602.589 1.179.961 1.723a13.88 13.88 0 0 1 1.464 2.936v.015a.94.94 0 0 0 1.718.04.938.938 0 0 0 .043-.702v-.013a13.942 13.942 0 0 1-.832-3.174 11.055 11.055 0 0 0-.408-1.931zm1.268 9a1.15 1.15 0 1 0 0-2.3 1.15 1.15 0 0 0 0 2.3z" fill="#fff"/><path d="M103.732 77.391l-5.088 2.675a2.194 2.194 0 0 1-3.184-2.314l.972-5.666-4.116-4.007a2.195 2.195 0 0 1 1.215-3.743l5.69-.827 2.537-5.153a2.19 2.19 0 0 1 1.967-1.223 2.196 2.196 0 0 1 1.968 1.223l2.537 5.153 5.689.827a2.191 2.191 0 0 1 1.772 1.493 2.191 2.191 0 0 1-.554 2.25l-4.118 4.012.972 5.666a2.189 2.189 0 0 1-2.003 2.561 2.191 2.191 0 0 1-1.179-.247l-5.077-2.68zm23.002 53.613h-16.308v18.064h16.308v-18.064z" fill="#F2F3F5"/><path d="M115.236 123.189h-20.39v25.646h20.39v-25.646z" fill="#F2F3F5"/><path d="M103.369 112.679H89.665v36.389h13.704v-36.389zm38.13 27.996h-.97v8.396h.97v-8.396z" fill="#F2F3F5"/><path d="M143.47 144.775h-7.449v4.293h7.449v-4.293zm-55.937-27.866h-1.941v32.162h1.94v-32.162z" fill="#F2F3F5"/><path d="M91.205 126.622H76.88v22.449h14.324v-22.449z" fill="#F2F3F5"/><path d="M78.053 130.948H63.73v18.12h14.323v-18.12zm114.618 8.004h-30.048v10.116h30.048v-10.116z" fill="#F2F3F5"/><path d="M202.793 144.402h-64.826v4.666h64.826v-4.666z" fill="#F2F3F5"/><path d="M207.38 146.736h-6.683v2.335h6.683v-2.335zm-10.573-5.98h-1.852v8.312h1.852v-8.312zm12.903 8.312h6.683v-2.334h-6.683v2.334zm-67.112-2.372h4.783v-9.543a7.53 7.53 0 0 0-4.783 7.016v2.527zm5.166 0h4.78v-2.824a10.955 10.955 0 0 0-4.78-9.051v11.875zm14.267-5.94h-3.138v8.312h3.138v-8.312zm-22.072-.081h-15.126v8.396h15.126v-8.396zM98.548 97.579v51.489h14.633v-51.49H98.548zm13.222 4.466a18.81 18.81 0 0 1-2.537 9.434 3.89 3.89 0 0 1-3.369 1.942 3.895 3.895 0 0 1-3.368-1.942 18.81 18.81 0 0 1-2.537-9.434V99h11.811v3.045z" fill="#F2F3F5"/><path d="M113.181 115.361H98.548v.305h14.633v-.305zm0 .728H98.548v.305h14.633v-.305zm0 .729H98.548v.304h14.633v-.304zm0 .728H98.548v.304h14.633v-.304zm0 .725H98.548v.305h14.633v-.305zm0 .729H98.548v.304h14.633V119zm0 .728H98.548v.305h14.633v-.305zm0 .728H98.548v.305h14.633v-.305zm0 .729H98.548v.304h14.633v-.304zm0 .725H98.548v.305h14.633v-.305zm0 .728H98.548v.305h14.633v-.305zm0 .729H98.548v.304h14.633v-.304zm0 .728H98.548v.304h14.633v-.304zm0 .726H98.548v.304h14.633v-.304zm0 .728H98.548v.304h14.633v-.304zm0 .728H98.548v.305h14.633v-.305zm0 .728H98.548v.305h14.633v-.305zm0 1.454H98.548v.305h14.633v-.305zm0 .729H98.548v.304h14.633v-.304zm0 .728H98.548v.304h14.633v-.304zm0 .728H98.548v.305h14.633v-.305zm0 .728H98.548v.305h14.633v-.305zm0 .726H98.548v.304h14.633v-.304zm0 .728H98.548v.305h14.633v-.305zm0 .728H98.548v.305h14.633v-.305zm0 .729H98.548v.304h14.633v-.304zm0 .725H98.548v.305h14.633v-.305zm0 .729H98.548v.304h14.633v-.304zm0 .728H98.548v.304h14.633v-.304zm0 .728H98.548v.305h14.633v-.305zm0 .728H98.548v.305h14.633v-.305zm0 .726H98.548v.304h14.633v-.304zm0 .728H98.548v.305h14.633v-.305zm0 .729H98.548v.304h14.633v-.304zm0 1.456H98.548v.305h14.633v-.305zm0 .726H98.548v.304h14.633v-.304zm0 .728H98.548v.304h14.633v-.304zm0 .728H98.548v.305h14.633v-.305zm0 .728H98.548v.305h14.633v-.305zm0 .726H98.548v.305h14.633v-.305zm0 .728H98.548v.305h14.633v-.305zm0 .729H98.548v.304h14.633v-.304zm0 .728H98.548v.304h14.633v-.304zm0 .728H98.548v.305h14.633v-.305zm0 .726H98.548v.304h14.633v-.304z" fill="#fff"/><path d="M132.643 133.494h-14.174v15.574h14.174v-15.574zm4.892 4.608h-3.027v10.966h3.027v-10.966z" fill="#F2F3F5"/><path d="M138.132 135.98h-1.195v13.088h1.195V135.98zm-16.869-24.793c-4.245 15.29-4.618 31.971-4.618 31.971l4.618 2.185 4.615-2.185s-.373-16.681-4.615-31.971z" fill="#F2F3F5"/><path d="M121.263 123.359a1.994 1.994 0 1 0 0-3.989 1.994 1.994 0 0 0 0 3.989zm-36.727 7.285h-5.23v18.077h5.23v-18.077z" fill="#fff"/><path d="M83.283 136.237h-5.23v12.664h5.23v-12.664z" fill="#F2F3F5"/><path d="M81.836 142.567h.173v-12.664h-.173v12.664z" fill="#F2F3F5"/><path d="M88.253 134.671v-.173H75.59v.173h12.664zm-.002 1.652v-.173H75.587v.173H88.25zm.002 1.649v-.172H75.59v.172h12.664zm0 1.652v-.173H75.59v.173h12.664zm0 1.649v-.172H75.59v.172h12.664zm0 1.652v-.172H75.59v.172h12.664zm0 1.649v-.172H75.59v.172h12.664zm0 1.65v-.173H75.59v.173h12.664zm66.631-134.422s1.268-6.23 6.79-3.873c0 0 3.372-6.87 10.982-2.03 0 0 1.596-7.66 11.507-5.539 7.463 1.599 8.881 11.431 34.194 11.431l-63.473.01zM49.708 141.38c-3.644-12.312 12.065-19.653 20.982-10.657 5.282 5.328-20.624 1.179-15.707 16.493 1.269 3.928-4.72-3.954-5.275-5.836z" fill="#F2F3F5"/><path d="M50.786 145.219a.124.124 0 0 1-.085-.033.126.126 0 0 1-.042-.081 72.91 72.91 0 0 0-3.806-15.633c-2.73-7.346-7.884-16.539-16.925-18.625-4.427-1.015-7.147-.124-8.086 2.67-2.284 6.79 6.836 22.007 13.585 25.026a.127.127 0 0 1 .044.028.123.123 0 0 1 .038.093.129.129 0 0 1-.011.05.116.116 0 0 1-.03.041.13.13 0 0 1-.045.027.126.126 0 0 1-.05.006.122.122 0 0 1-.05-.014c-3.326-1.5-7.293-5.813-10.345-11.297-3.16-5.671-4.42-10.91-3.372-14.042 1.228-3.659 5.237-3.552 8.373-2.834 9.15 2.111 14.352 11.38 17.105 18.777a73.137 73.137 0 0 1 3.806 15.691.126.126 0 0 1-.111.14l.007.01z" fill="#676F7C"/><path d="M43.085 135.617a.123.123 0 0 1-.112-.066c-.086-.157-8.663-15.866-15.55-19.911a.126.126 0 0 1-.042-.172.13.13 0 0 1 .032-.038.118.118 0 0 1 .094-.024.127.127 0 0 1 .046.016c6.945 4.078 15.557 19.85 15.643 20.01a.126.126 0 0 1-.013.139.125.125 0 0 1-.098.046z" fill="#B3B9C3"/><path d="M53.207 144.937l2.623 3.317H45.762s-5.255-8.156-10.404-6.489c-5.148 1.668-4.777-4.448-4.777-4.448l10.657-2.116 7.477 4.753 4.492 4.983z" fill="#A8C5D6"/><path d="M36.414 131.25c8.374 2.771 14.97 9.597 19.926 17.001h-1.055s-14.765-19.766-20.74-4.76c-5.418 13.598-11.648 12.433-14.624 10.543-8.094-5.174-5.61-30.094 16.493-22.784z" fill="#519BC6"/><path d="M48.22 26.473s1.016-7.277 9.47-3.872c0 0 3.439-4.707 9.736-2.03 0 0 5.299-10.074 13.845 1.505 0 0 2.118 4.387 24.27 4.387l-57.32.01z" fill="#F2F3F5"/><path d="M118.685 17.325l-.551.604s.358 5.217.391 7.034h.563v-7.201l-.403-.437z" fill="#676F7C"/><path d="M119.324 18.693s-1.761 5.466-.211 8.399c1.551 2.933 2.188-8.148 2.188-8.148l-1.977-.25z" fill="#676F7C"/><path d="M115.584 141.098h-.934a2.122 2.122 0 0 0-1.631.761c-.561.675-1.454 1.589-2.363 1.876l3.504-1.046 1.424-1.591z" fill="#9AA2AF"/><path d="M120.664 133.983h-5.453v8.135h5.453v-8.135z" fill="#F2F3F5"/><path d="M120.664 140.507h-4.131a1.909 1.909 0 0 0-1.431.637c-1.576 1.776-4.836 2.685-6.805 3.113-1.015.219-2.456.96-2.748 3.022h15.115v-6.772z" fill="#B3B9C3"/><path d="M105.622 147.196h14.971a.479.479 0 0 1 .482.482v.845H105.14v-.845a.483.483 0 0 1 .482-.482z" fill="#9AA2AF"/><path d="M108.297 144.257c-1.015.219-2.456.959-2.748 3.022h4.476c-.741-2.77-1.728-3.022-1.728-3.022z" fill="#818B9B"/><path d="M120.664 142.806v-1.444l-8.12 2.157c.27.152.529.322.777.507l7.343-1.22zm-6.118 2.433l6.118-.578v-1.236l-6.745 1.132c.225.213.434.441.627.682zm.619.916h5.499v-.875l-5.699.538c.068.109.137.223.2.337zm27.105-5.057h.934a2.122 2.122 0 0 1 1.631.761c.561.675 1.454 1.589 2.363 1.876l-3.504-1.046-1.424-1.591z" fill="#9AA2AF"/><path d="M137.183 142.118h5.453v-8.135h-5.453v8.135z" fill="#F2F3F5"/><path d="M137.195 140.507h4.131a1.9 1.9 0 0 1 1.429.637c1.578 1.776 4.839 2.685 6.808 3.113 1.015.219 2.456.96 2.748 3.022h-15.116v-6.772z" fill="#B3B9C3"/><path d="M152.709 148.52h-15.93v-.845a.481.481 0 0 1 .482-.482h14.971a.483.483 0 0 1 .482.482v.845h-.005z" fill="#9AA2AF"/><path d="M149.553 144.257c1.015.219 2.456.959 2.748 3.022h-4.476c.736-2.77 1.728-3.022 1.728-3.022z" fill="#818B9B"/><path d="M137.195 142.806v-1.444l8.12 2.157a7.23 7.23 0 0 0-.776.507l-7.344-1.22zm6.108 2.433l-6.108-.578v-1.236l6.745 1.132c-.228.212-.441.44-.637.682zm-.622.916h-5.486v-.875l5.699.538a4.136 4.136 0 0 0-.213.337zm-22.017-.875v-5.301l-5.453-1.253v2.309l-.063.063h-.508a2.136 2.136 0 0 0-1.631.761c-.112.132-.236.274-.371.422l8.026 2.999z" fill="#9AA2AF"/><path d="M113.019 141.87l7.645 3.41 8.17-54.834 8.351 54.834 7.645-3.41-4.958-64.885-20.86-4.456-5.993 69.341z" fill="#676F7C"/><path d="M151.016 54.74l-8.703-13.72a13.516 13.516 0 0 0-7.298-5.633l-6.226-1.992-8.848 1.337-4.504 1.873a14.585 14.585 0 0 0-8.488 9.673l-3.57 13.235a22.31 22.31 0 0 0-.523 9.101l2.771 16.793 4.42-.254-.814-20.875 4.532-8.81 5.25 17.074-1.358 12.127 6.536-1.376a11.108 11.108 0 0 0 6.448-4.009l.304-.386 9.277 3.269-.862-29.86 10.867 9.568.789-7.135z" fill="#B3B9C3"/><path d="M126.17 34.735l5.006 12.524 2.31 13.334-.554 17.66-1.207.645L132.23 61l-2.322-12.976-5.177-12.966 1.439-.322zm-12.408 20.72l3.436-6.678-.005 17.83-3.431-11.152z" fill="#9AA2AF"/><path d="M111.979 87.873l-.406-.652a2.199 2.199 0 0 0-.729-.687 1.438 1.438 0 0 1-.611-.79l-.188-.603-2.385-1.437-2.215.962 1.281 5.237a.686.686 0 0 0 .792.655.605.605 0 0 1 .507.178.675.675 0 0 0 .66.18.573.573 0 0 1 .553.152.688.688 0 0 0 .815.12.623.623 0 0 1 .464-.021.625.625 0 0 0 .193.02.932.932 0 0 0 .624-.144.622.622 0 0 0 .194-.715.626.626 0 0 0-.143-.22.569.569 0 0 1-.117-.268l-.132-.838-.208 1.447c.312-.015.812-.967 1.106-1.586a1.035 1.035 0 0 0-.055-.99z" fill="#F2F3F5"/><path d="M110.045 85.14l-2.367-.472-2.053.739-.645-2.702 2.368-.703 2.644.505.053 2.633zm29.317-32.834c-.373-5.524-.888-8.429-.888-8.429l6.628 13.484-5.74-5.055z" fill="#9AA2AF"/><path d="M139.558 59.19a.127.127 0 0 1-.127-.127c0-.111-.018-11.248-1.49-17.107a.13.13 0 0 1 .094-.155.127.127 0 0 1 .152.092c1.48 5.889 1.498 17.059 1.498 17.17a.127.127 0 0 1-.038.09.125.125 0 0 1-.089.037zm-20.299 19.196a.118.118 0 0 1-.041 0 .131.131 0 0 1-.079-.162c1.429-3.977-5.425-22.53-5.493-22.718a.13.13 0 0 1-.006-.104.147.147 0 0 1 .029-.044.13.13 0 0 1 .097-.036.126.126 0 0 1 .092.048.14.14 0 0 1 .024.047c.286.761 6.957 18.83 5.496 22.893a.128.128 0 0 1-.119.076z" fill="#676F7C"/><path d="M110.184 62.54a.116.116 0 0 1-.058-.015.125.125 0 0 1-.063-.074.13.13 0 0 1 .007-.096l8.173-15.885a.128.128 0 0 1 .073-.064.128.128 0 0 1 .16.082.125.125 0 0 1-.007.096l-8.17 15.887a.13.13 0 0 1-.048.05.126.126 0 0 1-.067.019z" fill="#676F7C"/><path d="M130.375 16.98l1.093.33-.566 3.791-1.794-3.037 1.267-1.084z" fill="#34383E"/><path d="M128.484 31.675l.553 1.644-1.015 2.116h-2.316l-2.535.655-3.52-1.667V24.027h8.681l.152 7.648z" fill="#F2F3F5"/><path d="M123.63 28.21l.363 1.957s2.284 1.685 4.489 1.507l-.15-3.72-4.702.257z" fill="#9AA2AF"/><path d="M118.396 16.889l.86 4.956 1.715-.25.028-5.358-2.603.652z" fill="#676F7C"/><path d="M119.088 24.027a1.688 1.688 0 1 0 0-3.376 1.688 1.688 0 0 0 0 3.376z" fill="#F2F3F5"/><path d="M120.037 23.268a.129.129 0 0 1-.126-.11l-.11-.76a.966.966 0 0 0-1.098-.817.127.127 0 0 1-.094-.026.127.127 0 0 1 .058-.226 1.223 1.223 0 0 1 1.386 1.03l.109.762a.137.137 0 0 1-.002.05.145.145 0 0 1-.021.044.134.134 0 0 1-.037.034.124.124 0 0 1-.047.017l-.018.002z" fill="#676F7C"/><path d="M119.926 22.515l-1.198-.107a.125.125 0 0 1-.087-.044.122.122 0 0 1-.024-.044.138.138 0 0 1-.006-.05.135.135 0 0 1 .14-.117l1.197.11a.127.127 0 0 1 .087.045c.01.012.018.027.023.043a.136.136 0 0 1 .005.05.133.133 0 0 1-.045.085.128.128 0 0 1-.092.029z" fill="#676F7C"/><path d="M130.77 19.68c-.081-.53-.129-1.066-.19-1.598a5.12 5.12 0 0 0-10.17 0c-.061.532-.109 1.068-.19 1.598-.213 1.403-.569 3.887-.569 4.842a5.844 5.844 0 0 0 11.688 0c0-.954-.356-3.439-.569-4.842z" fill="#F2F3F5"/><path d="M127.578 24.659a.131.131 0 0 1-.104-.054.145.145 0 0 1-.02-.045.119.119 0 0 1-.001-.05.112.112 0 0 1 .017-.046.126.126 0 0 1 .035-.036l.632-.452a1.013 1.013 0 0 0 .4-1.066l-.893-3.745a.135.135 0 0 1 .017-.098.129.129 0 0 1 .179-.041c.03.018.05.047.058.08l.893 3.746a1.265 1.265 0 0 1-.507 1.33l-.632.451a.118.118 0 0 1-.074.026zm-.418 1.801c-2.862 0-3.644-2.79-3.654-2.834a.137.137 0 0 1-.003-.05.13.13 0 0 1 .144-.109.131.131 0 0 1 .047.016.123.123 0 0 1 .058.077c.033.122.84 2.994 3.959 2.61a.13.13 0 0 1 .094.026c.013.012.024.025.032.04.008.014.014.03.016.047a.126.126 0 0 1-.065.127.12.12 0 0 1-.047.015 4.688 4.688 0 0 1-.581.035zm-1.383-4.963a.72.72 0 1 0 0-1.44.72.72 0 0 0 0 1.44zm3.745 0a.72.72 0 1 0 0-1.442.72.72 0 0 0 0 1.442z" fill="#676F7C"/><path d="M126.008 19.49h-.86a.507.507 0 1 1 0-1.015h.86a.51.51 0 0 1 .507.507.508.508 0 0 1-.507.508zm3.654-.546h-.861a.507.507 0 0 1 0-1.015h.861a.506.506 0 0 1 .358.867.507.507 0 0 1-.358.148z" fill="#34383E"/><path d="M119.327 15.336c-2.614.916-.345 4.928-.345 4.928.598-1.015.944-2.852 2.623-2.492 1.241.297 2.188.053 3.454-1.312 0 0 4.425 4.195 8.152.693 1.508-1.418-3.552-2.507-4.377-3.593-4.072-5.339-3.818-.213-9.507 1.776z" fill="#676F7C"/><path d="M119.651 20.652l.34.254s2.231-.3 2.482-3.045c.251-2.745-3.146-1.543-3.146-1.543l.324 4.334z" fill="#676F7C"/><path d="M119.768 23.141h-.02a.132.132 0 0 1-.083-.05.13.13 0 0 1-.024-.094c.411-2.665.165-3.822.163-3.834a.133.133 0 0 1 .017-.098.126.126 0 0 1 .082-.057.127.127 0 0 1 .05-.001c.017.003.033.01.048.018.014.01.026.022.036.035.01.014.017.03.02.047 0 .048.254 1.208-.157 3.928a.12.12 0 0 1-.045.08.123.123 0 0 1-.087.026zm-.116 12.215a.127.127 0 0 1-.127-.127V24.028a.13.13 0 0 1 .127-.127c.033 0 .066.013.089.037a.127.127 0 0 1 .038.09V35.23a.127.127 0 0 1-.038.09.125.125 0 0 1-.089.036z" fill="#676F7C"/><path d="M131.027 67.016v34.8c0 .087.101 9.871 4.912 20.452 6.138 13.499 16.877 22.136 31.921 25.679h4.06c1.198-.48 6.069-3.431 7.199-3.989 9.259-4.583 16.186-11.842 20.664-21.69 4.821-10.581 4.91-20.365 4.913-20.464V67.016c-13.989-1.776-23.372-5.116-29.584-8.447-.875-.47-3.192-4.918-3.192-4.918h-4.06c-5.037 4.408-15.658 10.675-36.833 13.365z" fill="#A8C5D6"/><path d="M143.881 101.816h-12.854c0 .087.101 9.871 4.912 20.452l13.773-5.273-5.831-15.179zm15.027-33.088l5.582-6.85h-11.286c-5.643 2.095-12.898 3.96-22.177 5.14h6.09l21.791 1.71z" fill="#519BC6"/><path d="M135.087 67.016v34.8c0 .087.101 9.871 4.912 20.452 6.138 13.499 16.877 22.136 31.921 25.679 15.047-3.553 25.783-12.18 31.923-25.679 4.821-10.581 4.913-20.365 4.913-20.464V67.016c-21.175-2.69-31.802-8.957-36.836-13.365-5.037 4.408-15.658 10.675-36.833 13.365z" fill="#519BC6"/><path d="M171.92 148.074h-.028c-15.085-3.553-25.854-12.218-32.009-25.75-4.822-10.614-4.923-20.409-4.923-20.505V67.016c0-.031.011-.062.032-.085a.126.126 0 0 1 .08-.042c20.806-2.644 31.484-8.708 36.764-13.332a.125.125 0 0 1 .168 0c5.283 4.623 15.94 10.688 36.767 13.332a.128.128 0 0 1 .112.127v34.788c0 .099-.082 9.868-4.926 20.517-6.153 13.532-16.922 22.198-31.999 25.75l-.038.003zM135.214 67.13v34.686c0 .099.096 9.838 4.899 20.401 6.118 13.449 16.818 22.076 31.807 25.603 14.989-3.54 25.691-12.152 31.807-25.603 4.821-10.598 4.902-20.314 4.902-20.411V67.127c-20.703-2.646-31.38-8.677-36.709-13.306-5.326 4.629-16.006 10.66-36.706 13.306v.003z" fill="#fff"/><path d="M171.92 141.535h-.033c-5.956-1.586-11.129-4.119-15.372-7.531-4.555-3.667-8.208-8.478-10.858-14.304-4.103-9.023-4.346-17.566-4.354-17.924V72.491a.128.128 0 0 1 .104-.127c12.609-2.128 22.852-5.782 30.449-10.86a.134.134 0 0 1 .071-.02c.026 0 .05.007.071.02 7.592 5.075 17.836 8.732 30.449 10.86a.131.131 0 0 1 .107.127v29.259c0 .363-.254 8.907-4.357 17.94-2.646 5.836-6.3 10.637-10.857 14.303-4.243 3.413-9.414 5.946-15.372 7.531l-.048.011zm-30.363-68.937v29.18c0 .353.254 8.846 4.331 17.821 2.634 5.79 6.263 10.57 10.787 14.209 4.207 3.383 9.335 5.9 15.245 7.475 5.909-1.575 11.037-4.092 15.247-7.475 4.524-3.641 8.153-8.422 10.784-14.209 4.088-8.985 4.314-17.478 4.334-17.836V72.598c-12.555-2.131-22.771-5.778-30.365-10.835-7.592 5.057-17.808 8.704-30.363 10.835z" fill="#fff"/><g opacity=".32" fill="#A8C5D6"><path opacity=".7" d="M141.43 72.492c.493-.083.979-.168 1.459-.254l-5.526-5.53c-.746.107-1.507.21-2.284.31v13.748l6.344 6.31.007-14.584zm46.498 60.839l4.512 4.486a42.854 42.854 0 0 0 7.505-8.528l-4.59-4.59a36.983 36.983 0 0 1-7.427 8.632zm-21.045-68.766l-4.732-4.733a65.582 65.582 0 0 1-7.006 2.791l4.976 4.948a65.696 65.696 0 0 0 6.762-3.006zm35.524 37.185a44.08 44.08 0 0 1-.878 6.981l5.28 5.25a58.421 58.421 0 0 0 1.586-7.904l-5.988-5.983v1.656zm-1.043-29.433l-8.374-8.374c-7.721-2.136-13.194-4.77-17-7.237l12.646 12.566a104.54 104.54 0 0 0 12.728 3.044zm1.048 1.037v9.604l6.344 6.306v-9.566l-6.344-6.344zm-56.638 46.288a48.945 48.945 0 0 1-2.844-8.151l-7.737-7.736c.186 2.183.501 4.353.944 6.498l9.805 9.746c-.056-.119-.119-.233-.168-.357zm26.146 21.766a46.358 46.358 0 0 1-6.851-2.401l8.559 8.508a51.626 51.626 0 0 0 4.075-1.268l-5.052-5.055-.731.216z"/><path opacity=".7" d="M141.43 72.492v11.301l48.226 47.975a38.258 38.258 0 0 0 6.92-9.134L145.655 71.7c-1.36.28-2.768.543-4.225.792zm21.041-5.865l39.543 39.308c.206-1.387.338-2.784.393-4.185v-4.955l-33.385-33.393a60.23 60.23 0 0 1-6.551 3.225zm30.771 3.936l9.165 9.112V72.49c-3.299-.56-6.344-1.21-9.165-1.928zm-49.407 44.065l26.478 26.32c.531.16 1.064.315 1.607.46a47.792 47.792 0 0 0 3.242-.985l-33.12-33.121a52.821 52.821 0 0 0 1.793 7.326z"/></g><path d="M171.92 148.074h-.028c-15.085-3.553-25.854-12.218-32.009-25.75-4.822-10.614-4.923-20.409-4.923-20.505V67.016c0-.031.011-.062.032-.085a.126.126 0 0 1 .08-.042c20.806-2.644 31.484-8.708 36.764-13.332a.125.125 0 0 1 .168 0c5.283 4.623 15.94 10.688 36.767 13.332a.128.128 0 0 1 .112.127v34.788c0 .099-.082 9.868-4.926 20.517-6.153 13.532-16.922 22.198-31.999 25.75l-.038.003zM135.214 67.13v34.686c0 .099.096 9.838 4.899 20.401 6.118 13.449 16.818 22.076 31.807 25.603 14.989-3.54 25.691-12.152 31.807-25.603 4.821-10.598 4.902-20.314 4.902-20.411V67.127c-20.703-2.646-31.38-8.677-36.709-13.306-5.326 4.629-16.006 10.66-36.706 13.306v.003z" fill="#fff"/><path d="M157.043 87.7a.756.756 0 0 0-.166.465.756.756 0 0 0 .153.47c.071.09 1.792 2.298 5.499 2.298 1.847 0 3.367-.847 4.821-1.67 1.454-.821 2.86-1.588 4.552-1.588 1.692 0 3.022.815 4.453 1.678 1.482.895 3.012 1.814 4.941 1.814 3.856 0 5.47-2.484 5.531-2.586a.741.741 0 0 0-.048-.88 19.133 19.133 0 0 0-29.749 0h.013zm-3.063 5.17a19.152 19.152 0 0 0-1.214 8.361 19.148 19.148 0 0 0 8.242 14.274 19.134 19.134 0 0 0 7.849 3.129.766.766 0 0 0 .812-.451c.046-.109 1.099-2.713-.761-5.923-.924-1.593-2.418-2.486-3.86-3.347-1.441-.86-2.808-1.677-3.656-3.146-.837-1.446-.807-3.025-.761-4.697.033-1.73.066-3.522-.898-5.186-1.926-3.347-4.89-3.497-5.012-3.502a.762.762 0 0 0-.741.487zm35.083-.442c-.117.018-2.893.406-4.753 3.616-.916 1.603-.944 3.339-.967 5.024-.022 1.685-.05 3.271-.9 4.732-.85 1.462-2.213 2.213-3.677 3.017-1.522.835-3.083 1.7-4.045 3.372a7.263 7.263 0 0 0-1.037 3.657 5.51 5.51 0 0 0 .507 2.438.749.749 0 0 0 .787.391 19.15 19.15 0 0 0 13.578-9.339 19.165 19.165 0 0 0 1.301-16.429.76.76 0 0 0-.794-.48z" fill="#fff"/><path d="M149.712 52.717l-8.683 17.658 4.06.916 6.136-8.244a6.6 6.6 0 0 0 .291-7.442l-1.804-2.888z" fill="#B3B9C3"/><path d="M120.621 16.762s1.865.921 1.507 2.464c-.203.886 2.38-1.814-1.507-2.464z" fill="#F2F3F5"/><path d="M126.388 12.687s5.781-1.794 5.075 2.601c-.705 4.395-5.224-1.276-5.075-2.6z" fill="#676F7C"/><path d="M125.523 19.703s-1.931-.183-2.108 1.495c-.178 1.677 1.048 2.6 2.649 1.811 1.223-.604 2.301-2.613.393-3.194a3.719 3.719 0 0 0-.934-.112zm5.222 0s1.931-.183 2.111 1.495c.18 1.677-1.05 2.6-2.651 1.811-1.223-.604-2.302-2.613-.391-3.194.304-.077.617-.114.931-.112z" fill="#519BC6"/><g opacity=".32"><path opacity=".32" d="M123.414 21.198a2.924 2.924 0 0 0-.012.439l1.659 1.651a2.598 2.598 0 0 0 1.276-.439l-2.552-2.55a1.578 1.578 0 0 0-.371.899zm9.449.142l-1.621-1.622a2.78 2.78 0 0 0-.507-.015 3.709 3.709 0 0 0-.932.112 1.575 1.575 0 0 0-.829.525l2.892 2.86c.655-.239 1.053-.919.997-1.86zm-7.51-1.642c-.258 0-.514.038-.761.112l2.426 2.41c.129-.168.239-.35.327-.543l-1.992-1.979z" fill="#A8C5D6"/></g><path d="M124.957 23.42a1.656 1.656 0 0 1-.956-.284c-.546-.383-.807-1.093-.716-1.951.185-1.728 2.101-1.622 2.241-1.609.325-.003.649.037.964.12.873.253 1.093.788 1.126 1.184.071.893-.72 1.86-1.497 2.243-.36.186-.757.288-1.162.297zm.386-3.598c-.454 0-1.667.122-1.804 1.388-.081.761.142 1.39.609 1.718.467.327 1.149.317 1.86-.033.71-.35 1.418-1.23 1.357-1.994-.038-.46-.355-.784-.946-.965a3.497 3.497 0 0 0-.893-.106h-.003c-.06-.007-.12-.01-.18-.008zm5.968 3.598a2.657 2.657 0 0 1-1.162-.297c-.779-.385-1.568-1.377-1.497-2.243.033-.395.254-.92 1.124-1.185.315-.08.639-.12.964-.119.142 0 2.058-.117 2.243 1.609.092.858-.17 1.568-.718 1.951a1.65 1.65 0 0 1-.954.284zm-.583-3.59a3.507 3.507 0 0 0-.878.106c-.589.18-.909.508-.944.965-.064.76.649 1.646 1.355 1.994.705.348 1.388.363 1.86.033.472-.33.69-.954.609-1.718-.165-1.522-1.898-1.388-1.972-1.38h-.03z" fill="#6E9FBB"/><path d="M128.789 20.883a.129.129 0 0 1-.127-.112c0-.023-.079-.586-.528-.586s-.525.563-.528.586a.132.132 0 0 1-.015.048.129.129 0 0 1-.127.064.12.12 0 0 1-.047-.016.12.12 0 0 1-.038-.032.145.145 0 0 1-.023-.044.139.139 0 0 1-.004-.05c.033-.28.239-.81.779-.81.541 0 .746.53.779.81a.122.122 0 0 1-.025.093.124.124 0 0 1-.084.049h-.012z" fill="#6E9FBB"/><path d="M126.65 20.005a.135.135 0 0 1-.093-.03.127.127 0 0 1 .075-.224 8.472 8.472 0 0 1 3.007 0 .126.126 0 0 1 .083.05.125.125 0 0 1 .023.095.126.126 0 0 1-.05.082.13.13 0 0 1-.094.024 8.222 8.222 0 0 0-2.934 0l-.017.003z" fill="#6E9FBB"/><path d="M118.685 35.255l.967-2.522s2.537 2.943 6.054 2.702c0 0-1.713 1.776-1.428 4.877a11.866 11.866 0 0 1-5.593-5.057zm10.695-2.06l-.898-1.523s.893 1.908-2.776 3.76c0 0 2.385 1.523 3.129 3.46 0 .002 1.842-2.86.545-5.697z" fill="#9AA2AF"/><path d="M142.869 80.87c-.114.071-.241.12-.373.145l-1.748-4.748c-.023-.076 1.205-.36 1.208-.36l1.329 3.646a1.098 1.098 0 0 1-.416 1.317zm1.37-1.611a1.121 1.121 0 0 1-.401 0l.071-5.06c0-.078 1.256.097 1.256.097l-.078 3.874a1.092 1.092 0 0 1-.848 1.089z" fill="#F2F3F5"/><path d="M144.554 80.893a1.078 1.078 0 0 1-.345.2l-2.439-4.433c-.033-.073 1.137-.537 1.14-.535l1.847 3.405a1.102 1.102 0 0 1-.203 1.363z" fill="#F2F3F5"/><path d="M146.838 80.977c-.073.112-.166.21-.274.289l-3.596-3.553c-.051-.058.939-.837.942-.834l2.735 2.743a1.097 1.097 0 0 1 .193 1.355z" fill="#F2F3F5"/><path d="M148.106 77.83c.024.132.024.267 0 .399l-3.116-.076.218-1.239 1.835.064a1.093 1.093 0 0 1 1.063.852zm-8.226.46a1.092 1.092 0 0 1-.388-.092l.779-3.024 1.159.487-.469 1.776a1.096 1.096 0 0 1-1.081.853z" fill="#F2F3F5"/><path d="M111.39 90.238a.13.13 0 0 1-.066-.019.133.133 0 0 1-.046-.05l-.538-1.014a1.633 1.633 0 0 1-.122-1.251l.069-.224a.122.122 0 0 1 .023-.043.118.118 0 0 1 .038-.032.126.126 0 0 1 .141.013.128.128 0 0 1 .047.086.121.121 0 0 1-.006.05l-.068.223a1.386 1.386 0 0 0 .101 1.058l.538 1.015a.132.132 0 0 1 .011.097.141.141 0 0 1-.023.044.143.143 0 0 1-.038.032.136.136 0 0 1-.061.015zm-.673 1.076h-.033a2.888 2.888 0 0 1-1.149-.665.115.115 0 0 1-.028-.04.116.116 0 0 1-.01-.049c0-.016.003-.033.01-.048a.128.128 0 0 1 .206-.04 2.7 2.7 0 0 0 1.037.6c.017.005.032.012.045.022a.128.128 0 0 1 .05.083.135.135 0 0 1-.003.048.124.124 0 0 1-.048.065.125.125 0 0 1-.077.024z" fill="#676F7C"/><path d="M142.978 70.462l-1.949-.087-.832 3.36a3.1 3.1 0 0 0 .274 2.205l.558 1.045 5.405.581-.254-2.08a2.53 2.53 0 0 0-.761-1.523 1.003 1.003 0 0 1-.314-.728V71.3l-2.127-.84z" fill="#F2F3F5"/><path d="M145.102 71.7l-2.126-1.238-1.947-.087 1.061-2.156h1.748l2.462 1.497-1.198 1.984z" fill="#9AA2AF"/><path d="M146.18 60.025a.13.13 0 0 1-.073-.023.128.128 0 0 1-.05-.083.127.127 0 0 1 .022-.094c0-.015 1.065-1.523.586-2.969a.125.125 0 0 1 .081-.16.128.128 0 0 1 .16.081c.52 1.584-.576 3.131-.622 3.197a.128.128 0 0 1-.104.051zm-.418 20.563a.131.131 0 0 1-.092-.038l-2.489-2.466a.135.135 0 0 1-.028-.041.134.134 0 0 1 0-.098.135.135 0 0 1 .069-.069.121.121 0 0 1 .096 0 .133.133 0 0 1 .041.028l2.491 2.466a.128.128 0 0 1 0 .18.125.125 0 0 1-.088.038zm-2.145-.459a.123.123 0 0 1-.063-.018.123.123 0 0 1-.046-.048l-1.839-3.342a.13.13 0 0 1 .05-.172.13.13 0 0 1 .097-.01.127.127 0 0 1 .076.06l1.837 3.342a.12.12 0 0 1 .011.097.11.11 0 0 1-.023.045.128.128 0 0 1-.039.03.118.118 0 0 1-.061.016zm-2.144-1.773a.131.131 0 0 1-.119-.079l-1.202-3.058a.127.127 0 1 1 .238-.091l1.2 3.045a.135.135 0 0 1 .009.049.116.116 0 0 1-.01.048.124.124 0 0 1-.07.068.14.14 0 0 1-.046.017z" fill="#676F7C"/><path d="M143.115 24.235a3.816 3.816 0 1 0 0-7.632 3.816 3.816 0 0 0 0 7.632zm-40.507 15.16l-1.941 1.016a.84.84 0 0 1-1.166-.426.837.837 0 0 1-.05-.457l.37-2.162-1.57-1.523a.837.837 0 0 1 .465-1.428l2.172-.315.969-1.969a.835.835 0 0 1 1.193-.34c.133.082.24.2.309.34l.972 1.97 2.169.314a.84.84 0 0 1 .693 1.03.832.832 0 0 1-.228.398l-1.571 1.523.37 2.162a.832.832 0 0 1-.333.82.836.836 0 0 1-.882.063l-1.941-1.015zm49.692-1.154l-1.931 1.015a.83.83 0 0 1-1.158-.423.832.832 0 0 1-.05-.455l.368-2.149-1.563-1.522a.84.84 0 0 1-.208-.854.838.838 0 0 1 .67-.567l2.16-.315.966-1.956a.832.832 0 0 1 1.492 0l.967 1.956 2.159.315a.832.832 0 0 1 .462 1.42l-1.563 1.523.368 2.15a.827.827 0 0 1-.76.972.835.835 0 0 1-.448-.095l-1.931-1.015zm-44.788-17.323a1.515 1.515 0 1 0 0-3.03 1.515 1.515 0 0 0 0 3.03zm57.169 14.035a1.23 1.23 0 1 0 0-2.46 1.23 1.23 0 0 0 0 2.46z" fill="#F2F3F5"/><path d="M235.203 121.312a.149.149 0 0 1-.067-.02.138.138 0 0 1-.047-.052c-6.519-13.126-17.957-22.478-26.404-28.013a.128.128 0 0 1 .093-.232c.017.004.032.01.046.02 8.475 5.551 19.949 14.934 26.493 28.111a.126.126 0 0 1-.055.17.133.133 0 0 1-.059.016z" fill="#B3B9C3"/><path d="M208.75 93.248a.146.146 0 0 1-.071-.02 99.708 99.708 0 0 0-9.183-5.35.129.129 0 0 1-.051-.074.129.129 0 0 1 .168-.154 100.77 100.77 0 0 1 9.206 5.364.127.127 0 0 1-.069.234zm-13.795-7.531a.127.127 0 0 1-.079-.226 92.573 92.573 0 0 1 13.819-8.86.132.132 0 0 1 .097-.008c.032.01.059.031.075.06a.129.129 0 0 1-.053.172 91.964 91.964 0 0 0-13.781 8.836.136.136 0 0 1-.078.026z" fill="#fff"/><path d="M208.75 76.884a.125.125 0 0 1-.128-.096.119.119 0 0 1 .008-.085.123.123 0 0 1 .06-.06c34.681-18.16 51.839-40.909 52.017-41.134a.132.132 0 0 1 .035-.04.13.13 0 0 1 .15.001c.014.01.026.024.035.04a.147.147 0 0 1 .016.05.155.155 0 0 1-.006.053.133.133 0 0 1-.027.045c-.17.229-17.364 23.022-52.094 41.21a.116.116 0 0 1-.066.016zm23.038 50.578a.123.123 0 0 1-.08-.029.12.12 0 0 1-.044-.072c-.026-.127-2.675-12.802-9.506-20.115a.13.13 0 0 1-.034-.091c0-.016.004-.033.011-.048a.125.125 0 0 1 .028-.041.145.145 0 0 1 .043-.026.115.115 0 0 1 .049-.008c.016 0 .033.004.048.011a.125.125 0 0 1 .041.028c6.881 7.359 9.543 20.109 9.568 20.239a.102.102 0 0 1 0 .049.123.123 0 0 1-.053.081.126.126 0 0 1-.046.02l-.025.002zm9.619-6.15a.13.13 0 0 1-.066-.02.123.123 0 0 1-.046-.052c-2.895-5.633-9.895-12.298-15.27-16.901-5.821-4.989-11.022-8.69-11.073-8.727a.129.129 0 0 1-.051-.132.129.129 0 0 1 .198-.076c.051.038 5.263 3.746 11.091 8.742 5.397 4.615 12.418 11.307 15.331 16.98a.126.126 0 0 1-.056.17.115.115 0 0 1-.058.016z" fill="#B3B9C3"/><path d="M194.259 85.448h-.023a.126.126 0 0 1-.101-.147c.406-2.31-.906-2.617-.919-2.62a.132.132 0 0 1-.079-.056.13.13 0 0 1-.02-.095.147.147 0 0 1 .02-.046.135.135 0 0 1 .036-.034.132.132 0 0 1 .097-.017c.015 0 1.563.363 1.114 2.91a.124.124 0 0 1-.125.105zm.696-.883h-.031a.129.129 0 0 1-.094-.153c.28-1.322.28-2.689 0-4.011a.132.132 0 0 1 .017-.095.128.128 0 0 1 .077-.057.128.128 0 0 1 .153.093 9.784 9.784 0 0 1 0 4.131.13.13 0 0 1-.046.067.124.124 0 0 1-.076.025zm1.073 1.454a.124.124 0 0 1-.122-.088.126.126 0 0 1 .001-.08.123.123 0 0 1 .047-.063c.056-.038 1.35-.94 3.299-.313a.124.124 0 0 1 .073.062.13.13 0 0 1 .014.047.133.133 0 0 1-.068.124.13.13 0 0 1-.098.008c-1.822-.583-3.063.27-3.075.277a.115.115 0 0 1-.071.026z" fill="#fff"/><path d="M233.973 130.438c.012.092.034.182.066.269a1.202 1.202 0 0 0 .822.731c.19 1.127.355 2.37.441 3.641l1.746-.548-.287-2.367c-.052-.362.03-.73.231-1.035.117.667.282 1.611.632 3.225l2.03-.637-1.373-3.601c.124-.051.251-.094.381-.129l1.398 3.603 2.093-.657a71.797 71.797 0 0 0-1.776-2.944c.379.116.707.359.929.688l1.464 2.07 1.928-.606a40.783 40.783 0 0 1-2.322-3.24 1.146 1.146 0 0 0 .023-1.388c3.088-.962 3.411-3.822 1.756-7.374-2.283-4.93-7.866-5.889-11.195-4.39-3.172 1.436-5.975 5.854-4.496 10.541 1.058 3.339 2.918 5.148 5.509 4.148zm3.864-6.206c-1.236-1.175-1.862-1.548-1.687-2.099.436-1.362 4.501-1.268 5.351 1.168.865 2.469-1.363 3.123-3.664.931zm-1.406 1.697a.52.52 0 0 1 .316-.357.51.51 0 0 1 .473.063c.554.348 1.269.893 1.015 1.248-.388.556-.636.066-.926.173-.289.107-.144.629-.804.457-.411-.112-.249-.97-.074-1.584zm-4.458.972c-.929-2.225 1.72-4.95 2.918-4.265.492.284.284.982.168 2.656-.211 3.04-2.139 3.878-3.086 1.609z" fill="#519BC6"/><path d="M219.23 106.064a.132.132 0 0 1-.119-.084c-1.322-3.641-6.09-6.863-6.128-6.896a.126.126 0 0 1-.026-.17.126.126 0 0 1 .165-.041c.051.033 4.877 3.299 6.227 7.021a.125.125 0 0 1-.076.162.106.106 0 0 1-.043.008zm26.534 10.992a.552.552 0 0 0 .319.175.598.598 0 0 0 .249-.007c.34.347.698.74 1.03 1.157l.533-.531-.675-.761a.57.57 0 0 1-.162-.408c.203.208.494.507 1.015.994l.636-.637-1.408-.989a1.95 1.95 0 0 1 .114-.127l1.426.984.686-.682a34.93 34.93 0 0 0-1.437-.678.901.901 0 0 1 .536.041l1.104.431.657-.657a20.784 20.784 0 0 1-1.776-.67.483.483 0 0 0-.216-.459.787.787 0 0 0-.122-.064c1.04-1.113.444-2.306-1.165-3.263-2.22-1.319-4.582-.205-5.371 1.178-.721 1.268-.551 3.395 1.076 4.674 1.179.906 2.26 1.154 2.951.299zm-.087-3.045c-.761-.142-1.083-.132-1.157-.373-.182-.601 1.391-1.555 2.347-.847.957.708.249 1.499-1.19 1.23v-.01zm-.106.931a.204.204 0 0 1-.007-.104.216.216 0 0 1 .23-.177c.297 0 .705.035.698.221 0 .286-.226.167-.31.268-.083.102.099.254-.19.34-.195.061-.335-.279-.421-.545v-.003zm-1.381 1.297c-.867-.573-.609-2.106 0-2.131.254 0 .348.289.721.911.662 1.126.165 1.814-.721 1.23v-.01z" fill="#B3B9C3"/><path d="M247.451 131.575l-3.024-.951-.051-.381a1.585 1.585 0 0 1 .216-1.033c.507-.827 1.908-2.403 5.617-3.783 5.329-1.979 10.442 5.159 10.122 9.305-.32 4.146-7.967-3.535-7.967-3.535l-4.913.378zm1.307 2.124s-.761 1.842.18 2.198c.941.355 2.773.571 2.773.571l-3.775 1.172-1.269-2.083 2.091-1.858z" fill="#818B9B"/><path d="M253.886 127.292c-2.57-.393-4.425 1.089-6.161 2.137-3.133 1.893-3.321.492-3.346.38 0 0-.604 2.951 1.471 11.672.366 1.523 5.075-2.098 4.281.102-.482 1.322.984.873 1.416.901 0 0-.591.728-.315 1.174.277.447 1.03.102 1.269.356.238.253 1.662 2.672 1.662 2.672s.743 1.522 1.959.784c.632-.389 3.948-3.225 5.582-7.011 1.54-7.445-4.336-12.634-7.818-13.167zm-6.249 9.135c.403-3.154 4.184-2.309 4.184-2.309-1.754 3.364-4.184 2.314-4.184 2.314v-.005z" fill="#D1D5DB"/><path d="M254.84 136.041a4.265 4.265 0 0 1-.946 3.134l-.569.693a2.04 2.04 0 0 1-1.469.761c-.246.013-.489.06-.723.139a.584.584 0 0 0 .272 1.127 3.99 3.99 0 0 0 2.626-1.489l.195-.254a4.198 4.198 0 0 0 .614-4.121v.01zm-2.093 8.338a1.42 1.42 0 0 0 .507 1.677l.886.614-1.393-2.291zm5.46-10.517a.561.561 0 1 0 0-1.123.561.561 0 0 0 0 1.123z" fill="#818B9B"/><path d="M259.474 133.722a2.62 2.62 0 0 1-1.333-.305.13.13 0 0 1-.043-.175.129.129 0 0 1 .077-.058.124.124 0 0 1 .096.013c1.19.7 3.534-.023 5.328-1.051 1.845-1.053 3.045-2.344 3.045-3.298 0-.434-.253-.797-.741-1.081-2.164-1.249-7.307 1.451-7.358 1.479a.116.116 0 0 1-.047.014.126.126 0 0 1-.138-.114.116.116 0 0 1 .005-.049.1.1 0 0 1 .023-.043.104.104 0 0 1 .038-.031c.218-.115 5.328-2.792 7.612-1.477.576.332.868.761.868 1.302 0 1.256-1.64 2.636-3.17 3.509-1.339.766-2.968 1.365-4.262 1.365z" fill="#B3B9C3"/><path d="M263.711 135.559l-1.167 8.612a1.347 1.347 0 0 0 .533 1.273 1.357 1.357 0 0 0 1.372.146l8.45-3.86c.22-.101.41-.259.548-.459a1.35 1.35 0 0 0 .104-1.375 1.365 1.365 0 0 0-.475-.536l-7.277-4.755a1.35 1.35 0 0 0-1.308-.101 1.36 1.36 0 0 0-.78 1.055z" fill="#F2F3F5"/><path d="M266.667 136.409a1.184 1.184 0 0 0-.663-.66 1.185 1.185 0 0 0-1.321.305 1.2 1.2 0 0 0-.306.885c.011.16.055.317.128.46.234.439.506.856.815 1.246.506.66.931 1.378 1.268 2.139a.715.715 0 0 0 .934.332.71.71 0 0 0 .358-.924 10.547 10.547 0 0 1-.794-2.352 8.179 8.179 0 0 0-.419-1.431zm1.368 6.722a.868.868 0 1 0-.001-1.737.868.868 0 0 0 .001 1.737z" fill="#fff"/><path d="M224.884 64.63a.13.13 0 0 1-.075-.025.13.13 0 0 1-.045-.064.124.124 0 0 1 .049-.141c11.578-7.818 17.701-18.942 20.806-26.897 3.36-8.627 3.987-15.478 3.992-15.552a.132.132 0 0 1 .013-.048.13.13 0 0 1 .124-.069.13.13 0 0 1 .117.137c0 .069-.635 6.963-4.005 15.618-3.11 7.99-9.261 19.163-20.898 27.021a.142.142 0 0 1-.078.02zm21.77-9.451a.127.127 0 0 1-.116-.175.13.13 0 0 1 .053-.061 134.344 134.344 0 0 0 16.427-11.256c7.973-6.367 18.396-16.303 22.781-27.496a.122.122 0 0 1 .027-.042.122.122 0 0 1 .089-.04.127.127 0 0 1 .119.076c.014.03.015.066.004.098-4.408 11.245-14.867 21.22-22.865 27.614-5.2 4.16-10.701 7.93-16.458 11.276a.133.133 0 0 1-.061.006z" fill="#B3B9C3"/><path d="M196.028 88.416a.132.132 0 0 1-.125-.132 1.634 1.634 0 0 0-.789-1.44.129.129 0 0 1-.055-.077.127.127 0 0 1 .18-.144 1.887 1.887 0 0 1 .918 1.67.128.128 0 0 1-.129.123z" fill="#fff"/></g><defs><clipPath id="clip0_8179_31409"><path fill="#fff" transform="translate(.429)" d="M0 0H295.571V155.171H0z"/></clipPath></defs></svg>