<svg width="17" height="18" viewBox="0 0 17 18" fill="none" xmlns="http://www.w3.org/2000/svg">
<path d="M16.5083 8.84168L13.8 6.73335L16.5167 4.60002C16.6242 4.51567 16.7093 4.40619 16.7645 4.28122C16.8197 4.15625 16.8433 4.01961 16.8333 3.88335C16.8201 3.7476 16.7755 3.61677 16.7033 3.50111C16.631 3.38544 16.5329 3.28809 16.4167 3.21668L12.1333 0.775016C11.9829 0.690389 11.8099 0.654557 11.6383 0.67247C11.4666 0.690383 11.3047 0.761156 11.175 0.875016L8.5 3.20835L5.825 0.875016C5.69529 0.761156 5.53342 0.690383 5.36175 0.67247C5.19009 0.654557 5.0171 0.690389 4.86667 0.775016L0.583336 3.21668C0.467129 3.28809 0.369038 3.38544 0.296749 3.50111C0.22446 3.61677 0.179937 3.7476 0.166669 3.88335C0.156657 4.01961 0.180302 4.15625 0.235523 4.28122C0.290744 4.40619 0.375847 4.51567 0.483336 4.60002L3.2 6.73335L0.49167 8.80835C0.382657 8.89179 0.295948 9.00088 0.239249 9.1259C0.18255 9.25093 0.157619 9.38803 0.166669 9.52502C0.175903 9.66184 0.218763 9.79428 0.291446 9.91057C0.36413 10.0269 0.464391 10.1234 0.583336 10.1917L3.425 11.8583V13.9167C3.4256 14.0591 3.46268 14.199 3.5327 14.323C3.60273 14.447 3.70336 14.551 3.825 14.625L8.06667 17.2333C8.19335 17.3065 8.33706 17.345 8.48334 17.345C8.62962 17.345 8.77332 17.3065 8.9 17.2333L13.1417 14.625C13.2633 14.551 13.3639 14.447 13.434 14.323C13.504 14.199 13.5411 14.0591 13.5417 13.9167V11.85L16.3833 10.225C16.5023 10.1568 16.6025 10.0602 16.6752 9.9439C16.7479 9.82761 16.7908 9.69518 16.8 9.55835C16.813 9.42421 16.7932 9.28893 16.7424 9.16411C16.6916 9.03929 16.6113 8.92865 16.5083 8.84168ZM11.8333 2.51668L14.525 4.05002L12.4 5.71668L9.9 4.18335L11.8333 2.51668ZM10.925 6.78335L8.5 8.45002L6.075 6.78335L8.5 5.29168L10.925 6.78335ZM2.49167 4.05002L5.16667 2.51668L7.09167 4.18335L4.59167 5.71668L2.49167 4.05002ZM2.49167 9.37502L4.575 7.77502L7.075 9.50835L5.225 10.95L2.49167 9.37502ZM11.9 13.425L8.5 15.525L5.09167 13.425V12.7583C5.21342 12.7882 5.34034 12.7903 5.46298 12.7643C5.58562 12.7383 5.70082 12.685 5.8 12.6083L8.5 10.525L11.2 12.6083C11.3455 12.7212 11.5242 12.7828 11.7083 12.7833C11.7748 12.7914 11.8419 12.7914 11.9083 12.7833L11.9 13.425ZM11.775 10.925L9.91667 9.50835L12.4167 7.77502L14.5083 9.39168L11.775 10.925Z" fill="#455560"/>
</svg>
