<svg width="15" height="18" viewBox="0 0 15 18" fill="none" xmlns="http://www.w3.org/2000/svg">
<path d="M14.1666 5.66643L9.16662 1.28309C8.70827 0.873132 8.1149 0.646484 7.49996 0.646484C6.88501 0.646484 6.29164 0.873132 5.83329 1.28309L0.83329 5.66643C0.568597 5.90316 0.357374 6.19356 0.213683 6.5183C0.0699934 6.84304 -0.00286587 7.19466 -4.30752e-05 7.54976V14.8331C-4.30752e-05 15.4961 0.263349 16.132 0.73219 16.6009C1.20103 17.0697 1.83692 17.3331 2.49996 17.3331H12.5C13.163 17.3331 13.7989 17.0697 14.2677 16.6009C14.7366 16.132 15 15.4961 15 14.8331V7.54143C15.0016 7.18773 14.9282 6.83771 14.7845 6.5145C14.6409 6.19128 14.4303 5.90222 14.1666 5.66643ZM9.16662 15.6664H5.83329V11.4998C5.83329 11.2787 5.92109 11.0668 6.07737 10.9105C6.23365 10.7542 6.44561 10.6664 6.66662 10.6664H8.33329C8.5543 10.6664 8.76626 10.7542 8.92255 10.9105C9.07883 11.0668 9.16662 11.2787 9.16662 11.4998V15.6664ZM13.3333 14.8331C13.3333 15.0541 13.2455 15.2661 13.0892 15.4223C12.9329 15.5786 12.721 15.6664 12.5 15.6664H10.8333V11.4998C10.8333 10.8367 10.5699 10.2008 10.1011 9.73199C9.63222 9.26315 8.99633 8.99976 8.33329 8.99976H6.66662C6.00358 8.99976 5.3677 9.26315 4.89886 9.73199C4.43002 10.2008 4.16662 10.8367 4.16662 11.4998V15.6664H2.49996C2.27894 15.6664 2.06698 15.5786 1.9107 15.4223C1.75442 15.2661 1.66662 15.0541 1.66662 14.8331V7.54143C1.66677 7.42311 1.69212 7.30617 1.74097 7.19841C1.78982 7.09065 1.86107 6.99452 1.94996 6.91643L6.94996 2.54143C7.10203 2.40783 7.29753 2.33415 7.49996 2.33415C7.70238 2.33415 7.89788 2.40783 8.04996 2.54143L13.05 6.91643C13.1388 6.99452 13.2101 7.09065 13.2589 7.19841C13.3078 7.30617 13.3331 7.42311 13.3333 7.54143V14.8331Z"/>
</svg>
