<svg width="17" height="18" viewBox="0 0 17 18" fill="none" xmlns="http://www.w3.org/2000/svg">
<path d="M16.5917 2.93334L14.5667 0.908343C14.4106 0.753134 14.1994 0.666016 13.9792 0.666016C13.759 0.666016 13.5478 0.753134 13.3917 0.908343L8.7417 5.55834C8.66447 5.63621 8.60336 5.72856 8.56189 5.83009C8.52042 5.93162 8.4994 6.04034 8.50003 6.15001V8.16668C8.50003 8.38769 8.58783 8.59965 8.74411 8.75593C8.90039 8.91221 9.11235 9.00001 9.33337 9.00001H11.35C11.4597 9.00064 11.5684 8.97962 11.67 8.93815C11.7715 8.89668 11.8638 8.83558 11.9417 8.75834L16.5917 4.10834C16.7469 3.95221 16.834 3.741 16.834 3.52084C16.834 3.30069 16.7469 3.08948 16.5917 2.93334ZM11 7.33334H10.1667V6.50001L13.9834 2.68334L14.8167 3.51668L11 7.33334ZM14.3334 9.00001C14.1124 9.00001 13.9004 9.08781 13.7441 9.24409C13.5878 9.40037 13.5 9.61233 13.5 9.83334C13.5 11.3804 12.8855 12.8642 11.7915 13.9581C10.6975 15.0521 9.2138 15.6667 7.6667 15.6667H3.00837L3.5417 15.1417C3.61981 15.0642 3.6818 14.972 3.72411 14.8705C3.76642 14.7689 3.7882 14.66 3.7882 14.55C3.7882 14.44 3.76642 14.3311 3.72411 14.2295C3.6818 14.128 3.61981 14.0358 3.5417 13.9583C2.72581 13.1425 2.17017 12.1031 1.94506 10.9715C1.71994 9.83987 1.83546 8.66692 2.27701 7.60097C2.71855 6.53501 3.46629 5.62394 4.42565 4.98297C5.38502 4.342 6.51292 3.99993 7.6667 4.00001C7.88771 4.00001 8.09968 3.91221 8.25596 3.75593C8.41224 3.59965 8.50003 3.38769 8.50003 3.16668C8.50003 2.94566 8.41224 2.7337 8.25596 2.57742C8.09968 2.42114 7.88771 2.33334 7.6667 2.33334C6.25626 2.33798 4.8757 2.74024 3.68352 3.49396C2.49134 4.24767 1.53586 5.32229 0.926759 6.59444C0.317657 7.86659 0.079625 9.28472 0.239989 10.686C0.400352 12.0873 0.952611 13.415 1.83337 14.5167L0.408368 15.9083C0.292737 16.0255 0.214407 16.1743 0.183262 16.336C0.152116 16.4977 0.169552 16.6649 0.233368 16.8167C0.295885 16.9689 0.40205 17.0991 0.538483 17.1911C0.674917 17.283 0.835514 17.3325 1.00003 17.3333H7.6667C8.65162 17.3333 9.62689 17.1394 10.5368 16.7624C11.4468 16.3855 12.2736 15.8331 12.97 15.1366C13.6664 14.4402 14.2189 13.6134 14.5958 12.7035C14.9727 11.7935 15.1667 10.8183 15.1667 9.83334C15.1667 9.61233 15.0789 9.40037 14.9226 9.24409C14.7663 9.08781 14.5544 9.00001 14.3334 9.00001Z" fill="#455560"/>
</svg>
