<svg width="17" height="16" viewBox="0 0 17 16" fill="none" xmlns="http://www.w3.org/2000/svg">
<path d="M16.2666 2.20809L11.2666 0.541427H11.2083C11.1695 0.537529 11.1304 0.537529 11.0916 0.541427H10.9H10.7916H10.7333L5.99996 2.16643L1.26663 0.541427C1.14131 0.500104 1.00797 0.489132 0.877575 0.509415C0.747185 0.529698 0.623476 0.580656 0.516629 0.658094C0.408927 0.734775 0.321016 0.83598 0.260158 0.95335C0.199299 1.07072 0.16724 1.20089 0.166629 1.33309V12.9998C0.166178 13.1745 0.220645 13.3449 0.32233 13.487C0.424016 13.629 0.567778 13.7355 0.733296 13.7914L5.7333 15.4581C5.90117 15.5128 6.08209 15.5128 6.24996 15.4581L11 13.8748L15.7333 15.4998C15.8218 15.5118 15.9115 15.5118 16 15.4998C16.1742 15.5022 16.3443 15.4465 16.4833 15.3414C16.591 15.2647 16.6789 15.1635 16.7398 15.0462C16.8006 14.9288 16.8327 14.7986 16.8333 14.6664V2.99976C16.8337 2.82506 16.7793 2.65463 16.6776 2.51257C16.5759 2.37051 16.4321 2.264 16.2666 2.20809ZM5.16663 13.5081L1.8333 12.3998V2.49143L5.16663 3.59976V13.5081ZM10.1666 12.3998L6.8333 13.5081V3.59976L10.1666 2.49143V12.3998ZM15.1666 13.5081L11.8333 12.3998V2.49143L15.1666 3.59976V13.5081Z" fill="#455560"/>
</svg>
