<svg width="16" height="18" viewBox="0 0 16 18" fill="none" xmlns="http://www.w3.org/2000/svg">
<path d="M14.7583 12.9248L12.7417 10.9082C12.6642 10.8301 12.572 10.7681 12.4705 10.7258C12.3689 10.6835 12.26 10.6617 12.15 10.6617C12.04 10.6617 11.9311 10.6835 11.8295 10.7258C11.728 10.7681 11.6358 10.8301 11.5583 10.9082L8.575 13.8915C8.49777 13.9694 8.43666 14.0617 8.39519 14.1632C8.35372 14.2648 8.3327 14.3735 8.33333 14.4832V16.4998C8.33333 16.7209 8.42113 16.9328 8.57741 17.0891C8.73369 17.2454 8.94565 17.3332 9.16667 17.3332H11.1833C11.293 17.3338 11.4017 17.3128 11.5033 17.2713C11.6048 17.2298 11.6971 17.1687 11.775 17.0915L14.7583 14.1082C14.8364 14.0307 14.8984 13.9385 14.9407 13.837C14.9831 13.7354 15.0048 13.6265 15.0048 13.5165C15.0048 13.4065 14.9831 13.2976 14.9407 13.196C14.8984 13.0945 14.8364 13.0023 14.7583 12.9248ZM10.8333 15.6665H10V14.8332L12.15 12.6832L12.9833 13.5165L10.8333 15.6665ZM5.83333 15.6665H2.5C2.27899 15.6665 2.06702 15.5787 1.91074 15.4224C1.75446 15.2661 1.66667 15.0542 1.66667 14.8332V3.1665C1.66667 2.94549 1.75446 2.73353 1.91074 2.57725C2.06702 2.42097 2.27899 2.33317 2.5 2.33317H6.66667V4.83317C6.66667 5.49621 6.93006 6.1321 7.3989 6.60094C7.86774 7.06978 8.50362 7.33317 9.16667 7.33317H11.6667V8.1665C11.6667 8.38752 11.7545 8.59948 11.9107 8.75576C12.067 8.91204 12.279 8.99984 12.5 8.99984C12.721 8.99984 12.933 8.91204 13.0893 8.75576C13.2455 8.59948 13.3333 8.38752 13.3333 8.1665V6.49984C13.3333 6.49984 13.3333 6.49984 13.3333 6.44984C13.3247 6.37328 13.3079 6.29786 13.2833 6.22484V6.14984C13.2433 6.06415 13.1898 5.98539 13.125 5.9165L8.125 0.916504C8.05611 0.851684 7.97735 0.798238 7.89167 0.75817C7.86679 0.754637 7.84154 0.754637 7.81667 0.75817L7.55 0.666504H2.5C1.83696 0.666504 1.20107 0.929896 0.732233 1.39874C0.263392 1.86758 0 2.50346 0 3.1665V14.8332C0 15.4962 0.263392 16.1321 0.732233 16.6009C1.20107 17.0698 1.83696 17.3332 2.5 17.3332H5.83333C6.05435 17.3332 6.26631 17.2454 6.42259 17.0891C6.57887 16.9328 6.66667 16.7209 6.66667 16.4998C6.66667 16.2788 6.57887 16.0669 6.42259 15.9106C6.26631 15.7543 6.05435 15.6665 5.83333 15.6665ZM8.33333 3.50817L10.4917 5.6665H9.16667C8.94565 5.6665 8.73369 5.57871 8.57741 5.42243C8.42113 5.26615 8.33333 5.05418 8.33333 4.83317V3.50817ZM4.16667 10.6665H9.16667C9.38768 10.6665 9.59964 10.5787 9.75592 10.4224C9.9122 10.2661 10 10.0542 10 9.83317C10 9.61216 9.9122 9.4002 9.75592 9.24392C9.59964 9.08764 9.38768 8.99984 9.16667 8.99984H4.16667C3.94565 8.99984 3.73369 9.08764 3.57741 9.24392C3.42113 9.4002 3.33333 9.61216 3.33333 9.83317C3.33333 10.0542 3.42113 10.2661 3.57741 10.4224C3.73369 10.5787 3.94565 10.6665 4.16667 10.6665ZM4.16667 7.33317H5C5.22101 7.33317 5.43297 7.24537 5.58926 7.08909C5.74554 6.93281 5.83333 6.72085 5.83333 6.49984C5.83333 6.27882 5.74554 6.06686 5.58926 5.91058C5.43297 5.7543 5.22101 5.6665 5 5.6665H4.16667C3.94565 5.6665 3.73369 5.7543 3.57741 5.91058C3.42113 6.06686 3.33333 6.27882 3.33333 6.49984C3.33333 6.72085 3.42113 6.93281 3.57741 7.08909C3.73369 7.24537 3.94565 7.33317 4.16667 7.33317ZM5.83333 12.3332H4.16667C3.94565 12.3332 3.73369 12.421 3.57741 12.5772C3.42113 12.7335 3.33333 12.9455 3.33333 13.1665C3.33333 13.3875 3.42113 13.5995 3.57741 13.7558C3.73369 13.912 3.94565 13.9998 4.16667 13.9998H5.83333C6.05435 13.9998 6.26631 13.912 6.42259 13.7558C6.57887 13.5995 6.66667 13.3875 6.66667 13.1665C6.66667 12.9455 6.57887 12.7335 6.42259 12.5772C6.26631 12.421 6.05435 12.3332 5.83333 12.3332Z" fill="#455560"/>
</svg>
