<svg width="15" height="18" viewBox="0 0 15 18" fill="none" xmlns="http://www.w3.org/2000/svg">
<path d="M5.83333 5.6665H10.8333C11.0543 5.6665 11.2663 5.57871 11.4226 5.42243C11.5789 5.26615 11.6667 5.05418 11.6667 4.83317C11.6667 4.61216 11.5789 4.4002 11.4226 4.24392C11.2663 4.08764 11.0543 3.99984 10.8333 3.99984H5.83333C5.61232 3.99984 5.40036 4.08764 5.24408 4.24392C5.0878 4.4002 5 4.61216 5 4.83317C5 5.05418 5.0878 5.26615 5.24408 5.42243C5.40036 5.57871 5.61232 5.6665 5.83333 5.6665ZM4.16667 8.99984H10.8333C11.0543 8.99984 11.2663 8.91204 11.4226 8.75576C11.5789 8.59948 11.6667 8.38752 11.6667 8.1665C11.6667 7.94549 11.5789 7.73353 11.4226 7.57725C11.2663 7.42097 11.0543 7.33317 10.8333 7.33317H4.16667C3.94565 7.33317 3.73369 7.42097 3.57741 7.57725C3.42113 7.73353 3.33333 7.94549 3.33333 8.1665C3.33333 8.38752 3.42113 8.59948 3.57741 8.75576C3.73369 8.91204 3.94565 8.99984 4.16667 8.99984ZM4.16667 12.3332H10.8333C11.0543 12.3332 11.2663 12.2454 11.4226 12.0891C11.5789 11.9328 11.6667 11.7209 11.6667 11.4998C11.6667 11.2788 11.5789 11.0669 11.4226 10.9106C11.2663 10.7543 11.0543 10.6665 10.8333 10.6665H4.16667C3.94565 10.6665 3.73369 10.7543 3.57741 10.9106C3.42113 11.0669 3.33333 11.2788 3.33333 11.4998C3.33333 11.7209 3.42113 11.9328 3.57741 12.0891C3.73369 12.2454 3.94565 12.3332 4.16667 12.3332ZM14.1667 0.666504H0.833333C0.61232 0.666504 0.400358 0.754301 0.244078 0.910582C0.0877973 1.06686 0 1.27882 0 1.49984V16.4998C0 16.6546 0.0430956 16.8063 0.124458 16.938C0.20582 17.0696 0.322234 17.176 0.460655 17.2452C0.599077 17.3144 0.754037 17.3437 0.908171 17.3298C1.06231 17.3159 1.20953 17.2594 1.33333 17.1665L3.05833 15.8748L4.775 17.1665C4.91925 17.2747 5.09469 17.3332 5.275 17.3332C5.45531 17.3332 5.63075 17.2747 5.775 17.1665L7.5 15.8748L9.225 17.1665C9.36925 17.2747 9.54469 17.3332 9.725 17.3332C9.90531 17.3332 10.0808 17.2747 10.225 17.1665L11.9417 15.8748L13.6667 17.1665C13.7911 17.2592 13.9389 17.3154 14.0935 17.3286C14.2481 17.3419 14.4033 17.3117 14.5417 17.2415C14.6791 17.1723 14.7947 17.0663 14.8756 16.9354C14.9565 16.8045 14.9995 16.6537 15 16.4998V1.49984C15 1.27882 14.9122 1.06686 14.7559 0.910582C14.5996 0.754301 14.3877 0.666504 14.1667 0.666504ZM13.3333 14.8332L12.4417 14.1665C12.2974 14.0583 12.122 13.9998 11.9417 13.9998C11.7614 13.9998 11.5859 14.0583 11.4417 14.1665L9.725 15.4582L8 14.1665C7.85575 14.0583 7.68031 13.9998 7.5 13.9998C7.31969 13.9998 7.14425 14.0583 7 14.1665L5.275 15.4582L3.55833 14.1665C3.41409 14.0583 3.23864 13.9998 3.05833 13.9998C2.87802 13.9998 2.70258 14.0583 2.55833 14.1665L1.66667 14.8332V2.33317H13.3333V14.8332Z" fill="#455560"/>
</svg>
