<svg width="17" height="13" viewBox="0 0 17 13" fill="none" xmlns="http://www.w3.org/2000/svg">
<path d="M4.33329 8.49984H6.83329C7.05431 8.49984 7.26627 8.41204 7.42255 8.25576C7.57883 8.09948 7.66663 7.88752 7.66663 7.6665C7.66663 7.44549 7.57883 7.23353 7.42255 7.07725C7.26627 6.92097 7.05431 6.83317 6.83329 6.83317H4.33329C4.11228 6.83317 3.90032 6.92097 3.74404 7.07725C3.58776 7.23353 3.49996 7.44549 3.49996 7.6665C3.49996 7.88752 3.58776 8.09948 3.74404 8.25576C3.90032 8.41204 4.11228 8.49984 4.33329 8.49984ZM14.3333 0.166504H2.66663C2.00358 0.166504 1.3677 0.429896 0.898859 0.898737C0.430018 1.36758 0.166626 2.00346 0.166626 2.6665V10.1665C0.166626 10.8295 0.430018 11.4654 0.898859 11.9343C1.3677 12.4031 2.00358 12.6665 2.66663 12.6665H14.3333C14.9963 12.6665 15.6322 12.4031 16.1011 11.9343C16.5699 11.4654 16.8333 10.8295 16.8333 10.1665V2.6665C16.8333 2.00346 16.5699 1.36758 16.1011 0.898737C15.6322 0.429896 14.9963 0.166504 14.3333 0.166504ZM15.1666 10.1665C15.1666 10.3875 15.0788 10.5995 14.9225 10.7558C14.7663 10.912 14.5543 10.9998 14.3333 10.9998H2.66663C2.44561 10.9998 2.23365 10.912 2.07737 10.7558C1.92109 10.5995 1.83329 10.3875 1.83329 10.1665V5.1665H15.1666V10.1665ZM15.1666 3.49984H1.83329V2.6665C1.83329 2.44549 1.92109 2.23353 2.07737 2.07725C2.23365 1.92097 2.44561 1.83317 2.66663 1.83317H14.3333C14.5543 1.83317 14.7663 1.92097 14.9225 2.07725C15.0788 2.23353 15.1666 2.44549 15.1666 2.6665V3.49984Z" fill="#455560"/>
</svg>
