<svg width="17" height="18" viewBox="0 0 17 18" fill="none" xmlns="http://www.w3.org/2000/svg">
<path d="M8.50001 8.1665C8.279 8.1665 8.06704 8.2543 7.91076 8.41058C7.75447 8.56686 7.66668 8.77882 7.66668 8.99984V11.4998C7.66668 11.7209 7.75447 11.9328 7.91076 12.0891C8.06704 12.2454 8.279 12.3332 8.50001 12.3332C8.72102 12.3332 8.93299 12.2454 9.08927 12.0891C9.24555 11.9328 9.33334 11.7209 9.33334 11.4998V8.99984C9.33334 8.77882 9.24555 8.56686 9.08927 8.41058C8.93299 8.2543 8.72102 8.1665 8.50001 8.1665ZM8.50001 5.6665C8.33519 5.6665 8.17408 5.71538 8.03703 5.80695C7.89999 5.89851 7.79318 6.02866 7.73011 6.18093C7.66704 6.33321 7.65054 6.50076 7.68269 6.66241C7.71484 6.82406 7.79421 6.97255 7.91076 7.08909C8.0273 7.20564 8.17578 7.285 8.33744 7.31716C8.49909 7.34931 8.66664 7.33281 8.81891 7.26974C8.97119 7.20666 9.10133 7.09985 9.1929 6.96281C9.28447 6.82577 9.33334 6.66465 9.33334 6.49984C9.33334 6.27882 9.24555 6.06686 9.08927 5.91058C8.93299 5.7543 8.72102 5.6665 8.50001 5.6665ZM8.50001 0.666504C7.40566 0.666504 6.32203 0.882052 5.31098 1.30084C4.29993 1.71963 3.38128 2.33346 2.60745 3.10728C1.04465 4.67008 0.166677 6.7897 0.166677 8.99984C0.159392 10.9241 0.825671 12.7903 2.05001 14.2748L0.383344 15.9415C0.267712 16.0587 0.189382 16.2075 0.158237 16.3692C0.127092 16.5308 0.144528 16.6981 0.208344 16.8498C0.277559 16.9998 0.389764 17.1258 0.530716 17.2118C0.671668 17.2979 0.835011 17.3401 1.00001 17.3332H8.50001C10.7101 17.3332 12.8298 16.4552 14.3926 14.8924C15.9554 13.3296 16.8333 11.21 16.8333 8.99984C16.8333 6.7897 15.9554 4.67008 14.3926 3.10728C12.8298 1.54448 10.7101 0.666504 8.50001 0.666504ZM8.50001 15.6665H3.00834L3.78334 14.8915C3.86208 14.8143 3.92473 14.7223 3.96764 14.6207C4.01055 14.5192 4.03289 14.4101 4.03334 14.2998C4.03021 14.08 3.94036 13.8704 3.78334 13.7165C2.69217 12.6265 2.01266 11.192 1.86059 9.65716C1.70852 8.12238 2.0933 6.58234 2.94937 5.29944C3.80544 4.01654 5.07984 3.07014 6.55544 2.62148C8.03104 2.17283 9.61656 2.24967 11.0419 2.83893C12.4672 3.42819 13.6441 4.4934 14.372 5.85308C15.1 7.21276 15.3341 8.78279 15.0343 10.2957C14.7345 11.8086 13.9194 13.1707 12.728 14.15C11.5365 15.1294 10.0423 15.6653 8.50001 15.6665Z" fill="#455560"/>
</svg>
