<svg width="32" height="32" viewBox="0 0 32 32" fill="none" xmlns="http://www.w3.org/2000/svg">
<rect width="32" height="32" rx="16" fill="#F47B20"/>
<path d="M20.9333 15.6833C20.8937 15.581 20.8342 15.4876 20.7583 15.4083L16.5917 11.2417C16.514 11.164 16.4217 11.1023 16.3202 11.0603C16.2187 11.0182 16.1099 10.9966 16 10.9966C15.7781 10.9966 15.5653 11.0847 15.4083 11.2417C15.3306 11.3194 15.269 11.4116 15.2269 11.5131C15.1849 11.6146 15.1633 11.7234 15.1633 11.8333C15.1633 12.0552 15.2514 12.2681 15.4083 12.425L18.1583 15.1667H11.8333C11.6123 15.1667 11.4004 15.2545 11.2441 15.4107C11.0878 15.567 11 15.779 11 16C11 16.221 11.0878 16.433 11.2441 16.5892C11.4004 16.7455 11.6123 16.8333 11.8333 16.8333H18.1583L15.4083 19.575C15.3302 19.6525 15.2682 19.7446 15.2259 19.8462C15.1836 19.9477 15.1618 20.0566 15.1618 20.1667C15.1618 20.2767 15.1836 20.3856 15.2259 20.4871C15.2682 20.5887 15.3302 20.6809 15.4083 20.7583C15.4858 20.8364 15.578 20.8984 15.6795 20.9407C15.7811 20.983 15.89 21.0048 16 21.0048C16.11 21.0048 16.2189 20.983 16.3205 20.9407C16.422 20.8984 16.5142 20.8364 16.5917 20.7583L20.7583 16.5917C20.8342 16.5124 20.8937 16.419 20.9333 16.3167C21.0167 16.1138 21.0167 15.8862 20.9333 15.6833Z" fill="white"/>
</svg>
