<svg width="28" height="32" viewBox="0 0 28 32" fill="none" xmlns="http://www.w3.org/2000/svg">
<path d="M27.07 13.1683C26.9045 13.1683 26.7458 13.2341 26.6288 13.3511C26.5117 13.4681 26.446 13.6268 26.446 13.7923V15.6018C26.446 25.3796 15.6387 30.0625 13.9883 30.7208C12.0276 29.9167 10.1714 28.8786 8.45982 27.629C8.39365 27.5807 8.31861 27.5458 8.23898 27.5265C8.15935 27.5072 8.07668 27.5037 7.99571 27.5163C7.91474 27.5289 7.83704 27.5573 7.76705 27.6C7.69706 27.6426 7.63616 27.6986 7.58781 27.7647C7.53947 27.8309 7.50463 27.906 7.48528 27.9856C7.46594 28.0652 7.46247 28.1479 7.47507 28.2289C7.48767 28.3098 7.5161 28.3875 7.55873 28.4575C7.60136 28.5275 7.65736 28.5884 7.72353 28.6368C10.6718 30.7895 13.7293 32 13.9883 32C14.0606 31.9999 14.1324 31.9872 14.2004 31.9626C14.3252 31.9158 27.694 27.0051 27.694 15.6018V13.7923C27.694 13.6268 27.6282 13.4681 27.5112 13.3511C27.3942 13.2341 27.2355 13.1683 27.07 13.1683Z" fill="#679AB4"/>
<path d="M27.4288 4.76958C27.3488 4.7116 27.2561 4.67344 27.1585 4.65826C27.0609 4.64307 26.961 4.65129 26.8672 4.68223C24.8018 5.38732 16.8024 6.08618 14.5717 0.398616C14.5262 0.281237 14.4463 0.180352 14.3425 0.109211C14.2386 0.0380704 14.1157 0 13.9898 0C13.864 0 13.741 0.0380704 13.6372 0.109211C13.5333 0.180352 13.4534 0.281237 13.408 0.398616C11.1772 6.08618 3.17473 5.38732 1.11248 4.68223C1.01844 4.65032 0.918144 4.64132 0.819927 4.65597C0.72171 4.67062 0.628408 4.7085 0.547777 4.76646C0.466704 4.82419 0.400615 4.90047 0.355025 4.98893C0.309435 5.0774 0.285667 5.17548 0.285706 5.27501V15.6018C0.300219 18.9002 1.44549 22.0937 3.53039 24.6495C3.633 24.7794 3.783 24.8633 3.94741 24.8826C4.11183 24.9019 4.27717 24.8551 4.40708 24.7525C4.53699 24.6499 4.62082 24.4999 4.64013 24.3355C4.65944 24.1711 4.61264 24.0057 4.51004 23.8758C2.60038 21.5396 1.5498 18.6192 1.53366 15.6018V6.09242C4.60988 6.77256 11.2053 6.77256 13.9883 2.03656C16.7806 6.77256 23.3729 6.77256 26.446 6.09242V8.18275C26.446 8.34824 26.5117 8.50695 26.6288 8.62397C26.7458 8.74098 26.9045 8.80672 27.07 8.80672C27.2355 8.80672 27.3942 8.74098 27.5112 8.62397C27.6282 8.50695 27.694 8.34824 27.694 8.18275V5.27501C27.6931 5.17574 27.6687 5.0781 27.6225 4.9902C27.5764 4.90229 27.51 4.82666 27.4288 4.76958Z" fill="#679AB4"/>
<path d="M26.549 11.3307C26.5724 11.3649 26.5985 11.3972 26.627 11.4274C26.6849 11.4854 26.7537 11.5315 26.8295 11.5629C26.9052 11.5943 26.9864 11.6104 27.0684 11.6104C27.1504 11.6104 27.2316 11.5943 27.3074 11.5629C27.3831 11.5315 27.4519 11.4854 27.5099 11.4274C27.5392 11.398 27.5654 11.3656 27.5879 11.3307C27.6103 11.2974 27.6291 11.2619 27.644 11.2246C27.6598 11.1862 27.6723 11.1466 27.6815 11.1061C27.6847 11.0656 27.6847 11.0249 27.6815 10.9844C27.6846 10.9439 27.6846 10.9032 27.6815 10.8627C27.6718 10.8234 27.6593 10.7848 27.644 10.7473C27.6285 10.7094 27.6097 10.6728 27.5879 10.6381C27.5653 10.6042 27.5392 10.5728 27.5099 10.5445C27.3906 10.4317 27.2326 10.3689 27.0684 10.3689C26.9042 10.3689 26.7463 10.4317 26.627 10.5445C26.5985 10.5736 26.5725 10.6049 26.549 10.6381C26.5272 10.6728 26.5084 10.7094 26.4928 10.7473C26.4626 10.8227 26.4467 10.9031 26.446 10.9844C26.4459 11.0698 26.4618 11.1544 26.4928 11.234C26.5083 11.268 26.5271 11.3004 26.549 11.3307Z" fill="#679AB4"/>
<path d="M6.50053 26.1003C6.48512 26.0617 6.46522 26.025 6.44125 25.9911C6.37235 25.8902 6.27599 25.8112 6.16358 25.7633C6.04965 25.7159 5.92423 25.7034 5.80317 25.7273C5.68211 25.7512 5.57084 25.8104 5.48345 25.8975C5.39582 25.9845 5.33599 26.0956 5.31156 26.2167C5.28712 26.3378 5.29916 26.4634 5.34617 26.5776C5.37808 26.6536 5.42474 26.7226 5.48345 26.7804C5.60044 26.8965 5.75857 26.9615 5.92335 26.9614C6.00573 26.9618 6.08738 26.9459 6.16358 26.9146C6.23882 26.8844 6.30686 26.8387 6.36326 26.7804C6.42196 26.7226 6.46862 26.6536 6.50053 26.5776C6.53184 26.5014 6.54774 26.4198 6.54733 26.3374C6.54525 26.294 6.53792 26.2511 6.52549 26.2095C6.52135 26.1723 6.51297 26.1356 6.50053 26.1003Z" fill="#679AB4"/>
<path d="M12.9525 21.3549C13.2422 21.6007 13.6099 21.7357 13.9898 21.7357C14.3698 21.7357 14.7374 21.6007 15.0272 21.3549C18.6151 18.3099 18.7087 18.2101 18.7523 18.1633C19.3601 17.4992 19.6944 16.6299 19.6883 15.7298C19.6978 15.2783 19.6181 14.8294 19.4538 14.4087C19.2895 13.9881 19.0438 13.6041 18.7308 13.2786C18.4178 12.9531 18.0436 12.6926 17.6297 12.512C17.2158 12.3314 16.7703 12.2342 16.3188 12.2261C15.8841 12.2264 15.4538 12.3128 15.0526 12.4804C14.6515 12.648 14.2877 12.8935 13.982 13.2027C13.6772 12.8933 13.3139 12.6477 12.9133 12.48C12.5126 12.3124 12.0826 12.2261 11.6484 12.2261C11.1968 12.2342 10.7514 12.3314 10.3375 12.512C9.92359 12.6926 9.54941 12.9531 9.23639 13.2786C8.92336 13.6041 8.67766 13.9881 8.51334 14.4087C8.34904 14.8294 8.26935 15.2783 8.27887 15.7298C8.27539 16.5858 8.57866 17.4148 9.13372 18.0666C9.19612 18.129 9.29595 18.2475 12.9525 21.3549ZM11.6546 13.4741C12.0209 13.4777 12.3798 13.5776 12.6952 13.7638C13.0106 13.95 13.2715 14.2159 13.4516 14.5348C13.5067 14.6287 13.5853 14.7065 13.6797 14.7605C13.7741 14.8146 13.881 14.8431 13.9898 14.8431C14.0986 14.8431 14.2055 14.8146 14.2999 14.7605C14.3943 14.7065 14.473 14.6287 14.528 14.5348C14.7081 14.2159 14.969 13.95 15.2845 13.7638C15.5999 13.5776 15.9588 13.4777 16.3251 13.4741C16.6127 13.4821 16.8959 13.547 17.1584 13.6648C17.421 13.7827 17.6576 13.9513 17.8547 14.1609C18.0519 14.3705 18.2057 14.617 18.3072 14.8863C18.4088 15.1555 18.4562 15.4422 18.4466 15.7298C18.4498 16.3054 18.2385 16.8615 17.8538 17.2897C17.7228 17.4114 16.3313 18.6032 14.2191 20.4096C14.155 20.4637 14.0738 20.4934 13.9898 20.4934C13.9059 20.4934 13.8247 20.4637 13.7605 20.4096C10.5501 17.6797 10.1227 17.2897 10.0884 17.2585C9.72687 16.8339 9.52981 16.2936 9.53306 15.736C9.52266 15.4479 9.5694 15.1606 9.67059 14.8906C9.77178 14.6206 9.92542 14.3734 10.1227 14.1631C10.3199 13.9528 10.5568 13.7837 10.8197 13.6654C11.0827 13.5472 11.3664 13.4821 11.6546 13.4741Z" fill="#679AB4"/>
<path d="M13.9883 25.651C15.7822 25.6516 17.536 25.1202 19.0279 24.124C20.5198 23.1278 21.6827 21.7116 22.3696 20.0544C23.0566 18.3972 23.2366 16.5736 22.887 14.814C22.5374 13.0545 21.6739 11.4382 20.4056 10.1695C19.1373 8.90077 17.5213 8.03667 15.7619 7.68647C14.0025 7.33626 12.1788 7.51569 10.5214 8.20205C8.86393 8.88841 7.44728 10.0509 6.45057 11.5424C5.45386 13.034 4.92186 14.7876 4.92186 16.5815C4.92434 18.9856 5.88025 21.2905 7.5799 22.9908C9.27956 24.691 11.5842 25.6477 13.9883 25.651ZM13.9883 8.76305C15.5355 8.76243 17.0481 9.22071 18.3349 10.0799C19.6216 10.9391 20.6246 12.1607 21.217 13.59C21.8094 15.0193 21.9645 16.5922 21.6628 18.1098C21.3611 19.6273 20.6161 21.0212 19.5221 22.1153C18.428 23.2094 17.0341 23.9543 15.5165 24.256C13.999 24.5577 12.4261 24.4026 10.9968 23.8102C9.56743 23.2178 8.3459 22.2148 7.48669 20.9281C6.62749 19.6414 6.1692 18.1287 6.16982 16.5815C6.1723 14.5087 6.99682 12.5215 8.46253 11.0558C9.92824 9.59005 11.9154 8.76552 13.9883 8.76305Z" fill="#679AB4"/>
</svg>
