<svg width="28" height="32" viewBox="0 0 28 32" fill="none" xmlns="http://www.w3.org/2000/svg">
<path d="M26.8197 9.56113C26.8572 9.57641 26.8958 9.58892 26.9351 9.59855C26.9756 9.60162 27.0162 9.60162 27.0567 9.59855C27.2221 9.59855 27.3808 9.53284 27.4978 9.41586C27.6147 9.29889 27.6804 9.14024 27.6804 8.97482C27.6835 8.93329 27.6835 8.8916 27.6804 8.85007C27.6708 8.81074 27.6583 8.77217 27.643 8.73468C27.6281 8.69746 27.6093 8.66192 27.5869 8.62864C27.5644 8.59376 27.5382 8.56136 27.5089 8.53197C27.4363 8.45901 27.3467 8.40517 27.2482 8.37524C27.1497 8.34531 27.0454 8.34023 26.9444 8.36044C26.9051 8.37007 26.8665 8.38258 26.829 8.39786C26.7918 8.4128 26.7563 8.43161 26.723 8.454C26.6881 8.47651 26.6557 8.50264 26.6263 8.53197C26.5979 8.56215 26.5718 8.59447 26.5484 8.62864C26.5227 8.66149 26.5008 8.69705 26.4829 8.73468C26.4672 8.77174 26.4557 8.81045 26.4486 8.85007C26.444 8.89153 26.444 8.93336 26.4486 8.97482C26.4484 9.13953 26.5135 9.29761 26.6294 9.41455C26.6588 9.44387 26.6912 9.47001 26.7261 9.49252C26.7549 9.51851 26.7863 9.5415 26.8197 9.56113Z" fill="#679AB4"/>
<path d="M27.0598 11.1672C26.8944 11.1672 26.7358 11.233 26.6188 11.3499C26.5018 11.4669 26.4361 11.6256 26.4361 11.791V15.5958C26.4361 25.3697 15.6361 30.0508 13.9832 30.7089C12.3303 30.0352 1.53347 25.3541 1.53347 15.5958C1.53347 15.4303 1.46775 15.2717 1.35078 15.1547C1.23381 15.0377 1.07516 14.972 0.909735 14.972C0.74431 14.972 0.58566 15.0377 0.468687 15.1547C0.351714 15.2717 0.286 15.4303 0.286 15.5958C0.286 27.1536 13.8491 32 13.9863 32C14.0576 31.9996 14.1283 31.9869 14.1953 31.9626C16.6069 31.0182 18.8679 29.727 20.9067 28.1297C25.3414 24.6618 27.6836 20.3206 27.6836 15.5958V11.791C27.6836 11.6256 27.6178 11.4669 27.5009 11.3499C27.3839 11.233 27.2253 11.1672 27.0598 11.1672Z" fill="#679AB4"/>
<path d="M27.4185 4.76772C27.3385 4.70976 27.2459 4.67162 27.1483 4.65644C27.0507 4.64126 26.9509 4.64947 26.8571 4.6804C24.7925 5.38834 16.7963 6.08381 14.5664 0.398461C14.521 0.281127 14.4411 0.180282 14.3373 0.109169C14.2335 0.0380556 14.1106 0 13.9848 0C13.859 0 13.7361 0.0380556 13.6323 0.109169C13.5285 0.180282 13.4486 0.281127 13.4031 0.398461C11.1733 6.08381 3.17389 5.38522 1.11245 4.6804C1.01845 4.64851 0.918191 4.63951 0.820013 4.65415C0.721834 4.6688 0.628569 4.70667 0.547968 4.76461C0.466928 4.82231 0.400864 4.89855 0.355292 4.98699C0.30972 5.07542 0.285962 5.17347 0.286 5.27295V9.98215C0.286 10.1476 0.351714 10.3062 0.468687 10.4232C0.58566 10.5402 0.74431 10.6059 0.909735 10.6059C1.07516 10.6059 1.23381 10.5402 1.35078 10.4232C1.46775 10.3062 1.53347 10.1476 1.53347 9.98215V6.09004C4.60848 6.76991 11.2014 6.76991 13.9832 2.03577C16.7744 6.76991 23.3642 6.76991 26.4361 6.09004V6.1836C26.4361 6.34903 26.5018 6.50768 26.6188 6.62465C26.7358 6.74162 26.8944 6.80734 27.0598 6.80734C27.2253 6.80734 27.3839 6.74162 27.5009 6.62465C27.6178 6.50768 27.6836 6.34903 27.6836 6.1836V5.27295C27.6827 5.17372 27.6583 5.07612 27.6122 4.98825C27.5661 4.90038 27.4997 4.82478 27.4185 4.76772Z" fill="#679AB4"/>
<path d="M0.388916 13.1227C0.412395 13.1568 0.43846 13.1891 0.466883 13.2193C0.497068 13.2478 0.52939 13.2738 0.563562 13.2973C0.596836 13.3197 0.632378 13.3385 0.669597 13.3534C0.707092 13.3687 0.745659 13.3812 0.784988 13.3909C0.825966 13.4012 0.867665 13.4085 0.909735 13.4127C1.07489 13.412 1.23303 13.3458 1.34947 13.2287C1.37879 13.1993 1.40492 13.1669 1.42743 13.132C1.44982 13.0987 1.46864 13.0632 1.48357 13.026C1.50408 12.985 1.52079 12.9422 1.53347 12.8981C1.53607 12.8618 1.53607 12.8253 1.53347 12.789C1.53654 12.7485 1.53654 12.7078 1.53347 12.6673C1.52384 12.628 1.51133 12.5894 1.49605 12.5519C1.48047 12.514 1.46169 12.4775 1.43991 12.4428C1.41737 12.4089 1.39123 12.3775 1.36194 12.3492C1.28932 12.2721 1.19824 12.2147 1.09729 12.1825C0.99635 12.1503 0.888868 12.1444 0.784988 12.1652C0.745659 12.1749 0.707092 12.1874 0.669597 12.2026C0.632378 12.2176 0.596836 12.2364 0.563562 12.2588C0.52868 12.2813 0.496273 12.3074 0.466883 12.3368C0.438475 12.3658 0.412405 12.3971 0.388916 12.4303C0.367133 12.465 0.348353 12.5015 0.33278 12.5395C0.317076 12.5765 0.305569 12.6152 0.298474 12.6549C0.288699 12.6989 0.284507 12.7439 0.286 12.789C0.28708 12.8712 0.302926 12.9525 0.33278 13.0291C0.348461 13.062 0.367259 13.0933 0.388916 13.1227Z" fill="#679AB4"/>
<path d="M6.3487 7.08178C5.90651 7.07316 5.46854 7.16915 5.07049 7.36194C4.67244 7.55472 4.32558 7.83884 4.05819 8.19114C3.7908 8.54344 3.61045 8.95394 3.53184 9.38917C3.45323 9.82441 3.47859 10.2721 3.60584 10.6956C3.73309 11.1192 3.95864 11.5067 4.2641 11.8266C4.56956 12.1464 4.94628 12.3896 5.36356 12.5362C5.78083 12.6828 6.22684 12.7287 6.66523 12.6702C7.10362 12.6117 7.52199 12.4504 7.88621 12.1995L8.92785 13.1913C7.98665 14.3804 7.49186 15.8618 7.52947 17.3779C7.56707 18.894 8.13469 20.349 9.13368 21.4901L9.2709 21.6398C10.0858 22.5202 11.1268 23.1599 12.2804 23.4891L12.0902 24.5401C11.5326 24.5917 11.0126 24.8434 10.6262 25.2487C10.2398 25.654 10.0133 26.1855 9.98853 26.7449C9.96374 27.3043 10.1423 27.8537 10.4913 28.2916C10.8403 28.7295 11.3361 29.0262 11.8869 29.1269C12.4377 29.2276 13.0064 29.1253 13.4877 28.8392C13.969 28.553 14.3304 28.1022 14.505 27.5702C14.6797 27.0382 14.6558 26.4609 14.4377 25.9452C14.2197 25.4294 13.8223 25.0101 13.3189 24.7647L13.5092 23.7043C13.6869 23.7043 13.8678 23.7324 14.0518 23.7324C14.9509 23.7325 15.8402 23.5456 16.6632 23.1838C17.4862 22.8219 18.225 22.293 18.8328 21.6304C18.8871 21.5891 18.9336 21.5384 18.97 21.4807C19.8835 20.4369 20.4373 19.1271 20.5496 17.7446C20.6619 16.3621 20.3268 14.9801 19.5937 13.8025L20.5574 13.1008C21.0816 13.5406 21.7495 13.772 22.4334 13.7509C23.1174 13.7297 23.7697 13.4575 24.2657 12.9861C24.7618 12.5147 25.0669 11.8772 25.1229 11.1952C25.179 10.5132 24.9819 9.83444 24.5694 9.28844C24.1569 8.74244 23.5579 8.36742 22.8865 8.23494C22.2152 8.10245 21.5185 8.22178 20.9295 8.57014C20.3405 8.91851 19.9004 9.47153 19.6932 10.1237C19.4859 10.7758 19.526 11.4815 19.8058 12.106L18.8702 12.8139C17.7277 11.5529 16.1354 10.7913 14.4366 10.6933C12.7378 10.5953 11.0686 11.1687 9.7886 12.29L8.74697 11.2951C8.9988 10.8717 9.13395 10.3891 9.13865 9.89649C9.14335 9.40387 9.01744 8.9188 8.77374 8.49065C8.53004 8.06251 8.17724 7.70658 7.75127 7.4591C7.32529 7.21162 6.84135 7.08143 6.3487 7.08178ZM12.3085 27.9021C12.0987 27.8996 11.8943 27.8351 11.7211 27.7168C11.5479 27.5985 11.4135 27.4315 11.3349 27.237C11.2563 27.0425 11.237 26.829 11.2795 26.6236C11.3219 26.4181 11.4242 26.2298 11.5734 26.0823C11.7226 25.9348 11.9121 25.8348 12.118 25.7947C12.324 25.7547 12.5372 25.7765 12.7308 25.8573C12.9244 25.9382 13.0897 26.0745 13.206 26.2491C13.3224 26.4237 13.3844 26.6288 13.3844 26.8386C13.3844 26.9793 13.3565 27.1186 13.3023 27.2485C13.2481 27.3783 13.1686 27.4961 13.0686 27.595C12.9685 27.6939 12.8498 27.772 12.7193 27.8247C12.5888 27.8774 12.4492 27.9037 12.3085 27.9021ZM22.3382 9.42079C22.6435 9.42079 22.9419 9.51133 23.1958 9.68096C23.4497 9.85058 23.6475 10.0917 23.7644 10.3738C23.8812 10.6559 23.9118 10.9662 23.8522 11.2657C23.7927 11.5652 23.6456 11.8402 23.4297 12.0561C23.2138 12.272 22.9388 12.419 22.6393 12.4786C22.3399 12.5382 22.0295 12.5076 21.7474 12.3908C21.4653 12.2739 21.2242 12.0761 21.0546 11.8222C20.8849 11.5683 20.7944 11.2699 20.7944 10.9645C20.7985 10.5564 20.9624 10.1661 21.2511 9.87743C21.5397 9.5888 21.93 9.42485 22.3382 9.42079ZM4.80496 9.873C4.80496 9.56459 4.89641 9.26311 5.06776 9.00667C5.2391 8.75024 5.48263 8.55038 5.76756 8.43236C6.0525 8.31433 6.36603 8.28345 6.66851 8.34362C6.97099 8.40379 7.24884 8.5523 7.46692 8.77038C7.68499 8.98845 7.83351 9.2663 7.89367 9.56878C7.95384 9.87127 7.92296 10.1848 7.80494 10.4697C7.68692 10.7547 7.48705 10.9982 7.23062 11.1695C6.97419 11.3409 6.67271 11.4323 6.3643 11.4323C5.95074 11.4323 5.55411 11.268 5.26168 10.9756C4.96925 10.6832 4.80496 10.2866 4.80496 9.873ZM10.4186 21.0472C10.9239 20.2874 11.6547 19.705 12.5081 19.3818C12.9674 19.6653 13.4965 19.8154 14.0362 19.8154C14.576 19.8154 15.1051 19.6653 15.5644 19.3818C16.4178 19.705 17.1485 20.2874 17.6539 21.0472C16.6774 21.974 15.3825 22.4907 14.0362 22.4907C12.69 22.4907 11.395 21.974 10.4186 21.0472ZM14.0362 18.5523C13.7025 18.5523 13.3763 18.4533 13.0989 18.2679C12.8214 18.0825 12.6052 17.819 12.4775 17.5107C12.3498 17.2024 12.3164 16.8632 12.3815 16.5359C12.4466 16.2086 12.6072 15.908 12.8432 15.672C13.0792 15.4361 13.3798 15.2754 13.7071 15.2103C14.0344 15.1452 14.3736 15.1786 14.6819 15.3063C14.9902 15.434 15.2537 15.6502 15.4391 15.9277C15.6245 16.2052 15.7234 16.5314 15.7234 16.8651C15.7255 17.0866 15.6839 17.3064 15.601 17.5119C15.5181 17.7174 15.3955 17.9046 15.2403 18.0627C15.0851 18.2208 14.9002 18.3468 14.6963 18.4335C14.4924 18.5202 14.2734 18.5658 14.0518 18.5679L14.0362 18.5523ZM19.313 17.1988C19.3122 18.2077 19.021 19.1951 18.4741 20.043C17.9537 19.3619 17.285 18.8084 16.5187 18.4244C16.7986 17.9804 16.9543 17.4695 16.9697 16.9449C16.985 16.4203 16.8593 15.9012 16.6058 15.4417C16.3523 14.9821 15.9802 14.599 15.5282 14.3322C15.0763 14.0653 14.5611 13.9246 14.0362 13.9246C13.5114 13.9246 12.9962 14.0653 12.5442 14.3322C12.0923 14.599 11.7202 14.9821 11.4667 15.4417C11.2131 15.9012 11.0875 16.4203 11.1028 16.9449C11.1181 17.4695 11.2739 17.9804 11.5538 18.4244C10.7881 18.8094 10.1196 19.3628 9.59836 20.043C9.15658 19.3532 8.88156 18.5699 8.79512 17.7553C8.70868 16.9407 8.81319 16.1172 9.10036 15.35C9.38754 14.5829 9.84948 13.8931 10.4496 13.3355C11.0497 12.7779 11.7714 12.3678 12.5575 12.1376C13.3437 11.9074 14.1727 11.8636 14.9787 12.0095C15.7848 12.1554 16.5458 12.4871 17.2014 12.9783C17.857 13.4694 18.3891 14.1065 18.7557 14.8391C19.1222 15.5717 19.313 16.3796 19.313 17.1988Z" fill="#679AB4"/>
</svg>
