<svg width="32" height="26" viewBox="0 0 32 26" fill="none" xmlns="http://www.w3.org/2000/svg">
<path d="M6.68169 10.6313C7.24522 10.6313 7.7961 10.4642 8.26466 10.1511C8.73322 9.83802 9.09841 9.39303 9.31407 8.87239C9.52972 8.35176 9.58615 7.77887 9.47621 7.22616C9.36627 6.67346 9.0949 6.16577 8.69642 5.76729C8.29795 5.36881 7.79026 5.09745 7.23755 4.98751C6.68485 4.87757 6.11196 4.93399 5.59132 5.14965C5.07069 5.3653 4.62569 5.7305 4.31261 6.19906C3.99953 6.66762 3.83242 7.21849 3.83242 7.78203C3.83325 8.53745 4.13371 9.26169 4.66787 9.79585C5.20203 10.33 5.92627 10.6305 6.68169 10.6313ZM6.68169 6.18518C6.99751 6.18518 7.30625 6.27884 7.56885 6.4543C7.83145 6.62976 8.03612 6.87916 8.15698 7.17094C8.27784 7.46273 8.30946 7.7838 8.24785 8.09356C8.18623 8.40331 8.03415 8.68784 7.81083 8.91117C7.5875 9.13449 7.30297 9.28657 6.99322 9.34819C6.68346 9.4098 6.36239 9.37818 6.0706 9.25732C5.77882 9.13646 5.52943 8.93178 5.35396 8.66918C5.1785 8.40659 5.08485 8.09785 5.08485 7.78203C5.08567 7.35877 5.25418 6.95309 5.55346 6.6538C5.85275 6.35452 6.25843 6.18601 6.68169 6.18518Z" fill="#679AB4"/>
<path d="M23.3139 18.5278C22.6226 18.9438 21.9003 19.306 21.1535 19.6112C19.901 19.1008 13.498 16.1858 13.498 10.29C13.498 10.1239 13.432 9.96465 13.3146 9.84721C13.1972 9.72977 13.0379 9.6638 12.8718 9.6638C12.7057 9.6638 12.5464 9.72977 12.429 9.84721C12.3116 9.96465 12.2456 10.1239 12.2456 10.29C12.2456 17.4915 20.6149 20.9106 21.1535 20.9106C21.2251 20.9108 21.2962 20.8981 21.3632 20.873C22.2651 20.5324 23.1339 20.11 23.9589 19.6112C24.0294 19.5688 24.0909 19.513 24.1398 19.4469C24.1888 19.3808 24.2242 19.3057 24.2441 19.2259C24.2641 19.1461 24.2681 19.0631 24.2559 18.9817C24.2438 18.9004 24.2157 18.8222 24.1734 18.7517C24.131 18.6812 24.0752 18.6197 24.0091 18.5708C23.943 18.5218 23.8679 18.4864 23.7881 18.4665C23.7082 18.4465 23.6253 18.4425 23.5439 18.4547C23.4626 18.4668 23.3844 18.4949 23.3139 18.5372V18.5278Z" fill="#679AB4"/>
<path d="M12.8718 5.09557C13.0228 5.09728 13.1694 5.04435 13.2844 4.94654C13.3995 4.84872 13.4754 4.71262 13.498 4.56329C15.5269 4.92963 19.3218 4.81378 21.1597 2.15551C22.9945 4.81065 26.7956 4.92963 28.812 4.56643V4.71045C28.812 4.87654 28.878 5.03582 28.9955 5.15325C29.1129 5.27069 29.2722 5.33667 29.4383 5.33667C29.6043 5.33667 29.7636 5.27069 29.8811 5.15325C29.9985 5.03582 30.0645 4.87654 30.0645 4.71045V3.77114C30.0642 3.67183 30.0404 3.574 29.9949 3.48573C29.9494 3.39746 29.8835 3.32128 29.8028 3.26347C29.722 3.20566 29.6287 3.16789 29.5305 3.15326C29.4322 3.13864 29.332 3.14759 29.2379 3.17936C28.4927 3.42985 23.1699 4.26897 21.7358 0.596237C21.6897 0.479435 21.6095 0.379212 21.5056 0.308587C21.4017 0.237961 21.2791 0.200195 21.1535 0.200195C21.0279 0.200195 20.9052 0.237961 20.8013 0.308587C20.6975 0.379212 20.6172 0.479435 20.5711 0.596237C19.1245 4.26897 13.8236 3.42985 13.0753 3.17623C12.9811 3.14384 12.8804 3.13441 12.7818 3.14874C12.6831 3.16307 12.5893 3.20074 12.5082 3.25862C12.427 3.3165 12.3609 3.39291 12.3152 3.48151C12.2695 3.57011 12.2457 3.66833 12.2456 3.768V4.46936C12.2456 4.63544 12.3116 4.79472 12.429 4.91216C12.5464 5.0296 12.7057 5.09557 12.8718 5.09557Z" fill="#679AB4"/>
<path d="M13.2193 6.86149C13.1856 6.83965 13.1499 6.82079 13.1129 6.80514C13.074 6.79191 13.0343 6.78144 12.9939 6.77382C12.9117 6.76581 12.8287 6.77406 12.7496 6.79813C12.6706 6.82219 12.597 6.86159 12.5332 6.91407C12.4694 6.96655 12.4166 7.03108 12.3777 7.10399C12.3388 7.1769 12.3147 7.25675 12.3066 7.33898C12.2986 7.42122 12.3069 7.50423 12.3309 7.58327C12.355 7.66231 12.3944 7.73584 12.4469 7.79966C12.4994 7.86348 12.5639 7.91634 12.6368 7.95522C12.7097 7.9941 12.7896 8.01823 12.8718 8.02625C12.9124 8.02933 12.9533 8.02933 12.9939 8.02625C13.0344 8.01659 13.0742 8.00403 13.1129 7.98868C13.1499 7.97302 13.1856 7.95416 13.2193 7.93232C13.2527 7.90874 13.2841 7.88256 13.3133 7.85404C13.3715 7.79588 13.4177 7.72682 13.4492 7.6508C13.4807 7.57478 13.4969 7.49329 13.4969 7.411C13.4969 7.3287 13.4807 7.24721 13.4492 7.17119C13.4177 7.09517 13.3715 7.02611 13.3133 6.96795C13.2866 6.92867 13.255 6.8929 13.2193 6.86149Z" fill="#679AB4"/>
<path d="M31.9368 10.6094V10.5154L30.8535 7.45326C30.767 7.21004 30.6075 6.99947 30.3968 6.85039C30.186 6.7013 29.9344 6.62098 29.6762 6.6204H23.22C22.976 6.62024 22.7366 6.687 22.5279 6.81342C22.3193 6.93985 22.1493 7.12108 22.0364 7.33742L20.831 9.64501L18.3261 10.791C18.0935 10.8968 17.8964 11.0673 17.7581 11.2822C17.6199 11.4971 17.5464 11.7472 17.5465 12.0027V14.7048C17.5465 15.037 17.6784 15.3555 17.9133 15.5904C18.1482 15.8253 18.4667 15.9572 18.7989 15.9572H19.5097C19.6508 16.4919 19.9649 16.9648 20.403 17.3023C20.8411 17.6397 21.3785 17.8227 21.9315 17.8227C22.4845 17.8227 23.022 17.6397 23.4601 17.3023C23.8981 16.9648 24.2123 16.4919 24.3534 15.9572H26.6704C26.8115 16.4941 27.127 16.9689 27.5672 17.3071C28.0075 17.6452 28.5476 17.8275 29.1027 17.8254C29.6578 17.8232 30.1965 17.6367 30.6341 17.2952C31.0717 16.9536 31.3835 16.4764 31.5204 15.9384C31.6568 15.9055 31.7781 15.8277 31.865 15.7176C31.9518 15.6074 31.9992 15.4713 31.9995 15.331V11.1229C32.0037 10.9496 31.9826 10.7766 31.9368 10.6094ZM18.8114 12.0027C18.8119 11.9871 18.8165 11.972 18.8247 11.9588C18.833 11.9455 18.8446 11.9348 18.8584 11.9276L21.548 10.697C21.6748 10.6386 21.7783 10.5394 21.8423 10.4153L23.1448 7.9104C23.1527 7.89739 23.1637 7.88656 23.1768 7.8789C23.1899 7.87124 23.2048 7.867 23.22 7.86657H29.6386L30.4277 10.0959H25.6935C25.5274 10.0959 25.3681 10.1619 25.2507 10.2793C25.1333 10.3967 25.0673 10.556 25.0673 10.7221C25.0673 10.8882 25.1333 11.0475 25.2507 11.1649C25.3681 11.2823 25.5274 11.3483 25.6935 11.3483H30.7564V13.4461C30.4351 13.1656 30.0475 12.9718 29.6303 12.8831C29.2131 12.7944 28.7802 12.8136 28.3725 12.9391C27.9649 13.0645 27.596 13.2919 27.3009 13.5999C27.0057 13.9078 26.7941 14.2859 26.6861 14.6985H24.3691C24.2279 14.1639 23.9138 13.6909 23.4757 13.3535C23.0376 13.0161 22.5002 12.8331 21.9472 12.8331C21.3942 12.8331 20.8568 13.0161 20.4187 13.3535C19.9806 13.6909 19.6665 14.1639 19.5253 14.6985H18.8114V12.0027ZM21.9425 16.5803C21.6103 16.5803 21.2918 16.4484 21.0569 16.2135C20.822 15.9786 20.6901 15.6601 20.6901 15.3279C20.6901 15.0802 20.7635 14.838 20.9011 14.6321C21.0388 14.4261 21.2344 14.2656 21.4632 14.1708C21.6921 14.076 21.9439 14.0512 22.1868 14.0995C22.4298 14.1479 22.6529 14.2671 22.8281 14.4423C23.0032 14.6174 23.1225 14.8406 23.1709 15.0836C23.2192 15.3265 23.1944 15.5783 23.0996 15.8072C23.0048 16.036 22.8443 16.2316 22.6383 16.3692C22.4323 16.5069 22.1902 16.5803 21.9425 16.5803ZM29.1032 16.5803C28.8555 16.5803 28.6134 16.5069 28.4074 16.3692C28.2015 16.2316 28.0409 16.036 27.9461 15.8072C27.8513 15.5783 27.8265 15.3265 27.8749 15.0836C27.9232 14.8406 28.0425 14.6174 28.2176 14.4423C28.3928 14.2671 28.6159 14.1479 28.8589 14.0995C29.1018 14.0512 29.3537 14.076 29.5825 14.1708C29.8114 14.2656 30.007 14.4261 30.1446 14.6321C30.2822 14.838 30.3557 15.0802 30.3557 15.3279C30.3557 15.6574 30.2259 15.9736 29.9944 16.208C29.7629 16.4424 29.4483 16.5762 29.1189 16.5803H29.1032Z" fill="#679AB4"/>
<path d="M13.6702 18.5372L11.1654 17.3944L9.95991 15.0868C9.84708 14.8705 9.67708 14.6892 9.4684 14.5628C9.25972 14.4364 9.02036 14.3696 8.77637 14.3698H2.36708C2.10841 14.3697 1.85605 14.4497 1.64469 14.5989C1.43333 14.748 1.27333 14.9589 1.18667 15.2026L0.103325 18.2648C0.103325 18.2648 0.103325 18.2993 0.103325 18.3149C0.10186 18.3295 0.10186 18.3442 0.103325 18.3588C0.0437283 18.5239 0.00890907 18.6969 0 18.8723V23.0773C0.000978354 23.217 0.0486667 23.3524 0.135476 23.4619C0.222285 23.5714 0.343226 23.6487 0.479053 23.6816C0.617765 24.2169 0.929731 24.6913 1.3663 25.0307C1.80286 25.3701 2.33949 25.5556 2.89249 25.5581C3.44549 25.5606 3.98377 25.38 4.42339 25.0445C4.86301 24.7091 5.17926 24.2375 5.32281 23.7035H7.63666C7.77676 24.2395 8.09063 24.714 8.52914 25.0526C8.96765 25.3912 9.50606 25.5749 10.0601 25.5749C10.6141 25.5749 11.1526 25.3912 11.5911 25.0526C12.0296 24.714 12.3434 24.2395 12.4835 23.7035H13.1943C13.5265 23.7035 13.845 23.5715 14.0799 23.3367C14.3148 23.1018 14.4467 22.7832 14.4467 22.4511V19.7521C14.4458 19.4968 14.3723 19.247 14.2348 19.032C14.0973 18.8169 13.9015 18.6453 13.6702 18.5372ZM2.90563 24.3297C2.65792 24.3297 2.41578 24.2562 2.20982 24.1186C2.00386 23.981 1.84333 23.7854 1.74854 23.5566C1.65374 23.3277 1.62894 23.0759 1.67727 22.8329C1.72559 22.59 1.84487 22.3668 2.02003 22.1917C2.19518 22.0165 2.41834 21.8972 2.66129 21.8489C2.90424 21.8006 3.15606 21.8254 3.38491 21.9202C3.61376 22.015 3.80936 22.1755 3.94698 22.3815C4.0846 22.5874 4.15805 22.8296 4.15805 23.0773C4.15805 23.4094 4.0261 23.728 3.79122 23.9629C3.55635 24.1977 3.23779 24.3297 2.90563 24.3297ZM10.0664 24.3297C9.81866 24.3297 9.57652 24.2562 9.37056 24.1186C9.1646 23.981 9.00407 23.7854 8.90928 23.5566C8.81448 23.3277 8.78968 23.0759 8.83801 22.8329C8.88633 22.59 9.00561 22.3668 9.18077 22.1917C9.35592 22.0165 9.57908 21.8972 9.82203 21.8489C10.065 21.8006 10.3168 21.8254 10.5456 21.9202C10.7745 22.015 10.9701 22.1755 11.1077 22.3815C11.2453 22.5874 11.3188 22.8296 11.3188 23.0773C11.3188 23.4094 11.1868 23.728 10.952 23.9629C10.7171 24.1977 10.3985 24.3297 10.0664 24.3297ZM12.4898 22.4511C12.3497 21.915 12.0358 21.4406 11.5973 21.1019C11.1588 20.7633 10.6204 20.5796 10.0664 20.5796C9.51233 20.5796 8.97392 20.7633 8.53541 21.1019C8.09689 21.4406 7.78303 21.915 7.64292 22.4511H5.32281C5.21475 22.0385 5.00313 21.6603 4.70799 21.3524C4.41285 21.0445 4.04397 20.817 3.63632 20.6916C3.22866 20.5661 2.79573 20.5469 2.37854 20.6356C1.96136 20.7243 1.57374 20.9181 1.25243 21.1986V19.1008H6.31222C6.4783 19.1008 6.63758 19.0348 6.75502 18.9174C6.87246 18.8 6.93844 18.6407 6.93844 18.4746C6.93844 18.3085 6.87246 18.1492 6.75502 18.0318C6.63758 17.9144 6.4783 17.8484 6.31222 17.8484H1.58119L2.36708 15.6222H8.78889C8.8039 15.6215 8.81879 15.6253 8.83163 15.6331C8.84446 15.6409 8.85466 15.6524 8.86091 15.666L10.1666 18.1709C10.2288 18.2955 10.333 18.3942 10.4609 18.4496L13.1505 19.6769C13.1653 19.6831 13.178 19.6936 13.1869 19.7069C13.1958 19.7203 13.2006 19.736 13.2006 19.7521V22.4511H12.4898Z" fill="#679AB4"/>
</svg>
