<svg width="28" height="32" viewBox="0 0 28 32" fill="none" xmlns="http://www.w3.org/2000/svg">
<path d="M27.0721 15.708C26.9071 15.6995 26.7455 15.7568 26.6227 15.8673C26.4999 15.9778 26.426 16.1325 26.4171 16.2975C25.9182 25.5755 15.5985 30.0539 13.983 30.6964C12.3301 30.0352 1.53324 25.3541 1.53324 15.5958V6.09004C4.60825 6.76992 11.2011 6.76992 13.983 2.03577C16.7742 6.76992 23.364 6.76992 26.4359 6.09004V10.7213C26.4359 10.8867 26.5016 11.0454 26.6185 11.1623C26.7355 11.2793 26.8942 11.345 27.0596 11.345C27.225 11.345 27.3837 11.2793 27.5006 11.1623C27.6176 11.0454 27.6833 10.8867 27.6833 10.7213V5.27295C27.6838 5.1734 27.6604 5.0752 27.6151 4.98655C27.5698 4.8979 27.5039 4.82137 27.423 4.76337C27.3421 4.70536 27.2485 4.66756 27.15 4.65313C27.0515 4.6387 26.951 4.64805 26.8569 4.6804C24.7923 5.38834 16.796 6.08381 14.5662 0.398461C14.5207 0.281127 14.4409 0.180282 14.3371 0.109169C14.2333 0.0380556 14.1104 0 13.9845 0C13.8587 0 13.7358 0.0380556 13.632 0.109169C13.5282 0.180282 13.4484 0.281127 13.4029 0.398461C11.1731 6.08381 3.17366 5.38522 1.11222 4.6804C1.01821 4.64851 0.917958 4.63951 0.81978 4.65415C0.721601 4.6688 0.628336 4.70667 0.547735 4.76461C0.466695 4.82231 0.400631 4.89856 0.355059 4.98699C0.309487 5.07542 0.285728 5.17347 0.285767 5.27295V15.5958C0.285767 27.1536 13.8489 32 13.983 32C14.0553 31.9999 14.1271 31.9873 14.1951 31.9626C16.5175 31.0539 18.7002 29.8224 20.6788 28.3044C25.0044 25.0017 27.4182 20.8726 27.6615 16.363C27.67 16.198 27.6127 16.0364 27.5022 15.9136C27.3917 15.7908 27.237 15.7169 27.0721 15.708Z" fill="#679AB4"/>
<path d="M17.688 19.4193C18.7564 19.4199 19.8011 19.1036 20.6898 18.5105C21.5785 17.9173 22.2713 17.0739 22.6806 16.087C23.0899 15.1 23.1973 14.0138 22.9892 12.9658C22.7812 11.9178 22.267 10.9551 21.5117 10.1994C20.7564 9.44362 19.7939 8.92886 18.746 8.72019C17.6981 8.51152 16.6119 8.6183 15.6247 9.02704C14.6375 9.43578 13.7938 10.1281 13.2001 11.0165C12.6064 11.9048 12.2895 12.9493 12.2895 14.0177C12.2887 14.727 12.4278 15.4295 12.6987 16.085C12.9697 16.7406 13.3673 17.3362 13.8687 17.8379C14.3701 18.3396 14.9655 18.7375 15.6209 19.0089C16.2762 19.2802 16.9787 19.4197 17.688 19.4193ZM17.688 9.86364C18.5097 9.86302 19.3132 10.1061 19.9967 10.5622C20.6803 11.0183 21.2132 11.6669 21.5281 12.4259C21.843 13.1849 21.9257 14.0202 21.7657 14.8262C21.6058 15.6322 21.2104 16.3727 20.6296 16.954C20.0487 17.5353 19.3086 17.9312 18.5027 18.0917C17.6968 18.2523 16.8614 18.1702 16.1021 17.8559C15.3429 17.5416 14.6939 17.0091 14.2373 16.3259C13.7807 15.6427 13.537 14.8394 13.537 14.0177C13.5378 12.9168 13.9753 11.8611 14.7535 11.0824C15.5317 10.3036 16.587 9.86529 17.688 9.86364Z" fill="#679AB4"/>
<path d="M14.825 14.42L16.4655 16.0604C16.5235 16.1188 16.5925 16.1651 16.6685 16.1967C16.7445 16.2283 16.826 16.2445 16.9083 16.2445C17.0735 16.2438 17.2316 16.1776 17.348 16.0604L20.5572 12.8576C20.6742 12.7405 20.7399 12.5818 20.7399 12.4163C20.7399 12.2508 20.6742 12.092 20.5572 11.975C20.4401 11.8579 20.2814 11.7922 20.1159 11.7922C19.9503 11.7922 19.7916 11.8579 19.6746 11.975L16.9083 14.7381L15.7076 13.5374C15.5906 13.4204 15.4318 13.3547 15.2663 13.3547C15.1008 13.3547 14.9421 13.4204 14.825 13.5374C14.708 13.6545 14.6422 13.8132 14.6422 13.9787C14.6422 14.1442 14.708 14.303 14.825 14.42Z" fill="#679AB4"/>
<path d="M27.6709 13.4127C27.6612 13.3734 27.6487 13.3348 27.6334 13.2973C27.6179 13.2594 27.5991 13.2229 27.5773 13.1881C27.5548 13.1542 27.5286 13.1229 27.4993 13.0946C27.4267 13.0216 27.3371 12.9678 27.2387 12.9379C27.1402 12.9079 27.0358 12.9029 26.9348 12.9231C26.8955 12.9327 26.857 12.9452 26.8195 12.9605C26.7822 12.9754 26.7467 12.9942 26.7134 13.0166C26.6785 13.0391 26.6461 13.0653 26.6167 13.0946C26.5883 13.1237 26.5623 13.155 26.5388 13.1881C26.517 13.2229 26.4982 13.2594 26.4826 13.2973C26.4674 13.3348 26.4548 13.3734 26.4452 13.4127C26.4421 13.4532 26.4421 13.4938 26.4452 13.5343C26.442 13.5748 26.442 13.6155 26.4452 13.656C26.4544 13.6964 26.4669 13.7361 26.4826 13.7745C26.4982 13.8114 26.517 13.8468 26.5388 13.8805C26.563 13.9141 26.5891 13.9464 26.6167 13.9772C26.6469 14.0056 26.6792 14.0317 26.7134 14.0551C26.7467 14.0775 26.7822 14.0963 26.8195 14.1113C26.8949 14.1415 26.9752 14.1574 27.0565 14.1581C27.1386 14.1585 27.2199 14.1428 27.2959 14.1118C27.3719 14.0807 27.441 14.035 27.4993 13.9772C27.5279 13.9471 27.554 13.9148 27.5773 13.8805C27.5991 13.8468 27.6178 13.8114 27.6334 13.7745C27.6492 13.7361 27.6617 13.6964 27.6709 13.656C27.6741 13.6155 27.6741 13.5748 27.6709 13.5343C27.6739 13.4938 27.6739 13.4532 27.6709 13.4127Z" fill="#679AB4"/>
<path d="M12.6513 7.95813H4.65191C4.48649 7.95813 4.32784 8.02385 4.21087 8.14082C4.09389 8.25779 4.02818 8.41644 4.02818 8.58187C4.02818 8.74729 4.09389 8.90594 4.21087 9.02291C4.32784 9.13989 4.48649 9.2056 4.65191 9.2056H12.6513C12.8167 9.2056 12.9754 9.13989 13.0924 9.02291C13.2093 8.90594 13.2751 8.74729 13.2751 8.58187C13.2751 8.41644 13.2093 8.25779 13.0924 8.14082C12.9754 8.02385 12.8167 7.95813 12.6513 7.95813Z" fill="#679AB4"/>
<path d="M23.9409 8.58187C23.9409 8.41644 23.8752 8.25779 23.7582 8.14082C23.6413 8.02385 23.4826 7.95813 23.3172 7.95813H21.8982C21.7328 7.95813 21.5741 8.02385 21.4571 8.14082C21.3402 8.25779 21.2745 8.41644 21.2745 8.58187C21.2745 8.74729 21.3402 8.90594 21.4571 9.02291C21.5741 9.13989 21.7328 9.2056 21.8982 9.2056H23.3172C23.4826 9.2056 23.6413 9.13989 23.7582 9.02291C23.8752 8.90594 23.9409 8.74729 23.9409 8.58187Z" fill="#679AB4"/>
<path d="M4.65191 14.1487H10.1314C10.2968 14.1487 10.4555 14.083 10.5725 13.966C10.6894 13.849 10.7552 13.6904 10.7552 13.525C10.7552 13.3595 10.6894 13.2009 10.5725 13.0839C10.4555 12.9669 10.2968 12.9012 10.1314 12.9012H4.65191C4.48649 12.9012 4.32784 12.9669 4.21087 13.0839C4.09389 13.2009 4.02818 13.3595 4.02818 13.525C4.02818 13.6904 4.09389 13.849 4.21087 13.966C4.32784 14.083 4.48649 14.1487 4.65191 14.1487Z" fill="#679AB4"/>
<path d="M4.96378 19.0887H12.5453C12.7107 19.0887 12.8694 19.023 12.9863 18.906C13.1033 18.789 13.169 18.6304 13.169 18.4649C13.169 18.2995 13.1033 18.1409 12.9863 18.0239C12.8694 17.9069 12.7107 17.8412 12.5453 17.8412H4.96378C4.79835 17.8412 4.63971 17.9069 4.52273 18.0239C4.40576 18.1409 4.34004 18.2995 4.34004 18.4649C4.34004 18.6304 4.40576 18.789 4.52273 18.906C4.63971 19.023 4.79835 19.0887 4.96378 19.0887Z" fill="#679AB4"/>
<path d="M23.0116 19.0887C23.177 19.0887 23.3356 19.023 23.4526 18.906C23.5696 18.789 23.6353 18.6304 23.6353 18.4649C23.6353 18.2995 23.5696 18.1409 23.4526 18.0239C23.3356 17.9069 23.177 17.8412 23.0116 17.8412H22.8338C22.6684 17.8412 22.5097 17.9069 22.3927 18.0239C22.2758 18.1409 22.2101 18.2995 22.2101 18.4649C22.2101 18.6304 22.2758 18.789 22.3927 18.906C22.5097 19.023 22.6684 19.0887 22.8338 19.0887H23.0116Z" fill="#679AB4"/>
<path d="M22.3972 23.3925C22.3972 23.227 22.3315 23.0684 22.2145 22.9514C22.0975 22.8344 21.9389 22.7687 21.7734 22.7687H7.14685C6.98143 22.7687 6.82278 22.8344 6.70581 22.9514C6.58883 23.0684 6.52312 23.227 6.52312 23.3925C6.52312 23.5579 6.58883 23.7165 6.70581 23.8335C6.82278 23.9505 6.98143 24.0162 7.14685 24.0162H21.8046C21.9646 24.0082 22.1153 23.9389 22.2256 23.8228C22.336 23.7067 22.3974 23.5526 22.3972 23.3925Z" fill="#679AB4"/>
<path d="M12.7605 27.7243C12.595 27.7243 12.4364 27.79 12.3194 27.907C12.2024 28.024 12.1367 28.1826 12.1367 28.348C12.1367 28.5135 12.2024 28.6721 12.3194 28.7891C12.4364 28.9061 12.595 28.9718 12.7605 28.9718H15.1899C15.3553 28.9718 15.514 28.9061 15.631 28.7891C15.7479 28.6721 15.8137 28.5135 15.8137 28.348C15.8137 28.1826 15.7479 28.024 15.631 27.907C15.514 27.79 15.3553 27.7243 15.1899 27.7243H12.7605Z" fill="#679AB4"/>
</svg>
