<svg width="54" height="54" fill="none" xmlns="http://www.w3.org/2000/svg"><path d="M31.219 23.203a1.055 1.055 0 1 0-.001-2.11 1.055 1.055 0 0 0 0 2.11zm-4.219 0a1.055 1.055 0 1 0 0-2.11 1.055 1.055 0 0 0 0 2.11zm0 10.547a1.055 1.055 0 1 0 0 2.11 1.055 1.055 0 0 0 0-2.11zm-4.219-10.547a1.055 1.055 0 1 0 0-2.11 1.055 1.055 0 0 0 0 2.11z" fill="#679AB4"/><path d="M51.89 18.805a3.165 3.165 0 0 0 0-5.967V9.492c0-.582-.471-1.055-1.054-1.055h-5.273V7.383a3.168 3.168 0 0 0-3.165-3.164h-8.726A7.4 7.4 0 0 0 27 0a7.4 7.4 0 0 0-6.672 4.219h-8.726a3.168 3.168 0 0 0-3.165 3.164v1.054H3.165c-.582 0-1.055.473-1.055 1.055v3.344a3.165 3.165 0 0 0 0 5.967v33.088H1.055a1.055 1.055 0 1 0 0 2.109h51.89a1.055 1.055 0 1 0 0-2.11h-1.054V18.806zM41.028 45.563V33.75h4.535v11.813h-4.535zm-6.644 0V33.75h4.535v11.813h-4.535zM27 37.968c-.583 0-1.055.472-1.055 1.054v12.868h-4.218V27.42h10.546v24.47h-4.218V39.023c0-.582-.472-1.054-1.055-1.054zM8.437 45.562V33.75h4.536v11.813H8.437zm-4.218 0v-18.14h15.398v4.219H7.383c-.583 0-1.055.472-1.055 1.054v12.867h-2.11zM49.78 18.985v6.328H4.22v-6.328H49.78zM15.082 33.75h4.535v11.813h-4.535V33.75zm31.535-2.11H34.383v-4.218H49.78v18.14h-2.11V32.695c0-.582-.471-1.054-1.054-1.054zM10.547 7.384c0-.582.473-1.055 1.055-1.055h9.43c.447 0 .845-.282.994-.703A5.284 5.284 0 0 1 27 2.11a5.284 5.284 0 0 1 4.974 3.516c.15.421.548.703.994.703h9.43c.582 0 1.055.473 1.055 1.055v1.054H10.547V7.383zm39.234 3.164v2.11H4.22v-2.11H49.78zM3.164 14.766h47.672a1.056 1.056 0 0 1 0 2.109H3.164a1.056 1.056 0 0 1 0-2.11zM4.22 47.672h15.398v4.219H4.22v-4.22zm30.164 4.219v-4.22H49.78v4.22H34.383z" fill="#679AB4"/></svg>