<svg width="75" height="75" viewBox="0 0 75 75" fill="none" xmlns="http://www.w3.org/2000/svg">
<path d="M0 0H75V55C75 66.0457 66.0457 75 55 75H0V0Z" fill="#679AB4"/>
<path fill-rule="evenodd" clip-rule="evenodd" d="M24.3321 26.8439C24.2401 26.963 24.1902 27.1095 24.1902 27.2604C24.1902 27.4113 24.2401 27.5579 24.3321 27.677C24.3849 27.7787 25.9032 29.7161 29.1849 29.7161C30.8185 29.7161 32.1638 28.9605 33.4611 28.2292C34.7584 27.4978 35.9932 26.81 37.4923 26.81C38.9723 26.81 40.1386 27.5182 41.3887 28.2774L41.437 28.3066L41.443 28.3103C42.7098 29.0795 44.1015 29.9244 45.8045 29.9244C49.2206 29.9244 50.6476 27.7109 50.7053 27.6189C50.7802 27.499 50.8163 27.3586 50.8085 27.2172C50.8008 27.0757 50.7496 26.9402 50.6621 26.8294C49.0738 24.8526 47.0675 23.2584 44.7898 22.1633C42.5121 21.0683 40.0205 20.5 37.4971 20.5C34.9736 20.5 32.482 21.0683 30.2043 22.1633C27.9266 23.2584 25.9203 24.8526 24.3321 26.8294V26.8439ZM21.6178 31.4502C20.717 33.8245 20.3534 36.3716 20.5534 38.9057C20.7534 41.4397 21.5121 43.8968 22.774 46.0976C24.036 48.2984 25.7693 50.1875 27.8477 51.6271C29.9261 53.0666 32.297 54.0203 34.7876 54.4185C34.9351 54.4432 35.0865 54.417 35.2173 54.344C35.3482 54.271 35.4507 54.1556 35.5083 54.0165C35.5467 53.9196 36.4692 51.5947 34.8356 48.7321C34.0156 47.3158 32.6979 46.5218 31.4222 45.7531L31.4146 45.7485C30.1366 44.9783 28.9354 44.2518 28.1858 42.9392C27.4426 41.6535 27.4698 40.2471 27.4986 38.7587L27.4988 38.7495C27.5276 37.2577 27.5564 35.606 26.706 34.119C25.0003 31.1354 22.3817 31.0046 22.2664 30.9997C22.1249 30.9958 21.9858 31.0374 21.8692 31.1183C21.7526 31.1993 21.6646 31.3155 21.6178 31.4502ZM48.4616 34.2935C50.1097 31.4309 52.5649 31.0628 52.6706 31.0628C52.8203 31.0459 52.9712 31.0802 53.0993 31.1601C53.2273 31.24 53.3251 31.361 53.3769 31.5035C54.2802 33.8786 54.646 36.4271 54.4476 38.9629C54.2491 41.4987 53.4914 43.9579 52.2298 46.1608C50.9682 48.3637 49.2345 50.2548 47.1553 51.696C45.0761 53.1373 42.7039 54.0922 40.2119 54.4912C40.0735 54.5141 39.9315 54.4927 39.8057 54.4302C39.6799 54.3677 39.5767 54.2671 39.5104 54.1425C39.1993 53.4611 39.0449 52.7177 39.0587 51.9677C39.0716 50.8167 39.3884 49.6899 39.9765 48.7031C40.8118 47.246 42.1926 46.4682 43.4652 45.7513C43.4955 45.7342 43.5258 45.7171 43.556 45.7001C43.5952 45.678 43.6344 45.6559 43.6734 45.6339C44.9261 44.9286 46.0867 44.275 46.8136 42.9974C47.5631 41.6799 47.5872 40.2753 47.6064 38.7738C47.6256 37.2723 47.6496 35.7223 48.4616 34.2935Z" fill="white"/>
</svg>
