<svg width="145" height="42" viewBox="0 0 145 42" fill="none" xmlns="http://www.w3.org/2000/svg">
<path fill-rule="evenodd" clip-rule="evenodd" d="M4.74762 7.79874C4.63371 7.94511 4.57186 8.12531 4.57186 8.31081C4.57186 8.49631 4.63371 8.67651 4.74762 8.82289C4.8131 8.94793 6.69398 11.3297 10.7593 11.3297C12.783 11.3297 14.4497 10.4008 16.0567 9.50169C17.6638 8.60258 19.1935 7.75706 21.0506 7.75706C22.8841 7.75706 24.3289 8.6277 25.8776 9.56096L25.9373 9.59696L25.9448 9.60147C27.5142 10.547 29.2382 11.5857 31.3479 11.5857C35.5798 11.5857 37.3476 8.86457 37.4191 8.75144C37.5119 8.60408 37.5566 8.43151 37.547 8.25761C37.5374 8.08372 37.4739 7.91711 37.3655 7.78087C35.3979 5.35073 32.9125 3.39098 30.0909 2.04479C27.2693 0.69861 24.1827 0 21.0566 0C17.9305 0 14.8438 0.69861 12.0222 2.04479C9.20056 3.39098 6.71518 5.35073 4.74762 7.78087V7.79874ZM1.38469 13.4611C0.268802 16.38 -0.181667 19.5112 0.0661431 22.6264C0.313953 25.7415 1.25379 28.7621 2.81709 31.4676C4.38039 34.1732 6.52773 36.4955 9.10243 38.2652C11.6771 40.0348 14.6143 41.2072 17.6996 41.6968C17.8823 41.7272 18.0699 41.6949 18.232 41.6052C18.3941 41.5154 18.5211 41.3736 18.5924 41.2025C18.64 41.0835 19.7828 38.2254 17.7591 34.7063C16.7433 32.9651 15.1109 31.989 13.5306 31.0441L13.5212 31.0384C11.9379 30.0917 10.4498 29.1985 9.5213 27.5849C8.60061 26.0043 8.63428 24.2754 8.66992 22.4457L8.67014 22.4344C8.70585 20.6004 8.74156 18.57 7.68803 16.742C5.57501 13.0741 2.33108 12.9133 2.18823 12.9074C2.01291 12.9025 1.8406 12.9536 1.69617 13.0531C1.55174 13.1527 1.44266 13.2955 1.38469 13.4611ZM34.6394 16.9567C36.681 13.4377 39.7225 12.9852 39.8535 12.9852C40.0389 12.9644 40.2259 13.0066 40.3845 13.1048C40.5432 13.2031 40.6643 13.3517 40.7284 13.527C41.8475 16.4468 42.3006 19.5797 42.0548 22.6971C41.8089 25.8144 40.8703 28.8375 39.3074 31.5456C37.7445 34.2537 35.5968 36.5785 33.0211 38.3503C30.4454 40.122 27.5067 41.296 24.4195 41.7865C24.2481 41.8146 24.0721 41.7883 23.9163 41.7115C23.7605 41.6346 23.6326 41.5109 23.5505 41.3578C23.1651 40.5201 22.9738 39.6062 22.991 38.6843C23.0069 37.2692 23.3993 35.884 24.1278 34.671C25.1627 32.8797 26.8732 31.9235 28.4497 31.0422C28.4873 31.0212 28.5248 31.0002 28.5622 30.9793C28.6108 30.9521 28.6593 30.925 28.7077 30.898C30.2595 30.0308 31.6973 29.2274 32.5978 27.6567C33.5263 26.0372 33.5561 24.3104 33.5799 22.4645C33.6037 20.6187 33.6334 18.7133 34.6394 16.9567Z" fill="#679AB4"/>
<path d="M124.999 2.62689C125.017 2.34898 125.142 2.08888 125.348 1.90113C125.553 1.71337 125.824 1.61253 126.102 1.61976C126.244 1.60373 126.388 1.61782 126.523 1.66112C126.659 1.70442 126.785 1.77595 126.891 1.87102C126.998 1.9661 127.083 2.08257 127.141 2.21283C127.199 2.34308 127.23 2.48418 127.23 2.62689C127.23 2.7696 127.199 2.9107 127.141 3.04096C127.083 3.17121 126.998 3.28769 126.891 3.38276C126.785 3.47784 126.659 3.54936 126.523 3.59266C126.388 3.63596 126.244 3.65006 126.102 3.63403C125.823 3.64287 125.552 3.54259 125.346 3.35451C125.14 3.16643 125.015 2.90538 124.999 2.62689V2.62689ZM74.86 16.7396C74.7214 16.7285 74.582 16.7463 74.4506 16.7917C74.3192 16.8371 74.1987 16.9093 74.0965 17.0036C73.9944 17.0979 73.9128 17.2123 73.8571 17.3397C73.8013 17.467 73.7725 17.6045 73.7725 17.7436C73.7725 17.8826 73.8013 18.0201 73.8571 18.1475C73.9128 18.2748 73.9944 18.3893 74.0965 18.4836C74.1987 18.5779 74.3192 18.65 74.4506 18.6954C74.582 18.7409 74.7214 18.7586 74.86 18.7475C74.9986 18.7586 75.138 18.7409 75.2694 18.6954C75.4008 18.65 75.5213 18.5779 75.6235 18.4836C75.7256 18.3893 75.8071 18.2748 75.8629 18.1475C75.9187 18.0201 75.9474 17.8826 75.9474 17.7436C75.9474 17.6045 75.9187 17.467 75.8629 17.3397C75.8071 17.2123 75.7256 17.0979 75.6235 17.0036C75.5213 16.9093 75.4008 16.8371 75.2694 16.7917C75.138 16.7463 74.9986 16.7285 74.86 16.7396V16.7396ZM60.3495 9.15083C60.323 9.52588 60.1743 9.88192 59.9261 10.1644C59.1563 10.87 57.6873 11.0432 56.5006 10.9342C55.3138 10.8251 54.1848 10.1965 54.1848 9.07385C54.1848 7.95125 54.5376 6.70676 56.7187 6.65544H59.2333C59.5797 6.65544 60.1635 6.65544 60.3816 6.38601L60.3495 9.15083ZM84.5144 5.60981C84.4194 5.69996 84.3455 5.80992 84.2978 5.93188C84.2501 6.05384 84.2299 6.18479 84.2386 6.31545V11.6141C84.2386 12.6598 83.5137 13.2564 82.3847 13.2564H76.1943C75.0653 13.2564 74.3404 12.6598 74.3404 11.6141V3.70459H72.294V11.6783C72.2555 12.6662 71.5307 13.2435 70.4337 13.2435H64.2369C62.7551 13.2435 62.4151 12.6726 62.3702 11.6783V3.70459H60.3688V4.60909C60.1763 4.92342 59.6118 4.97474 59.0409 4.97474H56.7187C53.4728 4.97474 52.2283 6.77732 52.2283 8.97121C52.2283 11.1651 54.1078 12.5251 56.4878 12.6918C59.2397 12.8843 60.3688 11.999 60.3688 11.999C60.3688 11.999 60.2597 15.091 63.1336 15.091H70.5235C72.1144 15.091 72.7623 14.7189 73.3717 14.1673C74.1241 14.8103 75.0975 15.1347 76.0852 15.0718H82.5001C84.9378 15.0718 86.2913 13.7888 86.2913 11.5757V5.36604H85.22C84.963 5.3589 84.7122 5.44555 84.5144 5.60981V5.60981ZM85.2649 1.61976C85.1231 1.60373 84.9795 1.61782 84.8436 1.66112C84.7076 1.70442 84.5823 1.77595 84.4758 1.87102C84.3694 1.9661 84.2843 2.08257 84.226 2.21283C84.1677 2.34308 84.1375 2.48418 84.1375 2.62689C84.1375 2.7696 84.1677 2.9107 84.226 3.04096C84.2843 3.17121 84.3694 3.28769 84.4758 3.38276C84.5823 3.47784 84.7076 3.54936 84.8436 3.59266C84.9795 3.63596 85.1231 3.65006 85.2649 3.63403C85.4067 3.65006 85.5503 3.63596 85.6863 3.59266C85.8223 3.54936 85.9476 3.47784 86.054 3.38276C86.1605 3.28769 86.2456 3.17121 86.3039 3.04096C86.3622 2.9107 86.3923 2.7696 86.3923 2.62689C86.3923 2.48418 86.3622 2.34308 86.3039 2.21283C86.2456 2.08257 86.1605 1.9661 86.054 1.87102C85.9476 1.77595 85.8223 1.70442 85.6863 1.66112C85.5503 1.61782 85.4067 1.60373 85.2649 1.61976V1.61976ZM92.8538 13.2307C91.3334 13.2307 90.2878 11.9926 90.2878 10.2093C90.2472 9.28787 90.5696 8.38729 91.1859 7.70107C91.426 7.42874 91.7225 7.21193 92.0548 7.06571C92.3872 6.91948 92.7473 6.84734 93.1103 6.8543C94.4831 6.8543 95.4005 7.49579 95.4261 8.98404C95.4261 8.98404 95.4774 12.7303 95.4839 13.2307H92.8538ZM93.1424 5.3468C92.0264 5.32709 90.9397 5.70449 90.0761 6.41167C89.5007 6.88773 89.0416 7.48881 88.7337 8.16915C88.4257 8.84949 88.2771 9.59113 88.2992 10.3376C88.2485 11.5685 88.6682 12.7727 89.4731 13.7054C89.8694 14.1623 90.3635 14.5241 90.9188 14.764C91.474 15.0039 92.0762 15.1157 92.6805 15.091H95.0541C94.6663 16.025 93.9716 16.7989 93.0847 17.2849C91.9493 17.9031 90.7136 18.3157 89.4346 18.5037L90.2557 20.2614C92.2619 20.0128 94.1306 19.1111 95.5737 17.6955C97.0106 16.2585 97.4596 14.8023 97.4596 12.5186V9.56138C97.4789 6.76449 96.1061 5.3468 93.1424 5.3468V5.3468ZM142.762 0.11226V15.0974H144.891V0.11226H142.762ZM114.055 11.9285C114.055 11.9285 111.54 9.89496 111.014 9.41384C110.18 8.64405 110.174 6.77732 113.959 6.77732C114.644 6.75357 115.327 6.8809 115.957 7.15029C116.588 7.41968 117.152 7.82453 117.609 8.33614L114.055 11.9285ZM138.836 0.381683C138.748 0.464456 138.678 0.563826 138.63 0.673978C138.581 0.784129 138.555 0.902846 138.553 1.02317V11.7168C138.515 12.7111 137.79 13.282 136.687 13.282H130.567C129.438 13.282 128.687 12.6405 128.687 11.6141V5.37888H127.629C127.371 5.37232 127.119 5.46143 126.923 5.62906C126.837 5.71178 126.768 5.81142 126.722 5.92178C126.675 6.03214 126.652 6.15086 126.654 6.27055V11.5692C126.654 12.5956 125.679 13.205 124.595 13.2307H116.255C116.121 13.2343 115.988 13.2106 115.863 13.161C115.738 13.1113 115.625 13.0368 115.53 12.942L120.021 8.34897C120.021 8.34897 118.59 5.26341 113.792 5.26341C108.705 5.26341 107.948 8.64405 109.302 9.93344C110.655 11.2228 112.65 12.833 112.669 12.8522C112.233 13.3013 111.001 13.173 108.865 13.173H103.374C101.584 13.173 101.668 11.2485 101.668 11.2485V0.0865995H100.558C100.303 0.0767578 100.053 0.163828 99.8588 0.330363C99.7679 0.418142 99.6963 0.524004 99.6488 0.641123C99.6013 0.758242 99.5789 0.884021 99.583 1.01034V12.1337C99.583 12.1337 99.6535 15.1167 102.592 15.1167H111.624C112.556 15.1484 113.467 14.8406 114.19 14.2507C114.526 14.5534 114.919 14.7859 115.347 14.9346C115.774 15.0833 116.227 15.1452 116.679 15.1167H124.556C126.449 15.1167 126.942 14.8793 127.661 14.2186C128.442 14.8591 129.436 15.182 130.445 15.1231H136.802C139.24 15.1231 140.574 13.7952 140.574 11.6141V0.131503H139.535C139.277 0.124331 139.025 0.213517 138.829 0.381683H138.836ZM129.213 3.63403C129.355 3.65006 129.499 3.63596 129.635 3.59266C129.771 3.54936 129.896 3.47784 130.002 3.38276C130.109 3.28769 130.194 3.17121 130.252 3.04096C130.311 2.9107 130.341 2.7696 130.341 2.62689C130.341 2.48418 130.311 2.34308 130.252 2.21283C130.194 2.08257 130.109 1.9661 130.002 1.87102C129.896 1.77595 129.771 1.70442 129.635 1.66112C129.499 1.61782 129.355 1.60373 129.213 1.61976C129.072 1.60373 128.928 1.61782 128.792 1.66112C128.656 1.70442 128.531 1.77595 128.424 1.87102C128.318 1.9661 128.233 2.08257 128.174 2.21283C128.116 2.34308 128.086 2.48418 128.086 2.62689C128.086 2.7696 128.116 2.9107 128.174 3.04096C128.233 3.17121 128.318 3.28769 128.424 3.38276C128.531 3.47784 128.656 3.54936 128.792 3.59266C128.928 3.63596 129.072 3.65006 129.213 3.63403V3.63403ZM71.7744 16.7525C71.6358 16.7414 71.4965 16.7591 71.3651 16.8045C71.2337 16.8499 71.1131 16.9221 71.0109 17.0164C70.9088 17.1107 70.8273 17.2251 70.7715 17.3525C70.7158 17.4798 70.687 17.6174 70.687 17.7564C70.687 17.8954 70.7158 18.0329 70.7715 18.1603C70.8273 18.2877 70.9088 18.4021 71.0109 18.4964C71.1131 18.5907 71.2337 18.6628 71.3651 18.7083C71.4965 18.7537 71.6358 18.7714 71.7744 18.7603C71.913 18.7714 72.0524 18.7537 72.1838 18.7083C72.3152 18.6628 72.4358 18.5907 72.5379 18.4964C72.6401 18.4021 72.7216 18.2877 72.7773 18.1603C72.8331 18.0329 72.8619 17.8954 72.8619 17.7564C72.8619 17.6174 72.8331 17.4798 72.7773 17.3525C72.7216 17.2251 72.6401 17.1107 72.5379 17.0164C72.4358 16.9221 72.3152 16.8499 72.1838 16.8045C72.0524 16.7591 71.913 16.7414 71.7744 16.7525V16.7525ZM59.2846 2.01106C59.4232 2.02215 59.5626 2.00442 59.694 1.959C59.8254 1.91358 59.946 1.84144 60.0481 1.74714C60.1503 1.65283 60.2318 1.5384 60.2876 1.41104C60.3433 1.28368 60.3721 1.14616 60.3721 1.00713C60.3721 0.868106 60.3433 0.730585 60.2876 0.603228C60.2318 0.47587 60.1503 0.361437 60.0481 0.267131C59.946 0.172825 59.8254 0.100689 59.694 0.055267C59.5626 0.00984455 59.4232 -0.007879 59.2846 0.00320776C59.1461 -0.007879 59.0067 0.00984455 58.8753 0.055267C58.7439 0.100689 58.6233 0.172825 58.5212 0.267131C58.419 0.361437 58.3375 0.47587 58.2817 0.603228C58.226 0.730585 58.1972 0.868106 58.1972 1.00713C58.1972 1.14616 58.226 1.28368 58.2817 1.41104C58.3375 1.5384 58.419 1.65283 58.5212 1.74714C58.6233 1.84144 58.7439 1.91358 58.8753 1.959C59.0067 2.00442 59.1461 2.02215 59.2846 2.01106V2.01106ZM56.1927 2.01106C56.3313 2.02215 56.4706 2.00442 56.602 1.959C56.7334 1.91358 56.854 1.84144 56.9562 1.74714C57.0583 1.65283 57.1398 1.5384 57.1956 1.41104C57.2513 1.28368 57.2801 1.14616 57.2801 1.00713C57.2801 0.868106 57.2513 0.730585 57.1956 0.603228C57.1398 0.47587 57.0583 0.361437 56.9562 0.267131C56.854 0.172825 56.7334 0.100689 56.602 0.055267C56.4706 0.00984455 56.3313 -0.007879 56.1927 0.00320776C56.0541 -0.007879 55.9147 0.00984455 55.7833 0.055267C55.6519 0.100689 55.5313 0.172825 55.4292 0.267131C55.327 0.361437 55.2455 0.47587 55.1898 0.603228C55.134 0.730585 55.1052 0.868106 55.1052 1.00713C55.1052 1.14616 55.134 1.28368 55.1898 1.41104C55.2455 1.5384 55.327 1.65283 55.4292 1.74714C55.5313 1.84144 55.6519 1.91358 55.7833 1.959C55.9147 2.00442 56.0541 2.02215 56.1927 2.01106V2.01106Z" fill="#818B9B"/>
<path d="M71.8891 33.5399C71.886 33.7029 71.8503 33.8637 71.7841 34.0126C71.7179 34.1616 71.6225 34.2958 71.5036 34.4073C70.6684 35.082 69.6982 35.1462 68.336 35.1462C67.1538 35.1462 65.8752 34.4716 65.8752 33.3729C65.8752 32.2742 67.1602 31.5224 68.3168 31.5224H70.7904C71.1738 31.524 71.5538 31.4497 71.9084 31.304L71.8891 33.5399ZM72.0562 36.7011H73.8681V28.3998C73.8681 26.196 71.5614 25.0331 69.287 25.0331C66.7169 25.0331 65.0143 26.0097 64.3653 27.8409L64.3268 27.9372L66.1579 28.5283L66.1965 28.4384C66.6912 27.057 68.124 26.7679 69.2291 26.7679C70.5142 26.7679 71.8891 27.2754 71.8891 28.3998V29.5307C71.5109 29.7857 71.0595 29.9098 70.6041 29.884H68.336C66.023 29.8519 63.8706 31.0855 63.8706 33.3729C63.8706 35.5574 66.1451 36.8617 68.3682 36.8617C69.6661 36.886 70.9488 36.5786 72.0947 35.9686C72.0947 35.9686 72.0755 36.6626 72.0755 36.7011H72.0562ZM142.912 33.5399C142.91 33.7031 142.875 33.864 142.808 34.0131C142.742 34.1622 142.646 34.2963 142.527 34.4073C141.692 35.082 140.721 35.1462 139.366 35.1462C138.183 35.1462 136.898 34.4716 136.898 33.3729C136.898 32.2742 138.183 31.5224 139.34 31.5224H141.794C142.178 31.5247 142.558 31.4504 142.912 31.304V33.5399ZM143.079 36.7011H144.891V28.3998C144.891 26.196 142.585 25.0331 140.31 25.0331C137.74 25.0331 136.037 26.0097 135.389 27.8409L135.35 27.9372L137.188 28.5283V28.4384C137.689 27.057 139.115 26.7679 140.22 26.7679C141.505 26.7679 142.88 27.2754 142.88 28.3998V29.5307C142.502 29.7857 142.051 29.9098 141.595 29.884H139.327C137.014 29.8519 134.83 31.0855 134.83 33.3729C134.83 35.5574 137.104 36.8617 139.327 36.8617C140.623 36.8861 141.904 36.5786 143.047 35.9686C143.047 35.9686 143.079 36.6626 143.079 36.7011ZM65.978 21.6149H52.2283V23.4011H58.1073V36.6882H60.1954V23.4011H66.068V21.6149H65.978ZM132.928 25.4443C132.687 25.5921 132.505 25.8193 132.414 26.0868C132.414 26.0868 129.516 32.8525 128.989 34.0989C128.809 33.6877 125.25 25.2323 125.25 25.2323H123.117L127.91 36.5597L126.946 38.7443C126.522 39.7402 126.008 40.0293 124.858 40.0293H124.215V41.7898H125.102C125.902 41.8401 126.698 41.6343 127.374 41.2023C128.05 40.7703 128.57 40.1344 128.861 39.3868L134.965 25.2515H133.757C133.469 25.2388 133.183 25.3031 132.928 25.4379V25.4443ZM119.878 25.5021C119.787 25.59 119.716 25.6961 119.668 25.8134C119.62 25.9307 119.598 26.0566 119.602 26.1832V36.6818H121.639V25.2515H120.585C120.328 25.245 120.077 25.3317 119.878 25.4957V25.5021ZM119.519 22.5401C119.535 22.8179 119.659 23.0784 119.864 23.2666C120.069 23.4548 120.339 23.556 120.617 23.5489C120.759 23.5649 120.903 23.5508 121.039 23.5074C121.175 23.4641 121.301 23.3924 121.408 23.2972C121.514 23.202 121.599 23.0853 121.658 22.9549C121.716 22.8244 121.746 22.6831 121.746 22.5401C121.746 22.3972 121.716 22.2559 121.658 22.1254C121.599 21.9949 121.514 21.8783 121.408 21.7831C121.301 21.6878 121.175 21.6162 121.039 21.5728C120.903 21.5295 120.759 21.5153 120.617 21.5314C120.34 21.5242 120.071 21.6245 119.866 21.8113C119.661 21.9982 119.537 22.2571 119.519 22.5337V22.5401ZM109.174 26.2217V25.2515H107.163V36.6754H109.174V29.6463C109.174 28.0208 110.536 26.7936 112.342 26.7936C115.149 26.7936 115.721 28.0786 115.721 30.0575V36.6754H117.694V29.9419C117.694 26.7293 115.888 25.0652 112.329 25.0652C111.174 25.0641 110.057 25.4716 109.174 26.2153V26.2217ZM103.681 25.5342C103.5 25.7203 103.399 25.969 103.398 26.2281V32.7561C103.398 34.3174 101.772 35.1655 100.237 35.1655C97.429 35.1655 96.8571 33.8162 96.8571 31.7859V25.2515H94.8461V31.7795C94.8461 35.294 96.5102 36.8617 100.237 36.8617C101.36 36.8709 102.461 36.5442 103.398 35.9237V36.6754H105.383V25.2515H104.342C104.095 25.2557 103.858 25.3546 103.681 25.5278V25.5342ZM93.5996 25.2515H92.6358C92.3339 25.2576 92.0373 25.3323 91.7684 25.47C91.5397 25.6444 91.3731 25.8876 91.293 26.1639L88.4852 33.6877L84.9257 25.2515H83.0624L79.5479 33.6877L76.4702 25.2515H74.3435L78.5456 36.6754H80.4281L84.0069 28.1364L87.5857 36.6754H89.4747L93.741 25.2515H93.5996Z" fill="#818B9B"/>
</svg>
